<svg xmlns="http://www.w3.org/2000/svg" xmlns:xlink="http://www.w3.org/1999/xlink" version="1.1" class="marks" width="667" height="458" viewBox="0 0 667 458"><rect width="667" height="458" fill="white"/><g fill="none" stroke-miterlimit="10" transform="translate(57,12)"><g class="mark-group role-frame root" role="graphics-object" aria-roledescription="group mark container"><g transform="translate(0,0)"><path class="background" aria-hidden="true" d="M0.5,0.5h600v400h-600Z" stroke="#ddd"/><g><g class="mark-group role-axis" aria-hidden="true"><g transform="translate(0.5,400.5)"><path class="background" aria-hidden="true" d="M0,0h0v0h0Z" pointer-events="none"/><g><g class="mark-rule role-axis-grid" pointer-events="none"><line transform="translate(0,-400)" x2="0" y2="400" stroke="#ddd" stroke-width="1" opacity="1"/><line transform="translate(94,-400)" x2="0" y2="400" stroke="#ddd" stroke-width="1" opacity="1"/><line transform="translate(192,-400)" x2="0" y2="400" stroke="#ddd" stroke-width="1" opacity="1"/><line transform="translate(322,-400)" x2="0" y2="400" stroke="#ddd" stroke-width="1" opacity="1"/><line transform="translate(420,-400)" x2="0" y2="400" stroke="#ddd" stroke-width="1" opacity="1"/><line transform="translate(576,-400)" x2="0" y2="400" stroke="#ddd" stroke-width="1" opacity="1"/></g></g><path class="foreground" aria-hidden="true" d="" pointer-events="none" display="none"/></g></g><g class="mark-group role-axis" aria-hidden="true"><g transform="translate(0.5,0.5)"><path class="background" aria-hidden="true" d="M0,0h0v0h0Z" pointer-events="none"/><g><g class="mark-rule role-axis-grid" pointer-events="none"><line transform="translate(0,400)" x2="600" y2="0" stroke="#ddd" stroke-width="1" opacity="1"/><line transform="translate(0,371)" x2="600" y2="0" stroke="#ddd" stroke-width="1" opacity="1"/><line transform="translate(0,343)" x2="600" y2="0" stroke="#ddd" stroke-width="1" opacity="1"/><line transform="translate(0,314)" x2="600" y2="0" stroke="#ddd" stroke-width="1" opacity="1"/><line transform="translate(0,286)" x2="600" y2="0" stroke="#ddd" stroke-width="1" opacity="1"/><line transform="translate(0,257)" x2="600" y2="0" stroke="#ddd" stroke-width="1" opacity="1"/><line transform="translate(0,229)" x2="600" y2="0" stroke="#ddd" stroke-width="1" opacity="1"/><line transform="translate(0,200)" x2="600" y2="0" stroke="#ddd" stroke-width="1" opacity="1"/><line transform="translate(0,171)" x2="600" y2="0" stroke="#ddd" stroke-width="1" opacity="1"/><line transform="translate(0,143)" x2="600" y2="0" stroke="#ddd" stroke-width="1" opacity="1"/><line transform="translate(0,114)" x2="600" y2="0" stroke="#ddd" stroke-width="1" opacity="1"/><line transform="translate(0,86)" x2="600" y2="0" stroke="#ddd" stroke-width="1" opacity="1"/><line transform="translate(0,57)" x2="600" y2="0" stroke="#ddd" stroke-width="1" opacity="1"/><line transform="translate(0,29)" x2="600" y2="0" stroke="#ddd" stroke-width="1" opacity="1"/><line transform="translate(0,0)" x2="600" y2="0" stroke="#ddd" stroke-width="1" opacity="1"/></g></g><path class="foreground" aria-hidden="true" d="" pointer-events="none" display="none"/></g></g><g class="mark-group role-axis" role="graphics-symbol" aria-roledescription="axis" aria-label="X-axis titled 'Number of parameters' for a log scale with values from 517.2k to 35.570064M"><g transform="translate(0.5,400.5)"><path class="background" aria-hidden="true" d="M0,0h0v0h0Z" pointer-events="none"/><g><g class="mark-rule role-axis-tick" pointer-events="none"><line transform="translate(0,0)" x2="0" y2="5" stroke="#888" stroke-width="1" opacity="1"/><line transform="translate(94,0)" x2="0" y2="5" stroke="#888" stroke-width="1" opacity="1"/><line transform="translate(192,0)" x2="0" y2="5" stroke="#888" stroke-width="1" opacity="1"/><line transform="translate(322,0)" x2="0" y2="5" stroke="#888" stroke-width="1" opacity="1"/><line transform="translate(420,0)" x2="0" y2="5" stroke="#888" stroke-width="1" opacity="1"/><line transform="translate(576,0)" x2="0" y2="5" stroke="#888" stroke-width="1" opacity="1"/></g><g class="mark-text role-axis-label" pointer-events="none"><text text-anchor="start" transform="translate(0,18)" font-family="Times New Roman" font-size="14px" fill="#000" opacity="1">517K</text><text text-anchor="middle" transform="translate(93.50301894236229,18)" font-family="Times New Roman" font-size="14px" fill="#000" opacity="1">1M</text><text text-anchor="middle" transform="translate(191.80247948182728,18)" font-family="Times New Roman" font-size="14px" fill="#000" opacity="1">2M</text><text text-anchor="middle" transform="translate(321.74729808121776,18)" font-family="Times New Roman" font-size="14px" fill="#000" opacity="1">5M</text><text text-anchor="middle" transform="translate(420.04675862068274,18)" font-family="Times New Roman" font-size="14px" fill="#000" opacity="1">10M</text><text text-anchor="middle" transform="translate(575.8477174168535,18)" font-family="Times New Roman" font-size="14px" fill="#000" opacity="1">30M</text></g><g class="mark-rule role-axis-domain" pointer-events="none"><line transform="translate(0,0)" x2="600" y2="0" stroke="#888" stroke-width="1" opacity="1"/></g><g class="mark-text role-axis-title" pointer-events="none"><text text-anchor="middle" transform="translate(300,38)" font-family="Times New Roman" font-size="16px" font-weight="bold" fill="#000" opacity="1">Number of parameters</text></g></g><path class="foreground" aria-hidden="true" d="" pointer-events="none" display="none"/></g></g><g class="mark-group role-axis" role="graphics-symbol" aria-roledescription="axis" aria-label="Y-axis titled 'Success rate' for a linear scale with values from 0.3 to 1.0"><g transform="translate(0.5,0.5)"><path class="background" aria-hidden="true" d="M0,0h0v0h0Z" pointer-events="none"/><g><g class="mark-rule role-axis-tick" pointer-events="none"><line transform="translate(0,400)" x2="-5" y2="0" stroke="#888" stroke-width="1" opacity="1"/><line transform="translate(0,371)" x2="-5" y2="0" stroke="#888" stroke-width="1" opacity="1"/><line transform="translate(0,343)" x2="-5" y2="0" stroke="#888" stroke-width="1" opacity="1"/><line transform="translate(0,314)" x2="-5" y2="0" stroke="#888" stroke-width="1" opacity="1"/><line transform="translate(0,286)" x2="-5" y2="0" stroke="#888" stroke-width="1" opacity="1"/><line transform="translate(0,257)" x2="-5" y2="0" stroke="#888" stroke-width="1" opacity="1"/><line transform="translate(0,229)" x2="-5" y2="0" stroke="#888" stroke-width="1" opacity="1"/><line transform="translate(0,200)" x2="-5" y2="0" stroke="#888" stroke-width="1" opacity="1"/><line transform="translate(0,171)" x2="-5" y2="0" stroke="#888" stroke-width="1" opacity="1"/><line transform="translate(0,143)" x2="-5" y2="0" stroke="#888" stroke-width="1" opacity="1"/><line transform="translate(0,114)" x2="-5" y2="0" stroke="#888" stroke-width="1" opacity="1"/><line transform="translate(0,86)" x2="-5" y2="0" stroke="#888" stroke-width="1" opacity="1"/><line transform="translate(0,57)" x2="-5" y2="0" stroke="#888" stroke-width="1" opacity="1"/><line transform="translate(0,29)" x2="-5" y2="0" stroke="#888" stroke-width="1" opacity="1"/><line transform="translate(0,0)" x2="-5" y2="0" stroke="#888" stroke-width="1" opacity="1"/></g><g class="mark-text role-axis-label" pointer-events="none"><text text-anchor="end" transform="translate(-7,404)" font-family="Times New Roman" font-size="14px" fill="#000" opacity="1">0.30</text><text text-anchor="end" transform="translate(-7,375.42857142857144)" font-family="Times New Roman" font-size="14px" fill="#000" opacity="1">0.35</text><text text-anchor="end" transform="translate(-7,346.85714285714283)" font-family="Times New Roman" font-size="14px" fill="#000" opacity="1">0.40</text><text text-anchor="end" transform="translate(-7,318.2857142857143)" font-family="Times New Roman" font-size="14px" fill="#000" opacity="1">0.45</text><text text-anchor="end" transform="translate(-7,289.71428571428567)" font-family="Times New Roman" font-size="14px" fill="#000" opacity="1">0.50</text><text text-anchor="end" transform="translate(-7,261.1428571428571)" font-family="Times New Roman" font-size="14px" fill="#000" opacity="1">0.55</text><text text-anchor="end" transform="translate(-7,232.57142857142856)" font-family="Times New Roman" font-size="14px" fill="#000" opacity="1">0.60</text><text text-anchor="end" transform="translate(-7,203.99999999999994)" font-family="Times New Roman" font-size="14px" fill="#000" opacity="1">0.65</text><text text-anchor="end" transform="translate(-7,175.42857142857144)" font-family="Times New Roman" font-size="14px" fill="#000" opacity="1">0.70</text><text text-anchor="end" transform="translate(-7,146.85714285714283)" font-family="Times New Roman" font-size="14px" fill="#000" opacity="1">0.75</text><text text-anchor="end" transform="translate(-7,118.28571428571428)" font-family="Times New Roman" font-size="14px" fill="#000" opacity="1">0.80</text><text text-anchor="end" transform="translate(-7,89.71428571428568)" font-family="Times New Roman" font-size="14px" fill="#000" opacity="1">0.85</text><text text-anchor="end" transform="translate(-7,61.142857142857075)" font-family="Times New Roman" font-size="14px" fill="#000" opacity="1">0.90</text><text text-anchor="end" transform="translate(-7,32.571428571428605)" font-family="Times New Roman" font-size="14px" fill="#000" opacity="1">0.95</text><text text-anchor="end" transform="translate(-7,4)" font-family="Times New Roman" font-size="14px" fill="#000" opacity="1">1.00</text></g><g class="mark-rule role-axis-domain" pointer-events="none"><line transform="translate(0,400)" x2="0" y2="-400" stroke="#888" stroke-width="1" opacity="1"/></g><g class="mark-text role-axis-title" pointer-events="none"><text text-anchor="middle" transform="translate(-35.5,200) rotate(-90) translate(0,-3)" font-family="Times New Roman" font-size="16px" font-weight="bold" fill="#000" opacity="1">Success rate</text></g></g><path class="foreground" aria-hidden="true" d="" pointer-events="none" display="none"/></g></g><g class="mark-group role-scope layer_0_layer_0_pathgroup" role="graphics-object" aria-roledescription="group mark container"><g transform="translate(0,0)"><path class="background" aria-hidden="true" d="M0,0h600v400h-600Z"/><g><g class="mark-area role-mark layer_0_layer_0_marks" role="graphics-object" aria-roledescription="area mark container"><path aria-label="Number of parameters: 517.2k; Success rate: 0.545333333333; upper_Success rate: 0.551466666667; Algorithm: Simple baseline; Ci1 of Success rate: 0.551466666667; Ci0 of Success rate: 0.545333333333; Mean of Success rate: 0.5486" role="graphics-symbol" aria-roledescription="errorband" d="M0,259.81L160.7,185.752L204.121,161.372L229.084,166.972L365.378,120.762L411.221,113.6L600,108.156L600,89.6L411.221,89.862L365.378,104.686L229.084,145.257L204.121,155.162L160.7,182.171L0,256.305Z" fill="#FF4B33" opacity="0.3"/></g></g><path class="foreground" aria-hidden="true" d="" display="none"/></g><g transform="translate(0,0)"><path class="background" aria-hidden="true" d="M0,0h600v400h-600Z"/><g><g class="mark-area role-mark layer_0_layer_0_marks" role="graphics-object" aria-roledescription="area mark container"><path aria-label="Number of parameters: 1.60614M; Success rate: 0.652731666667; upper_Success rate: 0.66507; Algorithm: Soft Modules; Ci1 of Success rate: 0.66507; Ci0 of Success rate: 0.652731666667; Mean of Success rate: 0.659" role="graphics-symbol" aria-roledescription="errorband" d="M160.7,198.439L160.7,191.389Z" fill="#33B4FF" opacity="0.3"/></g></g><path class="foreground" aria-hidden="true" d="" display="none"/></g><g transform="translate(0,0)"><path class="background" aria-hidden="true" d="M0,0h600v400h-600Z"/><g><g class="mark-area role-mark layer_0_layer_0_marks" role="graphics-object" aria-roledescription="area mark container"><path aria-label="Number of parameters: 6.80118M; Success rate: 0.572866666667; upper_Success rate: 0.597668333333; Algorithm: PaCo; Ci1 of Success rate: 0.597668333333; Ci0 of Success rate: 0.572866666667; Mean of Success rate: 0.5862" role="graphics-symbol" aria-roledescription="errorband" d="M365.378,244.076L365.378,229.904Z" fill="#0F2E4D" opacity="0.3"/></g></g><path class="foreground" aria-hidden="true" d="" display="none"/></g><g transform="translate(0,0)"><path class="background" aria-hidden="true" d="M0,0h600v400h-600Z"/><g><g class="mark-area role-mark layer_0_layer_0_marks" role="graphics-object" aria-roledescription="area mark container"><path aria-label="Number of parameters: 2.1815M; Success rate: 0.642; upper_Success rate: 0.6546; Algorithm: MOORE; Ci1 of Success rate: 0.6546; Ci0 of Success rate: 0.642; Mean of Success rate: 0.6492" role="graphics-symbol" aria-roledescription="errorband" d="M204.121,204.571L204.121,197.371Z" fill="#24B27E" opacity="0.3"/></g></g><path class="foreground" aria-hidden="true" d="" display="none"/></g></g><g class="mark-group role-scope layer_1_layer_0_pathgroup" role="graphics-object" aria-roledescription="group mark container"><g transform="translate(0,0)"><path class="background" aria-hidden="true" d="M0,0h600v400h-600Z"/><g><g class="mark-line role-mark layer_1_layer_0_marks" role="graphics-object" aria-roledescription="line mark container"><path aria-label="Number of parameters: 517.2k; Success rate: 0.5486; Algorithm: Simple baseline" role="graphics-symbol" aria-roledescription="line mark" d="M0,257.943L160.7,184.038L204.121,158.705L229.084,156.114L365.378,113.333L411.221,101.067L600,100.229" stroke="#FF4B33" stroke-width="2"/></g></g><path class="foreground" aria-hidden="true" d="" display="none"/></g><g transform="translate(0,0)"><path class="background" aria-hidden="true" d="M0,0h600v400h-600Z"/><g><g class="mark-line role-mark layer_1_layer_0_marks" role="graphics-object" aria-roledescription="line mark container"><path aria-label="Number of parameters: 1.60614M; Success rate: 0.659; Algorithm: Soft Modules" role="graphics-symbol" aria-roledescription="line mark" d="M160.7,194.857Z" stroke="#33B4FF" stroke-width="2"/></g></g><path class="foreground" aria-hidden="true" d="" display="none"/></g><g transform="translate(0,0)"><path class="background" aria-hidden="true" d="M0,0h600v400h-600Z"/><g><g class="mark-line role-mark layer_1_layer_0_marks" role="graphics-object" aria-roledescription="line mark container"><path aria-label="Number of parameters: 6.80118M; Success rate: 0.5862; Algorithm: PaCo" role="graphics-symbol" aria-roledescription="line mark" d="M365.378,236.457Z" stroke="#0F2E4D" stroke-width="2"/></g></g><path class="foreground" aria-hidden="true" d="" display="none"/></g><g transform="translate(0,0)"><path class="background" aria-hidden="true" d="M0,0h600v400h-600Z"/><g><g class="mark-line role-mark layer_1_layer_0_marks" role="graphics-object" aria-roledescription="line mark container"><path aria-label="Number of parameters: 2.1815M; Success rate: 0.6492; Algorithm: MOORE" role="graphics-symbol" aria-roledescription="line mark" d="M204.121,200.457Z" stroke="#24B27E" stroke-width="2"/></g></g><path class="foreground" aria-hidden="true" d="" display="none"/></g></g><g class="mark-symbol role-mark layer_1_layer_1_marks" role="graphics-object" aria-roledescription="symbol mark container"><path aria-label="Number of parameters: 517.2k; Success rate: 0.5486; Algorithm: Simple baseline" role="graphics-symbol" aria-roledescription="point" transform="translate(0,257.9428571428571)" d="M5,0A5,5,0,1,1,-5,0A5,5,0,1,1,5,0" fill="#FF4B33" stroke-width="2" opacity="1"/><path aria-label="Number of parameters: 1.60614M; Success rate: 0.677933333333; Algorithm: Simple baseline" role="graphics-symbol" aria-roledescription="point" transform="translate(160.7002993181557,184.0380952380952)" d="M5,0A5,5,0,1,1,-5,0A5,5,0,1,1,5,0" fill="#FF4B33" stroke-width="2" opacity="1"/><path aria-label="Number of parameters: 6.80118M; Success rate: 0.801666666667; Algorithm: Simple baseline" role="graphics-symbol" aria-roledescription="point" transform="translate(365.378199750109,113.33333333333329)" d="M5,0A5,5,0,1,1,-5,0A5,5,0,1,1,5,0" fill="#FF4B33" stroke-width="2" opacity="1"/><path aria-label="Number of parameters: 2.1815M; Success rate: 0.722266666667; Algorithm: Simple baseline" role="graphics-symbol" aria-roledescription="point" transform="translate(204.12141444250426,158.7047619047619)" d="M5,0A5,5,0,1,1,-5,0A5,5,0,1,1,5,0" fill="#FF4B33" stroke-width="2" opacity="1"/><path aria-label="Number of parameters: 2.60136M; Success rate: 0.7268; Algorithm: Simple baseline" role="graphics-symbol" aria-roledescription="point" transform="translate(229.08412921360207,156.11428571428564)" d="M5,0A5,5,0,1,1,-5,0A5,5,0,1,1,5,0" fill="#FF4B33" stroke-width="2" opacity="1"/><path aria-label="Number of parameters: 9.39662M; Success rate: 0.823133333333; Algorithm: Simple baseline" role="graphics-symbol" aria-roledescription="point" transform="translate(411.2208851761308,101.06666666666672)" d="M5,0A5,5,0,1,1,-5,0A5,5,0,1,1,5,0" fill="#FF4B33" stroke-width="2" opacity="1"/><path aria-label="Number of parameters: 35.5701M; Success rate: 0.8246; Algorithm: Simple baseline" role="graphics-symbol" aria-roledescription="point" transform="translate(600,100.22857142857143)" d="M5,0A5,5,0,1,1,-5,0A5,5,0,1,1,5,0" fill="#FF4B33" stroke-width="2" opacity="1"/><path aria-label="Number of parameters: 1.60614M; Success rate: 0.659; Algorithm: Soft Modules" role="graphics-symbol" aria-roledescription="point" transform="translate(160.7002993181557,194.85714285714283)" d="M0,4.33L-5,-4.33L5,-4.33Z" fill="#33B4FF" stroke-width="2" opacity="1"/><path aria-label="Number of parameters: 6.80118M; Success rate: 0.5862; Algorithm: PaCo" role="graphics-symbol" aria-roledescription="point" transform="translate(365.378199750109,236.45714285714288)" d="M-5,0L0,-5L5,0L0,5Z" fill="#0F2E4D" stroke-width="2" opacity="1"/><path aria-label="Number of parameters: 2.1815M; Success rate: 0.6492; Algorithm: MOORE" role="graphics-symbol" aria-roledescription="point" transform="translate(204.12141444250426,200.45714285714286)" d="M-5,-5h10v10h-10Z" fill="#24B27E" stroke-width="2" opacity="1"/></g><g class="mark-rule role-mark layer_2_marks" role="graphics-object" aria-roledescription="rule mark container"><line aria-label="Number of parameters: 1.60614M; Success rate: 0.652666666667; upper_Success rate: 0.6652; Algorithm: Soft Modules; Ci1 of Success rate: 0.6652; Ci0 of Success rate: 0.652666666667; Mean of Success rate: 0.659" role="graphics-symbol" aria-roledescription="errorbar" transform="translate(160.7002993181557,198.47619047619048)" x2="0" y2="-7.161904761904793" stroke="#33B4FF"/><line aria-label="Number of parameters: 6.80118M; Success rate: 0.573323333333; upper_Success rate: 0.597343333333; Algorithm: PaCo; Ci1 of Success rate: 0.597343333333; Ci0 of Success rate: 0.573323333333; Mean of Success rate: 0.5862" role="graphics-symbol" aria-roledescription="errorbar" transform="translate(365.378199750109,243.81523809523804)" x2="0" y2="-13.725714285714218" stroke="#0F2E4D"/><line aria-label="Number of parameters: 2.1815M; Success rate: 0.641861666667; upper_Success rate: 0.654335; Algorithm: MOORE; Ci1 of Success rate: 0.654335; Ci0 of Success rate: 0.641861666667; Mean of Success rate: 0.6492" role="graphics-symbol" aria-roledescription="errorbar" transform="translate(204.12141444250426,204.6504761904762)" x2="0" y2="-7.127619047619106" stroke="#24B27E"/></g><g class="mark-group role-legend" role="graphics-symbol" aria-roledescription="legend" aria-label="Symbol legend titled 'Algorithm' for shape, fill color and stroke color with 4 values: Simple baseline, Soft Modules, MOORE, PaCo"><g transform="translate(18,18)"><path class="background" aria-hidden="true" d="M0,0h108v83h-108Z" pointer-events="none"/><g><g class="mark-group role-legend-entry"><g transform="translate(0,21)"><path class="background" aria-hidden="true" d="M0,0h0v0h0Z" pointer-events="none"/><g><g class="mark-group role-scope" role="graphics-object" aria-roledescription="group mark container"><g transform="translate(0,0)"><path class="background" aria-hidden="true" d="M0,0h107.0380859375v14h-107.0380859375Z" pointer-events="none" opacity="1"/><g><g class="mark-symbol role-legend-symbol" pointer-events="none"><path transform="translate(7,7)" d="M3.536,0A3.536,3.536,0,1,1,-3.536,0A3.536,3.536,0,1,1,3.536,0" fill="#FF4B33" fill-opacity="1" stroke="#FF4B33" stroke-width="1.5" opacity="1"/></g><g class="mark-text role-legend-label" pointer-events="none"><text text-anchor="start" transform="translate(18,11)" font-family="Times New Roman" font-size="14px" fill="#000" opacity="1">Simple baseline</text></g></g><path class="foreground" aria-hidden="true" d="" pointer-events="none" display="none"/></g><g transform="translate(0,16)"><path class="background" aria-hidden="true" d="M0,0h107.0380859375v14h-107.0380859375Z" pointer-events="none" opacity="1"/><g><g class="mark-symbol role-legend-symbol" pointer-events="none"><path transform="translate(7,7)" d="M0,3.062L-3.536,-3.062L3.536,-3.062Z" fill="#33B4FF" fill-opacity="1" stroke="#33B4FF" stroke-width="1.5" opacity="1"/></g><g class="mark-text role-legend-label" pointer-events="none"><text text-anchor="start" transform="translate(18,11)" font-family="Times New Roman" font-size="14px" fill="#000" opacity="1">Soft Modules</text></g></g><path class="foreground" aria-hidden="true" d="" pointer-events="none" display="none"/></g><g transform="translate(0,32)"><path class="background" aria-hidden="true" d="M0,0h107.0380859375v14h-107.0380859375Z" pointer-events="none" opacity="1"/><g><g class="mark-symbol role-legend-symbol" pointer-events="none"><path transform="translate(7,7)" d="M-3.536,-3.536h7.071v7.071h-7.071Z" fill="#24B27E" fill-opacity="1" stroke="#24B27E" stroke-width="1.5" opacity="1"/></g><g class="mark-text role-legend-label" pointer-events="none"><text text-anchor="start" transform="translate(18,11)" font-family="Times New Roman" font-size="14px" fill="#000" opacity="1">MOORE</text></g></g><path class="foreground" aria-hidden="true" d="" pointer-events="none" display="none"/></g><g transform="translate(0,48)"><path class="background" aria-hidden="true" d="M0,0h107.0380859375v14h-107.0380859375Z" pointer-events="none" opacity="1"/><g><g class="mark-symbol role-legend-symbol" pointer-events="none"><path transform="translate(7,7)" d="M-3.536,0L0,-3.536L3.536,0L0,3.536Z" fill="#0F2E4D" fill-opacity="1" stroke="#0F2E4D" stroke-width="1.5" opacity="1"/></g><g class="mark-text role-legend-label" pointer-events="none"><text text-anchor="start" transform="translate(18,11)" font-family="Times New Roman" font-size="14px" fill="#000" opacity="1">PaCo</text></g></g><path class="foreground" aria-hidden="true" d="" pointer-events="none" display="none"/></g></g></g><path class="foreground" aria-hidden="true" d="" pointer-events="none" display="none"/></g></g><g class="mark-text role-legend-title" pointer-events="none"><text text-anchor="start" transform="translate(0,13)" font-family="Times New Roman" font-size="16px" font-weight="bold" fill="#000" opacity="1">Algorithm</text></g></g><path class="foreground" aria-hidden="true" d="" pointer-events="none" display="none"/></g></g></g><path class="foreground" aria-hidden="true" d="" display="none"/></g></g></g></svg>