<svg xmlns="http://www.w3.org/2000/svg" xmlns:xlink="http://www.w3.org/1999/xlink" version="1.1" class="marks" width="674" height="465" viewBox="0 0 674 465"><rect width="674" height="465" fill="white"/><g fill="none" stroke-miterlimit="10" transform="translate(64,13)"><g class="mark-group role-frame root" role="graphics-object" aria-roledescription="group mark container"><g transform="translate(0,0)"><path class="background" aria-hidden="true" d="M0.5,0.5h600v400h-600Z" stroke="#ddd"/><g><g class="mark-group role-axis" aria-hidden="true"><g transform="translate(0.5,400.5)"><path class="background" aria-hidden="true" d="M0,0h0v0h0Z" pointer-events="none"/><g><g class="mark-rule role-axis-grid" pointer-events="none"><line transform="translate(0,-400)" x2="0" y2="400" stroke="#ddd" stroke-width="1" opacity="1"/><line transform="translate(132,-400)" x2="0" y2="400" stroke="#ddd" stroke-width="1" opacity="1"/><line transform="translate(224,-400)" x2="0" y2="400" stroke="#ddd" stroke-width="1" opacity="1"/><line transform="translate(345,-400)" x2="0" y2="400" stroke="#ddd" stroke-width="1" opacity="1"/><line transform="translate(437,-400)" x2="0" y2="400" stroke="#ddd" stroke-width="1" opacity="1"/><line transform="translate(583,-400)" x2="0" y2="400" stroke="#ddd" stroke-width="1" opacity="1"/></g></g><path class="foreground" aria-hidden="true" d="" pointer-events="none" display="none"/></g></g><g class="mark-group role-axis" aria-hidden="true"><g transform="translate(0.5,0.5)"><path class="background" aria-hidden="true" d="M0,0h0v0h0Z" pointer-events="none"/><g><g class="mark-rule role-axis-grid" pointer-events="none"><line transform="translate(0,400)" x2="600" y2="0" stroke="#ddd" stroke-width="1" opacity="1"/><line transform="translate(0,350)" x2="600" y2="0" stroke="#ddd" stroke-width="1" opacity="1"/><line transform="translate(0,300)" x2="600" y2="0" stroke="#ddd" stroke-width="1" opacity="1"/><line transform="translate(0,250)" x2="600" y2="0" stroke="#ddd" stroke-width="1" opacity="1"/><line transform="translate(0,200)" x2="600" y2="0" stroke="#ddd" stroke-width="1" opacity="1"/><line transform="translate(0,150)" x2="600" y2="0" stroke="#ddd" stroke-width="1" opacity="1"/><line transform="translate(0,100)" x2="600" y2="0" stroke="#ddd" stroke-width="1" opacity="1"/><line transform="translate(0,50)" x2="600" y2="0" stroke="#ddd" stroke-width="1" opacity="1"/><line transform="translate(0,0)" x2="600" y2="0" stroke="#ddd" stroke-width="1" opacity="1"/></g></g><path class="foreground" aria-hidden="true" d="" pointer-events="none" display="none"/></g></g><g class="mark-group role-axis" role="graphics-symbol" aria-roledescription="axis" aria-label="X-axis titled 'Number of parameters' for a log scale with values from 370k to 34.095184M"><g transform="translate(0.5,400.5)"><path class="background" aria-hidden="true" d="M0,0h0v0h0Z" pointer-events="none"/><g><g class="mark-rule role-axis-tick" pointer-events="none"><line transform="translate(0,0)" x2="0" y2="5" stroke="#888" stroke-width="1" opacity="1"/><line transform="translate(132,0)" x2="0" y2="5" stroke="#888" stroke-width="1" opacity="1"/><line transform="translate(224,0)" x2="0" y2="5" stroke="#888" stroke-width="1" opacity="1"/><line transform="translate(345,0)" x2="0" y2="5" stroke="#888" stroke-width="1" opacity="1"/><line transform="translate(437,0)" x2="0" y2="5" stroke="#888" stroke-width="1" opacity="1"/><line transform="translate(583,0)" x2="0" y2="5" stroke="#888" stroke-width="1" opacity="1"/></g><g class="mark-text role-axis-label" pointer-events="none"><text text-anchor="start" transform="translate(0,20)" font-family="Times New Roman" font-size="16px" fill="#000" opacity="1">370K</text><text text-anchor="middle" transform="translate(131.88094223326223,20)" font-family="Times New Roman" font-size="16px" fill="#000" opacity="1">1M</text><text text-anchor="middle" transform="translate(223.82229930065438,20)" font-family="Times New Roman" font-size="16px" fill="#000" opacity="1">2M</text><text text-anchor="middle" transform="translate(345.3621622901108,20)" font-family="Times New Roman" font-size="16px" fill="#000" opacity="1">5M</text><text text-anchor="middle" transform="translate(437.303519357503,20)" font-family="Times New Roman" font-size="16px" fill="#000" opacity="1">10M</text><text text-anchor="middle" transform="translate(583.0271225747332,20)" font-family="Times New Roman" font-size="16px" fill="#000" opacity="1">30M</text></g><g class="mark-rule role-axis-domain" pointer-events="none"><line transform="translate(0,0)" x2="600" y2="0" stroke="#888" stroke-width="1" opacity="1"/></g><g class="mark-text role-axis-title" pointer-events="none"><text text-anchor="middle" transform="translate(300,43)" font-family="Times New Roman" font-size="20px" font-weight="bold" fill="#000" opacity="1">Number of parameters</text></g></g><path class="foreground" aria-hidden="true" d="" pointer-events="none" display="none"/></g></g><g class="mark-group role-axis" role="graphics-symbol" aria-roledescription="axis" aria-label="Y-axis titled 'Success rate' for a linear scale with values from 0.6 to 1.0"><g transform="translate(0.5,0.5)"><path class="background" aria-hidden="true" d="M0,0h0v0h0Z" pointer-events="none"/><g><g class="mark-rule role-axis-tick" pointer-events="none"><line transform="translate(0,400)" x2="-5" y2="0" stroke="#888" stroke-width="1" opacity="1"/><line transform="translate(0,350)" x2="-5" y2="0" stroke="#888" stroke-width="1" opacity="1"/><line transform="translate(0,300)" x2="-5" y2="0" stroke="#888" stroke-width="1" opacity="1"/><line transform="translate(0,250)" x2="-5" y2="0" stroke="#888" stroke-width="1" opacity="1"/><line transform="translate(0,200)" x2="-5" y2="0" stroke="#888" stroke-width="1" opacity="1"/><line transform="translate(0,150)" x2="-5" y2="0" stroke="#888" stroke-width="1" opacity="1"/><line transform="translate(0,100)" x2="-5" y2="0" stroke="#888" stroke-width="1" opacity="1"/><line transform="translate(0,50)" x2="-5" y2="0" stroke="#888" stroke-width="1" opacity="1"/><line transform="translate(0,0)" x2="-5" y2="0" stroke="#888" stroke-width="1" opacity="1"/></g><g class="mark-text role-axis-label" pointer-events="none"><text text-anchor="end" transform="translate(-7,405)" font-family="Times New Roman" font-size="16px" fill="#000" opacity="1">0.60</text><text text-anchor="end" transform="translate(-7,354.99999999999994)" font-family="Times New Roman" font-size="16px" fill="#000" opacity="1">0.65</text><text text-anchor="end" transform="translate(-7,305)" font-family="Times New Roman" font-size="16px" fill="#000" opacity="1">0.70</text><text text-anchor="end" transform="translate(-7,255)" font-family="Times New Roman" font-size="16px" fill="#000" opacity="1">0.75</text><text text-anchor="end" transform="translate(-7,204.99999999999994)" font-family="Times New Roman" font-size="16px" fill="#000" opacity="1">0.80</text><text text-anchor="end" transform="translate(-7,155)" font-family="Times New Roman" font-size="16px" fill="#000" opacity="1">0.85</text><text text-anchor="end" transform="translate(-7,104.99999999999996)" font-family="Times New Roman" font-size="16px" fill="#000" opacity="1">0.90</text><text text-anchor="end" transform="translate(-7,55.00000000000004)" font-family="Times New Roman" font-size="16px" fill="#000" opacity="1">0.95</text><text text-anchor="end" transform="translate(-7,5)" font-family="Times New Roman" font-size="16px" fill="#000" opacity="1">1.00</text></g><g class="mark-rule role-axis-domain" pointer-events="none"><line transform="translate(0,400)" x2="0" y2="-400" stroke="#888" stroke-width="1" opacity="1"/></g><g class="mark-text role-axis-title" pointer-events="none"><text text-anchor="middle" transform="translate(-39,200) rotate(-90) translate(0,-4)" font-family="Times New Roman" font-size="20px" font-weight="bold" fill="#000" opacity="1">Success rate</text></g></g><path class="foreground" aria-hidden="true" d="" pointer-events="none" display="none"/></g></g><g class="mark-group role-scope layer_0_layer_0_pathgroup" role="graphics-object" aria-roledescription="group mark container"><g transform="translate(0,0)"><path class="background" aria-hidden="true" d="M0,0h600v400h-600Z"/><g><g class="mark-area role-mark layer_0_layer_0_marks" role="graphics-object" aria-roledescription="area mark container"><path aria-label="Number of parameters: 370k; Success rate: 0.728991666667; upper_Success rate: 0.76935; Algorithm: Simple feed-forward; Ci1 of Success rate: 0.76935; Ci0 of Success rate: 0.728991666667; Mean of Success rate: 0.748333333333" role="graphics-symbol" aria-roledescription="errorband" d="M0,271.008L82.858,151L174.538,129.25L202.273,134L238.404,141.675L418.205,92.333L600,76.675L600,48.992L418.205,67.333L238.404,118.333L202.273,127.325L174.538,121.25L82.858,135L0,230.65Z" fill="#FF4B33" opacity="0.3"/></g></g><path class="foreground" aria-hidden="true" d="" display="none"/></g><g transform="translate(0,0)"><path class="background" aria-hidden="true" d="M0,0h600v400h-600Z"/><g><g class="mark-area role-mark layer_0_layer_0_marks" role="graphics-object" aria-roledescription="area mark container"><path aria-label="Number of parameters: 691.022k; Success rate: 0.770333333333; upper_Success rate: 0.865333333333; Algorithm: Soft Modules; Ci1 of Success rate: 0.865333333333; Ci0 of Success rate: 0.770333333333; Mean of Success rate: 0.812333333333" role="graphics-symbol" aria-roledescription="errorband" d="M82.858,229.667L82.858,134.667Z" fill="#33B4FF" opacity="0.3"/></g></g><path class="foreground" aria-hidden="true" d="" display="none"/></g><g transform="translate(0,0)"><path class="background" aria-hidden="true" d="M0,0h600v400h-600Z"/><g><g class="mark-area role-mark layer_0_layer_0_marks" role="graphics-object" aria-roledescription="area mark container"><path aria-label="Number of parameters: 1.7001M; Success rate: 0.728; upper_Success rate: 0.747333333333; Algorithm: PaCo; Ci1 of Success rate: 0.747333333333; Ci0 of Success rate: 0.728; Mean of Success rate: 0.737666666667" role="graphics-symbol" aria-roledescription="errorband" d="M202.273,272L202.273,252.667Z" fill="#0F2E4D" opacity="0.3"/></g></g><path class="foreground" aria-hidden="true" d="" display="none"/></g><g transform="translate(0,0)"><path class="background" aria-hidden="true" d="M0,0h600v400h-600Z"/><g><g class="mark-area role-mark layer_0_layer_0_marks" role="graphics-object" aria-roledescription="area mark container"><path aria-label="Number of parameters: 1.37932M; Success rate: 0.785; upper_Success rate: 0.838008333333; Algorithm: MOORE; Ci1 of Success rate: 0.838008333333; Ci0 of Success rate: 0.785; Mean of Success rate: 0.809666666667" role="graphics-symbol" aria-roledescription="errorband" d="M174.538,215L174.538,161.992Z" fill="#24B27E" opacity="0.3"/></g></g><path class="foreground" aria-hidden="true" d="" display="none"/></g></g><g class="mark-group role-scope layer_1_layer_0_pathgroup" role="graphics-object" aria-roledescription="group mark container"><g transform="translate(0,0)"><path class="background" aria-hidden="true" d="M0,0h600v400h-600Z"/><g><g class="mark-line role-mark layer_1_layer_0_marks" role="graphics-object" aria-roledescription="line mark container"><path aria-label="Number of parameters: 370k; Success rate: 0.748333333333; Algorithm: Simple feed-forward" role="graphics-symbol" aria-roledescription="line mark" d="M0,251.667L82.858,143L174.538,125L202.273,130.667L238.404,129.667L418.205,78.333L600,62.667" stroke="#FF4B33" stroke-width="2"/></g></g><path class="foreground" aria-hidden="true" d="" display="none"/></g><g transform="translate(0,0)"><path class="background" aria-hidden="true" d="M0,0h600v400h-600Z"/><g><g class="mark-line role-mark layer_1_layer_0_marks" role="graphics-object" aria-roledescription="line mark container"><path aria-label="Number of parameters: 691.022k; Success rate: 0.812333333333; Algorithm: Soft Modules" role="graphics-symbol" aria-roledescription="line mark" d="M82.858,187.667Z" stroke="#33B4FF" stroke-width="2"/></g></g><path class="foreground" aria-hidden="true" d="" display="none"/></g><g transform="translate(0,0)"><path class="background" aria-hidden="true" d="M0,0h600v400h-600Z"/><g><g class="mark-line role-mark layer_1_layer_0_marks" role="graphics-object" aria-roledescription="line mark container"><path aria-label="Number of parameters: 1.7001M; Success rate: 0.737666666667; Algorithm: PaCo" role="graphics-symbol" aria-roledescription="line mark" d="M202.273,262.333Z" stroke="#0F2E4D" stroke-width="2"/></g></g><path class="foreground" aria-hidden="true" d="" display="none"/></g><g transform="translate(0,0)"><path class="background" aria-hidden="true" d="M0,0h600v400h-600Z"/><g><g class="mark-line role-mark layer_1_layer_0_marks" role="graphics-object" aria-roledescription="line mark container"><path aria-label="Number of parameters: 1.37932M; Success rate: 0.809666666667; Algorithm: MOORE" role="graphics-symbol" aria-roledescription="line mark" d="M174.538,190.333Z" stroke="#24B27E" stroke-width="2"/></g></g><path class="foreground" aria-hidden="true" d="" display="none"/></g></g><g class="mark-symbol role-mark layer_1_layer_1_marks" role="graphics-object" aria-roledescription="symbol mark container"><path aria-label="Number of parameters: 370k; Success rate: 0.748333333333; Algorithm: Simple feed-forward" role="graphics-symbol" aria-roledescription="point" transform="translate(0,251.66666666666666)" d="M5,0A5,5,0,1,1,-5,0A5,5,0,1,1,5,0" fill="#FF4B33" stroke-width="2" opacity="1"/><path aria-label="Number of parameters: 691.022k; Success rate: 0.857; Algorithm: Simple feed-forward" role="graphics-symbol" aria-roledescription="point" transform="translate(82.8581367975709,142.9999999999999)" d="M5,0A5,5,0,1,1,-5,0A5,5,0,1,1,5,0" fill="#FF4B33" stroke-width="2" opacity="1"/><path aria-label="Number of parameters: 1.7001M; Success rate: 0.869333333333; Algorithm: Simple feed-forward" role="graphics-symbol" aria-roledescription="point" transform="translate(202.27265791094743,130.66666666666657)" d="M5,0A5,5,0,1,1,-5,0A5,5,0,1,1,5,0" fill="#FF4B33" stroke-width="2" opacity="1"/><path aria-label="Number of parameters: 1.37932M; Success rate: 0.875; Algorithm: Simple feed-forward" role="graphics-symbol" aria-roledescription="point" transform="translate(174.53779669278774,124.99999999999987)" d="M5,0A5,5,0,1,1,-5,0A5,5,0,1,1,5,0" fill="#FF4B33" stroke-width="2" opacity="1"/><path aria-label="Number of parameters: 2.2324M; Success rate: 0.870333333333; Algorithm: Simple feed-forward" role="graphics-symbol" aria-roledescription="point" transform="translate(238.4037895304983,129.66666666666669)" d="M5,0A5,5,0,1,1,-5,0A5,5,0,1,1,5,0" fill="#FF4B33" stroke-width="2" opacity="1"/><path aria-label="Number of parameters: 8.65902M; Success rate: 0.921666666667; Algorithm: Simple feed-forward" role="graphics-symbol" aria-roledescription="point" transform="translate(418.20512289071246,78.33333333333337)" d="M5,0A5,5,0,1,1,-5,0A5,5,0,1,1,5,0" fill="#FF4B33" stroke-width="2" opacity="1"/><path aria-label="Number of parameters: 34.0952M; Success rate: 0.937333333333; Algorithm: Simple feed-forward" role="graphics-symbol" aria-roledescription="point" transform="translate(600,62.666666666666735)" d="M5,0A5,5,0,1,1,-5,0A5,5,0,1,1,5,0" fill="#FF4B33" stroke-width="2" opacity="1"/><path aria-label="Number of parameters: 691.022k; Success rate: 0.812333333333; Algorithm: Soft Modules" role="graphics-symbol" aria-roledescription="point" transform="translate(82.8581367975709,187.66666666666666)" d="M0,4.33L-5,-4.33L5,-4.33Z" fill="#33B4FF" stroke-width="2" opacity="1"/><path aria-label="Number of parameters: 1.7001M; Success rate: 0.737666666667; Algorithm: PaCo" role="graphics-symbol" aria-roledescription="point" transform="translate(202.27265791094743,262.3333333333333)" d="M-5,0L0,-5L5,0L0,5Z" fill="#0F2E4D" stroke-width="2" opacity="1"/><path aria-label="Number of parameters: 1.37932M; Success rate: 0.809666666667; Algorithm: MOORE" role="graphics-symbol" aria-roledescription="point" transform="translate(174.53779669278774,190.33333333333326)" d="M-5,-5h10v10h-10Z" fill="#24B27E" stroke-width="2" opacity="1"/></g><g class="mark-rule role-mark layer_2_marks" role="graphics-object" aria-roledescription="rule mark container"><line aria-label="Number of parameters: 691.022k; Success rate: 0.770325; upper_Success rate: 0.866333333333; Algorithm: Soft Modules; Ci1 of Success rate: 0.866333333333; Ci0 of Success rate: 0.770325; Mean of Success rate: 0.812333333333" role="graphics-symbol" aria-roledescription="errorbar" transform="translate(82.8581367975709,229.67499999999995)" x2="0" y2="-96.00833333333327" stroke="#33B4FF"/><line aria-label="Number of parameters: 1.7001M; Success rate: 0.728658333333; upper_Success rate: 0.747; Algorithm: PaCo; Ci1 of Success rate: 0.747; Ci0 of Success rate: 0.728658333333; Mean of Success rate: 0.737666666667" role="graphics-symbol" aria-roledescription="errorbar" transform="translate(202.27265791094743,271.3416666666668)" x2="0" y2="-18.341666666666697" stroke="#0F2E4D"/><line aria-label="Number of parameters: 1.37932M; Success rate: 0.78565; upper_Success rate: 0.839016666667; Algorithm: MOORE; Ci1 of Success rate: 0.839016666667; Ci0 of Success rate: 0.78565; Mean of Success rate: 0.809666666667" role="graphics-symbol" aria-roledescription="errorbar" transform="translate(174.53779669278774,214.35000000000005)" x2="0" y2="-53.3666666666667" stroke="#24B27E"/></g><g class="mark-group role-legend" role="graphics-symbol" aria-roledescription="legend" aria-label="Symbol legend titled 'Algorithm' for shape, fill color and stroke color with 4 values: Simple feed-forward, Soft Modules, MOORE, PaCo"><g transform="translate(18,18)"><path class="background" aria-hidden="true" d="M0,0h153v95h-153Z" pointer-events="none"/><g><g class="mark-group role-legend-entry"><g transform="translate(0,25)"><path class="background" aria-hidden="true" d="M0,0h0v0h0Z" pointer-events="none"/><g><g class="mark-group role-scope" role="graphics-object" aria-roledescription="group mark container"><g transform="translate(0,0)"><path class="background" aria-hidden="true" d="M0,0h152.8359375v16h-152.8359375Z" pointer-events="none" opacity="1"/><g><g class="mark-symbol role-legend-symbol" pointer-events="none"><path transform="translate(8,8)" d="M3.536,0A3.536,3.536,0,1,1,-3.536,0A3.536,3.536,0,1,1,3.536,0" fill="#FF4B33" fill-opacity="1" stroke="#FF4B33" stroke-width="1.5" opacity="1"/></g><g class="mark-text role-legend-label" pointer-events="none"><text text-anchor="start" transform="translate(20,13)" font-family="Times New Roman" font-size="16px" fill="#000" opacity="1">Simple feed-forward</text></g></g><path class="foreground" aria-hidden="true" d="" pointer-events="none" display="none"/></g><g transform="translate(0,18)"><path class="background" aria-hidden="true" d="M0,0h152.8359375v16h-152.8359375Z" pointer-events="none" opacity="1"/><g><g class="mark-symbol role-legend-symbol" pointer-events="none"><path transform="translate(8,8)" d="M0,3.062L-3.536,-3.062L3.536,-3.062Z" fill="#33B4FF" fill-opacity="1" stroke="#33B4FF" stroke-width="1.5" opacity="1"/></g><g class="mark-text role-legend-label" pointer-events="none"><text text-anchor="start" transform="translate(20,13)" font-family="Times New Roman" font-size="16px" fill="#000" opacity="1">Soft Modules</text></g></g><path class="foreground" aria-hidden="true" d="" pointer-events="none" display="none"/></g><g transform="translate(0,36)"><path class="background" aria-hidden="true" d="M0,0h152.8359375v16h-152.8359375Z" pointer-events="none" opacity="1"/><g><g class="mark-symbol role-legend-symbol" pointer-events="none"><path transform="translate(8,8)" d="M-3.536,-3.536h7.071v7.071h-7.071Z" fill="#24B27E" fill-opacity="1" stroke="#24B27E" stroke-width="1.5" opacity="1"/></g><g class="mark-text role-legend-label" pointer-events="none"><text text-anchor="start" transform="translate(20,13)" font-family="Times New Roman" font-size="16px" fill="#000" opacity="1">MOORE</text></g></g><path class="foreground" aria-hidden="true" d="" pointer-events="none" display="none"/></g><g transform="translate(0,54)"><path class="background" aria-hidden="true" d="M0,0h152.8359375v16h-152.8359375Z" pointer-events="none" opacity="1"/><g><g class="mark-symbol role-legend-symbol" pointer-events="none"><path transform="translate(8,8)" d="M-3.536,0L0,-3.536L3.536,0L0,3.536Z" fill="#0F2E4D" fill-opacity="1" stroke="#0F2E4D" stroke-width="1.5" opacity="1"/></g><g class="mark-text role-legend-label" pointer-events="none"><text text-anchor="start" transform="translate(20,13)" font-family="Times New Roman" font-size="16px" fill="#000" opacity="1">PaCo</text></g></g><path class="foreground" aria-hidden="true" d="" pointer-events="none" display="none"/></g></g></g><path class="foreground" aria-hidden="true" d="" pointer-events="none" display="none"/></g></g><g class="mark-text role-legend-title" pointer-events="none"><text text-anchor="start" transform="translate(0,16)" font-family="Times New Roman" font-size="20px" font-weight="bold" fill="#000" opacity="1">Algorithm</text></g></g><path class="foreground" aria-hidden="true" d="" pointer-events="none" display="none"/></g></g></g><path class="foreground" aria-hidden="true" d="" display="none"/></g></g></g></svg>