<svg xmlns="http://www.w3.org/2000/svg" xmlns:xlink="http://www.w3.org/1999/xlink" version="1.1" class="marks" width="674" height="465" viewBox="0 0 674 465"><rect width="674" height="465" fill="white"/><g fill="none" stroke-miterlimit="10" transform="translate(64,13)"><g class="mark-group role-frame root" role="graphics-object" aria-roledescription="group mark container"><g transform="translate(0,0)"><path class="background" aria-hidden="true" d="M0.5,0.5h600v400h-600Z" stroke="#ddd"/><g><g class="mark-group role-axis" aria-hidden="true"><g transform="translate(0.5,400.5)"><path class="background" aria-hidden="true" d="M0,0h0v0h0Z" pointer-events="none"/><g><g class="mark-rule role-axis-grid" pointer-events="none"><line transform="translate(0,-400)" x2="0" y2="400" stroke="#ddd" stroke-width="1" opacity="1"/><line transform="translate(94,-400)" x2="0" y2="400" stroke="#ddd" stroke-width="1" opacity="1"/><line transform="translate(192,-400)" x2="0" y2="400" stroke="#ddd" stroke-width="1" opacity="1"/><line transform="translate(322,-400)" x2="0" y2="400" stroke="#ddd" stroke-width="1" opacity="1"/><line transform="translate(420,-400)" x2="0" y2="400" stroke="#ddd" stroke-width="1" opacity="1"/><line transform="translate(576,-400)" x2="0" y2="400" stroke="#ddd" stroke-width="1" opacity="1"/></g></g><path class="foreground" aria-hidden="true" d="" pointer-events="none" display="none"/></g></g><g class="mark-group role-axis" aria-hidden="true"><g transform="translate(0.5,0.5)"><path class="background" aria-hidden="true" d="M0,0h0v0h0Z" pointer-events="none"/><g><g class="mark-rule role-axis-grid" pointer-events="none"><line transform="translate(0,400)" x2="600" y2="0" stroke="#ddd" stroke-width="1" opacity="1"/><line transform="translate(0,371)" x2="600" y2="0" stroke="#ddd" stroke-width="1" opacity="1"/><line transform="translate(0,343)" x2="600" y2="0" stroke="#ddd" stroke-width="1" opacity="1"/><line transform="translate(0,314)" x2="600" y2="0" stroke="#ddd" stroke-width="1" opacity="1"/><line transform="translate(0,286)" x2="600" y2="0" stroke="#ddd" stroke-width="1" opacity="1"/><line transform="translate(0,257)" x2="600" y2="0" stroke="#ddd" stroke-width="1" opacity="1"/><line transform="translate(0,229)" x2="600" y2="0" stroke="#ddd" stroke-width="1" opacity="1"/><line transform="translate(0,200)" x2="600" y2="0" stroke="#ddd" stroke-width="1" opacity="1"/><line transform="translate(0,171)" x2="600" y2="0" stroke="#ddd" stroke-width="1" opacity="1"/><line transform="translate(0,143)" x2="600" y2="0" stroke="#ddd" stroke-width="1" opacity="1"/><line transform="translate(0,114)" x2="600" y2="0" stroke="#ddd" stroke-width="1" opacity="1"/><line transform="translate(0,86)" x2="600" y2="0" stroke="#ddd" stroke-width="1" opacity="1"/><line transform="translate(0,57)" x2="600" y2="0" stroke="#ddd" stroke-width="1" opacity="1"/><line transform="translate(0,29)" x2="600" y2="0" stroke="#ddd" stroke-width="1" opacity="1"/><line transform="translate(0,0)" x2="600" y2="0" stroke="#ddd" stroke-width="1" opacity="1"/></g></g><path class="foreground" aria-hidden="true" d="" pointer-events="none" display="none"/></g></g><g class="mark-group role-axis" role="graphics-symbol" aria-roledescription="axis" aria-label="X-axis titled 'Number of parameters' for a log scale with values from 517.2k to 35.570064M"><g transform="translate(0.5,400.5)"><path class="background" aria-hidden="true" d="M0,0h0v0h0Z" pointer-events="none"/><g><g class="mark-rule role-axis-tick" pointer-events="none"><line transform="translate(0,0)" x2="0" y2="5" stroke="#888" stroke-width="1" opacity="1"/><line transform="translate(94,0)" x2="0" y2="5" stroke="#888" stroke-width="1" opacity="1"/><line transform="translate(192,0)" x2="0" y2="5" stroke="#888" stroke-width="1" opacity="1"/><line transform="translate(322,0)" x2="0" y2="5" stroke="#888" stroke-width="1" opacity="1"/><line transform="translate(420,0)" x2="0" y2="5" stroke="#888" stroke-width="1" opacity="1"/><line transform="translate(576,0)" x2="0" y2="5" stroke="#888" stroke-width="1" opacity="1"/></g><g class="mark-text role-axis-label" pointer-events="none"><text text-anchor="start" transform="translate(0,20)" font-family="Times New Roman" font-size="16px" fill="#000" opacity="1">517K</text><text text-anchor="middle" transform="translate(93.50301894236229,20)" font-family="Times New Roman" font-size="16px" fill="#000" opacity="1">1M</text><text text-anchor="middle" transform="translate(191.80247948182728,20)" font-family="Times New Roman" font-size="16px" fill="#000" opacity="1">2M</text><text text-anchor="middle" transform="translate(321.74729808121776,20)" font-family="Times New Roman" font-size="16px" fill="#000" opacity="1">5M</text><text text-anchor="middle" transform="translate(420.04675862068274,20)" font-family="Times New Roman" font-size="16px" fill="#000" opacity="1">10M</text><text text-anchor="middle" transform="translate(575.8477174168535,20)" font-family="Times New Roman" font-size="16px" fill="#000" opacity="1">30M</text></g><g class="mark-rule role-axis-domain" pointer-events="none"><line transform="translate(0,0)" x2="600" y2="0" stroke="#888" stroke-width="1" opacity="1"/></g><g class="mark-text role-axis-title" pointer-events="none"><text text-anchor="middle" transform="translate(300,43)" font-family="Times New Roman" font-size="20px" font-weight="bold" fill="#000" opacity="1">Number of parameters</text></g></g><path class="foreground" aria-hidden="true" d="" pointer-events="none" display="none"/></g></g><g class="mark-group role-axis" role="graphics-symbol" aria-roledescription="axis" aria-label="Y-axis titled 'Success rate' for a linear scale with values from 0.3 to 1.0"><g transform="translate(0.5,0.5)"><path class="background" aria-hidden="true" d="M0,0h0v0h0Z" pointer-events="none"/><g><g class="mark-rule role-axis-tick" pointer-events="none"><line transform="translate(0,400)" x2="-5" y2="0" stroke="#888" stroke-width="1" opacity="1"/><line transform="translate(0,371)" x2="-5" y2="0" stroke="#888" stroke-width="1" opacity="1"/><line transform="translate(0,343)" x2="-5" y2="0" stroke="#888" stroke-width="1" opacity="1"/><line transform="translate(0,314)" x2="-5" y2="0" stroke="#888" stroke-width="1" opacity="1"/><line transform="translate(0,286)" x2="-5" y2="0" stroke="#888" stroke-width="1" opacity="1"/><line transform="translate(0,257)" x2="-5" y2="0" stroke="#888" stroke-width="1" opacity="1"/><line transform="translate(0,229)" x2="-5" y2="0" stroke="#888" stroke-width="1" opacity="1"/><line transform="translate(0,200)" x2="-5" y2="0" stroke="#888" stroke-width="1" opacity="1"/><line transform="translate(0,171)" x2="-5" y2="0" stroke="#888" stroke-width="1" opacity="1"/><line transform="translate(0,143)" x2="-5" y2="0" stroke="#888" stroke-width="1" opacity="1"/><line transform="translate(0,114)" x2="-5" y2="0" stroke="#888" stroke-width="1" opacity="1"/><line transform="translate(0,86)" x2="-5" y2="0" stroke="#888" stroke-width="1" opacity="1"/><line transform="translate(0,57)" x2="-5" y2="0" stroke="#888" stroke-width="1" opacity="1"/><line transform="translate(0,29)" x2="-5" y2="0" stroke="#888" stroke-width="1" opacity="1"/><line transform="translate(0,0)" x2="-5" y2="0" stroke="#888" stroke-width="1" opacity="1"/></g><g class="mark-text role-axis-label" pointer-events="none"><text text-anchor="end" transform="translate(-7,405)" font-family="Times New Roman" font-size="16px" fill="#000" opacity="1">0.30</text><text text-anchor="end" transform="translate(-7,376.42857142857144)" font-family="Times New Roman" font-size="16px" fill="#000" opacity="1">0.35</text><text text-anchor="end" transform="translate(-7,347.85714285714283)" font-family="Times New Roman" font-size="16px" fill="#000" opacity="1">0.40</text><text text-anchor="end" transform="translate(-7,319.2857142857143)" font-family="Times New Roman" font-size="16px" fill="#000" opacity="1">0.45</text><text text-anchor="end" transform="translate(-7,290.71428571428567)" font-family="Times New Roman" font-size="16px" fill="#000" opacity="1">0.50</text><text text-anchor="end" transform="translate(-7,262.1428571428571)" font-family="Times New Roman" font-size="16px" fill="#000" opacity="1">0.55</text><text text-anchor="end" transform="translate(-7,233.57142857142856)" font-family="Times New Roman" font-size="16px" fill="#000" opacity="1">0.60</text><text text-anchor="end" transform="translate(-7,204.99999999999994)" font-family="Times New Roman" font-size="16px" fill="#000" opacity="1">0.65</text><text text-anchor="end" transform="translate(-7,176.42857142857144)" font-family="Times New Roman" font-size="16px" fill="#000" opacity="1">0.70</text><text text-anchor="end" transform="translate(-7,147.85714285714283)" font-family="Times New Roman" font-size="16px" fill="#000" opacity="1">0.75</text><text text-anchor="end" transform="translate(-7,119.28571428571428)" font-family="Times New Roman" font-size="16px" fill="#000" opacity="1">0.80</text><text text-anchor="end" transform="translate(-7,90.71428571428568)" font-family="Times New Roman" font-size="16px" fill="#000" opacity="1">0.85</text><text text-anchor="end" transform="translate(-7,62.142857142857075)" font-family="Times New Roman" font-size="16px" fill="#000" opacity="1">0.90</text><text text-anchor="end" transform="translate(-7,33.571428571428605)" font-family="Times New Roman" font-size="16px" fill="#000" opacity="1">0.95</text><text text-anchor="end" transform="translate(-7,5)" font-family="Times New Roman" font-size="16px" fill="#000" opacity="1">1.00</text></g><g class="mark-rule role-axis-domain" pointer-events="none"><line transform="translate(0,400)" x2="0" y2="-400" stroke="#888" stroke-width="1" opacity="1"/></g><g class="mark-text role-axis-title" pointer-events="none"><text text-anchor="middle" transform="translate(-39,200) rotate(-90) translate(0,-4)" font-family="Times New Roman" font-size="20px" font-weight="bold" fill="#000" opacity="1">Success rate</text></g></g><path class="foreground" aria-hidden="true" d="" pointer-events="none" display="none"/></g></g><g class="mark-group role-scope layer_0_layer_0_pathgroup" role="graphics-object" aria-roledescription="group mark container"><g transform="translate(0,0)"><path class="background" aria-hidden="true" d="M0,0h600v400h-600Z"/><g><g class="mark-area role-mark layer_0_layer_0_marks" role="graphics-object" aria-roledescription="area mark container"><path aria-label="Number of parameters: 517.2k; Success rate: 0.5454; upper_Success rate: 0.551268333333; Algorithm: Simple baseline; Ci1 of Success rate: 0.551268333333; Ci0 of Success rate: 0.5454; Mean of Success rate: 0.5486" role="graphics-symbol" aria-roledescription="errorband" d="M0,259.771L160.7,185.755L204.121,161.41L229.084,166.971L365.378,121.257L411.221,113.067L600,108.838L600,90.133L411.221,89.867L365.378,104.914L229.084,145.255L204.121,155.351L160.7,182.21L0,256.418Z" fill="#FF4B33" opacity="0.3"/></g></g><path class="foreground" aria-hidden="true" d="" display="none"/></g><g transform="translate(0,0)"><path class="background" aria-hidden="true" d="M0,0h600v400h-600Z"/><g><g class="mark-area role-mark layer_0_layer_0_marks" role="graphics-object" aria-roledescription="area mark container"><path aria-label="Number of parameters: 1.60614M; Success rate: 0.652526666667; upper_Success rate: 0.6656; Algorithm: Soft Modules; Ci1 of Success rate: 0.6656; Ci0 of Success rate: 0.652526666667; Mean of Success rate: 0.659" role="graphics-symbol" aria-roledescription="errorband" d="M160.7,198.556L160.7,191.086Z" fill="#33B4FF" opacity="0.3"/></g></g><path class="foreground" aria-hidden="true" d="" display="none"/></g><g transform="translate(0,0)"><path class="background" aria-hidden="true" d="M0,0h600v400h-600Z"/><g><g class="mark-area role-mark layer_0_layer_0_marks" role="graphics-object" aria-roledescription="area mark container"><path aria-label="Number of parameters: 6.80118M; Success rate: 0.573191666667; upper_Success rate: 0.597741666667; Algorithm: PaCo; Ci1 of Success rate: 0.597741666667; Ci0 of Success rate: 0.573191666667; Mean of Success rate: 0.5862" role="graphics-symbol" aria-roledescription="errorband" d="M365.378,243.89L365.378,229.862Z" fill="#0F2E4D" opacity="0.3"/></g></g><path class="foreground" aria-hidden="true" d="" display="none"/></g><g transform="translate(0,0)"><path class="background" aria-hidden="true" d="M0,0h600v400h-600Z"/><g><g class="mark-area role-mark layer_0_layer_0_marks" role="graphics-object" aria-roledescription="area mark container"><path aria-label="Number of parameters: 2.1815M; Success rate: 0.641861666667; upper_Success rate: 0.654733333333; Algorithm: MOORE; Ci1 of Success rate: 0.654733333333; Ci0 of Success rate: 0.641861666667; Mean of Success rate: 0.6492" role="graphics-symbol" aria-roledescription="errorband" d="M204.121,204.65L204.121,197.295Z" fill="#24B27E" opacity="0.3"/></g></g><path class="foreground" aria-hidden="true" d="" display="none"/></g></g><g class="mark-group role-scope layer_1_layer_0_pathgroup" role="graphics-object" aria-roledescription="group mark container"><g transform="translate(0,0)"><path class="background" aria-hidden="true" d="M0,0h600v400h-600Z"/><g><g class="mark-line role-mark layer_1_layer_0_marks" role="graphics-object" aria-roledescription="line mark container"><path aria-label="Number of parameters: 517.2k; Success rate: 0.5486; Algorithm: Simple baseline" role="graphics-symbol" aria-roledescription="line mark" d="M0,257.943L160.7,184.038L204.121,158.705L229.084,156.114L365.378,113.333L411.221,101.067L600,100.229" stroke="#FF4B33" stroke-width="2"/></g></g><path class="foreground" aria-hidden="true" d="" display="none"/></g><g transform="translate(0,0)"><path class="background" aria-hidden="true" d="M0,0h600v400h-600Z"/><g><g class="mark-line role-mark layer_1_layer_0_marks" role="graphics-object" aria-roledescription="line mark container"><path aria-label="Number of parameters: 1.60614M; Success rate: 0.659; Algorithm: Soft Modules" role="graphics-symbol" aria-roledescription="line mark" d="M160.7,194.857Z" stroke="#33B4FF" stroke-width="2"/></g></g><path class="foreground" aria-hidden="true" d="" display="none"/></g><g transform="translate(0,0)"><path class="background" aria-hidden="true" d="M0,0h600v400h-600Z"/><g><g class="mark-line role-mark layer_1_layer_0_marks" role="graphics-object" aria-roledescription="line mark container"><path aria-label="Number of parameters: 6.80118M; Success rate: 0.5862; Algorithm: PaCo" role="graphics-symbol" aria-roledescription="line mark" d="M365.378,236.457Z" stroke="#0F2E4D" stroke-width="2"/></g></g><path class="foreground" aria-hidden="true" d="" display="none"/></g><g transform="translate(0,0)"><path class="background" aria-hidden="true" d="M0,0h600v400h-600Z"/><g><g class="mark-line role-mark layer_1_layer_0_marks" role="graphics-object" aria-roledescription="line mark container"><path aria-label="Number of parameters: 2.1815M; Success rate: 0.6492; Algorithm: MOORE" role="graphics-symbol" aria-roledescription="line mark" d="M204.121,200.457Z" stroke="#24B27E" stroke-width="2"/></g></g><path class="foreground" aria-hidden="true" d="" display="none"/></g></g><g class="mark-symbol role-mark layer_1_layer_1_marks" role="graphics-object" aria-roledescription="symbol mark container"><path aria-label="Number of parameters: 517.2k; Success rate: 0.5486; Algorithm: Simple baseline" role="graphics-symbol" aria-roledescription="point" transform="translate(0,257.9428571428571)" d="M5,0A5,5,0,1,1,-5,0A5,5,0,1,1,5,0" fill="#FF4B33" stroke-width="2" opacity="1"/><path aria-label="Number of parameters: 1.60614M; Success rate: 0.677933333333; Algorithm: Simple baseline" role="graphics-symbol" aria-roledescription="point" transform="translate(160.7002993181557,184.0380952380952)" d="M5,0A5,5,0,1,1,-5,0A5,5,0,1,1,5,0" fill="#FF4B33" stroke-width="2" opacity="1"/><path aria-label="Number of parameters: 6.80118M; Success rate: 0.801666666667; Algorithm: Simple baseline" role="graphics-symbol" aria-roledescription="point" transform="translate(365.378199750109,113.33333333333329)" d="M5,0A5,5,0,1,1,-5,0A5,5,0,1,1,5,0" fill="#FF4B33" stroke-width="2" opacity="1"/><path aria-label="Number of parameters: 2.1815M; Success rate: 0.722266666667; Algorithm: Simple baseline" role="graphics-symbol" aria-roledescription="point" transform="translate(204.12141444250426,158.7047619047619)" d="M5,0A5,5,0,1,1,-5,0A5,5,0,1,1,5,0" fill="#FF4B33" stroke-width="2" opacity="1"/><path aria-label="Number of parameters: 2.60136M; Success rate: 0.7268; Algorithm: Simple baseline" role="graphics-symbol" aria-roledescription="point" transform="translate(229.08412921360207,156.11428571428564)" d="M5,0A5,5,0,1,1,-5,0A5,5,0,1,1,5,0" fill="#FF4B33" stroke-width="2" opacity="1"/><path aria-label="Number of parameters: 9.39662M; Success rate: 0.823133333333; Algorithm: Simple baseline" role="graphics-symbol" aria-roledescription="point" transform="translate(411.2208851761308,101.06666666666672)" d="M5,0A5,5,0,1,1,-5,0A5,5,0,1,1,5,0" fill="#FF4B33" stroke-width="2" opacity="1"/><path aria-label="Number of parameters: 35.5701M; Success rate: 0.8246; Algorithm: Simple baseline" role="graphics-symbol" aria-roledescription="point" transform="translate(600,100.22857142857143)" d="M5,0A5,5,0,1,1,-5,0A5,5,0,1,1,5,0" fill="#FF4B33" stroke-width="2" opacity="1"/><path aria-label="Number of parameters: 1.60614M; Success rate: 0.659; Algorithm: Soft Modules" role="graphics-symbol" aria-roledescription="point" transform="translate(160.7002993181557,194.85714285714283)" d="M0,4.33L-5,-4.33L5,-4.33Z" fill="#33B4FF" stroke-width="2" opacity="1"/><path aria-label="Number of parameters: 6.80118M; Success rate: 0.5862; Algorithm: PaCo" role="graphics-symbol" aria-roledescription="point" transform="translate(365.378199750109,236.45714285714288)" d="M-5,0L0,-5L5,0L0,5Z" fill="#0F2E4D" stroke-width="2" opacity="1"/><path aria-label="Number of parameters: 2.1815M; Success rate: 0.6492; Algorithm: MOORE" role="graphics-symbol" aria-roledescription="point" transform="translate(204.12141444250426,200.45714285714286)" d="M-5,-5h10v10h-10Z" fill="#24B27E" stroke-width="2" opacity="1"/></g><g class="mark-rule role-mark layer_2_marks" role="graphics-object" aria-roledescription="rule mark container"><line aria-label="Number of parameters: 1.60614M; Success rate: 0.652598333333; upper_Success rate: 0.665401666667; Algorithm: Soft Modules; Ci1 of Success rate: 0.665401666667; Ci0 of Success rate: 0.652598333333; Mean of Success rate: 0.659" role="graphics-symbol" aria-roledescription="errorbar" transform="translate(160.7002993181557,198.51523809523806)" x2="0" y2="-7.316190476190513" stroke="#33B4FF"/><line aria-label="Number of parameters: 6.80118M; Success rate: 0.573191666667; upper_Success rate: 0.5972; Algorithm: PaCo; Ci1 of Success rate: 0.5972; Ci0 of Success rate: 0.573191666667; Mean of Success rate: 0.5862" role="graphics-symbol" aria-roledescription="errorbar" transform="translate(365.378199750109,243.89047619047614)" x2="0" y2="-13.719047619047586" stroke="#0F2E4D"/><line aria-label="Number of parameters: 2.1815M; Success rate: 0.641933333333; upper_Success rate: 0.654401666667; Algorithm: MOORE; Ci1 of Success rate: 0.654401666667; Ci0 of Success rate: 0.641933333333; Mean of Success rate: 0.6492" role="graphics-symbol" aria-roledescription="errorbar" transform="translate(204.12141444250426,204.6095238095238)" x2="0" y2="-7.124761904761897" stroke="#24B27E"/></g><g class="mark-group role-legend" role="graphics-symbol" aria-roledescription="legend" aria-label="Symbol legend titled 'Algorithm' for shape, fill color and stroke color with 4 values: Simple baseline, Soft Modules, MOORE, PaCo"><g transform="translate(18,18)"><path class="background" aria-hidden="true" d="M0,0h122v95h-122Z" pointer-events="none"/><g><g class="mark-group role-legend-entry"><g transform="translate(0,25)"><path class="background" aria-hidden="true" d="M0,0h0v0h0Z" pointer-events="none"/><g><g class="mark-group role-scope" role="graphics-object" aria-roledescription="group mark container"><g transform="translate(0,0)"><path class="background" aria-hidden="true" d="M0,0h121.7578125v16h-121.7578125Z" pointer-events="none" opacity="1"/><g><g class="mark-symbol role-legend-symbol" pointer-events="none"><path transform="translate(8,8)" d="M3.536,0A3.536,3.536,0,1,1,-3.536,0A3.536,3.536,0,1,1,3.536,0" fill="#FF4B33" fill-opacity="1" stroke="#FF4B33" stroke-width="1.5" opacity="1"/></g><g class="mark-text role-legend-label" pointer-events="none"><text text-anchor="start" transform="translate(20,13)" font-family="Times New Roman" font-size="16px" fill="#000" opacity="1">Simple baseline</text></g></g><path class="foreground" aria-hidden="true" d="" pointer-events="none" display="none"/></g><g transform="translate(0,18)"><path class="background" aria-hidden="true" d="M0,0h121.7578125v16h-121.7578125Z" pointer-events="none" opacity="1"/><g><g class="mark-symbol role-legend-symbol" pointer-events="none"><path transform="translate(8,8)" d="M0,3.062L-3.536,-3.062L3.536,-3.062Z" fill="#33B4FF" fill-opacity="1" stroke="#33B4FF" stroke-width="1.5" opacity="1"/></g><g class="mark-text role-legend-label" pointer-events="none"><text text-anchor="start" transform="translate(20,13)" font-family="Times New Roman" font-size="16px" fill="#000" opacity="1">Soft Modules</text></g></g><path class="foreground" aria-hidden="true" d="" pointer-events="none" display="none"/></g><g transform="translate(0,36)"><path class="background" aria-hidden="true" d="M0,0h121.7578125v16h-121.7578125Z" pointer-events="none" opacity="1"/><g><g class="mark-symbol role-legend-symbol" pointer-events="none"><path transform="translate(8,8)" d="M-3.536,-3.536h7.071v7.071h-7.071Z" fill="#24B27E" fill-opacity="1" stroke="#24B27E" stroke-width="1.5" opacity="1"/></g><g class="mark-text role-legend-label" pointer-events="none"><text text-anchor="start" transform="translate(20,13)" font-family="Times New Roman" font-size="16px" fill="#000" opacity="1">MOORE</text></g></g><path class="foreground" aria-hidden="true" d="" pointer-events="none" display="none"/></g><g transform="translate(0,54)"><path class="background" aria-hidden="true" d="M0,0h121.7578125v16h-121.7578125Z" pointer-events="none" opacity="1"/><g><g class="mark-symbol role-legend-symbol" pointer-events="none"><path transform="translate(8,8)" d="M-3.536,0L0,-3.536L3.536,0L0,3.536Z" fill="#0F2E4D" fill-opacity="1" stroke="#0F2E4D" stroke-width="1.5" opacity="1"/></g><g class="mark-text role-legend-label" pointer-events="none"><text text-anchor="start" transform="translate(20,13)" font-family="Times New Roman" font-size="16px" fill="#000" opacity="1">PaCo</text></g></g><path class="foreground" aria-hidden="true" d="" pointer-events="none" display="none"/></g></g></g><path class="foreground" aria-hidden="true" d="" pointer-events="none" display="none"/></g></g><g class="mark-text role-legend-title" pointer-events="none"><text text-anchor="start" transform="translate(0,16)" font-family="Times New Roman" font-size="20px" font-weight="bold" fill="#000" opacity="1">Algorithm</text></g></g><path class="foreground" aria-hidden="true" d="" pointer-events="none" display="none"/></g></g></g><path class="foreground" aria-hidden="true" d="" display="none"/></g></g></g></svg>