<svg xmlns="http://www.w3.org/2000/svg" xmlns:xlink="http://www.w3.org/1999/xlink" version="1.1" class="marks" width="665" height="458" viewBox="0 0 665 458"><rect width="665" height="458" fill="white"/><g fill="none" stroke-miterlimit="10" transform="translate(57,12)"><g class="mark-group role-frame root" role="graphics-object" aria-roledescription="group mark container"><g transform="translate(0,0)"><path class="background" aria-hidden="true" d="M0.5,0.5h600v400h-600Z" stroke="#ddd"/><g><g class="mark-group role-axis" aria-hidden="true"><g transform="translate(0.5,400.5)"><path class="background" aria-hidden="true" d="M0,0h0v0h0Z" pointer-events="none"/><g><g class="mark-rule role-axis-grid" pointer-events="none"><line transform="translate(0,-400)" x2="0" y2="400" stroke="#ddd" stroke-width="1" opacity="1"/><line transform="translate(165,-400)" x2="0" y2="400" stroke="#ddd" stroke-width="1" opacity="1"/><line transform="translate(250,-400)" x2="0" y2="400" stroke="#ddd" stroke-width="1" opacity="1"/><line transform="translate(361,-400)" x2="0" y2="400" stroke="#ddd" stroke-width="1" opacity="1"/><line transform="translate(446,-400)" x2="0" y2="400" stroke="#ddd" stroke-width="1" opacity="1"/><line transform="translate(579,-400)" x2="0" y2="400" stroke="#ddd" stroke-width="1" opacity="1"/></g></g><path class="foreground" aria-hidden="true" d="" pointer-events="none" display="none"/></g></g><g class="mark-group role-axis" aria-hidden="true"><g transform="translate(0.5,0.5)"><path class="background" aria-hidden="true" d="M0,0h0v0h0Z" pointer-events="none"/><g><g class="mark-rule role-axis-grid" pointer-events="none"><line transform="translate(0,400)" x2="600" y2="0" stroke="#ddd" stroke-width="1" opacity="1"/><line transform="translate(0,360)" x2="600" y2="0" stroke="#ddd" stroke-width="1" opacity="1"/><line transform="translate(0,320)" x2="600" y2="0" stroke="#ddd" stroke-width="1" opacity="1"/><line transform="translate(0,280)" x2="600" y2="0" stroke="#ddd" stroke-width="1" opacity="1"/><line transform="translate(0,240)" x2="600" y2="0" stroke="#ddd" stroke-width="1" opacity="1"/><line transform="translate(0,200)" x2="600" y2="0" stroke="#ddd" stroke-width="1" opacity="1"/><line transform="translate(0,160)" x2="600" y2="0" stroke="#ddd" stroke-width="1" opacity="1"/><line transform="translate(0,120)" x2="600" y2="0" stroke="#ddd" stroke-width="1" opacity="1"/><line transform="translate(0,80)" x2="600" y2="0" stroke="#ddd" stroke-width="1" opacity="1"/><line transform="translate(0,40)" x2="600" y2="0" stroke="#ddd" stroke-width="1" opacity="1"/><line transform="translate(0,0)" x2="600" y2="0" stroke="#ddd" stroke-width="1" opacity="1"/></g></g><path class="foreground" aria-hidden="true" d="" pointer-events="none" display="none"/></g></g><g class="mark-group role-axis" role="graphics-symbol" aria-roledescription="axis" aria-label="X-axis titled 'Number of parameters' for a log scale with values from 257.424k to 35.570064M"><g transform="translate(0.5,400.5)"><path class="background" aria-hidden="true" d="M0,0h0v0h0Z" pointer-events="none"/><g><g class="mark-rule role-axis-tick" pointer-events="none"><line transform="translate(0,0)" x2="0" y2="5" stroke="#888" stroke-width="1" opacity="1"/><line transform="translate(165,0)" x2="0" y2="5" stroke="#888" stroke-width="1" opacity="1"/><line transform="translate(250,0)" x2="0" y2="5" stroke="#888" stroke-width="1" opacity="1"/><line transform="translate(361,0)" x2="0" y2="5" stroke="#888" stroke-width="1" opacity="1"/><line transform="translate(446,0)" x2="0" y2="5" stroke="#888" stroke-width="1" opacity="1"/><line transform="translate(579,0)" x2="0" y2="5" stroke="#888" stroke-width="1" opacity="1"/></g><g class="mark-text role-axis-label" pointer-events="none"><text text-anchor="start" transform="translate(0,18)" font-family="Times New Roman" font-size="14px" fill="#000" opacity="1">257K</text><text text-anchor="middle" transform="translate(165.20495985562576,18)" font-family="Times New Roman" font-size="14px" fill="#000" opacity="1">1M</text><text text-anchor="middle" transform="translate(249.58871630404442,18)" font-family="Times New Roman" font-size="14px" fill="#000" opacity="1">2M</text><text text-anchor="middle" transform="translate(361.1379747053417,18)" font-family="Times New Roman" font-size="14px" fill="#000" opacity="1">5M</text><text text-anchor="middle" transform="translate(445.52173115376036,18)" font-family="Times New Roman" font-size="14px" fill="#000" opacity="1">10M</text><text text-anchor="middle" transform="translate(579.2668207944906,18)" font-family="Times New Roman" font-size="14px" fill="#000" opacity="1">30M</text></g><g class="mark-rule role-axis-domain" pointer-events="none"><line transform="translate(0,0)" x2="600" y2="0" stroke="#888" stroke-width="1" opacity="1"/></g><g class="mark-text role-axis-title" pointer-events="none"><text text-anchor="middle" transform="translate(300,38)" font-family="Times New Roman" font-size="16px" font-weight="bold" fill="#000" opacity="1">Number of parameters</text></g></g><path class="foreground" aria-hidden="true" d="" pointer-events="none" display="none"/></g></g><g class="mark-group role-axis" role="graphics-symbol" aria-roledescription="axis" aria-label="Y-axis titled 'Success rate' for a linear scale with values from 0.5 to 1.0"><g transform="translate(0.5,0.5)"><path class="background" aria-hidden="true" d="M0,0h0v0h0Z" pointer-events="none"/><g><g class="mark-rule role-axis-tick" pointer-events="none"><line transform="translate(0,400)" x2="-5" y2="0" stroke="#888" stroke-width="1" opacity="1"/><line transform="translate(0,360)" x2="-5" y2="0" stroke="#888" stroke-width="1" opacity="1"/><line transform="translate(0,320)" x2="-5" y2="0" stroke="#888" stroke-width="1" opacity="1"/><line transform="translate(0,280)" x2="-5" y2="0" stroke="#888" stroke-width="1" opacity="1"/><line transform="translate(0,240)" x2="-5" y2="0" stroke="#888" stroke-width="1" opacity="1"/><line transform="translate(0,200)" x2="-5" y2="0" stroke="#888" stroke-width="1" opacity="1"/><line transform="translate(0,160)" x2="-5" y2="0" stroke="#888" stroke-width="1" opacity="1"/><line transform="translate(0,120)" x2="-5" y2="0" stroke="#888" stroke-width="1" opacity="1"/><line transform="translate(0,80)" x2="-5" y2="0" stroke="#888" stroke-width="1" opacity="1"/><line transform="translate(0,40)" x2="-5" y2="0" stroke="#888" stroke-width="1" opacity="1"/><line transform="translate(0,0)" x2="-5" y2="0" stroke="#888" stroke-width="1" opacity="1"/></g><g class="mark-text role-axis-label" pointer-events="none"><text text-anchor="end" transform="translate(-7,404)" font-family="Times New Roman" font-size="14px" fill="#000" opacity="1">0.50</text><text text-anchor="end" transform="translate(-7,363.99999999999994)" font-family="Times New Roman" font-size="14px" fill="#000" opacity="1">0.55</text><text text-anchor="end" transform="translate(-7,324)" font-family="Times New Roman" font-size="14px" fill="#000" opacity="1">0.60</text><text text-anchor="end" transform="translate(-7,284)" font-family="Times New Roman" font-size="14px" fill="#000" opacity="1">0.65</text><text text-anchor="end" transform="translate(-7,244.00000000000003)" font-family="Times New Roman" font-size="14px" fill="#000" opacity="1">0.70</text><text text-anchor="end" transform="translate(-7,204)" font-family="Times New Roman" font-size="14px" fill="#000" opacity="1">0.75</text><text text-anchor="end" transform="translate(-7,163.99999999999997)" font-family="Times New Roman" font-size="14px" fill="#000" opacity="1">0.80</text><text text-anchor="end" transform="translate(-7,124.00000000000001)" font-family="Times New Roman" font-size="14px" fill="#000" opacity="1">0.85</text><text text-anchor="end" transform="translate(-7,83.99999999999999)" font-family="Times New Roman" font-size="14px" fill="#000" opacity="1">0.90</text><text text-anchor="end" transform="translate(-7,44.000000000000036)" font-family="Times New Roman" font-size="14px" fill="#000" opacity="1">0.95</text><text text-anchor="end" transform="translate(-7,4)" font-family="Times New Roman" font-size="14px" fill="#000" opacity="1">1.00</text></g><g class="mark-rule role-axis-domain" pointer-events="none"><line transform="translate(0,400)" x2="0" y2="-400" stroke="#888" stroke-width="1" opacity="1"/></g><g class="mark-text role-axis-title" pointer-events="none"><text text-anchor="middle" transform="translate(-35.5,200) rotate(-90) translate(0,-3)" font-family="Times New Roman" font-size="16px" font-weight="bold" fill="#000" opacity="1">Success rate</text></g></g><path class="foreground" aria-hidden="true" d="" pointer-events="none" display="none"/></g></g><g class="mark-group role-scope layer_0_layer_0_pathgroup" role="graphics-object" aria-roledescription="group mark container"><g transform="translate(0,0)"><path class="background" aria-hidden="true" d="M0,0h600v400h-600Z"/><g><g class="mark-area role-mark layer_0_layer_0_marks" role="graphics-object" aria-roledescription="area mark container"><path aria-label="Number of parameters: 257.424k; Success rate: 0.723666666667; upper_Success rate: 0.766341666667; Benchmark: MT10; Ci1 of Success rate: 0.766341666667; Ci0 of Success rate: 0.723666666667; Mean of Success rate: 0.742666666667" role="graphics-symbol" aria-roledescription="errorband" d="M0,221.067L134.424,144.8L281.593,113.6L437.945,73.087L600,65.28L600,41.6L437.945,53.333L281.593,94.927L134.424,114.4L0,186.927Z" fill="#FF4B33" opacity="0.3"/></g></g><path class="foreground" aria-hidden="true" d="" display="none"/></g><g transform="translate(0,0)"><path class="background" aria-hidden="true" d="M0,0h600v400h-600Z"/><g><g class="mark-area role-mark layer_0_layer_0_marks" role="graphics-object" aria-roledescription="area mark container"><path aria-label="Number of parameters: 257.424k; Success rate: 0.58384; upper_Success rate: 0.5904; Benchmark: MT25; Ci1 of Success rate: 0.5904; Ci0 of Success rate: 0.58384; Mean of Success rate: 0.58688" role="graphics-symbol" aria-roledescription="errorband" d="M0,332.928L134.424,302.72L281.593,231.04L437.945,173.44L437.945,165.12L281.593,183.68L134.424,288.427L0,327.68Z" fill="#7A1F18" opacity="0.3"/></g></g><path class="foreground" aria-hidden="true" d="" display="none"/></g><g transform="translate(0,0)"><path class="background" aria-hidden="true" d="M0,0h600v400h-600Z"/><g><g class="mark-area role-mark layer_0_layer_0_marks" role="graphics-object" aria-roledescription="area mark container"><path aria-label="Number of parameters: 257.424k; Success rate: 0.5226; upper_Success rate: 0.531666666667; Benchmark: MT50; Ci1 of Success rate: 0.531666666667; Ci0 of Success rate: 0.5226; Mean of Success rate: 0.527266666667" role="graphics-symbol" aria-roledescription="errorband" d="M0,381.92L134.424,333.653L281.593,233.656L437.945,157.44L600,152.009L600,126.712L437.945,125.547L281.593,203.253L134.424,321.067L0,374.667Z" fill="#3D494C" opacity="0.3"/></g></g><path class="foreground" aria-hidden="true" d="" display="none"/></g></g><g class="mark-group role-scope layer_1_layer_0_pathgroup" role="graphics-object" aria-roledescription="group mark container"><g transform="translate(0,0)"><path class="background" aria-hidden="true" d="M0,0h600v400h-600Z"/><g><g class="mark-line role-mark layer_1_layer_0_marks" role="graphics-object" aria-roledescription="line mark container"><path aria-label="Number of parameters: 257.424k; Success rate: 0.742666666667; Benchmark: MT10" role="graphics-symbol" aria-roledescription="line mark" d="M0,205.867L134.424,126.933L281.593,103.733L437.945,62.667L600,53.44" stroke="#FF4B33" stroke-width="2"/></g></g><path class="foreground" aria-hidden="true" d="" display="none"/></g><g transform="translate(0,0)"><path class="background" aria-hidden="true" d="M0,0h600v400h-600Z"/><g><g class="mark-line role-mark layer_1_layer_0_marks" role="graphics-object" aria-roledescription="line mark container"><path aria-label="Number of parameters: 257.424k; Success rate: 0.58688; Benchmark: MT25" role="graphics-symbol" aria-roledescription="line mark" d="M0,330.496L134.424,296L281.593,206.933L437.945,169.28" stroke="#7A1F18" stroke-width="2"/></g></g><path class="foreground" aria-hidden="true" d="" display="none"/></g><g transform="translate(0,0)"><path class="background" aria-hidden="true" d="M0,0h600v400h-600Z"/><g><g class="mark-line role-mark layer_1_layer_0_marks" role="graphics-object" aria-roledescription="line mark container"><path aria-label="Number of parameters: 257.424k; Success rate: 0.527266666667; Benchmark: MT50" role="graphics-symbol" aria-roledescription="line mark" d="M0,378.187L134.424,328.32L281.593,218.56L437.945,141.493L600,140.32" stroke="#3D494C" stroke-width="2"/></g></g><path class="foreground" aria-hidden="true" d="" display="none"/></g></g><g class="mark-symbol role-mark layer_1_layer_1_marks" role="graphics-object" aria-roledescription="symbol mark container"><path aria-label="Number of parameters: 257.424k; Success rate: 0.742666666667; Benchmark: MT10" role="graphics-symbol" aria-roledescription="point" transform="translate(0,205.86666666666665)" d="M2.739,0A2.739,2.739,0,1,1,-2.739,0A2.739,2.739,0,1,1,2.739,0" fill="#FF4B33" stroke-width="2" opacity="1"/><path aria-label="Number of parameters: 257.424k; Success rate: 0.58688; Benchmark: MT25" role="graphics-symbol" aria-roledescription="point" transform="translate(0,330.4959999999999)" d="M2.739,0A2.739,2.739,0,1,1,-2.739,0A2.739,2.739,0,1,1,2.739,0" fill="#7A1F18" stroke-width="2" opacity="1"/><path aria-label="Number of parameters: 257.424k; Success rate: 0.527266666667; Benchmark: MT50" role="graphics-symbol" aria-roledescription="point" transform="translate(0,378.18666666666667)" d="M2.739,0A2.739,2.739,0,1,1,-2.739,0A2.739,2.739,0,1,1,2.739,0" fill="#3D494C" stroke-width="2" opacity="1"/><path aria-label="Number of parameters: 776.592k; Success rate: 0.841333333333; Benchmark: MT10" role="graphics-symbol" aria-roledescription="point" transform="translate(134.4241915892926,126.9333333333333)" d="M2.739,0A2.739,2.739,0,1,1,-2.739,0A2.739,2.739,0,1,1,2.739,0" fill="#FF4B33" stroke-width="2" opacity="1"/><path aria-label="Number of parameters: 776.592k; Success rate: 0.63; Benchmark: MT25" role="graphics-symbol" aria-roledescription="point" transform="translate(134.4241915892926,296)" d="M2.739,0A2.739,2.739,0,1,1,-2.739,0A2.739,2.739,0,1,1,2.739,0" fill="#7A1F18" stroke-width="2" opacity="1"/><path aria-label="Number of parameters: 776.592k; Success rate: 0.5896; Benchmark: MT50" role="graphics-symbol" aria-roledescription="point" transform="translate(134.4241915892926,328.32)" d="M2.739,0A2.739,2.739,0,1,1,-2.739,0A2.739,2.739,0,1,1,2.739,0" fill="#3D494C" stroke-width="2" opacity="1"/><path aria-label="Number of parameters: 2.60136M; Success rate: 0.870333333333; Benchmark: MT10" role="graphics-symbol" aria-roledescription="point" transform="translate(281.59261168349366,103.73333333333336)" d="M2.739,0A2.739,2.739,0,1,1,-2.739,0A2.739,2.739,0,1,1,2.739,0" fill="#FF4B33" stroke-width="2" opacity="1"/><path aria-label="Number of parameters: 2.60136M; Success rate: 0.741333333333; Benchmark: MT25" role="graphics-symbol" aria-roledescription="point" transform="translate(281.59261168349366,206.93333333333337)" d="M2.739,0A2.739,2.739,0,1,1,-2.739,0A2.739,2.739,0,1,1,2.739,0" fill="#7A1F18" stroke-width="2" opacity="1"/><path aria-label="Number of parameters: 2.60136M; Success rate: 0.7268; Benchmark: MT50" role="graphics-symbol" aria-roledescription="point" transform="translate(281.59261168349366,218.55999999999992)" d="M2.739,0A2.739,2.739,0,1,1,-2.739,0A2.739,2.739,0,1,1,2.739,0" fill="#3D494C" stroke-width="2" opacity="1"/><path aria-label="Number of parameters: 9.39662M; Success rate: 0.921666666667; Benchmark: MT10" role="graphics-symbol" aria-roledescription="point" transform="translate(437.9452871824261,62.66666666666669)" d="M2.739,0A2.739,2.739,0,1,1,-2.739,0A2.739,2.739,0,1,1,2.739,0" fill="#FF4B33" stroke-width="2" opacity="1"/><path aria-label="Number of parameters: 9.39662M; Success rate: 0.7884; Benchmark: MT25" role="graphics-symbol" aria-roledescription="point" transform="translate(437.9452871824261,169.2800000000001)" d="M2.739,0A2.739,2.739,0,1,1,-2.739,0A2.739,2.739,0,1,1,2.739,0" fill="#7A1F18" stroke-width="2" opacity="1"/><path aria-label="Number of parameters: 9.39662M; Success rate: 0.823133333333; Benchmark: MT50" role="graphics-symbol" aria-roledescription="point" transform="translate(437.9452871824261,141.4933333333334)" d="M2.739,0A2.739,2.739,0,1,1,-2.739,0A2.739,2.739,0,1,1,2.739,0" fill="#3D494C" stroke-width="2" opacity="1"/><path aria-label="Number of parameters: 35.5701M; Success rate: 0.9332; Benchmark: MT10" role="graphics-symbol" aria-roledescription="point" transform="translate(600,53.439999999999976)" d="M2.739,0A2.739,2.739,0,1,1,-2.739,0A2.739,2.739,0,1,1,2.739,0" fill="#FF4B33" stroke-width="2" opacity="1"/><path aria-label="Number of parameters: 35.5701M; Success rate: 0.8246; Benchmark: MT50" role="graphics-symbol" aria-roledescription="point" transform="translate(600,140.32)" d="M2.739,0A2.739,2.739,0,1,1,-2.739,0A2.739,2.739,0,1,1,2.739,0" fill="#3D494C" stroke-width="2" opacity="1"/></g><g class="mark-group role-legend" role="graphics-symbol" aria-roledescription="legend" aria-label="Symbol legend titled 'Benchmark' for fill color and stroke color with 3 values: MT10, MT25, MT50"><g transform="translate(18,18)"><path class="background" aria-hidden="true" d="M0,0h80v67h-80Z" pointer-events="none" fill="white"/><g><g class="mark-group role-legend-entry"><g transform="translate(0,21)"><path class="background" aria-hidden="true" d="M0,0h0v0h0Z" pointer-events="none"/><g><g class="mark-group role-scope" role="graphics-object" aria-roledescription="group mark container"><g transform="translate(0,0)"><path class="background" aria-hidden="true" d="M0,0h53v14h-53Z" pointer-events="none" opacity="1"/><g><g class="mark-symbol role-legend-symbol" pointer-events="none"><path transform="translate(7,7)" d="M3.536,0A3.536,3.536,0,1,1,-3.536,0A3.536,3.536,0,1,1,3.536,0" fill="#FF4B33" stroke="#FF4B33" stroke-width="1.5" opacity="1"/></g><g class="mark-text role-legend-label" pointer-events="none"><text text-anchor="start" transform="translate(18,11)" font-family="Times New Roman" font-size="14px" fill="#000" opacity="1">MT10</text></g></g><path class="foreground" aria-hidden="true" d="" pointer-events="none" display="none"/></g><g transform="translate(0,16)"><path class="background" aria-hidden="true" d="M0,0h53v14h-53Z" pointer-events="none" opacity="1"/><g><g class="mark-symbol role-legend-symbol" pointer-events="none"><path transform="translate(7,7)" d="M3.536,0A3.536,3.536,0,1,1,-3.536,0A3.536,3.536,0,1,1,3.536,0" fill="#7A1F18" stroke="#7A1F18" stroke-width="1.5" opacity="1"/></g><g class="mark-text role-legend-label" pointer-events="none"><text text-anchor="start" transform="translate(18,11)" font-family="Times New Roman" font-size="14px" fill="#000" opacity="1">MT25</text></g></g><path class="foreground" aria-hidden="true" d="" pointer-events="none" display="none"/></g><g transform="translate(0,32)"><path class="background" aria-hidden="true" d="M0,0h53v14h-53Z" pointer-events="none" opacity="1"/><g><g class="mark-symbol role-legend-symbol" pointer-events="none"><path transform="translate(7,7)" d="M3.536,0A3.536,3.536,0,1,1,-3.536,0A3.536,3.536,0,1,1,3.536,0" fill="#3D494C" stroke="#3D494C" stroke-width="1.5" opacity="1"/></g><g class="mark-text role-legend-label" pointer-events="none"><text text-anchor="start" transform="translate(18,11)" font-family="Times New Roman" font-size="14px" fill="#000" opacity="1">MT50</text></g></g><path class="foreground" aria-hidden="true" d="" pointer-events="none" display="none"/></g></g></g><path class="foreground" aria-hidden="true" d="" pointer-events="none" display="none"/></g></g><g class="mark-text role-legend-title" pointer-events="none"><text text-anchor="start" transform="translate(0,13)" font-family="Times New Roman" font-size="16px" font-weight="bold" fill="#000" opacity="1">Benchmark</text></g></g><path class="foreground" aria-hidden="true" d="" pointer-events="none" display="none"/></g></g></g><path class="foreground" aria-hidden="true" d="" display="none"/></g></g></g></svg>