<svg xmlns="http://www.w3.org/2000/svg" xmlns:xlink="http://www.w3.org/1999/xlink" version="1.1" class="marks" width="719" height="482" viewBox="0 0 719 482"><rect width="719" height="482" fill="white"/><g fill="none" stroke-miterlimit="10" transform="translate(50,36)"><g class="mark-group role-frame root" role="graphics-object" aria-roledescription="group mark container"><g transform="translate(0,0)"><path class="background" aria-hidden="true" d="M0.5,0.5h600v400h-600Z" stroke="#ddd"/><g><g class="mark-group role-axis" aria-hidden="true"><g transform="translate(0.5,400.5)"><path class="background" aria-hidden="true" d="M0,0h0v0h0Z" pointer-events="none"/><g><g class="mark-rule role-axis-grid" pointer-events="none"><line transform="translate(0,-400)" x2="0" y2="400" stroke="#ddd" stroke-width="1" opacity="1"/><line transform="translate(30,-400)" x2="0" y2="400" stroke="#ddd" stroke-width="1" opacity="1"/><line transform="translate(60,-400)" x2="0" y2="400" stroke="#ddd" stroke-width="1" opacity="1"/><line transform="translate(90,-400)" x2="0" y2="400" stroke="#ddd" stroke-width="1" opacity="1"/><line transform="translate(120,-400)" x2="0" y2="400" stroke="#ddd" stroke-width="1" opacity="1"/><line transform="translate(150,-400)" x2="0" y2="400" stroke="#ddd" stroke-width="1" opacity="1"/><line transform="translate(180,-400)" x2="0" y2="400" stroke="#ddd" stroke-width="1" opacity="1"/><line transform="translate(210,-400)" x2="0" y2="400" stroke="#ddd" stroke-width="1" opacity="1"/><line transform="translate(240,-400)" x2="0" y2="400" stroke="#ddd" stroke-width="1" opacity="1"/><line transform="translate(270,-400)" x2="0" y2="400" stroke="#ddd" stroke-width="1" opacity="1"/><line transform="translate(300,-400)" x2="0" y2="400" stroke="#ddd" stroke-width="1" opacity="1"/><line transform="translate(330,-400)" x2="0" y2="400" stroke="#ddd" stroke-width="1" opacity="1"/><line transform="translate(360,-400)" x2="0" y2="400" stroke="#ddd" stroke-width="1" opacity="1"/><line transform="translate(390,-400)" x2="0" y2="400" stroke="#ddd" stroke-width="1" opacity="1"/><line transform="translate(420,-400)" x2="0" y2="400" stroke="#ddd" stroke-width="1" opacity="1"/><line transform="translate(450,-400)" x2="0" y2="400" stroke="#ddd" stroke-width="1" opacity="1"/><line transform="translate(480,-400)" x2="0" y2="400" stroke="#ddd" stroke-width="1" opacity="1"/><line transform="translate(510,-400)" x2="0" y2="400" stroke="#ddd" stroke-width="1" opacity="1"/><line transform="translate(540,-400)" x2="0" y2="400" stroke="#ddd" stroke-width="1" opacity="1"/><line transform="translate(570,-400)" x2="0" y2="400" stroke="#ddd" stroke-width="1" opacity="1"/><line transform="translate(600,-400)" x2="0" y2="400" stroke="#ddd" stroke-width="1" opacity="1"/></g></g><path class="foreground" aria-hidden="true" d="" pointer-events="none" display="none"/></g></g><g class="mark-group role-axis" aria-hidden="true"><g transform="translate(0.5,0.5)"><path class="background" aria-hidden="true" d="M0,0h0v0h0Z" pointer-events="none"/><g><g class="mark-rule role-axis-grid" pointer-events="none"><line transform="translate(0,400)" x2="600" y2="0" stroke="#ddd" stroke-width="1" opacity="1"/><line transform="translate(0,356)" x2="600" y2="0" stroke="#ddd" stroke-width="1" opacity="1"/><line transform="translate(0,311)" x2="600" y2="0" stroke="#ddd" stroke-width="1" opacity="1"/><line transform="translate(0,267)" x2="600" y2="0" stroke="#ddd" stroke-width="1" opacity="1"/><line transform="translate(0,222)" x2="600" y2="0" stroke="#ddd" stroke-width="1" opacity="1"/><line transform="translate(0,178)" x2="600" y2="0" stroke="#ddd" stroke-width="1" opacity="1"/><line transform="translate(0,133)" x2="600" y2="0" stroke="#ddd" stroke-width="1" opacity="1"/><line transform="translate(0,89)" x2="600" y2="0" stroke="#ddd" stroke-width="1" opacity="1"/><line transform="translate(0,44)" x2="600" y2="0" stroke="#ddd" stroke-width="1" opacity="1"/><line transform="translate(0,0)" x2="600" y2="0" stroke="#ddd" stroke-width="1" opacity="1"/></g></g><path class="foreground" aria-hidden="true" d="" pointer-events="none" display="none"/></g></g><g class="mark-group role-axis" role="graphics-symbol" aria-roledescription="axis" aria-label="X-axis titled 'Timestep' for a linear scale with values from 0M to 20M"><g transform="translate(0.5,400.5)"><path class="background" aria-hidden="true" d="M0,0h0v0h0Z" pointer-events="none"/><g><g class="mark-rule role-axis-tick" pointer-events="none"><line transform="translate(0,0)" x2="0" y2="5" stroke="#888" stroke-width="1" opacity="1"/><line transform="translate(30,0)" x2="0" y2="5" stroke="#888" stroke-width="1" opacity="1"/><line transform="translate(60,0)" x2="0" y2="5" stroke="#888" stroke-width="1" opacity="1"/><line transform="translate(90,0)" x2="0" y2="5" stroke="#888" stroke-width="1" opacity="1"/><line transform="translate(120,0)" x2="0" y2="5" stroke="#888" stroke-width="1" opacity="1"/><line transform="translate(150,0)" x2="0" y2="5" stroke="#888" stroke-width="1" opacity="1"/><line transform="translate(180,0)" x2="0" y2="5" stroke="#888" stroke-width="1" opacity="1"/><line transform="translate(210,0)" x2="0" y2="5" stroke="#888" stroke-width="1" opacity="1"/><line transform="translate(240,0)" x2="0" y2="5" stroke="#888" stroke-width="1" opacity="1"/><line transform="translate(270,0)" x2="0" y2="5" stroke="#888" stroke-width="1" opacity="1"/><line transform="translate(300,0)" x2="0" y2="5" stroke="#888" stroke-width="1" opacity="1"/><line transform="translate(330,0)" x2="0" y2="5" stroke="#888" stroke-width="1" opacity="1"/><line transform="translate(360,0)" x2="0" y2="5" stroke="#888" stroke-width="1" opacity="1"/><line transform="translate(390,0)" x2="0" y2="5" stroke="#888" stroke-width="1" opacity="1"/><line transform="translate(420,0)" x2="0" y2="5" stroke="#888" stroke-width="1" opacity="1"/><line transform="translate(450,0)" x2="0" y2="5" stroke="#888" stroke-width="1" opacity="1"/><line transform="translate(480,0)" x2="0" y2="5" stroke="#888" stroke-width="1" opacity="1"/><line transform="translate(510,0)" x2="0" y2="5" stroke="#888" stroke-width="1" opacity="1"/><line transform="translate(540,0)" x2="0" y2="5" stroke="#888" stroke-width="1" opacity="1"/><line transform="translate(570,0)" x2="0" y2="5" stroke="#888" stroke-width="1" opacity="1"/><line transform="translate(600,0)" x2="0" y2="5" stroke="#888" stroke-width="1" opacity="1"/></g><g class="mark-text role-axis-label" pointer-events="none"><text text-anchor="start" transform="translate(0,18)" font-family="Times New Roman" font-size="14px" fill="#000" opacity="1">0</text><text text-anchor="middle" transform="translate(30,18)" font-family="Times New Roman" font-size="14px" fill="#000" opacity="0">1M</text><text text-anchor="middle" transform="translate(60,18)" font-family="Times New Roman" font-size="14px" fill="#000" opacity="1">2M</text><text text-anchor="middle" transform="translate(90,18)" font-family="Times New Roman" font-size="14px" fill="#000" opacity="0">3M</text><text text-anchor="middle" transform="translate(120,18)" font-family="Times New Roman" font-size="14px" fill="#000" opacity="1">4M</text><text text-anchor="middle" transform="translate(150,18)" font-family="Times New Roman" font-size="14px" fill="#000" opacity="0">5M</text><text text-anchor="middle" transform="translate(180,18)" font-family="Times New Roman" font-size="14px" fill="#000" opacity="1">6M</text><text text-anchor="middle" transform="translate(210,18)" font-family="Times New Roman" font-size="14px" fill="#000" opacity="0">7M</text><text text-anchor="middle" transform="translate(240,18)" font-family="Times New Roman" font-size="14px" fill="#000" opacity="1">8M</text><text text-anchor="middle" transform="translate(270,18)" font-family="Times New Roman" font-size="14px" fill="#000" opacity="0">9M</text><text text-anchor="middle" transform="translate(300,18)" font-family="Times New Roman" font-size="14px" fill="#000" opacity="1">10M</text><text text-anchor="middle" transform="translate(330,18)" font-family="Times New Roman" font-size="14px" fill="#000" opacity="0">11M</text><text text-anchor="middle" transform="translate(360,18)" font-family="Times New Roman" font-size="14px" fill="#000" opacity="1">12M</text><text text-anchor="middle" transform="translate(390,18)" font-family="Times New Roman" font-size="14px" fill="#000" opacity="0">13M</text><text text-anchor="middle" transform="translate(420,18)" font-family="Times New Roman" font-size="14px" fill="#000" opacity="1">14M</text><text text-anchor="middle" transform="translate(450,18)" font-family="Times New Roman" font-size="14px" fill="#000" opacity="0">15M</text><text text-anchor="middle" transform="translate(480,18)" font-family="Times New Roman" font-size="14px" fill="#000" opacity="1">16M</text><text text-anchor="middle" transform="translate(510,18)" font-family="Times New Roman" font-size="14px" fill="#000" opacity="0">17M</text><text text-anchor="middle" transform="translate(540,18)" font-family="Times New Roman" font-size="14px" fill="#000" opacity="1">18M</text><text text-anchor="middle" transform="translate(570,18)" font-family="Times New Roman" font-size="14px" fill="#000" opacity="0">19M</text><text text-anchor="end" transform="translate(600,18)" font-family="Times New Roman" font-size="14px" fill="#000" opacity="1">20M</text></g><g class="mark-rule role-axis-domain" pointer-events="none"><line transform="translate(0,0)" x2="600" y2="0" stroke="#888" stroke-width="1" opacity="1"/></g><g class="mark-text role-axis-title" pointer-events="none"><text text-anchor="middle" transform="translate(300,38)" font-family="Times New Roman" font-size="16px" font-weight="bold" fill="#000" opacity="1">Timestep</text></g></g><path class="foreground" aria-hidden="true" d="" pointer-events="none" display="none"/></g></g><g class="mark-group role-axis" role="graphics-symbol" aria-roledescription="axis" aria-label="Y-axis titled 'Success rate' for a linear scale with values from 0.1 to 1.0"><g transform="translate(0.5,0.5)"><path class="background" aria-hidden="true" d="M0,0h0v0h0Z" pointer-events="none"/><g><g class="mark-rule role-axis-tick" pointer-events="none"><line transform="translate(0,400)" x2="-5" y2="0" stroke="#888" stroke-width="1" opacity="1"/><line transform="translate(0,356)" x2="-5" y2="0" stroke="#888" stroke-width="1" opacity="1"/><line transform="translate(0,311)" x2="-5" y2="0" stroke="#888" stroke-width="1" opacity="1"/><line transform="translate(0,267)" x2="-5" y2="0" stroke="#888" stroke-width="1" opacity="1"/><line transform="translate(0,222)" x2="-5" y2="0" stroke="#888" stroke-width="1" opacity="1"/><line transform="translate(0,178)" x2="-5" y2="0" stroke="#888" stroke-width="1" opacity="1"/><line transform="translate(0,133)" x2="-5" y2="0" stroke="#888" stroke-width="1" opacity="1"/><line transform="translate(0,89)" x2="-5" y2="0" stroke="#888" stroke-width="1" opacity="1"/><line transform="translate(0,44)" x2="-5" y2="0" stroke="#888" stroke-width="1" opacity="1"/><line transform="translate(0,0)" x2="-5" y2="0" stroke="#888" stroke-width="1" opacity="1"/></g><g class="mark-text role-axis-label" pointer-events="none"><text text-anchor="end" transform="translate(-7,404)" font-family="Times New Roman" font-size="14px" fill="#000" opacity="1">0.1</text><text text-anchor="end" transform="translate(-7,359.55555555555554)" font-family="Times New Roman" font-size="14px" fill="#000" opacity="1">0.2</text><text text-anchor="end" transform="translate(-7,315.11111111111114)" font-family="Times New Roman" font-size="14px" fill="#000" opacity="1">0.3</text><text text-anchor="end" transform="translate(-7,270.66666666666663)" font-family="Times New Roman" font-size="14px" fill="#000" opacity="1">0.4</text><text text-anchor="end" transform="translate(-7,226.22222222222223)" font-family="Times New Roman" font-size="14px" fill="#000" opacity="1">0.5</text><text text-anchor="end" transform="translate(-7,181.77777777777777)" font-family="Times New Roman" font-size="14px" fill="#000" opacity="1">0.6</text><text text-anchor="end" transform="translate(-7,137.33333333333334)" font-family="Times New Roman" font-size="14px" fill="#000" opacity="1">0.7</text><text text-anchor="end" transform="translate(-7,92.88888888888889)" font-family="Times New Roman" font-size="14px" fill="#000" opacity="1">0.8</text><text text-anchor="end" transform="translate(-7,48.44444444444442)" font-family="Times New Roman" font-size="14px" fill="#000" opacity="1">0.9</text><text text-anchor="end" transform="translate(-7,4)" font-family="Times New Roman" font-size="14px" fill="#000" opacity="1">1.0</text></g><g class="mark-rule role-axis-domain" pointer-events="none"><line transform="translate(0,400)" x2="0" y2="-400" stroke="#888" stroke-width="1" opacity="1"/></g><g class="mark-text role-axis-title" pointer-events="none"><text text-anchor="middle" transform="translate(-28.5,200) rotate(-90) translate(0,-3)" font-family="Times New Roman" font-size="16px" font-weight="bold" fill="#000" opacity="1">Success rate</text></g></g><path class="foreground" aria-hidden="true" d="" pointer-events="none" display="none"/></g></g><g class="mark-group role-scope layer_0_layer_0_pathgroup" role="graphics-object" aria-roledescription="group mark container"><g transform="translate(0,0)"><path class="background" aria-hidden="true" d="M0,0h600v400h-600Z"/><g><g class="mark-area role-mark layer_0_layer_0_marks" clip-path="url(#clip1)" role="graphics-object" aria-roledescription="area mark container"><path aria-label="Timestep: 200.38k; Success rate: 0.027; upper_Success rate: 0.088205; Width: 256; Ci1 of Success rate: 0.088205; Ci0 of Success rate: 0.027; Mean of Success rate: 0.0554" role="graphics-symbol" aria-roledescription="errorband" d="M12.023,393.262C14.027,381.277,16.031,370.905,18.035,364.238C20.039,357.57,22.043,354.607,24.047,349.201C26.05,343.794,28.054,335.944,30.058,327.588C32.062,319.233,34.066,310.372,36.07,301.349C38.074,292.327,40.078,283.142,42.082,277.083C44.086,271.024,46.089,268.091,48.093,265.009C50.097,261.927,52.101,258.697,54.105,253.528C56.109,248.359,58.113,241.25,60.117,236.451C62.121,231.652,64.125,229.161,66.128,226.553C68.132,223.945,70.136,221.219,72.14,219.707C74.144,218.196,76.148,217.898,78.152,215.616C80.156,213.333,82.16,209.067,84.164,206.874C86.167,204.681,88.171,204.563,90.175,203.067C92.179,201.57,94.183,198.696,96.187,195.556C98.191,192.416,100.195,189.009,102.199,186.535C104.203,184.061,106.206,182.521,108.21,182.358C110.214,182.195,112.218,183.41,114.222,183.366C116.226,183.321,118.23,182.019,120.234,180.419C122.238,178.819,124.242,176.921,126.245,175.128C128.249,173.335,130.253,171.645,132.257,170.757C134.261,169.869,136.265,169.782,138.269,168.464C140.273,167.147,142.277,164.598,144.281,164.316C146.284,164.033,148.288,166.018,150.292,166.24C152.296,166.461,154.3,164.921,156.304,164.343C158.308,163.764,160.312,164.149,162.316,163.986C164.319,163.822,166.323,163.111,168.327,162.459C170.331,161.807,172.335,161.215,174.339,161.037C176.343,160.86,178.347,161.098,180.351,160.372C182.355,159.646,184.359,157.956,186.362,156.46C188.366,154.963,190.37,153.659,192.374,152.637C194.378,151.616,196.382,150.876,198.386,150.654C200.39,150.433,202.394,150.731,204.398,150.939C206.401,151.146,208.405,151.263,210.409,151.914C212.413,152.565,214.417,153.75,216.421,153.32C218.425,152.89,220.429,150.845,222.433,150.297C224.437,149.749,226.44,150.698,228.444,151.1C230.448,151.503,232.452,151.359,234.456,150.263C236.46,149.166,238.464,147.116,240.468,146.344C242.472,145.571,244.476,146.076,246.479,146.076C248.483,146.076,250.487,145.571,252.491,145.852C254.495,146.133,256.499,147.2,258.503,147.585C260.507,147.97,262.511,147.674,264.515,146.637C266.518,145.601,268.522,143.824,270.526,143.809C272.53,143.795,274.534,145.543,276.538,145.617C278.542,145.69,280.546,144.09,282.55,142.446C284.554,140.801,286.557,139.114,288.561,138.063C290.565,137.011,292.569,136.596,294.573,136.21C296.577,135.824,298.581,135.467,300.585,135.215C302.589,134.963,304.593,134.815,306.596,135.141C308.6,135.467,310.604,136.268,312.608,136.357C314.612,136.447,316.616,135.824,318.62,135.706C320.624,135.587,322.628,135.971,324.632,135.763C326.635,135.556,328.639,134.756,330.643,134.637C332.647,134.519,334.651,135.081,336.655,135.245C338.659,135.408,340.663,135.172,342.667,134.757C344.671,134.343,346.674,133.75,348.678,133.646C350.682,133.542,352.686,133.927,354.69,135.556C356.694,137.186,358.698,140.061,360.702,140.224C362.706,140.387,364.71,137.838,366.713,136.297C368.717,134.756,370.721,134.224,372.725,133.676C374.729,133.128,376.733,132.565,378.737,133.173C380.741,133.78,382.745,135.558,384.749,135.394C386.752,135.231,388.756,133.127,390.76,131.823C392.764,130.519,394.768,130.015,396.772,129.659C398.776,129.304,400.78,129.096,402.784,127.956C404.787,126.815,406.791,124.741,407.793,124.132C408.795,123.523,408.795,124.379,409.797,123.193C410.799,122.008,412.803,118.782,413.805,120.555C414.807,122.328,414.807,129.101,415.809,133.693C416.811,138.286,418.815,140.698,419.817,140.36C420.819,140.021,420.819,136.931,421.821,135.005C422.823,133.079,424.826,132.317,425.828,132.783C426.83,133.249,426.83,134.942,427.832,132.423C428.834,129.905,430.838,123.175,431.84,123.006C432.842,122.837,432.842,129.23,433.844,128.785C434.846,128.341,436.85,121.059,437.852,120.995C438.854,120.931,438.854,128.085,439.856,128.381C440.858,128.677,442.861,122.116,443.863,122.139C444.865,122.161,444.865,128.766,445.867,130.396C446.869,132.025,448.873,128.679,449.875,129.229C450.877,129.778,450.877,134.222,451.879,134.222C452.881,134.222,454.885,129.778,455.887,128.572C456.889,127.366,456.889,129.399,457.891,131.325C458.893,133.251,460.897,135.07,461.898,135.303C462.9,135.535,462.901,134.182,463.902,131.663C464.904,129.145,466.908,125.461,467.91,125.207C468.912,124.953,468.912,128.129,469.914,127.388C470.916,126.648,472.92,121.99,473.922,122.604C474.924,123.217,474.924,129.101,475.926,130.138C476.928,131.175,478.932,127.365,479.934,126.899C480.936,126.434,480.936,129.312,481.938,130.053C482.939,130.794,484.943,129.397,485.945,129.376C486.947,129.354,486.947,130.709,487.949,131.302C488.951,131.894,490.955,131.725,491.957,132.614C492.959,133.504,492.959,135.452,493.961,132.785C494.963,130.119,496.967,122.837,497.969,121.969C498.971,121.101,498.971,126.646,499.973,128.127C500.975,129.608,502.978,127.026,503.98,126.54C504.982,126.054,504.982,127.663,505.984,126.775C506.986,125.886,508.99,122.498,509.992,122.688C510.994,122.878,510.994,126.646,511.996,126.794C512.998,126.942,515.002,123.471,516.004,123.344C517.006,123.218,517.006,126.436,518.008,129.103C519.01,131.769,521.014,133.885,522.015,134.308C523.017,134.732,523.018,133.465,524.019,132.798C525.021,132.131,527.025,132.066,528.027,132.502C529.029,132.938,529.029,133.877,530.031,134.425C531.033,134.973,533.037,135.131,534.039,134.795C535.041,134.459,535.041,133.63,536.043,133.096C537.045,132.563,539.049,132.326,540.051,132.119C541.052,131.911,541.053,131.733,542.055,131.022C543.057,130.311,545.06,129.067,546.062,128.563C547.064,128.059,547.064,128.296,548.066,130.104C549.068,131.911,551.072,135.289,552.074,134.963C553.076,134.637,553.076,130.607,554.078,128.474C555.08,126.341,557.084,126.104,558.086,127.081C559.088,128.059,559.088,130.252,560.09,129.987C561.092,129.721,563.095,126.999,564.097,127.324C565.099,127.65,565.099,131.025,566.101,132.95C567.103,134.874,569.107,135.348,570.109,134.489C571.111,133.63,571.111,131.437,572.113,129.156C573.115,126.874,575.119,124.504,576.121,126.489C577.123,128.474,577.123,134.815,578.125,134.93C579.127,135.044,581.13,128.933,582.132,127.34C583.134,125.746,583.135,128.67,584.136,129.089C585.138,129.507,587.142,127.42,588.144,127.932C589.146,128.444,589.146,131.556,590.148,131.012C591.15,130.469,593.154,126.272,594.156,125.827L594.156,89.227C593.154,90.412,591.15,96.984,590.148,96.885C589.146,96.785,589.146,90.015,588.144,91.941C587.142,93.867,585.138,104.489,584.136,104.911C583.135,105.333,583.134,95.556,582.132,89.348C581.13,83.141,579.127,80.504,578.125,82.474C577.123,84.444,577.123,91.022,576.121,92.978C575.119,94.933,573.115,92.267,572.113,94.252C571.111,96.237,571.111,102.874,570.109,102.691C569.107,102.508,567.103,95.505,566.101,94.527C565.099,93.55,565.099,98.597,564.097,98.01C563.095,97.422,561.092,91.2,560.09,91.526C559.088,91.852,559.088,98.726,558.086,99.052C557.084,99.378,555.08,93.156,554.078,92.889C553.076,92.622,553.076,98.311,552.074,98.252C551.072,98.193,549.068,92.385,548.066,92.681C547.064,92.978,547.064,99.378,546.062,101.126C545.06,102.874,543.057,99.97,542.055,99.941C541.053,99.911,541.052,102.756,540.051,101.778C539.049,100.8,537.045,96,536.043,95.97C535.041,95.941,535.041,100.681,534.039,101.875C533.037,103.068,531.033,100.714,530.031,99.847C529.029,98.98,529.029,99.601,528.027,101.006C527.025,102.411,525.021,104.599,524.019,103.006C523.018,101.414,523.017,96.04,522.015,95.787C521.014,95.533,519.01,100.4,518.008,102.03C517.006,103.659,517.006,102.052,516.004,101.988C515.002,101.925,512.998,103.405,511.996,101.479C510.994,99.553,510.994,94.221,509.992,94.453C508.99,94.686,506.986,100.483,505.984,100.631C504.982,100.779,504.982,95.278,503.98,94.602C502.978,93.926,500.975,98.074,499.973,98.667C498.971,99.259,498.971,96.296,497.969,97.058C496.967,97.819,494.963,102.305,493.961,101.86C492.959,101.416,492.959,96.041,491.957,96.317C490.955,96.593,488.951,102.519,487.949,102.37C486.947,102.222,486.947,96,485.945,95.703C484.943,95.405,482.939,101.033,481.938,100.885C480.936,100.737,480.936,94.813,479.934,95.258C478.932,95.704,476.928,102.519,475.926,102.667C474.924,102.815,474.924,96.296,473.922,95.533C472.92,94.769,470.916,99.761,469.914,101.835C468.912,103.909,468.912,103.066,467.91,104.21C466.908,105.354,464.904,108.487,463.902,108.042C462.901,107.598,462.9,103.577,461.898,102.982C460.897,102.387,458.893,105.219,457.891,104.034C456.889,102.849,456.889,97.647,455.887,98.22C454.885,98.794,452.881,105.143,451.879,105.143C450.877,105.143,450.877,98.794,449.875,98.73C448.873,98.667,446.869,104.889,445.867,104.593C444.865,104.296,444.865,97.481,443.863,97.164C442.861,96.847,440.858,103.026,439.856,102.878C438.854,102.73,438.854,96.254,437.852,96.593C436.85,96.931,434.846,104.085,433.844,103.937C432.842,103.788,432.842,96.339,431.84,96.062C430.838,95.786,428.834,102.684,427.832,103.424C426.83,104.165,426.83,98.749,425.828,99.956C424.826,101.163,422.823,108.993,421.821,108.252C420.819,107.511,420.819,98.2,419.817,97.82C418.815,97.439,416.811,105.989,415.809,107.026C414.807,108.063,414.807,101.587,413.805,99.847C412.803,98.106,410.799,101.101,409.797,105.694C408.795,110.286,408.795,116.477,407.793,117.526C406.791,118.576,404.787,114.486,402.784,112.737C400.78,110.989,398.776,111.582,396.772,111.968C394.768,112.354,392.764,112.533,390.76,113.096C388.756,113.659,386.752,114.607,384.749,115.156C382.745,115.704,380.741,115.852,378.737,116.77C376.733,117.689,374.729,119.378,372.725,119.629C370.721,119.88,368.717,118.693,366.713,118.59C364.71,118.486,362.706,119.465,360.702,119.791C358.698,120.117,356.694,119.79,354.69,119.153C352.686,118.516,350.682,117.569,348.678,117.851C346.674,118.133,344.671,119.644,342.667,120.43C340.663,121.215,338.659,121.274,336.655,121.23C334.651,121.185,332.647,121.037,330.643,121.777C328.639,122.518,326.635,124.147,324.632,124.901C322.628,125.656,320.624,125.537,318.62,125.123C316.616,124.708,314.612,123.999,312.608,123.243C310.604,122.488,308.6,121.687,306.596,122.028C304.593,122.369,302.589,123.851,300.585,124.103C298.581,124.356,296.577,123.378,294.573,123.304C292.569,123.23,290.565,124.059,288.561,123.984C286.557,123.908,284.554,122.927,282.55,123.446C280.546,123.964,278.542,125.982,276.538,126.339C274.534,126.696,272.53,125.393,270.526,125.17C268.522,124.947,266.518,125.806,264.515,126.339C262.511,126.873,260.507,127.081,258.503,126.384C256.499,125.688,254.495,124.087,252.491,124.354C250.487,124.62,248.483,126.753,246.479,128.191C244.476,129.628,242.472,130.37,240.468,130.651C238.464,130.932,236.46,130.753,234.456,130.797C232.452,130.841,230.448,131.108,228.444,130.99C226.44,130.873,224.437,130.37,222.433,130.221C220.429,130.073,218.425,130.279,216.421,130.249C214.417,130.219,212.413,129.953,210.409,129.998C208.405,130.043,206.401,130.399,204.398,130.858C202.394,131.317,200.39,131.879,198.386,132.219C196.382,132.559,194.378,132.677,192.374,133.018C190.37,133.359,188.366,133.923,186.362,134.664C184.359,135.405,182.355,136.324,180.351,137.006C178.347,137.687,176.343,138.133,174.339,138.503C172.335,138.873,170.331,139.169,168.327,139.599C166.323,140.028,164.319,140.592,162.316,140.621C160.312,140.65,158.308,140.145,156.304,140.174C154.3,140.204,152.296,140.767,150.292,140.857C148.288,140.947,146.284,140.562,144.281,140.947C142.277,141.333,140.273,142.487,138.269,143.775C136.265,145.062,134.261,146.482,132.257,146.941C130.253,147.401,128.249,146.899,126.245,147.197C124.242,147.495,122.238,148.592,120.234,149.466C118.23,150.339,116.226,150.99,114.222,151.847C112.218,152.704,110.214,153.769,108.21,155.295C106.206,156.821,104.203,158.808,102.199,160.706C100.195,162.604,98.191,164.413,96.187,165.866C94.183,167.318,92.179,168.413,90.175,170.116C88.171,171.819,86.167,174.128,84.164,176.765C82.16,179.402,80.156,182.367,78.152,184.457C76.148,186.547,74.144,187.762,72.14,190.74C70.136,193.718,68.132,198.458,66.128,201.361C64.125,204.264,62.121,205.331,60.117,209.479C58.113,213.627,56.109,220.857,54.105,225.449C52.101,230.041,50.097,231.996,48.093,235.982C46.089,239.967,44.086,245.984,42.082,252.383C40.078,258.783,38.074,265.566,36.07,273.625C34.066,281.684,32.062,291.019,30.058,299.508C28.054,307.998,26.05,315.642,24.047,323.094C22.043,330.546,20.039,337.805,18.035,343.954C16.031,350.102,14.027,355.14,12.023,365.17Z" fill="#FF5F33" opacity="0.3"/></g></g><path class="foreground" aria-hidden="true" d="" display="none"/></g><g transform="translate(0,0)"><path class="background" aria-hidden="true" d="M0,0h600v400h-600Z"/><g><g class="mark-area role-mark layer_0_layer_0_marks" clip-path="url(#clip2)" role="graphics-object" aria-roledescription="area mark container"><path aria-label="Timestep: 200.38k; Success rate: 0.0698; upper_Success rate: 0.1384; Width: 512; Ci1 of Success rate: 0.1384; Ci0 of Success rate: 0.0698; Mean of Success rate: 0.1034" role="graphics-symbol" aria-roledescription="errorband" d="M12.023,374.667C14.027,366.785,16.031,366.459,18.035,359.216C20.039,351.973,22.043,337.812,24.047,328.584C26.05,319.357,28.054,315.063,30.058,309.847C32.062,304.632,34.066,298.495,36.07,290.924C38.074,283.353,40.078,274.347,42.082,266.688C44.086,259.028,46.089,252.714,48.093,247.914C50.097,243.115,52.101,239.83,54.105,233.475C56.109,227.12,58.113,217.696,60.117,210.583C62.121,203.471,64.125,198.671,66.128,195.205C68.132,191.739,70.136,189.606,72.14,186.066C74.144,182.525,76.148,177.577,78.152,172.687C80.156,167.797,82.16,162.965,84.164,160.09C86.167,157.216,88.171,156.298,90.175,155.736C92.179,155.173,94.183,154.967,96.187,153.826C98.191,152.684,100.195,150.609,102.199,149.69C104.203,148.772,106.206,149.01,108.21,148.729C110.214,148.447,112.218,147.646,114.222,146.283C116.226,144.921,118.23,142.997,120.234,140.924C122.238,138.85,124.242,136.627,126.245,135.515C128.249,134.403,130.253,134.401,132.257,133.023C134.261,131.645,136.265,128.89,138.269,126.861C140.273,124.832,142.277,123.528,144.281,122.906C146.284,122.284,148.288,122.343,150.292,122.461C152.296,122.579,154.3,122.756,156.304,122.267C158.308,121.779,160.312,120.624,162.316,120.327C164.319,120.031,166.323,120.593,168.327,120.727C170.331,120.86,172.335,120.564,174.339,120.253C176.343,119.942,178.347,119.616,180.351,119.437C182.355,119.259,184.359,119.23,186.362,119.704C188.366,120.178,190.37,121.156,192.374,119.808C194.378,118.46,196.382,114.787,198.386,113.69C200.39,112.594,202.394,114.075,204.398,114.578C206.401,115.081,208.405,114.607,210.409,114.86C212.413,115.112,214.417,116.09,216.421,116.624C218.425,117.157,220.429,117.245,222.433,116.889C224.437,116.533,226.44,115.733,228.444,114.667C230.448,113.601,232.452,112.268,234.456,112.461C236.46,112.654,238.464,114.373,240.468,115.128C242.472,115.883,244.476,115.675,246.479,115.497C248.483,115.319,250.487,115.17,252.491,114.756C254.495,114.341,256.499,113.659,258.503,114.03C260.507,114.401,262.511,115.824,264.515,115.29C266.518,114.757,268.522,112.267,270.526,112.045C272.53,111.823,274.534,113.868,276.538,113.513C278.542,113.158,280.546,110.402,282.55,109.187C284.554,107.972,286.557,108.297,288.561,108.889C290.565,109.481,292.569,110.341,294.573,111.244C296.577,112.148,298.581,113.096,300.585,113.304C302.589,113.511,304.593,112.978,306.596,111.452C308.6,109.927,310.604,107.409,312.608,106.298C314.612,105.187,316.616,105.482,318.62,105.971C320.624,106.46,322.628,107.142,324.632,107.276C326.635,107.409,328.639,106.993,330.643,106.163C332.647,105.333,334.651,104.089,336.655,103.393C338.659,102.696,340.663,102.548,342.667,102.578C344.671,102.608,346.674,102.816,348.678,102.89C350.682,102.964,352.686,102.904,354.69,102.534C356.694,102.163,358.698,101.481,360.702,101.246C362.706,101.01,364.71,101.219,366.713,100.954C368.717,100.69,370.721,99.95,372.725,100.054C374.729,100.157,376.733,101.103,378.737,101.605C380.741,102.107,382.745,102.166,384.749,101.736C386.752,101.305,388.756,100.386,390.76,100.149C392.764,99.912,394.768,100.357,396.772,100.669C398.776,100.98,400.78,101.158,402.784,101.217C404.787,101.276,406.791,101.217,408.795,100.773C410.799,100.328,412.803,99.499,414.807,99.261C416.811,99.024,418.815,99.38,420.819,99.025C422.823,98.67,424.826,97.604,426.83,97.827C428.834,98.051,430.838,99.564,432.842,99.519C434.846,99.474,436.85,97.87,438.854,97.187C440.858,96.504,442.862,96.742,444.865,96.624C446.869,96.505,448.873,96.03,450.877,96.623C452.881,97.216,454.885,98.876,456.889,98.801C458.893,98.727,460.897,96.919,462.901,96.312C464.904,95.704,466.908,96.298,468.912,97.705C470.916,99.113,472.92,101.334,474.924,101.541C476.928,101.748,478.932,99.941,480.936,99.023C482.94,98.104,484.944,98.076,486.947,97.75C488.951,97.424,490.955,96.801,492.959,96.387C494.963,95.973,496.967,95.767,498.971,95.812C500.975,95.856,502.979,96.15,504.983,96.268C506.986,96.385,508.99,96.326,510.994,96.046C512.998,95.765,515.002,95.264,517.006,95.442C519.01,95.621,521.014,96.479,523.018,96.271C525.022,96.062,527.025,94.787,529.029,94.312C531.033,93.837,533.037,94.163,535.041,94.268C537.045,94.373,539.049,94.258,541.053,94.837C543.057,95.416,545.06,96.689,547.064,96.495C549.068,96.301,551.072,94.639,553.076,93.364C555.08,92.089,557.084,91.2,559.088,90.548C561.092,89.896,563.096,89.481,565.099,89.467C567.103,89.453,569.107,89.84,571.111,89.752C573.115,89.664,575.119,89.102,577.123,88.376C579.127,87.65,581.131,86.759,583.135,87.01C585.139,87.261,587.142,88.654,589.146,88.758L589.146,62.487C587.142,61.953,585.139,60.976,583.135,60.917C581.131,60.858,579.127,61.718,577.123,63.051C575.119,64.385,573.115,66.193,571.111,66.637C569.107,67.081,567.103,66.161,565.099,66.205C563.096,66.249,561.092,67.256,559.088,68.011C557.084,68.766,555.08,69.27,553.076,69.315C551.072,69.36,549.068,68.947,547.064,69.14C545.06,69.333,543.057,70.132,541.053,70.206C539.049,70.279,537.045,69.627,535.041,68.694C533.037,67.761,531.033,66.546,529.029,67.198C527.025,67.85,525.022,70.368,523.018,70.946C521.014,71.524,519.01,70.162,517.006,69.955C515.002,69.747,512.998,70.695,510.994,71.124C508.99,71.553,506.986,71.463,504.983,71.226C502.979,70.988,500.975,70.603,498.971,70.426C496.967,70.249,494.963,70.28,492.959,70.296C490.955,70.311,488.951,70.311,486.947,69.733C484.944,69.155,482.94,67.999,480.936,68.369C478.932,68.739,476.928,70.635,474.924,71.213C472.92,71.79,470.916,71.05,468.912,71.035C466.908,71.02,464.904,71.731,462.901,72.398C460.897,73.065,458.893,73.688,456.889,73.585C454.885,73.481,452.881,72.652,450.877,72.163C448.873,71.673,446.869,71.524,444.865,71.554C442.862,71.584,440.858,71.792,438.854,72C436.85,72.207,434.846,72.415,432.842,72.741C430.838,73.067,428.834,73.511,426.83,73.747C424.826,73.983,422.823,74.01,420.819,73.521C418.815,73.032,416.811,72.026,414.807,72.56C412.803,73.094,410.799,75.168,408.795,76.472C406.791,77.776,404.787,78.31,402.784,77.792C400.78,77.273,398.776,75.702,396.772,74.841C394.768,73.979,392.764,73.827,390.76,73.931C388.756,74.036,386.752,74.396,384.749,75.138C382.745,75.88,380.741,77.004,378.737,77.079C376.733,77.153,374.729,76.176,372.725,76.132C370.721,76.088,368.717,76.976,366.713,76.872C364.71,76.768,362.706,75.672,360.702,75.657C358.698,75.643,356.694,76.71,354.69,77.318C352.686,77.925,350.682,78.073,348.678,78.072C346.674,78.071,344.671,77.922,342.667,78.054C340.663,78.187,338.659,78.6,336.655,79.267C334.651,79.935,332.647,80.856,330.643,82.31C328.639,83.763,326.635,85.748,324.632,86.118C322.628,86.488,320.624,85.243,318.62,85.33C316.616,85.418,314.612,86.838,312.608,87.786C310.604,88.735,308.6,89.212,306.596,90.013C304.593,90.815,302.589,91.941,300.585,92.621C298.581,93.301,296.577,93.536,294.573,94.203C292.569,94.87,290.565,95.968,288.561,96.295C286.557,96.622,284.554,96.178,282.55,95.718C280.546,95.258,278.542,94.782,276.538,94.114C274.534,93.447,272.53,92.587,270.526,94.217C268.522,95.847,266.518,99.968,264.515,100.191C262.511,100.413,260.507,96.738,258.503,95.374C256.499,94.011,254.495,94.96,252.491,95.894C250.487,96.827,248.483,97.746,246.479,97.893C244.476,98.041,242.472,97.417,240.468,97.21C238.464,97.003,236.46,97.213,234.456,97.213C232.452,97.213,230.448,97.004,228.444,97.582C226.44,98.16,224.437,99.524,222.433,99.94C220.429,100.355,218.425,99.821,216.421,100.265C214.417,100.71,212.413,102.133,210.409,103.392C208.405,104.652,206.401,105.748,204.398,105.451C202.394,105.155,200.39,103.465,198.386,104.147C196.382,104.828,194.378,107.881,192.374,109.229C190.37,110.578,188.366,110.222,186.362,110.059C184.359,109.896,182.355,109.926,180.351,109.778C178.347,109.63,176.343,109.304,174.339,109.793C172.335,110.281,170.331,111.585,168.327,112.014C166.323,112.444,164.319,111.999,162.316,112.309C160.312,112.62,158.308,113.687,156.304,114.072C154.3,114.458,152.296,114.162,150.292,113.896C148.288,113.63,146.284,113.393,144.281,114.252C142.277,115.111,140.273,117.067,138.269,118.326C136.265,119.584,134.261,120.147,132.257,120.102C130.253,120.057,128.249,119.405,126.245,118.991C124.242,118.576,122.238,118.399,120.234,119.466C118.23,120.533,116.226,122.844,114.222,124.267C112.218,125.689,110.214,126.222,108.21,126.281C106.206,126.339,104.203,125.923,102.199,126.397C100.195,126.87,98.191,128.234,96.187,129.538C94.183,130.841,92.179,132.085,90.175,133.063C88.171,134.041,86.167,134.754,84.164,136.044C82.16,137.333,80.156,139.2,78.152,142.029C76.148,144.857,74.144,148.647,72.14,151.21C70.136,153.772,68.132,155.106,66.128,158.751C64.125,162.396,62.121,168.351,60.117,174.5C58.113,180.648,56.109,186.99,54.105,193.642C52.101,200.294,50.097,207.257,48.093,213.139C46.089,219.02,44.086,223.82,42.082,231.434C40.078,239.048,38.074,249.476,36.07,258.261C34.066,267.046,32.062,274.187,30.058,279.387C28.054,284.587,26.05,287.846,24.047,298.735C22.043,309.624,20.039,328.144,18.035,335.953C16.031,343.761,14.027,340.859,12.023,346.903Z" fill="#FF4B33" opacity="0.3"/></g></g><path class="foreground" aria-hidden="true" d="" display="none"/></g><g transform="translate(0,0)"><path class="background" aria-hidden="true" d="M0,0h600v400h-600Z"/><g><g class="mark-area role-mark layer_0_layer_0_marks" clip-path="url(#clip3)" role="graphics-object" aria-roledescription="area mark container"><path aria-label="Timestep: 200.38k; Success rate: 0.075595; upper_Success rate: 0.124005; Width: 1024; Ci1 of Success rate: 0.124005; Ci0 of Success rate: 0.075595; Mean of Success rate: 0.1004" role="graphics-symbol" aria-roledescription="errorband" d="M12.023,371.026C14.027,357.04,16.031,341.987,18.035,331.306C20.039,320.625,22.043,314.317,24.047,306.732C26.05,299.147,28.054,290.284,30.058,280.817C32.062,271.35,34.066,261.277,36.07,257.056C38.074,252.836,40.078,254.467,42.082,255.873C44.086,257.28,46.089,258.462,48.093,256.123C50.097,253.783,52.101,247.921,54.105,242.337C56.109,236.753,58.113,231.445,60.117,229.459C62.121,227.473,64.125,228.807,66.128,230.467C68.132,232.127,70.136,234.111,72.14,232.806C74.144,231.501,76.148,226.906,78.152,222.106C80.156,217.306,82.16,212.301,84.164,210.153C86.167,208.006,88.171,208.716,90.175,207.59C92.179,206.463,94.183,203.499,96.187,201.143C98.191,198.787,100.195,197.039,102.199,196.241C104.203,195.443,106.206,195.595,108.21,193.514C110.214,191.433,112.218,187.119,114.222,185.191C116.226,183.263,118.23,183.721,120.234,182.38C122.238,181.039,124.242,177.897,126.245,174.386C128.249,170.875,130.253,166.994,132.257,164.79C134.261,162.587,136.265,162.06,138.269,159.187C140.273,156.315,142.277,151.096,144.281,146.117C146.284,141.139,148.288,136.399,150.292,135.48C152.296,134.56,154.3,137.46,156.304,136.347C158.308,135.233,160.312,130.107,162.316,126.641C164.319,123.175,166.323,121.37,168.327,117.784C170.331,114.199,172.335,108.834,174.339,105.025C176.343,101.216,178.347,98.964,180.351,98.164C182.355,97.364,184.359,98.016,186.362,98.816C188.366,99.616,190.37,100.564,192.374,101.216C194.378,101.868,196.382,102.225,198.386,100.997C200.39,99.77,202.394,96.957,204.398,95.831C206.401,94.704,208.405,95.264,210.409,95.618C212.413,95.972,214.417,96.119,216.421,94.342C218.425,92.564,220.429,88.862,222.433,87.545C224.437,86.227,226.44,87.295,228.444,86.257C230.448,85.22,232.452,82.078,234.456,81.129C236.46,80.18,238.464,81.424,240.468,81.885C242.472,82.345,244.476,82.021,246.479,81.325C248.483,80.629,250.487,79.56,252.491,78.76C254.495,77.959,256.499,77.427,258.503,77.516C260.507,77.605,262.511,78.315,264.515,78.611C266.518,78.907,268.522,78.789,270.526,78.033C272.53,77.277,274.534,75.883,276.538,73.483C278.542,71.083,280.546,67.677,282.55,66.077C284.554,64.478,286.557,64.684,288.561,63.987C290.565,63.29,292.569,61.69,294.573,62.016C296.577,62.341,298.581,64.594,300.585,65.157C302.589,65.72,304.593,64.593,306.596,64.489C308.6,64.385,310.604,65.304,312.608,65.644C314.612,65.985,316.616,65.748,318.62,65.645C320.624,65.541,322.628,65.572,324.632,67.203C326.635,68.835,328.639,72.067,330.643,72.764C332.647,73.461,334.651,71.623,336.655,70.91C338.659,70.197,340.663,70.61,342.667,69.275C344.671,67.941,346.674,64.859,348.678,63.511C350.682,62.164,352.686,62.55,354.69,62.713C356.694,62.876,358.698,62.817,360.702,62.594C362.706,62.372,364.71,61.986,366.713,61.808C368.717,61.63,370.721,61.659,372.725,61.882C374.729,62.104,376.733,62.52,378.737,62.431C380.741,62.342,382.745,61.749,384.749,62.03C386.752,62.311,388.756,63.467,390.76,63.304C392.764,63.141,394.768,61.659,396.772,61.274C398.776,60.89,400.78,61.601,402.784,62.698C404.787,63.795,406.791,65.276,408.795,65.646C410.799,66.016,412.803,65.275,414.807,65.215C416.811,65.156,418.815,65.778,420.819,65.749C422.823,65.72,424.826,65.04,426.83,64.33C428.834,63.619,430.838,62.879,432.842,63.026C434.846,63.173,436.85,64.209,438.854,64.283C440.858,64.356,442.862,63.468,444.865,63.143C446.869,62.817,448.873,63.054,450.877,63.765C452.881,64.476,454.885,65.661,456.889,65.365C458.893,65.068,460.897,63.29,462.901,61.911C464.904,60.533,466.908,59.556,468.912,59.304C470.916,59.053,472.92,59.527,474.924,60.046C476.928,60.564,478.932,61.127,480.936,61.586C482.94,62.045,484.944,62.401,486.947,62.891C488.951,63.38,490.955,64.002,492.959,64.076C494.963,64.15,496.967,63.675,498.971,63.082C500.975,62.489,502.979,61.778,504.983,61.763C506.986,61.748,508.99,62.43,510.994,62.889C512.998,63.348,515.002,63.585,517.006,63.156C519.01,62.727,521.014,61.631,523.018,61.394C525.022,61.157,527.025,61.779,529.029,61.704C531.033,61.63,533.037,60.861,535.041,60.757C537.045,60.654,539.049,61.217,541.053,61.335C543.057,61.453,545.06,61.127,547.064,61.467C549.068,61.808,551.072,62.816,553.076,63.246C555.08,63.676,557.084,63.527,559.088,63.497C561.092,63.467,563.096,63.557,565.099,63.631C567.103,63.706,569.107,63.765,571.111,63.602C573.115,63.439,575.119,63.053,577.123,63.482C579.127,63.911,581.131,65.156,583.135,65.334C585.139,65.513,587.142,64.625,589.146,64.033L589.146,48.531C587.142,48.769,585.139,48.829,583.135,49.081C581.131,49.333,579.127,49.776,577.123,50.324C575.119,50.872,573.115,51.524,571.111,51.168C569.107,50.813,567.103,49.45,565.099,48.902C563.096,48.354,561.092,48.621,559.088,48.873C557.084,49.124,555.08,49.36,553.076,48.916C551.072,48.471,549.068,47.347,547.064,47.525C545.06,47.703,543.057,49.184,541.053,49.687C539.049,50.19,537.045,49.716,535.041,49.183C533.037,48.65,531.033,48.057,529.029,47.835C527.025,47.613,525.022,47.761,523.018,47.806C521.014,47.85,519.01,47.792,517.006,47.377C515.002,46.962,512.998,46.191,510.994,46.28C508.99,46.368,506.986,47.316,504.983,47.761C502.979,48.205,500.975,48.146,498.971,48.724C496.967,49.302,494.963,50.518,492.959,50.933C490.955,51.348,488.951,50.963,486.947,50.77C484.944,50.576,482.94,50.575,480.936,49.997C478.932,49.419,476.928,48.265,474.924,47.495C472.92,46.725,470.916,46.339,468.912,46.131C466.908,45.924,464.904,45.894,462.901,47.064C460.897,48.235,458.893,50.605,456.889,51.494C454.885,52.383,452.881,51.79,450.877,50.413C448.873,49.035,446.869,46.872,444.865,46.739C442.862,46.605,440.858,48.501,438.854,48.724C436.85,48.946,434.846,47.494,432.842,46.961C430.838,46.427,428.834,46.813,426.83,47.301C424.826,47.79,422.823,48.383,420.819,48.265C418.815,48.147,416.811,47.318,414.807,47.333C412.803,47.348,410.799,48.207,408.795,48.548C406.791,48.889,404.787,48.711,402.784,48.207C400.78,47.704,398.776,46.874,396.772,46.651C394.768,46.428,392.764,46.812,390.76,47.123C388.756,47.433,386.752,47.671,384.749,47.909C382.745,48.146,380.741,48.383,378.737,48.664C376.733,48.946,374.729,49.272,372.725,49.524C370.721,49.776,368.717,49.953,366.713,50.161C364.71,50.368,362.706,50.605,360.702,50.502C358.698,50.399,356.694,49.955,354.69,49.627C352.686,49.299,350.682,49.087,348.678,48.332C346.674,47.576,344.671,46.277,342.667,45.893C340.663,45.51,338.659,46.041,336.655,46.367C334.651,46.693,332.647,46.813,330.643,46.829C328.639,46.844,326.635,46.756,324.632,47.437C322.628,48.119,320.624,49.57,318.62,49.821C316.616,50.073,314.612,49.123,312.608,48.93C310.604,48.737,308.6,49.301,306.596,50.309C304.593,51.317,302.589,52.77,300.585,53.066C298.581,53.361,296.577,52.501,294.573,52.515C292.569,52.529,290.565,53.418,288.561,53.181C286.557,52.945,284.554,51.584,282.55,51.273C280.546,50.962,278.542,51.702,276.538,51.954C274.534,52.206,272.53,51.97,270.526,52.236C268.522,52.503,266.518,53.273,264.515,53.45C262.511,53.627,260.507,53.213,258.503,53.153C256.499,53.094,254.495,53.39,252.491,53.613C250.487,53.836,248.483,53.984,246.479,54.696C244.476,55.407,242.472,56.68,240.468,57.464C238.464,58.249,236.46,58.544,234.456,59.286C232.452,60.027,230.448,61.213,228.444,61.051C226.44,60.888,224.437,59.376,222.433,59.287C220.429,59.198,218.425,60.531,216.421,61.405C214.417,62.279,212.413,62.693,210.409,62.752C208.405,62.812,206.401,62.517,204.398,64.207C202.394,65.896,200.39,69.57,198.386,71.14C196.382,72.71,194.378,72.176,192.374,70.887C190.37,69.597,188.366,67.552,186.362,67.152C184.359,66.752,182.355,67.997,180.351,68.812C178.347,69.627,176.343,70.013,174.339,71.879C172.335,73.746,170.331,77.094,168.327,78.561C166.323,80.027,164.319,79.613,162.316,81.168C160.312,82.724,158.308,86.25,156.304,87.952C154.3,89.655,152.296,89.534,150.292,90.112C148.288,90.69,146.284,91.966,144.281,92.456C142.277,92.946,140.273,92.65,138.269,93.093C136.265,93.536,134.261,94.719,132.257,95.163C130.253,95.607,128.249,95.313,126.245,96.262C124.242,97.211,122.238,99.404,120.234,100.65C118.23,101.895,116.226,102.192,114.222,103.689C112.218,105.185,110.214,107.881,108.21,108.933C106.206,109.984,104.203,109.391,102.199,109.658C100.195,109.924,98.191,111.051,96.187,111.629C94.183,112.207,92.179,112.236,90.175,114.028C88.171,115.821,86.167,119.377,84.164,122.192C82.16,125.007,80.156,127.081,78.152,128.992C76.148,130.903,74.144,132.65,72.14,132.621C70.136,132.591,68.132,130.784,66.128,132.681C64.125,134.577,62.121,140.176,60.117,146.487C58.113,152.798,56.109,159.82,54.105,165.108C52.101,170.396,50.097,173.949,48.093,178.319C46.089,182.69,44.086,187.877,42.082,193.195C40.078,198.513,38.074,203.961,36.07,210.894C34.066,217.827,32.062,226.244,30.058,235.46C28.054,244.676,26.05,254.69,24.047,263.98C22.043,273.269,20.039,281.833,18.035,295.123C16.031,308.413,14.027,326.429,12.023,342.918Z" fill="#E0392D" opacity="0.3"/></g></g><path class="foreground" aria-hidden="true" d="" display="none"/></g><g transform="translate(0,0)"><path class="background" aria-hidden="true" d="M0,0h600v400h-600Z"/><g><g class="mark-area role-mark layer_0_layer_0_marks" clip-path="url(#clip4)" role="graphics-object" aria-roledescription="area mark container"><path aria-label="Timestep: 200.38k; Success rate: 0.1016; upper_Success rate: 0.180615; Width: 2048; Ci1 of Success rate: 0.180615; Ci0 of Success rate: 0.1016; Mean of Success rate: 0.1416" role="graphics-symbol" aria-roledescription="errorband" d="M12.023,352.919C14.027,340.267,16.031,331.824,18.035,319.187C20.039,306.55,22.043,289.721,24.047,275.054C26.05,260.387,28.054,247.882,30.058,238.431C32.062,228.98,34.066,222.582,36.07,217.338C38.074,212.094,40.078,208.004,42.082,201.766C44.086,195.527,46.089,187.141,48.093,182.312C50.097,177.483,52.101,176.21,54.105,172.33C56.109,168.45,58.113,161.963,60.117,157.444C62.121,152.924,64.125,150.373,66.128,146.135C68.132,141.897,70.136,135.972,72.14,132.994C74.144,130.016,76.148,129.986,78.152,129.29C80.156,128.593,82.16,127.231,84.164,125.75C86.167,124.268,88.171,122.667,90.175,122.415C92.179,122.163,94.183,123.259,96.187,123.259C98.191,123.259,100.195,122.163,102.199,122.43C104.203,122.697,106.206,124.327,108.21,122.831C110.214,121.336,112.218,116.713,114.222,115.024C116.226,113.336,118.23,114.58,120.234,113.44C122.238,112.299,124.242,108.774,126.245,107.263C128.249,105.752,130.253,106.255,132.257,105.099C134.261,103.943,136.265,101.128,138.269,99.766C140.273,98.403,142.277,98.493,144.281,97.13C146.284,95.767,148.288,92.951,150.292,90.699C152.296,88.446,154.3,86.756,156.304,85.187C158.308,83.618,160.312,82.169,162.316,80.436C164.319,78.702,166.323,76.684,168.327,74.239C170.331,71.793,172.335,68.919,174.339,68.163C176.343,67.407,178.347,68.77,180.351,68.637C182.355,68.504,184.359,66.874,186.362,65.733C188.366,64.593,190.37,63.941,192.374,63.585C194.378,63.23,196.382,63.17,198.386,62.119C200.39,61.067,202.394,59.022,204.398,59.467C206.401,59.912,208.405,62.846,210.409,63.528C212.413,64.21,214.417,62.639,216.421,61.143C218.425,59.647,220.429,58.224,222.433,57.693C224.437,57.161,226.44,57.519,228.444,57.756C230.448,57.993,232.452,58.109,234.456,58.418C236.46,58.727,238.464,59.23,240.468,59.512C242.472,59.793,244.476,59.853,246.479,58.965C248.483,58.076,250.487,56.239,252.491,56.21C254.495,56.18,256.499,57.958,258.503,58.817C260.507,59.676,262.511,59.616,264.515,58.979C266.518,58.341,268.522,57.127,270.526,55.972C272.53,54.817,274.534,53.721,276.538,53.054C278.542,52.387,280.546,52.15,282.55,52.046C284.554,51.942,286.557,51.971,288.561,52.208C290.565,52.445,292.569,52.89,294.573,53.601C296.577,54.313,298.581,55.29,300.585,55.408C302.589,55.526,304.593,54.785,306.596,54.548C308.6,54.311,310.604,54.578,312.608,54.46C314.612,54.341,316.616,53.839,318.62,53.602C320.624,53.365,322.628,53.395,324.632,53.321C326.635,53.247,328.639,53.07,330.643,53.781C332.647,54.492,334.651,56.09,336.655,56.431C338.659,56.771,340.663,55.853,342.667,55.898C344.671,55.943,346.674,56.95,348.678,58.847C350.682,60.743,352.686,63.528,354.69,63.869C356.694,64.209,358.698,62.104,360.702,59.808C362.706,57.511,364.71,55.022,366.713,53.778C368.717,52.533,370.721,52.533,372.725,52.92C374.729,53.306,376.733,54.079,378.737,54.879C380.741,55.679,382.745,56.506,384.749,58.431C386.752,60.356,388.756,63.379,390.76,62.787C392.764,62.195,394.768,57.987,396.772,56.269C398.776,54.55,400.78,55.321,402.784,54.609C404.787,53.898,406.791,51.704,408.795,51.245C410.799,50.786,412.803,52.061,414.807,52.165C416.811,52.269,418.815,51.202,420.819,50.091C422.823,48.98,424.826,47.824,426.83,47.321C428.834,46.817,430.838,46.965,432.842,46.269C434.846,45.573,436.85,44.032,438.854,44.239C440.858,44.447,442.862,46.402,444.865,47.5C446.869,48.598,448.873,48.838,450.877,48.719C452.881,48.601,454.885,48.124,456.889,48.581C458.893,49.039,460.897,50.43,462.901,50.328C464.904,50.225,466.908,48.628,468.912,47.473C470.916,46.318,472.92,45.604,474.924,45.233C476.928,44.861,478.932,44.83,480.936,45.319C482.94,45.807,484.944,46.815,486.947,47.6C488.951,48.386,490.955,48.95,492.959,48.758C494.963,48.566,496.967,47.619,498.971,46.774C500.975,45.93,502.979,45.188,504.983,44.819C506.986,44.45,508.99,44.453,510.994,44.216C512.998,43.979,515.002,43.503,517.006,43.086C519.01,42.67,521.014,42.313,523.018,42.46C525.022,42.608,527.025,43.261,529.029,44.832C531.033,46.403,533.037,48.893,535.041,51.1C537.045,53.307,539.049,55.231,541.053,55.601C543.057,55.972,545.06,54.788,547.064,53.722C549.068,52.656,551.072,51.708,553.076,50.76C555.08,49.811,557.084,48.862,559.088,48.284C561.092,47.706,563.096,47.499,565.099,46.877C567.103,46.255,569.107,45.219,571.111,45.677C573.115,46.136,575.119,48.09,577.123,49.379C579.127,50.667,581.131,51.289,583.135,51.556C585.139,51.824,587.142,51.736,589.146,51.218L589.146,29.909C587.142,30.339,585.139,30.635,583.135,30.087C581.131,29.539,579.127,28.147,577.123,26.799C575.119,25.45,573.115,24.144,571.111,24.084C569.107,24.025,567.103,25.213,565.099,25.984C563.096,26.755,561.092,27.11,559.088,27.436C557.084,27.761,555.08,28.059,553.076,28.814C551.072,29.57,549.068,30.784,547.064,30.709C545.06,30.634,543.057,29.27,541.053,29.33C539.049,29.39,537.045,30.873,535.041,30.784C533.037,30.696,531.033,29.036,529.029,27.509C527.025,25.983,525.022,24.59,523.018,24.369C521.014,24.147,519.01,25.096,517.006,25.407C515.002,25.719,512.998,25.393,510.994,25.407C508.99,25.422,506.986,25.778,504.983,27.081C502.979,28.385,500.975,30.637,498.971,31.747C496.967,32.858,494.963,32.827,492.959,33.019C490.955,33.211,488.951,33.627,486.947,32.471C484.944,31.316,482.94,28.59,480.936,27.376C478.932,26.161,476.928,26.459,474.924,27.392C472.92,28.325,470.916,29.895,468.912,30.62C466.908,31.346,464.904,31.227,462.901,31.198C460.897,31.169,458.893,31.229,456.889,31.14C454.885,31.052,452.881,30.815,450.877,31.2C448.873,31.584,446.869,32.591,444.865,32.25C442.862,31.909,440.858,30.22,438.854,29.361C436.85,28.501,434.846,28.472,432.842,28.739C430.838,29.005,428.834,29.568,426.83,30.279C424.826,30.989,422.823,31.847,420.819,33.284C418.815,34.721,416.811,36.739,414.807,36.591C412.803,36.444,410.799,34.132,408.795,33.199C406.791,32.265,404.787,32.71,402.784,32.637C400.78,32.563,398.776,31.97,396.772,32.488C394.768,33.006,392.764,34.634,390.76,35.269C388.756,35.904,386.752,35.545,384.749,35.337C382.745,35.13,380.741,35.073,378.737,35.149C376.733,35.224,374.729,35.433,372.725,35.893C370.721,36.353,368.717,37.064,366.713,37.643C364.71,38.221,362.706,38.666,360.702,39.17C358.698,39.674,356.694,40.237,354.69,40.444C352.686,40.652,350.682,40.504,348.678,39.57C346.674,38.636,344.671,36.917,342.667,36.161C340.663,35.406,338.659,35.614,336.655,35.096C334.651,34.577,332.647,33.332,330.643,32.606C328.639,31.879,326.635,31.672,324.632,31.687C322.628,31.702,320.624,31.94,318.62,31.599C316.616,31.259,314.612,30.339,312.608,29.999C310.604,29.658,308.6,29.896,306.596,31.184C304.593,32.473,302.589,34.813,300.585,35.599C298.581,36.384,296.577,35.614,294.573,35.422C292.569,35.23,290.565,35.615,288.561,35.703C286.557,35.792,284.554,35.584,282.55,35.079C280.546,34.575,278.542,33.774,276.538,34.219C274.534,34.663,272.53,36.353,270.526,37.419C268.522,38.484,266.518,38.927,264.515,40.157C262.511,41.387,260.507,43.404,258.503,42.843C256.499,42.281,254.495,39.139,252.491,38.294C250.487,37.45,248.483,38.901,246.479,39.701C244.476,40.501,242.472,40.65,240.468,40.22C238.464,39.791,236.46,38.784,234.456,38.637C232.452,38.489,230.448,39.2,228.444,39.763C226.44,40.326,224.437,40.741,222.433,41.081C220.429,41.422,218.425,41.689,216.421,42.903C214.417,44.118,212.413,46.28,210.409,46.132C208.405,45.984,206.401,43.525,204.398,43.407C202.394,43.289,200.39,45.511,198.386,46.044C196.382,46.576,194.378,45.419,192.374,45.819C190.37,46.219,188.366,48.176,186.362,49.496C184.359,50.815,182.355,51.496,180.351,51.096C178.347,50.695,176.343,49.212,174.339,49.211C172.335,49.211,170.331,50.693,168.327,52.768C166.323,54.842,164.319,57.509,162.316,59.139C160.312,60.769,158.308,61.362,156.304,62.088C154.3,62.814,152.296,63.673,150.292,65.243C148.288,66.813,146.284,69.096,144.281,70.28C142.277,71.465,140.273,71.553,138.269,73.597C136.265,75.641,134.261,79.643,132.257,80.873C130.253,82.103,128.249,80.561,126.245,81.494C124.242,82.426,122.238,85.832,120.234,87.566C118.23,89.299,116.226,89.361,114.222,90.902C112.218,92.443,110.214,95.464,108.21,98.871C106.206,102.278,104.203,106.071,102.199,108.175C100.195,110.279,98.191,110.694,96.187,111.124C94.183,111.553,92.179,111.998,90.175,113.094C88.171,114.19,86.167,115.939,84.164,116.708C82.16,117.478,80.156,117.269,78.152,117.15C76.148,117.032,74.144,117.004,72.14,118.441C70.136,119.878,68.132,122.78,66.128,124.735C64.125,126.69,62.121,127.699,60.117,129.507C58.113,131.316,56.109,133.924,54.105,135.703C52.101,137.481,50.097,138.428,48.093,143.064C46.089,147.7,44.086,156.024,42.082,162.958C40.078,169.891,38.074,175.433,36.07,182.708C34.066,189.983,32.062,198.99,30.058,209.094C28.054,219.198,26.05,230.398,24.047,241.376C22.043,252.354,20.039,263.11,18.035,276.385C16.031,289.659,14.027,305.452,12.023,320.503Z" fill="#B22B24" opacity="0.3"/></g></g><path class="foreground" aria-hidden="true" d="" display="none"/></g><g transform="translate(0,0)"><path class="background" aria-hidden="true" d="M0,0h600v400h-600Z"/><g><g class="mark-area role-mark layer_0_layer_0_marks" clip-path="url(#clip5)" role="graphics-object" aria-roledescription="area mark container"><path aria-label="Timestep: 200.38k; Success rate: 0.120661111111; upper_Success rate: 0.172; Width: 4096; Ci1 of Success rate: 0.172; Ci0 of Success rate: 0.120661111111; Mean of Success rate: 0.147555555556" role="graphics-symbol" aria-roledescription="errorband" d="M12.023,341.137C14.027,325.301,16.031,310.553,18.035,291.723C20.039,272.893,22.043,249.981,24.047,233.948C26.05,217.915,28.054,208.761,30.058,200.514C32.062,192.266,34.066,184.924,36.07,180.513C38.074,176.102,40.078,174.621,42.082,173.552C44.086,172.482,46.089,171.824,48.093,171.247C50.097,170.671,52.101,170.176,54.105,167.953C56.109,165.73,58.113,161.779,60.117,157.712C62.121,153.646,64.125,149.465,66.128,145.531C68.132,141.597,70.136,137.909,72.14,136.527C74.144,135.144,76.148,136.066,78.152,134.388C80.156,132.709,82.16,128.431,84.164,126.44C86.167,124.449,88.171,124.744,90.175,124.776C92.179,124.808,94.183,124.577,96.187,124.577C98.191,124.576,100.195,124.807,102.199,124.148C104.203,123.49,106.206,121.942,108.21,121.383C110.214,120.824,112.218,121.253,114.222,120.463C116.226,119.674,118.23,117.667,120.234,115.05C122.238,112.433,124.242,109.207,126.245,107.1C128.249,104.993,130.253,104.005,132.257,103.462C134.261,102.919,136.265,102.82,138.269,102.227C140.273,101.634,142.277,100.547,144.281,100.398C146.284,100.249,148.288,101.038,150.292,98.865C152.296,96.693,154.3,91.559,156.304,87.807C158.308,84.054,160.312,81.684,162.316,80.696C164.319,79.708,166.323,80.102,168.327,78.538C170.331,76.974,172.335,73.451,174.339,71.344C176.343,69.238,178.347,68.547,180.351,67.659C182.355,66.77,184.359,65.684,186.362,64.268C188.366,62.853,190.37,61.108,192.374,60.761C194.378,60.415,196.382,61.467,198.386,61.087C200.39,60.708,202.394,58.897,204.398,58.716C206.401,58.536,208.405,59.985,210.409,60.726C212.413,61.467,214.417,61.5,216.421,61.007C218.425,60.514,220.429,59.494,222.433,57.963C224.437,56.432,226.44,54.39,228.444,53.863C230.448,53.335,232.452,54.322,234.456,54.832C236.46,55.342,238.464,55.376,240.468,54.57C242.472,53.763,244.476,52.116,246.479,52.133C248.483,52.15,250.487,53.83,252.491,54.605C254.495,55.379,256.499,55.248,258.503,55.181C260.507,55.115,262.511,55.114,264.515,55.377C266.518,55.64,268.522,56.167,270.526,55.047C272.53,53.928,274.534,51.161,276.538,50.75C278.542,50.339,280.546,52.283,282.55,53.353C284.554,54.423,286.557,54.619,288.561,53.022C290.565,51.425,292.569,48.035,294.573,46.719C296.577,45.403,298.581,46.162,300.585,46.343C302.589,46.523,304.593,46.126,306.596,47.031C308.6,47.936,310.604,50.143,312.608,52.383C314.612,54.622,316.616,56.894,318.62,57.749C320.624,58.605,322.628,58.044,324.632,58.291C326.635,58.537,328.639,59.591,330.643,59.393C332.647,59.195,334.651,57.746,336.655,56C338.659,54.255,340.663,52.214,342.667,51.029C344.671,49.844,346.674,49.516,348.678,52.53C350.682,55.543,352.686,61.899,354.69,63.512C356.694,65.124,358.698,61.994,360.702,60.43C362.706,58.865,364.71,58.866,366.713,58.619C368.717,58.372,370.721,57.877,372.725,57.976C374.729,58.074,376.733,58.765,378.737,58.667C380.741,58.568,382.745,57.679,384.749,56.412C386.752,55.144,388.756,53.498,390.76,51.622C392.764,49.747,394.768,47.641,396.772,47.081C398.776,46.522,400.78,47.508,402.784,50.125C404.787,52.742,406.791,56.989,408.795,57.302C410.799,57.615,412.803,53.993,414.807,54.272C416.811,54.551,418.815,58.733,420.819,60.247C422.823,61.761,424.826,60.609,426.83,59.753C428.834,58.898,430.838,58.339,432.842,57.203C434.846,56.067,436.85,54.355,438.854,53.531C440.858,52.708,442.862,52.774,444.865,52.165C446.869,51.556,448.873,50.273,450.877,50.471C452.881,50.669,454.885,52.348,456.889,53.912C458.893,55.476,460.897,56.924,462.901,56.727C464.904,56.529,466.908,54.686,468.912,53.552C470.916,52.418,472.92,51.994,474.924,52.455C476.928,52.915,478.932,54.26,480.936,55.015C482.94,55.77,484.944,55.936,486.947,55.919C488.951,55.903,490.955,55.705,492.959,55.606C494.963,55.507,496.967,55.508,498.971,56.94C500.975,58.372,502.979,61.235,504.983,62.125C506.986,63.014,508.99,61.929,510.994,59.065C512.998,56.201,515.002,51.557,517.006,49.812C519.01,48.066,521.014,49.218,523.018,49.761C525.022,50.305,527.025,50.239,529.029,49.384C531.033,48.528,533.037,46.884,535.041,45.172C537.045,43.46,539.049,41.681,541.053,41.433C543.057,41.186,545.06,42.471,547.064,42.719C549.068,42.968,551.072,42.18,553.076,41.621C555.08,41.061,557.084,40.729,559.088,41.65C561.092,42.571,563.096,44.745,565.099,45.289C567.103,45.833,569.107,44.747,571.111,44.121C573.115,43.495,575.119,43.329,577.123,44.168C579.127,45.007,581.131,46.85,583.135,46.899C585.139,46.948,587.142,45.202,589.146,44.544L589.146,26.962C587.142,27.653,585.139,27.947,583.135,28.046C581.131,28.145,579.127,28.048,577.123,27.357C575.119,26.667,573.115,25.383,571.111,25.053C569.107,24.724,567.103,25.35,565.099,24.937C563.096,24.525,561.092,23.075,559.088,23.108C557.084,23.141,555.08,24.657,553.076,25.415C551.072,26.173,549.068,26.173,547.064,25.498C545.06,24.822,543.057,23.472,541.053,23.077C539.049,22.681,537.045,23.242,535.041,24.756C533.037,26.271,531.033,28.739,529.029,30.845C527.025,32.951,525.022,34.695,523.018,34.564C521.014,34.433,519.01,32.426,517.006,32.229C515.002,32.032,512.998,33.644,510.994,33.858C508.99,34.072,506.986,32.886,504.983,31.356C502.979,29.826,500.975,27.95,498.971,27.358C496.967,26.765,494.963,27.457,492.959,27.736C490.955,28.016,488.951,27.883,486.947,27.356C484.944,26.829,482.94,25.907,480.936,25.759C478.932,25.611,476.928,26.236,474.924,26.714C472.92,27.191,470.916,27.52,468.912,27.388C466.908,27.257,464.904,26.664,462.901,27.471C460.897,28.278,458.893,30.485,456.889,31.061C454.885,31.637,452.881,30.583,450.877,31.652C448.873,32.722,446.869,35.915,444.865,36.064C442.862,36.212,440.858,33.316,438.854,32.724C436.85,32.132,434.846,33.844,432.842,34.912C430.838,35.981,428.834,36.407,426.83,36.735C424.826,37.063,422.823,37.295,420.819,36.95C418.815,36.606,416.811,35.686,414.807,35.011C412.803,34.337,410.799,33.908,408.795,33.084C406.791,32.26,404.787,31.041,402.784,30.317C400.78,29.593,398.776,29.363,396.772,29.067C394.768,28.771,392.764,28.409,390.76,28.837C388.756,29.264,386.752,30.481,384.749,31.337C382.745,32.193,380.741,32.688,378.737,33.627C376.733,34.566,374.729,35.95,372.725,36.674C370.721,37.399,368.717,37.465,366.713,36.872C364.71,36.278,362.706,35.026,360.702,33.559C358.698,32.093,356.694,30.413,354.69,29.557C352.686,28.701,350.682,28.669,348.678,29.033C346.674,29.396,344.671,30.155,342.667,31.423C340.663,32.691,338.659,34.469,336.655,35.473C334.651,36.477,332.647,36.706,330.643,37.265C328.639,37.825,326.635,38.714,324.632,38.137C322.628,37.561,320.624,35.52,318.62,34.105C316.616,32.69,314.612,31.9,312.608,31.687C310.604,31.473,308.6,31.835,306.596,31.852C304.593,31.868,302.589,31.539,300.585,30.716C298.581,29.892,296.577,28.574,294.573,29.019C292.569,29.463,290.565,31.67,288.561,32.756C286.557,33.842,284.554,33.807,282.55,33.083C280.546,32.359,278.542,30.945,276.538,31.225C274.534,31.505,272.53,33.478,270.526,34.696C268.522,35.914,266.518,36.375,264.515,36.293C262.511,36.211,260.507,35.584,258.503,35.107C256.499,34.63,254.495,34.301,252.491,33.627C250.487,32.952,248.483,31.932,246.479,31.817C244.476,31.702,242.472,32.493,240.468,32.756C238.464,33.02,236.46,32.756,234.456,33.035C232.452,33.314,230.448,34.137,228.444,34.187C226.44,34.236,224.437,33.512,222.433,34.467C220.429,35.422,218.425,38.057,216.421,39.505C214.417,40.952,212.413,41.213,210.409,40.604C208.405,39.994,206.401,38.514,204.398,37.791C202.394,37.068,200.39,37.102,198.386,37.678C196.382,38.253,194.378,39.371,192.374,38.828C190.37,38.284,188.366,36.079,186.362,35.734C184.359,35.388,182.355,36.903,180.351,38.366C178.347,39.83,176.343,41.242,174.339,43.25C172.335,45.258,170.331,47.863,168.327,49.395C166.323,50.928,164.319,51.39,162.316,52.839C160.312,54.288,158.308,56.724,156.304,59.605C154.3,62.485,152.296,65.809,150.292,67.949C148.288,70.089,146.284,71.044,144.281,71.67C142.277,72.295,140.273,72.589,138.269,72.177C136.265,71.765,134.261,70.645,132.257,71.5C130.253,72.356,128.249,75.185,126.245,77.935C124.242,80.684,122.238,83.353,120.234,85.609C118.23,87.866,116.226,89.709,114.222,90.91C112.218,92.11,110.214,92.667,108.21,93.375C106.206,94.083,104.203,94.942,102.199,95.551C100.195,96.161,98.191,96.523,96.187,98.021C94.183,99.519,92.179,102.155,90.175,103.554C88.171,104.954,86.167,105.118,84.164,107.206C82.16,109.295,80.156,113.308,78.152,116.222C76.148,119.136,74.144,120.951,72.14,121.463C70.136,121.975,68.132,121.185,66.128,122.798C64.125,124.411,62.121,128.426,60.117,130.78C58.113,133.133,56.109,133.825,54.105,136.327C52.101,138.83,50.097,143.143,48.093,145.481C46.089,147.818,44.086,148.179,42.082,147.751C40.078,147.322,38.074,146.103,36.07,148.194C34.066,150.285,32.062,155.686,30.058,163.949C28.054,172.212,26.05,183.338,24.047,198.037C22.043,212.737,20.039,231.009,18.035,247.833C16.031,264.656,14.027,280.03,12.023,299.817Z" fill="#7A1F18" opacity="0.3"/></g></g><path class="foreground" aria-hidden="true" d="" display="none"/></g></g><g class="mark-group role-scope layer_1_pathgroup" role="graphics-object" aria-roledescription="group mark container"><g transform="translate(0,0)"><path class="background" aria-hidden="true" d="M0,0h600v400h-600Z"/><g><g class="mark-line role-mark layer_1_marks" clip-path="url(#clip6)" role="graphics-object" aria-roledescription="line mark container"><path aria-label="Timestep: 200.38k; Success rate: 0.0554; Width: 256" role="graphics-symbol" aria-roledescription="line mark" d="M12.023,378.741C14.027,367.526,16.031,360.03,18.035,354.119C20.039,348.207,22.043,343.881,24.047,337.585C26.05,331.289,28.054,323.022,30.058,314.252C32.062,305.481,34.066,296.207,36.07,287.704C38.074,279.2,40.078,271.467,42.082,265.393C44.086,259.319,46.089,254.904,48.093,251.23C50.097,247.556,52.101,244.622,54.105,239.6C56.109,234.578,58.113,227.467,60.117,223.215C62.121,218.963,64.125,217.57,66.128,214.785C68.132,212,70.136,207.822,72.14,205.467C74.144,203.111,76.148,202.578,78.152,200.504C80.156,198.43,82.16,194.815,84.164,192.252C86.167,189.689,88.171,188.178,90.175,186.504C92.179,184.83,94.183,182.993,96.187,180.83C98.191,178.667,100.195,176.178,102.199,173.867C104.203,171.556,106.206,169.422,108.21,168.474C110.214,167.526,112.218,167.763,114.222,167.333C116.226,166.904,118.23,165.807,120.234,164.667C122.238,163.526,124.242,162.341,126.245,161.393C128.249,160.444,130.253,159.733,132.257,158.889C134.261,158.044,136.265,157.067,138.269,155.763C140.273,154.459,142.277,152.83,144.281,152.622C146.284,152.415,148.288,153.63,150.292,153.719C152.296,153.807,154.3,152.77,156.304,152.4C158.308,152.03,160.312,152.326,162.316,152C164.319,151.674,166.323,150.726,168.327,149.956C170.331,149.185,172.335,148.593,174.339,148.474C176.343,148.356,178.347,148.711,180.351,148.074C182.355,147.437,184.359,145.807,186.362,144.593C188.366,143.378,190.37,142.578,192.374,141.926C194.378,141.274,196.382,140.77,198.386,140.459C200.39,140.148,202.394,140.03,204.398,139.807C206.401,139.585,208.405,139.259,210.409,139.467C212.413,139.674,214.417,140.415,216.421,140.296C218.425,140.178,220.429,139.2,222.433,139.096C224.437,138.993,226.44,139.763,228.444,140.193C230.448,140.622,232.452,140.711,234.456,140.207C236.46,139.704,238.464,138.607,240.468,137.852C242.472,137.096,244.476,136.681,246.479,136.03C248.483,135.378,250.487,134.489,252.491,134.519C254.495,134.548,256.499,135.496,258.503,135.852C260.507,136.207,262.511,135.97,264.515,135.422C266.518,134.874,268.522,134.015,270.526,134.119C272.53,134.222,274.534,135.289,276.538,135.17C278.542,135.052,280.546,133.748,282.55,133.037C284.554,132.326,286.557,132.207,288.561,131.719C290.565,131.23,292.569,130.37,294.573,130.119C296.577,129.867,298.581,130.222,300.585,130.074C302.589,129.926,304.593,129.274,306.596,129.378C308.6,129.481,310.604,130.341,312.608,130.711C314.612,131.081,316.616,130.963,318.62,131.007C320.624,131.052,322.628,131.259,324.632,130.815C326.635,130.37,328.639,129.274,330.643,128.933C332.647,128.593,334.651,129.007,336.655,129.126C338.659,129.244,340.663,129.067,342.667,128.444C344.671,127.822,346.674,126.756,348.678,126.533C350.682,126.311,352.686,126.933,354.69,127.985C356.694,129.037,358.698,130.519,360.702,130.326C362.706,130.133,364.71,128.267,366.713,127.496C368.717,126.726,370.721,127.052,372.725,126.741C374.729,126.43,376.733,125.481,378.737,125.437C380.741,125.393,382.745,126.252,384.749,125.837C386.752,125.422,388.756,123.733,390.76,122.637C392.764,121.541,394.768,121.037,396.772,120.622C398.776,120.207,400.78,119.881,402.784,120.237C404.787,120.593,406.791,121.63,407.793,120.93C408.795,120.23,408.795,117.794,409.797,114.979C410.799,112.165,412.803,108.971,413.805,110.718C414.807,112.466,414.807,119.153,415.809,121.129C416.811,123.104,418.815,120.367,419.817,120.282C420.819,120.198,420.819,122.765,421.821,122.025C422.823,121.284,424.826,117.235,425.828,116.896C426.83,116.557,426.83,119.929,427.832,118.646C428.834,117.362,430.838,111.422,431.84,111.506C432.842,111.591,432.842,117.7,433.844,117.7C434.846,117.7,436.85,111.591,437.852,111.57C438.854,111.549,438.854,117.616,439.856,117.418C440.858,117.22,442.861,110.758,443.863,110.907C444.865,111.055,444.865,117.813,445.867,119.245C446.869,120.677,448.873,116.783,449.875,116.995C450.877,117.206,450.877,121.524,451.879,120.832C452.881,120.141,454.885,114.441,455.887,113.383C456.889,112.325,456.889,115.908,457.891,116.995C458.893,118.081,460.897,116.67,461.898,117.242C462.9,117.813,462.901,120.367,463.902,120.021C464.904,119.675,466.908,116.43,467.91,115.795C468.912,115.16,468.912,117.136,469.914,115.951C470.916,114.765,472.92,110.42,473.922,111.224C474.924,112.028,474.924,117.982,475.926,118.526C476.928,119.069,478.932,114.201,479.934,113.608C480.936,113.016,480.936,116.698,481.938,116.995C482.939,117.291,484.943,114.201,485.945,114.307C486.947,114.413,486.947,117.714,487.949,118.653C488.951,119.591,490.955,118.166,491.957,118.314C492.959,118.462,492.959,120.183,493.961,118.702C494.963,117.22,496.967,112.536,497.969,112.049C498.971,111.563,498.971,115.273,499.973,115.52C500.975,115.767,502.978,112.55,503.98,112.508C504.982,112.466,504.982,115.598,505.984,115.302C506.986,115.005,508.99,111.28,509.992,111.196C510.994,111.111,510.994,114.667,511.996,115.309C512.998,115.951,515.002,113.679,516.004,113.785C517.006,113.891,517.006,116.374,518.008,116.473C519.01,116.571,521.014,114.286,522.015,114.476C523.017,114.667,523.018,117.333,524.019,118.333C525.021,119.333,527.025,118.667,528.027,118.296C529.029,117.926,529.029,117.852,530.031,118.511C531.033,119.17,533.037,120.563,534.039,119.6C535.041,118.637,535.041,115.319,536.043,114.904C537.045,114.489,539.049,116.978,540.051,117.333C541.052,117.689,541.053,115.911,542.055,115.615C543.057,115.319,545.06,116.504,546.062,115.704C547.064,114.904,547.064,112.119,548.066,112.741C549.068,113.363,551.072,117.393,552.074,117.037C553.076,116.681,553.076,111.941,554.078,111.081C555.08,110.222,557.084,113.244,558.086,113.57C559.088,113.896,559.088,111.526,560.09,111.467C561.092,111.407,563.095,113.659,564.097,114.4C565.099,115.141,565.099,114.37,566.101,115.763C567.103,117.156,569.107,120.711,570.109,120.356C571.111,120,571.111,115.733,572.113,113.304C573.115,110.874,575.119,110.281,576.121,110.815C577.123,111.348,577.123,113.007,578.125,112.405C579.127,111.802,581.13,108.938,582.132,110.605C583.134,112.272,583.135,118.469,584.136,118.444C585.138,118.42,587.142,112.173,588.144,111.321C589.146,110.469,589.146,115.012,590.148,114.889C591.15,114.765,593.154,109.975,594.156,109.531" stroke="#FF5F33" stroke-width="2"/></g></g><path class="foreground" aria-hidden="true" d="" display="none"/></g><g transform="translate(0,0)"><path class="background" aria-hidden="true" d="M0,0h600v400h-600Z"/><g><g class="mark-line role-mark layer_1_marks" clip-path="url(#clip7)" role="graphics-object" aria-roledescription="line mark container"><path aria-label="Timestep: 200.38k; Success rate: 0.1034; Width: 512" role="graphics-symbol" aria-roledescription="line mark" d="M12.023,361.852C14.027,354.844,16.031,355.644,18.035,348.059C20.039,340.474,22.043,324.504,24.047,314.593C26.05,304.681,28.054,300.83,30.058,295.274C32.062,289.719,34.066,282.459,36.07,274.03C38.074,265.6,40.078,256,42.082,248.533C44.086,241.067,46.089,235.733,48.093,230.296C50.097,224.859,52.101,219.319,54.105,212.756C56.109,206.193,58.113,198.607,60.117,192.148C62.121,185.689,64.125,180.356,66.128,176.785C68.132,173.215,70.136,171.407,72.14,168.37C74.144,165.333,76.148,161.067,78.152,157.141C80.156,153.215,82.16,149.63,84.164,147.481C86.167,145.333,88.171,144.622,90.175,143.822C92.179,143.022,94.183,142.133,96.187,140.83C98.191,139.526,100.195,137.807,102.199,137.185C104.203,136.563,106.206,137.037,108.21,137.081C110.214,137.126,112.218,136.741,114.222,135.185C116.226,133.63,118.23,130.904,120.234,129.126C122.238,127.348,124.242,126.519,126.245,126.415C128.249,126.311,130.253,126.933,132.257,126.356C134.261,125.778,136.265,124,138.269,122.356C140.273,120.711,142.277,119.2,144.281,118.459C146.284,117.719,148.288,117.748,150.292,117.956C152.296,118.163,154.3,118.548,156.304,118.089C158.308,117.63,160.312,116.326,162.316,116.015C164.319,115.704,166.323,116.385,168.327,116.267C170.331,116.148,172.335,115.23,174.339,114.874C176.343,114.519,178.347,114.726,180.351,114.741C182.355,114.756,184.359,114.578,186.362,114.785C188.366,114.993,190.37,115.585,192.374,114.356C194.378,113.126,196.382,110.074,198.386,109.259C200.39,108.444,202.394,109.867,204.398,110.222C206.401,110.578,208.405,109.867,210.409,109.644C212.413,109.422,214.417,109.689,216.421,109.896C218.425,110.104,220.429,110.252,222.433,109.881C224.437,109.511,226.44,108.622,228.444,107.763C230.448,106.904,232.452,106.074,234.456,106.163C236.46,106.252,238.464,107.259,240.468,107.704C242.472,108.148,244.476,108.03,246.479,107.807C248.483,107.585,250.487,107.259,252.491,106.622C254.495,105.985,256.499,105.037,258.503,105.6C260.507,106.163,262.511,108.237,264.515,107.941C266.518,107.644,268.522,104.978,270.526,104.341C272.53,103.704,274.534,105.096,276.538,105.156C278.542,105.215,280.546,103.941,282.55,103.422C284.554,102.904,286.557,103.141,288.561,103.407C290.565,103.674,292.569,103.97,294.573,104.178C296.577,104.385,298.581,104.504,300.585,104.104C302.589,103.704,304.593,102.785,306.596,101.63C308.6,100.474,310.604,99.081,312.608,98C314.612,96.919,316.616,96.148,318.62,96.178C320.624,96.207,322.628,97.037,324.632,96.889C326.635,96.741,328.639,95.615,330.643,94.504C332.647,93.393,334.651,92.296,336.655,91.689C338.659,91.081,340.663,90.963,342.667,90.919C344.671,90.874,346.674,90.904,348.678,90.77C350.682,90.637,352.686,90.341,354.69,89.852C356.694,89.363,358.698,88.681,360.702,88.667C362.706,88.652,364.71,89.304,366.713,89.215C368.717,89.126,370.721,88.296,372.725,88.385C374.729,88.474,376.733,89.481,378.737,89.704C380.741,89.926,382.745,89.363,384.749,88.726C386.752,88.089,388.756,87.378,390.76,87.111C392.764,86.844,394.768,87.022,396.772,87.585C398.776,88.148,400.78,89.096,402.784,89.452C404.787,89.807,406.791,89.57,408.795,88.8C410.799,88.03,412.803,86.726,414.807,86.311C416.811,85.896,418.815,86.37,420.819,86.296C422.823,86.222,424.826,85.6,426.83,85.452C428.834,85.304,430.838,85.63,432.842,85.585C434.846,85.541,436.85,85.126,438.854,84.844C440.858,84.563,442.862,84.415,444.865,84.311C446.869,84.207,448.873,84.148,450.877,84.711C452.881,85.274,454.885,86.459,456.889,86.43C458.893,86.4,460.897,85.156,462.901,84.415C464.904,83.674,466.908,83.437,468.912,84.148C470.916,84.859,472.92,86.519,474.924,86.296C476.928,86.074,478.932,83.97,480.936,83.23C482.94,82.489,484.944,83.111,486.947,83.289C488.951,83.467,490.955,83.2,492.959,82.844C494.963,82.489,496.967,82.044,498.971,82.193C500.975,82.341,502.979,83.081,504.983,83.274C506.986,83.467,508.99,83.111,510.994,82.726C512.998,82.341,515.002,81.926,517.006,82.267C519.01,82.607,521.014,83.704,523.018,83.259C525.022,82.815,527.025,80.83,529.029,80.148C531.033,79.467,533.037,80.089,535.041,80.681C537.045,81.274,539.049,81.837,541.053,82.193C543.057,82.548,545.06,82.696,547.064,82.459C549.068,82.222,551.072,81.6,553.076,81.007C555.08,80.415,557.084,79.852,559.088,79.037C561.092,78.222,563.096,77.156,565.099,77.052C567.103,76.948,569.107,77.807,571.111,77.659C573.115,77.511,575.119,76.356,577.123,75.289C579.127,74.222,581.131,73.244,583.135,73.185C585.139,73.126,587.142,73.985,589.146,74.311" stroke="#FF4B33" stroke-width="2"/></g></g><path class="foreground" aria-hidden="true" d="" display="none"/></g><g transform="translate(0,0)"><path class="background" aria-hidden="true" d="M0,0h600v400h-600Z"/><g><g class="mark-line role-mark layer_1_marks" clip-path="url(#clip8)" role="graphics-object" aria-roledescription="line mark container"><path aria-label="Timestep: 200.38k; Success rate: 0.1004; Width: 1024" role="graphics-symbol" aria-roledescription="line mark" d="M12.023,357.407C14.027,342.548,16.031,326.607,18.035,314.193C20.039,301.778,22.043,292.889,24.047,284.4C26.05,275.911,28.054,267.822,30.058,258.815C32.062,249.807,34.066,239.881,36.07,233.081C38.074,226.281,40.078,222.607,42.082,219.289C44.086,215.97,46.089,213.007,48.093,209.615C50.097,206.222,52.101,202.4,54.105,196.993C56.109,191.585,58.113,184.593,60.117,179.526C62.121,174.459,64.125,171.319,66.128,170.593C68.132,169.867,70.136,171.556,72.14,170.711C74.144,169.867,76.148,166.489,78.152,163.037C80.156,159.585,82.16,156.059,84.164,153.319C86.167,150.578,88.171,148.622,90.175,147.096C92.179,145.57,94.183,144.474,96.187,143.333C98.191,142.193,100.195,141.007,102.199,140.652C104.203,140.296,106.206,140.77,108.21,139.333C110.214,137.896,112.218,134.548,114.222,132.859C116.226,131.17,118.23,131.141,120.234,130.193C122.238,129.244,124.242,127.378,126.245,126.044C128.249,124.711,130.253,123.911,132.257,122.963C134.261,122.015,136.265,120.919,138.269,119.615C140.273,118.311,142.277,116.8,144.281,114.756C146.284,112.711,148.288,110.133,150.292,109.23C152.296,108.326,154.3,109.096,156.304,107.541C158.308,105.985,160.312,102.104,162.316,100.059C164.319,98.015,166.323,97.807,168.327,95.852C170.331,93.896,172.335,90.193,174.339,87.659C176.343,85.126,178.347,83.763,180.351,82.815C182.355,81.867,184.359,81.333,186.362,81.837C188.366,82.341,190.37,83.881,192.374,84.933C194.378,85.985,196.382,86.548,198.386,85.274C200.39,84,202.394,80.889,204.398,79.452C206.401,78.015,208.405,78.252,210.409,78.163C212.413,78.074,214.417,77.659,216.421,76.326C218.425,74.993,220.429,72.741,222.433,72.193C224.437,71.644,226.44,72.8,228.444,72.237C230.448,71.674,232.452,69.393,234.456,68.356C236.46,67.319,238.464,67.526,240.468,67.407C242.472,67.289,244.476,66.844,246.479,66.474C248.483,66.104,250.487,65.807,252.491,65.393C254.495,64.978,256.499,64.444,258.503,64.281C260.507,64.119,262.511,64.326,264.515,64.163C266.518,64,268.522,63.467,270.526,63.081C272.53,62.696,274.534,62.459,276.538,61.511C278.542,60.563,280.546,58.904,282.55,58.519C284.554,58.133,286.557,59.022,288.561,58.844C290.565,58.667,292.569,57.422,294.573,57.467C296.577,57.511,298.581,58.844,300.585,59.052C302.589,59.259,304.593,58.341,306.596,57.867C308.6,57.393,310.604,57.363,312.608,57.6C314.612,57.837,316.616,58.341,318.62,58.326C320.624,58.311,322.628,57.778,324.632,57.867C326.635,57.956,328.639,58.667,330.643,58.83C332.647,58.993,334.651,58.607,336.655,58.252C338.659,57.896,340.663,57.57,342.667,57.215C344.671,56.859,346.674,56.474,348.678,56.281C350.682,56.089,352.686,56.089,354.69,56.252C356.694,56.415,358.698,56.741,360.702,56.756C362.706,56.77,364.71,56.474,366.713,56.43C368.717,56.385,370.721,56.593,372.725,56.681C374.729,56.77,376.733,56.741,378.737,56.563C380.741,56.385,382.745,56.059,384.749,56.193C386.752,56.326,388.756,56.919,390.76,56.652C392.764,56.385,394.768,55.259,396.772,55.007C398.776,54.756,400.78,55.378,402.784,56.296C404.787,57.215,406.791,58.43,408.795,58.474C410.799,58.519,412.803,57.393,414.807,57.17C416.811,56.948,418.815,57.63,420.819,57.733C422.823,57.837,424.826,57.363,426.83,56.726C428.834,56.089,430.838,55.289,432.842,55.481C434.846,55.674,436.85,56.859,438.854,56.889C440.858,56.919,442.862,55.793,444.865,55.748C446.869,55.704,448.873,56.741,450.877,57.63C452.881,58.519,454.885,59.259,456.889,58.726C458.893,58.193,460.897,56.385,462.901,55.304C464.904,54.222,466.908,53.867,468.912,53.763C470.916,53.659,472.92,53.807,474.924,54.252C476.928,54.696,478.932,55.437,480.936,55.911C482.94,56.385,484.944,56.593,486.947,57.067C488.951,57.541,490.955,58.281,492.959,58.356C494.963,58.43,496.967,57.837,498.971,57.304C500.975,56.77,502.979,56.296,504.983,56C506.986,55.704,508.99,55.585,510.994,55.615C512.998,55.644,515.002,55.822,517.006,55.793C519.01,55.763,521.014,55.526,523.018,55.526C525.022,55.526,527.025,55.763,529.029,55.822C531.033,55.881,533.037,55.763,535.041,55.822C537.045,55.881,539.049,56.119,541.053,55.867C543.057,55.615,545.06,54.874,547.064,54.993C549.068,55.111,551.072,56.089,553.076,56.519C555.08,56.948,557.084,56.83,559.088,56.726C561.092,56.622,563.096,56.533,565.099,56.785C567.103,57.037,569.107,57.63,571.111,57.733C573.115,57.837,575.119,57.452,577.123,57.526C579.127,57.6,581.131,58.133,583.135,58.104C585.139,58.074,587.142,57.481,589.146,57.007" stroke="#E0392D" stroke-width="2"/></g></g><path class="foreground" aria-hidden="true" d="" display="none"/></g><g transform="translate(0,0)"><path class="background" aria-hidden="true" d="M0,0h600v400h-600Z"/><g><g class="mark-line role-mark layer_1_marks" clip-path="url(#clip9)" role="graphics-object" aria-roledescription="line mark container"><path aria-label="Timestep: 200.38k; Success rate: 0.1416; Width: 2048" role="graphics-symbol" aria-roledescription="line mark" d="M12.023,336.519C14.027,322.637,16.031,310.43,18.035,297.2C20.039,283.97,22.043,269.719,24.047,257.037C26.05,244.356,28.054,233.244,30.058,223.807C32.062,214.37,34.066,206.607,36.07,200.43C38.074,194.252,40.078,189.659,42.082,182.815C44.086,175.97,46.089,166.874,48.093,161.704C50.097,156.533,52.101,155.289,54.105,152.474C56.109,149.659,58.113,145.274,60.117,142.341C62.121,139.407,64.125,137.926,66.128,135.007C68.132,132.089,70.136,127.733,72.14,125.585C74.144,123.437,76.148,123.496,78.152,123.23C80.156,122.963,82.16,122.37,84.164,121.23C86.167,120.089,88.171,118.4,90.175,117.674C92.179,116.948,94.183,117.185,96.187,117.007C98.191,116.83,100.195,116.237,102.199,115.452C104.203,114.667,106.206,113.689,108.21,111.393C110.214,109.096,112.218,105.481,114.222,103.719C116.226,101.956,118.23,102.044,120.234,100.593C122.238,99.141,124.242,96.148,126.245,95.096C128.249,94.044,130.253,94.933,132.257,93.63C134.261,92.326,136.265,88.83,138.269,87.17C140.273,85.511,142.277,85.689,144.281,84.444C146.284,83.2,148.288,80.533,150.292,78.519C152.296,76.504,154.3,75.141,156.304,73.763C158.308,72.385,160.312,70.993,162.316,69.23C164.319,67.467,166.323,65.333,168.327,63.244C170.331,61.156,172.335,59.111,174.339,58.681C176.343,58.252,178.347,59.437,180.351,59.526C182.355,59.615,184.359,58.607,186.362,57.6C188.366,56.593,190.37,55.585,192.374,55.304C194.378,55.022,196.382,55.467,198.386,54.593C200.39,53.719,202.394,51.526,204.398,51.896C206.401,52.267,208.405,55.2,210.409,55.674C212.413,56.148,214.417,54.163,216.421,52.593C218.425,51.022,220.429,49.867,222.433,49.393C224.437,48.919,226.44,49.126,228.444,49.037C230.448,48.948,232.452,48.563,234.456,48.652C236.46,48.741,238.464,49.304,240.468,49.719C242.472,50.133,244.476,50.4,246.479,49.704C248.483,49.007,250.487,47.348,252.491,47.644C254.495,47.941,256.499,50.193,258.503,50.785C260.507,51.378,262.511,50.311,264.515,49.378C266.518,48.444,268.522,47.644,270.526,46.622C272.53,45.6,274.534,44.356,276.538,43.867C278.542,43.378,280.546,43.644,282.55,43.793C284.554,43.941,286.557,43.97,288.561,44.03C290.565,44.089,292.569,44.178,294.573,44.652C296.577,45.126,298.581,45.985,300.585,45.481C302.589,44.978,304.593,43.111,306.596,42.385C308.6,41.659,310.604,42.074,312.608,42.326C314.612,42.578,316.616,42.667,318.62,42.77C320.624,42.874,322.628,42.993,324.632,42.993C326.635,42.993,328.639,42.874,330.643,43.496C332.647,44.119,334.651,45.481,336.655,45.807C338.659,46.133,340.663,45.422,342.667,45.837C344.671,46.252,346.674,47.793,348.678,49.259C350.682,50.726,352.686,52.119,354.69,52.074C356.694,52.03,358.698,50.548,360.702,49.17C362.706,47.793,364.71,46.519,366.713,45.63C368.717,44.741,370.721,44.237,372.725,44.222C374.729,44.207,376.733,44.681,378.737,45.23C380.741,45.778,382.745,46.4,384.749,47.185C386.752,47.97,388.756,48.919,390.76,48.207C392.764,47.496,394.768,45.126,396.772,44.444C398.776,43.763,400.78,44.77,402.784,44.489C404.787,44.207,406.791,42.637,408.795,42.622C410.799,42.607,412.803,44.148,414.807,44.296C416.811,44.444,418.815,43.2,420.819,42.059C422.823,40.919,424.826,39.881,426.83,39.111C428.834,38.341,430.838,37.837,432.842,37.23C434.846,36.622,436.85,35.911,438.854,36.504C440.858,37.096,442.862,38.993,444.865,39.704C446.869,40.415,448.873,39.941,450.877,39.6C452.881,39.259,454.885,39.052,456.889,39.304C458.893,39.556,460.897,40.267,462.901,40.341C464.904,40.415,466.908,39.852,468.912,38.83C470.916,37.807,472.92,36.326,474.924,35.615C476.928,34.904,478.932,34.963,480.936,35.822C482.94,36.681,484.944,38.341,486.947,39.333C488.951,40.326,490.955,40.652,492.959,40.637C494.963,40.622,496.967,40.267,498.971,39.289C500.975,38.311,502.979,36.711,504.983,35.778C506.986,34.844,508.99,34.578,510.994,34.444C512.998,34.311,515.002,34.311,517.006,33.896C519.01,33.481,521.014,32.652,523.018,32.696C525.022,32.741,527.025,33.659,529.029,35.333C531.033,37.007,533.037,39.437,535.041,40.548C537.045,41.659,539.049,41.452,541.053,41.541C543.057,41.63,545.06,42.015,547.064,41.481C549.068,40.948,551.072,39.496,553.076,38.607C555.08,37.719,557.084,37.393,559.088,37.111C561.092,36.83,563.096,36.593,565.099,35.807C567.103,35.022,569.107,33.689,571.111,33.956C573.115,34.222,575.119,36.089,577.123,37.556C579.127,39.022,581.131,40.089,583.135,40.548C585.139,41.007,587.142,40.859,589.146,40.296" stroke="#B22B24" stroke-width="2"/></g></g><path class="foreground" aria-hidden="true" d="" display="none"/></g><g transform="translate(0,0)"><path class="background" aria-hidden="true" d="M0,0h600v400h-600Z"/><g><g class="mark-line role-mark layer_1_marks" clip-path="url(#clip10)" role="graphics-object" aria-roledescription="line mark container"><path aria-label="Timestep: 200.38k; Success rate: 0.147555555556; Width: 4096" role="graphics-symbol" aria-roledescription="line mark" d="M12.023,322.173C14.027,304.724,16.031,289.449,18.035,270.996C20.039,252.543,22.043,230.914,24.047,215.243C26.05,199.572,28.054,189.86,30.058,181.728C32.062,173.597,34.066,167.045,36.07,163.621C38.074,160.198,40.078,159.901,42.082,159.621C44.086,159.342,46.089,159.078,48.093,157.514C50.097,155.951,52.101,153.086,54.105,150.337C56.109,147.588,58.113,144.955,60.117,141.712C62.121,138.469,64.125,134.617,66.128,132.23C68.132,129.844,70.136,128.922,72.14,128.444C74.144,127.967,76.148,127.934,78.152,125.811C80.156,123.687,82.16,119.473,84.164,117.399C86.167,115.325,88.171,115.391,90.175,114.897C92.179,114.403,94.183,113.35,96.187,112.708C98.191,112.066,100.195,111.835,102.199,111.095C104.203,110.354,106.206,109.103,108.21,108.395C110.214,107.687,112.218,107.523,114.222,106.436C116.226,105.35,118.23,103.342,120.234,100.856C122.238,98.37,124.242,95.407,126.245,92.889C128.249,90.37,130.253,88.296,132.257,87.457C134.261,86.617,136.265,87.012,138.269,86.848C140.273,86.683,142.277,85.959,144.281,85.728C146.284,85.498,148.288,85.761,150.292,83.852C152.296,81.942,154.3,77.86,156.304,74.37C158.308,70.881,160.312,67.984,162.316,66.42C164.319,64.856,166.323,64.626,168.327,62.914C170.331,61.202,172.335,58.008,174.339,56.247C176.343,54.486,178.347,54.156,180.351,53.235C182.355,52.313,184.359,50.798,186.362,50.123C188.366,49.449,190.37,49.613,192.374,49.613C194.378,49.613,196.382,49.449,198.386,49.004C200.39,48.56,202.394,47.835,204.398,48.313C206.401,48.79,208.405,50.469,210.409,51.111C212.413,51.753,214.417,51.358,216.421,50.156C218.425,48.955,220.429,46.947,222.433,45.663C224.437,44.379,226.44,43.819,228.444,43.638C230.448,43.457,232.452,43.654,234.456,43.671C236.46,43.687,238.464,43.523,240.468,43.177C242.472,42.831,244.476,42.305,246.479,42.354C248.483,42.403,250.487,43.029,252.491,43.49C254.495,43.951,256.499,44.247,258.503,44.626C260.507,45.004,262.511,45.465,264.515,45.63C266.518,45.794,268.522,45.663,270.526,44.56C272.53,43.457,274.534,41.383,276.538,41.07C278.542,40.757,280.546,42.206,282.55,42.864C284.554,43.523,286.557,43.391,288.561,42.008C290.565,40.626,292.569,37.992,294.573,37.218C296.577,36.444,298.581,37.531,300.585,38.107C302.589,38.683,304.593,38.749,306.596,39.374C308.6,40,310.604,41.185,312.608,42.403C314.612,43.621,316.616,44.872,318.62,45.992C320.624,47.111,322.628,48.099,324.632,48.494C326.635,48.889,328.639,48.691,330.643,48.23C332.647,47.77,334.651,47.045,336.655,45.663C338.659,44.28,340.663,42.239,342.667,40.922C344.671,39.605,346.674,39.012,348.678,40.362C350.682,41.712,352.686,45.004,354.69,46.272C356.694,47.539,358.698,46.782,360.702,46.897C362.706,47.012,364.71,48,366.713,48.049C368.717,48.099,370.721,47.21,372.725,46.749C374.729,46.288,376.733,46.255,378.737,45.86C380.741,45.465,382.745,44.708,384.749,43.588C386.752,42.469,388.756,40.988,390.76,39.901C392.764,38.815,394.768,38.123,396.772,37.975C398.776,37.827,400.78,38.222,402.784,39.918C404.787,41.613,406.791,44.609,408.795,45.235C410.799,45.86,412.803,44.115,414.807,44.494C416.811,44.872,418.815,47.374,420.819,48.263C422.823,49.152,424.826,48.428,426.83,47.835C428.834,47.243,430.838,46.782,432.842,45.761C434.846,44.741,436.85,43.16,438.854,43.111C440.858,43.062,442.862,44.543,444.865,44.033C446.869,43.523,448.873,41.021,450.877,40.395C452.881,39.77,454.885,41.021,456.889,41.333C458.893,41.646,460.897,41.021,462.901,40.675C464.904,40.329,466.908,40.263,468.912,39.835C470.916,39.407,472.92,38.617,474.924,38.469C476.928,38.321,478.932,38.815,480.936,39.325C482.94,39.835,484.944,40.362,486.947,40.626C488.951,40.889,490.955,40.889,492.959,40.741C494.963,40.593,496.967,40.296,498.971,41.169C500.975,42.041,502.979,44.082,504.983,45.531C506.986,46.979,508.99,47.835,510.994,46.519C512.998,45.202,515.002,41.712,517.006,40.724C519.01,39.737,521.014,41.251,523.018,41.613C525.022,41.975,527.025,41.185,529.029,39.654C531.033,38.123,533.037,35.852,535.041,34.255C537.045,32.658,539.049,31.737,541.053,31.918C543.057,32.099,545.06,33.383,547.064,33.728C549.068,34.074,551.072,33.481,553.076,32.823C555.08,32.165,557.084,31.44,559.088,31.951C561.092,32.461,563.096,34.206,565.099,34.486C567.103,34.765,569.107,33.58,571.111,33.366C573.115,33.152,575.119,33.909,577.123,34.831C579.127,35.753,581.131,36.84,583.135,36.889C585.139,36.938,587.142,35.951,589.146,35.243" stroke="#7A1F18" stroke-width="2"/></g></g><path class="foreground" aria-hidden="true" d="" display="none"/></g></g><g class="mark-group role-legend" role="graphics-symbol" aria-roledescription="legend" aria-label="Symbol legend titled 'Width' for fill color and stroke color with 5 values: 256, 512, 1024, 2048, 4096"><g transform="translate(618,0)"><path class="background" aria-hidden="true" d="M0,0h46v99h-46Z" pointer-events="none"/><g><g class="mark-group role-legend-entry"><g transform="translate(0,21)"><path class="background" aria-hidden="true" d="M0,0h0v0h0Z" pointer-events="none"/><g><g class="mark-group role-scope" role="graphics-object" aria-roledescription="group mark container"><g transform="translate(0,0)"><path class="background" aria-hidden="true" d="M0,0h46v14h-46Z" pointer-events="none" opacity="1"/><g><g class="mark-symbol role-legend-symbol" pointer-events="none"><path transform="translate(7,7)" d="M5,0A5,5,0,1,1,-5,0A5,5,0,1,1,5,0" fill="#FF5F33" stroke="#FF5F33" stroke-width="1.5" opacity="0.3"/></g><g class="mark-text role-legend-label" pointer-events="none"><text text-anchor="start" transform="translate(18,11)" font-family="Times New Roman" font-size="14px" fill="#000" opacity="1">256</text></g></g><path class="foreground" aria-hidden="true" d="" pointer-events="none" display="none"/></g><g transform="translate(0,16)"><path class="background" aria-hidden="true" d="M0,0h46v14h-46Z" pointer-events="none" opacity="1"/><g><g class="mark-symbol role-legend-symbol" pointer-events="none"><path transform="translate(7,7)" d="M5,0A5,5,0,1,1,-5,0A5,5,0,1,1,5,0" fill="#FF4B33" stroke="#FF4B33" stroke-width="1.5" opacity="0.3"/></g><g class="mark-text role-legend-label" pointer-events="none"><text text-anchor="start" transform="translate(18,11)" font-family="Times New Roman" font-size="14px" fill="#000" opacity="1">512</text></g></g><path class="foreground" aria-hidden="true" d="" pointer-events="none" display="none"/></g><g transform="translate(0,32)"><path class="background" aria-hidden="true" d="M0,0h46v14h-46Z" pointer-events="none" opacity="1"/><g><g class="mark-symbol role-legend-symbol" pointer-events="none"><path transform="translate(7,7)" d="M5,0A5,5,0,1,1,-5,0A5,5,0,1,1,5,0" fill="#E0392D" stroke="#E0392D" stroke-width="1.5" opacity="0.3"/></g><g class="mark-text role-legend-label" pointer-events="none"><text text-anchor="start" transform="translate(18,11)" font-family="Times New Roman" font-size="14px" fill="#000" opacity="1">1024</text></g></g><path class="foreground" aria-hidden="true" d="" pointer-events="none" display="none"/></g><g transform="translate(0,48)"><path class="background" aria-hidden="true" d="M0,0h46v14h-46Z" pointer-events="none" opacity="1"/><g><g class="mark-symbol role-legend-symbol" pointer-events="none"><path transform="translate(7,7)" d="M5,0A5,5,0,1,1,-5,0A5,5,0,1,1,5,0" fill="#B22B24" stroke="#B22B24" stroke-width="1.5" opacity="0.3"/></g><g class="mark-text role-legend-label" pointer-events="none"><text text-anchor="start" transform="translate(18,11)" font-family="Times New Roman" font-size="14px" fill="#000" opacity="1">2048</text></g></g><path class="foreground" aria-hidden="true" d="" pointer-events="none" display="none"/></g><g transform="translate(0,64)"><path class="background" aria-hidden="true" d="M0,0h46v14h-46Z" pointer-events="none" opacity="1"/><g><g class="mark-symbol role-legend-symbol" pointer-events="none"><path transform="translate(7,7)" d="M5,0A5,5,0,1,1,-5,0A5,5,0,1,1,5,0" fill="#7A1F18" stroke="#7A1F18" stroke-width="1.5" opacity="0.3"/></g><g class="mark-text role-legend-label" pointer-events="none"><text text-anchor="start" transform="translate(18,11)" font-family="Times New Roman" font-size="14px" fill="#000" opacity="1">4096</text></g></g><path class="foreground" aria-hidden="true" d="" pointer-events="none" display="none"/></g></g></g><path class="foreground" aria-hidden="true" d="" pointer-events="none" display="none"/></g></g><g class="mark-text role-legend-title" pointer-events="none"><text text-anchor="start" transform="translate(0,13)" font-family="Times New Roman" font-size="16px" font-weight="bold" fill="#000" opacity="1">Width</text></g></g><path class="foreground" aria-hidden="true" d="" pointer-events="none" display="none"/></g></g><g class="mark-group role-title"><g transform="translate(300,-31)"><path class="background" aria-hidden="true" d="M0,0h0v0h0Z" pointer-events="none"/><g><g class="mark-text role-title-text" role="graphics-symbol" aria-roledescription="title" aria-label="Title text 'Success rate throughout training across different scales for MT10'" pointer-events="none"><text text-anchor="middle" transform="translate(0,16)" font-family="Times New Roman" font-size="20px" font-weight="bold" fill="#000" opacity="1">Success rate throughout training across different scales for MT10</text></g></g><path class="foreground" aria-hidden="true" d="" pointer-events="none" display="none"/></g></g></g><path class="foreground" aria-hidden="true" d="" display="none"/></g></g></g><defs><clipPath id="clip1"><rect x="0" y="0" width="600" height="400"/></clipPath><clipPath id="clip2"><rect x="0" y="0" width="600" height="400"/></clipPath><clipPath id="clip3"><rect x="0" y="0" width="600" height="400"/></clipPath><clipPath id="clip4"><rect x="0" y="0" width="600" height="400"/></clipPath><clipPath id="clip5"><rect x="0" y="0" width="600" height="400"/></clipPath><clipPath id="clip6"><rect x="0" y="0" width="600" height="400"/></clipPath><clipPath id="clip7"><rect x="0" y="0" width="600" height="400"/></clipPath><clipPath id="clip8"><rect x="0" y="0" width="600" height="400"/></clipPath><clipPath id="clip9"><rect x="0" y="0" width="600" height="400"/></clipPath><clipPath id="clip10"><rect x="0" y="0" width="600" height="400"/></clipPath></defs></svg>