<svg xmlns="http://www.w3.org/2000/svg" xmlns:xlink="http://www.w3.org/1999/xlink" version="1.1" class="marks" width="662" height="465" viewBox="0 0 662 465"><rect width="662" height="465" fill="white"/><g fill="none" stroke-miterlimit="10" transform="translate(56,13)"><g class="mark-group role-frame root" role="graphics-object" aria-roledescription="group mark container"><g transform="translate(0,0)"><path class="background" aria-hidden="true" d="M0.5,0.5h600v400h-600Z" stroke="#ddd"/><g><g class="mark-group role-axis" aria-hidden="true"><g transform="translate(0.5,400.5)"><path class="background" aria-hidden="true" d="M0,0h0v0h0Z" pointer-events="none"/><g><g class="mark-rule role-axis-grid" pointer-events="none"><line transform="translate(24,-400)" x2="0" y2="400" stroke="#ddd" stroke-width="1" opacity="1"/><line transform="translate(55,-400)" x2="0" y2="400" stroke="#ddd" stroke-width="1" opacity="1"/><line transform="translate(85,-400)" x2="0" y2="400" stroke="#ddd" stroke-width="1" opacity="1"/><line transform="translate(115,-400)" x2="0" y2="400" stroke="#ddd" stroke-width="1" opacity="1"/><line transform="translate(145,-400)" x2="0" y2="400" stroke="#ddd" stroke-width="1" opacity="1"/><line transform="translate(176,-400)" x2="0" y2="400" stroke="#ddd" stroke-width="1" opacity="1"/><line transform="translate(206,-400)" x2="0" y2="400" stroke="#ddd" stroke-width="1" opacity="1"/><line transform="translate(236,-400)" x2="0" y2="400" stroke="#ddd" stroke-width="1" opacity="1"/><line transform="translate(267,-400)" x2="0" y2="400" stroke="#ddd" stroke-width="1" opacity="1"/><line transform="translate(297,-400)" x2="0" y2="400" stroke="#ddd" stroke-width="1" opacity="1"/><line transform="translate(327,-400)" x2="0" y2="400" stroke="#ddd" stroke-width="1" opacity="1"/><line transform="translate(358,-400)" x2="0" y2="400" stroke="#ddd" stroke-width="1" opacity="1"/><line transform="translate(388,-400)" x2="0" y2="400" stroke="#ddd" stroke-width="1" opacity="1"/><line transform="translate(418,-400)" x2="0" y2="400" stroke="#ddd" stroke-width="1" opacity="1"/><line transform="translate(448,-400)" x2="0" y2="400" stroke="#ddd" stroke-width="1" opacity="1"/><line transform="translate(479,-400)" x2="0" y2="400" stroke="#ddd" stroke-width="1" opacity="1"/><line transform="translate(509,-400)" x2="0" y2="400" stroke="#ddd" stroke-width="1" opacity="1"/><line transform="translate(539,-400)" x2="0" y2="400" stroke="#ddd" stroke-width="1" opacity="1"/><line transform="translate(570,-400)" x2="0" y2="400" stroke="#ddd" stroke-width="1" opacity="1"/><line transform="translate(600,-400)" x2="0" y2="400" stroke="#ddd" stroke-width="1" opacity="1"/></g></g><path class="foreground" aria-hidden="true" d="" pointer-events="none" display="none"/></g></g><g class="mark-group role-axis" aria-hidden="true"><g transform="translate(0.5,0.5)"><path class="background" aria-hidden="true" d="M0,0h0v0h0Z" pointer-events="none"/><g><g class="mark-rule role-axis-grid" pointer-events="none"><line transform="translate(0,376)" x2="600" y2="0" stroke="#ddd" stroke-width="1" opacity="1"/><line transform="translate(0,329)" x2="600" y2="0" stroke="#ddd" stroke-width="1" opacity="1"/><line transform="translate(0,282)" x2="600" y2="0" stroke="#ddd" stroke-width="1" opacity="1"/><line transform="translate(0,235)" x2="600" y2="0" stroke="#ddd" stroke-width="1" opacity="1"/><line transform="translate(0,188)" x2="600" y2="0" stroke="#ddd" stroke-width="1" opacity="1"/><line transform="translate(0,141)" x2="600" y2="0" stroke="#ddd" stroke-width="1" opacity="1"/><line transform="translate(0,94)" x2="600" y2="0" stroke="#ddd" stroke-width="1" opacity="1"/><line transform="translate(0,47)" x2="600" y2="0" stroke="#ddd" stroke-width="1" opacity="1"/><line transform="translate(0,0)" x2="600" y2="0" stroke="#ddd" stroke-width="1" opacity="1"/></g></g><path class="foreground" aria-hidden="true" d="" pointer-events="none" display="none"/></g></g><g class="mark-group role-axis" role="graphics-symbol" aria-roledescription="axis" aria-label="X-axis titled 'Number of environment steps' for a linear scale with values from 0M to 20M"><g transform="translate(0.5,400.5)"><path class="background" aria-hidden="true" d="M0,0h0v0h0Z" pointer-events="none"/><g><g class="mark-rule role-axis-tick" pointer-events="none"><line transform="translate(24,0)" x2="0" y2="5" stroke="#888" stroke-width="1" opacity="1"/><line transform="translate(55,0)" x2="0" y2="5" stroke="#888" stroke-width="1" opacity="1"/><line transform="translate(85,0)" x2="0" y2="5" stroke="#888" stroke-width="1" opacity="1"/><line transform="translate(115,0)" x2="0" y2="5" stroke="#888" stroke-width="1" opacity="1"/><line transform="translate(145,0)" x2="0" y2="5" stroke="#888" stroke-width="1" opacity="1"/><line transform="translate(176,0)" x2="0" y2="5" stroke="#888" stroke-width="1" opacity="1"/><line transform="translate(206,0)" x2="0" y2="5" stroke="#888" stroke-width="1" opacity="1"/><line transform="translate(236,0)" x2="0" y2="5" stroke="#888" stroke-width="1" opacity="1"/><line transform="translate(267,0)" x2="0" y2="5" stroke="#888" stroke-width="1" opacity="1"/><line transform="translate(297,0)" x2="0" y2="5" stroke="#888" stroke-width="1" opacity="1"/><line transform="translate(327,0)" x2="0" y2="5" stroke="#888" stroke-width="1" opacity="1"/><line transform="translate(358,0)" x2="0" y2="5" stroke="#888" stroke-width="1" opacity="1"/><line transform="translate(388,0)" x2="0" y2="5" stroke="#888" stroke-width="1" opacity="1"/><line transform="translate(418,0)" x2="0" y2="5" stroke="#888" stroke-width="1" opacity="1"/><line transform="translate(448,0)" x2="0" y2="5" stroke="#888" stroke-width="1" opacity="1"/><line transform="translate(479,0)" x2="0" y2="5" stroke="#888" stroke-width="1" opacity="1"/><line transform="translate(509,0)" x2="0" y2="5" stroke="#888" stroke-width="1" opacity="1"/><line transform="translate(539,0)" x2="0" y2="5" stroke="#888" stroke-width="1" opacity="1"/><line transform="translate(570,0)" x2="0" y2="5" stroke="#888" stroke-width="1" opacity="1"/><line transform="translate(600,0)" x2="0" y2="5" stroke="#888" stroke-width="1" opacity="1"/></g><g class="mark-text role-axis-label" pointer-events="none"><text text-anchor="middle" transform="translate(24.242424242424246,20)" font-family="Times New Roman" font-size="16px" fill="#000" opacity="1">1M</text><text text-anchor="middle" transform="translate(54.54545454545455,20)" font-family="Times New Roman" font-size="16px" fill="#000" opacity="0">2M</text><text text-anchor="middle" transform="translate(84.84848484848484,20)" font-family="Times New Roman" font-size="16px" fill="#000" opacity="1">3M</text><text text-anchor="middle" transform="translate(115.15151515151514,20)" font-family="Times New Roman" font-size="16px" fill="#000" opacity="0">4M</text><text text-anchor="middle" transform="translate(145.45454545454547,20)" font-family="Times New Roman" font-size="16px" fill="#000" opacity="1">5M</text><text text-anchor="middle" transform="translate(175.75757575757575,20)" font-family="Times New Roman" font-size="16px" fill="#000" opacity="0">6M</text><text text-anchor="middle" transform="translate(206.06060606060606,20)" font-family="Times New Roman" font-size="16px" fill="#000" opacity="1">7M</text><text text-anchor="middle" transform="translate(236.36363636363635,20)" font-family="Times New Roman" font-size="16px" fill="#000" opacity="0">8M</text><text text-anchor="middle" transform="translate(266.66666666666663,20)" font-family="Times New Roman" font-size="16px" fill="#000" opacity="1">9M</text><text text-anchor="middle" transform="translate(296.969696969697,20)" font-family="Times New Roman" font-size="16px" fill="#000" opacity="0">10M</text><text text-anchor="middle" transform="translate(327.27272727272725,20)" font-family="Times New Roman" font-size="16px" fill="#000" opacity="1">11M</text><text text-anchor="middle" transform="translate(357.57575757575756,20)" font-family="Times New Roman" font-size="16px" fill="#000" opacity="0">12M</text><text text-anchor="middle" transform="translate(387.87878787878793,20)" font-family="Times New Roman" font-size="16px" fill="#000" opacity="1">13M</text><text text-anchor="middle" transform="translate(418.1818181818182,20)" font-family="Times New Roman" font-size="16px" fill="#000" opacity="0">14M</text><text text-anchor="middle" transform="translate(448.4848484848485,20)" font-family="Times New Roman" font-size="16px" fill="#000" opacity="1">15M</text><text text-anchor="middle" transform="translate(478.7878787878788,20)" font-family="Times New Roman" font-size="16px" fill="#000" opacity="0">16M</text><text text-anchor="middle" transform="translate(509.0909090909091,20)" font-family="Times New Roman" font-size="16px" fill="#000" opacity="1">17M</text><text text-anchor="middle" transform="translate(539.3939393939394,20)" font-family="Times New Roman" font-size="16px" fill="#000" opacity="0">18M</text><text text-anchor="middle" transform="translate(569.6969696969697,20)" font-family="Times New Roman" font-size="16px" fill="#000" opacity="1">19M</text><text text-anchor="end" transform="translate(600,20)" font-family="Times New Roman" font-size="16px" fill="#000" opacity="0">20M</text></g><g class="mark-rule role-axis-domain" pointer-events="none"><line transform="translate(0,0)" x2="600" y2="0" stroke="#888" stroke-width="1" opacity="1"/></g><g class="mark-text role-axis-title" pointer-events="none"><text text-anchor="middle" transform="translate(300,43)" font-family="Times New Roman" font-size="20px" font-weight="bold" fill="#000" opacity="1">Number of environment steps</text></g></g><path class="foreground" aria-hidden="true" d="" pointer-events="none" display="none"/></g></g><g class="mark-group role-axis" role="graphics-symbol" aria-roledescription="axis" aria-label="Y-axis titled 'Success rate' for a linear scale with values from 0.1 to 1.0"><g transform="translate(0.5,0.5)"><path class="background" aria-hidden="true" d="M0,0h0v0h0Z" pointer-events="none"/><g><g class="mark-rule role-axis-tick" pointer-events="none"><line transform="translate(0,376)" x2="-5" y2="0" stroke="#888" stroke-width="1" opacity="1"/><line transform="translate(0,329)" x2="-5" y2="0" stroke="#888" stroke-width="1" opacity="1"/><line transform="translate(0,282)" x2="-5" y2="0" stroke="#888" stroke-width="1" opacity="1"/><line transform="translate(0,235)" x2="-5" y2="0" stroke="#888" stroke-width="1" opacity="1"/><line transform="translate(0,188)" x2="-5" y2="0" stroke="#888" stroke-width="1" opacity="1"/><line transform="translate(0,141)" x2="-5" y2="0" stroke="#888" stroke-width="1" opacity="1"/><line transform="translate(0,94)" x2="-5" y2="0" stroke="#888" stroke-width="1" opacity="1"/><line transform="translate(0,47)" x2="-5" y2="0" stroke="#888" stroke-width="1" opacity="1"/><line transform="translate(0,0)" x2="-5" y2="0" stroke="#888" stroke-width="1" opacity="1"/></g><g class="mark-text role-axis-label" pointer-events="none"><text text-anchor="end" transform="translate(-7,381.4705882352941)" font-family="Times New Roman" font-size="16px" fill="#000" opacity="1">0.2</text><text text-anchor="end" transform="translate(-7,334.4117647058823)" font-family="Times New Roman" font-size="16px" fill="#000" opacity="1">0.3</text><text text-anchor="end" transform="translate(-7,287.35294117647055)" font-family="Times New Roman" font-size="16px" fill="#000" opacity="1">0.4</text><text text-anchor="end" transform="translate(-7,240.29411764705884)" font-family="Times New Roman" font-size="16px" fill="#000" opacity="1">0.5</text><text text-anchor="end" transform="translate(-7,193.23529411764704)" font-family="Times New Roman" font-size="16px" fill="#000" opacity="1">0.6</text><text text-anchor="end" transform="translate(-7,146.17647058823533)" font-family="Times New Roman" font-size="16px" fill="#000" opacity="1">0.7</text><text text-anchor="end" transform="translate(-7,99.11764705882351)" font-family="Times New Roman" font-size="16px" fill="#000" opacity="1">0.8</text><text text-anchor="end" transform="translate(-7,52.058823529411775)" font-family="Times New Roman" font-size="16px" fill="#000" opacity="1">0.9</text><text text-anchor="end" transform="translate(-7,5)" font-family="Times New Roman" font-size="16px" fill="#000" opacity="1">1.0</text></g><g class="mark-rule role-axis-domain" pointer-events="none"><line transform="translate(0,400)" x2="0" y2="-400" stroke="#888" stroke-width="1" opacity="1"/></g><g class="mark-text role-axis-title" pointer-events="none"><text text-anchor="middle" transform="translate(-31,200) rotate(-90) translate(0,-4)" font-family="Times New Roman" font-size="20px" font-weight="bold" fill="#000" opacity="1">Success rate</text></g></g><path class="foreground" aria-hidden="true" d="" pointer-events="none" display="none"/></g></g><g class="mark-group role-scope layer_0_layer_0_pathgroup" role="graphics-object" aria-roledescription="group mark container"><g transform="translate(0,0)"><path class="background" aria-hidden="true" d="M0,0h600v400h-600Z"/><g><g class="mark-area role-mark layer_0_layer_0_marks" clip-path="url(#clip1)" role="graphics-object" aria-roledescription="area mark container"><path aria-label="Number of environment steps: 200.38k; Success rate: 0.0273333333333; upper_Success rate: 0.0606666666667; Width: 256; Ci1 of Success rate: 0.0606666666667; Ci0 of Success rate: 0.0273333333333; Mean of Success rate: 0.044" role="graphics-symbol" aria-roledescription="errorband" d="M6.084,404.761C8.108,391.218,10.132,383.844,12.156,379.269C14.181,374.693,16.205,372.915,18.229,367.608C20.253,362.301,22.277,353.464,24.301,344.65C26.325,335.836,28.349,327.044,30.374,318.495C32.398,309.946,34.422,301.64,36.446,294.742C38.47,287.844,40.494,282.356,42.518,277.911C44.543,273.467,46.567,270.067,48.591,264.288C50.615,258.51,52.639,250.353,54.663,246.144C56.687,241.935,58.712,241.673,60.736,239.712C62.76,237.752,64.784,234.092,66.808,232.078C68.832,230.065,70.856,229.699,72.881,227.844C74.905,225.988,76.929,222.643,78.953,219.349C80.977,216.055,83.001,212.812,85.025,209.884C87.05,206.956,89.074,204.342,91.098,201.728C93.122,199.114,95.146,196.498,97.17,193.413C99.194,190.328,101.219,186.774,103.243,186.408C105.267,186.043,107.291,188.867,109.315,189.207C111.339,189.546,113.363,187.403,115.388,186.603C117.412,185.803,119.436,186.347,121.46,185.827C123.484,185.306,125.508,183.722,127.532,182.377C129.557,181.033,131.581,179.928,133.605,178.044C135.629,176.159,137.653,173.495,139.677,173.26C141.701,173.025,143.726,175.218,145.75,175.348C147.774,175.477,149.798,173.542,151.822,172.601C153.846,171.66,155.87,171.712,157.895,170.114C159.919,168.515,161.943,165.266,163.967,166.11C165.991,166.953,168.015,171.89,170.039,172.626C172.064,173.361,174.088,169.896,176.112,166.778C178.136,163.66,180.16,160.889,182.184,158.327C184.208,155.766,186.233,153.414,188.257,151.741C190.281,150.068,192.305,149.073,194.329,148.55C196.353,148.026,198.377,147.974,200.402,147.556C202.426,147.137,204.45,146.353,206.474,146.144C208.498,145.936,210.522,146.303,212.546,146.565C214.571,146.827,216.595,146.984,218.619,146.592C220.643,146.199,222.667,145.256,224.691,145.988C226.715,146.719,228.739,149.124,230.764,149.464C232.788,149.804,234.812,148.078,236.836,146.771C238.86,145.464,240.884,144.575,242.908,144.049C244.933,143.522,246.957,143.358,248.981,143.148C251.005,142.939,253.029,142.685,255.053,142.372C257.077,142.058,259.102,141.684,261.126,141.972C263.15,142.26,265.174,143.208,267.198,143.813C269.222,144.418,271.246,144.68,273.271,144.34C275.295,144,277.319,143.059,279.343,142.876C281.367,142.693,283.391,143.268,285.415,143.163C287.44,143.059,289.464,142.275,291.488,141.83C293.512,141.386,295.536,141.281,297.56,141.255C299.584,141.229,301.609,141.281,303.633,141.569C305.657,141.856,307.681,142.379,309.705,142.719C311.729,143.059,313.753,143.216,315.778,143.242C317.802,143.268,319.826,143.163,321.85,142.85C323.874,142.536,325.898,142.013,327.922,142.196C329.947,142.379,331.971,143.268,333.995,143.294C336.019,143.32,338.043,142.484,340.067,141.961C342.091,141.439,344.116,141.231,346.14,141.075C348.164,140.918,350.188,140.812,352.212,141.177C354.236,141.542,356.26,142.379,358.285,142.248C360.309,142.118,362.333,141.02,364.357,140.184C366.381,139.348,368.405,138.774,370.429,138.826C372.454,138.878,374.478,139.557,376.502,140.811C378.526,142.065,380.55,143.895,382.574,143.216C384.598,142.536,386.623,139.346,388.647,137.699C390.671,136.052,392.695,135.948,394.719,135.642C396.743,135.336,398.767,134.83,400.791,133.836C402.816,132.843,404.84,131.362,405.852,131.156C406.864,130.949,406.864,132.016,407.876,129.192C408.888,126.369,410.912,119.655,411.924,121.161C412.936,122.667,412.936,132.392,413.948,134.902C414.96,137.412,416.984,132.706,417.997,132.235C419.009,131.765,419.009,135.529,420.021,134.431C421.033,133.333,423.057,127.373,424.069,127.373C425.081,127.373,425.081,133.333,426.093,132.706C427.105,132.078,429.129,124.863,430.141,125.098C431.153,125.333,431.154,133.02,432.166,133.333C433.178,133.647,435.202,126.588,436.214,126.51C437.226,126.431,437.226,133.333,438.238,132.235C439.25,131.137,441.274,122.039,442.286,122.196C443.298,122.353,443.298,131.765,444.31,134.275C445.323,136.784,447.347,132.392,448.359,132.894C449.371,133.396,449.371,138.792,450.383,136.596C451.395,134.4,453.419,124.612,454.431,122.165C455.443,119.718,455.443,124.612,456.455,124.769C457.467,124.925,459.491,120.345,460.503,121.161C461.516,121.976,461.516,128.188,462.528,129.286C463.54,130.384,465.564,126.369,466.576,127.027C467.588,127.686,467.588,133.02,468.6,132.235C469.612,131.451,471.636,124.549,472.648,125.114C473.66,125.678,473.661,133.71,474.673,134.494C475.685,135.278,477.709,128.816,478.721,128.486C479.733,128.157,479.733,133.961,480.745,133.961C481.757,133.961,483.781,128.157,484.793,128.078C485.805,128,485.805,133.647,486.817,135.843C487.829,138.039,489.854,136.784,490.866,136C491.878,135.216,491.878,134.902,492.89,132.549C493.902,130.196,495.926,125.804,496.938,125.882C497.95,125.961,497.95,130.51,498.962,130.353C499.974,130.196,501.998,125.333,503.01,125.255C504.023,125.176,504.023,129.882,505.035,130.039C506.047,130.196,508.071,125.804,509.083,126.275C510.095,126.745,510.095,132.078,511.107,131.922C512.119,131.765,514.143,126.118,515.155,125.216C516.167,124.314,516.167,128.157,517.18,127.373C518.192,126.588,520.216,121.176,521.228,121.798C522.24,122.419,522.24,129.073,523.252,132.053C524.264,135.034,526.288,134.34,527.3,135.405C528.312,136.471,528.312,139.294,529.324,140.863C530.336,142.431,532.361,142.745,533.373,142.431C534.385,142.118,534.385,141.176,535.397,140.863C536.409,140.549,538.433,140.863,539.445,141.176C540.457,141.49,540.457,141.804,541.469,140.235C542.481,138.667,544.505,135.216,545.517,134.275C546.529,133.333,546.53,134.902,547.542,134.588C548.554,134.275,550.578,132.078,551.59,131.922C552.602,131.765,552.602,133.647,553.614,133.333C554.626,133.02,556.65,130.51,557.662,130.98C558.674,131.451,558.674,134.902,559.687,134.745C560.699,134.588,562.723,130.824,563.735,131.137C564.747,131.451,564.747,135.843,565.759,138.039C566.771,140.235,568.795,140.235,569.807,139.765C570.819,139.294,570.819,138.353,571.831,134.275C572.843,130.196,574.867,122.98,575.88,123.922C576.892,124.863,576.892,133.961,577.904,135.529C578.916,137.098,580.94,131.137,581.952,129.725C582.964,128.314,582.964,131.451,583.976,131.529C584.988,131.608,587.012,128.627,588.024,129.882C589.036,131.137,589.037,136.627,590.049,136.784C591.061,136.941,593.085,131.765,594.097,130.98L594.097,110.745C593.085,110.275,591.061,116.314,590.049,116.118C589.037,115.922,589.036,109.49,588.024,111.059C587.012,112.627,584.988,122.196,583.976,122.549C582.964,122.902,582.964,114.039,581.952,110.118C580.94,106.196,578.916,107.216,577.904,108.98C576.892,110.745,576.892,113.255,575.88,112.784C574.867,112.314,572.843,108.863,571.831,110.118C570.819,111.373,570.819,117.333,569.807,117.49C568.795,117.647,566.771,112,565.759,112C564.747,112,564.747,117.647,563.735,114.196C562.723,110.745,560.699,98.196,559.687,98.196C558.674,98.196,558.674,110.745,557.662,111.529C556.65,112.314,554.626,101.333,553.614,101.961C552.602,102.588,552.602,114.824,551.59,115.765C550.578,116.706,548.554,106.353,547.542,104.784C546.53,103.216,546.529,110.431,545.517,110.745C544.505,111.059,542.481,104.471,541.469,105.098C540.457,105.725,540.457,113.569,539.445,113.098C538.433,112.627,536.409,103.843,535.397,105.255C534.385,106.667,534.385,118.275,533.373,121.059C532.361,123.843,530.336,117.804,529.324,116.863C528.312,115.922,528.312,120.078,527.3,121.435C526.288,122.792,524.264,121.349,523.252,116.643C522.24,111.937,522.24,103.969,521.228,103.71C520.216,103.451,518.192,110.902,517.18,112.627C516.167,114.353,516.167,110.353,515.155,108.588C514.143,106.824,512.119,107.294,511.107,105.255C510.095,103.216,510.095,98.667,509.083,99.176C508.071,99.686,506.047,105.255,505.035,105.412C504.023,105.569,504.023,100.314,503.01,100.353C501.998,100.392,499.974,105.725,498.962,106.353C497.95,106.98,497.95,102.902,496.938,102.431C495.926,101.961,493.902,105.098,492.89,104.627C491.878,104.157,491.878,100.078,490.866,101.137C489.854,102.196,487.829,108.392,486.817,108.235C485.805,108.078,485.805,101.569,484.793,101.098C483.781,100.627,481.757,106.196,480.745,106.039C479.733,105.882,479.733,100,478.721,101.922C477.709,103.843,475.685,113.569,474.673,113.725C473.661,113.882,473.66,104.471,472.648,101.989C471.636,99.508,469.612,103.957,468.6,106.153C467.588,108.349,467.588,108.292,466.576,108.86C465.564,109.427,463.54,110.62,462.528,110.149C461.516,109.678,461.516,107.545,460.503,106.761C459.491,105.976,457.467,106.541,456.455,105.286C455.443,104.031,455.443,100.957,454.431,103.331C453.419,105.705,451.395,113.528,450.383,113.528C449.371,113.528,449.371,105.705,448.359,105.362C447.347,105.02,445.323,112.157,444.31,111.843C443.298,111.529,443.298,103.765,442.286,104.157C441.274,104.549,439.25,113.098,438.238,112.941C437.226,112.784,437.226,103.922,436.214,103.373C435.202,102.824,433.178,110.588,432.166,110.431C431.154,110.275,431.153,102.196,430.141,101.49C429.129,100.784,427.105,107.451,426.093,108.235C425.081,109.02,425.081,103.922,424.069,105.294C423.057,106.667,421.033,114.51,420.021,113.725C419.009,112.941,419.009,103.529,417.997,102.863C416.984,102.196,414.96,110.275,413.948,111.373C412.936,112.471,412.936,106.588,411.924,105.685C410.912,104.783,408.888,108.86,407.876,113.722C406.864,118.585,406.864,124.234,405.852,124.548C404.84,124.863,402.816,119.843,400.791,118.771C398.767,117.698,396.743,120.573,394.719,121.723C392.695,122.873,390.671,122.299,388.647,123.607C386.623,124.914,384.598,128.102,382.574,129.095C380.55,130.089,378.526,128.888,376.502,128.992C374.478,129.097,372.454,130.507,370.429,130.455C368.405,130.403,366.381,128.888,364.357,130.117C362.333,131.346,360.309,135.32,358.285,136.288C356.26,137.255,354.236,135.216,352.212,133.569C350.188,131.922,348.164,130.667,346.14,131.634C344.116,132.601,342.091,135.791,340.067,137.359C338.043,138.927,336.019,138.873,333.995,138.219C331.971,137.565,329.947,136.31,327.922,136.31C325.898,136.31,323.874,137.565,321.85,137.984C319.826,138.403,317.802,137.986,315.778,138.352C313.753,138.719,311.729,139.869,309.705,139.32C307.681,138.771,305.657,136.523,303.633,136.288C301.609,136.052,299.584,137.83,297.56,137.646C295.536,137.463,293.512,135.318,291.488,135.475C289.464,135.631,287.44,138.09,285.415,139.032C283.391,139.974,281.367,139.399,279.343,139.293C277.319,139.188,275.295,139.553,273.271,139.997C271.246,140.442,269.222,140.966,267.198,140.84C265.174,140.713,263.15,139.937,261.126,139.544C259.102,139.152,257.077,139.145,255.053,139.145C253.029,139.145,251.005,139.152,248.981,139.074C246.957,138.995,244.933,138.831,242.908,139.429C240.884,140.026,238.86,141.386,236.836,142.248C234.812,143.111,232.788,143.477,230.764,143.19C228.739,142.902,226.715,141.961,224.691,141.333C222.667,140.706,220.643,140.392,218.619,140C216.595,139.608,214.571,139.137,212.546,139.451C210.522,139.765,208.498,140.863,206.474,141.438C204.45,142.013,202.426,142.065,200.402,141.987C198.377,141.908,196.353,141.699,194.329,141.725C192.305,141.752,190.281,142.013,188.257,141.96C186.233,141.907,184.208,141.54,182.184,141.958C180.16,142.376,178.136,143.58,176.112,144.853C174.088,146.126,172.064,147.467,170.039,147.201C168.015,146.935,165.991,145.061,163.967,144.625C161.943,144.19,159.919,145.193,157.895,145.799C155.87,146.405,153.846,146.614,151.822,147.503C149.798,148.391,147.774,149.958,145.75,149.906C143.726,149.854,141.701,148.182,139.677,148.025C137.653,147.869,135.629,149.229,133.605,150.927C131.581,152.626,129.557,154.664,127.532,156.524C125.508,158.384,123.484,160.066,121.46,160.354C119.436,160.642,117.412,159.537,115.388,159.193C113.363,158.85,111.339,159.268,109.315,160.863C107.291,162.458,105.267,165.229,103.243,168.235C101.219,171.241,99.194,174.481,97.17,176.389C95.146,178.297,93.122,178.872,91.098,179.788C89.074,180.703,87.05,181.959,85.025,183.999C83.001,186.039,80.977,188.863,78.953,191.946C76.929,195.03,74.905,198.374,72.881,200.386C70.856,202.399,68.832,203.08,66.808,207.604C64.784,212.128,62.76,220.495,60.736,223.895C58.712,227.294,56.687,225.725,54.663,229.046C52.639,232.366,50.615,240.575,48.591,246.065C46.567,251.556,44.543,254.327,42.518,258.039C40.494,261.75,38.47,266.403,36.446,273.256C34.422,280.109,32.398,289.164,30.374,298.629C28.349,308.093,26.325,317.968,24.301,328.343C22.277,338.718,20.253,349.592,18.229,355.945C16.205,362.298,14.181,364.129,12.156,369.359C10.132,374.588,8.108,383.216,6.084,395.895Z" fill="#FF5F33" opacity="0.3"/></g></g><path class="foreground" aria-hidden="true" d="" display="none"/></g><g transform="translate(0,0)"><path class="background" aria-hidden="true" d="M0,0h600v400h-600Z"/><g><g class="mark-area role-mark layer_0_layer_0_marks" clip-path="url(#clip2)" role="graphics-object" aria-roledescription="area mark container"><path aria-label="Number of environment steps: 200.38k; Success rate: 0.0796666666667; upper_Success rate: 0.115666666667; Width: 512; Ci1 of Success rate: 0.115666666667; Ci0 of Success rate: 0.0796666666667; Mean of Success rate: 0.0993333333333" role="graphics-symbol" aria-roledescription="errorband" d="M6.084,397.571C8.108,389.545,10.132,387.243,12.156,379.321C14.181,371.399,16.205,357.856,18.229,348.261C20.253,338.667,22.277,333.02,24.301,325.229C26.325,317.438,28.349,307.503,30.374,298.693C32.398,289.884,34.422,282.199,36.446,274.199C38.47,266.199,40.494,257.884,42.518,252.811C44.543,247.739,46.567,245.908,48.591,241.151C50.615,236.393,52.639,228.708,54.663,220.604C56.687,212.499,58.712,203.975,60.736,199.375C62.76,194.774,64.784,194.097,66.808,191.639C68.832,189.182,70.856,184.944,72.881,179.583C74.905,174.222,76.929,167.739,78.953,163.974C80.977,160.209,83.001,159.163,85.025,158.197C87.05,157.231,89.074,156.345,91.098,154.829C93.122,153.314,95.146,151.169,97.17,149.651C99.194,148.133,101.219,147.243,103.243,147.078C105.267,146.913,107.291,147.473,109.315,144.924C111.339,142.375,113.363,136.717,115.388,134.006C117.412,131.294,119.436,131.529,121.46,132.771C123.484,134.013,125.508,136.261,127.532,135.974C129.557,135.686,131.581,132.863,133.605,131.294C135.629,129.725,137.653,129.412,139.677,128.889C141.701,128.366,143.726,127.634,145.75,127.137C147.774,126.641,149.798,126.379,151.822,125.856C153.846,125.333,155.87,124.549,157.895,124.728C159.919,124.908,161.943,126.05,163.967,125.815C165.991,125.58,168.015,123.966,170.039,123.81C172.064,123.653,174.088,124.952,176.112,125.345C178.136,125.737,180.16,125.221,182.184,125.225C184.208,125.229,186.233,125.752,188.257,124.306C190.281,122.861,192.305,119.447,194.329,118.611C196.353,117.774,198.377,119.514,200.402,119.783C202.426,120.052,204.45,118.85,206.474,118.876C208.498,118.902,210.522,120.157,212.546,121.098C214.571,122.039,216.595,122.667,218.619,122.719C220.643,122.771,222.667,122.248,224.691,120.915C226.715,119.582,228.739,117.438,230.764,117.464C232.788,117.49,234.812,119.686,236.836,120.366C238.86,121.046,240.884,120.209,242.908,119.28C244.933,118.35,246.957,117.328,248.981,117.041C251.005,116.753,253.029,117.2,255.053,117.715C257.077,118.23,259.102,118.812,261.126,118.446C263.15,118.08,265.174,116.766,267.198,117.337C269.222,117.908,271.246,120.366,273.271,120.158C275.295,119.949,277.319,117.075,279.343,115.808C281.367,114.542,283.391,114.885,285.415,115.407C287.44,115.929,289.464,116.631,291.488,117.374C293.512,118.118,295.536,118.902,297.56,118.51C299.584,118.118,301.609,116.549,303.633,114.98C305.657,113.412,307.681,111.843,309.705,111.059C311.729,110.275,313.753,110.275,315.778,110.614C317.802,110.954,319.826,111.634,321.85,111.817C323.874,112,325.898,111.686,327.922,111.268C329.947,110.85,331.971,110.327,333.995,110.476C336.019,110.626,338.043,111.447,340.067,111.578C342.091,111.709,344.116,111.148,346.14,111C348.164,110.851,350.188,111.114,352.212,110.774C354.236,110.434,356.26,109.492,358.285,108.863C360.309,108.235,362.333,107.922,364.357,107.634C366.381,107.346,368.405,107.085,370.429,107.582C372.454,108.078,374.478,109.333,376.502,110.144C378.526,110.956,380.55,111.323,382.574,110.696C384.598,110.069,386.623,108.448,388.647,107.794C390.671,107.14,392.695,107.452,394.719,107.978C396.743,108.504,398.767,109.244,400.792,109.27C402.816,109.296,404.84,108.609,406.864,107.769C408.888,106.929,410.912,105.937,412.936,105.206C414.961,104.475,416.985,104.004,419.009,102.83C421.033,101.656,423.057,99.779,425.081,99.439C427.105,99.098,429.129,100.294,431.154,101.284C433.178,102.275,435.202,103.059,437.226,103.32C439.25,103.582,441.274,103.32,443.298,103.059C445.323,102.797,447.347,102.536,449.371,103.19C451.395,103.843,453.419,105.412,455.443,105.02C457.467,104.627,459.492,102.275,461.516,100.916C463.54,99.557,465.564,99.192,467.588,100.085C469.612,100.977,471.636,103.127,473.661,103.467C475.685,103.806,477.709,102.334,479.733,101.685C481.757,101.036,483.781,101.209,485.805,100.765C487.83,100.322,489.854,99.263,491.878,97.845C493.902,96.426,495.926,94.648,497.95,94.461C499.974,94.275,501.999,95.678,504.023,96.043C506.047,96.408,508.071,95.733,510.095,95.476C512.119,95.218,514.143,95.378,516.168,96.502C518.192,97.626,520.216,99.715,522.24,98.649C524.264,97.584,526.288,93.363,528.312,92.37C530.337,91.376,532.361,93.61,534.385,95.145C536.409,96.68,538.433,97.516,540.457,97.778C542.481,98.041,544.506,97.728,546.53,96.753C548.554,95.779,550.578,94.141,552.602,92.755C554.626,91.369,556.65,90.233,558.675,89.247C560.699,88.261,562.723,87.425,564.747,87.634C566.771,87.843,568.795,89.098,570.819,88.426C572.844,87.755,574.868,85.156,576.892,83.812C578.916,82.468,580.94,82.379,582.964,82.492C584.988,82.606,587.013,82.923,589.037,83.404L589.037,63.627C587.013,62.969,584.988,62.611,582.964,62.543C580.94,62.476,578.916,62.7,576.892,64.194C574.868,65.687,572.844,68.449,570.819,69.256C568.795,70.063,566.771,68.914,564.747,68.993C562.723,69.072,560.699,70.379,558.675,70.894C556.65,71.41,554.626,71.134,552.602,70.872C550.578,70.611,548.554,70.364,546.53,70.921C544.506,71.477,542.481,72.837,540.457,72.967C538.433,73.098,536.409,72,534.385,70.367C532.361,68.735,530.337,66.567,528.312,67.456C526.288,68.345,524.264,72.29,522.24,73.608C520.216,74.927,518.192,73.618,516.168,73.512C514.143,73.407,512.119,74.503,510.095,74.462C508.071,74.421,506.047,73.243,504.023,72.746C501.999,72.249,499.974,72.434,497.95,72.685C495.926,72.935,493.902,73.25,491.878,72.463C489.854,71.676,487.83,69.788,485.805,68.977C483.781,68.165,481.757,68.432,479.733,69.463C477.709,70.493,475.685,72.289,473.661,73.048C471.636,73.808,469.612,73.531,467.588,73.733C465.564,73.935,463.54,74.614,461.516,75.503C459.492,76.391,457.467,77.488,455.443,77.54C453.419,77.592,451.395,76.6,449.371,75.761C447.347,74.923,445.323,74.238,443.298,74.682C441.274,75.127,439.25,76.701,437.226,76.886C435.202,77.072,433.178,75.869,431.154,75.462C429.129,75.055,427.105,75.444,425.081,76.148C423.057,76.853,421.033,77.873,419.009,78.097C416.985,78.322,414.961,77.749,412.936,78.142C410.912,78.536,408.888,79.895,406.864,81.688C404.84,83.48,402.816,85.705,400.792,85.626C398.767,85.548,396.743,83.166,394.719,81.397C392.695,79.627,390.671,78.471,388.647,78.601C386.623,78.732,384.598,80.15,382.574,81.094C380.55,82.038,378.526,82.507,376.502,82.48C374.478,82.454,372.454,81.931,370.429,82.271C368.405,82.61,366.381,83.813,364.357,83.578C362.333,83.344,360.309,81.672,358.285,81.567C356.26,81.461,354.236,82.923,352.212,83.55C350.188,84.178,348.164,83.971,346.14,84.607C344.116,85.244,342.091,86.723,340.067,86.88C338.043,87.036,336.019,85.871,333.995,86.072C331.971,86.273,329.947,87.841,327.922,89.565C325.898,91.29,323.874,93.173,321.85,93.905C319.826,94.638,317.802,94.221,315.778,95.372C313.753,96.523,311.729,99.242,309.705,101.83C307.681,104.418,305.657,106.876,303.633,108.314C301.609,109.752,299.584,110.17,297.56,110.405C295.536,110.639,293.512,110.69,291.488,110.567C289.464,110.444,287.44,110.146,285.415,109.546C283.391,108.945,281.367,108.041,279.343,108.504C277.319,108.967,275.295,110.797,273.271,111.033C271.246,111.268,269.222,109.908,267.198,109.804C265.174,109.699,263.15,110.85,261.126,111.111C259.102,111.373,257.077,110.745,255.053,110.79C253.029,110.835,251.005,111.552,248.981,112.205C246.957,112.859,244.933,113.449,242.908,113.666C240.884,113.882,238.86,113.725,236.836,113.699C234.812,113.673,232.788,113.778,230.764,114.353C228.739,114.928,226.715,115.974,224.691,116.627C222.667,117.281,220.643,117.542,218.619,117.752C216.595,117.961,214.571,118.118,212.546,117.595C210.522,117.072,208.498,115.869,206.474,115.242C204.45,114.614,202.426,114.562,200.402,114.431C198.377,114.301,196.353,114.092,194.329,114.98C192.305,115.869,190.281,117.856,188.257,118.641C186.233,119.425,184.208,119.007,182.184,119.111C180.16,119.216,178.136,119.843,176.112,119.126C174.088,118.409,172.064,116.347,170.039,116.661C168.015,116.975,165.991,119.664,163.967,120.433C161.943,121.203,159.919,120.052,157.895,120.321C155.87,120.59,153.846,122.278,151.822,122.592C149.798,122.906,147.774,121.845,145.75,121.289C143.726,120.732,141.701,120.68,139.677,121.621C137.653,122.562,135.629,124.497,133.605,126.902C131.581,129.307,129.557,132.183,127.532,132.418C125.508,132.654,123.484,130.248,121.46,128.248C119.436,126.248,117.412,124.654,115.388,126.248C113.363,127.843,111.339,132.627,109.315,135.046C107.291,137.464,105.267,137.516,103.243,136.732C101.219,135.948,99.194,134.327,97.17,133.987C95.146,133.647,93.122,134.588,91.098,136.131C89.074,137.673,87.05,139.817,85.025,140.784C83.001,141.752,80.977,141.542,78.953,142.771C76.929,144,74.905,146.667,72.881,149.804C70.856,152.941,68.832,156.549,66.808,161.203C64.784,165.856,62.76,171.556,60.736,176.052C58.712,180.548,56.687,183.841,54.663,188.18C52.639,192.52,50.615,197.907,48.591,205.803C46.567,213.699,44.543,224.105,42.518,230.954C40.494,237.804,38.47,241.098,36.446,248.601C34.422,256.105,32.398,267.817,30.374,277.516C28.349,287.216,26.325,294.902,24.301,300.757C22.277,306.612,20.253,310.635,18.229,322.295C16.205,333.954,14.181,353.25,12.156,361.878C10.132,370.507,8.108,368.469,6.084,375.738Z" fill="#FF4B33" opacity="0.3"/></g></g><path class="foreground" aria-hidden="true" d="" display="none"/></g><g transform="translate(0,0)"><path class="background" aria-hidden="true" d="M0,0h600v400h-600Z"/><g><g class="mark-area role-mark layer_0_layer_0_marks" clip-path="url(#clip3)" role="graphics-object" aria-roledescription="area mark container"><path aria-label="Number of environment steps: 200.38k; Success rate: 0.0796416666667; upper_Success rate: 0.122675; Width: 1024; Ci1 of Success rate: 0.122675; Ci0 of Success rate: 0.0796416666667; Mean of Success rate: 0.101666666667" role="graphics-symbol" aria-roledescription="errorband" d="M6.084,392.739C8.108,378.829,10.132,364.238,12.156,349.361C14.181,334.484,16.205,319.32,18.229,310.719C20.253,302.118,22.277,300.078,24.301,291.712C26.325,283.346,28.349,268.654,30.374,259.033C32.398,249.412,34.422,244.863,36.446,238.222C38.47,231.582,40.494,222.85,42.518,217.465C44.543,212.081,46.567,210.044,48.591,204.188C50.615,198.332,52.639,188.656,54.663,179.949C56.687,171.242,58.712,163.503,60.736,159.818C62.76,156.132,64.784,156.499,66.808,154.748C68.832,152.996,70.856,149.125,72.881,145.831C74.905,142.536,76.929,139.817,78.953,136.575C80.977,133.333,83.001,129.569,85.025,127.216C87.05,124.863,89.074,123.922,91.098,124.489C93.122,125.057,95.146,127.134,97.17,127.096C99.194,127.059,101.219,124.908,103.243,123.451C105.267,121.994,107.291,121.232,109.315,120.355C111.339,119.477,113.363,118.484,115.388,118.693C117.412,118.902,119.436,120.314,121.46,121.02C123.484,121.725,125.508,121.725,127.532,121.674C129.557,121.622,131.581,121.519,133.605,121.101C135.629,120.682,137.653,119.949,139.677,118.563C141.701,117.176,143.726,115.137,145.75,113.804C147.774,112.471,149.798,111.843,151.822,110.954C153.846,110.065,155.87,108.915,157.895,107.529C159.919,106.144,161.943,104.523,163.967,103.242C165.991,101.961,168.015,101.02,170.039,99.712C172.064,98.405,174.088,96.732,176.112,96.08C178.136,95.429,180.16,95.799,182.184,95.731C184.208,95.664,186.233,95.16,188.257,95.262C190.281,95.365,192.305,96.075,194.329,94.835C196.353,93.595,198.377,90.405,200.402,88.34C202.426,86.275,204.45,85.333,206.474,84.131C208.498,82.929,210.522,81.467,212.546,80.788C214.571,80.11,216.595,80.216,218.619,80.372C220.643,80.528,222.667,80.735,224.691,79.06C226.715,77.386,228.739,73.83,230.764,72.183C232.788,70.537,234.812,70.799,236.836,70.045C238.86,69.29,240.884,67.519,242.908,67.362C244.933,67.204,246.957,68.661,248.981,69.415C251.005,70.17,253.029,70.222,255.053,69.427C257.077,68.631,259.102,66.988,261.126,66.099C263.15,65.21,265.174,65.076,267.198,65.244C269.222,65.412,271.246,65.882,273.271,65.752C275.295,65.621,277.319,64.889,279.343,65.386C281.367,65.882,283.391,67.608,285.415,67.38C287.44,67.152,289.464,64.971,291.488,64.605C293.512,64.239,295.536,65.688,297.56,66.334C299.584,66.98,301.609,66.824,303.633,66.432C305.657,66.041,307.681,65.414,309.705,65.467C311.729,65.519,313.753,66.25,315.778,66.301C317.802,66.353,319.826,65.725,321.85,65.386C323.874,65.046,325.898,64.993,327.922,64.993C329.947,64.993,331.971,65.046,333.995,64.993C336.019,64.941,338.043,64.784,340.067,64.81C342.091,64.837,344.116,65.046,346.14,64.758C348.164,64.471,350.188,63.686,352.212,63.869C354.236,64.052,356.26,65.203,358.285,65.595C360.309,65.987,362.333,65.621,364.357,65.307C366.381,64.993,368.405,64.732,370.429,64.549C372.454,64.366,374.478,64.261,376.502,64.228C378.526,64.194,380.55,64.232,382.574,64.676C384.598,65.12,386.623,65.972,388.647,65.823C390.671,65.673,392.695,64.523,394.719,63.975C396.743,63.426,398.767,63.48,400.792,64.735C402.816,65.991,404.84,68.448,406.864,69.467C408.888,70.486,410.912,70.067,412.936,69.7C414.961,69.333,416.985,69.02,419.009,68.601C421.033,68.183,423.057,67.66,425.081,66.614C427.105,65.569,429.129,64,431.154,64.441C433.178,64.881,435.202,67.331,437.226,67.671C439.25,68.011,441.274,66.241,443.298,65.382C445.323,64.523,447.347,64.575,449.371,65.098C451.395,65.621,453.419,66.614,455.443,66.667C457.467,66.719,459.492,65.83,461.516,64.732C463.54,63.634,465.564,62.327,467.588,61.883C469.612,61.439,471.636,61.859,473.661,62.042C475.685,62.225,477.709,62.171,479.733,62.641C481.757,63.111,483.781,64.105,485.805,65.02C487.83,65.935,489.854,66.771,491.878,67.059C493.902,67.346,495.926,67.085,497.95,66.484C499.974,65.882,501.999,64.941,504.023,64.68C506.047,64.418,508.071,64.837,510.095,64.863C512.119,64.889,514.143,64.523,516.168,64.157C518.192,63.791,520.216,63.425,522.24,63.556C524.264,63.686,526.288,64.314,528.312,64.314C530.337,64.314,532.361,63.686,534.385,63.686C536.409,63.686,538.433,64.314,540.457,64.366C542.481,64.418,544.506,63.895,546.53,63.686C548.554,63.477,550.578,63.582,552.602,63.948C554.626,64.314,556.65,64.941,558.675,65.516C560.699,66.092,562.723,66.614,564.747,66.954C566.771,67.294,568.795,67.451,570.819,67.086C572.844,66.72,574.868,65.833,576.892,66.094C578.916,66.356,580.94,67.766,582.964,68.053C584.988,68.34,587.013,67.503,589.037,67.085L589.037,58.484C587.013,59.294,584.988,59.922,582.964,59.974C580.94,60.026,578.916,59.503,576.892,58.928C574.868,58.353,572.844,57.725,570.819,57.569C568.795,57.412,566.771,57.725,564.747,57.804C562.723,57.882,560.699,57.725,558.675,57.725C556.65,57.725,554.626,57.882,552.602,57.725C550.578,57.569,548.554,57.098,546.53,56.863C544.506,56.627,542.481,56.627,540.457,57.333C538.433,58.039,536.409,59.451,534.385,60.157C532.361,60.863,530.337,60.863,528.312,60.575C526.288,60.288,524.264,59.712,522.24,59.163C520.216,58.614,518.192,58.092,516.168,58.143C514.143,58.195,512.119,58.821,510.095,59.265C508.071,59.71,506.047,59.973,504.023,60.496C501.999,61.02,499.974,61.804,497.95,62.222C495.926,62.641,493.902,62.693,491.878,61.699C489.854,60.706,487.83,58.667,485.805,57.752C483.781,56.837,481.757,57.046,479.733,57.124C477.709,57.201,475.685,57.148,473.661,57.2C471.636,57.252,469.612,57.41,467.588,57.359C465.564,57.307,463.54,57.046,461.516,57.595C459.492,58.144,457.467,59.503,455.443,60.314C453.419,61.124,451.395,61.386,449.371,60.654C447.347,59.922,445.323,58.196,443.298,58.073C441.274,57.95,439.25,59.429,437.226,59.585C435.202,59.742,433.178,58.577,431.154,58.256C429.129,57.935,427.105,58.458,425.081,59.085C423.057,59.712,421.033,60.444,419.009,60.452C416.985,60.459,414.961,59.742,412.936,59.873C410.912,60.004,408.888,60.982,406.864,60.713C404.84,60.444,402.816,58.928,400.792,58.457C398.767,57.986,396.743,58.559,394.719,59.135C392.695,59.71,390.671,60.286,388.647,60.515C386.623,60.743,384.598,60.624,382.574,60.467C380.55,60.31,378.526,60.116,376.502,60.097C374.478,60.078,372.454,60.235,370.429,59.869C368.405,59.503,366.381,58.614,364.357,58.118C362.333,57.621,360.309,57.516,358.285,57.203C356.26,56.889,354.236,56.366,352.212,56.627C350.188,56.889,348.164,57.935,346.14,57.62C344.116,57.306,342.091,55.631,340.067,55.395C338.043,55.159,336.019,56.362,333.995,56.886C331.971,57.409,329.947,57.254,327.922,57.908C325.898,58.562,323.874,60.026,321.85,60.81C319.826,61.593,317.802,61.697,315.778,60.86C313.753,60.024,311.729,58.247,309.705,57.855C307.681,57.463,305.657,58.455,303.633,58.69C301.609,58.925,299.584,58.404,297.56,58.401C295.536,58.398,293.512,58.913,291.488,59.279C289.464,59.645,287.44,59.862,285.415,59.054C283.391,58.247,281.367,56.416,279.343,55.945C277.319,55.475,275.295,56.365,273.271,57.071C271.246,57.778,269.222,58.301,267.198,58.797C265.174,59.294,263.15,59.765,261.126,60.183C259.102,60.601,257.077,60.967,255.053,61.098C253.029,61.229,251.005,61.124,248.981,60.829C246.957,60.533,244.933,60.046,242.908,60.131C240.884,60.216,238.86,60.873,236.836,61.613C234.812,62.353,232.788,63.176,230.764,64.163C228.739,65.15,226.715,66.301,224.691,65.961C222.667,65.621,220.643,63.791,218.619,63.294C216.595,62.797,214.571,63.634,212.546,64.444C210.522,65.255,208.498,66.039,206.474,66.327C204.45,66.614,202.426,66.405,200.402,68.34C198.377,70.275,196.353,74.353,194.329,75.15C192.305,75.947,190.281,73.463,188.257,71.815C186.233,70.168,184.208,69.359,182.184,69.424C180.16,69.49,178.136,70.431,176.112,71.582C174.088,72.732,172.064,74.092,170.039,76.837C168.015,79.582,165.991,83.712,163.967,85.411C161.943,87.11,159.919,86.376,157.895,88.756C155.87,91.135,153.846,96.626,151.822,99.45C149.798,102.275,147.774,102.431,145.75,102.797C143.726,103.163,141.701,103.739,139.677,105.02C137.653,106.301,135.629,108.288,133.605,109.333C131.581,110.379,129.557,110.484,127.532,110.954C125.508,111.424,123.484,112.259,121.46,111.814C119.436,111.37,117.412,109.646,115.388,109.855C113.363,110.064,111.339,112.207,109.315,113.469C107.291,114.731,105.267,115.114,103.243,115.775C101.219,116.436,99.194,117.376,97.17,117.944C95.146,118.511,93.122,118.707,91.098,119.013C89.074,119.32,87.05,119.739,85.025,121.673C83.001,123.608,80.977,127.059,78.953,130.065C76.929,133.072,74.905,135.634,72.881,137.621C70.856,139.608,68.832,141.02,66.808,140.575C64.784,140.131,62.76,137.83,60.736,140.078C58.712,142.325,56.687,149.122,54.663,156.311C52.639,163.501,50.615,171.084,48.591,177.568C46.567,184.052,44.543,189.438,42.518,194.458C40.494,199.477,38.47,204.131,36.446,209.15C34.422,214.17,32.398,219.556,30.374,228.549C28.349,237.542,26.325,250.144,24.301,260.052C22.277,269.961,20.253,277.176,18.229,286.535C16.205,295.894,14.181,307.396,12.156,321.906C10.132,336.416,8.108,353.933,6.084,369.593Z" fill="#E0392D" opacity="0.3"/></g></g><path class="foreground" aria-hidden="true" d="" display="none"/></g><g transform="translate(0,0)"><path class="background" aria-hidden="true" d="M0,0h600v400h-600Z"/><g><g class="mark-area role-mark layer_0_layer_0_marks" clip-path="url(#clip4)" role="graphics-object" aria-roledescription="area mark container"><path aria-label="Number of environment steps: 200.38k; Success rate: 0.109983333333; upper_Success rate: 0.169333333333; Width: 2048; Ci1 of Success rate: 0.169333333333; Ci0 of Success rate: 0.109983333333; Mean of Success rate: 0.140333333333" role="graphics-symbol" aria-roledescription="errorband" d="M6.084,370.616C8.108,356.706,10.132,346.039,12.156,330.588C14.181,315.137,16.205,294.902,18.229,280.184C20.253,265.465,22.277,256.264,24.301,248.473C26.325,240.682,28.349,234.302,30.374,229.622C32.398,224.942,34.422,221.963,36.446,213.086C38.47,204.208,40.494,189.432,42.518,180.804C44.543,172.176,46.567,169.696,48.591,166.024C50.615,162.353,52.639,157.49,54.663,154.693C56.687,151.895,58.712,151.163,60.736,148C62.76,144.837,64.784,139.242,66.808,136.418C68.832,133.595,70.856,133.542,72.881,133.203C74.905,132.863,76.929,132.235,78.953,130.902C80.977,129.569,83.001,127.529,85.025,127.007C87.05,126.484,89.074,127.477,91.098,127.963C93.122,128.449,95.146,128.428,97.17,127.905C99.194,127.382,101.219,126.358,103.243,124.434C105.267,122.51,107.291,119.686,109.315,117.542C111.339,115.399,113.363,113.935,115.388,113.047C117.412,112.159,119.436,111.848,121.46,111.273C123.484,110.698,125.508,109.859,127.532,108.916C129.557,107.974,131.581,106.928,133.605,106.379C135.629,105.83,137.653,105.778,139.677,104.314C141.701,102.85,143.726,99.974,145.75,96.838C147.774,93.702,149.798,90.306,151.822,86.62C153.846,82.933,155.87,78.957,157.895,76.368C159.919,73.779,161.943,72.578,163.967,71.14C165.991,69.702,168.015,68.027,170.039,67.53C172.064,67.033,174.088,67.712,176.112,67.608C178.136,67.503,180.16,66.614,182.184,66.431C184.208,66.248,186.233,66.771,188.257,66.98C190.281,67.19,192.305,67.085,194.329,65.15C196.353,63.216,198.377,59.451,200.402,59.373C202.426,59.294,204.45,62.902,206.474,64.314C208.498,65.725,210.522,64.941,212.546,63.425C214.571,61.908,216.595,59.66,218.619,59.111C220.643,58.562,222.667,59.712,224.691,60.261C226.715,60.81,228.739,60.758,230.764,61.203C232.788,61.648,234.812,62.591,236.836,63.166C238.86,63.741,240.884,63.949,242.908,62.615C244.933,61.281,246.957,58.405,248.981,58.197C251.005,57.988,253.029,60.447,255.053,61.336C257.077,62.225,259.102,61.544,261.126,60.288C263.15,59.033,265.174,57.203,267.198,55.784C269.222,54.366,271.246,53.359,273.271,53.255C275.295,53.15,277.319,53.948,279.343,54.139C281.367,54.329,283.391,53.914,285.415,53.783C287.44,53.652,289.464,53.807,291.488,54.354C293.512,54.902,295.536,55.843,297.56,56.105C299.584,56.366,301.609,55.948,303.633,55.661C305.657,55.374,307.681,55.218,309.705,55.061C311.729,54.905,313.753,54.746,315.778,55.321C317.802,55.895,319.826,57.203,321.85,57.281C323.874,57.359,325.898,56.209,327.922,56.601C329.947,56.993,331.971,58.928,333.995,59.19C336.019,59.451,338.043,58.039,340.067,57.778C342.091,57.516,344.116,58.405,346.14,60.184C348.164,61.963,350.188,64.633,352.212,64.817C354.236,65.001,356.26,62.701,358.285,60.948C360.309,59.195,362.333,57.99,364.357,56.969C366.381,55.948,368.405,55.111,370.429,55.346C372.454,55.582,374.478,56.889,376.502,58.487C378.526,60.086,380.55,61.976,382.574,62.08C384.598,62.185,386.623,60.504,388.647,59.455C390.671,58.405,392.695,57.987,394.719,57.647C396.743,57.307,398.767,57.046,400.792,55.556C402.816,54.067,404.84,51.349,406.864,50.173C408.888,48.997,410.912,49.363,412.936,50.147C414.961,50.931,416.985,52.132,419.009,51.765C421.033,51.399,423.057,49.464,425.081,47.634C427.105,45.804,429.129,44.078,431.154,43.242C433.178,42.407,435.202,42.46,437.226,43.82C439.25,45.179,441.274,47.844,443.298,48.154C445.323,48.463,447.347,46.416,449.371,45.476C451.395,44.535,453.419,44.701,455.443,45.045C457.467,45.388,459.492,45.91,461.516,46.25C463.54,46.59,465.564,46.748,467.588,45.939C469.612,45.129,471.636,43.353,473.661,42.542C475.685,41.731,477.709,41.885,479.733,42.093C481.757,42.301,483.781,42.562,485.805,43.556C487.83,44.549,489.854,46.275,491.878,46.929C493.902,47.583,495.926,47.166,497.95,45.911C499.974,44.656,501.999,42.563,504.023,40.285C506.047,38.006,508.071,35.541,510.095,35.201C512.119,34.862,514.143,36.649,516.168,36.178C518.192,35.708,520.216,32.98,522.24,32.848C524.264,32.717,526.288,35.182,528.312,38.166C530.337,41.15,532.361,44.654,534.385,46.877C536.409,49.101,538.433,50.044,540.457,49.996C542.481,49.947,544.506,48.906,546.53,48.252C548.554,47.597,550.578,47.328,552.602,47.194C554.626,47.06,556.65,47.061,558.675,46.487C560.699,45.912,562.723,44.762,564.747,43.402C566.771,42.042,568.795,40.472,570.819,40.968C572.844,41.464,574.868,44.026,576.892,46.092C578.916,48.157,580.94,49.725,582.964,50.954C584.988,52.183,587.013,53.072,589.037,51.871L589.037,32.86C587.013,32.991,584.988,32.574,582.964,31.555C580.94,30.536,578.916,28.915,576.892,27.294C574.868,25.673,572.844,24.052,570.819,24.157C568.795,24.261,566.771,26.092,564.747,27.503C562.723,28.914,560.699,29.906,558.675,30.089C556.65,30.272,554.626,29.646,552.602,29.964C550.578,30.282,548.554,31.544,546.53,31.675C544.506,31.806,542.481,30.805,540.457,30.984C538.433,31.163,536.409,32.523,534.385,32.471C532.361,32.418,530.337,30.954,528.312,29.542C526.288,28.131,524.264,26.771,522.24,26.431C520.216,26.09,518.192,26.769,516.168,26.881C514.143,26.993,512.119,26.538,510.095,26.721C508.071,26.903,506.047,27.722,504.023,29.204C501.999,30.686,499.974,32.831,497.95,34.14C495.926,35.448,493.902,35.92,491.878,36.104C489.854,36.288,487.83,36.183,485.805,34.719C483.781,33.255,481.757,30.431,479.733,29.203C477.709,27.974,475.685,28.34,473.661,29.464C471.636,30.588,469.612,32.471,467.588,34.222C465.564,35.974,463.54,37.595,461.516,37.255C459.492,36.915,457.467,34.614,455.443,33.479C453.419,32.344,451.395,32.373,449.371,33.158C447.347,33.942,445.323,35.481,443.298,35.257C441.274,35.033,439.25,33.046,437.226,31.79C435.202,30.535,433.178,30.01,431.154,31.292C429.129,32.573,427.105,35.659,425.081,37.385C423.057,39.111,421.033,39.477,419.009,40.078C416.985,40.68,414.961,41.516,412.936,41.229C410.912,40.941,408.888,39.529,406.864,39.477C404.84,39.425,402.816,40.732,400.792,40.259C398.767,39.787,396.743,37.535,394.719,37.352C392.695,37.169,390.671,39.055,388.647,40.973C386.623,42.891,384.598,44.84,382.574,44.553C380.55,44.265,378.526,41.74,376.502,40.243C374.478,38.745,372.454,38.275,370.429,38.325C368.405,38.376,366.381,38.949,364.357,39.497C362.333,40.046,360.309,40.57,358.285,41.146C356.26,41.722,354.236,42.349,352.212,43.342C350.188,44.336,348.164,45.695,346.14,44.703C344.116,43.71,342.091,40.365,340.067,39.996C338.043,39.627,336.019,42.235,333.995,41.895C331.971,41.554,329.947,38.265,327.922,37.066C325.898,35.867,323.874,36.757,321.85,36.594C319.826,36.43,317.802,35.214,315.778,34.219C313.753,33.224,311.729,32.451,309.705,32.145C307.681,31.838,305.657,31.997,303.633,32.992C301.609,33.987,299.584,35.817,297.56,37.098C295.536,38.379,293.512,39.111,291.488,39.267C289.464,39.424,287.44,39.004,285.415,38.612C283.391,38.22,281.367,37.855,279.343,36.365C277.319,34.876,275.295,32.261,273.271,33.124C271.246,33.987,269.222,38.327,267.198,40.444C265.174,42.562,263.15,42.458,261.126,43.346C259.102,44.235,257.077,46.118,255.053,46.353C253.029,46.588,251.005,45.176,248.981,45.15C246.957,45.124,244.933,46.484,242.908,46.484C240.884,46.484,238.86,45.124,236.836,43.841C234.812,42.558,232.788,41.352,230.764,41.742C228.739,42.132,226.715,44.119,224.691,45.088C222.667,46.056,220.643,46.007,218.619,46.741C216.595,47.475,214.571,48.992,212.546,51.215C210.522,53.438,208.498,56.366,206.474,56.549C204.45,56.732,202.426,54.17,200.402,54.144C198.377,54.118,196.353,56.627,194.329,57.281C192.305,57.935,190.281,56.732,188.257,56.235C186.233,55.737,184.208,55.945,182.184,56.311C180.16,56.677,178.136,57.201,176.112,56.914C174.088,56.627,172.064,55.529,170.039,55.608C168.015,55.686,165.991,56.941,163.967,58.98C161.943,61.02,159.919,63.843,157.895,65.856C155.87,67.868,153.846,69.069,151.822,70.48C149.798,71.892,147.774,73.512,145.75,75.291C143.726,77.069,141.701,79.005,139.677,80.261C137.653,81.516,135.629,82.092,133.605,84.706C131.581,87.32,129.557,91.974,127.532,93.307C125.508,94.639,123.484,92.651,121.46,92.912C119.436,93.174,117.412,95.685,115.388,98.117C113.363,100.549,111.339,102.902,109.315,105.752C107.291,108.601,105.267,111.948,103.243,114.326C101.219,116.705,99.194,118.115,97.17,118.691C95.146,119.266,93.122,119.005,91.098,119.058C89.074,119.111,87.05,119.477,85.025,120.732C83.001,121.987,80.977,124.131,78.953,125.359C76.929,126.587,74.905,126.899,72.881,126.088C70.856,125.277,68.832,123.343,66.808,124.808C64.784,126.272,62.76,131.136,60.736,133.882C58.712,136.627,56.687,137.255,54.663,138.588C52.639,139.922,50.615,141.961,48.591,143.047C46.567,144.133,44.543,144.267,42.518,150.123C40.494,155.979,38.47,167.558,36.446,176.72C34.422,185.881,32.398,192.625,30.374,202.01C28.349,211.396,26.325,223.424,24.301,233.437C22.277,243.451,20.253,251.451,18.229,262.98C16.205,274.508,14.181,289.566,12.156,302.899C10.132,316.233,8.108,327.842,6.084,342.222Z" fill="#B22B24" opacity="0.3"/></g></g><path class="foreground" aria-hidden="true" d="" display="none"/></g><g transform="translate(0,0)"><path class="background" aria-hidden="true" d="M0,0h600v400h-600Z"/><g><g class="mark-area role-mark layer_0_layer_0_marks" clip-path="url(#clip5)" role="graphics-object" aria-roledescription="area mark container"><path aria-label="Number of environment steps: 200.38k; Success rate: 0.1504; upper_Success rate: 0.16; Width: 4096; Ci1 of Success rate: 0.16; Ci0 of Success rate: 0.1504; Mean of Success rate: 0.1548" role="graphics-symbol" aria-roledescription="errorband" d="M6.084,359.498C8.108,344.659,10.132,327.718,12.156,305.255C14.181,282.792,16.205,254.808,18.229,236.173C20.253,217.537,22.277,208.251,24.301,199.78C26.325,191.31,28.349,183.655,30.374,178.667C32.398,173.678,34.422,171.357,36.446,170.824C38.47,170.29,40.494,171.545,42.518,169.694C44.543,167.843,46.567,162.886,48.591,158.745C50.615,154.604,52.639,151.278,54.663,147.984C56.687,144.69,58.712,141.427,60.736,139.639C62.76,137.851,64.784,137.537,66.808,138.102C68.832,138.667,70.856,140.11,72.881,139.106C74.905,138.102,76.929,134.651,78.953,132.769C80.977,130.886,83.001,130.573,85.025,130.165C87.05,129.757,89.074,129.255,91.098,128.534C93.122,127.813,95.146,126.874,97.17,125.87C99.194,124.866,101.219,123.798,103.243,122.731C105.267,121.664,107.291,120.599,109.315,118.999C111.339,117.399,113.363,115.264,115.388,112.973C117.412,110.682,119.436,108.235,121.46,106.541C123.484,104.847,125.508,103.906,127.532,103.718C129.557,103.529,131.581,104.094,133.605,102.933C135.629,101.773,137.653,98.886,139.677,99.576C141.701,100.267,143.726,104.533,145.75,103.843C147.774,103.153,149.798,97.506,151.822,92.518C153.846,87.529,155.87,83.2,157.895,80.251C159.919,77.302,161.943,75.733,163.967,72.565C165.991,69.396,168.015,64.627,170.039,63.278C172.064,61.929,174.088,64,176.112,64.91C178.136,65.82,180.16,65.569,182.184,64.722C184.208,63.875,186.233,62.431,188.257,61.493C190.281,60.554,192.305,60.119,194.329,59.115C196.353,58.111,198.377,56.538,200.402,56.944C202.426,57.349,204.45,59.733,206.474,60.925C208.498,62.118,210.522,62.118,212.546,60.831C214.571,59.545,216.595,56.973,218.619,54.557C220.643,52.141,222.667,49.882,224.691,50.29C226.715,50.698,228.739,53.773,230.764,54.431C232.788,55.09,234.812,53.333,236.836,52.392C238.86,51.451,240.884,51.325,242.908,50.761C244.933,50.196,246.957,49.192,248.981,49.506C251.005,49.82,253.029,51.451,255.053,52.267C257.077,53.082,259.102,53.082,261.126,53.365C263.15,53.647,265.174,54.212,267.198,52.486C269.222,50.761,271.246,46.745,273.271,46.306C275.295,45.867,277.319,49.004,279.343,50.85C281.367,52.695,283.391,53.25,285.415,51.116C287.44,48.983,289.464,44.162,291.488,42.222C293.512,40.282,295.536,41.224,297.56,42.384C299.584,43.545,301.609,44.925,303.633,46.421C305.657,47.916,307.681,49.527,309.705,51.169C311.729,52.81,313.753,54.484,315.778,55.969C317.802,57.454,319.826,58.75,321.85,58.618C323.874,58.485,325.898,56.922,327.922,56.013C329.947,55.103,331.971,54.845,333.995,54.309C336.019,53.773,338.043,52.957,340.067,51.827C342.091,50.698,344.116,49.255,346.14,49.725C348.164,50.196,350.188,52.58,352.212,53.71C354.236,54.839,356.26,54.714,358.285,56.282C360.309,57.851,362.333,61.114,364.357,60.298C366.381,59.482,368.405,54.588,370.429,53.208C372.454,51.827,374.478,53.961,376.502,55.027C378.526,56.094,380.55,56.094,382.574,54.714C384.598,53.333,386.623,50.573,388.647,48.659C390.671,46.745,392.695,45.678,394.719,45.742C396.743,45.805,398.767,46.999,400.792,49.478C402.816,51.956,404.84,55.719,406.864,55.185C408.888,54.651,410.912,49.82,412.936,50.227C414.961,50.635,416.985,56.282,419.009,58.071C421.033,59.859,423.057,57.788,425.081,57.6C427.105,57.412,429.129,59.106,431.154,58.667C433.178,58.227,435.202,55.655,437.226,54.212C439.25,52.769,441.274,52.455,443.298,50.541C445.323,48.627,447.347,45.114,449.371,43.89C451.395,42.667,453.419,43.733,455.443,43.388C457.467,43.043,459.492,41.286,461.516,41.853C463.54,42.419,465.564,45.308,467.588,45.277C469.612,45.245,471.636,42.293,473.661,41.978C475.685,41.663,477.709,43.984,479.733,44.894C481.757,45.804,483.781,45.302,485.805,45.773C487.83,46.243,489.854,47.686,491.878,47.468C493.902,47.25,495.926,45.371,497.95,45.876C499.974,46.381,501.999,49.271,504.023,52.72C506.047,56.169,508.071,60.179,510.095,58.513C512.119,56.847,514.143,49.506,516.168,46.902C518.192,44.298,520.216,46.431,522.24,47.09C524.264,47.749,526.288,46.933,528.312,44.486C530.337,42.039,532.361,37.961,534.385,36.58C536.409,35.2,538.433,36.518,540.457,37.961C542.481,39.404,544.506,40.973,546.53,40.601C548.554,40.23,550.578,37.919,552.602,36.508C554.626,35.097,556.65,34.586,558.675,36.212C560.699,37.838,562.723,41.602,564.747,40.911C566.771,40.22,568.795,35.075,570.819,33.851C572.844,32.627,574.868,35.325,576.892,37.647C578.916,39.969,580.94,41.914,582.964,41.788C584.988,41.663,587.013,39.467,589.037,38.557L589.037,31.592C587.013,33.318,584.988,34.071,582.964,33.757C580.94,33.443,578.916,32.063,576.892,30.651C574.868,29.239,572.844,27.796,570.819,27.482C568.795,27.167,566.771,27.981,564.747,28.013C562.723,28.044,560.699,27.293,558.675,26.885C556.65,26.478,554.626,26.416,552.602,26.854C550.578,27.293,548.554,28.232,546.53,28.326C544.506,28.42,542.481,27.669,540.457,27.199C538.433,26.729,536.409,26.541,534.385,28.047C532.361,29.553,530.337,32.753,528.312,35.2C526.288,37.647,524.264,39.341,522.24,38.776C520.216,38.212,518.192,35.388,516.168,35.7C514.143,36.013,512.119,39.46,510.095,39.555C508.071,39.649,506.047,36.389,504.023,33.849C501.999,31.31,499.974,29.49,497.95,29.616C495.926,29.741,493.902,31.812,491.878,31.937C489.854,32.063,487.83,30.243,485.805,29.271C483.781,28.298,481.757,28.173,479.733,28.047C477.709,27.922,475.685,27.796,473.661,27.827C471.636,27.859,469.612,28.047,467.588,28.424C465.564,28.8,463.54,29.365,461.516,30.494C459.492,31.624,457.467,33.318,455.443,33.788C453.419,34.259,451.395,33.506,449.371,34.572C447.347,35.638,445.323,38.522,443.298,38.427C441.274,38.333,439.25,35.258,437.226,35.164C435.202,35.07,433.178,37.956,431.154,39.682C429.129,41.409,427.105,41.975,425.081,41.662C423.057,41.349,421.033,40.157,419.009,39.812C416.985,39.467,414.961,39.969,412.936,40.188C410.912,40.408,408.888,40.345,406.864,39.216C404.84,38.086,402.816,35.89,400.792,34.729C398.767,33.567,396.743,33.44,394.719,32.938C392.695,32.436,390.671,31.559,388.647,31.403C386.623,31.247,384.598,31.812,382.574,32.594C380.55,33.376,378.526,34.375,376.502,35.63C374.478,36.885,372.454,38.395,370.429,39.872C368.405,41.349,366.381,42.792,364.357,41.851C362.333,40.91,360.309,37.584,358.285,35.514C356.26,33.443,354.236,32.627,352.212,32.471C350.188,32.314,348.164,32.816,346.14,33.224C344.116,33.631,342.091,33.945,340.067,35.294C338.043,36.643,336.019,39.027,333.995,40.188C331.971,41.349,329.947,41.286,327.922,42.384C325.898,43.482,323.874,45.741,321.85,44.361C319.826,42.98,317.802,37.961,315.778,35.895C313.753,33.83,311.729,34.719,309.705,35.66C307.681,36.601,305.657,37.595,303.633,37.59C301.609,37.584,299.584,36.58,297.56,35.294C295.536,34.008,293.512,32.439,291.488,32.784C289.464,33.129,287.44,35.388,285.415,36.361C283.391,37.333,281.367,37.02,279.343,36.737C277.319,36.455,275.295,36.204,273.271,36.047C271.246,35.89,269.222,35.827,267.198,36.267C265.174,36.706,263.15,37.647,261.126,38.463C259.102,39.278,257.077,39.969,255.053,39.467C253.029,38.965,251.005,37.271,248.981,37.145C246.957,37.02,244.933,38.463,242.908,38.306C240.884,38.149,238.86,36.392,236.836,35.608C234.812,34.824,232.788,35.012,230.764,35.953C228.739,36.894,226.715,38.588,224.691,39.216C222.667,39.843,220.643,39.404,218.619,40.22C216.595,41.035,214.571,43.106,212.546,45.271C210.522,47.435,208.498,49.694,206.474,49.16C204.45,48.626,202.426,45.299,200.402,42.915C198.377,40.53,196.353,39.089,194.329,39.591C192.305,40.094,190.281,42.541,188.257,42.416C186.233,42.29,184.208,39.592,182.184,40.376C180.16,41.161,178.136,45.427,176.112,46.871C174.088,48.314,172.064,46.933,170.039,48.063C168.015,49.192,165.991,52.831,163.967,54.525C161.943,56.22,159.919,55.969,157.895,57.475C155.87,58.98,153.846,62.243,151.822,65.067C149.798,67.89,147.774,70.275,145.75,72.973C143.726,75.671,141.701,78.682,139.677,79.686C137.653,80.69,135.629,79.686,133.605,78.212C131.581,76.737,129.557,74.792,127.532,76.047C125.508,77.302,123.484,81.757,121.46,86.494C119.436,91.231,117.412,96.251,115.388,100.549C113.363,104.847,111.339,108.424,109.315,110.776C107.291,113.129,105.267,114.259,103.243,114.541C101.219,114.824,99.194,114.259,97.17,114.98C95.146,115.702,93.122,117.71,91.098,118.461C89.074,119.213,87.05,118.707,85.025,118.08C83.001,117.453,80.977,116.703,78.953,118.963C76.929,121.224,74.905,126.494,72.881,128.784C70.856,131.075,68.832,130.384,66.808,130.008C64.784,129.631,62.76,129.569,60.736,131.294C58.712,133.02,56.687,136.533,54.663,138.949C52.639,141.365,50.615,142.682,48.591,145.379C46.567,148.075,44.543,152.151,42.518,154.472C40.494,156.794,38.47,157.362,36.446,156.704C34.422,156.047,32.398,154.165,30.374,157.459C28.349,160.753,26.325,169.224,24.301,178.635C22.277,188.047,20.253,198.4,18.229,215.059C16.205,231.718,14.181,254.682,12.156,274.158C10.132,293.635,8.108,309.622,6.084,329.23Z" fill="#7A1F18" opacity="0.3"/></g></g><path class="foreground" aria-hidden="true" d="" display="none"/></g></g><g class="mark-group role-scope layer_1_pathgroup" role="graphics-object" aria-roledescription="group mark container"><g transform="translate(0,0)"><path class="background" aria-hidden="true" d="M0,0h600v400h-600Z"/><g><g class="mark-line role-mark layer_1_marks" clip-path="url(#clip6)" role="graphics-object" aria-roledescription="line mark container"><path aria-label="Number of environment steps: 200.38k; Success rate: 0.044; Width: 256" role="graphics-symbol" aria-roledescription="line mark" d="M6.084,400C8.108,386.824,10.132,378.824,12.156,373.987C14.181,369.15,16.205,367.477,18.229,361.752C20.253,356.026,22.277,346.248,24.301,336.777C26.325,327.305,28.349,318.14,30.374,309.094C32.398,300.049,34.422,291.122,36.446,284.149C38.47,277.176,40.494,272.157,42.518,268.105C44.543,264.052,46.567,260.967,48.591,255.346C50.615,249.725,52.639,241.569,54.663,237.778C56.687,233.987,58.712,234.562,60.736,232.105C62.76,229.647,64.784,224.157,66.808,220.889C68.832,217.621,70.856,216.575,72.881,214.614C74.905,212.654,76.929,209.778,78.953,206.667C80.977,203.556,83.001,200.209,85.025,197.516C87.05,194.824,89.074,192.784,91.098,191.085C93.122,189.386,95.146,188.026,97.17,185.464C99.194,182.902,101.219,179.137,103.243,177.49C105.267,175.843,107.291,176.314,109.315,175.974C111.339,175.634,113.363,174.484,115.388,174.286C117.412,174.088,119.436,174.842,121.46,174.058C123.484,173.274,125.508,170.951,127.532,169.214C129.557,167.477,131.581,166.327,133.605,164.471C135.629,162.614,137.653,160.052,139.677,160C141.701,159.948,143.726,162.405,145.75,162.693C147.774,162.98,149.798,161.098,151.822,160.026C153.846,158.954,155.87,158.693,157.895,157.546C159.919,156.4,161.943,154.368,163.967,154.747C165.991,155.126,168.015,157.916,170.039,158.174C172.064,158.431,174.088,156.157,176.112,154.026C178.136,151.895,180.16,149.908,182.184,148.68C184.208,147.451,186.233,146.98,188.257,146.458C190.281,145.935,192.305,145.359,194.329,145.072C196.353,144.784,198.377,144.784,200.402,144.627C202.426,144.471,204.45,144.157,206.474,143.791C208.498,143.425,210.522,143.007,212.546,142.928C214.571,142.85,216.595,143.111,218.619,143.137C220.643,143.163,222.667,142.954,224.691,143.686C226.715,144.418,228.739,146.092,230.764,146.379C232.788,146.667,234.812,145.569,236.836,144.471C238.86,143.373,240.884,142.275,242.908,141.748C244.933,141.221,246.957,141.266,248.981,141.266C251.005,141.266,253.029,141.221,255.053,141.042C257.077,140.863,259.102,140.549,261.126,140.784C263.15,141.02,265.174,141.804,267.198,142.144C269.222,142.484,271.246,142.379,273.271,142.039C275.295,141.699,277.319,141.124,279.343,141.098C281.367,141.072,283.391,141.595,285.415,141.124C287.44,140.654,289.464,139.19,291.488,138.902C293.512,138.614,295.536,139.503,297.56,139.634C299.584,139.765,301.609,139.137,303.633,139.399C305.657,139.66,307.681,140.81,309.705,141.176C311.729,141.542,313.753,141.124,315.778,140.993C317.802,140.863,319.826,141.02,321.85,140.654C323.874,140.288,325.898,139.399,327.922,139.451C329.947,139.503,331.971,140.497,333.995,140.758C336.019,141.02,338.043,140.549,340.067,139.529C342.091,138.51,344.116,136.941,346.14,136.444C348.164,135.948,350.188,136.523,352.212,137.516C354.236,138.51,356.26,139.922,358.285,139.32C360.309,138.719,362.333,136.105,364.357,135.111C366.381,134.118,368.405,134.745,370.429,134.824C372.454,134.902,374.478,134.431,376.502,135.007C378.526,135.582,380.55,137.203,382.574,136.366C384.598,135.529,386.623,132.235,388.647,130.667C390.671,129.098,392.695,129.255,394.719,128.471C396.743,127.686,398.767,125.961,400.791,126.039C402.816,126.118,404.84,128,405.852,127.937C406.864,127.875,406.864,125.867,407.876,122.024C408.888,118.18,410.912,112.502,411.924,113.741C412.936,114.98,412.936,123.137,413.948,123.843C414.96,124.549,416.984,117.804,417.997,117.804C419.009,117.804,419.009,124.549,420.021,124.392C421.033,124.235,423.057,117.176,424.069,116.588C425.081,116,425.081,121.882,426.093,121.176C427.105,120.471,429.129,113.176,430.141,113.529C431.153,113.882,431.154,121.882,432.166,122.118C433.178,122.353,435.202,114.824,436.214,115.294C437.226,115.765,437.226,124.235,438.238,123.765C439.25,123.294,441.274,113.882,442.286,113.843C443.298,113.804,443.298,123.137,444.31,124.549C445.323,125.961,447.347,119.451,448.359,119.522C449.371,119.592,449.371,126.243,450.383,125.145C451.395,124.047,453.419,115.2,454.431,112.753C455.443,110.306,455.443,114.259,456.455,114.965C457.467,115.671,459.491,113.129,460.503,113.945C461.516,114.761,461.516,118.933,462.528,119.718C463.54,120.502,465.564,117.898,466.576,118.322C467.588,118.745,467.588,122.196,468.6,120.706C469.612,119.216,471.636,112.784,472.648,114.212C473.66,115.639,473.661,124.925,474.673,125.239C475.685,125.553,477.709,116.894,478.721,115.78C479.733,114.667,479.733,121.098,480.745,121.176C481.757,121.255,483.781,114.98,484.793,115.451C485.805,115.922,485.805,123.137,486.817,124.314C487.829,125.49,489.854,120.627,490.866,119.529C491.878,118.431,491.878,121.098,492.89,120.157C493.902,119.216,495.926,114.667,496.938,114.941C497.95,115.216,497.95,120.314,498.962,119.922C499.974,119.529,501.998,113.647,503.01,113.451C504.023,113.255,504.023,118.745,505.035,118.745C506.047,118.745,508.071,113.255,509.083,113.451C510.095,113.647,510.095,119.529,511.107,120.471C512.119,121.412,514.143,117.412,515.155,117.49C516.167,117.569,516.167,121.725,517.18,120.471C518.192,119.216,520.216,112.549,521.228,113.247C522.24,113.945,522.24,122.008,523.252,125.851C524.264,129.694,526.288,129.318,527.3,129.169C528.312,129.02,528.312,129.098,529.324,129.987C530.336,130.876,532.361,132.575,533.373,130.967C534.385,129.359,534.385,124.444,535.397,123.608C536.409,122.771,538.433,126.013,539.445,126.327C540.457,126.641,540.457,124.026,541.469,123.399C542.481,122.771,544.505,124.131,545.517,124.078C546.529,124.026,546.53,122.562,547.542,123.085C548.554,123.608,550.578,126.118,551.59,125.49C552.602,124.863,552.602,121.098,553.614,120.471C554.626,119.843,556.65,122.353,557.662,122.614C558.674,122.876,558.674,120.889,559.687,120.837C560.699,120.784,562.723,122.667,563.735,124.078C564.747,125.49,564.747,126.431,565.759,128.052C566.771,129.673,568.795,131.974,569.807,131.503C570.819,131.033,570.819,127.791,571.831,124.706C572.843,121.621,574.867,118.693,575.88,119.529C576.892,120.366,576.892,124.967,577.904,125.203C578.916,125.438,580.94,121.307,581.952,121.908C582.964,122.51,582.964,127.843,583.976,127.882C584.988,127.922,587.012,122.667,588.024,122.51C589.036,122.353,589.037,127.294,590.049,127.059C591.061,126.824,593.085,121.412,594.097,121.255" stroke="#FF5F33" stroke-width="2"/></g></g><path class="foreground" aria-hidden="true" d="" display="none"/></g><g transform="translate(0,0)"><path class="background" aria-hidden="true" d="M0,0h600v400h-600Z"/><g><g class="mark-line role-mark layer_1_marks" clip-path="url(#clip7)" role="graphics-object" aria-roledescription="line mark container"><path aria-label="Number of environment steps: 200.38k; Success rate: 0.0993333333333; Width: 512" role="graphics-symbol" aria-roledescription="line mark" d="M6.084,386.954C8.108,379.451,10.132,379.137,12.156,370.614C14.181,362.092,16.205,345.359,18.229,335.059C20.253,324.758,22.277,320.889,24.301,314.144C26.325,307.399,28.349,297.778,30.374,288.34C32.398,278.902,34.422,269.647,36.446,261.961C38.47,254.275,40.494,248.157,42.518,241.856C44.543,235.556,46.567,229.072,48.591,222.745C50.615,216.418,52.639,210.248,54.663,204.209C56.687,198.17,58.712,192.261,60.736,187.791C62.76,183.32,64.784,180.288,66.808,176.497C68.832,172.706,70.856,168.157,72.881,163.817C74.905,159.477,76.929,155.346,78.953,152.967C80.977,150.588,83.001,149.961,85.025,148.81C87.05,147.66,89.074,145.987,91.098,144.261C93.122,142.536,95.146,140.758,97.17,140.366C99.194,139.974,101.219,140.967,103.243,141.513C105.267,142.058,107.291,142.155,109.315,139.613C111.339,137.07,113.363,131.888,115.388,129.826C117.412,127.765,119.436,128.824,121.46,130.529C123.484,132.235,125.508,134.588,127.532,134.301C129.557,134.013,131.581,131.085,133.605,129.046C135.629,127.007,137.653,125.856,139.677,125.124C141.701,124.392,143.726,124.078,145.75,124.134C147.774,124.19,149.798,124.616,151.822,124.224C153.846,123.832,155.87,122.622,157.895,122.599C159.919,122.577,161.943,123.742,163.967,123.204C165.991,122.667,168.015,120.426,170.039,120.179C172.064,119.933,174.088,121.681,176.112,122.323C178.136,122.965,180.16,122.502,182.184,122.454C184.208,122.405,186.233,122.771,188.257,121.591C190.281,120.411,192.305,117.684,194.329,116.796C196.353,115.907,198.377,116.855,200.402,117.068C202.426,117.281,204.45,116.758,206.474,117.098C208.498,117.438,210.522,118.641,212.546,119.399C214.571,120.157,216.595,120.471,218.619,120.392C220.643,120.314,222.667,119.843,224.691,118.824C226.715,117.804,228.739,116.235,230.764,115.974C232.788,115.712,234.812,116.758,236.836,117.124C238.86,117.49,240.884,117.176,242.908,116.59C244.933,116.004,246.957,115.145,248.981,114.674C251.005,114.204,253.029,114.121,255.053,114.39C257.077,114.659,259.102,115.279,261.126,114.913C263.15,114.547,265.174,113.195,267.198,113.539C269.222,113.882,271.246,115.922,273.271,115.765C275.295,115.608,277.319,113.255,279.343,112.329C281.367,111.402,283.391,111.903,285.415,112.452C287.44,113.001,289.464,113.599,291.488,114.054C293.512,114.51,295.536,114.824,297.56,114.51C299.584,114.196,301.609,113.255,303.633,111.686C305.657,110.118,307.681,107.922,309.705,106.458C311.729,104.993,313.753,104.261,315.778,104C317.802,103.739,319.826,103.948,321.85,103.477C323.874,103.007,325.898,101.856,327.922,100.81C329.947,99.765,331.971,98.824,333.995,98.958C336.019,99.092,338.043,100.303,340.067,100.172C342.091,100.041,344.116,98.57,346.14,98.069C348.164,97.569,350.188,98.039,352.212,97.673C354.236,97.307,356.26,96.105,358.285,95.817C360.309,95.529,362.333,96.157,364.357,96.261C366.381,96.366,368.405,95.948,370.429,95.922C372.454,95.895,374.478,96.261,376.502,96.523C378.526,96.784,380.55,96.941,382.574,96.314C384.598,95.686,386.623,94.275,388.647,93.83C390.671,93.386,392.695,93.908,394.719,95.148C396.743,96.388,398.767,98.345,400.792,98.581C402.816,98.816,404.84,97.33,406.864,95.907C408.888,94.484,410.912,93.124,412.936,92.366C414.961,91.608,416.985,91.451,419.009,90.678C421.033,89.905,423.057,88.515,425.081,87.993C427.105,87.47,429.129,87.813,431.154,88.586C433.178,89.359,435.202,90.562,437.226,90.614C439.25,90.667,441.274,89.569,443.298,89.176C445.323,88.784,447.347,89.098,449.371,89.778C451.395,90.458,453.419,91.503,455.443,91.216C457.467,90.928,459.492,89.307,461.516,88.157C463.54,87.007,465.564,86.327,467.588,86.614C469.612,86.902,471.636,88.157,473.661,88.026C475.685,87.895,477.709,86.379,479.733,85.595C481.757,84.81,483.781,84.758,485.805,84.837C487.83,84.915,489.854,85.124,491.878,84.706C493.902,84.288,495.926,83.242,497.95,82.936C499.974,82.629,501.999,83.063,504.023,83.507C506.047,83.951,508.071,84.407,510.095,84.373C512.119,84.34,514.143,83.817,516.168,84.34C518.192,84.863,520.216,86.431,522.24,85.277C524.264,84.123,526.288,80.246,528.312,79.331C530.337,78.416,532.361,80.463,534.385,82.114C536.409,83.765,538.433,85.02,540.457,85.255C542.481,85.49,544.506,84.706,546.53,83.862C548.554,83.018,550.578,82.114,552.602,81.46C554.626,80.807,556.65,80.403,558.675,79.496C560.699,78.588,562.723,77.176,564.747,76.993C566.771,76.81,568.795,77.856,570.819,77.218C572.844,76.579,574.868,74.256,576.892,72.713C578.916,71.171,580.94,70.409,582.964,70.275C584.988,70.14,587.013,70.633,589.037,71.47" stroke="#FF4B33" stroke-width="2"/></g></g><path class="foreground" aria-hidden="true" d="" display="none"/></g><g transform="translate(0,0)"><path class="background" aria-hidden="true" d="M0,0h600v400h-600Z"/><g><g class="mark-line role-mark layer_1_marks" clip-path="url(#clip8)" role="graphics-object" aria-roledescription="line mark container"><path aria-label="Number of environment steps: 200.38k; Success rate: 0.101666666667; Width: 1024" role="graphics-symbol" aria-roledescription="line mark" d="M6.084,381.229C8.108,366.588,10.132,350.745,12.156,336.314C14.181,321.882,16.205,308.863,18.229,300.026C20.253,291.19,22.277,286.536,24.301,277.02C26.325,267.503,28.349,253.124,30.374,243.503C32.398,233.882,34.422,229.02,36.446,223.111C38.47,217.203,40.494,210.248,42.518,204.706C44.543,199.163,46.567,195.033,48.591,189.072C50.615,183.111,52.639,175.32,54.663,167.529C56.687,159.739,58.712,151.948,60.736,148.967C62.76,145.987,64.784,147.817,66.808,147.425C68.832,147.033,70.856,144.418,72.881,141.804C74.905,139.19,76.929,136.575,78.953,133.438C80.977,130.301,83.001,126.641,85.025,124.471C87.05,122.301,89.074,121.621,91.098,121.74C93.122,121.86,95.146,122.779,97.17,122.521C99.194,122.263,101.219,120.829,103.243,119.795C105.267,118.76,107.291,118.125,109.315,117.049C111.339,115.974,113.363,114.458,115.388,114.353C117.412,114.248,119.436,115.556,121.46,116.052C123.484,116.549,125.508,116.235,127.532,116.105C129.557,115.974,131.581,116.026,133.605,115.425C135.629,114.824,137.653,113.569,139.677,112.261C141.701,110.954,143.726,109.595,145.75,108.68C147.774,107.765,149.798,107.294,151.822,105.516C153.846,103.739,155.87,100.654,157.895,98.797C159.919,96.941,161.943,96.314,163.967,94.719C165.991,93.124,168.015,90.562,170.039,88.366C172.064,86.17,174.088,84.34,176.112,83.294C178.136,82.248,180.16,81.987,182.184,81.972C184.208,81.957,186.233,82.189,188.257,83.077C190.281,83.966,192.305,85.513,194.329,84.325C196.353,83.137,198.377,79.216,200.402,77.072C202.426,74.928,204.45,74.562,206.474,73.83C208.498,73.098,210.522,72,212.546,71.399C214.571,70.797,216.595,70.693,218.619,71.085C220.643,71.477,222.667,72.366,224.691,71.843C226.715,71.32,228.739,69.386,230.764,68.216C232.788,67.046,234.812,66.641,236.836,65.796C238.86,64.952,240.884,63.669,242.908,63.715C244.933,63.761,246.957,65.135,248.981,65.744C251.005,66.353,253.029,66.196,255.053,65.576C257.077,64.956,259.102,63.873,261.126,63.193C263.15,62.514,265.174,62.237,267.198,62.021C269.222,61.804,271.246,61.647,273.271,61.203C275.295,60.758,277.319,60.026,279.343,60.627C281.367,61.229,283.391,63.163,285.415,63.477C287.44,63.791,289.464,62.484,291.488,62.17C293.512,61.856,295.536,62.536,297.56,62.876C299.584,63.216,301.609,63.216,303.633,62.771C305.657,62.327,307.681,61.438,309.705,61.647C311.729,61.856,313.753,63.163,315.778,63.634C317.802,64.105,319.826,63.739,321.85,63.163C323.874,62.588,325.898,61.804,327.922,61.464C329.947,61.124,331.971,61.229,333.995,60.941C336.019,60.654,338.043,59.974,340.067,60.105C342.091,60.235,344.116,61.176,346.14,61.176C348.164,61.176,350.188,60.235,352.212,60.183C354.236,60.131,356.26,60.967,358.285,61.359C360.309,61.752,362.333,61.699,364.357,61.778C366.381,61.856,368.405,62.065,370.429,62.144C372.454,62.222,374.478,62.17,376.502,62.189C378.526,62.207,380.55,62.297,382.574,62.585C384.598,62.872,386.623,63.358,388.647,63.13C390.671,62.902,392.695,61.961,394.719,61.386C396.743,60.81,398.767,60.601,400.792,61.542C402.816,62.484,404.84,64.575,406.864,65.311C408.888,66.047,410.912,65.427,412.936,65.139C414.961,64.852,416.985,64.896,419.009,64.474C421.033,64.052,423.057,63.163,425.081,62.353C427.105,61.542,429.129,60.81,431.154,61.434C433.178,62.058,435.202,64.037,437.226,64.116C439.25,64.194,441.274,62.372,443.298,61.879C445.323,61.386,447.347,62.222,449.371,62.797C451.395,63.373,453.419,63.686,455.443,63.373C457.467,63.059,459.492,62.118,461.516,61.359C463.54,60.601,465.564,60.026,467.588,59.817C469.612,59.608,471.636,59.765,473.661,59.765C475.685,59.765,477.709,59.608,479.733,59.608C481.757,59.608,483.781,59.765,485.805,60.706C487.83,61.647,489.854,63.373,491.878,64.157C493.902,64.941,495.926,64.784,497.95,64.34C499.974,63.895,501.999,63.163,504.023,62.745C506.047,62.327,508.071,62.222,510.095,62.013C512.119,61.804,514.143,61.49,516.168,61.412C518.192,61.333,520.216,61.49,522.24,61.778C524.264,62.065,526.288,62.484,528.312,62.536C530.337,62.588,532.361,62.275,534.385,61.935C536.409,61.595,538.433,61.229,540.457,60.967C542.481,60.706,544.506,60.549,546.53,60.575C548.554,60.601,550.578,60.81,552.602,60.967C554.626,61.124,556.65,61.229,558.675,61.542C560.699,61.856,562.723,62.379,564.747,62.614C566.771,62.85,568.795,62.797,570.819,62.641C572.844,62.484,574.868,62.222,576.892,62.588C578.916,62.954,580.94,63.948,582.964,64.078C584.988,64.209,587.013,63.477,589.037,62.824" stroke="#E0392D" stroke-width="2"/></g></g><path class="foreground" aria-hidden="true" d="" display="none"/></g><g transform="translate(0,0)"><path class="background" aria-hidden="true" d="M0,0h600v400h-600Z"/><g><g class="mark-line role-mark layer_1_marks" clip-path="url(#clip9)" role="graphics-object" aria-roledescription="line mark container"><path aria-label="Number of environment steps: 200.38k; Success rate: 0.140333333333; Width: 2048" role="graphics-symbol" aria-roledescription="line mark" d="M6.084,355.529C8.108,341.229,10.132,329.987,12.156,315.817C14.181,301.647,16.205,284.549,18.229,271.765C20.253,258.98,22.277,250.51,24.301,241.307C26.325,232.105,28.349,222.17,30.374,215.111C32.398,208.052,34.422,203.869,36.446,194.536C38.47,185.203,40.494,170.719,42.518,163.373C44.543,156.026,46.567,155.817,48.591,153.987C50.615,152.157,52.639,148.706,54.663,146.693C56.687,144.68,58.712,144.105,60.736,141.206C62.76,138.308,64.784,133.087,66.808,130.865C68.832,128.642,70.856,129.419,72.881,129.572C74.905,129.725,76.929,129.255,78.953,128.026C80.977,126.797,83.001,124.81,85.025,123.843C87.05,122.876,89.074,122.928,91.098,123.163C93.122,123.399,95.146,123.817,97.17,123.373C99.194,122.928,101.219,121.621,103.243,119.425C105.267,117.229,107.291,114.144,109.315,111.582C111.339,109.02,113.363,106.98,115.388,105.438C117.412,103.895,119.436,102.85,121.46,102.745C123.484,102.641,125.508,103.477,127.532,102.222C129.557,100.967,131.581,97.621,133.605,95.869C135.629,94.118,137.653,93.961,139.677,92.627C141.701,91.294,143.726,88.784,145.75,86.379C147.774,83.974,149.798,81.673,151.822,79.059C153.846,76.444,155.87,73.516,157.895,71.163C159.919,68.81,161.943,67.033,163.967,65.333C165.991,63.634,168.015,62.013,170.039,61.542C172.064,61.072,174.088,61.752,176.112,61.856C178.136,61.961,180.16,61.49,182.184,61.386C184.208,61.281,186.233,61.542,188.257,61.882C190.281,62.222,192.305,62.641,194.329,61.255C196.353,59.869,198.377,56.68,200.402,56.627C202.426,56.575,204.45,59.66,206.474,60.418C208.498,61.176,210.522,59.608,212.546,57.725C214.571,55.843,216.595,53.647,218.619,52.915C220.643,52.183,222.667,52.915,224.691,52.627C226.715,52.34,228.739,51.033,230.764,51.111C232.788,51.19,234.812,52.654,236.836,53.673C238.86,54.693,240.884,55.268,242.908,54.693C244.933,54.118,246.957,52.392,248.981,52.366C251.005,52.34,253.029,54.013,255.053,54.222C257.077,54.431,259.102,53.176,261.126,52.131C263.15,51.085,265.174,50.248,267.198,48.379C269.222,46.51,271.246,43.608,273.271,43.059C275.295,42.51,277.319,44.314,279.343,45.242C281.367,46.17,283.391,46.222,285.415,46.353C287.44,46.484,289.464,46.693,291.488,46.85C293.512,47.007,295.536,47.111,297.56,46.51C299.584,45.908,301.609,44.601,303.633,43.869C305.657,43.137,307.681,42.98,309.705,43.157C311.729,43.333,313.753,43.843,315.778,44.732C317.802,45.621,319.826,46.889,321.85,47.078C323.874,47.268,325.898,46.379,327.922,47.059C329.947,47.739,331.971,49.987,333.995,50.275C336.019,50.562,338.043,48.889,340.067,49.02C342.091,49.15,344.116,51.085,346.14,52.314C348.164,53.542,350.188,54.065,352.212,53.778C354.236,53.49,356.26,52.392,358.285,51.32C360.309,50.248,362.333,49.203,364.357,48.314C366.381,47.425,368.405,46.693,370.429,46.902C372.454,47.111,374.478,48.261,376.502,49.968C378.526,51.675,380.55,53.938,382.574,53.991C384.598,54.043,386.623,51.884,388.647,50.151C390.671,48.418,392.695,47.111,394.719,47.085C396.743,47.059,398.767,48.314,400.792,47.922C402.816,47.529,404.84,45.49,406.864,44.915C408.888,44.34,410.912,45.229,412.936,45.752C414.961,46.275,416.985,46.431,419.009,45.961C421.033,45.49,423.057,44.392,425.081,42.614C427.105,40.837,429.129,38.379,431.154,37.15C433.178,35.922,435.202,35.922,437.226,37.15C439.25,38.379,441.274,40.837,443.298,41.124C445.323,41.412,447.347,39.529,449.371,38.693C451.395,37.856,453.419,38.065,455.443,38.902C457.467,39.739,459.492,41.203,461.516,41.49C463.54,41.778,465.564,40.889,467.588,39.608C469.612,38.327,471.636,36.654,473.661,35.791C475.685,34.928,477.709,34.876,479.733,35.686C481.757,36.497,483.781,38.17,485.805,39.477C487.83,40.784,489.854,41.725,491.878,41.908C493.902,42.092,495.926,41.516,497.95,40.157C499.974,38.797,501.999,36.654,504.023,34.693C506.047,32.732,508.071,30.954,510.095,30.536C512.119,30.118,514.143,31.059,516.168,30.835C518.192,30.611,520.216,29.221,522.24,29.483C524.264,29.744,526.288,31.656,528.312,33.841C530.337,36.026,532.361,38.484,534.385,39.425C536.409,40.366,538.433,39.791,540.457,39.69C542.481,39.589,544.506,39.963,546.53,39.414C548.554,38.865,550.578,37.393,552.602,37.049C554.626,36.706,556.65,37.49,558.675,37.307C560.699,37.124,562.723,35.974,564.747,34.484C566.771,32.993,568.795,31.163,570.819,31.216C572.844,31.268,574.868,33.203,576.892,35.216C578.916,37.229,580.94,39.32,582.964,40.601C584.988,41.882,587.013,42.353,589.037,41.595" stroke="#B22B24" stroke-width="2"/></g></g><path class="foreground" aria-hidden="true" d="" display="none"/></g><g transform="translate(0,0)"><path class="background" aria-hidden="true" d="M0,0h600v400h-600Z"/><g><g class="mark-line role-mark layer_1_marks" clip-path="url(#clip10)" role="graphics-object" aria-roledescription="line mark container"><path aria-label="Number of environment steps: 200.38k; Success rate: 0.1548; Width: 4096" role="graphics-symbol" aria-roledescription="line mark" d="M6.084,345.224C8.108,327.969,10.132,311.09,12.156,290.008C14.181,268.925,16.205,243.639,18.229,225.882C20.253,208.125,22.277,197.898,24.301,188.863C26.325,179.827,28.349,171.984,30.374,167.969C32.398,163.953,34.422,163.765,36.446,163.89C38.47,164.016,40.494,164.455,42.518,162.008C44.543,159.561,46.567,154.227,48.591,150.745C50.615,147.263,52.639,145.631,54.663,143.122C56.687,140.612,58.712,137.224,60.736,135.467C62.76,133.71,64.784,133.584,66.808,133.929C68.832,134.275,70.856,135.09,72.881,133.396C74.905,131.702,76.929,127.498,78.953,125.522C80.977,123.545,83.001,123.796,85.025,123.859C87.05,123.922,89.074,123.796,91.098,123.137C93.122,122.478,95.146,121.286,97.17,120.533C99.194,119.78,101.219,119.467,103.243,118.745C105.267,118.024,107.291,116.894,109.315,114.824C111.339,112.753,113.363,109.741,115.388,106.667C117.412,103.592,119.436,100.455,121.46,97.255C123.484,94.055,125.508,90.792,127.532,89.631C129.557,88.471,131.581,89.412,133.605,89.475C135.629,89.537,137.653,88.722,139.677,89.067C141.701,89.412,143.726,90.918,145.75,89.475C147.774,88.031,149.798,83.639,151.822,79.184C153.846,74.729,155.87,70.212,157.895,67.702C159.919,65.192,161.943,64.69,163.967,62.4C165.991,60.11,168.015,56.031,170.039,54.996C172.064,53.961,174.088,55.969,176.112,55.718C178.136,55.467,180.16,52.957,182.184,52.11C184.208,51.263,186.233,52.078,188.257,51.922C190.281,51.765,192.305,50.635,194.329,49.694C196.353,48.753,198.377,48,200.402,49.224C202.426,50.447,204.45,53.647,206.474,54.902C208.498,56.157,210.522,55.467,212.546,53.647C214.571,51.827,216.595,48.878,218.619,47.122C220.643,45.365,222.667,44.8,224.691,44.925C226.715,45.051,228.739,45.867,230.764,45.678C232.788,45.49,234.812,44.298,236.836,44.078C238.86,43.859,240.884,44.612,242.908,44.361C244.933,44.11,246.957,42.855,248.981,42.886C251.005,42.918,253.029,44.235,255.053,44.925C257.077,45.616,259.102,45.678,261.126,45.584C263.15,45.49,265.174,45.239,267.198,44.173C269.222,43.106,271.246,41.224,273.271,41.129C275.295,41.035,277.319,42.729,279.343,43.911C281.367,45.093,283.391,45.762,285.415,44.162C287.44,42.562,289.464,38.693,291.488,37.417C293.512,36.141,295.536,37.459,297.56,38.714C299.584,39.969,301.609,41.161,303.633,41.757C305.657,42.353,307.681,42.353,309.705,42.876C311.729,43.399,313.753,44.444,315.778,46.358C317.802,48.272,319.826,51.054,321.85,51.535C323.874,52.016,325.898,50.196,327.922,49.224C329.947,48.251,331.971,48.125,333.995,47.247C336.019,46.369,338.043,44.737,340.067,43.514C342.091,42.29,344.116,41.475,346.14,41.38C348.164,41.286,350.188,41.914,352.212,42.541C354.236,43.169,356.26,43.796,358.285,45.835C360.309,47.875,362.333,51.325,364.357,51.325C366.381,51.325,368.405,47.875,370.429,46.306C372.454,44.737,374.478,45.051,376.502,45.02C378.526,44.988,380.55,44.612,382.574,43.451C384.598,42.29,386.623,40.345,388.647,39.467C390.671,38.588,392.695,38.776,394.719,39.122C396.743,39.467,398.767,39.969,400.792,41.663C402.816,43.357,404.84,46.243,406.864,46.62C408.888,46.996,410.912,44.863,412.936,45.114C414.961,45.365,416.985,48,419.009,49.067C421.033,50.133,423.057,49.631,425.081,49.725C427.105,49.82,429.129,50.51,431.154,49.475C433.178,48.439,435.202,45.678,437.226,44.925C439.25,44.173,441.274,45.427,443.298,44.424C445.323,43.42,447.347,40.157,449.371,38.933C451.395,37.71,453.419,38.525,455.443,38.024C457.467,37.522,459.492,35.702,461.516,35.576C463.54,35.451,465.564,37.02,467.588,36.988C469.612,36.957,471.636,35.325,473.661,35.043C475.685,34.761,477.709,35.827,479.733,36.267C481.757,36.706,483.781,36.518,485.805,37.051C487.83,37.584,489.854,38.839,491.878,38.494C493.902,38.149,495.926,36.204,497.95,36.486C499.974,36.769,501.999,39.278,504.023,42.573C506.047,45.867,508.071,49.945,510.095,49.224C512.119,48.502,514.143,42.98,516.168,41.443C518.192,39.906,520.216,42.353,522.24,42.98C524.264,43.608,526.288,42.416,528.312,39.906C530.337,37.396,532.361,33.569,534.385,32.094C536.409,30.62,538.433,31.498,540.457,32.314C542.481,33.129,544.506,33.882,546.53,33.637C548.554,33.391,550.578,32.146,552.602,31.362C554.626,30.578,556.65,30.254,558.675,31.127C560.699,32,562.723,34.071,564.747,33.82C566.771,33.569,568.795,30.996,570.819,30.588C572.844,30.18,574.868,31.937,576.892,33.694C578.916,35.451,580.94,37.208,582.964,37.459C584.988,37.71,587.013,36.455,589.037,35.2" stroke="#7A1F18" stroke-width="2"/></g></g><path class="foreground" aria-hidden="true" d="" display="none"/></g></g><g class="mark-group role-legend" role="graphics-symbol" aria-roledescription="legend" aria-label="Symbol legend titled 'Width' for fill color and stroke color with 5 values: 256, 512, 1024, 2048, 4096"><g transform="translate(527,269)"><path class="background" aria-hidden="true" d="M0,0h55v113h-55Z" pointer-events="none"/><g><g class="mark-group role-legend-entry"><g transform="translate(0,25)"><path class="background" aria-hidden="true" d="M0,0h0v0h0Z" pointer-events="none"/><g><g class="mark-group role-scope" role="graphics-object" aria-roledescription="group mark container"><g transform="translate(0,0)"><path class="background" aria-hidden="true" d="M0,0h52v16h-52Z" pointer-events="none" opacity="1"/><g><g class="mark-symbol role-legend-symbol" pointer-events="none"><path transform="translate(8,8)" d="M3.536,0A3.536,3.536,0,1,1,-3.536,0A3.536,3.536,0,1,1,3.536,0" fill="#FF5F33" stroke="#FF5F33" stroke-width="1.5" opacity="1"/></g><g class="mark-text role-legend-label" pointer-events="none"><text text-anchor="start" transform="translate(20,13)" font-family="Times New Roman" font-size="16px" fill="#000" opacity="1">256</text></g></g><path class="foreground" aria-hidden="true" d="" pointer-events="none" display="none"/></g><g transform="translate(0,18)"><path class="background" aria-hidden="true" d="M0,0h52v16h-52Z" pointer-events="none" opacity="1"/><g><g class="mark-symbol role-legend-symbol" pointer-events="none"><path transform="translate(8,8)" d="M3.536,0A3.536,3.536,0,1,1,-3.536,0A3.536,3.536,0,1,1,3.536,0" fill="#FF4B33" stroke="#FF4B33" stroke-width="1.5" opacity="1"/></g><g class="mark-text role-legend-label" pointer-events="none"><text text-anchor="start" transform="translate(20,13)" font-family="Times New Roman" font-size="16px" fill="#000" opacity="1">512</text></g></g><path class="foreground" aria-hidden="true" d="" pointer-events="none" display="none"/></g><g transform="translate(0,36)"><path class="background" aria-hidden="true" d="M0,0h52v16h-52Z" pointer-events="none" opacity="1"/><g><g class="mark-symbol role-legend-symbol" pointer-events="none"><path transform="translate(8,8)" d="M3.536,0A3.536,3.536,0,1,1,-3.536,0A3.536,3.536,0,1,1,3.536,0" fill="#E0392D" stroke="#E0392D" stroke-width="1.5" opacity="1"/></g><g class="mark-text role-legend-label" pointer-events="none"><text text-anchor="start" transform="translate(20,13)" font-family="Times New Roman" font-size="16px" fill="#000" opacity="1">1024</text></g></g><path class="foreground" aria-hidden="true" d="" pointer-events="none" display="none"/></g><g transform="translate(0,54)"><path class="background" aria-hidden="true" d="M0,0h52v16h-52Z" pointer-events="none" opacity="1"/><g><g class="mark-symbol role-legend-symbol" pointer-events="none"><path transform="translate(8,8)" d="M3.536,0A3.536,3.536,0,1,1,-3.536,0A3.536,3.536,0,1,1,3.536,0" fill="#B22B24" stroke="#B22B24" stroke-width="1.5" opacity="1"/></g><g class="mark-text role-legend-label" pointer-events="none"><text text-anchor="start" transform="translate(20,13)" font-family="Times New Roman" font-size="16px" fill="#000" opacity="1">2048</text></g></g><path class="foreground" aria-hidden="true" d="" pointer-events="none" display="none"/></g><g transform="translate(0,72)"><path class="background" aria-hidden="true" d="M0,0h52v16h-52Z" pointer-events="none" opacity="1"/><g><g class="mark-symbol role-legend-symbol" pointer-events="none"><path transform="translate(8,8)" d="M3.536,0A3.536,3.536,0,1,1,-3.536,0A3.536,3.536,0,1,1,3.536,0" fill="#7A1F18" stroke="#7A1F18" stroke-width="1.5" opacity="1"/></g><g class="mark-text role-legend-label" pointer-events="none"><text text-anchor="start" transform="translate(20,13)" font-family="Times New Roman" font-size="16px" fill="#000" opacity="1">4096</text></g></g><path class="foreground" aria-hidden="true" d="" pointer-events="none" display="none"/></g></g></g><path class="foreground" aria-hidden="true" d="" pointer-events="none" display="none"/></g></g><g class="mark-text role-legend-title" pointer-events="none"><text text-anchor="start" transform="translate(0,16)" font-family="Times New Roman" font-size="20px" font-weight="bold" fill="#000" opacity="1">Width</text></g></g><path class="foreground" aria-hidden="true" d="" pointer-events="none" display="none"/></g></g></g><path class="foreground" aria-hidden="true" d="" display="none"/></g></g></g><defs><clipPath id="clip1"><rect x="0" y="0" width="600" height="400"/></clipPath><clipPath id="clip2"><rect x="0" y="0" width="600" height="400"/></clipPath><clipPath id="clip3"><rect x="0" y="0" width="600" height="400"/></clipPath><clipPath id="clip4"><rect x="0" y="0" width="600" height="400"/></clipPath><clipPath id="clip5"><rect x="0" y="0" width="600" height="400"/></clipPath><clipPath id="clip6"><rect x="0" y="0" width="600" height="400"/></clipPath><clipPath id="clip7"><rect x="0" y="0" width="600" height="400"/></clipPath><clipPath id="clip8"><rect x="0" y="0" width="600" height="400"/></clipPath><clipPath id="clip9"><rect x="0" y="0" width="600" height="400"/></clipPath><clipPath id="clip10"><rect x="0" y="0" width="600" height="400"/></clipPath></defs></svg>