<svg xmlns="http://www.w3.org/2000/svg" xmlns:xlink="http://www.w3.org/1999/xlink" version="1.1" class="marks" width="719" height="458" viewBox="0 0 719 458"><rect width="719" height="458" fill="white"/><g fill="none" stroke-miterlimit="10" transform="translate(50,12)"><g class="mark-group role-frame root" role="graphics-object" aria-roledescription="group mark container"><g transform="translate(0,0)"><path class="background" aria-hidden="true" d="M0.5,0.5h600v400h-600Z" stroke="#ddd"/><g><g class="mark-group role-axis" aria-hidden="true"><g transform="translate(0.5,400.5)"><path class="background" aria-hidden="true" d="M0,0h0v0h0Z" pointer-events="none"/><g><g class="mark-rule role-axis-grid" pointer-events="none"><line transform="translate(0,-400)" x2="0" y2="400" stroke="#ddd" stroke-width="1" opacity="1"/><line transform="translate(30,-400)" x2="0" y2="400" stroke="#ddd" stroke-width="1" opacity="1"/><line transform="translate(60,-400)" x2="0" y2="400" stroke="#ddd" stroke-width="1" opacity="1"/><line transform="translate(90,-400)" x2="0" y2="400" stroke="#ddd" stroke-width="1" opacity="1"/><line transform="translate(120,-400)" x2="0" y2="400" stroke="#ddd" stroke-width="1" opacity="1"/><line transform="translate(150,-400)" x2="0" y2="400" stroke="#ddd" stroke-width="1" opacity="1"/><line transform="translate(180,-400)" x2="0" y2="400" stroke="#ddd" stroke-width="1" opacity="1"/><line transform="translate(210,-400)" x2="0" y2="400" stroke="#ddd" stroke-width="1" opacity="1"/><line transform="translate(240,-400)" x2="0" y2="400" stroke="#ddd" stroke-width="1" opacity="1"/><line transform="translate(270,-400)" x2="0" y2="400" stroke="#ddd" stroke-width="1" opacity="1"/><line transform="translate(300,-400)" x2="0" y2="400" stroke="#ddd" stroke-width="1" opacity="1"/><line transform="translate(330,-400)" x2="0" y2="400" stroke="#ddd" stroke-width="1" opacity="1"/><line transform="translate(360,-400)" x2="0" y2="400" stroke="#ddd" stroke-width="1" opacity="1"/><line transform="translate(390,-400)" x2="0" y2="400" stroke="#ddd" stroke-width="1" opacity="1"/><line transform="translate(420,-400)" x2="0" y2="400" stroke="#ddd" stroke-width="1" opacity="1"/><line transform="translate(450,-400)" x2="0" y2="400" stroke="#ddd" stroke-width="1" opacity="1"/><line transform="translate(480,-400)" x2="0" y2="400" stroke="#ddd" stroke-width="1" opacity="1"/><line transform="translate(510,-400)" x2="0" y2="400" stroke="#ddd" stroke-width="1" opacity="1"/><line transform="translate(540,-400)" x2="0" y2="400" stroke="#ddd" stroke-width="1" opacity="1"/><line transform="translate(570,-400)" x2="0" y2="400" stroke="#ddd" stroke-width="1" opacity="1"/><line transform="translate(600,-400)" x2="0" y2="400" stroke="#ddd" stroke-width="1" opacity="1"/></g></g><path class="foreground" aria-hidden="true" d="" pointer-events="none" display="none"/></g></g><g class="mark-group role-axis" aria-hidden="true"><g transform="translate(0.5,0.5)"><path class="background" aria-hidden="true" d="M0,0h0v0h0Z" pointer-events="none"/><g><g class="mark-rule role-axis-grid" pointer-events="none"><line transform="translate(0,400)" x2="600" y2="0" stroke="#ddd" stroke-width="1" opacity="1"/><line transform="translate(0,356)" x2="600" y2="0" stroke="#ddd" stroke-width="1" opacity="1"/><line transform="translate(0,311)" x2="600" y2="0" stroke="#ddd" stroke-width="1" opacity="1"/><line transform="translate(0,267)" x2="600" y2="0" stroke="#ddd" stroke-width="1" opacity="1"/><line transform="translate(0,222)" x2="600" y2="0" stroke="#ddd" stroke-width="1" opacity="1"/><line transform="translate(0,178)" x2="600" y2="0" stroke="#ddd" stroke-width="1" opacity="1"/><line transform="translate(0,133)" x2="600" y2="0" stroke="#ddd" stroke-width="1" opacity="1"/><line transform="translate(0,89)" x2="600" y2="0" stroke="#ddd" stroke-width="1" opacity="1"/><line transform="translate(0,44)" x2="600" y2="0" stroke="#ddd" stroke-width="1" opacity="1"/><line transform="translate(0,0)" x2="600" y2="0" stroke="#ddd" stroke-width="1" opacity="1"/></g></g><path class="foreground" aria-hidden="true" d="" pointer-events="none" display="none"/></g></g><g class="mark-group role-axis" role="graphics-symbol" aria-roledescription="axis" aria-label="X-axis titled 'Number of environment steps' for a linear scale with values from 0M to 20M"><g transform="translate(0.5,400.5)"><path class="background" aria-hidden="true" d="M0,0h0v0h0Z" pointer-events="none"/><g><g class="mark-rule role-axis-tick" pointer-events="none"><line transform="translate(0,0)" x2="0" y2="5" stroke="#888" stroke-width="1" opacity="1"/><line transform="translate(30,0)" x2="0" y2="5" stroke="#888" stroke-width="1" opacity="1"/><line transform="translate(60,0)" x2="0" y2="5" stroke="#888" stroke-width="1" opacity="1"/><line transform="translate(90,0)" x2="0" y2="5" stroke="#888" stroke-width="1" opacity="1"/><line transform="translate(120,0)" x2="0" y2="5" stroke="#888" stroke-width="1" opacity="1"/><line transform="translate(150,0)" x2="0" y2="5" stroke="#888" stroke-width="1" opacity="1"/><line transform="translate(180,0)" x2="0" y2="5" stroke="#888" stroke-width="1" opacity="1"/><line transform="translate(210,0)" x2="0" y2="5" stroke="#888" stroke-width="1" opacity="1"/><line transform="translate(240,0)" x2="0" y2="5" stroke="#888" stroke-width="1" opacity="1"/><line transform="translate(270,0)" x2="0" y2="5" stroke="#888" stroke-width="1" opacity="1"/><line transform="translate(300,0)" x2="0" y2="5" stroke="#888" stroke-width="1" opacity="1"/><line transform="translate(330,0)" x2="0" y2="5" stroke="#888" stroke-width="1" opacity="1"/><line transform="translate(360,0)" x2="0" y2="5" stroke="#888" stroke-width="1" opacity="1"/><line transform="translate(390,0)" x2="0" y2="5" stroke="#888" stroke-width="1" opacity="1"/><line transform="translate(420,0)" x2="0" y2="5" stroke="#888" stroke-width="1" opacity="1"/><line transform="translate(450,0)" x2="0" y2="5" stroke="#888" stroke-width="1" opacity="1"/><line transform="translate(480,0)" x2="0" y2="5" stroke="#888" stroke-width="1" opacity="1"/><line transform="translate(510,0)" x2="0" y2="5" stroke="#888" stroke-width="1" opacity="1"/><line transform="translate(540,0)" x2="0" y2="5" stroke="#888" stroke-width="1" opacity="1"/><line transform="translate(570,0)" x2="0" y2="5" stroke="#888" stroke-width="1" opacity="1"/><line transform="translate(600,0)" x2="0" y2="5" stroke="#888" stroke-width="1" opacity="1"/></g><g class="mark-text role-axis-label" pointer-events="none"><text text-anchor="start" transform="translate(0,18)" font-family="Times New Roman" font-size="14px" fill="#000" opacity="1">0</text><text text-anchor="middle" transform="translate(30,18)" font-family="Times New Roman" font-size="14px" fill="#000" opacity="0">1M</text><text text-anchor="middle" transform="translate(60,18)" font-family="Times New Roman" font-size="14px" fill="#000" opacity="1">2M</text><text text-anchor="middle" transform="translate(90,18)" font-family="Times New Roman" font-size="14px" fill="#000" opacity="0">3M</text><text text-anchor="middle" transform="translate(120,18)" font-family="Times New Roman" font-size="14px" fill="#000" opacity="1">4M</text><text text-anchor="middle" transform="translate(150,18)" font-family="Times New Roman" font-size="14px" fill="#000" opacity="0">5M</text><text text-anchor="middle" transform="translate(180,18)" font-family="Times New Roman" font-size="14px" fill="#000" opacity="1">6M</text><text text-anchor="middle" transform="translate(210,18)" font-family="Times New Roman" font-size="14px" fill="#000" opacity="0">7M</text><text text-anchor="middle" transform="translate(240,18)" font-family="Times New Roman" font-size="14px" fill="#000" opacity="1">8M</text><text text-anchor="middle" transform="translate(270,18)" font-family="Times New Roman" font-size="14px" fill="#000" opacity="0">9M</text><text text-anchor="middle" transform="translate(300,18)" font-family="Times New Roman" font-size="14px" fill="#000" opacity="1">10M</text><text text-anchor="middle" transform="translate(330,18)" font-family="Times New Roman" font-size="14px" fill="#000" opacity="0">11M</text><text text-anchor="middle" transform="translate(360,18)" font-family="Times New Roman" font-size="14px" fill="#000" opacity="1">12M</text><text text-anchor="middle" transform="translate(390,18)" font-family="Times New Roman" font-size="14px" fill="#000" opacity="0">13M</text><text text-anchor="middle" transform="translate(420,18)" font-family="Times New Roman" font-size="14px" fill="#000" opacity="1">14M</text><text text-anchor="middle" transform="translate(450,18)" font-family="Times New Roman" font-size="14px" fill="#000" opacity="0">15M</text><text text-anchor="middle" transform="translate(480,18)" font-family="Times New Roman" font-size="14px" fill="#000" opacity="1">16M</text><text text-anchor="middle" transform="translate(510,18)" font-family="Times New Roman" font-size="14px" fill="#000" opacity="0">17M</text><text text-anchor="middle" transform="translate(540,18)" font-family="Times New Roman" font-size="14px" fill="#000" opacity="1">18M</text><text text-anchor="middle" transform="translate(570,18)" font-family="Times New Roman" font-size="14px" fill="#000" opacity="0">19M</text><text text-anchor="end" transform="translate(600,18)" font-family="Times New Roman" font-size="14px" fill="#000" opacity="1">20M</text></g><g class="mark-rule role-axis-domain" pointer-events="none"><line transform="translate(0,0)" x2="600" y2="0" stroke="#888" stroke-width="1" opacity="1"/></g><g class="mark-text role-axis-title" pointer-events="none"><text text-anchor="middle" transform="translate(300,38)" font-family="Times New Roman" font-size="16px" font-weight="bold" fill="#000" opacity="1">Number of environment steps</text></g></g><path class="foreground" aria-hidden="true" d="" pointer-events="none" display="none"/></g></g><g class="mark-group role-axis" role="graphics-symbol" aria-roledescription="axis" aria-label="Y-axis titled 'Success rate' for a linear scale with values from 0.1 to 1.0"><g transform="translate(0.5,0.5)"><path class="background" aria-hidden="true" d="M0,0h0v0h0Z" pointer-events="none"/><g><g class="mark-rule role-axis-tick" pointer-events="none"><line transform="translate(0,400)" x2="-5" y2="0" stroke="#888" stroke-width="1" opacity="1"/><line transform="translate(0,356)" x2="-5" y2="0" stroke="#888" stroke-width="1" opacity="1"/><line transform="translate(0,311)" x2="-5" y2="0" stroke="#888" stroke-width="1" opacity="1"/><line transform="translate(0,267)" x2="-5" y2="0" stroke="#888" stroke-width="1" opacity="1"/><line transform="translate(0,222)" x2="-5" y2="0" stroke="#888" stroke-width="1" opacity="1"/><line transform="translate(0,178)" x2="-5" y2="0" stroke="#888" stroke-width="1" opacity="1"/><line transform="translate(0,133)" x2="-5" y2="0" stroke="#888" stroke-width="1" opacity="1"/><line transform="translate(0,89)" x2="-5" y2="0" stroke="#888" stroke-width="1" opacity="1"/><line transform="translate(0,44)" x2="-5" y2="0" stroke="#888" stroke-width="1" opacity="1"/><line transform="translate(0,0)" x2="-5" y2="0" stroke="#888" stroke-width="1" opacity="1"/></g><g class="mark-text role-axis-label" pointer-events="none"><text text-anchor="end" transform="translate(-7,404)" font-family="Times New Roman" font-size="14px" fill="#000" opacity="1">0.1</text><text text-anchor="end" transform="translate(-7,359.55555555555554)" font-family="Times New Roman" font-size="14px" fill="#000" opacity="1">0.2</text><text text-anchor="end" transform="translate(-7,315.11111111111114)" font-family="Times New Roman" font-size="14px" fill="#000" opacity="1">0.3</text><text text-anchor="end" transform="translate(-7,270.66666666666663)" font-family="Times New Roman" font-size="14px" fill="#000" opacity="1">0.4</text><text text-anchor="end" transform="translate(-7,226.22222222222223)" font-family="Times New Roman" font-size="14px" fill="#000" opacity="1">0.5</text><text text-anchor="end" transform="translate(-7,181.77777777777777)" font-family="Times New Roman" font-size="14px" fill="#000" opacity="1">0.6</text><text text-anchor="end" transform="translate(-7,137.33333333333334)" font-family="Times New Roman" font-size="14px" fill="#000" opacity="1">0.7</text><text text-anchor="end" transform="translate(-7,92.88888888888889)" font-family="Times New Roman" font-size="14px" fill="#000" opacity="1">0.8</text><text text-anchor="end" transform="translate(-7,48.44444444444442)" font-family="Times New Roman" font-size="14px" fill="#000" opacity="1">0.9</text><text text-anchor="end" transform="translate(-7,4)" font-family="Times New Roman" font-size="14px" fill="#000" opacity="1">1.0</text></g><g class="mark-rule role-axis-domain" pointer-events="none"><line transform="translate(0,400)" x2="0" y2="-400" stroke="#888" stroke-width="1" opacity="1"/></g><g class="mark-text role-axis-title" pointer-events="none"><text text-anchor="middle" transform="translate(-28.5,200) rotate(-90) translate(0,-3)" font-family="Times New Roman" font-size="16px" font-weight="bold" fill="#000" opacity="1">Success rate</text></g></g><path class="foreground" aria-hidden="true" d="" pointer-events="none" display="none"/></g></g><g class="mark-group role-scope layer_0_layer_0_pathgroup" role="graphics-object" aria-roledescription="group mark container"><g transform="translate(0,0)"><path class="background" aria-hidden="true" d="M0,0h600v400h-600Z"/><g><g class="mark-area role-mark layer_0_layer_0_marks" clip-path="url(#clip1)" role="graphics-object" aria-roledescription="area mark container"><path aria-label="Number of environment steps: 200.38k; Success rate: 0.025395; upper_Success rate: 0.092405; Width: 256; Ci1 of Success rate: 0.092405; Ci0 of Success rate: 0.025395; Mean of Success rate: 0.0554" role="graphics-symbol" aria-roledescription="errorband" d="M12.023,391.514C14.027,379.381,16.031,369.868,18.035,363.764C20.039,357.659,22.043,354.963,24.047,349.837C26.05,344.711,28.054,337.156,30.058,328.667C32.062,320.179,34.066,310.757,36.07,301.617C38.074,292.476,40.078,283.617,42.082,277.513C44.086,271.41,46.089,268.061,48.093,264.654C50.097,261.247,52.101,257.781,54.105,252.685C56.109,247.588,58.113,240.861,60.117,236.298C62.121,231.735,64.125,229.336,66.128,226.863C68.132,224.389,70.136,221.84,72.14,220.418C74.144,218.996,76.148,218.701,78.152,216.168C80.156,213.634,82.16,208.861,84.164,206.536C86.167,204.21,88.171,204.33,90.175,203.071C92.179,201.813,94.183,199.174,96.187,196.151C98.191,193.127,100.195,189.719,102.199,187.127C104.203,184.535,106.206,182.759,108.21,182.27C110.214,181.781,112.218,182.581,114.222,182.403C116.226,182.226,118.23,181.072,120.234,179.886C122.238,178.701,124.242,177.484,126.245,175.883C128.249,174.281,130.253,172.296,132.257,171.067C134.261,169.838,136.265,169.364,138.269,168.135C140.273,166.905,142.277,164.919,144.281,164.741C146.284,164.564,148.288,166.194,150.292,166.09C152.296,165.987,154.3,164.149,156.304,163.674C158.308,163.2,160.312,164.089,162.316,163.985C164.319,163.881,166.323,162.785,168.327,162.119C170.331,161.452,172.335,161.215,174.339,161.259C176.343,161.304,178.347,161.63,180.351,160.83C182.355,160.03,184.359,158.104,186.362,156.415C188.366,154.727,190.37,153.276,192.374,152.298C194.378,151.32,196.382,150.816,198.386,150.801C200.39,150.786,202.394,151.261,204.398,151.468C206.401,151.676,208.405,151.616,210.409,152.046C212.413,152.476,214.417,153.396,216.421,152.996C218.425,152.596,220.429,150.876,222.433,150.253C224.437,149.63,226.44,150.105,228.444,150.639C230.448,151.173,232.452,151.765,234.456,150.846C236.46,149.927,238.464,147.497,240.468,146.639C242.472,145.78,244.476,146.493,246.479,146.464C248.483,146.434,250.487,145.661,252.491,145.824C254.495,145.987,256.499,147.086,258.503,147.427C260.507,147.768,262.511,147.352,264.515,146.344C266.518,145.336,268.522,143.736,270.526,143.691C272.53,143.647,274.534,145.159,276.538,145.159C278.542,145.159,280.546,143.646,282.55,142.194C284.554,140.741,286.557,139.35,288.561,138.372C290.565,137.395,292.569,136.832,294.573,136.343C296.577,135.853,298.581,135.438,300.585,135.186C302.589,134.933,304.593,134.844,306.596,135.126C308.6,135.407,310.604,136.059,312.608,136.148C314.612,136.237,316.616,135.763,318.62,135.689C320.624,135.615,322.628,135.941,324.632,135.734C326.635,135.527,328.639,134.787,330.643,134.728C332.647,134.669,334.651,135.291,336.655,135.409C338.659,135.527,340.663,135.141,342.667,134.683C344.671,134.224,346.674,133.692,348.678,133.544C350.682,133.396,352.686,133.633,354.69,135.173C356.694,136.713,358.698,139.558,360.702,139.824C362.706,140.091,364.71,137.78,366.713,136.357C368.717,134.935,370.721,134.401,372.725,133.882C374.729,133.364,376.733,132.861,378.737,133.38C380.741,133.899,382.745,135.439,384.749,135.202C386.752,134.964,388.756,132.949,390.76,131.512C392.764,130.075,394.768,129.216,396.772,128.876C398.776,128.536,400.78,128.713,402.784,127.765C404.787,126.816,406.791,124.741,407.793,124.165C408.795,123.588,408.795,124.51,409.797,123.325C410.799,122.14,412.803,118.848,413.805,120.842C414.807,122.836,414.807,130.116,415.809,134.709C416.811,139.302,418.815,141.206,419.817,140.614C420.819,140.021,420.819,136.931,421.821,135.005C422.823,133.079,424.826,132.317,425.828,132.72C426.83,133.123,426.83,134.69,427.832,132.171C428.834,129.653,430.838,123.049,431.84,122.921C432.842,122.794,432.842,129.143,433.844,128.698C434.846,128.254,436.85,121.016,437.852,121.016C438.854,121.016,438.854,128.254,439.856,128.55C440.858,128.847,442.861,122.201,443.863,122.138C444.865,122.074,444.865,128.593,445.867,130.222C446.869,131.852,448.873,128.593,449.875,129.143C450.877,129.693,450.877,134.053,451.879,134.053C452.881,134.053,454.885,129.693,455.887,128.635C456.889,127.578,456.889,129.822,457.891,131.748C458.893,133.674,460.897,135.281,461.898,135.45C462.9,135.619,462.901,134.349,463.902,131.831C464.904,129.312,466.908,125.545,467.91,125.228C468.912,124.91,468.912,128.042,469.914,127.302C470.916,126.561,472.92,121.947,473.922,122.392C474.924,122.837,474.924,128.341,475.926,129.378C476.928,130.415,478.932,126.985,479.934,126.71C480.936,126.434,480.936,129.312,481.938,130.053C482.939,130.794,484.943,129.397,485.945,129.355C486.947,129.313,486.947,130.626,487.949,131.219C488.951,131.812,490.955,131.684,491.957,132.72C492.959,133.757,492.959,135.958,493.961,133.291C494.963,130.624,496.967,123.09,497.969,122.244C498.971,121.398,498.971,127.24,499.973,128.722C500.975,130.203,502.978,127.324,503.98,126.646C504.982,125.968,504.982,127.492,505.984,126.603C506.986,125.714,508.99,122.413,509.992,122.751C510.994,123.09,510.994,127.069,511.996,126.871C512.998,126.674,515.002,122.3,516.004,122.152C517.006,122.005,517.006,126.083,518.008,129.096C519.01,132.108,521.014,134.054,522.015,134.351C523.017,134.648,523.018,133.295,524.019,132.629C525.021,131.962,527.025,131.981,528.027,132.361C529.029,132.741,529.029,133.481,530.031,133.885C531.033,134.289,533.037,134.356,534.039,134.124C535.041,133.893,535.041,133.364,536.043,133.124C537.045,132.883,539.049,132.93,540.051,132.717C541.052,132.504,541.053,132.03,542.055,131.17C543.057,130.311,545.06,129.067,546.062,128.563C547.064,128.059,547.064,128.296,548.066,130.104C549.068,131.911,551.072,135.289,552.074,134.905C553.076,134.521,553.076,130.376,554.078,128.095C555.08,125.813,557.084,125.396,558.086,126.431C559.088,127.467,559.088,129.956,560.09,130.044C561.092,130.133,563.095,127.822,564.097,128.148C565.099,128.474,565.099,131.437,566.101,133.185C567.103,134.933,569.107,135.467,570.109,134.607C571.111,133.748,571.111,131.496,572.113,129.185C573.115,126.874,575.119,124.504,576.121,126.667C577.123,128.83,577.123,135.526,578.125,135.64C579.127,135.753,581.13,129.284,582.132,127.765C583.134,126.247,583.135,129.679,584.136,129.852C585.138,130.026,587.142,126.941,588.144,127.2C589.146,127.459,589.146,131.063,590.148,130.939C591.15,130.815,593.154,126.963,594.156,126.519L594.156,89.432C593.154,90.617,591.15,97.086,590.148,97.284C589.146,97.481,589.146,91.407,588.144,93.333C587.142,95.259,585.138,105.185,584.136,105.012C583.135,104.84,583.134,94.568,582.132,88.983C581.13,83.398,579.127,82.499,578.125,84.716C577.123,86.933,577.123,92.267,576.121,93.481C575.119,94.696,573.115,91.793,572.113,93.807C571.111,95.822,571.111,102.756,570.109,103.23C569.107,103.704,567.103,97.719,566.101,96.83C565.099,95.941,565.099,100.148,564.097,99.022C563.095,97.896,561.092,91.437,560.09,91.789C559.088,92.141,559.088,99.304,558.086,99.687C557.084,100.071,555.08,93.676,554.078,93.294C553.076,92.913,553.076,98.545,552.074,98.606C551.072,98.667,549.068,93.156,548.066,93.567C547.064,93.978,547.064,100.311,546.062,101.763C545.06,103.215,543.057,99.785,542.055,99.73C541.053,99.674,541.052,102.993,540.051,102.133C539.049,101.274,537.045,96.237,536.043,96.089C535.041,95.941,535.041,100.681,534.039,101.973C533.037,103.265,531.033,101.109,530.031,100.233C529.029,99.357,529.029,99.762,528.027,100.772C527.025,101.783,525.021,103.399,524.019,101.816C523.018,100.233,523.017,95.45,522.015,95.47C521.014,95.491,519.01,100.315,518.008,101.945C517.006,103.575,517.006,102.01,516.004,101.798C515.002,101.587,512.998,102.73,511.996,100.804C510.994,98.878,510.994,93.884,509.992,94.328C508.99,94.772,506.986,100.656,505.984,100.804C504.982,100.952,504.982,95.365,503.98,94.794C502.978,94.222,500.975,98.667,499.973,99.259C498.971,99.852,498.971,96.593,497.969,97.163C496.967,97.734,494.963,102.135,493.961,101.691C492.959,101.247,492.959,95.957,491.957,96.211C490.955,96.466,488.951,102.265,487.949,102.116C486.947,101.968,486.947,95.873,485.945,95.556C484.943,95.238,482.939,100.698,481.938,100.55C480.936,100.402,480.936,94.646,479.934,95.386C478.932,96.127,476.928,103.365,475.926,103.513C474.924,103.661,474.924,96.72,473.922,96.021C472.92,95.323,470.916,100.868,469.914,102.942C468.912,105.016,468.912,103.619,467.91,104.781C466.908,105.943,464.904,109.663,463.902,109.219C462.901,108.775,462.9,104.165,461.898,103.15C460.897,102.135,458.893,104.715,457.891,103.53C456.889,102.345,456.889,97.395,455.887,98.094C454.885,98.794,452.881,105.143,451.879,106.723C450.877,108.303,450.877,105.115,449.875,105.219C448.873,105.324,446.869,108.722,445.867,106.846C444.865,104.969,444.865,97.818,443.863,97.246C442.861,96.674,440.858,102.681,439.856,102.533C438.854,102.385,438.854,96.081,437.852,96.294C436.85,96.507,434.846,103.236,433.844,103.088C432.842,102.94,432.842,95.914,431.84,95.83C430.838,95.745,428.834,102.601,427.832,104.527C426.83,106.453,426.83,103.449,425.828,104.463C424.826,105.478,422.823,110.512,421.821,108.586C420.819,106.66,420.819,97.775,419.817,97.48C418.815,97.185,416.811,105.481,415.809,106.519C414.807,107.556,414.807,101.333,413.805,99.901C412.803,98.468,410.799,101.826,409.797,106.418C408.795,111.011,408.795,116.839,407.793,117.634C406.791,118.43,404.787,114.193,402.784,112.4C400.78,110.607,398.776,111.258,396.772,111.776C394.768,112.294,392.764,112.679,390.76,113.346C388.756,114.013,386.752,114.961,384.749,115.405C382.745,115.85,380.741,115.79,378.737,116.664C376.733,117.539,374.729,119.346,372.725,119.687C370.721,120.028,368.717,118.903,366.713,118.68C364.71,118.456,362.706,119.135,360.702,119.416C358.698,119.697,356.694,119.581,354.69,119.049C352.686,118.517,350.682,117.57,348.678,117.851C346.674,118.133,344.671,119.643,342.667,120.339C340.663,121.036,338.659,120.918,336.655,120.799C334.651,120.681,332.647,120.561,330.643,121.361C328.639,122.161,326.635,123.881,324.632,124.666C322.628,125.452,320.624,125.304,318.62,124.874C316.616,124.444,314.612,123.732,312.608,123.006C310.604,122.28,308.6,121.54,306.596,121.821C304.593,122.103,302.589,123.406,300.585,123.76C298.581,124.115,296.577,123.521,294.573,123.447C292.569,123.373,290.565,123.819,288.561,123.79C286.557,123.761,284.554,123.259,282.55,123.939C280.546,124.62,278.542,126.484,276.538,126.751C274.534,127.017,272.53,125.685,270.526,125.553C268.522,125.42,266.518,126.487,264.515,126.886C262.511,127.286,260.507,127.019,258.503,126.337C256.499,125.656,254.495,124.561,252.491,124.918C250.487,125.274,248.483,127.081,246.479,128.429C244.476,129.777,242.472,130.665,240.468,130.887C238.464,131.11,236.46,130.666,234.456,130.711C232.452,130.756,230.448,131.289,228.444,131.229C226.44,131.17,224.437,130.517,222.433,130.087C220.429,129.658,218.425,129.451,216.421,129.318C214.417,129.185,212.413,129.126,210.409,129.451C208.405,129.777,206.401,130.487,204.398,130.946C202.394,131.405,200.39,131.613,198.386,131.893C196.382,132.174,194.378,132.528,192.374,132.706C190.37,132.884,188.366,132.887,186.362,133.791C184.359,134.696,182.355,136.502,180.351,137.005C178.347,137.508,176.343,136.707,174.339,136.722C172.335,136.736,170.331,137.566,168.327,138.44C166.323,139.315,164.319,140.234,162.316,140.309C160.312,140.383,158.308,139.613,156.304,139.611C154.3,139.61,152.296,140.379,150.292,140.586C148.288,140.793,146.284,140.44,144.281,140.827C142.277,141.213,140.273,142.34,138.269,143.481C136.265,144.622,134.261,145.778,132.257,146.192C130.253,146.606,128.249,146.279,126.245,146.856C124.242,147.434,122.238,148.917,120.234,149.895C118.23,150.873,116.226,151.345,114.222,152.219C112.218,153.093,110.214,154.369,108.21,155.999C106.206,157.629,104.203,159.613,102.199,161.391C100.195,163.169,98.191,164.74,96.187,166.132C94.183,167.524,92.179,168.736,90.175,170.277C88.171,171.818,86.167,173.687,84.164,176.204C82.16,178.722,80.156,181.889,78.152,184.138C76.148,186.387,74.144,187.719,72.14,190.699C70.136,193.678,68.132,198.304,66.128,201.196C64.125,204.087,62.121,205.244,60.117,209.199C58.113,213.153,56.109,219.907,54.105,224.527C52.101,229.147,50.097,231.633,48.093,235.871C46.089,240.11,44.086,246.099,42.082,252.323C40.078,258.547,38.074,265.004,36.07,273.004C34.066,281.004,32.062,290.545,30.058,299.109C28.054,307.672,26.05,315.257,24.047,322.872C22.043,330.487,20.039,338.133,18.035,344.755C16.031,351.378,14.027,356.978,12.023,366.577Z" fill="#FF5F33" opacity="0.3"/></g></g><path class="foreground" aria-hidden="true" d="" display="none"/></g><g transform="translate(0,0)"><path class="background" aria-hidden="true" d="M0,0h600v400h-600Z"/><g><g class="mark-area role-mark layer_0_layer_0_marks" clip-path="url(#clip2)" role="graphics-object" aria-roledescription="area mark container"><path aria-label="Number of environment steps: 200.38k; Success rate: 0.072595; upper_Success rate: 0.135605; Width: 512; Ci1 of Success rate: 0.135605; Ci0 of Success rate: 0.072595; Mean of Success rate: 0.1034" role="graphics-symbol" aria-roledescription="errorband" d="M12.023,374.682C14.027,367.111,16.031,366.933,18.035,359.734C20.039,352.534,22.043,338.313,24.047,328.935C26.05,319.557,28.054,315.023,30.058,309.734C32.062,304.444,34.066,298.4,36.07,290.578C38.074,282.756,40.078,273.157,42.082,265.424C44.086,257.691,46.089,251.824,48.093,247.188C50.097,242.552,52.101,239.146,54.105,232.613C56.109,226.081,58.113,216.421,60.117,209.296C62.121,202.17,64.125,197.579,66.128,194.214C68.132,190.85,70.136,188.714,72.14,185.41C74.144,182.106,76.148,177.634,78.152,172.701C80.156,167.768,82.16,162.374,84.164,159.38C86.167,156.387,88.171,155.793,90.175,155.527C92.179,155.26,94.183,155.32,96.187,154.136C98.191,152.951,100.195,150.522,102.199,149.307C104.203,148.093,106.206,148.092,108.21,147.899C110.214,147.706,112.218,147.321,114.222,146.121C116.226,144.921,118.23,142.906,120.234,140.757C122.238,138.609,124.242,136.327,126.245,135.275C128.249,134.223,130.253,134.401,132.257,133.142C134.261,131.883,136.265,129.186,138.269,127.111C140.273,125.037,142.277,123.585,144.281,122.904C146.284,122.223,148.288,122.313,150.292,122.461C152.296,122.609,154.3,122.816,156.304,122.282C158.308,121.749,160.312,120.476,162.316,120.164C164.319,119.853,166.323,120.504,168.327,120.637C170.331,120.77,172.335,120.385,174.339,120.134C176.343,119.882,178.347,119.764,180.351,119.616C182.355,119.468,184.359,119.29,186.362,119.556C188.366,119.822,190.37,120.533,192.374,119.141C194.378,117.749,196.382,114.253,198.386,113.32C200.39,112.387,202.394,114.017,204.398,114.521C206.401,115.024,208.405,114.402,210.409,114.684C212.413,114.965,214.417,116.15,216.421,116.713C218.425,117.276,220.429,117.217,222.433,116.831C224.437,116.446,226.44,115.734,228.444,114.741C230.448,113.749,232.452,112.476,234.456,112.58C236.46,112.684,238.464,114.165,240.468,114.935C242.472,115.705,244.476,115.764,246.479,115.66C248.483,115.556,250.487,115.29,252.491,114.772C254.495,114.253,256.499,113.482,258.503,113.645C260.507,113.808,262.511,114.905,264.515,114.431C266.518,113.957,268.522,111.912,270.526,111.763C272.53,111.615,274.534,113.363,276.538,113.097C278.542,112.83,280.546,110.55,282.55,109.41C284.554,108.27,286.557,108.27,288.561,108.729C290.565,109.188,292.569,110.105,294.573,111.112C296.577,112.119,298.581,113.215,300.585,113.482C302.589,113.749,304.593,113.187,306.596,111.572C308.6,109.958,310.604,107.291,312.608,106.224C314.612,105.157,316.616,105.69,318.62,106.238C320.624,106.787,322.628,107.351,324.632,107.321C326.635,107.292,328.639,106.668,330.643,105.927C332.647,105.187,334.651,104.329,336.655,103.781C338.659,103.234,340.663,102.997,342.667,102.908C344.671,102.819,346.674,102.879,348.678,102.848C350.682,102.818,352.686,102.698,354.69,102.371C356.694,102.045,358.698,101.513,360.702,101.439C362.706,101.365,364.71,101.75,366.713,101.647C368.717,101.543,370.721,100.95,372.725,100.965C374.729,100.98,376.733,101.602,378.737,101.913C380.741,102.224,382.745,102.224,384.749,101.765C386.752,101.306,388.756,100.387,390.76,100.031C392.764,99.676,394.768,99.882,396.772,100.193C398.776,100.504,400.78,100.919,402.784,101.008C404.787,101.097,406.791,100.861,408.795,100.327C410.799,99.794,412.803,98.964,414.807,98.816C416.811,98.667,418.815,99.201,420.819,98.965C422.823,98.729,424.826,97.722,426.83,97.9C428.834,98.079,430.838,99.441,432.842,99.53C434.846,99.619,436.85,98.433,438.854,97.884C440.858,97.336,442.862,97.426,444.865,97.248C446.869,97.07,448.873,96.624,450.877,97.275C452.881,97.927,454.885,99.676,456.889,99.706C458.893,99.737,460.897,98.05,462.901,97.323C464.904,96.597,466.908,96.832,468.912,97.706C470.916,98.58,472.92,100.093,474.924,100.271C476.928,100.449,478.932,99.291,480.936,98.579C482.94,97.867,484.944,97.6,486.947,97.275C488.951,96.95,490.955,96.567,492.959,96.168C494.963,95.768,496.967,95.352,498.971,95.573C500.975,95.795,502.979,96.654,504.983,96.594C506.986,96.535,508.99,95.556,510.994,95.068C512.998,94.58,515.002,94.582,517.006,94.969C519.01,95.355,521.014,96.125,523.018,95.903C525.022,95.68,527.025,94.464,529.029,94.153C531.033,93.841,533.037,94.433,535.041,94.595C537.045,94.757,539.049,94.49,541.053,95.009C543.057,95.527,545.06,96.833,547.064,96.596C549.068,96.359,551.072,94.579,553.076,93.334C555.08,92.09,557.084,91.379,559.088,90.535C561.092,89.691,563.096,88.713,565.099,88.773C567.103,88.832,569.107,89.928,571.111,90.24C573.115,90.551,575.119,90.078,577.123,89.233C579.127,88.388,581.131,87.172,583.135,87.171C585.139,87.17,587.142,88.385,589.146,88.385L589.146,61.659C587.142,61.155,585.139,60.621,583.135,60.724C581.131,60.827,579.127,61.568,577.123,62.901C575.119,64.233,573.115,66.158,571.111,66.558C569.107,66.959,567.103,65.835,565.099,66.013C563.096,66.19,561.092,67.67,559.088,68.425C557.084,69.18,555.08,69.211,553.076,69.375C551.072,69.539,549.068,69.836,547.064,70.296C545.06,70.755,543.057,71.376,541.053,71.199C539.049,71.021,537.045,70.044,535.041,68.947C533.037,67.851,531.033,66.636,529.029,67.287C527.025,67.939,525.022,70.457,523.018,71.05C521.014,71.643,519.01,70.31,517.006,70.074C515.002,69.837,512.998,70.696,510.994,71.095C508.99,71.494,506.986,71.433,504.983,71.136C502.979,70.84,500.975,70.309,498.971,69.954C496.967,69.6,494.963,69.422,492.959,69.393C490.955,69.363,488.951,69.481,486.947,69.156C484.944,68.83,482.94,68.059,480.936,68.785C478.932,69.51,476.928,71.732,474.924,72.116C472.92,72.501,470.916,71.048,468.912,70.737C466.908,70.426,464.904,71.256,462.901,71.968C460.897,72.679,458.893,73.272,456.889,73.183C454.885,73.095,452.881,72.325,450.877,71.763C448.873,71.2,446.869,70.844,444.865,71.081C442.862,71.317,440.858,72.145,438.854,72.204C436.85,72.264,434.846,71.554,432.842,71.717C430.838,71.88,428.834,72.916,426.83,73.374C424.826,73.832,422.823,73.713,420.819,73.18C418.815,72.647,416.811,71.7,414.807,72.412C412.803,73.124,410.799,75.494,408.795,76.843C406.791,78.191,404.787,78.518,402.784,77.97C400.78,77.422,398.776,76,396.772,74.963C394.768,73.925,392.764,73.273,390.76,73.228C388.756,73.183,386.752,73.746,384.749,74.605C382.745,75.464,380.741,76.62,378.737,76.693C376.733,76.765,374.729,75.755,372.725,75.814C370.721,75.873,368.717,77.002,366.713,76.974C364.71,76.945,362.706,75.759,360.702,75.7C358.698,75.641,356.694,76.708,354.69,77.287C352.686,77.865,350.682,77.955,348.678,78.073C346.674,78.192,344.671,78.339,342.667,78.502C340.663,78.665,338.659,78.844,336.655,79.526C334.651,80.207,332.647,81.393,330.643,82.607C328.639,83.822,326.635,85.067,324.632,85.319C322.628,85.57,320.624,84.83,318.62,85.229C316.616,85.629,314.612,87.169,312.608,88.102C310.604,89.036,308.6,89.362,306.596,90.043C304.593,90.724,302.589,91.759,300.585,92.588C298.581,93.418,296.577,94.042,294.573,94.769C292.569,95.495,290.565,96.323,288.561,96.678C286.557,97.033,284.554,96.916,282.55,96.501C280.546,96.087,278.542,95.376,276.538,94.649C274.534,93.923,272.53,93.181,270.526,94.589C268.522,95.997,266.518,99.554,264.515,99.659C262.511,99.763,260.507,96.415,258.503,95.244C256.499,94.073,254.495,95.08,252.491,95.791C250.487,96.501,248.483,96.916,246.479,97.183C244.476,97.45,242.472,97.568,240.468,97.657C238.464,97.747,236.46,97.807,234.456,97.614C232.452,97.421,230.448,96.976,228.444,97.509C226.44,98.042,224.437,99.553,222.433,99.834C220.429,100.116,218.425,99.167,216.421,99.537C214.417,99.907,212.413,101.597,210.409,103.094C208.405,104.591,206.401,105.896,204.398,105.629C202.394,105.362,200.39,103.524,198.386,104.087C196.382,104.65,194.378,107.614,192.374,108.873C190.37,110.133,188.366,109.687,186.362,109.628C184.359,109.569,182.355,109.896,180.351,109.896C178.347,109.896,176.343,109.569,174.339,110.043C172.335,110.517,170.331,111.792,168.327,112.133C166.323,112.474,164.319,111.881,162.316,112.192C160.312,112.503,158.308,113.717,156.304,114.161C154.3,114.606,152.296,114.281,150.292,113.985C148.288,113.689,146.284,113.422,144.281,114.296C142.277,115.17,140.273,117.185,138.269,118.399C136.265,119.612,134.261,120.024,132.257,119.964C130.253,119.904,128.249,119.373,126.245,118.99C124.242,118.606,122.238,118.37,120.234,119.539C118.23,120.709,116.226,123.284,114.222,124.87C112.218,126.455,110.214,127.05,108.21,127.036C106.206,127.021,104.203,126.399,102.199,126.591C100.195,126.784,98.191,127.792,96.187,129.066C94.183,130.34,92.179,131.88,90.175,133.021C88.171,134.161,86.167,134.903,84.164,136.414C82.16,137.925,80.156,140.206,78.152,142.917C76.148,145.628,74.144,148.77,72.14,150.963C70.136,153.156,68.132,154.4,66.128,158.163C64.125,161.925,62.121,168.206,60.117,174.354C58.113,180.502,56.109,186.518,54.105,193.584C52.101,200.651,50.097,208.769,48.093,214.811C46.089,220.853,44.086,224.819,42.082,232.063C40.078,239.307,38.074,249.83,36.07,258.781C34.066,267.731,32.062,275.109,30.058,280.176C28.054,285.242,26.05,287.998,24.047,298.441C22.043,308.884,20.039,327.014,18.035,335.059C16.031,343.104,14.027,341.063,12.023,347.568Z" fill="#FF4B33" opacity="0.3"/></g></g><path class="foreground" aria-hidden="true" d="" display="none"/></g><g transform="translate(0,0)"><path class="background" aria-hidden="true" d="M0,0h600v400h-600Z"/><g><g class="mark-area role-mark layer_0_layer_0_marks" clip-path="url(#clip3)" role="graphics-object" aria-roledescription="area mark container"><path aria-label="Number of environment steps: 200.38k; Success rate: 0.07599; upper_Success rate: 0.124605; Width: 1024; Ci1 of Success rate: 0.124605; Ci0 of Success rate: 0.07599; Mean of Success rate: 0.1004" role="graphics-symbol" aria-roledescription="errorband" d="M12.023,371.393C14.027,357.6,16.031,342.756,18.035,332.134C20.039,321.512,22.043,315.113,24.047,307.394C26.05,299.676,28.054,290.638,30.058,281.052C32.062,271.467,34.066,261.333,36.07,256.445C38.074,251.557,40.078,251.914,42.082,253.204C44.086,254.493,46.089,256.716,48.093,255.472C50.097,254.229,52.101,249.52,54.105,244.216C56.109,238.911,58.113,233.011,60.117,231.261C62.121,229.512,64.125,231.913,66.128,233.187C68.132,234.461,70.136,234.61,72.14,232.418C74.144,230.227,76.148,225.696,78.152,221.148C80.156,216.601,82.16,212.037,84.164,210.14C86.167,208.243,88.171,209.013,90.175,207.886C92.179,206.759,94.183,203.736,96.187,201.217C98.191,198.699,100.195,196.684,102.199,195.839C104.203,194.994,106.206,195.319,108.21,192.935C110.214,190.55,112.218,185.456,114.222,183.516C116.226,181.576,118.23,182.79,120.234,181.934C122.238,181.077,124.242,178.15,126.245,174.847C128.249,171.544,130.253,167.865,132.257,165.493C134.261,163.121,136.265,162.056,138.269,159.166C140.273,156.276,142.277,151.561,144.281,146.775C146.284,141.988,148.288,137.13,150.292,135.678C152.296,134.226,154.3,136.181,156.304,134.627C158.308,133.074,160.312,128.013,162.316,124.976C164.319,121.939,166.323,120.926,168.327,117.842C170.331,114.758,172.335,109.602,174.339,105.661C176.343,101.721,178.347,98.995,180.351,97.752C182.355,96.509,184.359,96.749,186.362,97.623C188.366,98.496,190.37,100.004,192.374,101.16C194.378,102.316,196.382,103.12,198.386,101.846C200.39,100.573,202.394,97.221,204.398,95.946C206.401,94.671,208.405,95.473,210.409,96.17C212.413,96.867,214.417,97.459,216.421,95.429C218.425,93.399,220.429,88.747,222.433,87.103C224.437,85.458,226.44,86.82,228.444,85.886C230.448,84.951,232.452,81.72,234.456,80.668C236.46,79.616,238.464,80.744,240.468,81.485C242.472,82.226,244.476,82.581,246.479,82.107C248.483,81.634,250.487,80.333,252.491,79.414C254.495,78.496,256.499,77.96,258.503,78.004C260.507,78.048,262.511,78.672,264.515,78.864C266.518,79.057,268.522,78.819,270.526,77.915C272.53,77.011,274.534,75.442,276.538,73.071C278.542,70.701,280.546,67.528,282.55,66.091C284.554,64.653,286.557,64.951,288.561,64.255C290.565,63.559,292.569,61.868,294.573,62.09C296.577,62.312,298.581,64.446,300.585,65.039C302.589,65.631,304.593,64.682,306.596,64.712C308.6,64.741,310.604,65.75,312.608,66.061C314.612,66.373,316.616,65.987,318.62,65.81C320.624,65.632,322.628,65.661,324.632,66.876C326.635,68.091,328.639,70.491,330.643,71.172C332.647,71.853,334.651,70.816,336.655,70.253C338.659,69.69,340.663,69.601,342.667,68.209C344.671,66.817,346.674,64.121,348.678,62.95C350.682,61.779,352.686,62.134,354.69,62.342C356.694,62.55,358.698,62.61,360.702,62.447C362.706,62.284,364.71,61.898,366.713,61.691C368.717,61.484,370.721,61.456,372.725,61.797C374.729,62.139,376.733,62.848,378.737,62.788C380.741,62.728,382.745,61.899,384.749,62.061C386.752,62.224,388.756,63.379,390.76,63.186C392.764,62.993,394.768,61.452,396.772,61.067C398.776,60.681,400.78,61.452,402.784,62.652C404.787,63.853,406.791,65.483,408.795,65.957C410.799,66.432,412.803,65.75,414.807,65.572C416.811,65.394,418.815,65.719,420.819,65.734C422.823,65.749,424.826,65.453,426.83,64.787C428.834,64.121,430.838,63.084,432.842,62.951C434.846,62.818,436.85,63.589,438.854,63.648C440.858,63.707,442.862,63.055,444.865,62.847C446.869,62.639,448.873,62.875,450.877,63.615C452.881,64.356,454.885,65.6,456.889,65.304C458.893,65.008,460.897,63.172,462.901,61.794C464.904,60.416,466.908,59.497,468.912,59.216C470.916,58.934,472.92,59.29,474.924,59.824C476.928,60.357,478.932,61.067,480.936,61.645C482.94,62.223,484.944,62.668,486.947,63.157C488.951,63.646,490.955,64.179,492.959,64.193C494.963,64.207,496.967,63.704,498.971,63.111C500.975,62.519,502.979,61.837,504.983,61.733C506.986,61.63,508.99,62.104,510.994,62.563C512.998,63.022,515.002,63.467,517.006,63.17C519.01,62.874,521.014,61.837,523.018,61.585C525.022,61.333,527.025,61.867,529.029,61.719C531.033,61.57,533.037,60.741,535.041,60.726C537.045,60.711,539.049,61.511,541.053,61.63C543.057,61.748,545.06,61.185,547.064,61.408C549.068,61.63,551.072,62.639,553.076,63.069C555.08,63.499,557.084,63.352,559.088,63.307C561.092,63.262,563.096,63.32,565.099,63.423C567.103,63.526,569.107,63.674,571.111,63.63C573.115,63.585,575.119,63.348,577.123,63.748C579.127,64.148,581.131,65.185,583.135,65.26C585.139,65.334,587.142,64.446,589.146,63.854L589.146,48.561C587.142,48.887,585.139,49.064,583.135,49.256C581.131,49.448,579.127,49.656,577.123,50.175C575.119,50.693,573.115,51.522,571.111,51.241C569.107,50.96,567.103,49.569,565.099,49.021C563.096,48.473,561.092,48.769,559.088,49.035C557.084,49.301,555.08,49.539,553.076,49.198C551.072,48.857,549.068,47.939,547.064,48.027C545.06,48.116,543.057,49.213,541.053,49.539C539.049,49.864,537.045,49.42,535.041,48.917C533.037,48.413,531.033,47.851,529.029,47.584C527.025,47.317,525.022,47.345,523.018,47.463C521.014,47.581,519.01,47.79,517.006,47.331C515.002,46.872,512.998,45.746,510.994,45.864C508.99,45.983,506.986,47.346,504.983,47.835C502.979,48.324,500.975,47.939,498.971,48.442C496.967,48.946,494.963,50.339,492.959,50.753C490.955,51.168,488.951,50.605,486.947,50.369C484.944,50.132,482.94,50.221,480.936,49.718C478.932,49.214,476.928,48.117,474.924,47.331C472.92,46.546,470.916,46.072,468.912,45.82C466.908,45.568,464.904,45.539,462.901,46.635C460.897,47.731,458.893,49.953,456.889,50.976C454.885,51.998,452.881,51.82,450.877,50.546C448.873,49.273,446.869,46.903,444.865,46.473C442.862,46.043,440.858,47.553,438.854,47.745C436.85,47.938,434.846,46.813,432.842,46.458C430.838,46.103,428.834,46.517,426.83,47.139C424.826,47.761,422.823,48.59,420.819,48.353C418.815,48.116,416.811,46.813,414.807,46.798C412.803,46.783,410.799,48.057,408.795,48.546C406.791,49.036,404.787,48.74,402.784,48.192C400.78,47.644,398.776,46.843,396.772,46.784C394.768,46.724,392.764,47.407,390.76,47.644C388.756,47.881,386.752,47.673,384.749,47.88C382.745,48.087,380.741,48.709,378.737,49.168C376.733,49.627,374.729,49.922,372.725,50.086C370.721,50.249,368.717,50.28,366.713,50.399C364.71,50.519,362.706,50.726,360.702,50.548C358.698,50.37,356.694,49.806,354.69,49.346C352.686,48.887,350.682,48.531,348.678,47.805C346.674,47.079,344.671,45.981,342.667,45.804C340.663,45.626,338.659,46.367,336.655,46.724C334.651,47.08,332.647,47.051,330.643,46.962C328.639,46.873,326.635,46.724,324.632,47.346C322.628,47.967,320.624,49.358,318.62,49.728C316.616,50.099,314.612,49.448,312.608,49.375C310.604,49.301,308.6,49.805,306.596,50.723C304.593,51.641,302.589,52.974,300.585,53.256C298.581,53.537,296.577,52.767,294.573,52.709C292.569,52.65,290.565,53.301,288.561,53.05C286.557,52.799,284.554,51.644,282.55,51.407C280.546,51.17,278.542,51.852,276.538,52.104C274.534,52.356,272.53,52.178,270.526,52.281C268.522,52.385,266.518,52.77,264.515,52.977C262.511,53.184,260.507,53.212,258.503,53.329C256.499,53.447,254.495,53.653,252.491,53.787C250.487,53.921,248.483,53.981,246.479,54.679C244.476,55.376,242.472,56.709,240.468,57.464C238.464,58.22,236.46,58.398,234.456,59.243C232.452,60.087,230.448,61.599,228.444,61.511C226.44,61.422,224.437,59.733,222.433,59.377C220.429,59.021,218.425,59.999,216.421,60.931C214.417,61.864,212.413,62.753,210.409,63.109C208.405,63.464,206.401,63.285,204.398,64.974C202.394,66.664,200.39,70.221,198.386,71.614C196.382,73.007,194.378,72.237,192.374,70.74C190.37,69.243,188.366,67.019,186.362,66.619C184.359,66.219,182.355,67.643,180.351,68.636C178.347,69.63,176.343,70.193,174.339,71.941C172.335,73.689,170.331,76.622,168.327,77.94C166.323,79.259,164.319,78.961,162.316,80.754C160.312,82.547,158.308,86.429,156.304,87.984C154.3,89.54,152.296,88.769,150.292,89.287C148.288,89.805,146.284,91.613,144.281,92.353C142.277,93.093,140.273,92.767,138.269,93.33C136.265,93.893,134.261,95.345,132.257,95.36C130.253,95.375,128.249,93.952,126.245,94.737C124.242,95.523,122.238,98.517,120.234,100.088C118.23,101.659,116.226,101.806,114.222,103.347C112.218,104.887,110.214,107.821,108.21,109.021C106.206,110.221,104.203,109.687,102.199,109.895C100.195,110.102,98.191,111.051,96.187,111.54C94.183,112.03,92.179,112.059,90.175,113.941C88.171,115.822,86.167,119.556,84.164,122.356C82.16,125.156,80.156,127.022,78.152,128.726C76.148,130.43,74.144,131.97,72.14,132.192C70.136,132.414,68.132,131.317,66.128,133.45C64.125,135.582,62.121,140.944,60.117,147.313C58.113,153.681,56.109,161.056,54.105,165.96C52.101,170.863,50.097,173.295,48.093,177.208C46.089,181.121,44.086,186.515,42.082,191.968C40.078,197.421,38.074,202.933,36.07,210.31C34.066,217.687,32.062,226.93,30.058,236.367C28.054,245.804,26.05,255.436,24.047,264.681C22.043,273.926,20.039,282.785,18.035,295.896C16.031,309.006,14.027,326.367,12.023,342.604Z" fill="#E0392D" opacity="0.3"/></g></g><path class="foreground" aria-hidden="true" d="" display="none"/></g><g transform="translate(0,0)"><path class="background" aria-hidden="true" d="M0,0h600v400h-600Z"/><g><g class="mark-area role-mark layer_0_layer_0_marks" clip-path="url(#clip4)" role="graphics-object" aria-roledescription="area mark container"><path aria-label="Number of environment steps: 200.38k; Success rate: 0.103995; upper_Success rate: 0.17901; Width: 2048; Ci1 of Success rate: 0.17901; Ci0 of Success rate: 0.103995; Mean of Success rate: 0.1416" role="graphics-symbol" aria-roledescription="errorband" d="M12.023,353.573C14.027,340.98,16.031,331.824,18.035,319.158C20.039,306.492,22.043,290.315,24.047,275.591C26.05,260.867,28.054,247.597,30.058,238.041C32.062,228.486,34.066,222.645,36.07,217.576C38.074,212.507,40.078,208.21,42.082,201.973C44.086,195.736,46.089,187.558,48.093,182.995C50.097,178.432,52.101,177.484,54.105,173.558C56.109,169.633,58.113,162.73,60.117,158.093C62.121,153.456,64.125,151.086,66.128,146.952C68.132,142.818,70.136,136.92,72.14,133.779C74.144,130.638,76.148,130.253,78.152,129.38C80.156,128.506,82.16,127.143,84.164,125.75C86.167,124.357,88.171,122.934,90.175,122.712C92.179,122.49,94.183,123.47,96.187,123.426C98.191,123.383,100.195,122.317,102.199,122.42C104.203,122.524,106.206,123.796,108.21,122.343C110.214,120.89,112.218,116.712,114.222,115.408C116.226,114.104,118.23,115.676,120.234,114.609C122.238,113.543,124.242,109.839,126.245,108.046C128.249,106.253,130.253,106.371,132.257,105.171C134.261,103.971,136.265,101.453,138.269,100.269C140.273,99.085,142.277,99.235,144.281,97.901C146.284,96.568,148.288,93.752,150.292,91.514C152.296,89.276,154.3,87.616,156.304,85.793C158.308,83.97,160.312,81.985,162.316,80.104C164.319,78.223,166.323,76.446,168.327,74.076C170.331,71.706,172.335,68.743,174.339,67.899C176.343,67.054,178.347,68.328,180.351,68.15C182.355,67.973,184.359,66.343,186.362,65.276C188.366,64.21,190.37,63.706,192.374,63.483C194.378,63.261,196.382,63.319,198.386,62.252C200.39,61.185,202.394,58.993,204.398,59.334C206.401,59.675,208.405,62.55,210.409,63.336C212.413,64.121,214.417,62.819,216.421,61.397C218.425,59.975,220.429,58.434,222.433,57.826C224.437,57.219,226.44,57.544,228.444,57.884C230.448,58.224,232.452,58.58,234.456,58.773C236.46,58.965,238.464,58.995,240.468,59.202C242.472,59.409,244.476,59.793,246.479,59.023C248.483,58.253,250.487,56.327,252.491,56.194C254.495,56.061,256.499,57.719,258.503,58.534C260.507,59.349,262.511,59.32,264.515,58.624C266.518,57.927,268.522,56.564,270.526,55.571C272.53,54.578,274.534,53.956,276.538,53.378C278.542,52.801,280.546,52.268,282.55,51.987C284.554,51.707,286.557,51.678,288.561,51.931C290.565,52.184,292.569,52.72,294.573,53.638C296.577,54.556,298.581,55.857,300.585,55.811C302.589,55.764,304.593,54.371,306.596,54.09C308.6,53.809,310.604,54.64,312.608,54.686C314.612,54.731,316.616,53.991,318.62,53.798C320.624,53.604,322.628,53.958,324.632,53.957C326.635,53.956,328.639,53.601,330.643,54.061C332.647,54.521,334.651,55.795,336.655,56.017C338.659,56.239,340.663,55.41,342.667,55.559C344.671,55.707,346.674,56.835,348.678,58.791C350.682,60.747,352.686,63.531,354.69,63.797C356.694,64.063,358.698,61.81,360.702,59.499C362.706,57.187,364.71,54.816,366.713,53.63C368.717,52.444,370.721,52.444,372.725,52.859C374.729,53.274,376.733,54.104,378.737,54.919C380.741,55.733,382.745,56.533,384.749,58.341C386.752,60.149,388.756,62.964,390.76,62.446C392.764,61.928,394.768,58.076,396.772,56.477C398.776,54.877,400.78,55.53,402.784,54.744C404.787,53.959,406.791,51.735,408.795,51.201C410.799,50.667,412.803,51.824,414.807,51.957C416.811,52.091,418.815,51.202,420.819,50.135C422.823,49.068,424.826,47.823,426.83,47.26C428.834,46.696,430.838,46.815,432.842,46.089C434.846,45.363,436.85,43.793,438.854,44.148C440.858,44.504,442.862,46.785,444.865,47.956C446.869,49.127,448.873,49.187,450.877,49.069C452.881,48.951,454.885,48.656,456.889,49.085C458.893,49.514,460.897,50.668,462.901,50.49C464.904,50.312,466.908,48.801,468.912,47.469C470.916,46.136,472.92,44.98,474.924,44.565C476.928,44.15,478.932,44.476,480.936,45.143C482.94,45.809,484.944,46.816,486.947,47.527C488.951,48.238,490.955,48.653,492.959,48.461C494.963,48.268,496.967,47.467,498.971,46.756C500.975,46.044,502.979,45.422,504.983,45.141C506.986,44.859,508.99,44.919,510.994,44.727C512.998,44.535,515.002,44.092,517.006,43.648C519.01,43.204,521.014,42.759,523.018,42.758C525.022,42.758,527.025,43.202,529.029,44.699C531.033,46.195,533.037,48.743,535.041,50.788C537.045,52.833,539.049,54.374,541.053,54.819C543.057,55.264,545.06,54.612,547.064,53.708C549.068,52.804,551.072,51.647,553.076,50.61C555.08,49.573,557.084,48.654,559.088,48.3C561.092,47.945,563.096,48.155,565.099,47.489C567.103,46.822,569.107,45.28,571.111,45.753C573.115,46.226,575.119,48.714,577.123,50.284C579.127,51.853,581.131,52.504,583.135,52.578C585.139,52.652,587.142,52.148,589.146,51.393L589.146,29.792C587.142,30.31,585.139,30.843,583.135,30.547C581.131,30.25,579.127,29.125,577.123,27.51C575.119,25.896,573.115,23.791,571.111,23.628C569.107,23.464,567.103,25.242,565.099,26.176C563.096,27.11,561.092,27.199,559.088,27.2C557.084,27.2,555.08,27.111,553.076,27.776C551.072,28.441,549.068,29.861,547.064,30.023C545.06,30.186,543.057,29.092,541.053,29.315C539.049,29.539,537.045,31.079,535.041,30.798C533.037,30.517,531.033,28.414,529.029,26.77C527.025,25.126,525.022,23.941,523.018,24.014C521.014,24.087,519.01,25.419,517.006,25.863C515.002,26.307,512.998,25.864,510.994,25.805C508.99,25.747,506.986,26.073,504.983,27.362C502.979,28.651,500.975,30.902,498.971,31.998C496.967,33.094,494.963,33.035,492.959,33.094C490.955,33.154,488.951,33.333,486.947,32.014C484.944,30.696,482.94,27.88,480.936,26.68C478.932,25.48,476.928,25.896,474.924,27.021C472.92,28.147,470.916,29.984,468.912,30.547C466.908,31.11,464.904,30.399,462.901,30.311C460.897,30.222,458.893,30.756,456.889,30.919C454.885,31.081,452.881,30.874,450.877,31.141C448.873,31.407,446.869,32.148,444.865,31.867C442.862,31.585,440.858,30.281,438.854,29.555C436.85,28.829,434.846,28.68,432.842,28.902C430.838,29.124,428.834,29.718,426.83,30.34C424.826,30.962,422.823,31.613,420.819,33.021C418.815,34.428,416.811,36.592,414.807,36.696C412.803,36.8,410.799,34.844,408.795,34.044C406.791,33.244,404.787,33.6,402.784,33.303C400.78,33.007,398.776,32.058,396.772,32.383C394.768,32.709,392.764,34.309,390.76,35.02C388.756,35.731,386.752,35.553,384.749,35.406C382.745,35.258,380.741,35.14,378.737,35.111C376.733,35.081,374.729,35.141,372.725,35.585C370.721,36.03,368.717,36.859,366.713,37.451C364.71,38.044,362.706,38.399,360.702,39.064C358.698,39.73,356.694,40.707,354.69,40.915C352.686,41.122,350.682,40.56,348.678,39.449C346.674,38.339,344.671,36.679,342.667,35.997C340.663,35.314,338.659,35.608,336.655,35.207C334.651,34.807,332.647,33.711,330.643,33.016C328.639,32.32,326.635,32.024,324.632,32.04C322.628,32.055,320.624,32.381,318.62,32.219C316.616,32.056,314.612,31.406,312.608,30.843C310.604,30.281,308.6,29.806,306.596,30.828C304.593,31.85,302.589,34.37,300.585,35.214C298.581,36.058,296.577,35.227,294.573,35.063C292.569,34.899,290.565,35.403,288.561,35.537C286.557,35.67,284.554,35.434,282.55,34.871C280.546,34.309,278.542,33.42,276.538,33.865C274.534,34.31,272.53,36.088,270.526,37.288C268.522,38.488,266.518,39.11,264.515,40.354C262.511,41.598,260.507,43.464,258.503,42.813C256.499,42.161,254.495,38.99,252.491,38.116C250.487,37.242,248.483,38.664,246.479,39.183C244.476,39.702,242.472,39.318,240.468,38.918C238.464,38.518,236.46,38.102,234.456,38.25C232.452,38.398,230.448,39.109,228.444,39.628C226.44,40.147,224.437,40.473,222.433,41.007C220.429,41.541,218.425,42.281,216.421,43.659C214.417,45.036,212.413,47.05,210.409,46.665C208.405,46.279,206.401,43.494,204.398,43.153C202.394,42.813,200.39,44.916,198.386,45.539C196.382,46.161,194.378,45.303,192.374,45.91C190.37,46.517,188.366,48.59,186.362,49.759C184.359,50.929,182.355,51.196,180.351,50.9C178.347,50.604,176.343,49.745,174.339,49.893C172.335,50.041,170.331,51.196,168.327,53.063C166.323,54.93,164.319,57.51,162.316,59.11C160.312,60.71,158.308,61.33,156.304,62.1C154.3,62.869,152.296,63.787,150.292,65.565C148.288,67.343,146.284,69.981,144.281,71.138C142.277,72.294,140.273,71.968,138.269,73.82C136.265,75.671,134.261,79.7,132.257,81.078C130.253,82.456,128.249,81.182,126.245,81.953C124.242,82.724,122.238,85.539,120.234,87.316C118.23,89.094,116.226,89.835,114.222,91.731C112.218,93.627,110.214,96.678,108.21,99.863C106.206,103.049,104.203,106.369,102.199,108.221C100.195,110.074,98.191,110.459,96.187,110.933C94.183,111.407,92.179,111.97,90.175,113.051C88.171,114.133,86.167,115.732,84.164,116.443C82.16,117.154,80.156,116.977,78.152,116.859C76.148,116.74,74.144,116.68,72.14,118.191C70.136,119.701,68.132,122.783,66.128,124.62C64.125,126.457,62.121,127.05,60.117,128.62C58.113,130.191,56.109,132.74,54.105,134.814C52.101,136.889,50.097,138.489,48.093,143.51C46.089,148.531,44.086,156.973,42.082,163.877C40.078,170.78,38.074,176.144,36.07,183.316C34.066,190.487,32.062,199.466,30.058,209.526C28.054,219.585,26.05,230.726,24.047,241.627C22.043,252.529,20.039,263.191,18.035,276.465C16.031,289.739,14.027,305.625,12.023,320.797Z" fill="#B22B24" opacity="0.3"/></g></g><path class="foreground" aria-hidden="true" d="" display="none"/></g><g transform="translate(0,0)"><path class="background" aria-hidden="true" d="M0,0h600v400h-600Z"/><g><g class="mark-area role-mark layer_0_layer_0_marks" clip-path="url(#clip5)" role="graphics-object" aria-roledescription="area mark container"><path aria-label="Number of environment steps: 200.38k; Success rate: 0.119994444444; upper_Success rate: 0.172666666667; Width: 4096; Ci1 of Success rate: 0.172666666667; Ci0 of Success rate: 0.119994444444; Mean of Success rate: 0.147555555556" role="graphics-symbol" aria-roledescription="errorband" d="M12.023,341.763C14.027,326.059,16.031,311.477,18.035,292.58C20.039,273.683,22.043,250.472,24.047,234.654C26.05,218.835,28.054,210.409,30.058,202.162C32.062,193.914,34.066,185.846,36.07,181.072C38.074,176.297,40.078,174.816,42.082,173.847C44.086,172.877,46.089,172.417,48.093,171.677C50.097,170.936,52.101,169.914,54.105,167.592C56.109,165.27,58.113,161.649,60.117,157.616C62.121,153.583,64.125,149.138,66.128,145.154C68.132,141.17,70.136,137.647,72.14,136.363C74.144,135.079,76.148,136.035,78.152,134.34C80.156,132.645,82.16,128.3,84.164,126.358C86.167,124.416,88.171,124.876,90.175,124.975C92.179,125.074,94.183,124.812,96.187,124.763C98.191,124.713,100.195,124.875,102.199,124.068C104.203,123.262,106.206,121.486,108.21,120.763C110.214,120.039,112.218,120.366,114.222,119.756C116.226,119.147,118.23,117.599,120.234,115.196C122.238,112.793,124.242,109.533,126.245,107.558C128.249,105.582,130.253,104.89,132.257,104.248C134.261,103.606,136.265,103.014,138.269,102.308C140.273,101.602,142.277,100.781,144.281,100.698C146.284,100.616,148.288,101.271,150.292,99.129C152.296,96.988,154.3,92.049,156.304,88.379C158.308,84.708,160.312,82.305,162.316,81.037C164.319,79.77,166.323,79.638,168.327,77.893C170.331,76.149,172.335,72.792,174.339,70.899C176.343,69.006,178.347,68.577,180.351,67.836C182.355,67.095,184.359,66.043,186.362,64.578C188.366,63.113,190.37,61.235,192.374,60.808C194.378,60.381,196.382,61.404,198.386,61.157C200.39,60.91,202.394,59.393,204.398,59.244C206.401,59.095,208.405,60.313,210.409,60.725C212.413,61.137,214.417,60.744,216.421,60.135C218.425,59.526,220.429,58.701,222.433,57.351C224.437,56.001,226.44,54.125,228.444,53.698C230.448,53.27,232.452,54.291,234.456,54.686C236.46,55.081,238.464,54.852,240.468,54.293C242.472,53.733,244.476,52.844,246.479,53.041C248.483,53.238,250.487,54.52,252.491,55.244C254.495,55.967,256.499,56.132,258.503,56.05C260.507,55.968,262.511,55.64,264.515,55.64C266.518,55.64,268.522,55.968,270.526,55.128C272.53,54.288,274.534,52.28,276.538,51.901C278.542,51.523,280.546,52.774,282.55,53.465C284.554,54.156,286.557,54.288,288.561,52.609C290.565,50.931,292.569,47.442,294.573,46.257C296.577,45.072,298.581,46.192,300.585,46.406C302.589,46.62,304.593,45.928,306.596,46.801C308.6,47.673,310.604,50.109,312.608,52.332C314.612,54.554,316.616,56.562,318.62,57.484C320.624,58.407,322.628,58.243,324.632,58.605C326.635,58.966,328.639,59.853,330.643,59.491C332.647,59.128,334.651,57.516,336.655,55.508C338.659,53.5,340.663,51.095,342.667,49.844C344.671,48.593,346.674,48.495,348.678,52.035C350.682,55.575,352.686,62.753,354.69,64.498C356.694,66.243,358.698,62.555,360.702,60.809C362.706,59.063,364.71,59.26,366.713,59.227C368.717,59.193,370.721,58.93,372.725,58.914C374.729,58.898,376.733,59.129,378.737,58.784C380.741,58.439,382.745,57.517,384.749,56.431C386.752,55.345,388.756,54.095,390.76,52.234C392.764,50.374,394.768,47.903,396.772,47.047C398.776,46.19,400.78,46.948,402.784,49.665C404.787,52.382,406.791,57.058,408.795,57.568C410.799,58.079,412.803,54.425,414.807,54.621C416.811,54.818,418.815,58.866,420.819,60.298C422.823,61.729,424.826,60.545,426.83,59.689C428.834,58.833,430.838,58.305,432.842,57.136C434.846,55.967,436.85,54.156,438.854,53.449C440.858,52.742,442.862,53.137,444.865,52.743C446.869,52.348,448.873,51.163,450.877,51.574C452.881,51.985,454.885,53.993,456.889,55.343C458.893,56.693,460.897,57.386,462.901,56.991C464.904,56.596,466.908,55.113,468.912,53.912C470.916,52.71,472.92,51.791,474.924,52.302C476.928,52.813,478.932,54.755,480.936,55.675C482.94,56.596,484.944,56.495,486.947,56.165C488.951,55.835,490.955,55.276,492.959,55.309C494.963,55.342,496.967,55.969,498.971,57.335C500.975,58.702,502.979,60.809,504.983,61.6C506.986,62.39,508.99,61.864,510.994,59.181C512.998,56.497,515.002,51.656,517.006,49.861C519.01,48.066,521.014,49.317,523.018,49.993C525.022,50.669,527.025,50.77,529.029,49.735C531.033,48.699,533.037,46.526,535.041,44.648C537.045,42.77,539.049,41.188,541.053,41.236C543.057,41.284,545.06,42.963,547.064,43.177C549.068,43.391,551.072,42.14,553.076,41.416C555.08,40.693,557.084,40.497,559.088,41.254C561.092,42.012,563.096,43.722,565.099,44.265C567.103,44.809,569.107,44.186,571.111,43.792C573.115,43.398,575.119,43.232,577.123,44.054C579.127,44.876,581.131,46.685,583.135,46.98C585.139,47.276,587.142,46.058,589.146,45.483L589.146,26.861C587.142,27.553,585.139,27.849,583.135,27.866C581.131,27.882,579.127,27.619,577.123,26.977C575.119,26.335,573.115,25.314,571.111,25.084C569.107,24.853,567.103,25.413,565.099,25.018C563.096,24.623,561.092,23.273,559.088,23.323C557.084,23.372,555.08,24.821,553.076,25.38C551.072,25.94,549.068,25.611,547.064,24.92C545.06,24.229,543.057,23.176,541.053,22.963C539.049,22.749,537.045,23.374,535.041,24.905C533.037,26.436,531.033,28.872,529.029,30.864C527.025,32.856,525.022,34.403,523.018,34.337C521.014,34.272,519.01,32.593,517.006,32.395C515.002,32.197,512.998,33.48,510.994,33.512C508.99,33.545,506.986,32.327,504.983,31.027C502.979,29.727,500.975,28.345,498.971,28.015C496.967,27.686,494.963,28.408,492.959,28.589C490.955,28.77,488.951,28.408,486.947,27.783C484.944,27.157,482.94,26.267,480.936,25.922C478.932,25.576,476.928,25.774,474.924,26.203C472.92,26.631,470.916,27.29,468.912,27.274C466.908,27.258,464.904,26.567,462.901,27.258C460.897,27.95,458.893,30.023,456.889,30.649C454.885,31.274,452.881,30.452,450.877,31.621C448.873,32.789,446.869,35.949,444.865,36.146C442.862,36.343,440.858,33.578,438.854,32.755C436.85,31.933,434.846,33.053,432.842,33.974C430.838,34.895,428.834,35.618,426.83,36.078C424.826,36.538,422.823,36.736,420.819,36.473C418.815,36.21,416.811,35.486,414.807,35.043C412.803,34.599,410.799,34.435,408.795,33.481C406.791,32.526,404.787,30.78,402.784,30.039C400.78,29.298,398.776,29.561,396.772,29.298C394.768,29.035,392.764,28.246,390.76,28.74C388.756,29.234,386.752,31.011,384.749,31.998C382.745,32.985,380.741,33.183,378.737,33.825C376.733,34.467,374.729,35.555,372.725,36.23C370.721,36.905,368.717,37.167,366.713,36.854C364.71,36.542,362.706,35.653,360.702,34.386C358.698,33.119,356.694,31.473,354.69,30.321C352.686,29.168,350.682,28.509,348.678,28.788C346.674,29.067,344.671,30.286,342.667,31.735C340.663,33.184,338.659,34.863,336.655,35.95C334.651,37.036,332.647,37.529,330.643,38.105C328.639,38.681,326.635,39.339,324.632,38.696C322.628,38.053,320.624,36.109,318.62,34.858C316.616,33.606,314.612,33.046,312.608,32.602C310.604,32.158,308.6,31.83,306.596,31.699C304.593,31.569,302.589,31.636,300.585,30.896C298.581,30.156,296.577,28.607,294.573,28.92C292.569,29.232,290.565,31.405,288.561,32.573C286.557,33.742,284.554,33.905,282.55,33.28C280.546,32.654,278.542,31.24,276.538,31.569C274.534,31.899,272.53,33.973,270.526,35.257C268.522,36.542,266.518,37.036,264.515,36.789C262.511,36.542,260.507,35.552,258.503,34.893C256.499,34.235,254.495,33.906,252.491,33.33C250.487,32.755,248.483,31.932,246.479,31.915C244.476,31.899,242.472,32.689,240.468,32.936C238.464,33.183,236.46,32.886,234.456,33.134C232.452,33.381,230.448,34.172,228.444,34.205C226.44,34.238,224.437,33.513,222.433,34.237C220.429,34.96,218.425,37.133,216.421,38.845C214.417,40.557,212.413,41.808,210.409,41.512C208.405,41.216,206.401,39.372,204.398,38.351C202.394,37.331,200.39,37.133,198.386,37.611C196.382,38.089,194.378,39.242,192.374,38.765C190.37,38.288,188.366,36.181,186.362,35.917C184.359,35.653,182.355,37.233,180.351,38.665C178.347,40.097,176.343,41.382,174.339,43.323C172.335,45.265,170.331,47.863,168.327,49.427C166.323,50.991,164.319,51.52,162.316,52.953C160.312,54.387,158.308,56.724,156.304,59.653C154.3,62.583,152.296,66.104,150.292,68.259C148.288,70.415,146.284,71.205,144.281,71.782C142.277,72.359,140.273,72.723,138.269,72.476C136.265,72.23,134.261,71.373,132.257,72.343C130.253,73.314,128.249,76.111,126.245,78.416C124.242,80.721,122.238,82.533,120.234,84.394C118.23,86.254,116.226,88.163,114.222,89.397C112.218,90.631,110.214,91.191,108.21,92.128C106.206,93.066,104.203,94.381,102.199,95.451C100.195,96.52,98.191,97.344,96.187,98.661C94.183,99.979,92.179,101.789,90.175,103.09C88.171,104.391,86.167,105.182,84.164,107.601C82.16,110.021,80.156,114.068,78.152,116.818C76.148,119.567,74.144,121.018,72.14,121.431C70.136,121.844,68.132,121.218,66.128,122.897C64.125,124.576,62.121,128.56,60.117,130.946C58.113,133.333,56.109,134.122,54.105,136.574C52.101,139.026,50.097,143.142,48.093,145.347C46.089,147.553,44.086,147.849,42.082,147.437C40.078,147.026,38.074,145.905,36.07,148.226C34.066,150.547,32.062,156.308,30.058,164.638C28.054,172.968,26.05,183.867,24.047,198.32C22.043,212.773,20.039,230.78,18.035,247.57C16.031,264.36,14.027,279.933,12.023,299.753Z" fill="#7A1F18" opacity="0.3"/></g></g><path class="foreground" aria-hidden="true" d="" display="none"/></g></g><g class="mark-group role-scope layer_1_pathgroup" role="graphics-object" aria-roledescription="group mark container"><g transform="translate(0,0)"><path class="background" aria-hidden="true" d="M0,0h600v400h-600Z"/><g><g class="mark-line role-mark layer_1_marks" clip-path="url(#clip6)" role="graphics-object" aria-roledescription="line mark container"><path aria-label="Number of environment steps: 200.38k; Success rate: 0.0554; Width: 256" role="graphics-symbol" aria-roledescription="line mark" d="M12.023,378.741C14.027,367.526,16.031,360.03,18.035,354.119C20.039,348.207,22.043,343.881,24.047,337.585C26.05,331.289,28.054,323.022,30.058,314.252C32.062,305.481,34.066,296.207,36.07,287.704C38.074,279.2,40.078,271.467,42.082,265.393C44.086,259.319,46.089,254.904,48.093,251.23C50.097,247.556,52.101,244.622,54.105,239.6C56.109,234.578,58.113,227.467,60.117,223.215C62.121,218.963,64.125,217.57,66.128,214.785C68.132,212,70.136,207.822,72.14,205.467C74.144,203.111,76.148,202.578,78.152,200.504C80.156,198.43,82.16,194.815,84.164,192.252C86.167,189.689,88.171,188.178,90.175,186.504C92.179,184.83,94.183,182.993,96.187,180.83C98.191,178.667,100.195,176.178,102.199,173.867C104.203,171.556,106.206,169.422,108.21,168.474C110.214,167.526,112.218,167.763,114.222,167.333C116.226,166.904,118.23,165.807,120.234,164.667C122.238,163.526,124.242,162.341,126.245,161.393C128.249,160.444,130.253,159.733,132.257,158.889C134.261,158.044,136.265,157.067,138.269,155.763C140.273,154.459,142.277,152.83,144.281,152.622C146.284,152.415,148.288,153.63,150.292,153.719C152.296,153.807,154.3,152.77,156.304,152.4C158.308,152.03,160.312,152.326,162.316,152C164.319,151.674,166.323,150.726,168.327,149.956C170.331,149.185,172.335,148.593,174.339,148.474C176.343,148.356,178.347,148.711,180.351,148.074C182.355,147.437,184.359,145.807,186.362,144.593C188.366,143.378,190.37,142.578,192.374,141.926C194.378,141.274,196.382,140.77,198.386,140.459C200.39,140.148,202.394,140.03,204.398,139.807C206.401,139.585,208.405,139.259,210.409,139.467C212.413,139.674,214.417,140.415,216.421,140.296C218.425,140.178,220.429,139.2,222.433,139.096C224.437,138.993,226.44,139.763,228.444,140.193C230.448,140.622,232.452,140.711,234.456,140.207C236.46,139.704,238.464,138.607,240.468,137.852C242.472,137.096,244.476,136.681,246.479,136.03C248.483,135.378,250.487,134.489,252.491,134.519C254.495,134.548,256.499,135.496,258.503,135.852C260.507,136.207,262.511,135.97,264.515,135.422C266.518,134.874,268.522,134.015,270.526,134.119C272.53,134.222,274.534,135.289,276.538,135.17C278.542,135.052,280.546,133.748,282.55,133.037C284.554,132.326,286.557,132.207,288.561,131.719C290.565,131.23,292.569,130.37,294.573,130.119C296.577,129.867,298.581,130.222,300.585,130.074C302.589,129.926,304.593,129.274,306.596,129.378C308.6,129.481,310.604,130.341,312.608,130.711C314.612,131.081,316.616,130.963,318.62,131.007C320.624,131.052,322.628,131.259,324.632,130.815C326.635,130.37,328.639,129.274,330.643,128.933C332.647,128.593,334.651,129.007,336.655,129.126C338.659,129.244,340.663,129.067,342.667,128.444C344.671,127.822,346.674,126.756,348.678,126.533C350.682,126.311,352.686,126.933,354.69,127.985C356.694,129.037,358.698,130.519,360.702,130.326C362.706,130.133,364.71,128.267,366.713,127.496C368.717,126.726,370.721,127.052,372.725,126.741C374.729,126.43,376.733,125.481,378.737,125.437C380.741,125.393,382.745,126.252,384.749,125.837C386.752,125.422,388.756,123.733,390.76,122.637C392.764,121.541,394.768,121.037,396.772,120.622C398.776,120.207,400.78,119.881,402.784,120.237C404.787,120.593,406.791,121.63,407.793,120.93C408.795,120.23,408.795,117.794,409.797,114.979C410.799,112.165,412.803,108.971,413.805,110.718C414.807,112.466,414.807,119.153,415.809,121.129C416.811,123.104,418.815,120.367,419.817,120.282C420.819,120.198,420.819,122.765,421.821,122.025C422.823,121.284,424.826,117.235,425.828,116.896C426.83,116.557,426.83,119.929,427.832,118.646C428.834,117.362,430.838,111.422,431.84,111.506C432.842,111.591,432.842,117.7,433.844,117.7C434.846,117.7,436.85,111.591,437.852,111.57C438.854,111.549,438.854,117.616,439.856,117.418C440.858,117.22,442.861,110.758,443.863,110.907C444.865,111.055,444.865,117.813,445.867,119.245C446.869,120.677,448.873,116.783,449.875,116.995C450.877,117.206,450.877,121.524,451.879,120.832C452.881,120.141,454.885,114.441,455.887,113.383C456.889,112.325,456.889,115.908,457.891,116.995C458.893,118.081,460.897,116.67,461.898,117.242C462.9,117.813,462.901,120.367,463.902,120.021C464.904,119.675,466.908,116.43,467.91,115.795C468.912,115.16,468.912,117.136,469.914,115.951C470.916,114.765,472.92,110.42,473.922,111.224C474.924,112.028,474.924,117.982,475.926,118.526C476.928,119.069,478.932,114.201,479.934,113.608C480.936,113.016,480.936,116.698,481.938,116.995C482.939,117.291,484.943,114.201,485.945,114.307C486.947,114.413,486.947,117.714,487.949,118.653C488.951,119.591,490.955,118.166,491.957,118.314C492.959,118.462,492.959,120.183,493.961,118.702C494.963,117.22,496.967,112.536,497.969,112.049C498.971,111.563,498.971,115.273,499.973,115.52C500.975,115.767,502.978,112.55,503.98,112.508C504.982,112.466,504.982,115.598,505.984,115.302C506.986,115.005,508.99,111.28,509.992,111.196C510.994,111.111,510.994,114.667,511.996,115.309C512.998,115.951,515.002,113.679,516.004,113.785C517.006,113.891,517.006,116.374,518.008,116.473C519.01,116.571,521.014,114.286,522.015,114.476C523.017,114.667,523.018,117.333,524.019,118.333C525.021,119.333,527.025,118.667,528.027,118.296C529.029,117.926,529.029,117.852,530.031,118.511C531.033,119.17,533.037,120.563,534.039,119.6C535.041,118.637,535.041,115.319,536.043,114.904C537.045,114.489,539.049,116.978,540.051,117.333C541.052,117.689,541.053,115.911,542.055,115.615C543.057,115.319,545.06,116.504,546.062,115.704C547.064,114.904,547.064,112.119,548.066,112.741C549.068,113.363,551.072,117.393,552.074,117.037C553.076,116.681,553.076,111.941,554.078,111.081C555.08,110.222,557.084,113.244,558.086,113.57C559.088,113.896,559.088,111.526,560.09,111.467C561.092,111.407,563.095,113.659,564.097,114.4C565.099,115.141,565.099,114.37,566.101,115.763C567.103,117.156,569.107,120.711,570.109,120.356C571.111,120,571.111,115.733,572.113,113.304C573.115,110.874,575.119,110.281,576.121,110.815C577.123,111.348,577.123,113.007,578.125,112.405C579.127,111.802,581.13,108.938,582.132,110.605C583.134,112.272,583.135,118.469,584.136,118.444C585.138,118.42,587.142,112.173,588.144,111.321C589.146,110.469,589.146,115.012,590.148,114.889C591.15,114.765,593.154,109.975,594.156,109.531" stroke="#FF5F33" stroke-width="2"/></g></g><path class="foreground" aria-hidden="true" d="" display="none"/></g><g transform="translate(0,0)"><path class="background" aria-hidden="true" d="M0,0h600v400h-600Z"/><g><g class="mark-line role-mark layer_1_marks" clip-path="url(#clip7)" role="graphics-object" aria-roledescription="line mark container"><path aria-label="Number of environment steps: 200.38k; Success rate: 0.1034; Width: 512" role="graphics-symbol" aria-roledescription="line mark" d="M12.023,361.852C14.027,354.844,16.031,355.644,18.035,348.059C20.039,340.474,22.043,324.504,24.047,314.593C26.05,304.681,28.054,300.83,30.058,295.274C32.062,289.719,34.066,282.459,36.07,274.03C38.074,265.6,40.078,256,42.082,248.533C44.086,241.067,46.089,235.733,48.093,230.296C50.097,224.859,52.101,219.319,54.105,212.756C56.109,206.193,58.113,198.607,60.117,192.148C62.121,185.689,64.125,180.356,66.128,176.785C68.132,173.215,70.136,171.407,72.14,168.37C74.144,165.333,76.148,161.067,78.152,157.141C80.156,153.215,82.16,149.63,84.164,147.481C86.167,145.333,88.171,144.622,90.175,143.822C92.179,143.022,94.183,142.133,96.187,140.83C98.191,139.526,100.195,137.807,102.199,137.185C104.203,136.563,106.206,137.037,108.21,137.081C110.214,137.126,112.218,136.741,114.222,135.185C116.226,133.63,118.23,130.904,120.234,129.126C122.238,127.348,124.242,126.519,126.245,126.415C128.249,126.311,130.253,126.933,132.257,126.356C134.261,125.778,136.265,124,138.269,122.356C140.273,120.711,142.277,119.2,144.281,118.459C146.284,117.719,148.288,117.748,150.292,117.956C152.296,118.163,154.3,118.548,156.304,118.089C158.308,117.63,160.312,116.326,162.316,116.015C164.319,115.704,166.323,116.385,168.327,116.267C170.331,116.148,172.335,115.23,174.339,114.874C176.343,114.519,178.347,114.726,180.351,114.741C182.355,114.756,184.359,114.578,186.362,114.785C188.366,114.993,190.37,115.585,192.374,114.356C194.378,113.126,196.382,110.074,198.386,109.259C200.39,108.444,202.394,109.867,204.398,110.222C206.401,110.578,208.405,109.867,210.409,109.644C212.413,109.422,214.417,109.689,216.421,109.896C218.425,110.104,220.429,110.252,222.433,109.881C224.437,109.511,226.44,108.622,228.444,107.763C230.448,106.904,232.452,106.074,234.456,106.163C236.46,106.252,238.464,107.259,240.468,107.704C242.472,108.148,244.476,108.03,246.479,107.807C248.483,107.585,250.487,107.259,252.491,106.622C254.495,105.985,256.499,105.037,258.503,105.6C260.507,106.163,262.511,108.237,264.515,107.941C266.518,107.644,268.522,104.978,270.526,104.341C272.53,103.704,274.534,105.096,276.538,105.156C278.542,105.215,280.546,103.941,282.55,103.422C284.554,102.904,286.557,103.141,288.561,103.407C290.565,103.674,292.569,103.97,294.573,104.178C296.577,104.385,298.581,104.504,300.585,104.104C302.589,103.704,304.593,102.785,306.596,101.63C308.6,100.474,310.604,99.081,312.608,98C314.612,96.919,316.616,96.148,318.62,96.178C320.624,96.207,322.628,97.037,324.632,96.889C326.635,96.741,328.639,95.615,330.643,94.504C332.647,93.393,334.651,92.296,336.655,91.689C338.659,91.081,340.663,90.963,342.667,90.919C344.671,90.874,346.674,90.904,348.678,90.77C350.682,90.637,352.686,90.341,354.69,89.852C356.694,89.363,358.698,88.681,360.702,88.667C362.706,88.652,364.71,89.304,366.713,89.215C368.717,89.126,370.721,88.296,372.725,88.385C374.729,88.474,376.733,89.481,378.737,89.704C380.741,89.926,382.745,89.363,384.749,88.726C386.752,88.089,388.756,87.378,390.76,87.111C392.764,86.844,394.768,87.022,396.772,87.585C398.776,88.148,400.78,89.096,402.784,89.452C404.787,89.807,406.791,89.57,408.795,88.8C410.799,88.03,412.803,86.726,414.807,86.311C416.811,85.896,418.815,86.37,420.819,86.296C422.823,86.222,424.826,85.6,426.83,85.452C428.834,85.304,430.838,85.63,432.842,85.585C434.846,85.541,436.85,85.126,438.854,84.844C440.858,84.563,442.862,84.415,444.865,84.311C446.869,84.207,448.873,84.148,450.877,84.711C452.881,85.274,454.885,86.459,456.889,86.43C458.893,86.4,460.897,85.156,462.901,84.415C464.904,83.674,466.908,83.437,468.912,84.148C470.916,84.859,472.92,86.519,474.924,86.296C476.928,86.074,478.932,83.97,480.936,83.23C482.94,82.489,484.944,83.111,486.947,83.289C488.951,83.467,490.955,83.2,492.959,82.844C494.963,82.489,496.967,82.044,498.971,82.193C500.975,82.341,502.979,83.081,504.983,83.274C506.986,83.467,508.99,83.111,510.994,82.726C512.998,82.341,515.002,81.926,517.006,82.267C519.01,82.607,521.014,83.704,523.018,83.259C525.022,82.815,527.025,80.83,529.029,80.148C531.033,79.467,533.037,80.089,535.041,80.681C537.045,81.274,539.049,81.837,541.053,82.193C543.057,82.548,545.06,82.696,547.064,82.459C549.068,82.222,551.072,81.6,553.076,81.007C555.08,80.415,557.084,79.852,559.088,79.037C561.092,78.222,563.096,77.156,565.099,77.052C567.103,76.948,569.107,77.807,571.111,77.659C573.115,77.511,575.119,76.356,577.123,75.289C579.127,74.222,581.131,73.244,583.135,73.185C585.139,73.126,587.142,73.985,589.146,74.311" stroke="#FF4B33" stroke-width="2"/></g></g><path class="foreground" aria-hidden="true" d="" display="none"/></g><g transform="translate(0,0)"><path class="background" aria-hidden="true" d="M0,0h600v400h-600Z"/><g><g class="mark-line role-mark layer_1_marks" clip-path="url(#clip8)" role="graphics-object" aria-roledescription="line mark container"><path aria-label="Number of environment steps: 200.38k; Success rate: 0.1004; Width: 1024" role="graphics-symbol" aria-roledescription="line mark" d="M12.023,357.407C14.027,342.548,16.031,326.607,18.035,314.193C20.039,301.778,22.043,292.889,24.047,284.4C26.05,275.911,28.054,267.822,30.058,258.815C32.062,249.807,34.066,239.881,36.07,233.081C38.074,226.281,40.078,222.607,42.082,219.289C44.086,215.97,46.089,213.007,48.093,209.615C50.097,206.222,52.101,202.4,54.105,196.993C56.109,191.585,58.113,184.593,60.117,179.526C62.121,174.459,64.125,171.319,66.128,170.593C68.132,169.867,70.136,171.556,72.14,170.711C74.144,169.867,76.148,166.489,78.152,163.037C80.156,159.585,82.16,156.059,84.164,153.319C86.167,150.578,88.171,148.622,90.175,147.096C92.179,145.57,94.183,144.474,96.187,143.333C98.191,142.193,100.195,141.007,102.199,140.652C104.203,140.296,106.206,140.77,108.21,139.333C110.214,137.896,112.218,134.548,114.222,132.859C116.226,131.17,118.23,131.141,120.234,130.193C122.238,129.244,124.242,127.378,126.245,126.044C128.249,124.711,130.253,123.911,132.257,122.963C134.261,122.015,136.265,120.919,138.269,119.615C140.273,118.311,142.277,116.8,144.281,114.756C146.284,112.711,148.288,110.133,150.292,109.23C152.296,108.326,154.3,109.096,156.304,107.541C158.308,105.985,160.312,102.104,162.316,100.059C164.319,98.015,166.323,97.807,168.327,95.852C170.331,93.896,172.335,90.193,174.339,87.659C176.343,85.126,178.347,83.763,180.351,82.815C182.355,81.867,184.359,81.333,186.362,81.837C188.366,82.341,190.37,83.881,192.374,84.933C194.378,85.985,196.382,86.548,198.386,85.274C200.39,84,202.394,80.889,204.398,79.452C206.401,78.015,208.405,78.252,210.409,78.163C212.413,78.074,214.417,77.659,216.421,76.326C218.425,74.993,220.429,72.741,222.433,72.193C224.437,71.644,226.44,72.8,228.444,72.237C230.448,71.674,232.452,69.393,234.456,68.356C236.46,67.319,238.464,67.526,240.468,67.407C242.472,67.289,244.476,66.844,246.479,66.474C248.483,66.104,250.487,65.807,252.491,65.393C254.495,64.978,256.499,64.444,258.503,64.281C260.507,64.119,262.511,64.326,264.515,64.163C266.518,64,268.522,63.467,270.526,63.081C272.53,62.696,274.534,62.459,276.538,61.511C278.542,60.563,280.546,58.904,282.55,58.519C284.554,58.133,286.557,59.022,288.561,58.844C290.565,58.667,292.569,57.422,294.573,57.467C296.577,57.511,298.581,58.844,300.585,59.052C302.589,59.259,304.593,58.341,306.596,57.867C308.6,57.393,310.604,57.363,312.608,57.6C314.612,57.837,316.616,58.341,318.62,58.326C320.624,58.311,322.628,57.778,324.632,57.867C326.635,57.956,328.639,58.667,330.643,58.83C332.647,58.993,334.651,58.607,336.655,58.252C338.659,57.896,340.663,57.57,342.667,57.215C344.671,56.859,346.674,56.474,348.678,56.281C350.682,56.089,352.686,56.089,354.69,56.252C356.694,56.415,358.698,56.741,360.702,56.756C362.706,56.77,364.71,56.474,366.713,56.43C368.717,56.385,370.721,56.593,372.725,56.681C374.729,56.77,376.733,56.741,378.737,56.563C380.741,56.385,382.745,56.059,384.749,56.193C386.752,56.326,388.756,56.919,390.76,56.652C392.764,56.385,394.768,55.259,396.772,55.007C398.776,54.756,400.78,55.378,402.784,56.296C404.787,57.215,406.791,58.43,408.795,58.474C410.799,58.519,412.803,57.393,414.807,57.17C416.811,56.948,418.815,57.63,420.819,57.733C422.823,57.837,424.826,57.363,426.83,56.726C428.834,56.089,430.838,55.289,432.842,55.481C434.846,55.674,436.85,56.859,438.854,56.889C440.858,56.919,442.862,55.793,444.865,55.748C446.869,55.704,448.873,56.741,450.877,57.63C452.881,58.519,454.885,59.259,456.889,58.726C458.893,58.193,460.897,56.385,462.901,55.304C464.904,54.222,466.908,53.867,468.912,53.763C470.916,53.659,472.92,53.807,474.924,54.252C476.928,54.696,478.932,55.437,480.936,55.911C482.94,56.385,484.944,56.593,486.947,57.067C488.951,57.541,490.955,58.281,492.959,58.356C494.963,58.43,496.967,57.837,498.971,57.304C500.975,56.77,502.979,56.296,504.983,56C506.986,55.704,508.99,55.585,510.994,55.615C512.998,55.644,515.002,55.822,517.006,55.793C519.01,55.763,521.014,55.526,523.018,55.526C525.022,55.526,527.025,55.763,529.029,55.822C531.033,55.881,533.037,55.763,535.041,55.822C537.045,55.881,539.049,56.119,541.053,55.867C543.057,55.615,545.06,54.874,547.064,54.993C549.068,55.111,551.072,56.089,553.076,56.519C555.08,56.948,557.084,56.83,559.088,56.726C561.092,56.622,563.096,56.533,565.099,56.785C567.103,57.037,569.107,57.63,571.111,57.733C573.115,57.837,575.119,57.452,577.123,57.526C579.127,57.6,581.131,58.133,583.135,58.104C585.139,58.074,587.142,57.481,589.146,57.007" stroke="#E0392D" stroke-width="2"/></g></g><path class="foreground" aria-hidden="true" d="" display="none"/></g><g transform="translate(0,0)"><path class="background" aria-hidden="true" d="M0,0h600v400h-600Z"/><g><g class="mark-line role-mark layer_1_marks" clip-path="url(#clip9)" role="graphics-object" aria-roledescription="line mark container"><path aria-label="Number of environment steps: 200.38k; Success rate: 0.1416; Width: 2048" role="graphics-symbol" aria-roledescription="line mark" d="M12.023,336.519C14.027,322.637,16.031,310.43,18.035,297.2C20.039,283.97,22.043,269.719,24.047,257.037C26.05,244.356,28.054,233.244,30.058,223.807C32.062,214.37,34.066,206.607,36.07,200.43C38.074,194.252,40.078,189.659,42.082,182.815C44.086,175.97,46.089,166.874,48.093,161.704C50.097,156.533,52.101,155.289,54.105,152.474C56.109,149.659,58.113,145.274,60.117,142.341C62.121,139.407,64.125,137.926,66.128,135.007C68.132,132.089,70.136,127.733,72.14,125.585C74.144,123.437,76.148,123.496,78.152,123.23C80.156,122.963,82.16,122.37,84.164,121.23C86.167,120.089,88.171,118.4,90.175,117.674C92.179,116.948,94.183,117.185,96.187,117.007C98.191,116.83,100.195,116.237,102.199,115.452C104.203,114.667,106.206,113.689,108.21,111.393C110.214,109.096,112.218,105.481,114.222,103.719C116.226,101.956,118.23,102.044,120.234,100.593C122.238,99.141,124.242,96.148,126.245,95.096C128.249,94.044,130.253,94.933,132.257,93.63C134.261,92.326,136.265,88.83,138.269,87.17C140.273,85.511,142.277,85.689,144.281,84.444C146.284,83.2,148.288,80.533,150.292,78.519C152.296,76.504,154.3,75.141,156.304,73.763C158.308,72.385,160.312,70.993,162.316,69.23C164.319,67.467,166.323,65.333,168.327,63.244C170.331,61.156,172.335,59.111,174.339,58.681C176.343,58.252,178.347,59.437,180.351,59.526C182.355,59.615,184.359,58.607,186.362,57.6C188.366,56.593,190.37,55.585,192.374,55.304C194.378,55.022,196.382,55.467,198.386,54.593C200.39,53.719,202.394,51.526,204.398,51.896C206.401,52.267,208.405,55.2,210.409,55.674C212.413,56.148,214.417,54.163,216.421,52.593C218.425,51.022,220.429,49.867,222.433,49.393C224.437,48.919,226.44,49.126,228.444,49.037C230.448,48.948,232.452,48.563,234.456,48.652C236.46,48.741,238.464,49.304,240.468,49.719C242.472,50.133,244.476,50.4,246.479,49.704C248.483,49.007,250.487,47.348,252.491,47.644C254.495,47.941,256.499,50.193,258.503,50.785C260.507,51.378,262.511,50.311,264.515,49.378C266.518,48.444,268.522,47.644,270.526,46.622C272.53,45.6,274.534,44.356,276.538,43.867C278.542,43.378,280.546,43.644,282.55,43.793C284.554,43.941,286.557,43.97,288.561,44.03C290.565,44.089,292.569,44.178,294.573,44.652C296.577,45.126,298.581,45.985,300.585,45.481C302.589,44.978,304.593,43.111,306.596,42.385C308.6,41.659,310.604,42.074,312.608,42.326C314.612,42.578,316.616,42.667,318.62,42.77C320.624,42.874,322.628,42.993,324.632,42.993C326.635,42.993,328.639,42.874,330.643,43.496C332.647,44.119,334.651,45.481,336.655,45.807C338.659,46.133,340.663,45.422,342.667,45.837C344.671,46.252,346.674,47.793,348.678,49.259C350.682,50.726,352.686,52.119,354.69,52.074C356.694,52.03,358.698,50.548,360.702,49.17C362.706,47.793,364.71,46.519,366.713,45.63C368.717,44.741,370.721,44.237,372.725,44.222C374.729,44.207,376.733,44.681,378.737,45.23C380.741,45.778,382.745,46.4,384.749,47.185C386.752,47.97,388.756,48.919,390.76,48.207C392.764,47.496,394.768,45.126,396.772,44.444C398.776,43.763,400.78,44.77,402.784,44.489C404.787,44.207,406.791,42.637,408.795,42.622C410.799,42.607,412.803,44.148,414.807,44.296C416.811,44.444,418.815,43.2,420.819,42.059C422.823,40.919,424.826,39.881,426.83,39.111C428.834,38.341,430.838,37.837,432.842,37.23C434.846,36.622,436.85,35.911,438.854,36.504C440.858,37.096,442.862,38.993,444.865,39.704C446.869,40.415,448.873,39.941,450.877,39.6C452.881,39.259,454.885,39.052,456.889,39.304C458.893,39.556,460.897,40.267,462.901,40.341C464.904,40.415,466.908,39.852,468.912,38.83C470.916,37.807,472.92,36.326,474.924,35.615C476.928,34.904,478.932,34.963,480.936,35.822C482.94,36.681,484.944,38.341,486.947,39.333C488.951,40.326,490.955,40.652,492.959,40.637C494.963,40.622,496.967,40.267,498.971,39.289C500.975,38.311,502.979,36.711,504.983,35.778C506.986,34.844,508.99,34.578,510.994,34.444C512.998,34.311,515.002,34.311,517.006,33.896C519.01,33.481,521.014,32.652,523.018,32.696C525.022,32.741,527.025,33.659,529.029,35.333C531.033,37.007,533.037,39.437,535.041,40.548C537.045,41.659,539.049,41.452,541.053,41.541C543.057,41.63,545.06,42.015,547.064,41.481C549.068,40.948,551.072,39.496,553.076,38.607C555.08,37.719,557.084,37.393,559.088,37.111C561.092,36.83,563.096,36.593,565.099,35.807C567.103,35.022,569.107,33.689,571.111,33.956C573.115,34.222,575.119,36.089,577.123,37.556C579.127,39.022,581.131,40.089,583.135,40.548C585.139,41.007,587.142,40.859,589.146,40.296" stroke="#B22B24" stroke-width="2"/></g></g><path class="foreground" aria-hidden="true" d="" display="none"/></g><g transform="translate(0,0)"><path class="background" aria-hidden="true" d="M0,0h600v400h-600Z"/><g><g class="mark-line role-mark layer_1_marks" clip-path="url(#clip10)" role="graphics-object" aria-roledescription="line mark container"><path aria-label="Number of environment steps: 200.38k; Success rate: 0.147555555556; Width: 4096" role="graphics-symbol" aria-roledescription="line mark" d="M12.023,322.173C14.027,304.724,16.031,289.449,18.035,270.996C20.039,252.543,22.043,230.914,24.047,215.243C26.05,199.572,28.054,189.86,30.058,181.728C32.062,173.597,34.066,167.045,36.07,163.621C38.074,160.198,40.078,159.901,42.082,159.621C44.086,159.342,46.089,159.078,48.093,157.514C50.097,155.951,52.101,153.086,54.105,150.337C56.109,147.588,58.113,144.955,60.117,141.712C62.121,138.469,64.125,134.617,66.128,132.23C68.132,129.844,70.136,128.922,72.14,128.444C74.144,127.967,76.148,127.934,78.152,125.811C80.156,123.687,82.16,119.473,84.164,117.399C86.167,115.325,88.171,115.391,90.175,114.897C92.179,114.403,94.183,113.35,96.187,112.708C98.191,112.066,100.195,111.835,102.199,111.095C104.203,110.354,106.206,109.103,108.21,108.395C110.214,107.687,112.218,107.523,114.222,106.436C116.226,105.35,118.23,103.342,120.234,100.856C122.238,98.37,124.242,95.407,126.245,92.889C128.249,90.37,130.253,88.296,132.257,87.457C134.261,86.617,136.265,87.012,138.269,86.848C140.273,86.683,142.277,85.959,144.281,85.728C146.284,85.498,148.288,85.761,150.292,83.852C152.296,81.942,154.3,77.86,156.304,74.37C158.308,70.881,160.312,67.984,162.316,66.42C164.319,64.856,166.323,64.626,168.327,62.914C170.331,61.202,172.335,58.008,174.339,56.247C176.343,54.486,178.347,54.156,180.351,53.235C182.355,52.313,184.359,50.798,186.362,50.123C188.366,49.449,190.37,49.613,192.374,49.613C194.378,49.613,196.382,49.449,198.386,49.004C200.39,48.56,202.394,47.835,204.398,48.313C206.401,48.79,208.405,50.469,210.409,51.111C212.413,51.753,214.417,51.358,216.421,50.156C218.425,48.955,220.429,46.947,222.433,45.663C224.437,44.379,226.44,43.819,228.444,43.638C230.448,43.457,232.452,43.654,234.456,43.671C236.46,43.687,238.464,43.523,240.468,43.177C242.472,42.831,244.476,42.305,246.479,42.354C248.483,42.403,250.487,43.029,252.491,43.49C254.495,43.951,256.499,44.247,258.503,44.626C260.507,45.004,262.511,45.465,264.515,45.63C266.518,45.794,268.522,45.663,270.526,44.56C272.53,43.457,274.534,41.383,276.538,41.07C278.542,40.757,280.546,42.206,282.55,42.864C284.554,43.523,286.557,43.391,288.561,42.008C290.565,40.626,292.569,37.992,294.573,37.218C296.577,36.444,298.581,37.531,300.585,38.107C302.589,38.683,304.593,38.749,306.596,39.374C308.6,40,310.604,41.185,312.608,42.403C314.612,43.621,316.616,44.872,318.62,45.992C320.624,47.111,322.628,48.099,324.632,48.494C326.635,48.889,328.639,48.691,330.643,48.23C332.647,47.77,334.651,47.045,336.655,45.663C338.659,44.28,340.663,42.239,342.667,40.922C344.671,39.605,346.674,39.012,348.678,40.362C350.682,41.712,352.686,45.004,354.69,46.272C356.694,47.539,358.698,46.782,360.702,46.897C362.706,47.012,364.71,48,366.713,48.049C368.717,48.099,370.721,47.21,372.725,46.749C374.729,46.288,376.733,46.255,378.737,45.86C380.741,45.465,382.745,44.708,384.749,43.588C386.752,42.469,388.756,40.988,390.76,39.901C392.764,38.815,394.768,38.123,396.772,37.975C398.776,37.827,400.78,38.222,402.784,39.918C404.787,41.613,406.791,44.609,408.795,45.235C410.799,45.86,412.803,44.115,414.807,44.494C416.811,44.872,418.815,47.374,420.819,48.263C422.823,49.152,424.826,48.428,426.83,47.835C428.834,47.243,430.838,46.782,432.842,45.761C434.846,44.741,436.85,43.16,438.854,43.111C440.858,43.062,442.862,44.543,444.865,44.033C446.869,43.523,448.873,41.021,450.877,40.395C452.881,39.77,454.885,41.021,456.889,41.333C458.893,41.646,460.897,41.021,462.901,40.675C464.904,40.329,466.908,40.263,468.912,39.835C470.916,39.407,472.92,38.617,474.924,38.469C476.928,38.321,478.932,38.815,480.936,39.325C482.94,39.835,484.944,40.362,486.947,40.626C488.951,40.889,490.955,40.889,492.959,40.741C494.963,40.593,496.967,40.296,498.971,41.169C500.975,42.041,502.979,44.082,504.983,45.531C506.986,46.979,508.99,47.835,510.994,46.519C512.998,45.202,515.002,41.712,517.006,40.724C519.01,39.737,521.014,41.251,523.018,41.613C525.022,41.975,527.025,41.185,529.029,39.654C531.033,38.123,533.037,35.852,535.041,34.255C537.045,32.658,539.049,31.737,541.053,31.918C543.057,32.099,545.06,33.383,547.064,33.728C549.068,34.074,551.072,33.481,553.076,32.823C555.08,32.165,557.084,31.44,559.088,31.951C561.092,32.461,563.096,34.206,565.099,34.486C567.103,34.765,569.107,33.58,571.111,33.366C573.115,33.152,575.119,33.909,577.123,34.831C579.127,35.753,581.131,36.84,583.135,36.889C585.139,36.938,587.142,35.951,589.146,35.243" stroke="#7A1F18" stroke-width="2"/></g></g><path class="foreground" aria-hidden="true" d="" display="none"/></g></g><g class="mark-group role-legend" role="graphics-symbol" aria-roledescription="legend" aria-label="Symbol legend titled 'Width' for fill color and stroke color with 5 values: 256, 512, 1024, 2048, 4096"><g transform="translate(618,0)"><path class="background" aria-hidden="true" d="M0,0h46v99h-46Z" pointer-events="none"/><g><g class="mark-group role-legend-entry"><g transform="translate(0,21)"><path class="background" aria-hidden="true" d="M0,0h0v0h0Z" pointer-events="none"/><g><g class="mark-group role-scope" role="graphics-object" aria-roledescription="group mark container"><g transform="translate(0,0)"><path class="background" aria-hidden="true" d="M0,0h46v14h-46Z" pointer-events="none" opacity="1"/><g><g class="mark-symbol role-legend-symbol" pointer-events="none"><path transform="translate(7,7)" d="M5,0A5,5,0,1,1,-5,0A5,5,0,1,1,5,0" fill="#FF5F33" stroke="#FF5F33" stroke-width="1.5" opacity="0.3"/></g><g class="mark-text role-legend-label" pointer-events="none"><text text-anchor="start" transform="translate(18,11)" font-family="Times New Roman" font-size="14px" fill="#000" opacity="1">256</text></g></g><path class="foreground" aria-hidden="true" d="" pointer-events="none" display="none"/></g><g transform="translate(0,16)"><path class="background" aria-hidden="true" d="M0,0h46v14h-46Z" pointer-events="none" opacity="1"/><g><g class="mark-symbol role-legend-symbol" pointer-events="none"><path transform="translate(7,7)" d="M5,0A5,5,0,1,1,-5,0A5,5,0,1,1,5,0" fill="#FF4B33" stroke="#FF4B33" stroke-width="1.5" opacity="0.3"/></g><g class="mark-text role-legend-label" pointer-events="none"><text text-anchor="start" transform="translate(18,11)" font-family="Times New Roman" font-size="14px" fill="#000" opacity="1">512</text></g></g><path class="foreground" aria-hidden="true" d="" pointer-events="none" display="none"/></g><g transform="translate(0,32)"><path class="background" aria-hidden="true" d="M0,0h46v14h-46Z" pointer-events="none" opacity="1"/><g><g class="mark-symbol role-legend-symbol" pointer-events="none"><path transform="translate(7,7)" d="M5,0A5,5,0,1,1,-5,0A5,5,0,1,1,5,0" fill="#E0392D" stroke="#E0392D" stroke-width="1.5" opacity="0.3"/></g><g class="mark-text role-legend-label" pointer-events="none"><text text-anchor="start" transform="translate(18,11)" font-family="Times New Roman" font-size="14px" fill="#000" opacity="1">1024</text></g></g><path class="foreground" aria-hidden="true" d="" pointer-events="none" display="none"/></g><g transform="translate(0,48)"><path class="background" aria-hidden="true" d="M0,0h46v14h-46Z" pointer-events="none" opacity="1"/><g><g class="mark-symbol role-legend-symbol" pointer-events="none"><path transform="translate(7,7)" d="M5,0A5,5,0,1,1,-5,0A5,5,0,1,1,5,0" fill="#B22B24" stroke="#B22B24" stroke-width="1.5" opacity="0.3"/></g><g class="mark-text role-legend-label" pointer-events="none"><text text-anchor="start" transform="translate(18,11)" font-family="Times New Roman" font-size="14px" fill="#000" opacity="1">2048</text></g></g><path class="foreground" aria-hidden="true" d="" pointer-events="none" display="none"/></g><g transform="translate(0,64)"><path class="background" aria-hidden="true" d="M0,0h46v14h-46Z" pointer-events="none" opacity="1"/><g><g class="mark-symbol role-legend-symbol" pointer-events="none"><path transform="translate(7,7)" d="M5,0A5,5,0,1,1,-5,0A5,5,0,1,1,5,0" fill="#7A1F18" stroke="#7A1F18" stroke-width="1.5" opacity="0.3"/></g><g class="mark-text role-legend-label" pointer-events="none"><text text-anchor="start" transform="translate(18,11)" font-family="Times New Roman" font-size="14px" fill="#000" opacity="1">4096</text></g></g><path class="foreground" aria-hidden="true" d="" pointer-events="none" display="none"/></g></g></g><path class="foreground" aria-hidden="true" d="" pointer-events="none" display="none"/></g></g><g class="mark-text role-legend-title" pointer-events="none"><text text-anchor="start" transform="translate(0,13)" font-family="Times New Roman" font-size="16px" font-weight="bold" fill="#000" opacity="1">Width</text></g></g><path class="foreground" aria-hidden="true" d="" pointer-events="none" display="none"/></g></g></g><path class="foreground" aria-hidden="true" d="" display="none"/></g></g></g><defs><clipPath id="clip1"><rect x="0" y="0" width="600" height="400"/></clipPath><clipPath id="clip2"><rect x="0" y="0" width="600" height="400"/></clipPath><clipPath id="clip3"><rect x="0" y="0" width="600" height="400"/></clipPath><clipPath id="clip4"><rect x="0" y="0" width="600" height="400"/></clipPath><clipPath id="clip5"><rect x="0" y="0" width="600" height="400"/></clipPath><clipPath id="clip6"><rect x="0" y="0" width="600" height="400"/></clipPath><clipPath id="clip7"><rect x="0" y="0" width="600" height="400"/></clipPath><clipPath id="clip8"><rect x="0" y="0" width="600" height="400"/></clipPath><clipPath id="clip9"><rect x="0" y="0" width="600" height="400"/></clipPath><clipPath id="clip10"><rect x="0" y="0" width="600" height="400"/></clipPath></defs></svg>