<svg xmlns="http://www.w3.org/2000/svg" xmlns:xlink="http://www.w3.org/1999/xlink" version="1.1" class="marks" width="719" height="482" viewBox="0 0 719 482"><rect width="719" height="482" fill="white"/><g fill="none" stroke-miterlimit="10" transform="translate(50,36)"><g class="mark-group role-frame root" role="graphics-object" aria-roledescription="group mark container"><g transform="translate(0,0)"><path class="background" aria-hidden="true" d="M0.5,0.5h600v400h-600Z" stroke="#ddd"/><g><g class="mark-group role-axis" aria-hidden="true"><g transform="translate(0.5,400.5)"><path class="background" aria-hidden="true" d="M0,0h0v0h0Z" pointer-events="none"/><g><g class="mark-rule role-axis-grid" pointer-events="none"><line transform="translate(0,-400)" x2="0" y2="400" stroke="#ddd" stroke-width="1" opacity="1"/><line transform="translate(30,-400)" x2="0" y2="400" stroke="#ddd" stroke-width="1" opacity="1"/><line transform="translate(60,-400)" x2="0" y2="400" stroke="#ddd" stroke-width="1" opacity="1"/><line transform="translate(90,-400)" x2="0" y2="400" stroke="#ddd" stroke-width="1" opacity="1"/><line transform="translate(120,-400)" x2="0" y2="400" stroke="#ddd" stroke-width="1" opacity="1"/><line transform="translate(150,-400)" x2="0" y2="400" stroke="#ddd" stroke-width="1" opacity="1"/><line transform="translate(180,-400)" x2="0" y2="400" stroke="#ddd" stroke-width="1" opacity="1"/><line transform="translate(210,-400)" x2="0" y2="400" stroke="#ddd" stroke-width="1" opacity="1"/><line transform="translate(240,-400)" x2="0" y2="400" stroke="#ddd" stroke-width="1" opacity="1"/><line transform="translate(270,-400)" x2="0" y2="400" stroke="#ddd" stroke-width="1" opacity="1"/><line transform="translate(300,-400)" x2="0" y2="400" stroke="#ddd" stroke-width="1" opacity="1"/><line transform="translate(330,-400)" x2="0" y2="400" stroke="#ddd" stroke-width="1" opacity="1"/><line transform="translate(360,-400)" x2="0" y2="400" stroke="#ddd" stroke-width="1" opacity="1"/><line transform="translate(390,-400)" x2="0" y2="400" stroke="#ddd" stroke-width="1" opacity="1"/><line transform="translate(420,-400)" x2="0" y2="400" stroke="#ddd" stroke-width="1" opacity="1"/><line transform="translate(450,-400)" x2="0" y2="400" stroke="#ddd" stroke-width="1" opacity="1"/><line transform="translate(480,-400)" x2="0" y2="400" stroke="#ddd" stroke-width="1" opacity="1"/><line transform="translate(510,-400)" x2="0" y2="400" stroke="#ddd" stroke-width="1" opacity="1"/><line transform="translate(540,-400)" x2="0" y2="400" stroke="#ddd" stroke-width="1" opacity="1"/><line transform="translate(570,-400)" x2="0" y2="400" stroke="#ddd" stroke-width="1" opacity="1"/><line transform="translate(600,-400)" x2="0" y2="400" stroke="#ddd" stroke-width="1" opacity="1"/></g></g><path class="foreground" aria-hidden="true" d="" pointer-events="none" display="none"/></g></g><g class="mark-group role-axis" aria-hidden="true"><g transform="translate(0.5,0.5)"><path class="background" aria-hidden="true" d="M0,0h0v0h0Z" pointer-events="none"/><g><g class="mark-rule role-axis-grid" pointer-events="none"><line transform="translate(0,400)" x2="600" y2="0" stroke="#ddd" stroke-width="1" opacity="1"/><line transform="translate(0,356)" x2="600" y2="0" stroke="#ddd" stroke-width="1" opacity="1"/><line transform="translate(0,311)" x2="600" y2="0" stroke="#ddd" stroke-width="1" opacity="1"/><line transform="translate(0,267)" x2="600" y2="0" stroke="#ddd" stroke-width="1" opacity="1"/><line transform="translate(0,222)" x2="600" y2="0" stroke="#ddd" stroke-width="1" opacity="1"/><line transform="translate(0,178)" x2="600" y2="0" stroke="#ddd" stroke-width="1" opacity="1"/><line transform="translate(0,133)" x2="600" y2="0" stroke="#ddd" stroke-width="1" opacity="1"/><line transform="translate(0,89)" x2="600" y2="0" stroke="#ddd" stroke-width="1" opacity="1"/><line transform="translate(0,44)" x2="600" y2="0" stroke="#ddd" stroke-width="1" opacity="1"/><line transform="translate(0,0)" x2="600" y2="0" stroke="#ddd" stroke-width="1" opacity="1"/></g></g><path class="foreground" aria-hidden="true" d="" pointer-events="none" display="none"/></g></g><g class="mark-group role-axis" role="graphics-symbol" aria-roledescription="axis" aria-label="X-axis titled 'Timestep' for a linear scale with values from 0M to 20M"><g transform="translate(0.5,400.5)"><path class="background" aria-hidden="true" d="M0,0h0v0h0Z" pointer-events="none"/><g><g class="mark-rule role-axis-tick" pointer-events="none"><line transform="translate(0,0)" x2="0" y2="5" stroke="#888" stroke-width="1" opacity="1"/><line transform="translate(30,0)" x2="0" y2="5" stroke="#888" stroke-width="1" opacity="1"/><line transform="translate(60,0)" x2="0" y2="5" stroke="#888" stroke-width="1" opacity="1"/><line transform="translate(90,0)" x2="0" y2="5" stroke="#888" stroke-width="1" opacity="1"/><line transform="translate(120,0)" x2="0" y2="5" stroke="#888" stroke-width="1" opacity="1"/><line transform="translate(150,0)" x2="0" y2="5" stroke="#888" stroke-width="1" opacity="1"/><line transform="translate(180,0)" x2="0" y2="5" stroke="#888" stroke-width="1" opacity="1"/><line transform="translate(210,0)" x2="0" y2="5" stroke="#888" stroke-width="1" opacity="1"/><line transform="translate(240,0)" x2="0" y2="5" stroke="#888" stroke-width="1" opacity="1"/><line transform="translate(270,0)" x2="0" y2="5" stroke="#888" stroke-width="1" opacity="1"/><line transform="translate(300,0)" x2="0" y2="5" stroke="#888" stroke-width="1" opacity="1"/><line transform="translate(330,0)" x2="0" y2="5" stroke="#888" stroke-width="1" opacity="1"/><line transform="translate(360,0)" x2="0" y2="5" stroke="#888" stroke-width="1" opacity="1"/><line transform="translate(390,0)" x2="0" y2="5" stroke="#888" stroke-width="1" opacity="1"/><line transform="translate(420,0)" x2="0" y2="5" stroke="#888" stroke-width="1" opacity="1"/><line transform="translate(450,0)" x2="0" y2="5" stroke="#888" stroke-width="1" opacity="1"/><line transform="translate(480,0)" x2="0" y2="5" stroke="#888" stroke-width="1" opacity="1"/><line transform="translate(510,0)" x2="0" y2="5" stroke="#888" stroke-width="1" opacity="1"/><line transform="translate(540,0)" x2="0" y2="5" stroke="#888" stroke-width="1" opacity="1"/><line transform="translate(570,0)" x2="0" y2="5" stroke="#888" stroke-width="1" opacity="1"/><line transform="translate(600,0)" x2="0" y2="5" stroke="#888" stroke-width="1" opacity="1"/></g><g class="mark-text role-axis-label" pointer-events="none"><text text-anchor="start" transform="translate(0,18)" font-family="Times New Roman" font-size="14px" fill="#000" opacity="1">0</text><text text-anchor="middle" transform="translate(30,18)" font-family="Times New Roman" font-size="14px" fill="#000" opacity="0">1M</text><text text-anchor="middle" transform="translate(60,18)" font-family="Times New Roman" font-size="14px" fill="#000" opacity="1">2M</text><text text-anchor="middle" transform="translate(90,18)" font-family="Times New Roman" font-size="14px" fill="#000" opacity="0">3M</text><text text-anchor="middle" transform="translate(120,18)" font-family="Times New Roman" font-size="14px" fill="#000" opacity="1">4M</text><text text-anchor="middle" transform="translate(150,18)" font-family="Times New Roman" font-size="14px" fill="#000" opacity="0">5M</text><text text-anchor="middle" transform="translate(180,18)" font-family="Times New Roman" font-size="14px" fill="#000" opacity="1">6M</text><text text-anchor="middle" transform="translate(210,18)" font-family="Times New Roman" font-size="14px" fill="#000" opacity="0">7M</text><text text-anchor="middle" transform="translate(240,18)" font-family="Times New Roman" font-size="14px" fill="#000" opacity="1">8M</text><text text-anchor="middle" transform="translate(270,18)" font-family="Times New Roman" font-size="14px" fill="#000" opacity="0">9M</text><text text-anchor="middle" transform="translate(300,18)" font-family="Times New Roman" font-size="14px" fill="#000" opacity="1">10M</text><text text-anchor="middle" transform="translate(330,18)" font-family="Times New Roman" font-size="14px" fill="#000" opacity="0">11M</text><text text-anchor="middle" transform="translate(360,18)" font-family="Times New Roman" font-size="14px" fill="#000" opacity="1">12M</text><text text-anchor="middle" transform="translate(390,18)" font-family="Times New Roman" font-size="14px" fill="#000" opacity="0">13M</text><text text-anchor="middle" transform="translate(420,18)" font-family="Times New Roman" font-size="14px" fill="#000" opacity="1">14M</text><text text-anchor="middle" transform="translate(450,18)" font-family="Times New Roman" font-size="14px" fill="#000" opacity="0">15M</text><text text-anchor="middle" transform="translate(480,18)" font-family="Times New Roman" font-size="14px" fill="#000" opacity="1">16M</text><text text-anchor="middle" transform="translate(510,18)" font-family="Times New Roman" font-size="14px" fill="#000" opacity="0">17M</text><text text-anchor="middle" transform="translate(540,18)" font-family="Times New Roman" font-size="14px" fill="#000" opacity="1">18M</text><text text-anchor="middle" transform="translate(570,18)" font-family="Times New Roman" font-size="14px" fill="#000" opacity="0">19M</text><text text-anchor="end" transform="translate(600,18)" font-family="Times New Roman" font-size="14px" fill="#000" opacity="1">20M</text></g><g class="mark-rule role-axis-domain" pointer-events="none"><line transform="translate(0,0)" x2="600" y2="0" stroke="#888" stroke-width="1" opacity="1"/></g><g class="mark-text role-axis-title" pointer-events="none"><text text-anchor="middle" transform="translate(300,38)" font-family="Times New Roman" font-size="16px" font-weight="bold" fill="#000" opacity="1">Timestep</text></g></g><path class="foreground" aria-hidden="true" d="" pointer-events="none" display="none"/></g></g><g class="mark-group role-axis" role="graphics-symbol" aria-roledescription="axis" aria-label="Y-axis titled 'Success rate' for a linear scale with values from 0.1 to 1.0"><g transform="translate(0.5,0.5)"><path class="background" aria-hidden="true" d="M0,0h0v0h0Z" pointer-events="none"/><g><g class="mark-rule role-axis-tick" pointer-events="none"><line transform="translate(0,400)" x2="-5" y2="0" stroke="#888" stroke-width="1" opacity="1"/><line transform="translate(0,356)" x2="-5" y2="0" stroke="#888" stroke-width="1" opacity="1"/><line transform="translate(0,311)" x2="-5" y2="0" stroke="#888" stroke-width="1" opacity="1"/><line transform="translate(0,267)" x2="-5" y2="0" stroke="#888" stroke-width="1" opacity="1"/><line transform="translate(0,222)" x2="-5" y2="0" stroke="#888" stroke-width="1" opacity="1"/><line transform="translate(0,178)" x2="-5" y2="0" stroke="#888" stroke-width="1" opacity="1"/><line transform="translate(0,133)" x2="-5" y2="0" stroke="#888" stroke-width="1" opacity="1"/><line transform="translate(0,89)" x2="-5" y2="0" stroke="#888" stroke-width="1" opacity="1"/><line transform="translate(0,44)" x2="-5" y2="0" stroke="#888" stroke-width="1" opacity="1"/><line transform="translate(0,0)" x2="-5" y2="0" stroke="#888" stroke-width="1" opacity="1"/></g><g class="mark-text role-axis-label" pointer-events="none"><text text-anchor="end" transform="translate(-7,404)" font-family="Times New Roman" font-size="14px" fill="#000" opacity="1">0.1</text><text text-anchor="end" transform="translate(-7,359.55555555555554)" font-family="Times New Roman" font-size="14px" fill="#000" opacity="1">0.2</text><text text-anchor="end" transform="translate(-7,315.11111111111114)" font-family="Times New Roman" font-size="14px" fill="#000" opacity="1">0.3</text><text text-anchor="end" transform="translate(-7,270.66666666666663)" font-family="Times New Roman" font-size="14px" fill="#000" opacity="1">0.4</text><text text-anchor="end" transform="translate(-7,226.22222222222223)" font-family="Times New Roman" font-size="14px" fill="#000" opacity="1">0.5</text><text text-anchor="end" transform="translate(-7,181.77777777777777)" font-family="Times New Roman" font-size="14px" fill="#000" opacity="1">0.6</text><text text-anchor="end" transform="translate(-7,137.33333333333334)" font-family="Times New Roman" font-size="14px" fill="#000" opacity="1">0.7</text><text text-anchor="end" transform="translate(-7,92.88888888888889)" font-family="Times New Roman" font-size="14px" fill="#000" opacity="1">0.8</text><text text-anchor="end" transform="translate(-7,48.44444444444442)" font-family="Times New Roman" font-size="14px" fill="#000" opacity="1">0.9</text><text text-anchor="end" transform="translate(-7,4)" font-family="Times New Roman" font-size="14px" fill="#000" opacity="1">1.0</text></g><g class="mark-rule role-axis-domain" pointer-events="none"><line transform="translate(0,400)" x2="0" y2="-400" stroke="#888" stroke-width="1" opacity="1"/></g><g class="mark-text role-axis-title" pointer-events="none"><text text-anchor="middle" transform="translate(-28.5,200) rotate(-90) translate(0,-3)" font-family="Times New Roman" font-size="16px" font-weight="bold" fill="#000" opacity="1">Success rate</text></g></g><path class="foreground" aria-hidden="true" d="" pointer-events="none" display="none"/></g></g><g class="mark-group role-scope layer_0_layer_0_pathgroup" role="graphics-object" aria-roledescription="group mark container"><g transform="translate(0,0)"><path class="background" aria-hidden="true" d="M0,0h600v400h-600Z"/><g><g class="mark-area role-mark layer_0_layer_0_marks" clip-path="url(#clip1)" role="graphics-object" aria-roledescription="area mark container"><path aria-label="Timestep: 200.38k; Success rate: 0.026195; upper_Success rate: 0.088005; Width: 256; Ci1 of Success rate: 0.088005; Ci0 of Success rate: 0.026195; Mean of Success rate: 0.0554" role="graphics-symbol" aria-roledescription="errorband" d="M6.011,432.802L7.013,425.691C8.015,418.58,10.019,404.358,12.023,392.298C14.027,380.239,16.031,370.341,18.035,363.971C20.039,357.6,22.043,354.756,24.047,349.541C26.05,344.327,28.054,336.742,30.058,328.164C32.062,319.587,34.066,310.016,36.07,300.816C38.074,291.616,40.078,282.788,42.082,277.129C44.086,271.47,46.089,268.979,48.093,265.661C50.097,262.342,52.101,258.196,54.105,252.893C56.109,247.59,58.113,241.13,60.117,236.641C62.121,232.152,64.125,229.633,66.128,226.774C68.132,223.916,70.136,220.718,72.14,219.222C74.144,217.726,76.148,217.932,78.152,215.812C80.156,213.693,82.16,209.247,84.164,206.669C86.167,204.091,88.171,203.38,90.175,201.959C92.179,200.537,94.183,198.405,96.187,195.576C98.191,192.746,100.195,189.219,102.199,186.418C104.203,183.618,106.206,181.544,108.21,181.441C110.214,181.337,112.218,183.203,114.222,183.143C116.226,183.084,118.23,181.099,120.234,179.587C122.238,178.076,124.242,177.039,126.245,175.706C128.249,174.373,130.253,172.743,132.257,171.514C134.261,170.284,136.265,169.456,138.269,167.99C140.273,166.524,142.277,164.422,144.281,164.259C146.284,164.096,148.288,165.871,150.292,166.137C152.296,166.402,154.3,165.158,156.304,164.699C158.308,164.239,160.312,164.565,162.316,164.195C164.319,163.824,166.323,162.758,168.327,162.076C170.331,161.395,172.335,161.099,174.339,161.009C176.343,160.92,178.347,161.038,180.351,160.239C182.355,159.441,184.359,157.726,186.362,156.2C188.366,154.675,190.37,153.339,192.374,152.374C194.378,151.409,196.382,150.816,198.386,150.682C200.39,150.548,202.394,150.874,204.398,151.141C206.401,151.409,208.405,151.618,210.409,152.063C212.413,152.508,214.417,153.19,216.421,152.656C218.425,152.121,220.429,150.372,222.433,149.809C224.437,149.245,226.44,149.868,228.444,150.446C230.448,151.024,232.452,151.556,234.456,150.741C236.46,149.926,238.464,147.763,240.468,146.845C242.472,145.927,244.476,146.255,246.479,146.137C248.483,146.019,250.487,145.456,252.491,145.781C254.495,146.107,256.499,147.32,258.503,147.66C260.507,148,262.511,147.467,264.515,146.326C266.518,145.186,268.522,143.439,270.526,143.379C272.53,143.32,274.534,144.949,276.538,145.008C278.542,145.067,280.546,143.557,282.55,142.046C284.554,140.535,286.557,139.023,288.561,138C290.565,136.978,292.569,136.444,294.573,136.015C296.577,135.585,298.581,135.259,300.585,135.141C302.589,135.023,304.593,135.113,306.596,135.483C308.6,135.853,310.604,136.504,312.608,136.549C314.612,136.593,316.616,136.03,318.62,135.941C320.624,135.852,322.628,136.237,324.632,136.06C326.635,135.882,328.639,135.142,330.643,135.039C332.647,134.935,334.651,135.467,336.655,135.526C338.659,135.585,340.663,135.17,342.667,134.608C344.671,134.045,346.674,133.335,348.678,133.261C350.682,133.187,352.686,133.749,354.69,135.319C356.694,136.89,358.698,139.468,360.702,139.587C362.706,139.707,364.71,137.367,366.713,135.915C368.717,134.463,370.721,133.899,372.725,133.425C374.729,132.95,376.733,132.565,378.737,133.054C380.741,133.544,382.745,134.907,384.749,134.641C386.752,134.374,388.756,132.477,390.76,131.203C392.764,129.928,394.768,129.276,396.772,128.98C398.776,128.684,400.78,128.744,402.784,127.751C404.787,126.759,406.791,124.713,407.793,124.233C408.795,123.753,408.795,124.84,409.797,123.654C410.799,122.469,412.803,119.012,413.805,120.67C414.807,122.328,414.807,129.101,415.809,133.693C416.811,138.286,418.815,140.698,419.817,140.402C420.819,140.106,420.819,137.101,421.821,134.236C422.823,131.372,424.826,128.649,425.828,129.2C426.83,129.752,426.83,133.577,427.832,131.997C428.834,130.417,430.838,123.431,431.84,123.154C432.842,122.878,432.842,129.312,433.844,128.82C434.846,128.327,436.85,120.908,437.852,120.76C438.854,120.613,438.854,127.737,439.856,128.081C440.858,128.425,442.861,121.99,443.863,122.075C444.865,122.159,444.865,128.762,445.867,130.392C446.869,132.021,448.873,128.677,449.875,129.503C450.877,130.328,450.877,135.323,451.879,135.323C452.881,135.323,454.885,130.328,455.887,128.868C456.889,127.408,456.889,129.484,457.891,131.41C458.893,133.335,460.897,135.112,461.898,135.408C462.9,135.704,462.901,134.519,463.902,132C464.904,129.481,466.908,125.63,467.91,125.439C468.912,125.249,468.912,128.72,469.914,127.979C470.916,127.238,472.92,122.286,473.922,122.752C474.924,123.218,474.924,129.103,475.926,130.14C476.928,131.177,478.932,127.366,479.934,126.879C480.936,126.392,480.936,129.228,481.938,129.968C482.939,130.709,484.943,129.354,485.945,129.333C486.947,129.312,486.947,130.624,487.949,131.217C488.951,131.81,490.955,131.683,491.957,132.466C492.959,133.249,492.959,134.942,493.961,132.275C494.963,129.608,496.967,122.582,497.969,121.863C498.971,121.145,498.971,126.734,499.973,128.216C500.975,129.697,502.978,127.071,503.98,126.394C504.982,125.716,504.982,126.988,505.984,126.099C506.986,125.211,508.99,122.161,509.992,122.562C510.994,122.964,510.994,126.817,511.996,126.965C512.998,127.113,515.002,123.557,516.004,123.577C517.006,123.598,517.006,127.196,518.008,129.862C519.01,132.529,521.014,134.265,522.015,134.54C523.017,134.815,523.018,133.63,524.019,132.963C525.021,132.296,527.025,132.148,528.027,132.296C529.029,132.444,529.029,132.889,530.031,133.289C531.033,133.689,533.037,134.044,534.039,133.961C535.041,133.879,535.041,133.357,536.043,133.001C537.045,132.646,539.049,132.456,540.051,132.243C541.052,132.03,541.053,131.793,542.055,131.052C543.057,130.311,545.06,129.067,546.062,128.504C547.064,127.941,547.064,128.059,548.066,129.867C549.068,131.674,551.072,135.17,552.074,134.963C553.076,134.756,553.076,130.844,554.078,128.563C555.08,126.281,557.084,125.63,558.086,126.49C559.088,127.351,559.088,129.724,560.09,129.813C561.092,129.902,563.095,127.707,564.097,128.09C565.099,128.474,565.099,131.437,566.101,133.156C567.103,134.874,569.107,135.348,570.109,134.489C571.111,133.63,571.111,131.437,572.113,129.156C573.115,126.874,575.119,124.504,576.121,126.667C577.123,128.83,577.123,135.526,578.125,135.715C579.127,135.904,581.13,129.585,582.132,128.069C583.134,126.554,583.135,129.841,584.136,129.939C585.138,130.037,587.142,126.946,588.144,127.203C589.146,127.459,589.146,131.063,590.148,130.693C591.15,130.323,593.154,125.98,594.156,125.54C595.158,125.101,595.158,128.564,595.158,130.296L595.158,132.028L595.158,96.444L595.158,94.543C595.158,92.642,595.158,88.84,594.156,90.025C593.154,91.21,591.15,97.383,590.148,97.377C589.146,97.37,589.146,91.185,588.144,93.111C587.142,95.037,585.138,105.074,584.136,105.078C583.135,105.083,583.134,95.054,582.132,88.847C581.13,82.64,579.127,80.253,578.125,82.349C577.123,84.444,577.123,91.022,576.121,93.037C575.119,95.052,573.115,92.504,572.113,94.489C571.111,96.474,571.111,102.993,570.109,103.437C569.107,103.881,567.103,98.252,566.101,97.393C565.099,96.533,565.099,100.444,564.097,99.168C563.095,97.892,561.092,91.428,560.09,91.636C559.088,91.843,559.088,98.721,558.086,99.05C557.084,99.378,555.08,93.156,554.078,92.947C553.076,92.739,553.076,98.545,552.074,98.723C551.072,98.901,549.068,93.45,548.066,93.688C547.064,93.926,547.064,99.852,546.062,101.363C545.06,102.874,543.057,99.97,542.055,99.941C541.053,99.911,541.052,102.756,540.051,101.778C539.049,100.8,537.045,96,536.043,95.97C535.041,95.941,535.041,100.681,534.039,101.628C533.037,102.574,531.033,99.726,530.031,98.489C529.029,97.252,529.029,97.626,528.027,98.94C527.025,100.254,525.021,102.508,524.019,101.286C523.018,100.063,523.017,95.365,522.015,95.513C521.014,95.66,519.01,100.654,518.008,102.284C517.006,103.913,517.006,102.179,516.004,101.82C515.002,101.46,512.998,102.476,511.996,100.55C510.994,98.624,510.994,93.757,509.992,94.222C508.99,94.687,506.986,100.485,505.984,100.633C504.982,100.781,504.982,95.279,503.98,94.793C502.978,94.306,500.975,98.834,499.973,99.426C498.971,100.019,498.971,96.676,497.969,97.121C496.967,97.566,494.963,101.799,493.961,101.354C492.959,100.91,492.959,95.788,491.957,96.232C490.955,96.675,488.951,102.684,487.949,102.535C486.947,102.387,486.947,96.083,485.945,95.935C484.943,95.788,482.939,101.799,481.938,101.651C480.936,101.503,480.936,95.196,479.934,95.619C478.932,96.042,476.928,103.196,475.926,103.344C474.924,103.492,474.924,96.635,473.922,95.915C472.92,95.196,470.916,100.614,469.914,102.688C468.912,104.762,468.912,103.492,467.91,104.423C466.908,105.354,464.904,108.487,463.902,108.042C462.901,107.598,462.9,103.577,461.898,102.815C460.897,102.053,458.893,104.55,457.891,103.365C456.889,102.18,456.889,97.312,455.887,98.073C454.885,98.834,452.881,105.223,451.879,105.223C450.877,105.223,450.877,98.834,449.875,98.941C448.873,99.048,446.869,105.651,445.867,105.354C444.865,105.058,444.865,97.862,443.863,97.27C442.861,96.677,440.858,102.688,439.856,102.54C438.854,102.392,438.854,96.085,437.852,96.339C436.85,96.593,434.846,103.407,433.844,104.494C432.842,105.58,432.842,100.938,431.84,100.621C430.838,100.303,428.834,104.31,427.832,103.817C426.83,103.323,426.83,98.328,425.828,99.64C424.826,100.951,422.823,108.569,421.821,107.829C420.819,107.088,420.819,97.988,419.817,97.65C418.815,97.311,416.811,105.733,415.809,106.77C414.807,107.807,414.807,101.459,413.805,99.898C412.803,98.337,410.799,101.562,409.797,106.155C408.795,110.747,408.795,116.707,407.793,117.613C406.791,118.519,404.787,114.37,402.784,112.518C400.78,110.666,398.776,111.11,396.772,111.465C394.768,111.821,392.764,112.088,390.76,112.829C388.756,113.57,386.752,114.784,384.749,115.376C382.745,115.969,380.741,115.94,378.737,116.829C376.733,117.718,374.729,119.524,372.725,119.731C370.721,119.938,368.717,118.544,366.713,118.396C364.71,118.248,362.706,119.345,360.702,119.746C358.698,120.146,356.694,119.85,354.69,119.346C352.686,118.842,350.682,118.131,348.678,118.339C346.674,118.546,344.671,119.672,342.667,120.22C340.663,120.767,338.659,120.737,336.655,120.722C334.651,120.707,332.647,120.708,330.643,121.538C328.639,122.368,326.635,124.027,324.632,124.694C322.628,125.361,320.624,125.036,318.62,124.474C316.616,123.911,314.612,123.111,312.608,122.488C310.604,121.865,308.6,121.419,306.596,121.819C304.593,122.219,302.589,123.465,300.585,123.792C298.581,124.119,296.577,123.526,294.573,123.6C292.569,123.674,290.565,124.415,288.561,124.444C286.557,124.473,284.554,123.791,282.55,124.265C280.546,124.739,278.542,126.37,276.538,126.621C274.534,126.873,272.53,125.745,270.526,125.656C268.522,125.567,266.518,126.517,264.515,126.918C262.511,127.319,260.507,127.17,258.503,126.444C256.499,125.719,254.495,124.415,252.491,124.74C250.487,125.066,248.483,127.021,246.479,128.339C244.476,129.658,242.472,130.34,240.468,130.636C238.464,130.932,236.46,130.841,234.456,130.93C232.452,131.019,230.448,131.287,228.444,131.05C226.44,130.813,224.437,130.071,222.433,129.745C220.429,129.419,218.425,129.51,216.421,129.584C214.417,129.659,212.413,129.719,210.409,129.881C208.405,130.044,206.401,130.31,204.398,130.783C202.394,131.257,200.39,131.939,198.386,132.339C196.382,132.739,194.378,132.859,192.374,132.977C190.37,133.095,188.366,133.212,186.362,134.026C184.359,134.839,182.355,136.35,180.351,136.809C178.347,137.267,176.343,136.675,174.339,136.913C172.335,137.151,170.331,138.22,168.327,139.051C166.323,139.881,164.319,140.474,162.316,140.548C160.312,140.622,158.308,140.178,156.304,140.251C154.3,140.324,152.296,140.916,150.292,140.96C148.288,141.004,146.284,140.501,144.281,140.797C142.277,141.093,140.273,142.189,138.269,143.493C136.265,144.796,134.261,146.308,132.257,146.916C130.253,147.523,128.249,147.226,126.245,147.641C124.242,148.056,122.238,149.182,120.234,150.056C118.23,150.93,116.226,151.552,114.222,152.411C112.218,153.271,110.214,154.369,108.21,155.896C106.206,157.422,104.203,159.378,102.199,161.17C100.195,162.961,98.191,164.59,96.187,165.819C94.183,167.047,92.179,167.877,90.175,169.403C88.171,170.93,86.167,173.153,84.164,176.071C82.16,178.99,80.156,182.605,78.152,184.709C76.148,186.812,74.144,187.404,72.14,190.248C70.136,193.093,68.132,198.19,66.128,201.227C64.125,204.264,62.121,205.241,60.117,209.24C58.113,213.239,56.109,220.261,54.105,224.957C52.101,229.654,50.097,232.026,48.093,236.13C46.089,240.235,44.086,246.072,42.082,252.398C40.078,258.724,38.074,265.539,36.07,273.642C34.066,281.745,32.062,291.137,30.058,299.315C28.054,307.493,26.05,314.456,24.047,321.864C22.043,329.273,20.039,337.125,18.035,343.807C16.031,350.488,14.027,355.999,12.023,366.057C10.019,376.116,8.015,390.724,7.013,398.027L6.011,405.331Z" fill="#FF5F33" opacity="0.3"/></g></g><path class="foreground" aria-hidden="true" d="" display="none"/></g><g transform="translate(0,0)"><path class="background" aria-hidden="true" d="M0,0h600v400h-600Z"/><g><g class="mark-area role-mark layer_0_layer_0_marks" clip-path="url(#clip2)" role="graphics-object" aria-roledescription="area mark container"><path aria-label="Timestep: 200.38k; Success rate: 0.071595; upper_Success rate: 0.142805; Width: 512; Ci1 of Success rate: 0.142805; Ci0 of Success rate: 0.071595; Mean of Success rate: 0.1034" role="graphics-symbol" aria-roledescription="errorband" d="M6.011,412.624L7.013,404.994C8.015,397.364,10.019,382.104,12.023,374.282C14.027,366.46,16.031,366.076,18.035,359.128C20.039,352.181,22.043,338.67,24.047,329.486C26.05,320.301,28.054,315.441,30.058,309.827C32.062,304.213,34.066,297.843,36.07,290.273C38.074,282.704,40.078,273.934,42.082,266.793C44.086,259.652,46.089,254.139,48.093,249.456C50.097,244.773,52.101,240.92,54.105,234.253C56.109,227.585,58.113,218.104,60.117,210.771C62.121,203.438,64.125,198.253,66.128,194.639C68.132,191.024,70.136,188.98,72.14,185.499C74.144,182.019,76.148,177.101,78.152,172.198C80.156,167.294,82.16,162.404,84.164,159.44C86.167,156.476,88.171,155.439,90.175,154.936C92.179,154.433,94.183,154.463,96.187,153.411C98.191,152.359,100.195,150.224,102.199,149.394C104.203,148.564,106.206,149.039,108.21,148.758C110.214,148.478,112.218,147.442,114.222,145.827C116.226,144.212,118.23,142.017,120.234,139.853C122.238,137.69,124.242,135.557,126.245,134.757C128.249,133.957,130.253,134.49,132.257,133.274C134.261,132.059,136.265,129.096,138.269,126.978C140.273,124.86,142.277,123.587,144.281,122.95C146.284,122.313,148.288,122.312,150.292,122.46C152.296,122.608,154.3,122.905,156.304,122.343C158.308,121.78,160.312,120.358,162.316,120.047C164.319,119.736,166.323,120.537,168.327,120.714C170.331,120.892,172.335,120.446,174.339,120.06C176.343,119.674,178.347,119.348,180.351,119.096C182.355,118.844,184.359,118.667,186.362,119.081C188.366,119.496,190.37,120.504,192.374,119.2C194.378,117.896,196.382,114.281,198.386,113.334C200.39,112.386,202.394,114.105,204.398,114.683C206.401,115.261,208.405,114.697,210.409,114.949C212.413,115.2,214.417,116.267,216.421,116.756C218.425,117.245,220.429,117.157,222.433,116.801C224.437,116.446,226.44,115.823,228.444,114.815C230.448,113.807,232.452,112.415,234.456,112.549C236.46,112.682,238.464,114.342,240.468,115.113C242.472,115.884,244.476,115.765,246.479,115.602C248.483,115.439,250.487,115.23,252.491,114.771C254.495,114.312,256.499,113.601,258.503,113.794C260.507,113.987,262.511,115.082,264.515,114.504C266.518,113.927,268.522,111.676,270.526,111.661C272.53,111.646,274.534,113.867,276.538,113.601C278.542,113.334,280.546,110.579,282.55,109.29C284.554,108.001,286.557,108.179,288.561,108.697C290.565,109.215,292.569,110.074,294.573,111.052C296.577,112.03,298.581,113.127,300.585,113.187C302.589,113.247,304.593,112.269,306.596,110.683C308.6,109.098,310.604,106.904,312.608,106.104C314.612,105.304,316.616,105.896,318.62,106.459C320.624,107.022,322.628,107.556,324.632,107.63C326.635,107.705,328.639,107.321,330.643,106.448C332.647,105.575,334.651,104.212,336.655,103.53C338.659,102.848,340.663,102.847,342.667,102.951C344.671,103.056,346.674,103.264,348.678,103.235C350.682,103.205,352.686,102.937,354.69,102.403C356.694,101.87,358.698,101.07,360.702,101.055C362.706,101.04,364.71,101.809,366.713,101.616C368.717,101.423,370.721,100.268,372.725,100.328C374.729,100.388,376.733,101.663,378.737,102.122C380.741,102.581,382.745,102.225,384.749,101.899C386.752,101.573,388.756,101.276,390.76,100.891C392.764,100.507,394.768,100.033,396.772,100.063C398.776,100.093,400.78,100.625,402.784,100.893C404.787,101.161,406.791,101.165,408.795,100.81C410.799,100.455,412.803,99.741,414.807,99.635C416.811,99.529,418.815,100.031,420.819,99.675C422.823,99.319,424.826,98.104,426.83,98.149C428.834,98.193,430.838,99.498,432.842,99.35C434.846,99.203,436.85,97.604,438.854,97.041C440.858,96.478,442.862,96.951,444.865,97.01C446.869,97.068,448.873,96.712,450.877,97.157C452.881,97.603,454.885,98.85,456.889,98.747C458.893,98.643,460.897,97.188,462.901,96.625C464.904,96.061,466.908,96.39,468.912,97.59C470.916,98.791,472.92,100.864,474.924,100.955C476.928,101.045,478.932,99.153,480.936,98.248C482.94,97.344,484.944,97.427,486.947,97.351C488.951,97.275,490.955,97.039,492.959,96.757C494.963,96.476,496.967,96.15,498.971,96.136C500.975,96.121,502.979,96.417,504.983,96.328C506.986,96.239,508.99,95.764,510.994,95.304C512.998,94.845,515.002,94.401,517.006,94.698C519.01,94.994,521.014,96.03,523.018,95.941C525.022,95.852,527.025,94.637,529.029,93.986C531.033,93.335,533.037,93.247,535.041,93.233C537.045,93.219,539.049,93.277,541.053,94.049C543.057,94.82,545.06,96.304,547.064,96.2C549.068,96.096,551.072,94.404,553.076,93.261C555.08,92.119,557.084,91.527,559.088,90.861C561.092,90.196,563.096,89.456,565.099,89.411C567.103,89.366,569.107,90.016,571.111,90.314C573.115,90.611,575.119,90.556,577.123,89.8C579.127,89.045,581.131,87.59,583.135,87.455C585.139,87.32,587.142,88.504,589.146,88.535C591.15,88.565,593.154,87.441,594.156,86.88L595.158,86.318L595.158,63.553L594.156,63.154C593.154,62.754,591.15,61.955,589.146,61.481C587.142,61.007,585.139,60.859,583.135,61.14C581.131,61.421,579.127,62.132,577.123,63.317C575.119,64.501,573.115,66.161,571.111,66.561C569.107,66.961,567.103,66.101,565.099,66.176C563.096,66.25,561.092,67.259,559.088,67.866C557.084,68.474,555.08,68.681,553.076,68.919C551.072,69.156,549.068,69.422,547.064,69.896C545.06,70.37,543.057,71.052,541.053,70.667C539.049,70.281,537.045,68.83,535.041,67.793C533.037,66.756,531.033,66.133,529.029,67.081C527.025,68.029,525.022,70.547,523.018,71.006C521.014,71.464,519.01,69.864,517.006,69.613C515.002,69.361,512.998,70.457,510.994,71.005C508.99,71.553,506.986,71.553,504.983,71.242C502.979,70.931,500.975,70.309,498.971,70.057C496.967,69.805,494.963,69.924,492.959,69.939C490.955,69.954,488.951,69.866,486.947,69.362C484.944,68.859,482.94,67.939,480.936,68.665C478.932,69.391,476.928,71.762,474.924,72.237C472.92,72.711,470.916,71.289,468.912,70.992C466.908,70.696,464.904,71.524,462.901,72.28C460.897,73.035,458.893,73.716,456.889,73.761C454.885,73.805,452.881,73.213,450.877,72.605C448.873,71.998,446.869,71.376,444.865,71.331C442.862,71.286,440.858,71.819,438.854,71.967C436.85,72.115,434.846,71.879,432.842,71.967C430.838,72.055,428.834,72.467,426.83,72.793C424.826,73.119,422.823,73.359,420.819,73.211C418.815,73.064,416.811,72.531,414.807,73.331C412.803,74.132,410.799,76.266,408.795,77.303C406.791,78.34,404.787,78.28,402.784,77.479C400.78,76.677,398.776,75.134,396.772,74.171C394.768,73.209,392.764,72.827,390.76,73.08C388.756,73.333,386.752,74.221,384.749,75.035C382.745,75.85,380.741,76.59,378.737,76.457C376.733,76.324,374.729,75.316,372.725,75.302C370.721,75.287,368.717,76.266,366.713,76.338C364.71,76.41,362.706,75.576,360.702,75.487C358.698,75.399,356.694,76.055,354.69,76.59C352.686,77.126,350.682,77.541,348.678,77.748C346.674,77.955,344.671,77.954,342.667,78.057C340.663,78.161,338.659,78.368,336.655,78.841C334.651,79.315,332.647,80.054,330.643,81.55C328.639,83.047,326.635,85.3,324.632,85.671C322.628,86.043,320.624,84.533,318.62,84.813C316.616,85.094,314.612,87.166,312.608,88.395C310.604,89.624,308.6,90.011,306.596,90.604C304.593,91.197,302.589,91.996,300.585,92.5C298.581,93.004,296.577,93.212,294.573,93.967C292.569,94.723,290.565,96.026,288.561,96.5C286.557,96.975,284.554,96.621,282.55,96.133C280.546,95.644,278.542,95.022,276.538,94.37C274.534,93.718,272.53,93.036,270.526,94.531C268.522,96.027,266.518,99.7,264.515,99.833C262.511,99.965,260.507,96.557,258.503,95.327C256.499,94.098,254.495,95.047,252.491,95.788C250.487,96.529,248.483,97.062,246.479,97.389C244.476,97.715,242.472,97.834,240.468,97.805C238.464,97.776,236.46,97.598,234.456,97.464C232.452,97.33,230.448,97.241,228.444,97.863C226.44,98.485,224.437,99.819,222.433,100.131C220.429,100.443,218.425,99.733,216.421,100.147C214.417,100.562,212.413,102.102,210.409,103.465C208.405,104.827,206.401,106.013,204.398,105.672C202.394,105.332,200.39,103.466,198.386,104.118C196.382,104.77,194.378,107.941,192.374,109.23C190.37,110.519,188.366,109.926,186.362,109.777C184.359,109.629,182.355,109.924,180.351,109.924C178.347,109.924,176.343,109.629,174.339,110.044C172.335,110.459,170.331,111.585,168.327,111.911C166.323,112.236,164.319,111.761,162.316,112.176C160.312,112.591,158.308,113.896,156.304,114.296C154.3,114.696,152.296,114.191,150.292,113.821C148.288,113.45,146.284,113.214,144.281,114.103C142.277,114.993,140.273,117.007,138.269,118.341C136.265,119.674,134.261,120.326,132.257,120.281C130.253,120.237,128.249,119.496,126.245,119.037C124.242,118.577,122.238,118.399,120.234,119.494C118.23,120.59,116.226,122.961,114.222,124.413C112.218,125.865,110.214,126.399,108.21,126.517C106.206,126.636,104.203,126.338,102.199,126.723C100.195,127.107,98.191,128.175,96.187,129.42C94.183,130.665,92.179,132.088,90.175,133.2C88.171,134.311,86.167,135.111,84.164,136.487C82.16,137.864,80.156,139.816,78.152,142.468C76.148,145.119,74.144,148.47,72.14,150.782C70.136,153.094,68.132,154.368,66.128,157.864C64.125,161.359,62.121,167.076,60.117,173.21C58.113,179.344,56.109,185.894,54.105,193.08C52.101,200.265,50.097,208.086,48.093,214.086C46.089,220.086,44.086,224.265,42.082,231.51C40.078,238.754,38.074,249.064,36.07,258.011C34.066,266.958,32.062,274.542,30.058,279.831C28.054,285.119,26.05,288.112,24.047,298.543C22.043,308.973,20.039,326.842,18.035,334.502C16.031,342.161,14.027,339.612,12.023,345.656C10.019,351.7,8.015,366.338,7.013,373.657L6.011,380.976Z" fill="#FF4B33" opacity="0.3"/></g></g><path class="foreground" aria-hidden="true" d="" display="none"/></g><g transform="translate(0,0)"><path class="background" aria-hidden="true" d="M0,0h600v400h-600Z"/><g><g class="mark-area role-mark layer_0_layer_0_marks" clip-path="url(#clip3)" role="graphics-object" aria-roledescription="area mark container"><path aria-label="Timestep: 200.38k; Success rate: 0.07718; upper_Success rate: 0.123405; Width: 1024; Ci1 of Success rate: 0.123405; Ci0 of Success rate: 0.07718; Mean of Success rate: 0.1004" role="graphics-symbol" aria-roledescription="errorband" d="M6.011,410.142L7.013,403.771C8.015,397.4,10.019,384.658,12.023,370.894C14.027,357.13,16.031,342.344,18.035,331.869C20.039,321.395,22.043,315.232,24.047,307.424C26.05,299.616,28.054,290.164,30.058,280.682C32.062,271.201,34.066,261.69,36.07,257.053C38.074,252.416,40.078,252.653,42.082,254.179C44.086,255.704,46.089,258.52,48.093,256.968C50.097,255.416,52.101,249.497,54.105,243.63C56.109,237.763,58.113,231.948,60.117,229.856C62.121,227.764,64.125,229.394,66.128,231.009C68.132,232.624,70.136,234.223,72.14,232.683C74.144,231.142,76.148,226.462,78.152,221.751C80.156,217.041,82.16,212.299,84.164,210.225C86.167,208.15,88.171,208.743,90.175,207.529C92.179,206.316,94.183,203.296,96.187,200.896C98.191,198.496,100.195,196.716,102.199,195.929C104.203,195.143,106.206,195.35,108.21,192.832C110.214,190.314,112.218,185.07,114.222,183.145C116.226,181.22,118.23,182.613,120.234,181.565C122.238,180.516,124.242,177.026,126.245,173.617C128.249,170.209,130.253,166.882,132.257,164.597C134.261,162.312,136.265,161.068,138.269,158.209C140.273,155.35,142.277,150.876,144.281,146.447C146.284,142.017,148.288,137.632,150.292,136.063C152.296,134.494,154.3,135.741,156.304,133.993C158.308,132.245,160.312,127.501,162.316,124.492C164.319,121.483,166.323,120.208,168.327,116.786C170.331,113.364,172.335,107.796,174.339,104.049C176.343,100.302,178.347,98.378,180.351,97.473C182.355,96.569,184.359,96.684,186.362,97.573C188.366,98.461,190.37,100.123,192.374,101.235C194.378,102.347,196.382,102.909,198.386,101.65C200.39,100.392,202.394,97.313,204.398,95.964C206.401,94.615,208.405,94.996,210.409,95.546C212.413,96.096,214.417,96.813,216.421,95.051C218.425,93.288,220.429,89.045,222.433,87.606C224.437,86.166,226.44,87.53,228.444,86.67C230.448,85.811,232.452,82.729,234.456,81.588C236.46,80.447,238.464,81.248,240.468,81.648C242.472,82.048,244.476,82.047,246.479,81.529C248.483,81.01,250.487,79.974,252.491,79.233C254.495,78.493,256.499,78.047,258.503,78.004C260.507,77.96,262.511,78.318,264.515,78.437C266.518,78.556,268.522,78.436,270.526,77.976C272.53,77.516,274.534,76.716,276.538,74.434C278.542,72.152,280.546,68.388,282.55,66.654C284.554,64.921,286.557,65.217,288.561,64.446C290.565,63.676,292.569,61.838,294.573,61.987C296.577,62.136,298.581,64.271,300.585,64.849C302.589,65.427,304.593,64.448,306.596,64.269C308.6,64.09,310.604,64.712,312.608,65.023C314.612,65.334,316.616,65.335,318.62,65.32C320.624,65.305,322.628,65.275,324.632,66.741C326.635,68.207,328.639,71.17,330.643,71.897C332.647,72.624,334.651,71.116,336.655,70.271C338.659,69.427,340.663,69.248,342.667,67.958C344.671,66.668,346.674,64.267,348.678,63.2C350.682,62.133,352.686,62.4,354.69,62.489C356.694,62.579,358.698,62.49,360.702,62.268C362.706,62.046,364.71,61.69,366.713,61.571C368.717,61.452,370.721,61.57,372.725,61.793C374.729,62.016,376.733,62.342,378.737,62.224C380.741,62.105,382.745,61.541,384.749,61.897C386.752,62.252,388.756,63.526,390.76,63.378C392.764,63.23,394.768,61.661,396.772,61.246C398.776,60.831,400.78,61.571,402.784,62.741C404.787,63.912,406.791,65.513,408.795,65.869C410.799,66.224,412.803,65.336,414.807,65.187C416.811,65.039,418.815,65.63,420.819,65.66C422.823,65.69,424.826,65.157,426.83,64.372C428.834,63.587,430.838,62.549,432.842,62.623C434.846,62.696,436.85,63.881,438.854,63.985C440.858,64.089,442.862,63.111,444.865,62.741C446.869,62.371,448.873,62.609,450.877,63.379C452.881,64.15,454.885,65.453,456.889,65.274C458.893,65.096,460.897,63.437,462.901,62.104C464.904,60.771,466.908,59.764,468.912,59.527C470.916,59.29,472.92,59.823,474.924,60.371C476.928,60.919,478.932,61.481,480.936,61.882C482.94,62.282,484.944,62.52,486.947,62.905C488.951,63.29,490.955,63.823,492.959,63.897C494.963,63.97,496.967,63.585,498.971,63.052C500.975,62.519,502.979,61.837,504.983,61.793C506.986,61.749,508.99,62.342,510.994,62.683C512.998,63.024,515.002,63.112,517.006,62.771C519.01,62.43,521.014,61.661,523.018,61.527C525.022,61.394,527.025,61.897,529.029,61.749C531.033,61.6,533.037,60.8,535.041,60.874C537.045,60.948,539.049,61.896,541.053,62.03C543.057,62.163,545.06,61.481,547.064,61.6C549.068,61.719,551.072,62.639,553.076,63.024C555.08,63.409,557.084,63.26,559.088,63.26C561.092,63.259,563.096,63.407,565.099,63.511C567.103,63.615,569.107,63.674,571.111,63.511C573.115,63.348,575.119,62.963,577.123,63.378C579.127,63.793,581.131,65.009,583.135,65.157C585.139,65.305,587.142,64.386,589.146,63.749C591.15,63.112,593.154,62.757,594.156,62.58L595.158,62.402L595.158,48.087L594.156,48.206C593.154,48.324,591.15,48.562,589.146,48.651C587.142,48.739,585.139,48.679,583.135,48.93C581.131,49.182,579.127,49.747,577.123,50.399C575.119,51.052,573.115,51.793,571.111,51.406C569.107,51.019,567.103,49.504,565.099,48.866C563.096,48.229,561.092,48.469,559.088,48.766C557.084,49.064,555.08,49.419,553.076,49.063C551.072,48.707,549.068,47.64,547.064,47.729C545.06,47.818,543.057,49.062,541.053,49.433C539.049,49.804,537.045,49.302,535.041,48.873C533.037,48.444,531.033,48.089,529.029,47.867C527.025,47.644,525.022,47.556,523.018,47.511C521.014,47.466,519.01,47.465,517.006,46.991C515.002,46.517,512.998,45.57,510.994,45.91C508.99,46.25,506.986,47.879,504.983,48.382C502.979,48.885,500.975,48.264,498.971,48.664C496.967,49.064,494.963,50.487,492.959,50.931C490.955,51.376,488.951,50.844,486.947,50.621C484.944,50.399,482.94,50.487,480.936,49.969C478.932,49.45,476.928,48.325,474.924,47.466C472.92,46.607,470.916,46.013,468.912,45.864C466.908,45.716,464.904,46.011,462.901,47.137C460.897,48.263,458.893,50.219,456.889,50.901C454.885,51.584,452.881,50.992,450.877,49.792C448.873,48.593,446.869,46.785,444.865,46.8C442.862,46.814,440.858,48.65,438.854,48.947C436.85,49.243,434.846,47.999,432.842,47.525C430.838,47.05,428.834,47.345,426.83,47.671C424.826,47.997,422.823,48.354,420.819,48.029C418.815,47.704,416.811,46.696,414.807,47.022C412.803,47.348,410.799,49.007,408.795,49.451C406.791,49.896,404.787,49.124,402.784,48.413C400.78,47.701,398.776,47.048,396.772,47.048C394.768,47.048,392.764,47.701,390.76,47.968C388.756,48.236,386.752,48.118,384.749,48.206C382.745,48.294,380.741,48.588,378.737,49.047C376.733,49.506,374.729,50.13,372.725,50.323C370.721,50.517,368.717,50.281,366.713,50.34C364.71,50.399,362.706,50.754,360.702,50.636C358.698,50.517,356.694,49.925,354.69,49.525C352.686,49.124,350.682,48.916,348.678,48.366C346.674,47.816,344.671,46.926,342.667,46.571C340.663,46.216,338.659,46.397,336.655,46.606C334.651,46.814,332.647,47.05,330.643,47.109C328.639,47.168,326.635,47.05,324.632,47.524C322.628,47.998,320.624,49.064,318.62,49.287C316.616,49.509,314.612,48.887,312.608,48.828C310.604,48.769,308.6,49.273,306.596,50.207C304.593,51.14,302.589,52.502,300.585,52.902C298.581,53.302,296.577,52.74,294.573,52.755C292.569,52.77,290.565,53.361,288.561,53.036C286.557,52.71,284.554,51.466,282.55,51.2C280.546,50.933,278.542,51.644,276.538,51.94C274.534,52.236,272.53,52.117,270.526,52.353C268.522,52.59,266.518,53.181,264.515,53.33C262.511,53.478,260.507,53.182,258.503,53.316C256.499,53.45,254.495,54.013,252.491,54.176C250.487,54.339,248.483,54.103,246.479,54.725C244.476,55.347,242.472,56.828,240.468,57.613C238.464,58.398,236.46,58.487,234.456,59.257C232.452,60.027,230.448,61.479,228.444,61.301C226.44,61.124,224.437,59.316,222.433,59.243C220.429,59.169,218.425,60.829,216.421,61.851C214.417,62.873,212.413,63.258,210.409,63.302C208.405,63.347,206.401,63.051,204.398,64.533C202.394,66.014,200.39,69.273,198.386,70.576C196.382,71.88,194.378,71.229,192.374,70.191C190.37,69.154,188.366,67.73,186.362,67.508C184.359,67.286,182.355,68.265,180.351,69.184C178.347,70.104,176.343,70.963,174.339,72.814C172.335,74.666,170.331,77.51,168.327,78.946C166.323,80.382,164.319,80.411,162.316,81.967C160.312,83.522,158.308,86.604,156.304,88.161C154.3,89.717,152.296,89.747,150.292,90.369C148.288,90.991,146.284,92.204,144.281,92.693C142.277,93.181,140.273,92.945,138.269,93.272C136.265,93.599,134.261,94.488,132.257,94.459C130.253,94.429,128.249,93.48,126.245,94.517C124.242,95.554,122.238,98.577,120.234,100.177C118.23,101.777,116.226,101.954,114.222,103.376C112.218,104.797,110.214,107.463,108.21,108.634C106.206,109.804,104.203,109.48,102.199,109.777C100.195,110.074,98.191,110.993,96.187,111.452C94.183,111.911,92.179,111.911,90.175,113.777C88.171,115.644,86.167,119.376,84.164,122.206C82.16,125.035,80.156,126.961,78.152,128.991C76.148,131.021,74.144,133.155,72.14,133.363C70.136,133.57,68.132,131.852,66.128,133.674C64.125,135.496,62.121,140.858,60.117,147.035C58.113,153.212,56.109,160.204,54.105,165.463C52.101,170.722,50.097,174.249,48.093,178.337C46.089,182.426,44.086,187.076,42.082,192.617C40.078,198.157,38.074,204.587,36.07,211.67C34.066,218.753,32.062,226.487,30.058,235.494C28.054,244.5,26.05,254.778,24.047,264.243C22.043,273.707,20.039,282.359,18.035,295.5C16.031,308.64,14.027,326.269,12.023,342.7C10.019,359.131,8.015,374.364,7.013,381.981L6.011,389.598Z" fill="#E0392D" opacity="0.3"/></g></g><path class="foreground" aria-hidden="true" d="" display="none"/></g><g transform="translate(0,0)"><path class="background" aria-hidden="true" d="M0,0h600v400h-600Z"/><g><g class="mark-area role-mark layer_0_layer_0_marks" clip-path="url(#clip4)" role="graphics-object" aria-roledescription="area mark container"><path aria-label="Timestep: 200.38k; Success rate: 0.10119; upper_Success rate: 0.18; Width: 2048; Ci1 of Success rate: 0.18; Ci0 of Success rate: 0.10119; Mean of Success rate: 0.1416" role="graphics-symbol" aria-roledescription="errorband" d="M6.011,399.471L7.013,391.221C8.015,382.972,10.019,366.473,12.023,353.776C14.027,341.08,16.031,332.187,18.035,319.206C20.039,306.225,22.043,289.157,24.047,274.416C26.05,259.675,28.054,247.261,30.058,238.046C32.062,228.832,34.066,222.817,36.07,217.752C38.074,212.687,40.078,208.571,42.082,202.2C44.086,195.83,46.089,187.204,48.093,182.597C50.097,177.991,52.101,177.404,54.105,173.553C56.109,169.701,58.113,162.585,60.117,157.68C62.121,152.774,64.125,150.079,66.128,145.917C68.132,141.754,70.136,136.124,72.14,133.234C74.144,130.344,76.148,130.194,78.152,129.497C80.156,128.801,82.16,127.557,84.164,126.001C86.167,124.446,88.171,122.579,90.175,122.312C92.179,122.045,94.183,123.379,96.187,123.439C98.191,123.498,100.195,122.282,102.199,122.445C104.203,122.607,106.206,124.148,108.21,122.741C110.214,121.333,112.218,116.978,114.222,115.467C116.226,113.956,118.23,115.29,120.234,114.061C122.238,112.832,124.242,109.039,126.245,107.366C128.249,105.692,130.253,106.137,132.257,104.996C134.261,103.856,136.265,101.129,138.269,99.75C140.273,98.372,142.277,98.341,144.281,96.949C146.284,95.557,148.288,92.803,150.292,90.521C152.296,88.24,154.3,86.431,156.304,84.787C158.308,83.142,160.312,81.662,162.316,80.108C164.319,78.554,166.323,76.926,168.327,74.421C170.331,71.917,172.335,68.536,174.339,67.691C176.343,66.845,178.347,68.535,180.351,68.491C182.355,68.447,184.359,66.669,186.362,65.424C188.366,64.179,190.37,63.467,192.374,63.23C194.378,62.993,196.382,63.23,198.386,62.207C200.39,61.185,202.394,58.904,204.398,59.349C206.401,59.793,208.405,62.964,210.409,63.69C212.413,64.416,214.417,62.697,216.421,61.099C218.425,59.5,220.429,58.022,222.433,57.608C224.437,57.193,226.44,57.842,228.444,58.271C230.448,58.7,232.452,58.909,234.456,59.057C236.46,59.205,238.464,59.293,240.468,59.44C242.472,59.587,244.476,59.793,246.479,58.978C248.483,58.163,250.487,56.326,252.491,56.267C254.495,56.208,256.499,57.927,258.503,58.609C260.507,59.29,262.511,58.934,264.515,58.297C266.518,57.659,268.522,56.741,270.526,55.749C272.53,54.756,274.534,53.69,276.538,53.068C278.542,52.446,280.546,52.267,282.55,52.119C284.554,51.97,286.557,51.852,288.561,52.119C290.565,52.387,292.569,53.04,294.573,54.062C296.577,55.084,298.581,56.476,300.585,56.475C302.589,56.474,304.593,55.081,306.596,54.652C308.6,54.222,310.604,54.756,312.608,54.593C314.612,54.43,316.616,53.57,318.62,53.349C320.624,53.127,322.628,53.544,324.632,53.633C326.635,53.722,328.639,53.484,330.643,54.18C332.647,54.876,334.651,56.506,336.655,56.758C338.659,57.01,340.663,55.885,342.667,55.9C344.671,55.914,346.674,57.068,348.678,58.786C350.682,60.504,352.686,62.787,354.69,62.92C356.694,63.053,358.698,61.038,360.702,58.993C362.706,56.948,364.71,54.874,366.713,53.778C368.717,52.681,370.721,52.563,372.725,52.801C374.729,53.039,376.733,53.634,378.737,54.479C380.741,55.323,382.745,56.417,384.749,58.357C386.752,60.296,388.756,63.081,390.76,62.578C392.764,62.075,394.768,58.283,396.772,56.683C398.776,55.083,400.78,55.675,402.784,54.875C404.787,54.075,406.791,51.883,408.795,51.394C410.799,50.906,412.803,52.121,414.807,52.166C416.811,52.21,418.815,51.085,420.819,50.033C422.823,48.981,424.826,48.003,426.83,47.455C428.834,46.907,430.838,46.789,432.842,45.959C434.846,45.13,436.85,43.588,438.854,43.988C440.858,44.387,442.862,46.728,444.865,47.958C446.869,49.187,448.873,49.306,450.877,49.143C452.881,48.98,454.885,48.536,456.889,49.083C458.893,49.631,460.897,51.171,462.901,51.053C464.904,50.935,466.908,49.159,468.912,47.693C470.916,46.227,472.92,45.071,474.924,44.671C476.928,44.27,478.932,44.625,480.936,45.247C482.94,45.869,484.944,46.758,486.947,47.424C488.951,48.091,490.955,48.536,492.959,48.432C494.963,48.328,496.967,47.676,498.971,46.995C500.975,46.313,502.979,45.602,504.983,45.262C506.986,44.921,508.99,44.952,510.994,44.596C512.998,44.241,515.002,43.499,517.006,43.189C519.01,42.878,521.014,42.998,523.018,43.176C525.022,43.353,527.025,43.589,529.029,45.041C531.033,46.493,533.037,49.161,535.041,51.042C537.045,52.924,539.049,54.019,541.053,54.299C543.057,54.58,545.06,54.047,547.064,53.024C549.068,52.001,551.072,50.49,553.076,49.438C555.08,48.387,557.084,47.796,559.088,47.573C561.092,47.351,563.096,47.498,565.099,46.949C567.103,46.4,569.107,45.156,571.111,45.556C573.115,45.956,575.119,48.001,577.123,49.32C579.127,50.639,581.131,51.232,583.135,51.574C585.139,51.916,587.142,52.007,589.146,51.354C591.15,50.702,593.154,49.307,594.156,48.609L595.158,47.911L595.158,28.531L594.156,28.709C593.154,28.887,591.15,29.244,589.146,29.659C587.142,30.074,585.139,30.548,583.135,30.163C581.131,29.778,579.127,28.533,577.123,27.17C575.119,25.807,573.115,24.324,571.111,24.013C569.107,23.701,567.103,24.561,565.099,25.272C563.096,25.983,561.092,26.546,559.088,26.887C557.084,27.227,555.08,27.346,553.076,28.043C551.072,28.739,549.068,30.014,547.064,30.029C545.06,30.044,543.057,28.799,541.053,29.094C539.049,29.39,537.045,31.227,535.041,31.035C533.037,30.842,531.033,28.62,529.029,26.961C527.025,25.301,525.022,24.205,523.018,24.28C521.014,24.354,519.01,25.599,517.006,26.044C515.002,26.488,512.998,26.132,510.994,26.043C508.99,25.953,506.986,26.131,504.983,27.346C502.979,28.561,500.975,30.813,498.971,31.909C496.967,33.005,494.963,32.946,492.959,33.02C490.955,33.094,488.951,33.301,486.947,32.028C484.944,30.754,482.94,27.999,480.936,26.784C478.932,25.57,476.928,25.895,474.924,26.961C472.92,28.027,470.916,29.833,468.912,30.633C466.908,31.433,464.904,31.227,462.901,31.153C460.897,31.079,458.893,31.139,456.889,31.139C454.885,31.139,452.881,31.079,450.877,31.42C448.873,31.76,446.869,32.5,444.865,32.026C442.862,31.552,440.858,29.864,438.854,29.05C436.85,28.236,434.846,28.296,432.842,28.726C430.838,29.156,428.834,29.956,426.83,30.636C424.826,31.317,422.823,31.879,420.819,33.197C418.815,34.516,416.811,36.591,414.807,36.621C412.803,36.652,410.799,34.637,408.795,33.822C406.791,33.007,404.787,33.391,402.784,33.168C400.78,32.945,398.776,32.115,396.772,32.484C394.768,32.853,392.764,34.421,390.76,35.087C388.756,35.753,386.752,35.518,384.749,35.431C382.745,35.344,380.741,35.405,378.737,35.45C376.733,35.496,374.729,35.524,372.725,35.88C370.721,36.236,368.717,36.918,366.713,37.451C364.71,37.984,362.706,38.367,360.702,38.915C358.698,39.463,356.694,40.175,354.69,40.294C352.686,40.413,350.682,39.94,348.678,38.963C346.674,37.985,344.671,36.504,342.667,35.955C340.663,35.407,338.659,35.791,336.655,35.331C334.651,34.872,332.647,33.568,330.643,32.767C328.639,31.966,326.635,31.667,324.632,31.727C322.628,31.787,320.624,32.204,318.62,32.043C316.616,31.881,314.612,31.139,312.608,30.694C310.604,30.249,308.6,30.1,306.596,31.211C304.593,32.323,302.589,34.695,300.585,35.584C298.581,36.473,296.577,35.88,294.573,35.761C292.569,35.642,290.565,35.998,288.561,36.057C286.557,36.117,284.554,35.881,282.55,35.273C280.546,34.665,278.542,33.686,276.538,33.982C274.534,34.278,272.53,35.849,270.526,36.812C268.522,37.776,266.518,38.131,264.515,39.391C262.511,40.65,260.507,42.814,258.503,42.354C256.499,41.895,254.495,38.812,252.491,38.056C250.487,37.3,248.483,38.871,246.479,39.552C244.476,40.233,242.472,40.024,240.468,39.506C238.464,38.987,236.46,38.158,234.456,38.084C232.452,38.01,230.448,38.692,228.444,39.24C226.44,39.789,224.437,40.204,222.433,40.679C220.429,41.153,218.425,41.687,216.421,43.168C214.417,44.65,212.413,47.079,210.409,46.902C208.405,46.724,206.401,43.94,204.398,43.436C202.394,42.932,200.39,44.708,198.386,45.256C196.382,45.804,194.378,45.124,192.374,45.629C190.37,46.133,188.366,47.821,186.362,48.961C184.359,50.102,182.355,50.696,180.351,50.607C178.347,50.519,176.343,49.748,174.339,49.911C172.335,50.073,170.331,51.169,168.327,53.05C166.323,54.93,164.319,57.596,162.316,59.241C160.312,60.885,158.308,61.508,156.304,62.176C154.3,62.843,152.296,63.555,150.292,65.333C148.288,67.111,146.284,69.956,144.281,71.065C142.277,72.175,140.273,71.55,138.269,73.4C136.265,75.251,134.261,79.578,132.257,81.105C130.253,82.632,128.249,81.359,126.245,82.338C124.242,83.316,122.238,86.546,120.234,88.309C118.23,90.073,116.226,90.37,114.222,91.881C112.218,93.392,110.214,96.117,108.21,99.258C106.206,102.399,104.203,105.955,102.199,107.896C100.195,109.836,98.191,110.161,96.187,110.665C94.183,111.168,92.179,111.85,90.175,113.02C88.171,114.19,86.167,115.85,84.164,116.664C82.16,117.479,80.156,117.45,78.152,117.331C76.148,117.213,74.144,117.007,72.14,118.251C70.136,119.496,68.132,122.191,66.128,124.043C64.125,125.894,62.121,126.901,60.117,128.842C58.113,130.783,56.109,133.657,54.105,135.746C52.101,137.835,50.097,139.139,48.093,143.894C46.089,148.65,44.086,156.857,42.082,163.598C40.078,170.339,38.074,175.614,36.07,182.545C34.066,189.476,32.062,198.064,30.058,208.153C28.054,218.241,26.05,229.832,24.047,241.241C22.043,252.651,20.039,263.88,18.035,277.183C16.031,290.487,14.027,305.864,12.023,320.754C10.019,335.643,8.015,350.044,7.013,357.244L6.011,364.444Z" fill="#B22B24" opacity="0.3"/></g></g><path class="foreground" aria-hidden="true" d="" display="none"/></g><g transform="translate(0,0)"><path class="background" aria-hidden="true" d="M0,0h600v400h-600Z"/><g><g class="mark-area role-mark layer_0_layer_0_marks" clip-path="url(#clip5)" role="graphics-object" aria-roledescription="area mark container"><path aria-label="Timestep: 200.38k; Success rate: 0.121333333333; upper_Success rate: 0.170688888889; Width: 4096; Ci1 of Success rate: 0.170688888889; Ci0 of Success rate: 0.121333333333; Mean of Success rate: 0.147555555556" role="graphics-symbol" aria-roledescription="errorband" d="M6.011,390.519L7.013,382.222C8.015,373.926,10.019,357.333,12.023,341.877C14.027,326.421,16.031,312.102,18.035,293.205C20.039,274.308,22.043,250.833,24.047,234.704C26.05,218.574,28.054,209.791,30.058,201.577C32.062,193.363,34.066,185.719,36.07,181.106C38.074,176.494,40.078,174.914,42.082,173.745C44.086,172.577,46.089,171.821,48.093,170.983C50.097,170.145,52.101,169.226,54.105,167.036C56.109,164.847,58.113,161.388,60.117,157.569C62.121,153.75,64.125,149.571,66.128,145.489C68.132,141.407,70.136,137.421,72.14,135.939C74.144,134.457,76.148,135.479,78.152,133.948C80.156,132.416,82.16,128.332,84.164,126.454C86.167,124.576,88.171,124.905,90.175,124.922C92.179,124.939,94.183,124.644,96.187,124.693C98.191,124.743,100.195,125.138,102.199,124.546C104.203,123.953,106.206,122.373,108.21,121.665C110.214,120.958,112.218,121.123,114.222,120.531C116.226,119.938,118.23,118.588,120.234,116.134C122.238,113.681,124.242,110.124,126.245,107.872C128.249,105.621,130.253,104.673,132.257,104.048C134.261,103.422,136.265,103.119,138.269,102.474C140.273,101.83,142.277,100.844,144.281,100.763C146.284,100.681,148.288,101.502,150.292,99.493C152.296,97.484,154.3,92.644,156.304,88.826C158.308,85.007,160.312,82.21,162.316,80.663C164.319,79.117,166.323,78.821,168.327,77.34C170.331,75.858,172.335,73.191,174.339,71.445C176.343,69.7,178.347,68.876,180.351,67.953C182.355,67.031,184.359,66.011,186.362,64.644C188.366,63.278,190.37,61.566,192.374,61.072C194.378,60.578,196.382,61.301,198.386,60.907C200.39,60.513,202.394,59.001,204.398,58.919C206.401,58.837,208.405,60.185,210.409,60.711C212.413,61.236,214.417,60.939,216.421,60.461C218.425,59.984,220.429,59.325,222.433,57.795C224.437,56.264,226.44,53.862,228.444,53.369C230.448,52.876,232.452,54.292,234.456,54.786C236.46,55.279,238.464,54.849,240.468,54.091C242.472,53.333,244.476,52.247,246.479,52.38C248.483,52.513,250.487,53.865,252.491,54.523C254.495,55.182,256.499,55.147,258.503,55.26C260.507,55.374,262.511,55.638,264.515,55.721C266.518,55.805,268.522,55.709,270.526,54.672C272.53,53.635,274.534,51.658,276.538,51.312C278.542,50.966,280.546,52.251,282.55,53.025C284.554,53.798,286.557,54.061,288.561,52.628C290.565,51.195,292.569,48.067,294.573,46.832C296.577,45.597,298.581,46.255,300.585,46.354C302.589,46.453,304.593,45.993,306.596,46.981C308.6,47.969,310.604,50.404,312.608,52.741C314.612,55.078,316.616,57.317,318.62,58.156C320.624,58.996,322.628,58.436,324.632,58.716C326.635,58.997,328.639,60.117,330.643,60.051C332.647,59.986,334.651,58.735,336.655,56.759C338.659,54.784,340.663,52.083,342.667,50.701C344.671,49.319,346.674,49.254,348.678,52.744C350.682,56.234,352.686,63.277,354.69,65.071C356.694,66.865,358.698,63.409,360.702,61.467C362.706,59.524,364.71,59.095,366.713,58.7C368.717,58.305,370.721,57.944,372.725,58.207C374.729,58.471,376.733,59.359,378.737,59.079C380.741,58.798,382.745,57.35,384.749,56.132C386.752,54.914,388.756,53.928,390.76,52.183C392.764,50.438,394.768,47.935,396.772,47.128C398.776,46.322,400.78,47.212,402.784,49.747C404.787,52.281,406.791,56.462,408.795,56.823C410.799,57.185,412.803,53.728,414.807,53.975C416.811,54.222,418.815,58.173,420.819,59.688C422.823,61.202,424.826,60.281,426.83,59.542C428.834,58.802,430.838,58.244,432.842,57.142C434.846,56.039,436.85,54.391,438.854,53.583C440.858,52.775,442.862,52.807,444.865,52.363C446.869,51.919,448.873,50.998,450.877,51.261C452.881,51.524,454.885,52.972,456.889,54.141C458.893,55.309,460.897,56.199,462.901,56.117C464.904,56.035,466.908,54.982,468.912,53.896C470.916,52.81,472.92,51.691,474.924,52.284C476.928,52.877,478.932,55.18,480.936,56.085C482.94,56.99,484.944,56.496,486.947,55.97C488.951,55.444,490.955,54.885,492.959,54.951C494.963,55.017,496.967,55.709,498.971,57.125C500.975,58.542,502.979,60.683,504.983,61.457C506.986,62.23,508.99,61.636,510.994,58.869C512.998,56.102,515.002,51.162,517.006,49.186C519.01,47.211,521.014,48.199,523.018,48.891C525.022,49.584,527.025,49.979,529.029,49.321C531.033,48.662,533.037,46.948,535.041,45.301C537.045,43.654,539.049,42.074,541.053,41.959C543.057,41.844,545.06,43.193,547.064,43.326C549.068,43.458,551.072,42.372,553.076,41.73C555.08,41.088,557.084,40.89,559.088,41.581C561.092,42.272,563.096,43.853,565.099,44.545C567.103,45.236,569.107,45.038,571.111,44.774C573.115,44.511,575.119,44.183,577.123,44.858C579.127,45.533,581.131,47.211,583.135,47.276C585.139,47.342,587.142,45.794,589.146,45.07C591.15,44.347,593.154,44.446,594.156,44.496L595.158,44.546L595.158,23.405L594.156,24.063C593.154,24.722,591.15,26.039,589.146,26.78C587.142,27.521,585.139,27.686,583.135,27.67C581.131,27.654,579.127,27.457,577.123,26.864C575.119,26.272,573.115,25.284,571.111,25.218C569.107,25.151,567.103,26.007,565.099,25.612C563.096,25.216,561.092,23.571,559.088,23.423C557.084,23.276,555.08,24.626,553.076,25.3C551.072,25.974,549.068,25.974,547.064,25.265C545.06,24.556,543.057,23.14,541.053,22.795C539.049,22.449,537.045,23.175,535.041,24.904C533.037,26.633,531.033,29.365,529.029,31.504C527.025,33.644,525.022,35.191,523.018,34.911C521.014,34.631,519.01,32.524,517.006,32.36C515.002,32.195,512.998,33.973,510.994,34.17C508.99,34.368,506.986,32.985,504.983,31.422C502.979,29.858,500.975,28.114,498.971,27.686C496.967,27.258,494.963,28.147,492.959,28.36C490.955,28.574,488.951,28.113,486.947,27.57C484.944,27.027,482.94,26.402,480.936,26.205C478.932,26.008,476.928,26.239,474.924,26.683C472.92,27.127,470.916,27.784,468.912,27.817C466.908,27.85,464.904,27.258,462.901,27.9C460.897,28.542,458.893,30.416,456.889,30.926C454.885,31.436,452.881,30.581,450.877,31.8C448.873,33.019,446.869,36.312,444.865,36.559C442.862,36.806,440.858,34.007,438.854,33.166C436.85,32.325,434.846,33.443,432.842,34.332C430.838,35.221,428.834,35.881,426.83,36.292C424.826,36.704,422.823,36.867,420.819,36.67C418.815,36.472,416.811,35.915,414.807,35.505C412.803,35.095,410.799,34.831,408.795,33.942C406.791,33.053,404.787,31.539,402.784,30.617C400.78,29.695,398.776,29.365,396.772,29.035C394.768,28.705,392.764,28.376,390.76,28.87C388.756,29.363,386.752,30.679,384.749,31.601C382.745,32.523,380.741,33.052,378.737,33.826C376.733,34.601,374.729,35.621,372.725,36.461C370.721,37.3,368.717,37.959,366.713,37.497C364.71,37.035,362.706,35.453,360.702,33.725C358.698,31.996,356.694,30.12,354.69,29.183C352.686,28.245,350.682,28.246,348.678,28.756C346.674,29.265,344.671,30.283,342.667,31.583C340.663,32.883,338.659,34.465,336.655,35.304C334.651,36.143,332.647,36.24,330.643,36.816C328.639,37.393,326.635,38.449,324.632,37.891C322.628,37.332,320.624,35.157,318.62,33.888C316.616,32.62,314.612,32.257,312.608,32.077C310.604,31.896,308.6,31.899,306.596,31.884C304.593,31.868,302.589,31.835,300.585,31.062C298.581,30.288,296.577,28.774,294.573,29.152C292.569,29.53,290.565,31.801,288.561,32.887C286.557,33.974,284.554,33.876,282.55,33.168C280.546,32.461,278.542,31.144,276.538,31.588C274.534,32.033,272.53,34.239,270.526,35.49C268.522,36.741,266.518,37.037,264.515,36.658C262.511,36.28,260.507,35.226,258.503,34.568C256.499,33.909,254.495,33.646,252.491,33.168C250.487,32.69,248.483,31.997,246.479,31.881C244.476,31.765,242.472,32.227,240.468,32.376C238.464,32.525,236.46,32.361,234.456,32.79C232.452,33.218,230.448,34.239,228.444,34.37C226.44,34.5,224.437,33.742,222.433,34.728C220.429,35.714,218.425,38.446,216.421,39.895C214.417,41.344,212.413,41.51,210.409,40.87C208.405,40.229,206.401,38.781,204.398,37.876C202.394,36.97,200.39,36.607,198.386,36.986C196.382,37.364,194.378,38.483,192.374,38.105C190.37,37.726,188.366,35.849,186.362,35.685C184.359,35.52,182.355,37.067,180.351,38.466C178.347,39.865,176.343,41.115,174.339,42.958C172.335,44.801,170.331,47.236,168.327,48.767C166.323,50.299,164.319,50.926,162.316,52.458C160.312,53.989,158.308,56.426,156.304,59.454C154.3,62.483,152.296,66.105,150.292,68.212C148.288,70.319,146.284,70.911,144.281,71.504C142.277,72.097,140.273,72.691,138.269,72.428C136.265,72.165,134.261,71.045,132.257,71.67C130.253,72.295,128.249,74.665,126.245,77.314C124.242,79.963,122.238,82.891,120.234,85.129C118.23,87.366,116.226,88.913,114.222,89.998C112.218,91.083,110.214,91.707,108.21,92.513C106.206,93.319,104.203,94.306,102.199,95.214C100.195,96.122,98.191,96.95,96.187,98.516C94.183,100.081,92.179,102.385,90.175,103.685C88.171,104.985,86.167,105.281,84.164,107.471C82.16,109.661,80.156,113.744,78.152,116.592C76.148,119.44,74.144,121.052,72.14,121.463C70.136,121.874,68.132,121.084,66.128,122.714C64.125,124.344,62.121,128.394,60.117,130.831C58.113,133.267,56.109,134.091,54.105,136.56C52.101,139.029,50.097,143.144,48.093,145.448C46.089,147.752,44.086,148.245,42.082,147.866C40.078,147.487,38.074,146.236,36.07,148.146C34.066,150.056,32.062,155.127,30.058,163.406C28.054,171.686,26.05,183.174,24.047,198.004C22.043,212.835,20.039,231.007,18.035,248.01C16.031,265.013,14.027,280.846,12.023,300.747C10.019,320.647,8.015,344.615,7.013,356.599L6.011,368.583Z" fill="#7A1F18" opacity="0.3"/></g></g><path class="foreground" aria-hidden="true" d="" display="none"/></g></g><g class="mark-group role-scope layer_1_pathgroup" role="graphics-object" aria-roledescription="group mark container"><g transform="translate(0,0)"><path class="background" aria-hidden="true" d="M0,0h600v400h-600Z"/><g><g class="mark-line role-mark layer_1_marks" clip-path="url(#clip6)" role="graphics-object" aria-roledescription="line mark container"><path aria-label="Timestep: 200.38k; Success rate: 0.0554; Width: 256" role="graphics-symbol" aria-roledescription="line mark" d="M6.011,419.822L7.013,412.356C8.015,404.889,10.019,389.956,12.023,378.741C14.027,367.526,16.031,360.03,18.035,354.119C20.039,348.207,22.043,343.881,24.047,337.585C26.05,331.289,28.054,323.022,30.058,314.252C32.062,305.481,34.066,296.207,36.07,287.704C38.074,279.2,40.078,271.467,42.082,265.393C44.086,259.319,46.089,254.904,48.093,251.23C50.097,247.556,52.101,244.622,54.105,239.6C56.109,234.578,58.113,227.467,60.117,223.215C62.121,218.963,64.125,217.57,66.128,214.785C68.132,212,70.136,207.822,72.14,205.467C74.144,203.111,76.148,202.578,78.152,200.504C80.156,198.43,82.16,194.815,84.164,192.252C86.167,189.689,88.171,188.178,90.175,186.504C92.179,184.83,94.183,182.993,96.187,180.83C98.191,178.667,100.195,176.178,102.199,173.867C104.203,171.556,106.206,169.422,108.21,168.474C110.214,167.526,112.218,167.763,114.222,167.333C116.226,166.904,118.23,165.807,120.234,164.667C122.238,163.526,124.242,162.341,126.245,161.393C128.249,160.444,130.253,159.733,132.257,158.889C134.261,158.044,136.265,157.067,138.269,155.763C140.273,154.459,142.277,152.83,144.281,152.622C146.284,152.415,148.288,153.63,150.292,153.719C152.296,153.807,154.3,152.77,156.304,152.4C158.308,152.03,160.312,152.326,162.316,152C164.319,151.674,166.323,150.726,168.327,149.956C170.331,149.185,172.335,148.593,174.339,148.474C176.343,148.356,178.347,148.711,180.351,148.074C182.355,147.437,184.359,145.807,186.362,144.593C188.366,143.378,190.37,142.578,192.374,141.926C194.378,141.274,196.382,140.77,198.386,140.459C200.39,140.148,202.394,140.03,204.398,139.807C206.401,139.585,208.405,139.259,210.409,139.467C212.413,139.674,214.417,140.415,216.421,140.296C218.425,140.178,220.429,139.2,222.433,139.096C224.437,138.993,226.44,139.763,228.444,140.193C230.448,140.622,232.452,140.711,234.456,140.207C236.46,139.704,238.464,138.607,240.468,137.852C242.472,137.096,244.476,136.681,246.479,136.03C248.483,135.378,250.487,134.489,252.491,134.519C254.495,134.548,256.499,135.496,258.503,135.852C260.507,136.207,262.511,135.97,264.515,135.422C266.518,134.874,268.522,134.015,270.526,134.119C272.53,134.222,274.534,135.289,276.538,135.17C278.542,135.052,280.546,133.748,282.55,133.037C284.554,132.326,286.557,132.207,288.561,131.719C290.565,131.23,292.569,130.37,294.573,130.119C296.577,129.867,298.581,130.222,300.585,130.074C302.589,129.926,304.593,129.274,306.596,129.378C308.6,129.481,310.604,130.341,312.608,130.711C314.612,131.081,316.616,130.963,318.62,131.007C320.624,131.052,322.628,131.259,324.632,130.815C326.635,130.37,328.639,129.274,330.643,128.933C332.647,128.593,334.651,129.007,336.655,129.126C338.659,129.244,340.663,129.067,342.667,128.444C344.671,127.822,346.674,126.756,348.678,126.533C350.682,126.311,352.686,126.933,354.69,127.985C356.694,129.037,358.698,130.519,360.702,130.326C362.706,130.133,364.71,128.267,366.713,127.496C368.717,126.726,370.721,127.052,372.725,126.741C374.729,126.43,376.733,125.481,378.737,125.437C380.741,125.393,382.745,126.252,384.749,125.837C386.752,125.422,388.756,123.733,390.76,122.637C392.764,121.541,394.768,121.037,396.772,120.622C398.776,120.207,400.78,119.881,402.784,120.237C404.787,120.593,406.791,121.63,407.793,120.93C408.795,120.23,408.795,117.794,409.797,114.979C410.799,112.165,412.803,108.971,413.805,110.718C414.807,112.466,414.807,119.153,415.809,121.129C416.811,123.104,418.815,120.367,419.817,120.282C420.819,120.198,420.819,122.765,421.821,122.025C422.823,121.284,424.826,117.235,425.828,116.896C426.83,116.557,426.83,119.929,427.832,118.646C428.834,117.362,430.838,111.422,431.84,111.506C432.842,111.591,432.842,117.7,433.844,117.7C434.846,117.7,436.85,111.591,437.852,111.57C438.854,111.549,438.854,117.616,439.856,117.418C440.858,117.22,442.861,110.758,443.863,110.907C444.865,111.055,444.865,117.813,445.867,119.245C446.869,120.677,448.873,116.783,449.875,116.995C450.877,117.206,450.877,121.524,451.879,120.832C452.881,120.141,454.885,114.441,455.887,113.383C456.889,112.325,456.889,115.908,457.891,116.995C458.893,118.081,460.897,116.67,461.898,117.242C462.9,117.813,462.901,120.367,463.902,120.021C464.904,119.675,466.908,116.43,467.91,115.795C468.912,115.16,468.912,117.136,469.914,115.951C470.916,114.765,472.92,110.42,473.922,111.224C474.924,112.028,474.924,117.982,475.926,118.526C476.928,119.069,478.932,114.201,479.934,113.608C480.936,113.016,480.936,116.698,481.938,116.995C482.939,117.291,484.943,114.201,485.945,114.307C486.947,114.413,486.947,117.714,487.949,118.653C488.951,119.591,490.955,118.166,491.957,118.314C492.959,118.462,492.959,120.183,493.961,118.702C494.963,117.22,496.967,112.536,497.969,112.049C498.971,111.563,498.971,115.273,499.973,115.52C500.975,115.767,502.978,112.55,503.98,112.508C504.982,112.466,504.982,115.598,505.984,115.302C506.986,115.005,508.99,111.28,509.992,111.196C510.994,111.111,510.994,114.667,511.996,115.309C512.998,115.951,515.002,113.679,516.004,113.785C517.006,113.891,517.006,116.374,518.008,116.473C519.01,116.571,521.014,114.286,522.015,114.476C523.017,114.667,523.018,117.333,524.019,118.333C525.021,119.333,527.025,118.667,528.027,118.296C529.029,117.926,529.029,117.852,530.031,118.511C531.033,119.17,533.037,120.563,534.039,119.6C535.041,118.637,535.041,115.319,536.043,114.904C537.045,114.489,539.049,116.978,540.051,117.333C541.052,117.689,541.053,115.911,542.055,115.615C543.057,115.319,545.06,116.504,546.062,115.704C547.064,114.904,547.064,112.119,548.066,112.741C549.068,113.363,551.072,117.393,552.074,117.037C553.076,116.681,553.076,111.941,554.078,111.081C555.08,110.222,557.084,113.244,558.086,113.57C559.088,113.896,559.088,111.526,560.09,111.467C561.092,111.407,563.095,113.659,564.097,114.4C565.099,115.141,565.099,114.37,566.101,115.763C567.103,117.156,569.107,120.711,570.109,120.356C571.111,120,571.111,115.733,572.113,113.304C573.115,110.874,575.119,110.281,576.121,110.815C577.123,111.348,577.123,113.007,578.125,112.405C579.127,111.802,581.13,108.938,582.132,110.605C583.134,112.272,583.135,118.469,584.136,118.444C585.138,118.42,587.142,112.173,588.144,111.321C589.146,110.469,589.146,115.012,590.148,114.889C591.15,114.765,593.154,109.975,594.156,109.531C595.158,109.086,595.158,112.988,595.158,114.938L595.158,116.889" stroke="#FF5F33" stroke-width="2"/></g></g><path class="foreground" aria-hidden="true" d="" display="none"/></g><g transform="translate(0,0)"><path class="background" aria-hidden="true" d="M0,0h600v400h-600Z"/><g><g class="mark-line role-mark layer_1_marks" clip-path="url(#clip7)" role="graphics-object" aria-roledescription="line mark container"><path aria-label="Timestep: 200.38k; Success rate: 0.1034; Width: 512" role="graphics-symbol" aria-roledescription="line mark" d="M6.011,398.489L7.013,391.081C8.015,383.674,10.019,368.859,12.023,361.852C14.027,354.844,16.031,355.644,18.035,348.059C20.039,340.474,22.043,324.504,24.047,314.593C26.05,304.681,28.054,300.83,30.058,295.274C32.062,289.719,34.066,282.459,36.07,274.03C38.074,265.6,40.078,256,42.082,248.533C44.086,241.067,46.089,235.733,48.093,230.296C50.097,224.859,52.101,219.319,54.105,212.756C56.109,206.193,58.113,198.607,60.117,192.148C62.121,185.689,64.125,180.356,66.128,176.785C68.132,173.215,70.136,171.407,72.14,168.37C74.144,165.333,76.148,161.067,78.152,157.141C80.156,153.215,82.16,149.63,84.164,147.481C86.167,145.333,88.171,144.622,90.175,143.822C92.179,143.022,94.183,142.133,96.187,140.83C98.191,139.526,100.195,137.807,102.199,137.185C104.203,136.563,106.206,137.037,108.21,137.081C110.214,137.126,112.218,136.741,114.222,135.185C116.226,133.63,118.23,130.904,120.234,129.126C122.238,127.348,124.242,126.519,126.245,126.415C128.249,126.311,130.253,126.933,132.257,126.356C134.261,125.778,136.265,124,138.269,122.356C140.273,120.711,142.277,119.2,144.281,118.459C146.284,117.719,148.288,117.748,150.292,117.956C152.296,118.163,154.3,118.548,156.304,118.089C158.308,117.63,160.312,116.326,162.316,116.015C164.319,115.704,166.323,116.385,168.327,116.267C170.331,116.148,172.335,115.23,174.339,114.874C176.343,114.519,178.347,114.726,180.351,114.741C182.355,114.756,184.359,114.578,186.362,114.785C188.366,114.993,190.37,115.585,192.374,114.356C194.378,113.126,196.382,110.074,198.386,109.259C200.39,108.444,202.394,109.867,204.398,110.222C206.401,110.578,208.405,109.867,210.409,109.644C212.413,109.422,214.417,109.689,216.421,109.896C218.425,110.104,220.429,110.252,222.433,109.881C224.437,109.511,226.44,108.622,228.444,107.763C230.448,106.904,232.452,106.074,234.456,106.163C236.46,106.252,238.464,107.259,240.468,107.704C242.472,108.148,244.476,108.03,246.479,107.807C248.483,107.585,250.487,107.259,252.491,106.622C254.495,105.985,256.499,105.037,258.503,105.6C260.507,106.163,262.511,108.237,264.515,107.941C266.518,107.644,268.522,104.978,270.526,104.341C272.53,103.704,274.534,105.096,276.538,105.156C278.542,105.215,280.546,103.941,282.55,103.422C284.554,102.904,286.557,103.141,288.561,103.407C290.565,103.674,292.569,103.97,294.573,104.178C296.577,104.385,298.581,104.504,300.585,104.104C302.589,103.704,304.593,102.785,306.596,101.63C308.6,100.474,310.604,99.081,312.608,98C314.612,96.919,316.616,96.148,318.62,96.178C320.624,96.207,322.628,97.037,324.632,96.889C326.635,96.741,328.639,95.615,330.643,94.504C332.647,93.393,334.651,92.296,336.655,91.689C338.659,91.081,340.663,90.963,342.667,90.919C344.671,90.874,346.674,90.904,348.678,90.77C350.682,90.637,352.686,90.341,354.69,89.852C356.694,89.363,358.698,88.681,360.702,88.667C362.706,88.652,364.71,89.304,366.713,89.215C368.717,89.126,370.721,88.296,372.725,88.385C374.729,88.474,376.733,89.481,378.737,89.704C380.741,89.926,382.745,89.363,384.749,88.726C386.752,88.089,388.756,87.378,390.76,87.111C392.764,86.844,394.768,87.022,396.772,87.585C398.776,88.148,400.78,89.096,402.784,89.452C404.787,89.807,406.791,89.57,408.795,88.8C410.799,88.03,412.803,86.726,414.807,86.311C416.811,85.896,418.815,86.37,420.819,86.296C422.823,86.222,424.826,85.6,426.83,85.452C428.834,85.304,430.838,85.63,432.842,85.585C434.846,85.541,436.85,85.126,438.854,84.844C440.858,84.563,442.862,84.415,444.865,84.311C446.869,84.207,448.873,84.148,450.877,84.711C452.881,85.274,454.885,86.459,456.889,86.43C458.893,86.4,460.897,85.156,462.901,84.415C464.904,83.674,466.908,83.437,468.912,84.148C470.916,84.859,472.92,86.519,474.924,86.296C476.928,86.074,478.932,83.97,480.936,83.23C482.94,82.489,484.944,83.111,486.947,83.289C488.951,83.467,490.955,83.2,492.959,82.844C494.963,82.489,496.967,82.044,498.971,82.193C500.975,82.341,502.979,83.081,504.983,83.274C506.986,83.467,508.99,83.111,510.994,82.726C512.998,82.341,515.002,81.926,517.006,82.267C519.01,82.607,521.014,83.704,523.018,83.259C525.022,82.815,527.025,80.83,529.029,80.148C531.033,79.467,533.037,80.089,535.041,80.681C537.045,81.274,539.049,81.837,541.053,82.193C543.057,82.548,545.06,82.696,547.064,82.459C549.068,82.222,551.072,81.6,553.076,81.007C555.08,80.415,557.084,79.852,559.088,79.037C561.092,78.222,563.096,77.156,565.099,77.052C567.103,76.948,569.107,77.807,571.111,77.659C573.115,77.511,575.119,76.356,577.123,75.289C579.127,74.222,581.131,73.244,583.135,73.185C585.139,73.126,587.142,73.985,589.146,74.311C591.15,74.637,593.154,74.43,594.156,74.326L595.158,74.222" stroke="#FF4B33" stroke-width="2"/></g></g><path class="foreground" aria-hidden="true" d="" display="none"/></g><g transform="translate(0,0)"><path class="background" aria-hidden="true" d="M0,0h600v400h-600Z"/><g><g class="mark-line role-mark layer_1_marks" clip-path="url(#clip8)" role="graphics-object" aria-roledescription="line mark container"><path aria-label="Timestep: 200.38k; Success rate: 0.1004; Width: 1024" role="graphics-symbol" aria-roledescription="line mark" d="M6.011,399.822L7.013,392.933C8.015,386.044,10.019,372.267,12.023,357.407C14.027,342.548,16.031,326.607,18.035,314.193C20.039,301.778,22.043,292.889,24.047,284.4C26.05,275.911,28.054,267.822,30.058,258.815C32.062,249.807,34.066,239.881,36.07,233.081C38.074,226.281,40.078,222.607,42.082,219.289C44.086,215.97,46.089,213.007,48.093,209.615C50.097,206.222,52.101,202.4,54.105,196.993C56.109,191.585,58.113,184.593,60.117,179.526C62.121,174.459,64.125,171.319,66.128,170.593C68.132,169.867,70.136,171.556,72.14,170.711C74.144,169.867,76.148,166.489,78.152,163.037C80.156,159.585,82.16,156.059,84.164,153.319C86.167,150.578,88.171,148.622,90.175,147.096C92.179,145.57,94.183,144.474,96.187,143.333C98.191,142.193,100.195,141.007,102.199,140.652C104.203,140.296,106.206,140.77,108.21,139.333C110.214,137.896,112.218,134.548,114.222,132.859C116.226,131.17,118.23,131.141,120.234,130.193C122.238,129.244,124.242,127.378,126.245,126.044C128.249,124.711,130.253,123.911,132.257,122.963C134.261,122.015,136.265,120.919,138.269,119.615C140.273,118.311,142.277,116.8,144.281,114.756C146.284,112.711,148.288,110.133,150.292,109.23C152.296,108.326,154.3,109.096,156.304,107.541C158.308,105.985,160.312,102.104,162.316,100.059C164.319,98.015,166.323,97.807,168.327,95.852C170.331,93.896,172.335,90.193,174.339,87.659C176.343,85.126,178.347,83.763,180.351,82.815C182.355,81.867,184.359,81.333,186.362,81.837C188.366,82.341,190.37,83.881,192.374,84.933C194.378,85.985,196.382,86.548,198.386,85.274C200.39,84,202.394,80.889,204.398,79.452C206.401,78.015,208.405,78.252,210.409,78.163C212.413,78.074,214.417,77.659,216.421,76.326C218.425,74.993,220.429,72.741,222.433,72.193C224.437,71.644,226.44,72.8,228.444,72.237C230.448,71.674,232.452,69.393,234.456,68.356C236.46,67.319,238.464,67.526,240.468,67.407C242.472,67.289,244.476,66.844,246.479,66.474C248.483,66.104,250.487,65.807,252.491,65.393C254.495,64.978,256.499,64.444,258.503,64.281C260.507,64.119,262.511,64.326,264.515,64.163C266.518,64,268.522,63.467,270.526,63.081C272.53,62.696,274.534,62.459,276.538,61.511C278.542,60.563,280.546,58.904,282.55,58.519C284.554,58.133,286.557,59.022,288.561,58.844C290.565,58.667,292.569,57.422,294.573,57.467C296.577,57.511,298.581,58.844,300.585,59.052C302.589,59.259,304.593,58.341,306.596,57.867C308.6,57.393,310.604,57.363,312.608,57.6C314.612,57.837,316.616,58.341,318.62,58.326C320.624,58.311,322.628,57.778,324.632,57.867C326.635,57.956,328.639,58.667,330.643,58.83C332.647,58.993,334.651,58.607,336.655,58.252C338.659,57.896,340.663,57.57,342.667,57.215C344.671,56.859,346.674,56.474,348.678,56.281C350.682,56.089,352.686,56.089,354.69,56.252C356.694,56.415,358.698,56.741,360.702,56.756C362.706,56.77,364.71,56.474,366.713,56.43C368.717,56.385,370.721,56.593,372.725,56.681C374.729,56.77,376.733,56.741,378.737,56.563C380.741,56.385,382.745,56.059,384.749,56.193C386.752,56.326,388.756,56.919,390.76,56.652C392.764,56.385,394.768,55.259,396.772,55.007C398.776,54.756,400.78,55.378,402.784,56.296C404.787,57.215,406.791,58.43,408.795,58.474C410.799,58.519,412.803,57.393,414.807,57.17C416.811,56.948,418.815,57.63,420.819,57.733C422.823,57.837,424.826,57.363,426.83,56.726C428.834,56.089,430.838,55.289,432.842,55.481C434.846,55.674,436.85,56.859,438.854,56.889C440.858,56.919,442.862,55.793,444.865,55.748C446.869,55.704,448.873,56.741,450.877,57.63C452.881,58.519,454.885,59.259,456.889,58.726C458.893,58.193,460.897,56.385,462.901,55.304C464.904,54.222,466.908,53.867,468.912,53.763C470.916,53.659,472.92,53.807,474.924,54.252C476.928,54.696,478.932,55.437,480.936,55.911C482.94,56.385,484.944,56.593,486.947,57.067C488.951,57.541,490.955,58.281,492.959,58.356C494.963,58.43,496.967,57.837,498.971,57.304C500.975,56.77,502.979,56.296,504.983,56C506.986,55.704,508.99,55.585,510.994,55.615C512.998,55.644,515.002,55.822,517.006,55.793C519.01,55.763,521.014,55.526,523.018,55.526C525.022,55.526,527.025,55.763,529.029,55.822C531.033,55.881,533.037,55.763,535.041,55.822C537.045,55.881,539.049,56.119,541.053,55.867C543.057,55.615,545.06,54.874,547.064,54.993C549.068,55.111,551.072,56.089,553.076,56.519C555.08,56.948,557.084,56.83,559.088,56.726C561.092,56.622,563.096,56.533,565.099,56.785C567.103,57.037,569.107,57.63,571.111,57.733C573.115,57.837,575.119,57.452,577.123,57.526C579.127,57.6,581.131,58.133,583.135,58.104C585.139,58.074,587.142,57.481,589.146,57.007C591.15,56.533,593.154,56.178,594.156,56L595.158,55.822" stroke="#E0392D" stroke-width="2"/></g></g><path class="foreground" aria-hidden="true" d="" display="none"/></g><g transform="translate(0,0)"><path class="background" aria-hidden="true" d="M0,0h600v400h-600Z"/><g><g class="mark-line role-mark layer_1_marks" clip-path="url(#clip9)" role="graphics-object" aria-roledescription="line mark container"><path aria-label="Timestep: 200.38k; Success rate: 0.1416; Width: 2048" role="graphics-symbol" aria-roledescription="line mark" d="M6.011,381.511L7.013,373.733C8.015,365.956,10.019,350.4,12.023,336.519C14.027,322.637,16.031,310.43,18.035,297.2C20.039,283.97,22.043,269.719,24.047,257.037C26.05,244.356,28.054,233.244,30.058,223.807C32.062,214.37,34.066,206.607,36.07,200.43C38.074,194.252,40.078,189.659,42.082,182.815C44.086,175.97,46.089,166.874,48.093,161.704C50.097,156.533,52.101,155.289,54.105,152.474C56.109,149.659,58.113,145.274,60.117,142.341C62.121,139.407,64.125,137.926,66.128,135.007C68.132,132.089,70.136,127.733,72.14,125.585C74.144,123.437,76.148,123.496,78.152,123.23C80.156,122.963,82.16,122.37,84.164,121.23C86.167,120.089,88.171,118.4,90.175,117.674C92.179,116.948,94.183,117.185,96.187,117.007C98.191,116.83,100.195,116.237,102.199,115.452C104.203,114.667,106.206,113.689,108.21,111.393C110.214,109.096,112.218,105.481,114.222,103.719C116.226,101.956,118.23,102.044,120.234,100.593C122.238,99.141,124.242,96.148,126.245,95.096C128.249,94.044,130.253,94.933,132.257,93.63C134.261,92.326,136.265,88.83,138.269,87.17C140.273,85.511,142.277,85.689,144.281,84.444C146.284,83.2,148.288,80.533,150.292,78.519C152.296,76.504,154.3,75.141,156.304,73.763C158.308,72.385,160.312,70.993,162.316,69.23C164.319,67.467,166.323,65.333,168.327,63.244C170.331,61.156,172.335,59.111,174.339,58.681C176.343,58.252,178.347,59.437,180.351,59.526C182.355,59.615,184.359,58.607,186.362,57.6C188.366,56.593,190.37,55.585,192.374,55.304C194.378,55.022,196.382,55.467,198.386,54.593C200.39,53.719,202.394,51.526,204.398,51.896C206.401,52.267,208.405,55.2,210.409,55.674C212.413,56.148,214.417,54.163,216.421,52.593C218.425,51.022,220.429,49.867,222.433,49.393C224.437,48.919,226.44,49.126,228.444,49.037C230.448,48.948,232.452,48.563,234.456,48.652C236.46,48.741,238.464,49.304,240.468,49.719C242.472,50.133,244.476,50.4,246.479,49.704C248.483,49.007,250.487,47.348,252.491,47.644C254.495,47.941,256.499,50.193,258.503,50.785C260.507,51.378,262.511,50.311,264.515,49.378C266.518,48.444,268.522,47.644,270.526,46.622C272.53,45.6,274.534,44.356,276.538,43.867C278.542,43.378,280.546,43.644,282.55,43.793C284.554,43.941,286.557,43.97,288.561,44.03C290.565,44.089,292.569,44.178,294.573,44.652C296.577,45.126,298.581,45.985,300.585,45.481C302.589,44.978,304.593,43.111,306.596,42.385C308.6,41.659,310.604,42.074,312.608,42.326C314.612,42.578,316.616,42.667,318.62,42.77C320.624,42.874,322.628,42.993,324.632,42.993C326.635,42.993,328.639,42.874,330.643,43.496C332.647,44.119,334.651,45.481,336.655,45.807C338.659,46.133,340.663,45.422,342.667,45.837C344.671,46.252,346.674,47.793,348.678,49.259C350.682,50.726,352.686,52.119,354.69,52.074C356.694,52.03,358.698,50.548,360.702,49.17C362.706,47.793,364.71,46.519,366.713,45.63C368.717,44.741,370.721,44.237,372.725,44.222C374.729,44.207,376.733,44.681,378.737,45.23C380.741,45.778,382.745,46.4,384.749,47.185C386.752,47.97,388.756,48.919,390.76,48.207C392.764,47.496,394.768,45.126,396.772,44.444C398.776,43.763,400.78,44.77,402.784,44.489C404.787,44.207,406.791,42.637,408.795,42.622C410.799,42.607,412.803,44.148,414.807,44.296C416.811,44.444,418.815,43.2,420.819,42.059C422.823,40.919,424.826,39.881,426.83,39.111C428.834,38.341,430.838,37.837,432.842,37.23C434.846,36.622,436.85,35.911,438.854,36.504C440.858,37.096,442.862,38.993,444.865,39.704C446.869,40.415,448.873,39.941,450.877,39.6C452.881,39.259,454.885,39.052,456.889,39.304C458.893,39.556,460.897,40.267,462.901,40.341C464.904,40.415,466.908,39.852,468.912,38.83C470.916,37.807,472.92,36.326,474.924,35.615C476.928,34.904,478.932,34.963,480.936,35.822C482.94,36.681,484.944,38.341,486.947,39.333C488.951,40.326,490.955,40.652,492.959,40.637C494.963,40.622,496.967,40.267,498.971,39.289C500.975,38.311,502.979,36.711,504.983,35.778C506.986,34.844,508.99,34.578,510.994,34.444C512.998,34.311,515.002,34.311,517.006,33.896C519.01,33.481,521.014,32.652,523.018,32.696C525.022,32.741,527.025,33.659,529.029,35.333C531.033,37.007,533.037,39.437,535.041,40.548C537.045,41.659,539.049,41.452,541.053,41.541C543.057,41.63,545.06,42.015,547.064,41.481C549.068,40.948,551.072,39.496,553.076,38.607C555.08,37.719,557.084,37.393,559.088,37.111C561.092,36.83,563.096,36.593,565.099,35.807C567.103,35.022,569.107,33.689,571.111,33.956C573.115,34.222,575.119,36.089,577.123,37.556C579.127,39.022,581.131,40.089,583.135,40.548C585.139,41.007,587.142,40.859,589.146,40.296C591.15,39.733,593.154,38.756,594.156,38.267L595.158,37.778" stroke="#B22B24" stroke-width="2"/></g></g><path class="foreground" aria-hidden="true" d="" display="none"/></g><g transform="translate(0,0)"><path class="background" aria-hidden="true" d="M0,0h600v400h-600Z"/><g><g class="mark-line role-mark layer_1_marks" clip-path="url(#clip10)" role="graphics-object" aria-roledescription="line mark container"><path aria-label="Timestep: 200.38k; Success rate: 0.147555555556; Width: 4096" role="graphics-symbol" aria-roledescription="line mark" d="M6.011,378.864L7.013,369.053C8.015,359.243,10.019,339.621,12.023,322.173C14.027,304.724,16.031,289.449,18.035,270.996C20.039,252.543,22.043,230.914,24.047,215.243C26.05,199.572,28.054,189.86,30.058,181.728C32.062,173.597,34.066,167.045,36.07,163.621C38.074,160.198,40.078,159.901,42.082,159.621C44.086,159.342,46.089,159.078,48.093,157.514C50.097,155.951,52.101,153.086,54.105,150.337C56.109,147.588,58.113,144.955,60.117,141.712C62.121,138.469,64.125,134.617,66.128,132.23C68.132,129.844,70.136,128.922,72.14,128.444C74.144,127.967,76.148,127.934,78.152,125.811C80.156,123.687,82.16,119.473,84.164,117.399C86.167,115.325,88.171,115.391,90.175,114.897C92.179,114.403,94.183,113.35,96.187,112.708C98.191,112.066,100.195,111.835,102.199,111.095C104.203,110.354,106.206,109.103,108.21,108.395C110.214,107.687,112.218,107.523,114.222,106.436C116.226,105.35,118.23,103.342,120.234,100.856C122.238,98.37,124.242,95.407,126.245,92.889C128.249,90.37,130.253,88.296,132.257,87.457C134.261,86.617,136.265,87.012,138.269,86.848C140.273,86.683,142.277,85.959,144.281,85.728C146.284,85.498,148.288,85.761,150.292,83.852C152.296,81.942,154.3,77.86,156.304,74.37C158.308,70.881,160.312,67.984,162.316,66.42C164.319,64.856,166.323,64.626,168.327,62.914C170.331,61.202,172.335,58.008,174.339,56.247C176.343,54.486,178.347,54.156,180.351,53.235C182.355,52.313,184.359,50.798,186.362,50.123C188.366,49.449,190.37,49.613,192.374,49.613C194.378,49.613,196.382,49.449,198.386,49.004C200.39,48.56,202.394,47.835,204.398,48.313C206.401,48.79,208.405,50.469,210.409,51.111C212.413,51.753,214.417,51.358,216.421,50.156C218.425,48.955,220.429,46.947,222.433,45.663C224.437,44.379,226.44,43.819,228.444,43.638C230.448,43.457,232.452,43.654,234.456,43.671C236.46,43.687,238.464,43.523,240.468,43.177C242.472,42.831,244.476,42.305,246.479,42.354C248.483,42.403,250.487,43.029,252.491,43.49C254.495,43.951,256.499,44.247,258.503,44.626C260.507,45.004,262.511,45.465,264.515,45.63C266.518,45.794,268.522,45.663,270.526,44.56C272.53,43.457,274.534,41.383,276.538,41.07C278.542,40.757,280.546,42.206,282.55,42.864C284.554,43.523,286.557,43.391,288.561,42.008C290.565,40.626,292.569,37.992,294.573,37.218C296.577,36.444,298.581,37.531,300.585,38.107C302.589,38.683,304.593,38.749,306.596,39.374C308.6,40,310.604,41.185,312.608,42.403C314.612,43.621,316.616,44.872,318.62,45.992C320.624,47.111,322.628,48.099,324.632,48.494C326.635,48.889,328.639,48.691,330.643,48.23C332.647,47.77,334.651,47.045,336.655,45.663C338.659,44.28,340.663,42.239,342.667,40.922C344.671,39.605,346.674,39.012,348.678,40.362C350.682,41.712,352.686,45.004,354.69,46.272C356.694,47.539,358.698,46.782,360.702,46.897C362.706,47.012,364.71,48,366.713,48.049C368.717,48.099,370.721,47.21,372.725,46.749C374.729,46.288,376.733,46.255,378.737,45.86C380.741,45.465,382.745,44.708,384.749,43.588C386.752,42.469,388.756,40.988,390.76,39.901C392.764,38.815,394.768,38.123,396.772,37.975C398.776,37.827,400.78,38.222,402.784,39.918C404.787,41.613,406.791,44.609,408.795,45.235C410.799,45.86,412.803,44.115,414.807,44.494C416.811,44.872,418.815,47.374,420.819,48.263C422.823,49.152,424.826,48.428,426.83,47.835C428.834,47.243,430.838,46.782,432.842,45.761C434.846,44.741,436.85,43.16,438.854,43.111C440.858,43.062,442.862,44.543,444.865,44.033C446.869,43.523,448.873,41.021,450.877,40.395C452.881,39.77,454.885,41.021,456.889,41.333C458.893,41.646,460.897,41.021,462.901,40.675C464.904,40.329,466.908,40.263,468.912,39.835C470.916,39.407,472.92,38.617,474.924,38.469C476.928,38.321,478.932,38.815,480.936,39.325C482.94,39.835,484.944,40.362,486.947,40.626C488.951,40.889,490.955,40.889,492.959,40.741C494.963,40.593,496.967,40.296,498.971,41.169C500.975,42.041,502.979,44.082,504.983,45.531C506.986,46.979,508.99,47.835,510.994,46.519C512.998,45.202,515.002,41.712,517.006,40.724C519.01,39.737,521.014,41.251,523.018,41.613C525.022,41.975,527.025,41.185,529.029,39.654C531.033,38.123,533.037,35.852,535.041,34.255C537.045,32.658,539.049,31.737,541.053,31.918C543.057,32.099,545.06,33.383,547.064,33.728C549.068,34.074,551.072,33.481,553.076,32.823C555.08,32.165,557.084,31.44,559.088,31.951C561.092,32.461,563.096,34.206,565.099,34.486C567.103,34.765,569.107,33.58,571.111,33.366C573.115,33.152,575.119,33.909,577.123,34.831C579.127,35.753,581.131,36.84,583.135,36.889C585.139,36.938,587.142,35.951,589.146,35.243C591.15,34.535,593.154,34.107,594.156,33.893L595.158,33.679" stroke="#7A1F18" stroke-width="2"/></g></g><path class="foreground" aria-hidden="true" d="" display="none"/></g></g><g class="mark-group role-legend" role="graphics-symbol" aria-roledescription="legend" aria-label="Symbol legend titled 'Width' for fill color and stroke color with 5 values: 256, 512, 1024, 2048, 4096"><g transform="translate(618,0)"><path class="background" aria-hidden="true" d="M0,0h46v99h-46Z" pointer-events="none"/><g><g class="mark-group role-legend-entry"><g transform="translate(0,21)"><path class="background" aria-hidden="true" d="M0,0h0v0h0Z" pointer-events="none"/><g><g class="mark-group role-scope" role="graphics-object" aria-roledescription="group mark container"><g transform="translate(0,0)"><path class="background" aria-hidden="true" d="M0,0h46v14h-46Z" pointer-events="none" opacity="1"/><g><g class="mark-symbol role-legend-symbol" pointer-events="none"><path transform="translate(7,7)" d="M5,0A5,5,0,1,1,-5,0A5,5,0,1,1,5,0" fill="#FF5F33" stroke="#FF5F33" stroke-width="1.5" opacity="0.3"/></g><g class="mark-text role-legend-label" pointer-events="none"><text text-anchor="start" transform="translate(18,11)" font-family="Times New Roman" font-size="14px" fill="#000" opacity="1">256</text></g></g><path class="foreground" aria-hidden="true" d="" pointer-events="none" display="none"/></g><g transform="translate(0,16)"><path class="background" aria-hidden="true" d="M0,0h46v14h-46Z" pointer-events="none" opacity="1"/><g><g class="mark-symbol role-legend-symbol" pointer-events="none"><path transform="translate(7,7)" d="M5,0A5,5,0,1,1,-5,0A5,5,0,1,1,5,0" fill="#FF4B33" stroke="#FF4B33" stroke-width="1.5" opacity="0.3"/></g><g class="mark-text role-legend-label" pointer-events="none"><text text-anchor="start" transform="translate(18,11)" font-family="Times New Roman" font-size="14px" fill="#000" opacity="1">512</text></g></g><path class="foreground" aria-hidden="true" d="" pointer-events="none" display="none"/></g><g transform="translate(0,32)"><path class="background" aria-hidden="true" d="M0,0h46v14h-46Z" pointer-events="none" opacity="1"/><g><g class="mark-symbol role-legend-symbol" pointer-events="none"><path transform="translate(7,7)" d="M5,0A5,5,0,1,1,-5,0A5,5,0,1,1,5,0" fill="#E0392D" stroke="#E0392D" stroke-width="1.5" opacity="0.3"/></g><g class="mark-text role-legend-label" pointer-events="none"><text text-anchor="start" transform="translate(18,11)" font-family="Times New Roman" font-size="14px" fill="#000" opacity="1">1024</text></g></g><path class="foreground" aria-hidden="true" d="" pointer-events="none" display="none"/></g><g transform="translate(0,48)"><path class="background" aria-hidden="true" d="M0,0h46v14h-46Z" pointer-events="none" opacity="1"/><g><g class="mark-symbol role-legend-symbol" pointer-events="none"><path transform="translate(7,7)" d="M5,0A5,5,0,1,1,-5,0A5,5,0,1,1,5,0" fill="#B22B24" stroke="#B22B24" stroke-width="1.5" opacity="0.3"/></g><g class="mark-text role-legend-label" pointer-events="none"><text text-anchor="start" transform="translate(18,11)" font-family="Times New Roman" font-size="14px" fill="#000" opacity="1">2048</text></g></g><path class="foreground" aria-hidden="true" d="" pointer-events="none" display="none"/></g><g transform="translate(0,64)"><path class="background" aria-hidden="true" d="M0,0h46v14h-46Z" pointer-events="none" opacity="1"/><g><g class="mark-symbol role-legend-symbol" pointer-events="none"><path transform="translate(7,7)" d="M5,0A5,5,0,1,1,-5,0A5,5,0,1,1,5,0" fill="#7A1F18" stroke="#7A1F18" stroke-width="1.5" opacity="0.3"/></g><g class="mark-text role-legend-label" pointer-events="none"><text text-anchor="start" transform="translate(18,11)" font-family="Times New Roman" font-size="14px" fill="#000" opacity="1">4096</text></g></g><path class="foreground" aria-hidden="true" d="" pointer-events="none" display="none"/></g></g></g><path class="foreground" aria-hidden="true" d="" pointer-events="none" display="none"/></g></g><g class="mark-text role-legend-title" pointer-events="none"><text text-anchor="start" transform="translate(0,13)" font-family="Times New Roman" font-size="16px" font-weight="bold" fill="#000" opacity="1">Width</text></g></g><path class="foreground" aria-hidden="true" d="" pointer-events="none" display="none"/></g></g><g class="mark-group role-title"><g transform="translate(300,-31)"><path class="background" aria-hidden="true" d="M0,0h0v0h0Z" pointer-events="none"/><g><g class="mark-text role-title-text" role="graphics-symbol" aria-roledescription="title" aria-label="Title text 'Success rate throughout training across different scales for MT10'" pointer-events="none"><text text-anchor="middle" transform="translate(0,16)" font-family="Times New Roman" font-size="20px" font-weight="bold" fill="#000" opacity="1">Success rate throughout training across different scales for MT10</text></g></g><path class="foreground" aria-hidden="true" d="" pointer-events="none" display="none"/></g></g></g><path class="foreground" aria-hidden="true" d="" display="none"/></g></g></g><defs><clipPath id="clip1"><rect x="0" y="0" width="600" height="400"/></clipPath><clipPath id="clip2"><rect x="0" y="0" width="600" height="400"/></clipPath><clipPath id="clip3"><rect x="0" y="0" width="600" height="400"/></clipPath><clipPath id="clip4"><rect x="0" y="0" width="600" height="400"/></clipPath><clipPath id="clip5"><rect x="0" y="0" width="600" height="400"/></clipPath><clipPath id="clip6"><rect x="0" y="0" width="600" height="400"/></clipPath><clipPath id="clip7"><rect x="0" y="0" width="600" height="400"/></clipPath><clipPath id="clip8"><rect x="0" y="0" width="600" height="400"/></clipPath><clipPath id="clip9"><rect x="0" y="0" width="600" height="400"/></clipPath><clipPath id="clip10"><rect x="0" y="0" width="600" height="400"/></clipPath></defs></svg>