<svg xmlns="http://www.w3.org/2000/svg" xmlns:xlink="http://www.w3.org/1999/xlink" version="1.1" class="marks" width="656" height="458" viewBox="0 0 656 458"><rect width="656" height="458" fill="white"/><g fill="none" stroke-miterlimit="10" transform="translate(50,12)"><g class="mark-group role-frame root" role="graphics-object" aria-roledescription="group mark container"><g transform="translate(0,0)"><path class="background" aria-hidden="true" d="M0.5,0.5h600v400h-600Z" stroke="#ddd"/><g><g class="mark-group role-axis" aria-hidden="true"><g transform="translate(0.5,400.5)"><path class="background" aria-hidden="true" d="M0,0h0v0h0Z" pointer-events="none"/><g><g class="mark-rule role-axis-grid" pointer-events="none"><line transform="translate(24,-400)" x2="0" y2="400" stroke="#ddd" stroke-width="1" opacity="1"/><line transform="translate(55,-400)" x2="0" y2="400" stroke="#ddd" stroke-width="1" opacity="1"/><line transform="translate(85,-400)" x2="0" y2="400" stroke="#ddd" stroke-width="1" opacity="1"/><line transform="translate(115,-400)" x2="0" y2="400" stroke="#ddd" stroke-width="1" opacity="1"/><line transform="translate(145,-400)" x2="0" y2="400" stroke="#ddd" stroke-width="1" opacity="1"/><line transform="translate(176,-400)" x2="0" y2="400" stroke="#ddd" stroke-width="1" opacity="1"/><line transform="translate(206,-400)" x2="0" y2="400" stroke="#ddd" stroke-width="1" opacity="1"/><line transform="translate(236,-400)" x2="0" y2="400" stroke="#ddd" stroke-width="1" opacity="1"/><line transform="translate(267,-400)" x2="0" y2="400" stroke="#ddd" stroke-width="1" opacity="1"/><line transform="translate(297,-400)" x2="0" y2="400" stroke="#ddd" stroke-width="1" opacity="1"/><line transform="translate(327,-400)" x2="0" y2="400" stroke="#ddd" stroke-width="1" opacity="1"/><line transform="translate(358,-400)" x2="0" y2="400" stroke="#ddd" stroke-width="1" opacity="1"/><line transform="translate(388,-400)" x2="0" y2="400" stroke="#ddd" stroke-width="1" opacity="1"/><line transform="translate(418,-400)" x2="0" y2="400" stroke="#ddd" stroke-width="1" opacity="1"/><line transform="translate(448,-400)" x2="0" y2="400" stroke="#ddd" stroke-width="1" opacity="1"/><line transform="translate(479,-400)" x2="0" y2="400" stroke="#ddd" stroke-width="1" opacity="1"/><line transform="translate(509,-400)" x2="0" y2="400" stroke="#ddd" stroke-width="1" opacity="1"/><line transform="translate(539,-400)" x2="0" y2="400" stroke="#ddd" stroke-width="1" opacity="1"/><line transform="translate(570,-400)" x2="0" y2="400" stroke="#ddd" stroke-width="1" opacity="1"/><line transform="translate(600,-400)" x2="0" y2="400" stroke="#ddd" stroke-width="1" opacity="1"/></g></g><path class="foreground" aria-hidden="true" d="" pointer-events="none" display="none"/></g></g><g class="mark-group role-axis" aria-hidden="true"><g transform="translate(0.5,0.5)"><path class="background" aria-hidden="true" d="M0,0h0v0h0Z" pointer-events="none"/><g><g class="mark-rule role-axis-grid" pointer-events="none"><line transform="translate(0,376)" x2="600" y2="0" stroke="#ddd" stroke-width="1" opacity="1"/><line transform="translate(0,329)" x2="600" y2="0" stroke="#ddd" stroke-width="1" opacity="1"/><line transform="translate(0,282)" x2="600" y2="0" stroke="#ddd" stroke-width="1" opacity="1"/><line transform="translate(0,235)" x2="600" y2="0" stroke="#ddd" stroke-width="1" opacity="1"/><line transform="translate(0,188)" x2="600" y2="0" stroke="#ddd" stroke-width="1" opacity="1"/><line transform="translate(0,141)" x2="600" y2="0" stroke="#ddd" stroke-width="1" opacity="1"/><line transform="translate(0,94)" x2="600" y2="0" stroke="#ddd" stroke-width="1" opacity="1"/><line transform="translate(0,47)" x2="600" y2="0" stroke="#ddd" stroke-width="1" opacity="1"/><line transform="translate(0,0)" x2="600" y2="0" stroke="#ddd" stroke-width="1" opacity="1"/></g></g><path class="foreground" aria-hidden="true" d="" pointer-events="none" display="none"/></g></g><g class="mark-group role-axis" role="graphics-symbol" aria-roledescription="axis" aria-label="X-axis titled 'Number of environment steps' for a linear scale with values from 0M to 20M"><g transform="translate(0.5,400.5)"><path class="background" aria-hidden="true" d="M0,0h0v0h0Z" pointer-events="none"/><g><g class="mark-rule role-axis-tick" pointer-events="none"><line transform="translate(24,0)" x2="0" y2="5" stroke="#888" stroke-width="1" opacity="1"/><line transform="translate(55,0)" x2="0" y2="5" stroke="#888" stroke-width="1" opacity="1"/><line transform="translate(85,0)" x2="0" y2="5" stroke="#888" stroke-width="1" opacity="1"/><line transform="translate(115,0)" x2="0" y2="5" stroke="#888" stroke-width="1" opacity="1"/><line transform="translate(145,0)" x2="0" y2="5" stroke="#888" stroke-width="1" opacity="1"/><line transform="translate(176,0)" x2="0" y2="5" stroke="#888" stroke-width="1" opacity="1"/><line transform="translate(206,0)" x2="0" y2="5" stroke="#888" stroke-width="1" opacity="1"/><line transform="translate(236,0)" x2="0" y2="5" stroke="#888" stroke-width="1" opacity="1"/><line transform="translate(267,0)" x2="0" y2="5" stroke="#888" stroke-width="1" opacity="1"/><line transform="translate(297,0)" x2="0" y2="5" stroke="#888" stroke-width="1" opacity="1"/><line transform="translate(327,0)" x2="0" y2="5" stroke="#888" stroke-width="1" opacity="1"/><line transform="translate(358,0)" x2="0" y2="5" stroke="#888" stroke-width="1" opacity="1"/><line transform="translate(388,0)" x2="0" y2="5" stroke="#888" stroke-width="1" opacity="1"/><line transform="translate(418,0)" x2="0" y2="5" stroke="#888" stroke-width="1" opacity="1"/><line transform="translate(448,0)" x2="0" y2="5" stroke="#888" stroke-width="1" opacity="1"/><line transform="translate(479,0)" x2="0" y2="5" stroke="#888" stroke-width="1" opacity="1"/><line transform="translate(509,0)" x2="0" y2="5" stroke="#888" stroke-width="1" opacity="1"/><line transform="translate(539,0)" x2="0" y2="5" stroke="#888" stroke-width="1" opacity="1"/><line transform="translate(570,0)" x2="0" y2="5" stroke="#888" stroke-width="1" opacity="1"/><line transform="translate(600,0)" x2="0" y2="5" stroke="#888" stroke-width="1" opacity="1"/></g><g class="mark-text role-axis-label" pointer-events="none"><text text-anchor="middle" transform="translate(24.242424242424246,18)" font-family="Times New Roman" font-size="14px" fill="#000" opacity="1">1M</text><text text-anchor="middle" transform="translate(54.54545454545455,18)" font-family="Times New Roman" font-size="14px" fill="#000" opacity="0">2M</text><text text-anchor="middle" transform="translate(84.84848484848484,18)" font-family="Times New Roman" font-size="14px" fill="#000" opacity="1">3M</text><text text-anchor="middle" transform="translate(115.15151515151514,18)" font-family="Times New Roman" font-size="14px" fill="#000" opacity="0">4M</text><text text-anchor="middle" transform="translate(145.45454545454547,18)" font-family="Times New Roman" font-size="14px" fill="#000" opacity="1">5M</text><text text-anchor="middle" transform="translate(175.75757575757575,18)" font-family="Times New Roman" font-size="14px" fill="#000" opacity="0">6M</text><text text-anchor="middle" transform="translate(206.06060606060606,18)" font-family="Times New Roman" font-size="14px" fill="#000" opacity="1">7M</text><text text-anchor="middle" transform="translate(236.36363636363635,18)" font-family="Times New Roman" font-size="14px" fill="#000" opacity="0">8M</text><text text-anchor="middle" transform="translate(266.66666666666663,18)" font-family="Times New Roman" font-size="14px" fill="#000" opacity="1">9M</text><text text-anchor="middle" transform="translate(296.969696969697,18)" font-family="Times New Roman" font-size="14px" fill="#000" opacity="0">10M</text><text text-anchor="middle" transform="translate(327.27272727272725,18)" font-family="Times New Roman" font-size="14px" fill="#000" opacity="1">11M</text><text text-anchor="middle" transform="translate(357.57575757575756,18)" font-family="Times New Roman" font-size="14px" fill="#000" opacity="0">12M</text><text text-anchor="middle" transform="translate(387.87878787878793,18)" font-family="Times New Roman" font-size="14px" fill="#000" opacity="1">13M</text><text text-anchor="middle" transform="translate(418.1818181818182,18)" font-family="Times New Roman" font-size="14px" fill="#000" opacity="0">14M</text><text text-anchor="middle" transform="translate(448.4848484848485,18)" font-family="Times New Roman" font-size="14px" fill="#000" opacity="1">15M</text><text text-anchor="middle" transform="translate(478.7878787878788,18)" font-family="Times New Roman" font-size="14px" fill="#000" opacity="0">16M</text><text text-anchor="middle" transform="translate(509.0909090909091,18)" font-family="Times New Roman" font-size="14px" fill="#000" opacity="1">17M</text><text text-anchor="middle" transform="translate(539.3939393939394,18)" font-family="Times New Roman" font-size="14px" fill="#000" opacity="0">18M</text><text text-anchor="middle" transform="translate(569.6969696969697,18)" font-family="Times New Roman" font-size="14px" fill="#000" opacity="1">19M</text><text text-anchor="end" transform="translate(600,18)" font-family="Times New Roman" font-size="14px" fill="#000" opacity="0">20M</text></g><g class="mark-rule role-axis-domain" pointer-events="none"><line transform="translate(0,0)" x2="600" y2="0" stroke="#888" stroke-width="1" opacity="1"/></g><g class="mark-text role-axis-title" pointer-events="none"><text text-anchor="middle" transform="translate(300,38)" font-family="Times New Roman" font-size="16px" font-weight="bold" fill="#000" opacity="1">Number of environment steps</text></g></g><path class="foreground" aria-hidden="true" d="" pointer-events="none" display="none"/></g></g><g class="mark-group role-axis" role="graphics-symbol" aria-roledescription="axis" aria-label="Y-axis titled 'Success rate' for a linear scale with values from 0.1 to 1.0"><g transform="translate(0.5,0.5)"><path class="background" aria-hidden="true" d="M0,0h0v0h0Z" pointer-events="none"/><g><g class="mark-rule role-axis-tick" pointer-events="none"><line transform="translate(0,376)" x2="-5" y2="0" stroke="#888" stroke-width="1" opacity="1"/><line transform="translate(0,329)" x2="-5" y2="0" stroke="#888" stroke-width="1" opacity="1"/><line transform="translate(0,282)" x2="-5" y2="0" stroke="#888" stroke-width="1" opacity="1"/><line transform="translate(0,235)" x2="-5" y2="0" stroke="#888" stroke-width="1" opacity="1"/><line transform="translate(0,188)" x2="-5" y2="0" stroke="#888" stroke-width="1" opacity="1"/><line transform="translate(0,141)" x2="-5" y2="0" stroke="#888" stroke-width="1" opacity="1"/><line transform="translate(0,94)" x2="-5" y2="0" stroke="#888" stroke-width="1" opacity="1"/><line transform="translate(0,47)" x2="-5" y2="0" stroke="#888" stroke-width="1" opacity="1"/><line transform="translate(0,0)" x2="-5" y2="0" stroke="#888" stroke-width="1" opacity="1"/></g><g class="mark-text role-axis-label" pointer-events="none"><text text-anchor="end" transform="translate(-7,380.4705882352941)" font-family="Times New Roman" font-size="14px" fill="#000" opacity="1">0.2</text><text text-anchor="end" transform="translate(-7,333.4117647058823)" font-family="Times New Roman" font-size="14px" fill="#000" opacity="1">0.3</text><text text-anchor="end" transform="translate(-7,286.35294117647055)" font-family="Times New Roman" font-size="14px" fill="#000" opacity="1">0.4</text><text text-anchor="end" transform="translate(-7,239.29411764705884)" font-family="Times New Roman" font-size="14px" fill="#000" opacity="1">0.5</text><text text-anchor="end" transform="translate(-7,192.23529411764704)" font-family="Times New Roman" font-size="14px" fill="#000" opacity="1">0.6</text><text text-anchor="end" transform="translate(-7,145.17647058823533)" font-family="Times New Roman" font-size="14px" fill="#000" opacity="1">0.7</text><text text-anchor="end" transform="translate(-7,98.11764705882351)" font-family="Times New Roman" font-size="14px" fill="#000" opacity="1">0.8</text><text text-anchor="end" transform="translate(-7,51.058823529411775)" font-family="Times New Roman" font-size="14px" fill="#000" opacity="1">0.9</text><text text-anchor="end" transform="translate(-7,4)" font-family="Times New Roman" font-size="14px" fill="#000" opacity="1">1.0</text></g><g class="mark-rule role-axis-domain" pointer-events="none"><line transform="translate(0,400)" x2="0" y2="-400" stroke="#888" stroke-width="1" opacity="1"/></g><g class="mark-text role-axis-title" pointer-events="none"><text text-anchor="middle" transform="translate(-28.5,200) rotate(-90) translate(0,-3)" font-family="Times New Roman" font-size="16px" font-weight="bold" fill="#000" opacity="1">Success rate</text></g></g><path class="foreground" aria-hidden="true" d="" pointer-events="none" display="none"/></g></g><g class="mark-group role-scope layer_0_layer_0_pathgroup" role="graphics-object" aria-roledescription="group mark container"><g transform="translate(0,0)"><path class="background" aria-hidden="true" d="M0,0h600v400h-600Z"/><g><g class="mark-area role-mark layer_0_layer_0_marks" clip-path="url(#clip1)" role="graphics-object" aria-roledescription="area mark container"><path aria-label="Number of environment steps: 200.38k; Success rate: 0.0266583333333; upper_Success rate: 0.0613333333333; Width: 256; Ci1 of Success rate: 0.0613333333333; Ci0 of Success rate: 0.0266583333333; Mean of Success rate: 0.044" role="graphics-symbol" aria-roledescription="errorband" d="M6.084,404.602C8.108,390.902,10.132,383.373,12.156,378.903C14.181,374.433,16.205,373.022,18.229,367.82C20.253,362.617,22.277,353.622,24.301,344.774C26.325,335.925,28.349,327.223,30.374,318.674C32.398,310.125,34.422,301.729,36.446,294.839C38.47,287.949,40.494,282.565,42.518,278.12C44.543,273.676,46.567,270.171,48.591,264.393C50.615,258.616,52.639,250.565,54.663,246.356C56.687,242.146,58.712,241.779,60.736,239.948C62.76,238.118,64.784,234.824,66.808,232.812C68.832,230.8,70.856,230.071,72.881,227.954C74.905,225.837,76.929,222.332,78.953,219.038C80.977,215.744,83.001,212.66,85.025,209.784C87.05,206.908,89.074,204.241,91.098,201.625C93.122,199.009,95.146,196.446,97.17,193.595C99.194,190.745,101.219,187.608,103.243,187.138C105.267,186.668,107.291,188.865,109.315,188.996C111.339,189.127,113.363,187.191,115.388,186.473C117.412,185.755,119.436,186.256,121.46,185.445C123.484,184.635,125.508,182.514,127.532,181.113C129.557,179.712,131.581,179.033,133.605,177.516C135.629,176,137.653,173.647,139.677,173.49C141.701,173.333,143.726,175.373,145.75,175.346C147.774,175.32,149.798,173.229,151.822,172.261C153.846,171.294,155.87,171.451,157.895,170.115C159.919,168.779,161.943,165.951,163.967,166.899C165.991,167.846,168.015,172.57,170.039,173.305C172.064,174.039,174.088,170.784,176.112,167.563C178.136,164.341,180.16,161.153,182.184,158.512C184.208,155.872,186.233,153.779,188.257,152.184C190.281,150.588,192.305,149.49,194.329,148.863C196.353,148.235,198.377,148.078,200.402,147.608C202.426,147.137,204.45,146.353,206.474,146.17C208.498,145.987,210.522,146.405,212.546,146.667C214.571,146.928,216.595,147.033,218.619,146.615C220.643,146.197,222.667,145.258,224.691,146.016C226.715,146.774,228.739,149.23,230.764,149.569C232.788,149.908,234.812,148.131,236.836,146.771C238.86,145.412,240.884,144.471,242.908,143.944C244.933,143.417,246.957,143.305,248.981,143.122C251.005,142.939,253.029,142.685,255.053,142.372C257.077,142.058,259.102,141.684,261.126,141.972C263.15,142.26,265.174,143.208,267.198,143.787C269.222,144.366,271.246,144.575,273.271,144.314C275.295,144.052,277.319,143.32,279.343,143.163C281.367,143.007,283.391,143.425,285.415,143.242C287.44,143.059,289.464,142.275,291.488,141.83C293.512,141.386,295.536,141.281,297.56,141.255C299.584,141.229,301.609,141.281,303.633,141.595C305.657,141.908,307.681,142.484,309.705,142.824C311.729,143.163,313.753,143.268,315.778,143.268C317.802,143.268,319.826,143.163,321.85,142.85C323.874,142.536,325.898,142.013,327.922,142.196C329.947,142.379,331.971,143.268,333.995,143.242C336.019,143.217,338.043,142.277,340.067,141.78C342.091,141.284,344.116,141.23,346.14,141.125C348.164,141.02,350.188,140.863,352.212,141.203C354.236,141.542,356.26,142.379,358.285,142.249C360.309,142.119,362.333,141.022,364.357,140.212C366.381,139.401,368.405,138.877,370.429,138.772C372.454,138.667,374.478,138.98,376.502,140.157C378.526,141.333,380.55,143.373,382.574,143.059C384.598,142.745,386.623,140.078,388.647,138.536C390.671,136.993,392.695,136.575,394.719,136.239C396.743,135.903,398.767,135.649,400.791,134.603C402.816,133.557,404.84,131.72,405.852,131.303C406.864,130.886,406.864,131.89,407.876,129.067C408.888,126.243,410.912,119.592,411.924,121.129C412.936,122.667,412.936,132.392,413.948,134.902C414.96,137.412,416.984,132.706,417.997,132.235C419.009,131.765,419.009,135.529,420.021,134.431C421.033,133.333,423.057,127.373,424.069,127.373C425.081,127.373,425.081,133.333,426.093,132.706C427.105,132.078,429.129,124.863,430.141,125.098C431.153,125.333,431.154,133.02,432.166,133.333C433.178,133.647,435.202,126.588,436.214,126.51C437.226,126.431,437.226,133.333,438.238,132.235C439.25,131.137,441.274,122.039,442.286,122.196C443.298,122.353,443.298,131.765,444.31,134.275C445.323,136.784,447.347,132.392,448.359,132.894C449.371,133.396,449.371,138.792,450.383,136.596C451.395,134.4,453.419,124.612,454.431,122.133C455.443,119.655,455.443,124.486,456.455,124.643C457.467,124.8,459.491,120.282,460.503,121.129C461.516,121.976,461.516,128.188,462.528,129.286C463.54,130.384,465.564,126.369,466.576,127.027C467.588,127.686,467.588,133.02,468.6,132.235C469.612,131.451,471.636,124.549,472.648,125.114C473.66,125.678,473.661,133.71,474.673,134.494C475.685,135.278,477.709,128.816,478.721,128.486C479.733,128.157,479.733,133.961,480.745,133.961C481.757,133.961,483.781,128.157,484.793,128.078C485.805,128,485.805,133.647,486.817,135.843C487.829,138.039,489.854,136.784,490.866,136C491.878,135.216,491.878,134.902,492.89,132.549C493.902,130.196,495.926,125.804,496.938,125.843C497.95,125.882,497.95,130.353,498.962,130.196C499.974,130.039,501.998,125.255,503.01,125.373C504.023,125.49,504.023,130.51,505.035,130.667C506.047,130.824,508.071,126.118,509.083,126.275C510.095,126.431,510.095,131.451,511.107,131.294C512.119,131.137,514.143,125.804,515.155,125.412C516.167,125.02,516.167,129.569,517.18,128.784C518.192,128,520.216,121.882,521.228,122.212C522.24,122.541,522.24,129.318,523.252,132.298C524.264,135.278,526.288,134.463,527.3,135.467C528.312,136.471,528.312,139.294,529.324,140.863C530.336,142.431,532.361,142.745,533.373,142.431C534.385,142.118,534.385,141.176,535.397,140.863C536.409,140.549,538.433,140.863,539.445,141.176C540.457,141.49,540.457,141.804,541.469,140.235C542.481,138.667,544.505,135.216,545.517,134.275C546.529,133.333,546.53,134.902,547.542,134.588C548.554,134.275,550.578,132.078,551.59,131.922C552.602,131.765,552.602,133.647,553.614,133.333C554.626,133.02,556.65,130.51,557.662,130.98C558.674,131.451,558.674,134.902,559.687,134.745C560.699,134.588,562.723,130.824,563.735,131.137C564.747,131.451,564.747,135.843,565.759,138.039C566.771,140.235,568.795,140.235,569.807,139.765C570.819,139.294,570.819,138.353,571.831,134.275C572.843,130.196,574.867,122.98,575.88,123.922C576.892,124.863,576.892,133.961,577.904,135.529C578.916,137.098,580.94,131.137,581.952,129.725C582.964,128.314,582.964,131.451,583.976,131.569C584.988,131.686,587.012,128.784,588.024,130.039C589.036,131.294,589.037,136.706,590.049,137.098C591.061,137.49,593.085,132.863,594.097,132.078L594.097,110.745C593.085,110.275,591.061,116.314,590.049,116.118C589.037,115.922,589.036,109.49,588.024,111.059C587.012,112.627,584.988,122.196,583.976,122.549C582.964,122.902,582.964,114.039,581.952,110.118C580.94,106.196,578.916,107.216,577.904,108.98C576.892,110.745,576.892,113.255,575.88,114.161C574.867,115.067,572.843,114.369,571.831,115.624C570.819,116.878,570.819,120.086,569.807,118.867C568.795,117.647,566.771,112,565.759,112C564.747,112,564.747,117.647,563.735,114.196C562.723,110.745,560.699,98.196,559.687,98.196C558.674,98.196,558.674,110.745,557.662,111.529C556.65,112.314,554.626,101.333,553.614,101.961C552.602,102.588,552.602,114.824,551.59,115.765C550.578,116.706,548.554,106.353,547.542,104.784C546.53,103.216,546.529,110.431,545.517,110.745C544.505,111.059,542.481,104.471,541.469,105.098C540.457,105.725,540.457,113.569,539.445,113.098C538.433,112.627,536.409,103.843,535.397,105.255C534.385,106.667,534.385,118.275,533.373,121.059C532.361,123.843,530.336,117.804,529.324,116.863C528.312,115.922,528.312,120.078,527.3,121.435C526.288,122.792,524.264,121.349,523.252,116.643C522.24,111.937,522.24,103.969,521.228,103.71C520.216,103.451,518.192,110.902,517.18,112.627C516.167,114.353,516.167,110.353,515.155,108.588C514.143,106.824,512.119,107.294,511.107,105.255C510.095,103.216,510.095,98.667,509.083,99.176C508.071,99.686,506.047,105.255,505.035,105.412C504.023,105.569,504.023,100.314,503.01,100.352C501.998,100.39,499.974,105.722,498.962,106.349C497.95,106.976,497.95,102.9,496.938,102.117C495.926,101.333,493.902,103.843,492.89,103.373C491.878,102.902,491.878,99.451,490.866,100.824C489.854,102.196,487.829,108.392,486.817,108.235C485.805,108.078,485.805,101.569,484.793,101.098C483.781,100.627,481.757,106.196,480.745,106.039C479.733,105.882,479.733,100,478.721,101.922C477.709,103.843,475.685,113.569,474.673,113.725C473.661,113.882,473.66,104.471,472.648,102C471.636,99.529,469.612,104,468.6,106.196C467.588,108.392,467.588,108.314,466.576,108.871C465.564,109.427,463.54,110.62,462.528,110.149C461.516,109.678,461.516,107.545,460.503,106.761C459.491,105.976,457.467,106.541,456.455,105.286C455.443,104.031,455.443,100.957,454.431,103.341C453.419,105.725,451.395,113.569,450.383,113.569C449.371,113.569,449.371,105.725,448.359,105.373C447.347,105.02,445.323,112.157,444.31,111.843C443.298,111.529,443.298,103.765,442.286,104.157C441.274,104.549,439.25,113.098,438.238,112.941C437.226,112.784,437.226,103.922,436.214,103.373C435.202,102.824,433.178,110.588,432.166,110.431C431.154,110.275,431.153,102.196,430.141,101.49C429.129,100.784,427.105,107.451,426.093,108.235C425.081,109.02,425.081,103.922,424.069,105.294C423.057,106.667,421.033,114.51,420.021,113.725C419.009,112.941,419.009,103.529,417.997,102.863C416.984,102.196,414.96,110.275,413.948,111.373C412.936,112.471,412.936,106.588,411.924,105.655C410.912,104.722,408.888,108.737,407.876,113.6C406.864,118.463,406.864,124.173,405.852,124.428C404.84,124.683,402.816,119.485,400.791,118.256C398.767,117.027,396.743,119.768,394.719,121.059C392.695,122.35,390.671,122.191,388.647,123.599C386.623,125.008,384.598,127.984,382.574,128.953C380.55,129.922,378.526,128.882,376.502,129.069C374.478,129.255,372.454,130.667,370.429,130.588C368.405,130.51,366.381,128.941,364.357,130.118C362.333,131.294,360.309,135.216,358.285,136.131C356.26,137.046,354.236,134.954,352.212,133.386C350.188,131.817,348.164,130.771,346.14,131.739C344.116,132.706,342.091,135.686,340.067,137.229C338.043,138.771,336.019,138.876,333.995,138.248C331.971,137.621,329.947,136.261,327.922,136.261C325.898,136.261,323.874,137.621,321.85,138.065C319.826,138.508,317.802,138.037,315.778,138.376C313.753,138.716,311.729,139.868,309.705,139.346C307.681,138.824,305.657,136.627,303.633,136.392C301.609,136.157,299.584,137.882,297.56,137.725C295.536,137.569,293.512,135.529,291.488,135.686C289.464,135.843,287.44,138.196,285.415,139.085C283.391,139.974,281.367,139.399,279.343,139.242C277.319,139.085,275.295,139.346,273.271,139.791C271.246,140.235,269.222,140.863,267.198,140.788C265.174,140.713,263.15,139.937,261.126,139.57C259.102,139.204,257.077,139.249,255.053,139.249C253.029,139.249,251.005,139.204,248.981,139.1C246.957,138.995,244.933,138.831,242.908,139.455C240.884,140.078,238.86,141.49,236.836,142.327C234.812,143.163,232.788,143.425,230.764,143.137C228.739,142.85,226.715,142.013,224.691,141.412C222.667,140.81,220.643,140.444,218.619,140.052C216.595,139.66,214.571,139.242,212.546,139.556C210.522,139.869,208.498,140.915,206.474,141.464C204.45,142.013,202.426,142.065,200.402,141.987C198.377,141.908,196.353,141.699,194.329,141.803C192.305,141.907,190.281,142.324,188.257,142.193C186.233,142.063,184.208,141.384,182.184,141.751C180.16,142.118,178.136,143.529,176.112,144.902C174.088,146.275,172.064,147.608,170.039,147.317C168.015,147.025,165.991,145.109,163.967,144.626C161.943,144.142,159.919,145.091,157.895,145.721C155.87,146.352,153.846,146.664,151.822,147.658C149.798,148.651,147.774,150.325,145.75,150.169C143.726,150.013,141.701,148.026,139.677,147.765C137.653,147.503,135.629,148.967,133.605,150.562C131.581,152.157,129.557,153.882,127.532,155.791C125.508,157.699,123.484,159.791,121.46,160.625C119.436,161.459,117.412,161.035,115.388,160.852C113.363,160.669,111.339,160.727,109.315,161.801C107.291,162.876,105.267,164.967,103.243,167.843C101.219,170.719,99.194,174.379,97.17,176.418C95.146,178.458,93.122,178.876,91.098,179.739C89.074,180.601,87.05,181.908,85.025,183.999C83.001,186.09,80.977,188.965,78.953,191.945C76.929,194.925,74.905,198.012,72.881,199.999C70.856,201.987,68.832,202.876,66.808,207.503C64.784,212.131,62.76,220.497,60.736,223.922C58.712,227.346,56.687,225.83,54.663,229.045C52.639,232.26,50.615,240.207,48.591,245.618C46.567,251.029,44.543,253.905,42.518,257.512C40.494,261.119,38.47,265.458,36.446,272.318C34.422,279.179,32.398,288.563,30.374,298.316C28.349,308.069,26.325,318.191,24.301,328.638C22.277,339.085,20.253,349.856,18.229,356.131C16.205,362.405,14.181,364.183,12.156,369.412C10.132,374.641,8.108,383.32,6.084,395.948Z" fill="#FF5F33" opacity="0.3"/></g></g><path class="foreground" aria-hidden="true" d="" display="none"/></g><g transform="translate(0,0)"><path class="background" aria-hidden="true" d="M0,0h600v400h-600Z"/><g><g class="mark-area role-mark layer_0_layer_0_marks" clip-path="url(#clip2)" role="graphics-object" aria-roledescription="area mark container"><path aria-label="Number of environment steps: 200.38k; Success rate: 0.0803333333333; upper_Success rate: 0.115333333333; Width: 512; Ci1 of Success rate: 0.115333333333; Ci0 of Success rate: 0.0803333333333; Mean of Success rate: 0.0993333333333" role="graphics-symbol" aria-roledescription="errorband" d="M6.084,397.412C8.108,389.438,10.132,387.19,12.156,379.216C14.181,371.242,16.205,357.542,18.229,348.054C20.253,338.565,22.277,333.286,24.301,325.574C26.325,317.861,28.349,307.715,30.374,298.746C32.398,289.778,34.422,281.987,36.446,273.987C38.47,265.987,40.494,257.778,42.518,253.15C44.543,248.523,46.567,247.477,48.591,242.588C50.615,237.699,52.639,228.967,54.663,220.471C56.687,211.974,58.712,203.712,60.736,199.242C62.76,194.771,64.784,194.092,66.808,191.765C68.832,189.438,70.856,185.464,72.881,180.235C74.905,175.007,76.929,168.523,78.953,164.601C80.977,160.68,83.001,159.32,85.025,158.144C87.05,156.967,89.074,155.974,91.098,154.406C93.122,152.838,95.146,150.695,97.17,149.258C99.194,147.82,101.219,147.086,103.243,147C105.267,146.913,107.291,147.473,109.315,144.866C111.339,142.258,113.363,136.482,115.388,133.796C117.412,131.111,119.436,131.516,121.46,132.817C123.484,134.118,125.508,136.314,127.532,136.026C129.557,135.739,131.581,132.967,133.605,131.399C135.629,129.83,137.653,129.464,139.677,128.916C141.701,128.369,143.726,127.639,145.75,127.142C147.774,126.646,149.798,126.382,151.822,125.858C153.846,125.335,155.87,124.552,157.895,124.753C159.919,124.955,161.943,126.141,163.967,125.973C165.991,125.804,168.015,124.28,170.039,124.102C172.064,123.924,174.088,125.091,176.112,125.391C178.136,125.69,180.16,125.122,182.184,125.098C184.208,125.075,186.233,125.596,188.257,124.154C190.281,122.711,192.305,119.305,194.329,118.416C196.353,117.528,198.377,119.156,200.402,119.447C202.426,119.739,204.45,118.693,206.474,118.797C208.498,118.902,210.522,120.157,212.546,121.124C214.571,122.092,216.595,122.771,218.619,122.824C220.643,122.876,222.667,122.301,224.691,120.941C226.715,119.582,228.739,117.438,230.764,117.516C232.788,117.595,234.812,119.895,236.836,120.601C238.86,121.307,240.884,120.418,242.908,119.414C244.933,118.409,246.957,117.289,248.981,116.975C251.005,116.661,253.029,117.154,255.053,117.692C257.077,118.23,259.102,118.812,261.126,118.472C263.15,118.133,265.174,116.87,267.198,117.468C269.222,118.065,271.246,120.523,273.271,120.314C275.295,120.105,277.319,117.229,279.343,115.959C281.367,114.689,283.391,115.025,285.415,115.522C287.44,116.019,289.464,116.676,291.488,117.371C293.512,118.065,295.536,118.797,297.56,118.379C299.584,117.961,301.609,116.392,303.633,114.797C305.657,113.203,307.681,111.582,309.705,110.824C311.729,110.067,313.753,110.173,315.778,110.565C317.802,110.957,319.826,111.635,321.85,111.922C323.874,112.209,325.898,112.105,327.922,111.843C329.947,111.582,331.971,111.163,333.995,111.231C336.019,111.298,338.043,111.851,340.067,111.798C342.091,111.746,344.116,111.089,346.14,110.97C348.164,110.851,350.188,111.271,352.212,110.957C354.236,110.643,356.26,109.596,358.285,108.942C360.309,108.289,362.333,108.029,364.357,107.742C366.381,107.455,368.405,107.141,370.429,107.454C372.454,107.767,374.478,108.707,376.502,109.492C378.526,110.276,380.55,110.905,382.574,110.461C384.598,110.017,386.623,108.501,388.647,107.794C390.671,107.088,392.695,107.191,394.719,107.602C396.743,108.012,398.767,108.731,400.792,108.809C402.816,108.887,404.84,108.326,406.864,107.628C408.888,106.931,410.912,106.097,412.936,105.313C414.961,104.529,416.985,103.796,419.009,102.477C421.033,101.159,423.057,99.255,425.081,98.888C427.105,98.522,429.129,99.692,431.154,100.774C433.178,101.856,435.202,102.85,437.226,103.086C439.25,103.322,441.274,102.8,443.298,102.617C445.323,102.434,447.347,102.59,449.371,103.321C451.395,104.052,453.419,105.359,455.443,104.89C457.467,104.42,459.492,102.173,461.516,100.918C463.54,99.664,465.564,99.403,467.588,100.229C469.612,101.055,471.636,102.97,473.661,103.204C475.685,103.439,477.709,101.994,479.733,101.479C481.757,100.963,483.781,101.377,485.805,100.802C487.83,100.227,489.854,98.663,491.878,96.966C493.902,95.269,495.926,93.441,497.95,93.438C499.974,93.435,501.999,95.259,504.023,95.807C506.047,96.356,508.071,95.629,510.095,95.32C512.119,95.012,514.143,95.122,516.168,96.298C518.192,97.475,520.216,99.718,522.24,99.218C524.264,98.719,526.288,95.477,528.312,94.458C530.337,93.438,532.361,94.641,534.385,95.66C536.409,96.68,538.433,97.516,540.457,97.858C542.481,98.199,544.506,98.044,546.53,97.116C548.554,96.187,550.578,94.483,552.602,93.097C554.626,91.711,556.65,90.642,558.675,89.662C560.699,88.682,562.723,87.792,564.747,87.897C566.771,88.001,568.795,89.101,570.819,88.354C572.844,87.607,574.868,85.013,576.892,83.65C578.916,82.287,580.94,82.154,582.964,82.333C584.988,82.512,587.013,83.004,589.037,83.53L589.037,63.81C587.013,62.969,584.988,62.611,582.964,62.543C580.94,62.476,578.916,62.7,576.892,64.168C574.868,65.636,572.844,68.347,570.819,69.102C568.795,69.856,566.771,68.654,564.747,68.758C562.723,68.863,560.699,70.275,558.675,70.842C556.65,71.41,554.626,71.134,552.602,70.898C550.578,70.663,548.554,70.469,546.53,71.024C544.506,71.579,542.481,72.884,540.457,72.962C538.433,73.041,536.409,71.893,534.385,70.284C532.361,68.676,530.337,66.607,528.312,67.496C526.288,68.385,524.264,72.232,522.24,73.632C520.216,75.033,518.192,73.987,516.168,73.908C514.143,73.83,512.119,74.719,510.095,74.573C508.071,74.428,506.047,73.247,504.023,72.751C501.999,72.254,499.974,72.441,497.95,72.716C495.926,72.992,493.902,73.357,491.878,73.129C489.854,72.901,487.83,72.081,485.805,71.112C483.781,70.144,481.757,69.027,479.733,69.587C477.709,70.147,475.685,72.385,473.661,73.249C471.636,74.114,469.612,73.606,467.588,73.744C465.564,73.881,463.54,74.664,461.516,75.684C459.492,76.703,457.467,77.959,455.443,78.063C453.419,78.166,451.395,77.116,449.371,76.201C447.347,75.286,445.323,74.506,443.298,75.083C441.274,75.66,439.25,77.595,437.226,77.803C435.202,78.012,433.178,76.494,431.154,75.968C429.129,75.441,427.105,75.905,425.081,76.586C423.057,77.266,421.033,78.162,419.009,78.349C416.985,78.536,414.961,78.013,412.936,78.588C410.912,79.163,408.888,80.837,406.864,82.779C404.84,84.721,402.816,86.932,400.792,86.618C398.767,86.304,396.743,83.466,394.719,81.574C392.695,79.682,390.671,78.737,388.647,78.973C386.623,79.208,384.598,80.624,382.574,81.043C380.55,81.463,378.526,80.886,376.502,80.886C374.478,80.886,372.454,81.463,370.429,82.403C368.405,83.344,366.381,84.648,364.357,84.36C362.333,84.072,360.309,82.191,358.285,82.087C356.26,81.983,354.236,83.656,352.212,84.154C350.188,84.651,348.164,83.973,346.14,84.451C344.116,84.93,342.091,86.566,340.067,87.01C338.043,87.455,336.019,86.708,333.995,87.065C331.971,87.422,329.947,88.884,327.922,90.374C325.898,91.864,323.874,93.383,321.85,94.064C319.826,94.745,317.802,94.588,315.778,95.765C313.753,96.941,311.729,99.451,309.705,101.908C307.681,104.366,305.657,106.771,303.633,108.209C301.609,109.647,299.584,110.118,297.56,110.431C295.536,110.745,293.512,110.902,291.488,110.734C289.464,110.566,287.44,110.073,285.415,109.445C283.391,108.818,281.367,108.056,279.343,108.563C277.319,109.071,275.295,110.847,273.271,111.004C271.246,111.161,269.222,109.698,267.198,109.639C265.174,109.58,263.15,110.924,261.126,111.238C259.102,111.552,257.077,110.835,255.053,110.857C253.029,110.878,251.005,111.639,248.981,112.293C246.957,112.946,244.933,113.493,242.908,113.713C240.884,113.933,238.86,113.827,236.836,113.801C234.812,113.775,232.788,113.829,230.764,114.378C228.739,114.928,226.715,115.974,224.691,116.654C222.667,117.333,220.643,117.647,218.619,117.882C216.595,118.118,214.571,118.275,212.546,117.699C210.522,117.124,208.498,115.817,206.474,115.19C204.45,114.562,202.426,114.614,200.402,114.487C198.377,114.36,196.353,114.054,194.329,114.942C192.305,115.831,190.281,117.913,188.257,118.772C186.233,119.631,184.208,119.267,182.184,119.279C180.16,119.29,178.136,119.679,176.112,118.909C174.088,118.14,172.064,116.213,170.039,116.594C168.015,116.975,165.991,119.664,163.967,120.433C161.943,121.203,159.919,120.052,157.895,120.321C155.87,120.59,153.846,122.278,151.822,122.54C149.798,122.801,147.774,121.636,145.75,121.053C143.726,120.471,141.701,120.471,139.677,121.438C137.653,122.405,135.629,124.34,133.605,126.797C131.581,129.255,129.557,132.235,127.532,132.496C125.508,132.757,123.484,130.298,121.46,128.311C119.436,126.324,117.412,124.809,115.388,126.405C113.363,128,111.339,132.706,109.315,135.059C107.291,137.412,105.267,137.412,103.243,136.627C101.219,135.843,99.194,134.275,97.17,134.012C95.146,133.749,93.122,134.792,91.098,136.335C89.074,137.877,87.05,139.919,85.025,140.861C83.001,141.804,80.977,141.647,78.953,142.797C76.929,143.946,74.905,146.403,72.881,149.618C70.856,152.833,68.832,156.807,66.808,161.539C64.784,166.272,62.76,171.763,60.736,176.13C58.712,180.497,56.687,183.739,54.663,187.971C52.639,192.204,50.615,197.427,48.591,205.244C46.567,213.061,44.543,223.472,42.518,230.324C40.494,237.176,38.47,240.471,36.446,248.026C34.422,255.582,32.398,267.399,30.374,277.254C28.349,287.108,26.325,295.001,24.301,300.779C22.277,306.557,20.253,310.22,18.229,321.672C16.205,333.124,14.181,352.366,12.156,360.889C10.132,369.412,8.108,367.216,6.084,374.667Z" fill="#FF4B33" opacity="0.3"/></g></g><path class="foreground" aria-hidden="true" d="" display="none"/></g><g transform="translate(0,0)"><path class="background" aria-hidden="true" d="M0,0h600v400h-600Z"/><g><g class="mark-area role-mark layer_0_layer_0_marks" clip-path="url(#clip3)" role="graphics-object" aria-roledescription="area mark container"><path aria-label="Number of environment steps: 200.38k; Success rate: 0.0786666666667; upper_Success rate: 0.123666666667; Width: 1024; Ci1 of Success rate: 0.123666666667; Ci0 of Success rate: 0.0786666666667; Mean of Success rate: 0.101666666667" role="graphics-symbol" aria-roledescription="errorband" d="M6.084,392.816C8.108,378.829,10.132,364.238,12.156,349.387C14.181,334.536,16.205,319.425,18.229,310.745C20.253,302.065,22.277,299.817,24.301,291.399C26.325,282.98,28.349,268.392,30.374,258.719C32.398,249.046,34.422,244.288,36.446,237.725C38.47,231.163,40.494,222.797,42.518,217.595C44.543,212.392,46.567,210.353,48.591,204.418C50.615,198.484,52.639,188.654,54.663,179.895C56.687,171.137,58.712,163.451,60.736,159.739C62.76,156.026,64.784,156.288,66.808,154.536C68.832,152.784,70.856,149.02,72.881,145.856C74.905,142.693,76.929,140.131,78.953,136.863C80.977,133.595,83.001,129.621,85.025,127.19C87.05,124.758,89.074,123.869,91.098,124.486C93.122,125.102,95.146,127.223,97.17,127.208C99.194,127.193,101.219,125.042,103.243,123.563C105.267,122.084,107.291,121.277,109.315,120.377C111.339,119.477,113.363,118.484,115.388,118.797C117.412,119.111,119.436,120.732,121.46,121.438C123.484,122.144,125.508,121.935,127.532,121.778C129.557,121.621,131.581,121.516,133.605,121.125C135.629,120.733,137.653,120.055,139.677,118.722C141.701,117.388,143.726,115.4,145.75,114.118C147.774,112.837,149.798,112.261,151.822,111.294C153.846,110.327,155.87,108.967,157.895,107.582C159.919,106.196,161.943,104.784,163.967,103.529C165.991,102.275,168.015,101.176,170.039,99.791C172.064,98.405,174.088,96.732,176.112,96.052C178.136,95.373,180.16,95.686,182.184,95.575C184.208,95.463,186.233,94.927,188.257,94.979C190.281,95.031,192.305,95.672,194.329,94.477C196.353,93.281,198.377,90.248,200.402,88.497C202.426,86.745,204.45,86.275,206.474,85.072C208.498,83.869,210.522,81.935,212.546,81.02C214.571,80.105,216.595,80.209,218.619,80.444C220.643,80.68,222.667,81.046,224.691,79.373C226.715,77.699,228.739,73.987,230.764,72.282C232.788,70.576,234.812,70.878,236.836,70.123C238.86,69.369,240.884,67.558,242.908,67.381C244.933,67.204,246.957,68.661,248.981,69.415C251.005,70.17,253.029,70.222,255.053,69.404C257.077,68.586,259.102,66.898,261.126,65.957C263.15,65.016,265.174,64.822,267.198,65.012C269.222,65.203,271.246,65.778,273.271,65.673C275.295,65.569,277.319,64.784,279.343,65.281C281.367,65.778,283.391,67.556,285.415,67.354C287.44,67.152,289.464,64.971,291.488,64.605C293.512,64.239,295.536,65.688,297.56,66.308C299.584,66.928,301.609,66.719,303.633,66.353C305.657,65.987,307.681,65.464,309.705,65.542C311.729,65.621,313.753,66.301,315.778,66.301C317.802,66.301,319.826,65.621,321.85,65.333C323.874,65.046,325.898,65.15,327.922,65.176C329.947,65.203,331.971,65.15,333.995,65.046C336.019,64.941,338.043,64.784,340.067,64.81C342.091,64.837,344.116,65.046,346.14,64.784C348.164,64.523,350.188,63.791,352.212,63.975C354.236,64.158,356.26,65.258,358.285,65.597C360.309,65.937,362.333,65.518,364.357,65.203C366.381,64.889,368.405,64.68,370.429,64.523C372.454,64.366,374.478,64.261,376.502,64.228C378.526,64.194,380.55,64.232,382.574,64.676C384.598,65.12,386.623,65.972,388.647,65.796C390.671,65.621,392.695,64.418,394.719,63.87C396.743,63.322,398.767,63.427,400.792,64.787C402.816,66.146,404.84,68.759,406.864,69.756C408.888,70.753,410.912,70.133,412.936,69.688C414.961,69.244,416.985,68.975,419.009,68.579C421.033,68.183,423.057,67.66,425.081,66.614C427.105,65.569,429.129,64,431.154,64.396C433.178,64.792,435.202,67.152,437.226,67.492C439.25,67.832,441.274,66.151,443.298,65.337C445.323,64.523,447.347,64.575,449.371,65.124C451.395,65.673,453.419,66.719,455.443,66.745C457.467,66.771,459.492,65.778,461.516,64.654C463.54,63.529,465.564,62.275,467.588,61.857C469.612,61.439,471.636,61.859,473.661,61.963C475.685,62.068,477.709,61.858,479.733,62.354C481.757,62.85,483.781,64.052,485.805,65.02C487.83,65.987,489.854,66.719,491.878,66.954C493.902,67.19,495.926,66.928,497.95,66.353C499.974,65.778,501.999,64.889,504.023,64.68C506.047,64.471,508.071,64.941,510.095,64.942C512.119,64.942,514.143,64.473,516.168,64.081C518.192,63.689,520.216,63.374,522.24,63.53C524.264,63.686,526.288,64.314,528.312,64.314C530.337,64.314,532.361,63.686,534.385,63.739C536.409,63.791,538.433,64.523,540.457,64.575C542.481,64.627,544.506,64,546.53,63.739C548.554,63.477,550.578,63.582,552.602,63.922C554.626,64.261,556.65,64.837,558.675,65.412C560.699,65.987,562.723,66.562,564.747,66.928C566.771,67.294,568.795,67.451,570.819,67.163C572.844,66.876,574.868,66.144,576.892,66.353C578.916,66.562,580.94,67.712,582.964,67.948C584.988,68.183,587.013,67.503,589.037,67.085L589.037,58.484C587.013,59.294,584.988,59.922,582.964,60.026C580.94,60.131,578.916,59.712,576.892,59.059C574.868,58.405,572.844,57.516,570.819,57.412C568.795,57.307,566.771,57.987,564.747,58.17C562.723,58.353,560.699,58.039,558.675,57.908C556.65,57.778,554.626,57.83,552.602,57.621C550.578,57.412,548.554,56.941,546.53,56.731C544.506,56.522,542.481,56.573,540.457,57.305C538.433,58.037,536.409,59.45,534.385,60.156C532.361,60.863,530.337,60.863,528.312,60.575C526.288,60.288,524.264,59.712,522.24,59.137C520.216,58.562,518.192,57.987,516.168,58.065C514.143,58.144,512.119,58.876,510.095,59.346C508.071,59.817,506.047,60.026,504.023,60.523C501.999,61.02,499.974,61.804,497.95,62.17C495.926,62.536,493.902,62.484,491.878,61.49C489.854,60.497,487.83,58.562,485.805,57.673C483.781,56.784,481.757,56.941,479.733,56.993C477.709,57.046,475.685,56.993,473.661,57.072C471.636,57.15,469.612,57.359,467.588,57.386C465.564,57.412,463.54,57.255,461.516,57.804C459.492,58.353,457.467,59.608,455.443,60.366C453.419,61.124,451.395,61.386,449.371,60.654C447.347,59.922,445.323,58.196,443.298,58.073C441.274,57.95,439.25,59.429,437.226,59.585C435.202,59.742,433.178,58.577,431.154,58.204C429.129,57.83,427.105,58.248,425.081,58.901C423.057,59.554,421.033,60.442,419.009,60.546C416.985,60.651,414.961,59.973,412.936,59.999C410.912,60.026,408.888,60.758,406.864,60.471C404.84,60.183,402.816,58.876,400.792,58.484C398.767,58.092,396.743,58.614,394.719,59.163C392.695,59.712,390.671,60.288,388.647,60.538C386.623,60.788,384.598,60.713,382.574,60.556C380.55,60.4,378.526,60.161,376.502,60.12C374.478,60.078,372.454,60.235,370.429,59.817C368.405,59.399,366.381,58.405,364.357,57.882C362.333,57.359,360.309,57.307,358.285,57.072C356.26,56.837,354.236,56.418,352.212,56.758C350.188,57.098,348.164,58.196,346.14,57.856C344.116,57.516,342.091,55.739,340.067,55.476C338.043,55.214,336.019,56.468,333.995,56.991C331.971,57.514,329.947,57.306,327.922,57.934C325.898,58.562,323.874,60.026,321.85,60.706C319.826,61.386,317.802,61.281,315.778,60.444C313.753,59.608,311.729,58.039,309.705,57.777C307.681,57.515,305.657,58.559,303.633,58.821C301.609,59.082,299.584,58.561,297.56,58.509C295.536,58.458,293.512,58.876,291.488,59.293C289.464,59.711,287.44,60.128,285.415,59.291C283.391,58.454,281.367,56.362,279.343,55.865C277.319,55.369,275.295,56.467,273.271,57.225C271.246,57.984,269.222,58.404,267.198,58.916C265.174,59.429,263.15,60.034,261.126,60.452C259.102,60.87,257.077,61.102,255.053,61.244C253.029,61.386,251.005,61.438,248.981,61.053C246.957,60.669,244.933,59.847,242.908,59.853C240.884,59.86,238.86,60.695,236.836,61.524C234.812,62.353,232.788,63.176,230.764,64.085C228.739,64.993,226.715,65.987,224.691,65.647C222.667,65.307,220.643,63.634,218.619,63.19C216.595,62.745,214.571,63.529,212.546,64.392C210.522,65.255,208.498,66.196,206.474,66.51C204.45,66.824,202.426,66.51,200.402,68.34C198.377,70.17,196.353,74.144,194.329,74.941C192.305,75.739,190.281,73.36,188.257,71.765C186.233,70.171,184.208,69.36,182.184,69.373C180.16,69.386,178.136,70.222,176.112,71.085C174.088,71.948,172.064,72.837,170.039,75.686C168.015,78.536,165.991,83.346,163.967,85.095C161.943,86.844,159.919,85.532,157.895,87.859C155.87,90.186,153.846,96.152,151.822,99.213C149.798,102.275,147.774,102.431,145.75,102.824C143.726,103.216,141.701,103.843,139.677,105.15C137.653,106.458,135.629,108.444,133.605,109.515C131.581,110.586,129.557,110.74,127.532,111.184C125.508,111.629,123.484,112.363,121.46,111.92C119.436,111.477,117.412,109.856,115.388,110.092C113.363,110.327,111.339,112.418,109.315,113.65C107.291,114.882,105.267,115.255,103.243,115.889C101.219,116.524,99.194,117.422,97.17,117.993C95.146,118.565,93.122,118.81,91.098,119.116C89.074,119.422,87.05,119.79,85.025,121.699C83.001,123.608,80.977,127.059,78.953,130.065C76.929,133.071,74.905,135.631,72.881,137.644C70.856,139.658,68.832,141.123,66.808,140.575C64.784,140.026,62.76,137.464,60.736,139.686C58.712,141.908,56.687,148.915,54.663,156.235C52.639,163.554,50.615,171.187,48.591,177.671C46.567,184.154,44.543,189.489,42.518,194.222C40.494,198.954,38.47,203.085,36.446,207.948C34.422,212.81,32.398,218.405,30.374,227.66C28.349,236.915,26.325,249.83,24.301,259.922C22.277,270.013,20.253,277.281,18.229,286.902C16.205,296.523,14.181,308.497,12.156,323.085C10.132,337.673,8.108,354.876,6.084,370.196Z" fill="#E0392D" opacity="0.3"/></g></g><path class="foreground" aria-hidden="true" d="" display="none"/></g><g transform="translate(0,0)"><path class="background" aria-hidden="true" d="M0,0h600v400h-600Z"/><g><g class="mark-area role-mark layer_0_layer_0_marks" clip-path="url(#clip4)" role="graphics-object" aria-roledescription="area mark container"><path aria-label="Number of environment steps: 200.38k; Success rate: 0.113; upper_Success rate: 0.166666666667; Width: 2048; Ci1 of Success rate: 0.166666666667; Ci0 of Success rate: 0.113; Mean of Success rate: 0.140333333333" role="graphics-symbol" aria-roledescription="errorband" d="M6.084,370.382C8.108,356.708,10.132,346.041,12.156,330.615C14.181,315.19,16.205,295.007,18.229,280.288C20.253,265.569,22.277,256.314,24.301,248.107C26.325,239.899,28.349,232.74,30.374,227.929C32.398,223.119,34.422,220.658,36.446,212.193C38.47,203.728,40.494,189.261,42.518,180.869C44.543,172.477,46.567,170.16,48.591,166.596C50.615,163.033,52.639,158.222,54.663,155.268C56.687,152.314,58.712,151.216,60.736,148.011C62.76,144.807,64.784,139.496,66.808,136.725C68.832,133.953,70.856,133.722,72.881,133.24C74.905,132.758,76.929,132.026,78.953,130.693C80.977,129.359,83.001,127.425,85.025,126.876C87.05,126.327,89.074,127.163,91.098,127.671C93.122,128.179,95.146,128.359,97.17,127.914C99.194,127.47,101.219,126.401,103.243,124.456C105.267,122.51,107.291,119.686,109.315,117.569C111.339,115.451,113.363,114.039,115.388,113.073C117.412,112.106,119.436,111.584,121.46,110.983C123.484,110.382,125.508,109.701,127.532,108.839C129.557,107.976,131.581,106.933,133.605,106.384C135.629,105.835,137.653,105.78,139.677,104.446C141.701,103.111,143.726,100.497,145.75,97.464C147.774,94.431,149.798,90.98,151.822,87.085C153.846,83.19,155.87,78.85,157.895,76.131C159.919,73.412,161.943,72.314,163.967,70.98C165.991,69.647,168.015,68.078,170.039,67.661C172.064,67.243,174.088,67.976,176.112,67.873C178.136,67.769,180.16,66.827,182.184,66.592C184.208,66.356,186.233,66.825,188.257,67.034C190.281,67.243,192.305,67.192,194.329,65.231C196.353,63.271,198.377,59.4,200.402,59.242C202.426,59.085,204.45,62.641,206.474,64.105C208.498,65.569,210.522,64.941,212.546,63.477C214.571,62.013,216.595,59.712,218.619,59.137C220.643,58.562,222.667,59.712,224.691,60.261C226.715,60.81,228.739,60.758,230.764,61.203C232.788,61.647,234.812,62.588,236.836,63.163C238.86,63.739,240.884,63.948,242.908,62.667C244.933,61.386,246.957,58.614,248.981,58.431C251.005,58.248,253.029,60.654,255.053,61.542C257.077,62.431,259.102,61.804,261.126,60.575C263.15,59.346,265.174,57.516,267.198,56.086C269.222,54.656,271.246,53.625,273.271,53.338C275.295,53.051,277.319,53.508,279.343,53.632C281.367,53.756,283.391,53.546,285.415,53.599C287.44,53.652,289.464,53.967,291.488,54.542C293.512,55.116,295.536,55.95,297.56,56.158C299.584,56.366,301.609,55.948,303.633,55.451C305.657,54.954,307.681,54.379,309.705,54.203C311.729,54.026,313.753,54.248,315.778,54.902C317.802,55.556,319.826,56.641,321.85,56.713C323.874,56.786,325.898,55.846,327.922,56.316C329.947,56.787,331.971,58.668,333.995,59.033C336.019,59.399,338.043,58.248,340.067,58.092C342.091,57.935,344.116,58.771,346.14,60.523C348.164,62.275,350.188,64.941,352.212,65.02C354.236,65.099,356.26,62.591,358.285,60.682C360.309,58.774,362.333,57.465,364.357,56.367C366.381,55.268,368.405,54.379,370.429,54.719C372.454,55.059,374.478,56.627,376.502,58.357C378.526,60.086,380.55,61.976,382.574,62.08C384.598,62.185,386.623,60.504,388.647,59.35C390.671,58.196,392.695,57.569,394.719,57.229C396.743,56.889,398.767,56.837,400.792,55.529C402.816,54.222,404.84,51.66,406.864,50.484C408.888,49.308,410.912,49.519,412.936,50.199C414.961,50.878,416.985,52.027,419.009,51.714C421.033,51.4,423.057,49.624,425.081,47.846C427.105,46.068,429.129,44.289,431.154,43.4C433.178,42.511,435.202,42.512,437.226,43.767C439.25,45.022,441.274,47.531,443.298,47.818C445.323,48.106,447.347,46.172,449.371,45.414C451.395,44.656,453.419,45.073,455.443,45.439C457.467,45.805,459.492,46.12,461.516,46.434C463.54,46.748,465.564,47.06,467.588,46.301C469.612,45.542,471.636,43.712,473.661,42.771C475.685,41.83,477.709,41.778,479.733,41.935C481.757,42.092,483.781,42.458,485.805,43.608C487.83,44.758,489.854,46.693,491.878,47.399C493.902,48.105,495.926,47.582,497.95,46.197C499.974,44.812,501.999,42.565,504.023,40.257C506.047,37.948,508.071,35.579,510.095,35.213C512.119,34.847,514.143,36.484,516.168,35.97C518.192,35.455,520.216,32.788,522.24,32.735C524.264,32.682,526.288,35.243,528.312,38.249C530.337,41.255,532.361,44.706,534.385,46.981C536.409,49.256,538.433,50.356,540.457,50.263C542.481,50.171,544.506,48.887,546.53,48.05C548.554,47.213,550.578,46.822,552.602,46.653C554.626,46.484,556.65,46.536,558.675,46.015C560.699,45.494,562.723,44.4,564.747,43.328C566.771,42.256,568.795,41.207,570.819,41.675C572.844,42.144,574.868,44.131,576.892,46.039C578.916,47.948,580.94,49.778,582.964,50.902C584.988,52.026,587.013,52.444,589.037,51.085L589.037,32.575C587.013,32.68,584.988,32.575,582.964,31.66C580.94,30.745,578.916,29.02,576.892,27.346C574.868,25.673,572.844,24.052,570.819,24.052C568.795,24.052,566.771,25.673,564.747,27.111C562.723,28.549,560.699,29.804,558.675,30.065C556.65,30.327,554.626,29.595,552.602,29.975C550.578,30.354,548.554,31.846,546.53,32.002C544.506,32.159,542.481,30.979,540.457,31.044C538.433,31.108,536.409,32.417,534.385,32.365C532.361,32.314,530.337,30.902,528.312,29.494C526.288,28.086,524.264,26.682,522.24,26.341C520.216,26.001,518.192,26.724,516.168,26.858C514.143,26.993,512.119,26.538,510.095,26.669C508.071,26.8,506.047,27.516,504.023,29.024C501.999,30.533,499.974,32.835,497.95,34.143C495.926,35.451,493.902,35.765,491.878,35.948C489.854,36.131,487.83,36.183,485.805,34.875C483.781,33.566,481.757,30.897,479.733,29.51C477.709,28.124,475.685,28.021,473.661,29.042C471.636,30.063,469.612,32.208,467.588,34.117C465.564,36.026,463.54,37.699,461.516,37.359C459.492,37.02,457.467,34.667,455.443,33.505C453.419,32.344,451.395,32.373,449.371,33.079C447.347,33.785,445.323,35.167,443.298,34.917C441.274,34.667,439.25,32.784,437.226,31.66C435.202,30.536,433.178,30.17,431.154,31.372C429.129,32.574,427.105,35.344,425.081,37.017C423.057,38.69,421.033,39.267,419.009,39.947C416.985,40.627,414.961,41.412,412.936,41.072C410.912,40.732,408.888,39.268,406.864,39.137C404.84,39.007,402.816,40.209,400.792,39.658C398.767,39.107,396.743,36.803,394.719,36.646C392.695,36.489,390.671,38.48,388.647,40.573C386.623,42.667,384.598,44.863,382.574,44.837C380.55,44.81,378.526,42.562,376.502,41.046C374.478,39.529,372.454,38.745,370.429,38.562C368.405,38.379,366.381,38.797,364.357,39.503C362.333,40.209,360.309,41.203,358.285,41.752C356.26,42.301,354.236,42.405,352.212,43.19C350.188,43.974,348.164,45.438,346.14,44.575C344.116,43.712,342.091,40.523,340.067,40.026C338.043,39.529,336.019,41.725,333.995,41.49C331.971,41.255,329.947,38.588,327.922,37.386C325.898,36.183,323.874,36.444,321.85,36.222C319.826,36,317.802,35.294,315.778,34.405C313.753,33.515,311.729,32.442,309.705,31.984C307.681,31.527,305.657,31.685,303.633,32.652C301.609,33.62,299.584,35.396,297.56,36.729C295.536,38.063,293.512,38.953,291.488,39.214C289.464,39.475,287.44,39.106,285.415,38.661C283.391,38.217,281.367,37.697,279.343,36.24C277.319,34.782,275.295,32.388,273.271,33.199C271.246,34.009,269.222,38.024,267.198,40.136C265.174,42.248,263.15,42.458,261.126,43.451C259.102,44.444,257.077,46.222,255.053,46.484C253.029,46.745,251.005,45.49,248.981,45.542C246.957,45.593,244.933,46.952,242.908,46.69C240.884,46.429,238.86,44.548,236.836,43.11C234.812,41.673,232.788,40.68,230.764,41.281C228.739,41.882,226.715,44.078,224.691,45.124C222.667,46.17,220.643,46.065,218.619,46.771C216.595,47.476,214.571,48.991,212.546,51.265C210.522,53.54,208.498,56.574,206.474,56.731C204.45,56.889,202.426,54.17,200.402,54.092C198.377,54.013,196.353,56.575,194.329,57.255C192.305,57.935,190.281,56.732,188.257,56.261C186.233,55.791,184.208,56.052,182.184,56.366C180.16,56.68,178.136,57.046,176.112,56.706C174.088,56.366,172.064,55.32,170.039,55.556C168.015,55.791,165.991,57.307,163.967,59.398C161.943,61.489,159.919,64.154,157.895,66.22C155.87,68.285,153.846,69.75,151.822,71.11C149.798,72.471,147.774,73.725,145.75,75.477C143.726,77.229,141.701,79.477,139.677,80.601C137.653,81.725,135.629,81.725,133.605,84.312C131.581,86.899,129.557,92.073,127.532,93.563C125.508,95.054,123.484,92.86,121.46,93.018C119.436,93.176,117.412,95.686,115.388,98.039C113.363,100.391,111.339,102.586,109.315,105.383C107.291,108.18,105.267,111.58,103.243,113.993C101.219,116.406,99.194,117.832,97.17,118.458C95.146,119.085,93.122,118.913,91.098,119.011C89.074,119.108,87.05,119.476,85.025,120.731C83.001,121.987,80.977,124.131,78.953,125.307C76.929,126.484,74.905,126.693,72.881,126.016C70.856,125.34,68.832,123.777,66.808,125.267C64.784,126.756,62.76,131.298,60.736,133.909C58.712,136.52,56.687,137.201,54.663,138.612C52.639,140.024,50.615,142.165,48.591,143.252C46.567,144.338,44.543,144.371,42.518,150.149C40.494,155.926,38.47,167.449,36.446,176.533C34.422,185.616,32.398,192.259,30.374,201.672C28.349,211.085,26.325,223.268,24.301,233.412C22.277,243.556,20.253,251.66,18.229,263.163C16.205,274.667,14.181,289.569,12.156,302.85C10.132,316.131,8.108,327.791,6.084,342.405Z" fill="#B22B24" opacity="0.3"/></g></g><path class="foreground" aria-hidden="true" d="" display="none"/></g><g transform="translate(0,0)"><path class="background" aria-hidden="true" d="M0,0h600v400h-600Z"/><g><g class="mark-area role-mark layer_0_layer_0_marks" clip-path="url(#clip5)" role="graphics-object" aria-roledescription="area mark container"><path aria-label="Number of environment steps: 200.38k; Success rate: 0.1504; upper_Success rate: 0.1596; Width: 4096; Ci1 of Success rate: 0.1596; Ci0 of Success rate: 0.1504; Mean of Success rate: 0.1548" role="graphics-symbol" aria-roledescription="errorband" d="M6.084,359.749C8.108,344.91,10.132,327.843,12.156,305.318C14.181,282.792,16.205,254.808,18.229,236.173C20.253,217.537,22.277,208.251,24.301,199.78C26.325,191.31,28.349,183.655,30.374,178.698C32.398,173.741,34.422,171.482,36.446,170.949C38.47,170.416,40.494,171.608,42.518,169.725C44.543,167.843,46.567,162.886,48.591,158.745C50.615,154.604,52.639,151.278,54.663,147.984C56.687,144.69,58.712,141.427,60.736,139.639C62.76,137.851,64.784,137.537,66.808,138.102C68.832,138.667,70.856,140.11,72.881,139.106C74.905,138.102,76.929,134.651,78.953,132.769C80.977,130.886,83.001,130.573,85.025,130.165C87.05,129.757,89.074,129.255,91.098,128.69C93.122,128.125,95.146,127.498,97.17,126.431C99.194,125.365,101.219,123.859,103.243,122.635C105.267,121.412,107.291,120.471,109.315,118.936C111.339,117.401,113.363,115.272,115.388,112.919C117.412,110.566,119.436,107.989,121.46,106.387C123.484,104.784,125.508,104.157,127.532,103.969C129.557,103.78,131.581,104.031,133.605,102.654C135.629,101.277,137.653,98.271,139.677,99.024C141.701,99.777,143.726,104.289,145.75,103.815C147.774,103.341,149.798,97.882,151.822,92.894C153.846,87.906,155.87,83.388,157.895,80.439C159.919,77.49,161.943,76.11,163.967,72.91C165.991,69.71,168.015,64.69,170.039,63.247C172.064,61.804,174.088,63.937,176.112,64.878C178.136,65.82,180.16,65.569,182.184,64.722C184.208,63.875,186.233,62.431,188.257,61.678C190.281,60.925,192.305,60.863,194.329,59.89C196.353,58.918,198.377,57.035,200.402,57.255C202.426,57.475,204.45,59.796,206.474,60.958C208.498,62.119,210.522,62.121,212.546,60.835C214.571,59.548,216.595,56.974,218.619,54.526C220.643,52.078,222.667,49.757,224.691,50.416C226.715,51.075,228.739,54.714,230.764,55.373C232.788,56.031,234.812,53.71,236.836,52.455C238.86,51.2,240.884,51.012,242.908,50.416C244.933,49.82,246.957,48.816,248.981,48.944C251.005,49.073,253.029,50.334,255.053,51.213C257.077,52.091,259.102,52.587,261.126,53.118C263.15,53.65,265.174,54.218,267.198,52.493C269.222,50.767,271.246,46.748,273.271,46.307C275.295,45.867,277.319,49.004,279.343,50.876C281.367,52.748,283.391,53.354,285.415,51.253C287.44,49.152,289.464,44.343,291.488,42.502C293.512,40.662,295.536,41.79,297.56,42.918C299.584,44.047,301.609,45.176,303.633,46.547C305.657,47.918,307.681,49.529,309.705,51.224C311.729,52.918,313.753,54.694,315.778,56.178C317.802,57.663,319.826,58.855,321.85,58.794C323.874,58.733,325.898,57.418,327.922,56.508C329.947,55.598,331.971,55.093,333.995,54.119C336.019,53.145,338.043,51.702,340.067,50.573C342.091,49.443,344.116,48.627,346.14,49.6C348.164,50.573,350.188,53.333,352.212,54.463C354.236,55.592,356.26,55.09,358.285,56.471C360.309,57.851,362.333,61.114,364.357,60.173C366.381,59.231,368.405,54.086,370.429,52.706C372.454,51.325,374.478,53.71,376.502,54.965C378.526,56.22,380.55,56.345,382.574,54.965C384.598,53.584,386.623,50.698,388.647,48.722C390.671,46.745,392.695,45.678,394.719,45.741C396.743,45.804,398.767,46.996,400.792,49.475C402.816,51.953,404.84,55.718,406.864,55.184C408.888,54.651,410.912,49.82,412.936,50.29C414.961,50.761,416.985,56.533,419.009,58.322C421.033,60.11,423.057,57.914,425.081,57.631C427.105,57.349,429.129,58.98,431.154,58.573C433.178,58.165,435.202,55.718,437.226,54.306C439.25,52.894,441.274,52.518,443.298,50.573C445.323,48.627,447.347,45.114,449.371,43.89C451.395,42.667,453.419,43.733,455.443,43.263C457.467,42.792,459.492,40.784,461.516,41.478C463.54,42.171,465.564,45.565,467.588,45.754C469.612,45.942,471.636,42.924,473.661,42.482C475.685,42.039,477.709,44.173,479.733,44.988C481.757,45.804,483.781,45.302,485.805,45.773C487.83,46.243,489.854,47.686,491.878,47.373C493.902,47.059,495.926,44.988,497.95,45.616C499.974,46.243,501.999,49.569,504.023,53.114C506.047,56.659,508.071,60.424,510.095,58.635C512.119,56.847,514.143,49.506,516.168,46.902C518.192,44.298,520.216,46.431,522.24,47.09C524.264,47.749,526.288,46.933,528.312,44.549C530.337,42.165,532.361,38.212,534.385,36.831C536.409,35.451,538.433,36.643,540.457,38.055C542.481,39.467,544.506,41.098,546.53,40.754C548.554,40.409,550.578,38.089,552.602,36.708C554.626,35.328,556.65,34.888,558.675,36.487C560.699,38.086,562.723,41.725,564.747,40.973C566.771,40.22,568.795,35.075,570.819,33.851C572.844,32.627,574.868,35.325,576.892,37.647C578.916,39.969,580.94,41.914,582.964,41.788C584.988,41.663,587.013,39.467,589.037,38.557L589.037,31.592C587.013,33.318,584.988,34.071,582.964,33.757C580.94,33.443,578.916,32.063,576.892,30.65C574.868,29.238,572.844,27.793,570.819,27.448C568.795,27.103,566.771,27.857,564.747,27.889C562.723,27.922,560.699,27.231,558.675,26.855C556.65,26.478,554.626,26.416,552.602,26.824C550.578,27.231,548.554,28.11,546.53,28.204C544.506,28.298,542.481,27.608,540.457,27.106C538.433,26.604,536.409,26.29,534.385,27.796C532.361,29.302,530.337,32.627,528.312,35.137C526.288,37.647,524.264,39.341,522.24,38.776C520.216,38.212,518.192,35.388,516.168,35.855C514.143,36.322,512.119,40.078,510.095,40.173C508.071,40.267,506.047,36.698,504.023,33.94C501.999,31.183,499.974,29.236,497.95,29.362C495.926,29.487,493.902,31.685,491.878,31.968C489.854,32.251,487.83,30.62,485.805,29.616C483.781,28.612,481.757,28.235,479.733,27.984C477.709,27.733,475.685,27.608,473.661,27.671C471.636,27.733,469.612,27.984,467.588,28.424C465.564,28.863,463.54,29.49,461.516,30.62C459.492,31.749,457.467,33.38,455.443,33.82C453.419,34.259,451.395,33.506,449.371,34.478C447.347,35.451,445.323,38.149,443.298,38.118C441.274,38.086,439.25,35.325,437.226,35.482C435.202,35.639,433.178,38.714,431.154,40.314C429.129,41.914,427.105,42.039,425.081,41.757C423.057,41.475,421.033,40.784,419.009,40.502C416.985,40.22,414.961,40.345,412.936,40.376C410.912,40.408,408.888,40.345,406.864,39.184C404.84,38.024,402.816,35.765,400.792,34.604C398.767,33.443,396.743,33.38,394.719,32.91C392.695,32.439,390.671,31.561,388.647,31.404C386.623,31.247,384.598,31.812,382.574,32.471C380.55,33.129,378.526,33.882,376.502,35.137C374.478,36.392,372.454,38.149,370.429,39.749C368.405,41.349,366.381,42.792,364.357,41.817C362.333,40.842,360.309,37.449,358.285,35.44C356.26,33.431,354.236,32.805,352.212,32.682C350.188,32.558,348.164,32.938,346.14,33.285C344.116,33.631,342.091,33.945,340.067,35.325C338.043,36.704,336.019,39.15,333.995,40.436C331.971,41.722,329.947,41.849,327.922,42.917C325.898,43.984,323.874,45.992,321.85,44.639C319.826,43.286,317.802,38.573,315.778,36.376C313.753,34.18,311.729,34.502,309.705,35.29C307.681,36.078,305.657,37.333,303.633,37.459C301.609,37.584,299.584,36.58,297.56,35.293C295.536,34.006,293.512,32.436,291.488,32.781C289.464,33.126,287.44,35.387,285.415,36.36C283.391,37.333,281.367,37.02,279.343,36.675C277.319,36.329,275.295,35.953,273.271,35.796C271.246,35.639,269.222,35.702,267.198,36.297C265.174,36.893,263.15,38.02,261.126,38.836C259.102,39.652,257.077,40.155,255.053,39.623C253.029,39.09,251.005,37.522,248.981,37.396C246.957,37.271,244.933,38.588,242.908,38.491C240.884,38.394,238.86,36.882,236.836,36.347C234.812,35.812,232.788,36.254,230.764,37.073C228.739,37.892,226.715,39.087,224.691,39.465C222.667,39.843,220.643,39.404,218.619,40C216.595,40.596,214.571,42.227,212.546,44.298C210.522,46.369,208.498,48.878,206.474,48.533C204.45,48.188,202.426,44.988,200.402,43.075C198.377,41.161,196.353,40.533,194.329,41.067C192.305,41.6,190.281,43.294,188.257,42.698C186.233,42.102,184.208,39.216,182.184,40C180.16,40.784,178.136,45.239,176.112,46.776C174.088,48.314,172.064,46.933,170.039,48.063C168.015,49.192,165.991,52.831,163.967,54.525C161.943,56.22,159.919,55.969,157.895,57.537C155.87,59.106,153.846,62.494,151.822,65.38C149.798,68.267,147.774,70.651,145.75,73.286C143.726,75.922,141.701,78.808,139.677,79.686C137.653,80.565,135.629,79.435,133.605,77.898C131.581,76.361,129.557,74.416,127.532,75.512C125.508,76.609,123.484,80.747,121.46,85.547C119.436,90.347,117.412,95.809,115.388,100.359C113.363,104.91,111.339,108.549,109.315,110.839C107.291,113.129,105.267,114.071,103.243,114.445C101.219,114.82,99.194,114.629,97.17,115.413C95.146,116.198,93.122,117.958,91.098,118.524C89.074,119.09,87.05,118.463,85.025,117.741C83.001,117.02,80.977,116.204,78.953,118.557C76.929,120.91,74.905,126.431,72.881,128.816C70.856,131.2,68.832,130.447,66.808,129.882C64.784,129.318,62.76,128.941,60.736,130.667C58.712,132.392,56.687,136.22,54.663,138.792C52.639,141.365,50.615,142.682,48.591,145.506C46.567,148.329,44.543,152.659,42.518,154.949C40.494,157.239,38.47,157.49,36.446,156.706C34.422,155.922,32.398,154.102,30.374,157.49C28.349,160.878,26.325,169.475,24.301,178.918C22.277,188.361,20.253,198.651,18.229,215.339C16.205,232.027,14.181,255.112,12.156,274.563C10.132,294.014,8.108,309.831,6.084,329.378Z" fill="#7A1F18" opacity="0.3"/></g></g><path class="foreground" aria-hidden="true" d="" display="none"/></g></g><g class="mark-group role-scope layer_1_pathgroup" role="graphics-object" aria-roledescription="group mark container"><g transform="translate(0,0)"><path class="background" aria-hidden="true" d="M0,0h600v400h-600Z"/><g><g class="mark-line role-mark layer_1_marks" clip-path="url(#clip6)" role="graphics-object" aria-roledescription="line mark container"><path aria-label="Number of environment steps: 200.38k; Success rate: 0.044; Width: 256" role="graphics-symbol" aria-roledescription="line mark" d="M6.084,400C8.108,386.824,10.132,378.824,12.156,373.987C14.181,369.15,16.205,367.477,18.229,361.752C20.253,356.026,22.277,346.248,24.301,336.777C26.325,327.305,28.349,318.14,30.374,309.094C32.398,300.049,34.422,291.122,36.446,284.149C38.47,277.176,40.494,272.157,42.518,268.105C44.543,264.052,46.567,260.967,48.591,255.346C50.615,249.725,52.639,241.569,54.663,237.778C56.687,233.987,58.712,234.562,60.736,232.105C62.76,229.647,64.784,224.157,66.808,220.889C68.832,217.621,70.856,216.575,72.881,214.614C74.905,212.654,76.929,209.778,78.953,206.667C80.977,203.556,83.001,200.209,85.025,197.516C87.05,194.824,89.074,192.784,91.098,191.085C93.122,189.386,95.146,188.026,97.17,185.464C99.194,182.902,101.219,179.137,103.243,177.49C105.267,175.843,107.291,176.314,109.315,175.974C111.339,175.634,113.363,174.484,115.388,174.286C117.412,174.088,119.436,174.842,121.46,174.058C123.484,173.274,125.508,170.951,127.532,169.214C129.557,167.477,131.581,166.327,133.605,164.471C135.629,162.614,137.653,160.052,139.677,160C141.701,159.948,143.726,162.405,145.75,162.693C147.774,162.98,149.798,161.098,151.822,160.026C153.846,158.954,155.87,158.693,157.895,157.546C159.919,156.4,161.943,154.368,163.967,154.747C165.991,155.126,168.015,157.916,170.039,158.174C172.064,158.431,174.088,156.157,176.112,154.026C178.136,151.895,180.16,149.908,182.184,148.68C184.208,147.451,186.233,146.98,188.257,146.458C190.281,145.935,192.305,145.359,194.329,145.072C196.353,144.784,198.377,144.784,200.402,144.627C202.426,144.471,204.45,144.157,206.474,143.791C208.498,143.425,210.522,143.007,212.546,142.928C214.571,142.85,216.595,143.111,218.619,143.137C220.643,143.163,222.667,142.954,224.691,143.686C226.715,144.418,228.739,146.092,230.764,146.379C232.788,146.667,234.812,145.569,236.836,144.471C238.86,143.373,240.884,142.275,242.908,141.748C244.933,141.221,246.957,141.266,248.981,141.266C251.005,141.266,253.029,141.221,255.053,141.042C257.077,140.863,259.102,140.549,261.126,140.784C263.15,141.02,265.174,141.804,267.198,142.144C269.222,142.484,271.246,142.379,273.271,142.039C275.295,141.699,277.319,141.124,279.343,141.098C281.367,141.072,283.391,141.595,285.415,141.124C287.44,140.654,289.464,139.19,291.488,138.902C293.512,138.614,295.536,139.503,297.56,139.634C299.584,139.765,301.609,139.137,303.633,139.399C305.657,139.66,307.681,140.81,309.705,141.176C311.729,141.542,313.753,141.124,315.778,140.993C317.802,140.863,319.826,141.02,321.85,140.654C323.874,140.288,325.898,139.399,327.922,139.451C329.947,139.503,331.971,140.497,333.995,140.758C336.019,141.02,338.043,140.549,340.067,139.529C342.091,138.51,344.116,136.941,346.14,136.444C348.164,135.948,350.188,136.523,352.212,137.516C354.236,138.51,356.26,139.922,358.285,139.32C360.309,138.719,362.333,136.105,364.357,135.111C366.381,134.118,368.405,134.745,370.429,134.824C372.454,134.902,374.478,134.431,376.502,135.007C378.526,135.582,380.55,137.203,382.574,136.366C384.598,135.529,386.623,132.235,388.647,130.667C390.671,129.098,392.695,129.255,394.719,128.471C396.743,127.686,398.767,125.961,400.791,126.039C402.816,126.118,404.84,128,405.852,127.937C406.864,127.875,406.864,125.867,407.876,122.024C408.888,118.18,410.912,112.502,411.924,113.741C412.936,114.98,412.936,123.137,413.948,123.843C414.96,124.549,416.984,117.804,417.997,117.804C419.009,117.804,419.009,124.549,420.021,124.392C421.033,124.235,423.057,117.176,424.069,116.588C425.081,116,425.081,121.882,426.093,121.176C427.105,120.471,429.129,113.176,430.141,113.529C431.153,113.882,431.154,121.882,432.166,122.118C433.178,122.353,435.202,114.824,436.214,115.294C437.226,115.765,437.226,124.235,438.238,123.765C439.25,123.294,441.274,113.882,442.286,113.843C443.298,113.804,443.298,123.137,444.31,124.549C445.323,125.961,447.347,119.451,448.359,119.522C449.371,119.592,449.371,126.243,450.383,125.145C451.395,124.047,453.419,115.2,454.431,112.753C455.443,110.306,455.443,114.259,456.455,114.965C457.467,115.671,459.491,113.129,460.503,113.945C461.516,114.761,461.516,118.933,462.528,119.718C463.54,120.502,465.564,117.898,466.576,118.322C467.588,118.745,467.588,122.196,468.6,120.706C469.612,119.216,471.636,112.784,472.648,114.212C473.66,115.639,473.661,124.925,474.673,125.239C475.685,125.553,477.709,116.894,478.721,115.78C479.733,114.667,479.733,121.098,480.745,121.176C481.757,121.255,483.781,114.98,484.793,115.451C485.805,115.922,485.805,123.137,486.817,124.314C487.829,125.49,489.854,120.627,490.866,119.529C491.878,118.431,491.878,121.098,492.89,120.157C493.902,119.216,495.926,114.667,496.938,114.941C497.95,115.216,497.95,120.314,498.962,119.922C499.974,119.529,501.998,113.647,503.01,113.451C504.023,113.255,504.023,118.745,505.035,118.745C506.047,118.745,508.071,113.255,509.083,113.451C510.095,113.647,510.095,119.529,511.107,120.471C512.119,121.412,514.143,117.412,515.155,117.49C516.167,117.569,516.167,121.725,517.18,120.471C518.192,119.216,520.216,112.549,521.228,113.247C522.24,113.945,522.24,122.008,523.252,125.851C524.264,129.694,526.288,129.318,527.3,129.169C528.312,129.02,528.312,129.098,529.324,129.987C530.336,130.876,532.361,132.575,533.373,130.967C534.385,129.359,534.385,124.444,535.397,123.608C536.409,122.771,538.433,126.013,539.445,126.327C540.457,126.641,540.457,124.026,541.469,123.399C542.481,122.771,544.505,124.131,545.517,124.078C546.529,124.026,546.53,122.562,547.542,123.085C548.554,123.608,550.578,126.118,551.59,125.49C552.602,124.863,552.602,121.098,553.614,120.471C554.626,119.843,556.65,122.353,557.662,122.614C558.674,122.876,558.674,120.889,559.687,120.837C560.699,120.784,562.723,122.667,563.735,124.078C564.747,125.49,564.747,126.431,565.759,128.052C566.771,129.673,568.795,131.974,569.807,131.503C570.819,131.033,570.819,127.791,571.831,124.706C572.843,121.621,574.867,118.693,575.88,119.529C576.892,120.366,576.892,124.967,577.904,125.203C578.916,125.438,580.94,121.307,581.952,121.908C582.964,122.51,582.964,127.843,583.976,127.882C584.988,127.922,587.012,122.667,588.024,122.51C589.036,122.353,589.037,127.294,590.049,127.059C591.061,126.824,593.085,121.412,594.097,121.255" stroke="#FF5F33" stroke-width="2"/></g></g><path class="foreground" aria-hidden="true" d="" display="none"/></g><g transform="translate(0,0)"><path class="background" aria-hidden="true" d="M0,0h600v400h-600Z"/><g><g class="mark-line role-mark layer_1_marks" clip-path="url(#clip7)" role="graphics-object" aria-roledescription="line mark container"><path aria-label="Number of environment steps: 200.38k; Success rate: 0.0993333333333; Width: 512" role="graphics-symbol" aria-roledescription="line mark" d="M6.084,386.954C8.108,379.451,10.132,379.137,12.156,370.614C14.181,362.092,16.205,345.359,18.229,335.059C20.253,324.758,22.277,320.889,24.301,314.144C26.325,307.399,28.349,297.778,30.374,288.34C32.398,278.902,34.422,269.647,36.446,261.961C38.47,254.275,40.494,248.157,42.518,241.856C44.543,235.556,46.567,229.072,48.591,222.745C50.615,216.418,52.639,210.248,54.663,204.209C56.687,198.17,58.712,192.261,60.736,187.791C62.76,183.32,64.784,180.288,66.808,176.497C68.832,172.706,70.856,168.157,72.881,163.817C74.905,159.477,76.929,155.346,78.953,152.967C80.977,150.588,83.001,149.961,85.025,148.81C87.05,147.66,89.074,145.987,91.098,144.261C93.122,142.536,95.146,140.758,97.17,140.366C99.194,139.974,101.219,140.967,103.243,141.513C105.267,142.058,107.291,142.155,109.315,139.613C111.339,137.07,113.363,131.888,115.388,129.826C117.412,127.765,119.436,128.824,121.46,130.529C123.484,132.235,125.508,134.588,127.532,134.301C129.557,134.013,131.581,131.085,133.605,129.046C135.629,127.007,137.653,125.856,139.677,125.124C141.701,124.392,143.726,124.078,145.75,124.134C147.774,124.19,149.798,124.616,151.822,124.224C153.846,123.832,155.87,122.622,157.895,122.599C159.919,122.577,161.943,123.742,163.967,123.204C165.991,122.667,168.015,120.426,170.039,120.179C172.064,119.933,174.088,121.681,176.112,122.323C178.136,122.965,180.16,122.502,182.184,122.454C184.208,122.405,186.233,122.771,188.257,121.591C190.281,120.411,192.305,117.684,194.329,116.796C196.353,115.907,198.377,116.855,200.402,117.068C202.426,117.281,204.45,116.758,206.474,117.098C208.498,117.438,210.522,118.641,212.546,119.399C214.571,120.157,216.595,120.471,218.619,120.392C220.643,120.314,222.667,119.843,224.691,118.824C226.715,117.804,228.739,116.235,230.764,115.974C232.788,115.712,234.812,116.758,236.836,117.124C238.86,117.49,240.884,117.176,242.908,116.59C244.933,116.004,246.957,115.145,248.981,114.674C251.005,114.204,253.029,114.121,255.053,114.39C257.077,114.659,259.102,115.279,261.126,114.913C263.15,114.547,265.174,113.195,267.198,113.539C269.222,113.882,271.246,115.922,273.271,115.765C275.295,115.608,277.319,113.255,279.343,112.329C281.367,111.402,283.391,111.903,285.415,112.452C287.44,113.001,289.464,113.599,291.488,114.054C293.512,114.51,295.536,114.824,297.56,114.51C299.584,114.196,301.609,113.255,303.633,111.686C305.657,110.118,307.681,107.922,309.705,106.458C311.729,104.993,313.753,104.261,315.778,104C317.802,103.739,319.826,103.948,321.85,103.477C323.874,103.007,325.898,101.856,327.922,100.81C329.947,99.765,331.971,98.824,333.995,98.958C336.019,99.092,338.043,100.303,340.067,100.172C342.091,100.041,344.116,98.57,346.14,98.069C348.164,97.569,350.188,98.039,352.212,97.673C354.236,97.307,356.26,96.105,358.285,95.817C360.309,95.529,362.333,96.157,364.357,96.261C366.381,96.366,368.405,95.948,370.429,95.922C372.454,95.895,374.478,96.261,376.502,96.523C378.526,96.784,380.55,96.941,382.574,96.314C384.598,95.686,386.623,94.275,388.647,93.83C390.671,93.386,392.695,93.908,394.719,95.148C396.743,96.388,398.767,98.345,400.792,98.581C402.816,98.816,404.84,97.33,406.864,95.907C408.888,94.484,410.912,93.124,412.936,92.366C414.961,91.608,416.985,91.451,419.009,90.678C421.033,89.905,423.057,88.515,425.081,87.993C427.105,87.47,429.129,87.813,431.154,88.586C433.178,89.359,435.202,90.562,437.226,90.614C439.25,90.667,441.274,89.569,443.298,89.176C445.323,88.784,447.347,89.098,449.371,89.778C451.395,90.458,453.419,91.503,455.443,91.216C457.467,90.928,459.492,89.307,461.516,88.157C463.54,87.007,465.564,86.327,467.588,86.614C469.612,86.902,471.636,88.157,473.661,88.026C475.685,87.895,477.709,86.379,479.733,85.595C481.757,84.81,483.781,84.758,485.805,84.837C487.83,84.915,489.854,85.124,491.878,84.706C493.902,84.288,495.926,83.242,497.95,82.936C499.974,82.629,501.999,83.063,504.023,83.507C506.047,83.951,508.071,84.407,510.095,84.373C512.119,84.34,514.143,83.817,516.168,84.34C518.192,84.863,520.216,86.431,522.24,85.277C524.264,84.123,526.288,80.246,528.312,79.331C530.337,78.416,532.361,80.463,534.385,82.114C536.409,83.765,538.433,85.02,540.457,85.255C542.481,85.49,544.506,84.706,546.53,83.862C548.554,83.018,550.578,82.114,552.602,81.46C554.626,80.807,556.65,80.403,558.675,79.496C560.699,78.588,562.723,77.176,564.747,76.993C566.771,76.81,568.795,77.856,570.819,77.218C572.844,76.579,574.868,74.256,576.892,72.713C578.916,71.171,580.94,70.409,582.964,70.275C584.988,70.14,587.013,70.633,589.037,71.47" stroke="#FF4B33" stroke-width="2"/></g></g><path class="foreground" aria-hidden="true" d="" display="none"/></g><g transform="translate(0,0)"><path class="background" aria-hidden="true" d="M0,0h600v400h-600Z"/><g><g class="mark-line role-mark layer_1_marks" clip-path="url(#clip8)" role="graphics-object" aria-roledescription="line mark container"><path aria-label="Number of environment steps: 200.38k; Success rate: 0.101666666667; Width: 1024" role="graphics-symbol" aria-roledescription="line mark" d="M6.084,381.229C8.108,366.588,10.132,350.745,12.156,336.314C14.181,321.882,16.205,308.863,18.229,300.026C20.253,291.19,22.277,286.536,24.301,277.02C26.325,267.503,28.349,253.124,30.374,243.503C32.398,233.882,34.422,229.02,36.446,223.111C38.47,217.203,40.494,210.248,42.518,204.706C44.543,199.163,46.567,195.033,48.591,189.072C50.615,183.111,52.639,175.32,54.663,167.529C56.687,159.739,58.712,151.948,60.736,148.967C62.76,145.987,64.784,147.817,66.808,147.425C68.832,147.033,70.856,144.418,72.881,141.804C74.905,139.19,76.929,136.575,78.953,133.438C80.977,130.301,83.001,126.641,85.025,124.471C87.05,122.301,89.074,121.621,91.098,121.74C93.122,121.86,95.146,122.779,97.17,122.521C99.194,122.263,101.219,120.829,103.243,119.795C105.267,118.76,107.291,118.125,109.315,117.049C111.339,115.974,113.363,114.458,115.388,114.353C117.412,114.248,119.436,115.556,121.46,116.052C123.484,116.549,125.508,116.235,127.532,116.105C129.557,115.974,131.581,116.026,133.605,115.425C135.629,114.824,137.653,113.569,139.677,112.261C141.701,110.954,143.726,109.595,145.75,108.68C147.774,107.765,149.798,107.294,151.822,105.516C153.846,103.739,155.87,100.654,157.895,98.797C159.919,96.941,161.943,96.314,163.967,94.719C165.991,93.124,168.015,90.562,170.039,88.366C172.064,86.17,174.088,84.34,176.112,83.294C178.136,82.248,180.16,81.987,182.184,81.972C184.208,81.957,186.233,82.189,188.257,83.077C190.281,83.966,192.305,85.513,194.329,84.325C196.353,83.137,198.377,79.216,200.402,77.072C202.426,74.928,204.45,74.562,206.474,73.83C208.498,73.098,210.522,72,212.546,71.399C214.571,70.797,216.595,70.693,218.619,71.085C220.643,71.477,222.667,72.366,224.691,71.843C226.715,71.32,228.739,69.386,230.764,68.216C232.788,67.046,234.812,66.641,236.836,65.796C238.86,64.952,240.884,63.669,242.908,63.715C244.933,63.761,246.957,65.135,248.981,65.744C251.005,66.353,253.029,66.196,255.053,65.576C257.077,64.956,259.102,63.873,261.126,63.193C263.15,62.514,265.174,62.237,267.198,62.021C269.222,61.804,271.246,61.647,273.271,61.203C275.295,60.758,277.319,60.026,279.343,60.627C281.367,61.229,283.391,63.163,285.415,63.477C287.44,63.791,289.464,62.484,291.488,62.17C293.512,61.856,295.536,62.536,297.56,62.876C299.584,63.216,301.609,63.216,303.633,62.771C305.657,62.327,307.681,61.438,309.705,61.647C311.729,61.856,313.753,63.163,315.778,63.634C317.802,64.105,319.826,63.739,321.85,63.163C323.874,62.588,325.898,61.804,327.922,61.464C329.947,61.124,331.971,61.229,333.995,60.941C336.019,60.654,338.043,59.974,340.067,60.105C342.091,60.235,344.116,61.176,346.14,61.176C348.164,61.176,350.188,60.235,352.212,60.183C354.236,60.131,356.26,60.967,358.285,61.359C360.309,61.752,362.333,61.699,364.357,61.778C366.381,61.856,368.405,62.065,370.429,62.144C372.454,62.222,374.478,62.17,376.502,62.189C378.526,62.207,380.55,62.297,382.574,62.585C384.598,62.872,386.623,63.358,388.647,63.13C390.671,62.902,392.695,61.961,394.719,61.386C396.743,60.81,398.767,60.601,400.792,61.542C402.816,62.484,404.84,64.575,406.864,65.311C408.888,66.047,410.912,65.427,412.936,65.139C414.961,64.852,416.985,64.896,419.009,64.474C421.033,64.052,423.057,63.163,425.081,62.353C427.105,61.542,429.129,60.81,431.154,61.434C433.178,62.058,435.202,64.037,437.226,64.116C439.25,64.194,441.274,62.372,443.298,61.879C445.323,61.386,447.347,62.222,449.371,62.797C451.395,63.373,453.419,63.686,455.443,63.373C457.467,63.059,459.492,62.118,461.516,61.359C463.54,60.601,465.564,60.026,467.588,59.817C469.612,59.608,471.636,59.765,473.661,59.765C475.685,59.765,477.709,59.608,479.733,59.608C481.757,59.608,483.781,59.765,485.805,60.706C487.83,61.647,489.854,63.373,491.878,64.157C493.902,64.941,495.926,64.784,497.95,64.34C499.974,63.895,501.999,63.163,504.023,62.745C506.047,62.327,508.071,62.222,510.095,62.013C512.119,61.804,514.143,61.49,516.168,61.412C518.192,61.333,520.216,61.49,522.24,61.778C524.264,62.065,526.288,62.484,528.312,62.536C530.337,62.588,532.361,62.275,534.385,61.935C536.409,61.595,538.433,61.229,540.457,60.967C542.481,60.706,544.506,60.549,546.53,60.575C548.554,60.601,550.578,60.81,552.602,60.967C554.626,61.124,556.65,61.229,558.675,61.542C560.699,61.856,562.723,62.379,564.747,62.614C566.771,62.85,568.795,62.797,570.819,62.641C572.844,62.484,574.868,62.222,576.892,62.588C578.916,62.954,580.94,63.948,582.964,64.078C584.988,64.209,587.013,63.477,589.037,62.824" stroke="#E0392D" stroke-width="2"/></g></g><path class="foreground" aria-hidden="true" d="" display="none"/></g><g transform="translate(0,0)"><path class="background" aria-hidden="true" d="M0,0h600v400h-600Z"/><g><g class="mark-line role-mark layer_1_marks" clip-path="url(#clip9)" role="graphics-object" aria-roledescription="line mark container"><path aria-label="Number of environment steps: 200.38k; Success rate: 0.140333333333; Width: 2048" role="graphics-symbol" aria-roledescription="line mark" d="M6.084,355.529C8.108,341.229,10.132,329.987,12.156,315.817C14.181,301.647,16.205,284.549,18.229,271.765C20.253,258.98,22.277,250.51,24.301,241.307C26.325,232.105,28.349,222.17,30.374,215.111C32.398,208.052,34.422,203.869,36.446,194.536C38.47,185.203,40.494,170.719,42.518,163.373C44.543,156.026,46.567,155.817,48.591,153.987C50.615,152.157,52.639,148.706,54.663,146.693C56.687,144.68,58.712,144.105,60.736,141.206C62.76,138.308,64.784,133.087,66.808,130.865C68.832,128.642,70.856,129.419,72.881,129.572C74.905,129.725,76.929,129.255,78.953,128.026C80.977,126.797,83.001,124.81,85.025,123.843C87.05,122.876,89.074,122.928,91.098,123.163C93.122,123.399,95.146,123.817,97.17,123.373C99.194,122.928,101.219,121.621,103.243,119.425C105.267,117.229,107.291,114.144,109.315,111.582C111.339,109.02,113.363,106.98,115.388,105.438C117.412,103.895,119.436,102.85,121.46,102.745C123.484,102.641,125.508,103.477,127.532,102.222C129.557,100.967,131.581,97.621,133.605,95.869C135.629,94.118,137.653,93.961,139.677,92.627C141.701,91.294,143.726,88.784,145.75,86.379C147.774,83.974,149.798,81.673,151.822,79.059C153.846,76.444,155.87,73.516,157.895,71.163C159.919,68.81,161.943,67.033,163.967,65.333C165.991,63.634,168.015,62.013,170.039,61.542C172.064,61.072,174.088,61.752,176.112,61.856C178.136,61.961,180.16,61.49,182.184,61.386C184.208,61.281,186.233,61.542,188.257,61.882C190.281,62.222,192.305,62.641,194.329,61.255C196.353,59.869,198.377,56.68,200.402,56.627C202.426,56.575,204.45,59.66,206.474,60.418C208.498,61.176,210.522,59.608,212.546,57.725C214.571,55.843,216.595,53.647,218.619,52.915C220.643,52.183,222.667,52.915,224.691,52.627C226.715,52.34,228.739,51.033,230.764,51.111C232.788,51.19,234.812,52.654,236.836,53.673C238.86,54.693,240.884,55.268,242.908,54.693C244.933,54.118,246.957,52.392,248.981,52.366C251.005,52.34,253.029,54.013,255.053,54.222C257.077,54.431,259.102,53.176,261.126,52.131C263.15,51.085,265.174,50.248,267.198,48.379C269.222,46.51,271.246,43.608,273.271,43.059C275.295,42.51,277.319,44.314,279.343,45.242C281.367,46.17,283.391,46.222,285.415,46.353C287.44,46.484,289.464,46.693,291.488,46.85C293.512,47.007,295.536,47.111,297.56,46.51C299.584,45.908,301.609,44.601,303.633,43.869C305.657,43.137,307.681,42.98,309.705,43.157C311.729,43.333,313.753,43.843,315.778,44.732C317.802,45.621,319.826,46.889,321.85,47.078C323.874,47.268,325.898,46.379,327.922,47.059C329.947,47.739,331.971,49.987,333.995,50.275C336.019,50.562,338.043,48.889,340.067,49.02C342.091,49.15,344.116,51.085,346.14,52.314C348.164,53.542,350.188,54.065,352.212,53.778C354.236,53.49,356.26,52.392,358.285,51.32C360.309,50.248,362.333,49.203,364.357,48.314C366.381,47.425,368.405,46.693,370.429,46.902C372.454,47.111,374.478,48.261,376.502,49.968C378.526,51.675,380.55,53.938,382.574,53.991C384.598,54.043,386.623,51.884,388.647,50.151C390.671,48.418,392.695,47.111,394.719,47.085C396.743,47.059,398.767,48.314,400.792,47.922C402.816,47.529,404.84,45.49,406.864,44.915C408.888,44.34,410.912,45.229,412.936,45.752C414.961,46.275,416.985,46.431,419.009,45.961C421.033,45.49,423.057,44.392,425.081,42.614C427.105,40.837,429.129,38.379,431.154,37.15C433.178,35.922,435.202,35.922,437.226,37.15C439.25,38.379,441.274,40.837,443.298,41.124C445.323,41.412,447.347,39.529,449.371,38.693C451.395,37.856,453.419,38.065,455.443,38.902C457.467,39.739,459.492,41.203,461.516,41.49C463.54,41.778,465.564,40.889,467.588,39.608C469.612,38.327,471.636,36.654,473.661,35.791C475.685,34.928,477.709,34.876,479.733,35.686C481.757,36.497,483.781,38.17,485.805,39.477C487.83,40.784,489.854,41.725,491.878,41.908C493.902,42.092,495.926,41.516,497.95,40.157C499.974,38.797,501.999,36.654,504.023,34.693C506.047,32.732,508.071,30.954,510.095,30.536C512.119,30.118,514.143,31.059,516.168,30.835C518.192,30.611,520.216,29.221,522.24,29.483C524.264,29.744,526.288,31.656,528.312,33.841C530.337,36.026,532.361,38.484,534.385,39.425C536.409,40.366,538.433,39.791,540.457,39.69C542.481,39.589,544.506,39.963,546.53,39.414C548.554,38.865,550.578,37.393,552.602,37.049C554.626,36.706,556.65,37.49,558.675,37.307C560.699,37.124,562.723,35.974,564.747,34.484C566.771,32.993,568.795,31.163,570.819,31.216C572.844,31.268,574.868,33.203,576.892,35.216C578.916,37.229,580.94,39.32,582.964,40.601C584.988,41.882,587.013,42.353,589.037,41.595" stroke="#B22B24" stroke-width="2"/></g></g><path class="foreground" aria-hidden="true" d="" display="none"/></g><g transform="translate(0,0)"><path class="background" aria-hidden="true" d="M0,0h600v400h-600Z"/><g><g class="mark-line role-mark layer_1_marks" clip-path="url(#clip10)" role="graphics-object" aria-roledescription="line mark container"><path aria-label="Number of environment steps: 200.38k; Success rate: 0.1548; Width: 4096" role="graphics-symbol" aria-roledescription="line mark" d="M6.084,345.224C8.108,327.969,10.132,311.09,12.156,290.008C14.181,268.925,16.205,243.639,18.229,225.882C20.253,208.125,22.277,197.898,24.301,188.863C26.325,179.827,28.349,171.984,30.374,167.969C32.398,163.953,34.422,163.765,36.446,163.89C38.47,164.016,40.494,164.455,42.518,162.008C44.543,159.561,46.567,154.227,48.591,150.745C50.615,147.263,52.639,145.631,54.663,143.122C56.687,140.612,58.712,137.224,60.736,135.467C62.76,133.71,64.784,133.584,66.808,133.929C68.832,134.275,70.856,135.09,72.881,133.396C74.905,131.702,76.929,127.498,78.953,125.522C80.977,123.545,83.001,123.796,85.025,123.859C87.05,123.922,89.074,123.796,91.098,123.137C93.122,122.478,95.146,121.286,97.17,120.533C99.194,119.78,101.219,119.467,103.243,118.745C105.267,118.024,107.291,116.894,109.315,114.824C111.339,112.753,113.363,109.741,115.388,106.667C117.412,103.592,119.436,100.455,121.46,97.255C123.484,94.055,125.508,90.792,127.532,89.631C129.557,88.471,131.581,89.412,133.605,89.475C135.629,89.537,137.653,88.722,139.677,89.067C141.701,89.412,143.726,90.918,145.75,89.475C147.774,88.031,149.798,83.639,151.822,79.184C153.846,74.729,155.87,70.212,157.895,67.702C159.919,65.192,161.943,64.69,163.967,62.4C165.991,60.11,168.015,56.031,170.039,54.996C172.064,53.961,174.088,55.969,176.112,55.718C178.136,55.467,180.16,52.957,182.184,52.11C184.208,51.263,186.233,52.078,188.257,51.922C190.281,51.765,192.305,50.635,194.329,49.694C196.353,48.753,198.377,48,200.402,49.224C202.426,50.447,204.45,53.647,206.474,54.902C208.498,56.157,210.522,55.467,212.546,53.647C214.571,51.827,216.595,48.878,218.619,47.122C220.643,45.365,222.667,44.8,224.691,44.925C226.715,45.051,228.739,45.867,230.764,45.678C232.788,45.49,234.812,44.298,236.836,44.078C238.86,43.859,240.884,44.612,242.908,44.361C244.933,44.11,246.957,42.855,248.981,42.886C251.005,42.918,253.029,44.235,255.053,44.925C257.077,45.616,259.102,45.678,261.126,45.584C263.15,45.49,265.174,45.239,267.198,44.173C269.222,43.106,271.246,41.224,273.271,41.129C275.295,41.035,277.319,42.729,279.343,43.911C281.367,45.093,283.391,45.762,285.415,44.162C287.44,42.562,289.464,38.693,291.488,37.417C293.512,36.141,295.536,37.459,297.56,38.714C299.584,39.969,301.609,41.161,303.633,41.757C305.657,42.353,307.681,42.353,309.705,42.876C311.729,43.399,313.753,44.444,315.778,46.358C317.802,48.272,319.826,51.054,321.85,51.535C323.874,52.016,325.898,50.196,327.922,49.224C329.947,48.251,331.971,48.125,333.995,47.247C336.019,46.369,338.043,44.737,340.067,43.514C342.091,42.29,344.116,41.475,346.14,41.38C348.164,41.286,350.188,41.914,352.212,42.541C354.236,43.169,356.26,43.796,358.285,45.835C360.309,47.875,362.333,51.325,364.357,51.325C366.381,51.325,368.405,47.875,370.429,46.306C372.454,44.737,374.478,45.051,376.502,45.02C378.526,44.988,380.55,44.612,382.574,43.451C384.598,42.29,386.623,40.345,388.647,39.467C390.671,38.588,392.695,38.776,394.719,39.122C396.743,39.467,398.767,39.969,400.792,41.663C402.816,43.357,404.84,46.243,406.864,46.62C408.888,46.996,410.912,44.863,412.936,45.114C414.961,45.365,416.985,48,419.009,49.067C421.033,50.133,423.057,49.631,425.081,49.725C427.105,49.82,429.129,50.51,431.154,49.475C433.178,48.439,435.202,45.678,437.226,44.925C439.25,44.173,441.274,45.427,443.298,44.424C445.323,43.42,447.347,40.157,449.371,38.933C451.395,37.71,453.419,38.525,455.443,38.024C457.467,37.522,459.492,35.702,461.516,35.576C463.54,35.451,465.564,37.02,467.588,36.988C469.612,36.957,471.636,35.325,473.661,35.043C475.685,34.761,477.709,35.827,479.733,36.267C481.757,36.706,483.781,36.518,485.805,37.051C487.83,37.584,489.854,38.839,491.878,38.494C493.902,38.149,495.926,36.204,497.95,36.486C499.974,36.769,501.999,39.278,504.023,42.573C506.047,45.867,508.071,49.945,510.095,49.224C512.119,48.502,514.143,42.98,516.168,41.443C518.192,39.906,520.216,42.353,522.24,42.98C524.264,43.608,526.288,42.416,528.312,39.906C530.337,37.396,532.361,33.569,534.385,32.094C536.409,30.62,538.433,31.498,540.457,32.314C542.481,33.129,544.506,33.882,546.53,33.637C548.554,33.391,550.578,32.146,552.602,31.362C554.626,30.578,556.65,30.254,558.675,31.127C560.699,32,562.723,34.071,564.747,33.82C566.771,33.569,568.795,30.996,570.819,30.588C572.844,30.18,574.868,31.937,576.892,33.694C578.916,35.451,580.94,37.208,582.964,37.459C584.988,37.71,587.013,36.455,589.037,35.2" stroke="#7A1F18" stroke-width="2"/></g></g><path class="foreground" aria-hidden="true" d="" display="none"/></g></g><g class="mark-group role-legend" role="graphics-symbol" aria-roledescription="legend" aria-label="Symbol legend titled 'Width' for fill color and stroke color with 5 values: 256, 512, 1024, 2048, 4096"><g transform="translate(536,283)"><path class="background" aria-hidden="true" d="M0,0h46v99h-46Z" pointer-events="none"/><g><g class="mark-group role-legend-entry"><g transform="translate(0,21)"><path class="background" aria-hidden="true" d="M0,0h0v0h0Z" pointer-events="none"/><g><g class="mark-group role-scope" role="graphics-object" aria-roledescription="group mark container"><g transform="translate(0,0)"><path class="background" aria-hidden="true" d="M0,0h46v14h-46Z" pointer-events="none" opacity="1"/><g><g class="mark-symbol role-legend-symbol" pointer-events="none"><path transform="translate(7,7)" d="M3.536,0A3.536,3.536,0,1,1,-3.536,0A3.536,3.536,0,1,1,3.536,0" fill="#FF5F33" stroke="#FF5F33" stroke-width="1.5" opacity="1"/></g><g class="mark-text role-legend-label" pointer-events="none"><text text-anchor="start" transform="translate(18,11)" font-family="Times New Roman" font-size="14px" fill="#000" opacity="1">256</text></g></g><path class="foreground" aria-hidden="true" d="" pointer-events="none" display="none"/></g><g transform="translate(0,16)"><path class="background" aria-hidden="true" d="M0,0h46v14h-46Z" pointer-events="none" opacity="1"/><g><g class="mark-symbol role-legend-symbol" pointer-events="none"><path transform="translate(7,7)" d="M3.536,0A3.536,3.536,0,1,1,-3.536,0A3.536,3.536,0,1,1,3.536,0" fill="#FF4B33" stroke="#FF4B33" stroke-width="1.5" opacity="1"/></g><g class="mark-text role-legend-label" pointer-events="none"><text text-anchor="start" transform="translate(18,11)" font-family="Times New Roman" font-size="14px" fill="#000" opacity="1">512</text></g></g><path class="foreground" aria-hidden="true" d="" pointer-events="none" display="none"/></g><g transform="translate(0,32)"><path class="background" aria-hidden="true" d="M0,0h46v14h-46Z" pointer-events="none" opacity="1"/><g><g class="mark-symbol role-legend-symbol" pointer-events="none"><path transform="translate(7,7)" d="M3.536,0A3.536,3.536,0,1,1,-3.536,0A3.536,3.536,0,1,1,3.536,0" fill="#E0392D" stroke="#E0392D" stroke-width="1.5" opacity="1"/></g><g class="mark-text role-legend-label" pointer-events="none"><text text-anchor="start" transform="translate(18,11)" font-family="Times New Roman" font-size="14px" fill="#000" opacity="1">1024</text></g></g><path class="foreground" aria-hidden="true" d="" pointer-events="none" display="none"/></g><g transform="translate(0,48)"><path class="background" aria-hidden="true" d="M0,0h46v14h-46Z" pointer-events="none" opacity="1"/><g><g class="mark-symbol role-legend-symbol" pointer-events="none"><path transform="translate(7,7)" d="M3.536,0A3.536,3.536,0,1,1,-3.536,0A3.536,3.536,0,1,1,3.536,0" fill="#B22B24" stroke="#B22B24" stroke-width="1.5" opacity="1"/></g><g class="mark-text role-legend-label" pointer-events="none"><text text-anchor="start" transform="translate(18,11)" font-family="Times New Roman" font-size="14px" fill="#000" opacity="1">2048</text></g></g><path class="foreground" aria-hidden="true" d="" pointer-events="none" display="none"/></g><g transform="translate(0,64)"><path class="background" aria-hidden="true" d="M0,0h46v14h-46Z" pointer-events="none" opacity="1"/><g><g class="mark-symbol role-legend-symbol" pointer-events="none"><path transform="translate(7,7)" d="M3.536,0A3.536,3.536,0,1,1,-3.536,0A3.536,3.536,0,1,1,3.536,0" fill="#7A1F18" stroke="#7A1F18" stroke-width="1.5" opacity="1"/></g><g class="mark-text role-legend-label" pointer-events="none"><text text-anchor="start" transform="translate(18,11)" font-family="Times New Roman" font-size="14px" fill="#000" opacity="1">4096</text></g></g><path class="foreground" aria-hidden="true" d="" pointer-events="none" display="none"/></g></g></g><path class="foreground" aria-hidden="true" d="" pointer-events="none" display="none"/></g></g><g class="mark-text role-legend-title" pointer-events="none"><text text-anchor="start" transform="translate(0,13)" font-family="Times New Roman" font-size="16px" font-weight="bold" fill="#000" opacity="1">Width</text></g></g><path class="foreground" aria-hidden="true" d="" pointer-events="none" display="none"/></g></g></g><path class="foreground" aria-hidden="true" d="" display="none"/></g></g></g><defs><clipPath id="clip1"><rect x="0" y="0" width="600" height="400"/></clipPath><clipPath id="clip2"><rect x="0" y="0" width="600" height="400"/></clipPath><clipPath id="clip3"><rect x="0" y="0" width="600" height="400"/></clipPath><clipPath id="clip4"><rect x="0" y="0" width="600" height="400"/></clipPath><clipPath id="clip5"><rect x="0" y="0" width="600" height="400"/></clipPath><clipPath id="clip6"><rect x="0" y="0" width="600" height="400"/></clipPath><clipPath id="clip7"><rect x="0" y="0" width="600" height="400"/></clipPath><clipPath id="clip8"><rect x="0" y="0" width="600" height="400"/></clipPath><clipPath id="clip9"><rect x="0" y="0" width="600" height="400"/></clipPath><clipPath id="clip10"><rect x="0" y="0" width="600" height="400"/></clipPath></defs></svg>