<svg xmlns="http://www.w3.org/2000/svg" xmlns:xlink="http://www.w3.org/1999/xlink" version="1.1" class="marks" width="719" height="458" viewBox="0 0 719 458"><rect width="719" height="458" fill="white"/><g fill="none" stroke-miterlimit="10" transform="translate(50,12)"><g class="mark-group role-frame root" role="graphics-object" aria-roledescription="group mark container"><g transform="translate(0,0)"><path class="background" aria-hidden="true" d="M0.5,0.5h600v400h-600Z" stroke="#ddd"/><g><g class="mark-group role-axis" aria-hidden="true"><g transform="translate(0.5,400.5)"><path class="background" aria-hidden="true" d="M0,0h0v0h0Z" pointer-events="none"/><g><g class="mark-rule role-axis-grid" pointer-events="none"><line transform="translate(0,-400)" x2="0" y2="400" stroke="#ddd" stroke-width="1" opacity="1"/><line transform="translate(30,-400)" x2="0" y2="400" stroke="#ddd" stroke-width="1" opacity="1"/><line transform="translate(60,-400)" x2="0" y2="400" stroke="#ddd" stroke-width="1" opacity="1"/><line transform="translate(90,-400)" x2="0" y2="400" stroke="#ddd" stroke-width="1" opacity="1"/><line transform="translate(120,-400)" x2="0" y2="400" stroke="#ddd" stroke-width="1" opacity="1"/><line transform="translate(150,-400)" x2="0" y2="400" stroke="#ddd" stroke-width="1" opacity="1"/><line transform="translate(180,-400)" x2="0" y2="400" stroke="#ddd" stroke-width="1" opacity="1"/><line transform="translate(210,-400)" x2="0" y2="400" stroke="#ddd" stroke-width="1" opacity="1"/><line transform="translate(240,-400)" x2="0" y2="400" stroke="#ddd" stroke-width="1" opacity="1"/><line transform="translate(270,-400)" x2="0" y2="400" stroke="#ddd" stroke-width="1" opacity="1"/><line transform="translate(300,-400)" x2="0" y2="400" stroke="#ddd" stroke-width="1" opacity="1"/><line transform="translate(330,-400)" x2="0" y2="400" stroke="#ddd" stroke-width="1" opacity="1"/><line transform="translate(360,-400)" x2="0" y2="400" stroke="#ddd" stroke-width="1" opacity="1"/><line transform="translate(390,-400)" x2="0" y2="400" stroke="#ddd" stroke-width="1" opacity="1"/><line transform="translate(420,-400)" x2="0" y2="400" stroke="#ddd" stroke-width="1" opacity="1"/><line transform="translate(450,-400)" x2="0" y2="400" stroke="#ddd" stroke-width="1" opacity="1"/><line transform="translate(480,-400)" x2="0" y2="400" stroke="#ddd" stroke-width="1" opacity="1"/><line transform="translate(510,-400)" x2="0" y2="400" stroke="#ddd" stroke-width="1" opacity="1"/><line transform="translate(540,-400)" x2="0" y2="400" stroke="#ddd" stroke-width="1" opacity="1"/><line transform="translate(570,-400)" x2="0" y2="400" stroke="#ddd" stroke-width="1" opacity="1"/><line transform="translate(600,-400)" x2="0" y2="400" stroke="#ddd" stroke-width="1" opacity="1"/></g></g><path class="foreground" aria-hidden="true" d="" pointer-events="none" display="none"/></g></g><g class="mark-group role-axis" aria-hidden="true"><g transform="translate(0.5,0.5)"><path class="background" aria-hidden="true" d="M0,0h0v0h0Z" pointer-events="none"/><g><g class="mark-rule role-axis-grid" pointer-events="none"><line transform="translate(0,400)" x2="600" y2="0" stroke="#ddd" stroke-width="1" opacity="1"/><line transform="translate(0,356)" x2="600" y2="0" stroke="#ddd" stroke-width="1" opacity="1"/><line transform="translate(0,311)" x2="600" y2="0" stroke="#ddd" stroke-width="1" opacity="1"/><line transform="translate(0,267)" x2="600" y2="0" stroke="#ddd" stroke-width="1" opacity="1"/><line transform="translate(0,222)" x2="600" y2="0" stroke="#ddd" stroke-width="1" opacity="1"/><line transform="translate(0,178)" x2="600" y2="0" stroke="#ddd" stroke-width="1" opacity="1"/><line transform="translate(0,133)" x2="600" y2="0" stroke="#ddd" stroke-width="1" opacity="1"/><line transform="translate(0,89)" x2="600" y2="0" stroke="#ddd" stroke-width="1" opacity="1"/><line transform="translate(0,44)" x2="600" y2="0" stroke="#ddd" stroke-width="1" opacity="1"/><line transform="translate(0,0)" x2="600" y2="0" stroke="#ddd" stroke-width="1" opacity="1"/></g></g><path class="foreground" aria-hidden="true" d="" pointer-events="none" display="none"/></g></g><g class="mark-group role-axis" role="graphics-symbol" aria-roledescription="axis" aria-label="X-axis titled 'Timestep' for a linear scale with values from 0M to 20M"><g transform="translate(0.5,400.5)"><path class="background" aria-hidden="true" d="M0,0h0v0h0Z" pointer-events="none"/><g><g class="mark-rule role-axis-tick" pointer-events="none"><line transform="translate(0,0)" x2="0" y2="5" stroke="#888" stroke-width="1" opacity="1"/><line transform="translate(30,0)" x2="0" y2="5" stroke="#888" stroke-width="1" opacity="1"/><line transform="translate(60,0)" x2="0" y2="5" stroke="#888" stroke-width="1" opacity="1"/><line transform="translate(90,0)" x2="0" y2="5" stroke="#888" stroke-width="1" opacity="1"/><line transform="translate(120,0)" x2="0" y2="5" stroke="#888" stroke-width="1" opacity="1"/><line transform="translate(150,0)" x2="0" y2="5" stroke="#888" stroke-width="1" opacity="1"/><line transform="translate(180,0)" x2="0" y2="5" stroke="#888" stroke-width="1" opacity="1"/><line transform="translate(210,0)" x2="0" y2="5" stroke="#888" stroke-width="1" opacity="1"/><line transform="translate(240,0)" x2="0" y2="5" stroke="#888" stroke-width="1" opacity="1"/><line transform="translate(270,0)" x2="0" y2="5" stroke="#888" stroke-width="1" opacity="1"/><line transform="translate(300,0)" x2="0" y2="5" stroke="#888" stroke-width="1" opacity="1"/><line transform="translate(330,0)" x2="0" y2="5" stroke="#888" stroke-width="1" opacity="1"/><line transform="translate(360,0)" x2="0" y2="5" stroke="#888" stroke-width="1" opacity="1"/><line transform="translate(390,0)" x2="0" y2="5" stroke="#888" stroke-width="1" opacity="1"/><line transform="translate(420,0)" x2="0" y2="5" stroke="#888" stroke-width="1" opacity="1"/><line transform="translate(450,0)" x2="0" y2="5" stroke="#888" stroke-width="1" opacity="1"/><line transform="translate(480,0)" x2="0" y2="5" stroke="#888" stroke-width="1" opacity="1"/><line transform="translate(510,0)" x2="0" y2="5" stroke="#888" stroke-width="1" opacity="1"/><line transform="translate(540,0)" x2="0" y2="5" stroke="#888" stroke-width="1" opacity="1"/><line transform="translate(570,0)" x2="0" y2="5" stroke="#888" stroke-width="1" opacity="1"/><line transform="translate(600,0)" x2="0" y2="5" stroke="#888" stroke-width="1" opacity="1"/></g><g class="mark-text role-axis-label" pointer-events="none"><text text-anchor="start" transform="translate(0,18)" font-family="Times New Roman" font-size="14px" fill="#000" opacity="1">0</text><text text-anchor="middle" transform="translate(30,18)" font-family="Times New Roman" font-size="14px" fill="#000" opacity="0">1M</text><text text-anchor="middle" transform="translate(60,18)" font-family="Times New Roman" font-size="14px" fill="#000" opacity="1">2M</text><text text-anchor="middle" transform="translate(90,18)" font-family="Times New Roman" font-size="14px" fill="#000" opacity="0">3M</text><text text-anchor="middle" transform="translate(120,18)" font-family="Times New Roman" font-size="14px" fill="#000" opacity="1">4M</text><text text-anchor="middle" transform="translate(150,18)" font-family="Times New Roman" font-size="14px" fill="#000" opacity="0">5M</text><text text-anchor="middle" transform="translate(180,18)" font-family="Times New Roman" font-size="14px" fill="#000" opacity="1">6M</text><text text-anchor="middle" transform="translate(210,18)" font-family="Times New Roman" font-size="14px" fill="#000" opacity="0">7M</text><text text-anchor="middle" transform="translate(240,18)" font-family="Times New Roman" font-size="14px" fill="#000" opacity="1">8M</text><text text-anchor="middle" transform="translate(270,18)" font-family="Times New Roman" font-size="14px" fill="#000" opacity="0">9M</text><text text-anchor="middle" transform="translate(300,18)" font-family="Times New Roman" font-size="14px" fill="#000" opacity="1">10M</text><text text-anchor="middle" transform="translate(330,18)" font-family="Times New Roman" font-size="14px" fill="#000" opacity="0">11M</text><text text-anchor="middle" transform="translate(360,18)" font-family="Times New Roman" font-size="14px" fill="#000" opacity="1">12M</text><text text-anchor="middle" transform="translate(390,18)" font-family="Times New Roman" font-size="14px" fill="#000" opacity="0">13M</text><text text-anchor="middle" transform="translate(420,18)" font-family="Times New Roman" font-size="14px" fill="#000" opacity="1">14M</text><text text-anchor="middle" transform="translate(450,18)" font-family="Times New Roman" font-size="14px" fill="#000" opacity="0">15M</text><text text-anchor="middle" transform="translate(480,18)" font-family="Times New Roman" font-size="14px" fill="#000" opacity="1">16M</text><text text-anchor="middle" transform="translate(510,18)" font-family="Times New Roman" font-size="14px" fill="#000" opacity="0">17M</text><text text-anchor="middle" transform="translate(540,18)" font-family="Times New Roman" font-size="14px" fill="#000" opacity="1">18M</text><text text-anchor="middle" transform="translate(570,18)" font-family="Times New Roman" font-size="14px" fill="#000" opacity="0">19M</text><text text-anchor="end" transform="translate(600,18)" font-family="Times New Roman" font-size="14px" fill="#000" opacity="1">20M</text></g><g class="mark-rule role-axis-domain" pointer-events="none"><line transform="translate(0,0)" x2="600" y2="0" stroke="#888" stroke-width="1" opacity="1"/></g><g class="mark-text role-axis-title" pointer-events="none"><text text-anchor="middle" transform="translate(300,38)" font-family="Times New Roman" font-size="16px" font-weight="bold" fill="#000" opacity="1">Timestep</text></g></g><path class="foreground" aria-hidden="true" d="" pointer-events="none" display="none"/></g></g><g class="mark-group role-axis" role="graphics-symbol" aria-roledescription="axis" aria-label="Y-axis titled 'Success rate' for a linear scale with values from 0.1 to 1.0"><g transform="translate(0.5,0.5)"><path class="background" aria-hidden="true" d="M0,0h0v0h0Z" pointer-events="none"/><g><g class="mark-rule role-axis-tick" pointer-events="none"><line transform="translate(0,400)" x2="-5" y2="0" stroke="#888" stroke-width="1" opacity="1"/><line transform="translate(0,356)" x2="-5" y2="0" stroke="#888" stroke-width="1" opacity="1"/><line transform="translate(0,311)" x2="-5" y2="0" stroke="#888" stroke-width="1" opacity="1"/><line transform="translate(0,267)" x2="-5" y2="0" stroke="#888" stroke-width="1" opacity="1"/><line transform="translate(0,222)" x2="-5" y2="0" stroke="#888" stroke-width="1" opacity="1"/><line transform="translate(0,178)" x2="-5" y2="0" stroke="#888" stroke-width="1" opacity="1"/><line transform="translate(0,133)" x2="-5" y2="0" stroke="#888" stroke-width="1" opacity="1"/><line transform="translate(0,89)" x2="-5" y2="0" stroke="#888" stroke-width="1" opacity="1"/><line transform="translate(0,44)" x2="-5" y2="0" stroke="#888" stroke-width="1" opacity="1"/><line transform="translate(0,0)" x2="-5" y2="0" stroke="#888" stroke-width="1" opacity="1"/></g><g class="mark-text role-axis-label" pointer-events="none"><text text-anchor="end" transform="translate(-7,404)" font-family="Times New Roman" font-size="14px" fill="#000" opacity="1">0.1</text><text text-anchor="end" transform="translate(-7,359.55555555555554)" font-family="Times New Roman" font-size="14px" fill="#000" opacity="1">0.2</text><text text-anchor="end" transform="translate(-7,315.11111111111114)" font-family="Times New Roman" font-size="14px" fill="#000" opacity="1">0.3</text><text text-anchor="end" transform="translate(-7,270.66666666666663)" font-family="Times New Roman" font-size="14px" fill="#000" opacity="1">0.4</text><text text-anchor="end" transform="translate(-7,226.22222222222223)" font-family="Times New Roman" font-size="14px" fill="#000" opacity="1">0.5</text><text text-anchor="end" transform="translate(-7,181.77777777777777)" font-family="Times New Roman" font-size="14px" fill="#000" opacity="1">0.6</text><text text-anchor="end" transform="translate(-7,137.33333333333334)" font-family="Times New Roman" font-size="14px" fill="#000" opacity="1">0.7</text><text text-anchor="end" transform="translate(-7,92.88888888888889)" font-family="Times New Roman" font-size="14px" fill="#000" opacity="1">0.8</text><text text-anchor="end" transform="translate(-7,48.44444444444442)" font-family="Times New Roman" font-size="14px" fill="#000" opacity="1">0.9</text><text text-anchor="end" transform="translate(-7,4)" font-family="Times New Roman" font-size="14px" fill="#000" opacity="1">1.0</text></g><g class="mark-rule role-axis-domain" pointer-events="none"><line transform="translate(0,400)" x2="0" y2="-400" stroke="#888" stroke-width="1" opacity="1"/></g><g class="mark-text role-axis-title" pointer-events="none"><text text-anchor="middle" transform="translate(-28.5,200) rotate(-90) translate(0,-3)" font-family="Times New Roman" font-size="16px" font-weight="bold" fill="#000" opacity="1">Success rate</text></g></g><path class="foreground" aria-hidden="true" d="" pointer-events="none" display="none"/></g></g><g class="mark-group role-scope layer_0_layer_0_pathgroup" role="graphics-object" aria-roledescription="group mark container"><g transform="translate(0,0)"><path class="background" aria-hidden="true" d="M0,0h600v400h-600Z"/><g><g class="mark-area role-mark layer_0_layer_0_marks" clip-path="url(#clip1)" role="graphics-object" aria-roledescription="area mark container"><path aria-label="Timestep: 200.38k; Success rate: 0.026395; upper_Success rate: 0.089005; Width: 256; Ci1 of Success rate: 0.089005; Ci0 of Success rate: 0.026395; Mean of Success rate: 0.0554" role="graphics-symbol" aria-roledescription="errorband" d="M12.023,392.047C14.027,380.004,16.031,370.227,18.035,364.005C20.039,357.783,22.043,355.115,24.047,349.81C26.05,344.506,28.054,336.565,30.058,328.15C32.062,319.736,34.066,310.847,36.07,301.943C38.074,293.039,40.078,284.119,42.082,278.046C44.086,271.973,46.089,268.747,48.093,265.621C50.097,262.496,52.101,259.471,54.105,254.388C56.109,249.305,58.113,242.164,60.117,237.32C62.121,232.476,64.125,229.929,66.128,227.115C68.132,224.301,70.136,221.219,72.14,219.619C74.144,218.018,76.148,217.898,78.152,215.868C80.156,213.838,82.16,209.898,84.164,207.41C86.167,204.922,88.171,203.887,90.175,202.45C92.179,201.013,94.183,199.176,96.187,196.271C98.191,193.366,100.195,189.394,102.199,186.475C104.203,183.556,106.206,181.69,108.21,181.513C110.214,181.336,112.218,182.847,114.222,182.965C116.226,183.084,118.23,181.81,120.234,180.521C122.238,179.232,124.242,177.928,126.245,176.343C128.249,174.758,130.253,172.891,132.257,171.617C134.261,170.343,136.265,169.661,138.269,168.269C140.273,166.877,142.277,164.774,144.281,164.537C146.284,164.299,148.288,165.927,150.292,166.09C152.296,166.253,154.3,164.95,156.304,164.52C158.308,164.09,160.312,164.534,162.316,164.178C164.319,163.822,166.323,162.667,168.327,161.985C170.331,161.304,172.335,161.096,174.339,161.081C176.343,161.067,178.347,161.244,180.351,160.519C182.355,159.793,184.359,158.163,186.362,156.771C188.366,155.379,190.37,154.224,192.374,153.099C194.378,151.975,196.382,150.881,198.386,150.569C200.39,150.258,202.394,150.729,204.398,150.994C206.401,151.259,208.405,151.319,210.409,152C212.413,152.682,214.417,153.987,216.421,153.409C218.425,152.832,220.429,150.373,222.433,149.839C224.437,149.305,226.44,150.697,228.444,151.512C230.448,152.327,232.452,152.566,234.456,151.307C236.46,150.048,238.464,147.292,240.468,146.417C242.472,145.543,244.476,146.55,246.479,146.698C248.483,146.846,250.487,146.134,252.491,146.417C254.495,146.699,256.499,147.976,258.503,148.243C260.507,148.51,262.511,147.766,264.515,146.476C266.518,145.187,268.522,143.351,270.526,143.264C272.53,143.176,274.534,144.837,276.538,144.955C278.542,145.073,280.546,143.649,282.55,142.181C284.554,140.713,286.557,139.202,288.561,138.209C290.565,137.216,292.569,136.741,294.573,136.297C296.577,135.852,298.581,135.437,300.585,135.245C302.589,135.053,304.593,135.083,306.596,135.424C308.6,135.764,310.604,136.416,312.608,136.46C314.612,136.504,316.616,135.941,318.62,135.852C320.624,135.763,322.628,136.148,324.632,135.956C326.635,135.763,328.639,134.993,330.643,134.83C332.647,134.667,334.651,135.111,336.655,135.2C338.659,135.289,340.663,135.022,342.667,134.607C344.671,134.193,346.674,133.63,348.678,133.526C350.682,133.422,352.686,133.778,354.69,135.6C356.694,137.422,358.698,140.711,360.702,140.963C362.706,141.215,364.71,138.43,366.713,136.637C368.717,134.844,370.721,134.044,372.725,133.512C374.729,132.979,376.733,132.714,378.737,133.263C380.741,133.811,382.745,135.173,384.749,134.891C386.752,134.61,388.756,132.684,390.76,131.38C392.764,130.076,394.768,129.395,396.772,128.935C398.776,128.476,400.78,128.238,402.784,127.23C404.787,126.222,406.791,124.444,407.793,123.984C408.795,123.523,408.795,124.38,409.797,123.195C410.799,122.01,412.803,118.783,413.805,120.683C414.807,122.583,414.807,129.611,415.809,134.203C416.811,138.796,418.815,140.953,419.817,140.53C420.819,140.106,420.819,137.101,421.821,135.175C422.823,133.249,424.826,132.402,425.828,132.804C426.83,133.206,426.83,134.857,427.832,132.339C428.834,129.82,430.838,123.132,431.84,122.942C432.842,122.751,432.842,129.058,433.844,128.614C434.846,128.169,436.85,120.974,437.852,120.974C438.854,120.975,438.854,128.171,439.856,128.468C440.858,128.764,442.861,122.16,443.863,122.159C444.865,122.159,444.865,128.762,445.867,130.392C446.869,132.021,448.873,128.677,449.875,129.249C450.877,129.82,450.877,134.307,451.879,134.307C452.881,134.307,454.885,129.82,455.887,128.636C456.889,127.452,456.889,129.57,457.891,131.496C458.893,133.422,460.897,135.156,461.898,135.578C462.9,136,462.901,135.111,463.902,132.593C464.904,130.074,466.908,125.926,467.91,125.376C468.912,124.825,468.912,127.873,469.914,127.132C470.916,126.392,472.92,121.862,473.922,122.498C474.924,123.133,474.924,128.933,475.926,129.97C476.928,131.007,478.932,127.281,479.934,126.879C480.936,126.476,480.936,129.397,481.938,130.138C482.939,130.878,484.943,129.439,485.945,129.376C486.947,129.312,486.947,130.624,487.949,131.217C488.951,131.81,490.955,131.683,491.957,132.404C492.959,133.125,492.959,134.694,493.961,132.028C494.963,129.361,496.967,122.458,497.969,121.716C498.971,120.974,498.971,126.392,499.973,127.873C500.975,129.354,502.978,126.899,503.98,126.54C504.982,126.18,504.982,127.915,505.984,127.026C506.986,126.138,508.99,122.624,509.992,122.752C510.994,122.879,510.994,126.648,511.996,126.796C512.998,126.944,515.002,123.472,516.004,123.45C517.006,123.429,517.006,126.857,518.008,129.524C519.01,132.19,521.014,134.095,522.015,134.371C523.017,134.648,523.018,133.295,524.019,132.629C525.021,131.962,527.025,131.981,528.027,132.361C529.029,132.741,529.029,133.481,530.031,133.881C531.033,134.281,533.037,134.341,534.039,133.873C535.041,133.404,535.041,132.409,536.043,132.024C537.045,131.639,539.049,131.864,540.051,131.887C541.052,131.911,541.053,131.733,542.055,131.081C543.057,130.43,545.06,129.304,546.062,128.683C547.064,128.062,547.064,127.947,548.066,129.606C549.068,131.265,551.072,134.699,552.074,134.609C553.076,134.519,553.076,130.904,554.078,128.711C555.08,126.519,557.084,125.748,558.086,126.55C559.088,127.351,559.088,129.724,560.09,129.813C561.092,129.902,563.095,127.707,564.097,127.944C565.099,128.181,565.099,130.85,566.101,132.57C567.103,134.289,569.107,135.058,570.109,134.345C571.111,133.633,571.111,131.439,572.113,129.156C573.115,126.874,575.119,124.504,576.121,126.667C577.123,128.83,577.123,135.526,578.125,135.812C579.127,136.099,581.13,129.975,582.132,128.457C583.134,126.938,583.135,130.025,584.136,130.025C585.138,130.025,587.142,126.938,588.144,127.198C589.146,127.457,589.146,131.062,590.148,130.938C591.15,130.815,593.154,126.963,594.156,126.519L594.156,89.247C593.154,89.654,591.15,94.272,590.148,93.827C589.146,93.381,589.146,87.874,588.144,90.578C587.142,93.281,585.138,104.196,584.136,104.567C583.135,104.938,583.134,94.765,582.132,89.24C581.13,83.714,579.127,82.835,578.125,85.002C577.123,87.17,577.123,92.385,576.121,93.719C575.119,95.052,573.115,92.504,572.113,94.489C571.111,96.474,571.111,102.993,570.109,102.75C569.107,102.508,567.103,95.505,566.101,94.646C565.099,93.787,565.099,99.071,564.097,98.484C563.095,97.896,561.092,91.437,560.09,91.644C559.088,91.852,559.088,98.726,558.086,99.111C557.084,99.496,555.08,93.393,554.078,93.185C553.076,92.978,553.076,98.667,552.074,98.726C551.072,98.785,549.068,93.215,548.066,93.452C547.064,93.689,547.064,99.733,546.062,101.244C545.06,102.756,543.057,99.733,542.055,99.704C541.053,99.674,541.052,102.637,540.051,101.719C539.049,100.8,537.045,96,536.043,95.556C535.041,95.111,535.041,99.022,534.039,100.34C533.037,101.658,531.033,100.383,530.031,99.931C529.029,99.479,529.029,99.851,528.027,100.92C527.025,101.989,525.021,103.757,524.019,102.164C523.018,100.571,523.017,95.619,522.015,95.554C521.014,95.49,519.01,100.313,518.008,101.943C517.006,103.572,517.006,102.008,516.004,101.988C515.002,101.968,512.998,103.492,511.996,101.566C510.994,99.64,510.994,94.265,509.992,94.519C508.99,94.772,506.986,100.656,505.984,100.804C504.982,100.952,504.982,95.365,503.98,95.005C502.978,94.644,500.975,99.511,499.973,100.104C498.971,100.696,498.971,97.015,497.969,97.375C496.967,97.734,494.963,102.135,493.961,101.691C492.959,101.247,492.959,95.957,491.957,96.295C490.955,96.634,488.951,102.601,487.949,102.453C486.947,102.305,486.947,96.041,485.945,95.766C484.943,95.491,482.939,101.204,481.938,101.056C480.936,100.908,480.936,94.898,479.934,95.513C478.932,96.127,476.928,103.365,475.926,103.513C474.924,103.661,474.924,96.72,473.922,95.66C472.92,94.601,470.916,99.424,469.914,101.498C468.912,103.572,468.912,102.897,467.91,104.252C466.908,105.607,464.904,108.993,463.902,108.548C462.901,108.104,462.9,103.83,461.898,103.005C460.897,102.18,458.893,104.804,457.891,103.619C456.889,102.434,456.889,97.439,455.887,98.307C454.885,99.175,452.881,105.905,451.879,105.905C450.877,105.905,450.877,99.175,449.875,99.048C448.873,98.921,446.869,105.397,445.867,105.101C444.865,104.804,444.865,97.735,443.863,97.396C442.861,97.056,440.858,103.446,439.856,103.297C438.854,103.149,438.854,96.463,437.852,96.782C436.85,97.101,434.846,104.423,433.844,104.275C432.842,104.127,432.842,96.508,431.84,96.254C430.838,96,428.834,103.111,427.832,103.852C426.83,104.593,426.83,98.963,425.828,99.958C424.826,100.952,422.823,108.571,421.821,107.831C420.819,107.09,420.819,97.989,419.817,97.651C418.815,97.312,416.811,105.735,415.809,106.772C414.807,107.81,414.807,101.46,413.805,99.849C412.803,98.238,410.799,101.365,409.797,105.957C408.795,110.55,408.795,116.608,407.793,117.519C406.791,118.429,404.787,114.191,402.784,112.383C400.78,110.576,398.776,111.198,396.772,111.806C394.768,112.413,392.764,113.007,390.76,113.644C388.756,114.281,386.752,114.961,384.749,115.391C382.745,115.821,380.741,115.999,378.737,116.962C376.733,117.925,374.729,119.673,372.725,119.924C370.721,120.176,368.717,118.931,366.713,118.754C364.71,118.576,362.706,119.466,360.702,119.865C358.698,120.264,356.694,120.172,354.69,119.594C352.686,119.016,350.682,117.953,348.678,118.072C346.674,118.191,344.671,119.493,342.667,120.13C340.663,120.767,338.659,120.738,336.655,120.65C334.651,120.561,332.647,120.414,330.643,121.126C328.639,121.837,326.635,123.407,324.632,124.133C322.628,124.859,320.624,124.739,318.62,124.368C316.616,123.997,314.612,123.374,312.608,122.781C310.604,122.189,308.6,121.627,306.596,122.042C304.593,122.458,302.589,123.851,300.585,124.177C298.581,124.504,296.577,123.763,294.573,123.763C292.569,123.762,290.565,124.502,288.561,124.323C286.557,124.144,284.554,123.047,282.55,123.506C280.546,123.965,278.542,125.981,276.538,126.264C274.534,126.547,272.53,125.096,270.526,124.962C268.522,124.829,266.518,126.013,264.515,126.501C262.511,126.99,260.507,126.781,258.503,126.189C256.499,125.597,254.495,124.621,252.491,125.096C250.487,125.57,248.483,127.496,246.479,128.696C244.476,129.896,242.472,130.37,240.468,130.444C238.464,130.519,236.46,130.193,234.456,130.266C232.452,130.34,230.448,130.813,228.444,130.798C226.44,130.783,224.437,130.279,222.433,130.042C220.429,129.805,218.425,129.835,216.421,129.82C214.417,129.805,212.413,129.746,210.409,129.923C208.405,130.101,206.401,130.515,204.398,130.974C202.394,131.434,200.39,131.939,198.386,132.176C196.382,132.413,194.378,132.381,192.374,132.558C190.37,132.736,188.366,133.122,186.362,134.19C184.359,135.258,182.355,137.007,180.351,137.392C178.347,137.778,176.343,136.8,174.339,136.903C172.335,137.007,170.331,138.191,168.327,139.065C166.323,139.939,164.319,140.501,162.316,140.65C160.312,140.799,158.308,140.533,156.304,140.74C154.3,140.948,152.296,141.63,150.292,141.555C148.288,141.48,146.284,140.649,144.281,140.886C142.277,141.122,140.273,142.427,138.269,143.686C136.265,144.945,134.261,146.159,132.257,146.618C130.253,147.076,128.249,146.779,126.245,147.491C124.242,148.202,122.238,149.922,120.234,150.723C118.23,151.523,116.226,151.404,114.222,152.086C112.218,152.767,110.214,154.25,108.21,155.836C106.206,157.422,104.203,159.111,102.199,160.754C100.195,162.398,98.191,163.996,96.187,165.417C94.183,166.839,92.179,168.085,90.175,169.967C88.171,171.85,86.167,174.368,84.164,176.99C82.16,179.612,80.156,182.337,78.152,184.307C76.148,186.277,74.144,187.492,72.14,190.633C70.136,193.774,68.132,198.841,66.128,201.939C64.125,205.036,62.121,206.162,60.117,210.014C58.113,213.866,56.109,220.443,54.105,224.873C52.101,229.302,50.097,231.584,48.093,235.747C46.089,239.91,44.086,245.954,42.082,252.264C40.078,258.575,38.074,265.152,36.07,273.063C34.066,280.973,32.062,290.218,30.058,298.752C28.054,307.286,26.05,315.11,24.047,322.681C22.043,330.252,20.039,337.57,18.035,343.956C16.031,350.341,14.027,355.793,12.023,365.792Z" fill="#FF5F33" opacity="0.3"/></g></g><path class="foreground" aria-hidden="true" d="" display="none"/></g><g transform="translate(0,0)"><path class="background" aria-hidden="true" d="M0,0h600v400h-600Z"/><g><g class="mark-area role-mark layer_0_layer_0_marks" clip-path="url(#clip2)" role="graphics-object" aria-roledescription="area mark container"><path aria-label="Timestep: 200.38k; Success rate: 0.072995; upper_Success rate: 0.136625; Width: 512; Ci1 of Success rate: 0.136625; Ci0 of Success rate: 0.072995; Mean of Success rate: 0.1034" role="graphics-symbol" aria-roledescription="errorband" d="M12.023,374.596C14.027,367.055,16.031,366.905,18.035,359.809C20.039,352.712,22.043,338.668,24.047,329.306C26.05,319.944,28.054,315.263,30.058,309.885C32.062,304.507,34.066,298.431,36.07,290.801C38.074,283.17,40.078,273.985,42.082,266.281C44.086,258.578,46.089,252.356,48.093,247.334C50.097,242.312,52.101,238.49,54.105,232.076C56.109,225.661,58.113,216.654,60.117,210.062C62.121,203.47,64.125,199.294,66.128,195.887C68.132,192.48,70.136,189.842,72.14,186.241C74.144,182.641,76.148,178.077,78.152,173.04C80.156,168.002,82.16,162.491,84.164,159.47C86.167,156.448,88.171,155.916,90.175,155.546C92.179,155.176,94.183,154.967,96.187,153.662C98.191,152.357,100.195,149.956,102.199,148.963C104.203,147.97,106.206,148.385,108.21,148.237C110.214,148.09,112.218,147.379,114.222,145.884C116.226,144.388,118.23,142.107,120.234,140.018C122.238,137.929,124.242,136.031,126.245,135.112C128.249,134.193,130.253,134.252,132.257,132.993C134.261,131.733,136.265,129.156,138.269,127.185C140.273,125.215,142.277,123.852,144.281,123.17C146.284,122.489,148.288,122.489,150.292,122.549C152.296,122.608,154.3,122.727,156.304,122.135C158.308,121.542,160.312,120.238,162.316,119.986C164.319,119.734,166.323,120.535,168.327,120.698C170.331,120.861,172.335,120.386,174.339,120.046C176.343,119.705,178.347,119.499,180.351,119.351C182.355,119.204,184.359,119.114,186.362,119.454C188.366,119.794,190.37,120.564,192.374,119.245C194.378,117.926,196.382,114.519,198.386,113.6C200.39,112.681,202.394,114.252,204.398,114.77C206.401,115.289,208.405,114.756,210.409,114.993C212.413,115.23,214.417,116.237,216.421,116.726C218.425,117.216,220.429,117.187,222.433,116.846C224.437,116.505,226.44,115.853,228.444,114.8C230.448,113.748,232.452,112.296,234.456,112.459C236.46,112.622,238.464,114.4,240.468,115.215C242.472,116.03,244.476,115.881,246.479,115.63C248.483,115.378,250.487,115.022,252.491,114.682C254.495,114.341,256.499,114.016,258.503,114.402C260.507,114.787,262.511,115.884,264.515,115.246C266.518,114.609,268.522,112.238,270.526,111.986C272.53,111.733,274.534,113.6,276.538,113.259C278.542,112.919,280.546,110.37,282.55,109.17C284.554,107.97,286.557,108.119,288.561,108.681C290.565,109.244,292.569,110.222,294.573,111.274C296.577,112.326,298.581,113.452,300.585,113.644C302.589,113.837,304.593,113.096,306.596,111.452C308.6,109.807,310.604,107.259,312.608,106.341C314.612,105.422,316.616,106.133,318.62,106.578C320.624,107.023,322.628,107.201,324.632,107.277C326.635,107.352,328.639,107.324,330.643,106.583C332.647,105.841,334.651,104.387,336.655,103.601C338.659,102.816,340.663,102.698,342.667,102.831C344.671,102.964,346.674,103.349,348.678,103.289C350.682,103.23,352.686,102.726,354.69,102.179C356.694,101.633,358.698,101.043,360.702,100.954C362.706,100.865,364.71,101.277,366.713,101.098C368.717,100.919,370.721,100.15,372.725,100.372C374.729,100.595,376.733,101.81,378.737,102.313C380.741,102.816,382.745,102.608,384.749,102.104C386.752,101.601,388.756,100.801,390.76,100.372C392.764,99.942,394.768,99.882,396.772,99.897C398.776,99.912,400.78,100.001,402.784,100.106C404.787,100.21,406.791,100.328,408.795,100.209C410.799,100.09,412.803,99.734,414.807,99.66C416.811,99.585,418.815,99.793,420.819,99.259C422.823,98.726,424.826,97.452,426.83,97.585C428.834,97.719,430.838,99.259,432.842,99.111C434.846,98.964,436.85,97.127,438.854,96.476C440.858,95.825,442.862,96.359,444.865,96.493C446.869,96.626,448.873,96.359,450.877,96.861C452.881,97.364,454.885,98.638,456.889,98.726C458.893,98.815,460.897,97.719,462.901,97.349C464.904,96.979,466.908,97.335,468.912,98.49C470.916,99.646,472.92,101.601,474.924,101.778C476.928,101.956,478.932,100.356,480.936,99.289C482.94,98.222,484.944,97.689,486.947,97.32C488.951,96.95,490.955,96.745,492.959,96.242C494.963,95.739,496.967,94.939,498.971,94.937C500.975,94.936,502.979,95.735,504.983,95.971C506.986,96.207,508.99,95.881,510.994,95.512C512.998,95.143,515.002,94.73,517.006,95.131C519.01,95.532,521.014,96.746,523.018,96.405C525.022,96.064,527.025,94.167,529.029,93.501C531.033,92.834,533.037,93.397,535.041,93.5C537.045,93.603,539.049,93.246,541.053,93.972C543.057,94.698,545.06,96.507,547.064,96.492C549.068,96.477,551.072,94.639,553.076,93.409C555.08,92.179,557.084,91.557,559.088,90.831C561.092,90.106,563.096,89.276,565.099,89.365C567.103,89.454,569.107,90.461,571.111,90.566C573.115,90.67,575.119,89.87,577.123,88.907C579.127,87.944,581.131,86.818,583.135,86.966C585.139,87.113,587.142,88.536,589.146,88.58L589.146,62.498C587.142,61.801,585.139,60.854,583.135,60.706C581.131,60.559,579.127,61.21,577.123,62.589C575.119,63.967,573.115,66.071,571.111,66.619C569.107,67.166,567.103,66.156,565.099,66.378C563.096,66.599,561.092,68.052,559.088,68.676C557.084,69.299,555.08,69.094,553.076,68.975C551.072,68.856,549.068,68.822,547.064,69.281C545.06,69.741,543.057,70.693,541.053,70.457C539.049,70.222,537.045,68.8,535.041,67.748C533.037,66.696,531.033,66.013,529.029,66.739C527.025,67.464,525.022,69.598,523.018,70.249C521.014,70.9,519.01,70.069,517.006,70.024C515.002,69.98,512.998,70.722,510.994,71.123C508.99,71.524,506.986,71.583,504.983,71.344C502.979,71.104,500.975,70.567,498.971,70.463C496.967,70.36,494.963,70.691,492.959,70.693C490.955,70.696,488.951,70.369,486.947,69.613C484.944,68.858,482.94,67.673,480.936,68.177C478.932,68.681,476.928,70.874,474.924,71.437C472.92,72,470.916,70.933,468.912,70.785C466.908,70.637,464.904,71.407,462.901,72.147C460.897,72.887,458.893,73.597,456.889,73.626C454.885,73.656,452.881,73.004,450.877,72.5C448.873,71.996,446.869,71.639,444.865,71.639C442.862,71.639,440.858,71.995,438.854,72.025C436.85,72.056,434.846,71.76,432.842,71.996C430.838,72.233,428.834,73.001,426.83,73.268C424.826,73.535,422.823,73.301,420.819,73.108C418.815,72.915,416.811,72.763,414.807,73.504C412.803,74.244,410.799,75.878,408.795,76.798C406.791,77.718,404.787,77.924,402.784,77.213C400.78,76.502,398.776,74.873,396.772,73.926C394.768,72.978,392.764,72.711,390.76,73.007C388.756,73.304,386.752,74.163,384.749,74.859C382.745,75.555,380.741,76.087,378.737,76.176C376.733,76.265,374.729,75.91,372.725,76.043C370.721,76.176,368.717,76.797,366.713,76.649C364.71,76.5,362.706,75.582,360.702,75.39C358.698,75.199,356.694,75.733,354.69,76.4C352.686,77.067,350.682,77.867,348.678,78.266C346.674,78.664,344.671,78.662,342.667,78.647C340.663,78.633,338.659,78.605,336.655,79.332C334.651,80.059,332.647,81.541,330.643,82.874C328.639,84.207,326.635,85.393,324.632,85.54C322.628,85.687,320.624,84.797,318.62,85.153C316.616,85.508,314.612,87.11,312.608,88.014C310.604,88.919,308.6,89.126,306.596,89.909C304.593,90.693,302.589,92.052,300.585,93.03C298.581,94.007,296.577,94.604,294.573,95.213C292.569,95.821,290.565,96.443,288.561,96.695C286.557,96.947,284.554,96.829,282.55,96.474C280.546,96.119,278.542,95.526,276.538,94.8C274.534,94.073,272.53,93.213,270.526,94.636C268.522,96.058,266.518,99.762,264.515,99.866C262.511,99.97,260.507,96.473,258.503,95.272C256.499,94.072,254.495,95.168,252.491,95.938C250.487,96.708,248.483,97.152,246.479,97.537C244.476,97.922,242.472,98.249,240.468,98.22C238.464,98.19,236.46,97.805,234.456,97.48C232.452,97.154,230.448,96.888,228.444,97.674C226.44,98.459,224.437,100.296,222.433,100.711C220.429,101.125,218.425,100.117,216.421,100.294C214.417,100.472,212.413,101.835,210.409,103.08C208.405,104.324,206.401,105.451,204.398,105.214C202.394,104.977,200.39,103.376,198.386,104.028C196.382,104.679,194.378,107.583,192.374,108.887C190.37,110.191,188.366,109.896,186.362,109.837C184.359,109.778,182.355,109.956,180.351,109.911C178.347,109.867,176.343,109.6,174.339,110.044C172.335,110.489,170.331,111.644,168.327,111.985C166.323,112.325,164.319,111.85,162.316,112.206C160.312,112.561,158.308,113.746,156.304,114.191C154.3,114.636,152.296,114.34,150.292,114.014C148.288,113.688,146.284,113.332,144.281,114.191C142.277,115.05,140.273,117.125,138.269,118.207C136.265,119.288,134.261,119.376,132.257,119.346C130.253,119.316,128.249,119.168,126.245,119.02C124.242,118.873,122.238,118.725,120.234,119.851C118.23,120.977,116.226,123.376,114.222,124.784C112.218,126.191,110.214,126.607,108.21,126.488C106.206,126.37,104.203,125.717,102.199,126.058C100.195,126.399,98.191,127.733,96.187,129.095C94.183,130.457,92.179,131.847,90.175,133.032C88.171,134.217,86.167,135.196,84.164,136.634C82.16,138.072,80.156,139.968,78.152,142.709C76.148,145.45,74.144,149.036,72.14,151.54C70.136,154.044,68.132,155.465,66.128,158.914C64.125,162.364,62.121,167.841,60.117,173.974C58.113,180.107,56.109,186.896,54.105,193.979C52.101,201.063,50.097,208.441,48.093,214.22C46.089,219.999,44.086,224.177,42.082,231.57C40.078,238.962,38.074,249.569,36.07,258.339C34.066,267.108,32.062,274.041,30.058,279.18C28.054,284.32,26.05,287.667,24.047,298.42C22.043,309.173,20.039,327.333,18.035,335.171C16.031,343.009,14.027,340.524,12.023,346.896Z" fill="#FF4B33" opacity="0.3"/></g></g><path class="foreground" aria-hidden="true" d="" display="none"/></g><g transform="translate(0,0)"><path class="background" aria-hidden="true" d="M0,0h600v400h-600Z"/><g><g class="mark-area role-mark layer_0_layer_0_marks" clip-path="url(#clip3)" role="graphics-object" aria-roledescription="area mark container"><path aria-label="Timestep: 200.38k; Success rate: 0.07619; upper_Success rate: 0.123205; Width: 1024; Ci1 of Success rate: 0.123205; Ci0 of Success rate: 0.07619; Mean of Success rate: 0.1004" role="graphics-symbol" aria-roledescription="errorband" d="M12.023,370.786C14.027,357.008,16.031,342.461,18.035,331.794C20.039,321.128,22.043,314.343,24.047,306.731C26.05,299.119,28.054,290.681,30.058,281.333C32.062,271.985,34.066,261.728,36.07,256.407C38.074,251.086,40.078,250.701,42.082,252.317C44.086,253.933,46.089,257.551,48.093,256.41C50.097,255.269,52.101,249.369,54.105,243.59C56.109,237.81,58.113,232.152,60.117,230.611C62.121,229.07,64.125,231.647,66.128,233.605C68.132,235.563,70.136,236.901,72.14,234.798C74.144,232.694,76.148,227.148,78.152,221.96C80.156,216.772,82.16,211.941,84.164,209.823C86.167,207.704,88.171,208.298,90.175,207.157C92.179,206.016,94.183,203.141,96.187,200.742C98.191,198.342,100.195,196.418,102.199,196.3C104.203,196.181,106.206,197.87,108.21,195.573C110.214,193.276,112.218,186.993,114.222,184.608C116.226,182.222,118.23,183.733,120.234,182.756C122.238,181.779,124.242,178.313,126.245,174.684C128.249,171.055,130.253,167.263,132.257,165.07C134.261,162.878,136.265,162.284,138.269,159.53C140.273,156.776,142.277,151.86,144.281,146.956C146.284,142.053,148.288,137.161,150.292,135.752C152.296,134.343,154.3,136.417,156.304,134.833C158.308,133.248,160.312,128.005,162.316,125.324C164.319,122.642,166.323,122.522,168.327,119.173C170.331,115.824,172.335,109.245,174.339,104.919C176.343,100.593,178.347,98.519,180.351,97.69C182.355,96.861,184.359,97.279,186.362,98.005C188.366,98.732,190.37,99.768,192.374,100.642C194.378,101.516,196.382,102.227,198.386,101.204C200.39,100.182,202.394,97.427,204.398,96.318C206.401,95.21,208.405,95.748,210.409,96.281C212.413,96.815,214.417,97.343,216.421,95.651C218.425,93.959,220.429,90.046,222.433,88.861C224.437,87.676,226.44,89.218,228.444,88.211C230.448,87.204,232.452,83.649,234.456,82.286C236.46,80.922,238.464,81.751,240.468,82.18C242.472,82.609,244.476,82.638,246.479,82.223C248.483,81.807,250.487,80.948,252.491,79.956C254.495,78.964,256.499,77.839,258.503,77.764C260.507,77.69,262.511,78.667,264.515,78.993C266.518,79.319,268.522,78.994,270.526,78.431C272.53,77.869,274.534,77.069,276.538,74.61C278.542,72.15,280.546,68.032,282.55,66.18C284.554,64.327,286.557,64.741,288.561,64.089C290.565,63.437,292.569,61.719,294.573,61.956C296.577,62.193,298.581,64.385,300.585,64.978C302.589,65.57,304.593,64.563,306.596,64.46C308.6,64.357,310.604,65.159,312.608,65.47C314.612,65.781,316.616,65.603,318.62,65.528C320.624,65.453,322.628,65.482,324.632,66.86C326.635,68.238,328.639,70.964,330.643,71.75C332.647,72.536,334.651,71.38,336.655,70.818C338.659,70.256,340.663,70.287,342.667,68.879C344.671,67.471,346.674,64.624,348.678,63.439C350.682,62.254,352.686,62.73,354.69,62.953C356.694,63.176,358.698,63.146,360.702,62.923C362.706,62.699,364.71,62.283,366.713,62.045C368.717,61.807,370.721,61.748,372.725,62C374.729,62.252,376.733,62.815,378.737,62.681C380.741,62.548,382.745,61.719,384.749,61.911C386.752,62.104,388.756,63.32,390.76,63.172C392.764,63.024,394.768,61.512,396.772,61.097C398.776,60.681,400.78,61.363,402.784,62.489C404.787,63.615,406.791,65.185,408.795,65.585C410.799,65.985,412.803,65.215,414.807,65.215C416.811,65.216,418.815,65.987,420.819,66.046C422.823,66.105,424.826,65.453,426.83,64.564C428.834,63.675,430.838,62.55,432.842,62.431C434.846,62.313,436.85,63.201,438.854,63.334C440.858,63.467,442.862,62.846,444.865,62.727C446.869,62.609,448.873,62.993,450.877,63.823C452.881,64.652,454.885,65.926,456.889,65.6C458.893,65.275,460.897,63.35,462.901,61.942C464.904,60.535,466.908,59.645,468.912,59.378C470.916,59.111,472.92,59.467,474.924,59.956C476.928,60.445,478.932,61.068,480.936,61.439C482.94,61.809,484.944,61.927,486.947,62.43C488.951,62.933,490.955,63.822,492.959,64.03C494.963,64.237,496.967,63.763,498.971,63.156C500.975,62.549,502.979,61.809,504.983,61.69C506.986,61.572,508.99,62.075,510.994,62.504C512.998,62.933,515.002,63.289,517.006,63.022C519.01,62.756,521.014,61.867,523.018,61.645C525.022,61.423,527.025,61.868,529.029,61.72C531.033,61.572,533.037,60.83,535.041,60.801C537.045,60.771,539.049,61.453,541.053,61.557C543.057,61.661,545.06,61.187,547.064,61.424C549.068,61.661,551.072,62.61,553.076,62.995C555.08,63.38,557.084,63.202,559.088,63.261C561.092,63.32,563.096,63.616,565.099,63.778C567.103,63.941,569.107,63.97,571.111,63.733C573.115,63.496,575.119,62.993,577.123,63.304C579.127,63.616,581.131,64.742,583.135,64.935C585.139,65.128,587.142,64.387,589.146,63.898L589.146,48.814C587.142,49.125,585.139,49.361,583.135,49.598C581.131,49.835,579.127,50.072,577.123,50.472C575.119,50.872,573.115,51.435,571.111,51.212C569.107,50.989,567.103,49.98,565.099,49.491C563.096,49.002,561.092,49.033,559.088,49.079C557.084,49.124,555.08,49.184,553.076,48.8C551.072,48.415,549.068,47.585,547.064,47.718C545.06,47.851,543.057,48.947,541.053,49.316C539.049,49.686,537.045,49.33,535.041,48.959C533.037,48.588,531.033,48.203,529.029,48.1C527.025,47.996,525.022,48.175,523.018,48.234C521.014,48.293,519.01,48.233,517.006,47.611C515.002,46.99,512.998,45.806,510.994,45.91C508.99,46.014,506.986,47.406,504.983,47.909C502.979,48.413,500.975,48.027,498.971,48.368C496.967,48.709,494.963,49.776,492.959,50.294C490.955,50.813,488.951,50.783,486.947,50.65C484.944,50.517,482.94,50.281,480.936,49.6C478.932,48.919,476.928,47.793,474.924,47.067C472.92,46.341,470.916,46.015,468.912,45.94C466.908,45.866,464.904,46.043,462.901,47.198C460.897,48.353,458.893,50.487,456.889,51.331C454.885,52.176,452.881,51.731,450.877,50.605C448.873,49.479,446.869,47.67,444.865,47.463C442.862,47.255,440.858,48.647,438.854,48.766C436.85,48.885,434.846,47.73,432.842,47.257C430.838,46.783,428.834,46.99,426.83,47.449C424.826,47.908,422.823,48.619,420.819,48.174C418.815,47.729,416.811,46.129,414.807,46.322C412.803,46.516,410.799,48.502,408.795,49.124C406.791,49.747,404.787,49.004,402.784,48.278C400.78,47.552,398.776,46.841,396.772,46.753C394.768,46.664,392.764,47.196,390.76,47.522C388.756,47.848,386.752,47.967,384.749,48.101C382.745,48.236,380.741,48.384,378.737,48.829C376.733,49.273,374.729,50.013,372.725,50.25C370.721,50.487,368.717,50.22,366.713,50.28C364.71,50.339,362.706,50.725,360.702,50.681C358.698,50.637,356.694,50.163,354.69,49.674C352.686,49.185,350.682,48.681,348.678,48.029C346.674,47.377,344.671,46.576,342.667,46.457C340.663,46.339,338.659,46.901,336.655,47.198C334.651,47.495,332.647,47.525,330.643,47.303C328.639,47.081,326.635,46.606,324.632,47.08C322.628,47.554,320.624,48.977,318.62,49.436C316.616,49.896,314.612,49.391,312.608,49.376C310.604,49.361,308.6,49.835,306.596,50.709C304.593,51.584,302.589,52.859,300.585,53.096C298.581,53.333,296.577,52.533,294.573,52.563C292.569,52.593,290.565,53.452,288.561,53.185C286.557,52.919,284.554,51.526,282.55,51.141C280.546,50.756,278.542,51.378,276.538,51.703C274.534,52.029,272.53,52.058,270.526,52.353C268.522,52.648,266.518,53.21,264.515,53.403C262.511,53.596,260.507,53.42,258.503,53.45C256.499,53.481,254.495,53.717,252.491,53.924C250.487,54.13,248.483,54.307,246.479,54.945C244.476,55.582,242.472,56.68,240.468,57.377C238.464,58.074,236.46,58.37,234.456,59.2C232.452,60.03,230.448,61.393,228.444,61.096C226.44,60.8,224.437,58.844,222.433,58.563C220.429,58.281,218.425,59.674,216.421,60.681C214.417,61.687,212.413,62.308,210.409,62.619C208.405,62.929,206.401,62.929,204.398,64.663C202.394,66.396,200.39,69.864,198.386,71.257C196.382,72.65,194.378,71.968,192.374,70.679C190.37,69.39,188.366,67.494,186.362,67.109C184.359,66.724,182.355,67.85,180.351,68.827C178.347,69.805,176.343,70.635,174.339,72.398C172.335,74.161,170.331,76.857,168.327,78.072C166.323,79.287,164.319,79.02,162.316,80.797C160.312,82.574,158.308,86.395,156.304,88.187C154.3,89.979,152.296,89.741,150.292,90.246C148.288,90.75,146.284,91.996,144.281,92.293C142.277,92.59,140.273,91.937,138.269,92.323C136.265,92.708,134.261,94.132,132.257,94.369C130.253,94.607,128.249,93.658,126.245,94.635C124.242,95.613,122.238,98.516,120.234,100.206C118.23,101.895,116.226,102.37,114.222,103.955C112.218,105.541,110.214,108.237,108.21,109.274C106.206,110.311,104.203,109.689,102.199,109.911C100.195,110.133,98.191,111.2,96.187,111.644C94.183,112.088,92.179,111.91,90.175,113.657C88.171,115.405,86.167,119.079,84.164,121.953C82.16,124.827,80.156,126.901,78.152,128.961C76.148,131.021,74.144,133.066,72.14,133.185C70.136,133.304,68.132,131.496,66.128,133.555C64.125,135.614,62.121,141.539,60.117,147.806C58.113,154.072,56.109,160.679,54.105,165.494C52.101,170.309,50.097,173.331,48.093,177.48C46.089,181.628,44.086,186.903,42.082,192.606C40.078,198.31,38.074,204.441,36.07,211.582C34.066,218.722,32.062,226.871,30.058,235.894C28.054,244.916,26.05,254.813,24.047,264.576C22.043,274.339,20.039,283.97,18.035,297.037C16.031,310.104,14.027,326.607,12.023,342.622Z" fill="#E0392D" opacity="0.3"/></g></g><path class="foreground" aria-hidden="true" d="" display="none"/></g><g transform="translate(0,0)"><path class="background" aria-hidden="true" d="M0,0h600v400h-600Z"/><g><g class="mark-area role-mark layer_0_layer_0_marks" clip-path="url(#clip4)" role="graphics-object" aria-roledescription="area mark container"><path aria-label="Timestep: 200.38k; Success rate: 0.102595; upper_Success rate: 0.179005; Width: 2048; Ci1 of Success rate: 0.179005; Ci0 of Success rate: 0.102595; Mean of Success rate: 0.1416" role="graphics-symbol" aria-roledescription="errorband" d="M12.023,352.906C14.027,340.15,16.031,331.232,18.035,318.477C20.039,305.723,22.043,289.133,24.047,274.6C26.05,260.067,28.054,247.591,30.058,238.375C32.062,229.159,34.066,223.201,36.07,218.209C38.074,213.216,40.078,209.188,42.082,202.714C44.086,196.24,46.089,187.32,48.093,182.492C50.097,177.664,52.101,176.927,54.105,172.78C56.109,168.633,58.113,161.074,60.117,156.199C62.121,151.324,64.125,149.132,66.128,145.235C68.132,141.338,70.136,135.736,72.14,133.083C74.144,130.43,76.148,130.726,78.152,130.015C80.156,129.304,82.16,127.585,84.164,125.897C86.167,124.208,88.171,122.55,90.175,122.313C92.179,122.076,94.183,123.261,96.187,123.366C98.191,123.47,100.195,122.493,102.199,122.64C104.203,122.788,106.206,124.061,108.21,122.506C110.214,120.951,112.218,116.569,114.222,115.043C116.226,113.517,118.23,114.847,120.234,113.809C122.238,112.77,124.242,109.363,126.245,107.748C128.249,106.133,130.253,106.311,132.257,105.2C134.261,104.089,136.265,101.689,138.269,100.326C140.273,98.964,142.277,98.639,144.281,97.217C146.284,95.796,148.288,93.278,150.292,90.996C152.296,88.715,154.3,86.67,156.304,84.877C158.308,83.084,160.312,81.543,162.316,79.81C164.319,78.076,166.323,76.15,168.327,73.706C170.331,71.261,172.335,68.297,174.339,67.645C176.343,66.993,178.347,68.652,180.351,68.637C182.355,68.623,184.359,66.935,186.362,65.72C188.366,64.506,190.37,63.765,192.374,63.469C194.378,63.172,196.382,63.319,198.386,62.267C200.39,61.215,202.394,58.963,204.398,59.423C206.401,59.882,208.405,63.053,210.409,63.779C212.413,64.505,214.417,62.786,216.421,61.334C218.425,59.881,220.429,58.696,222.433,58.223C224.437,57.749,226.44,57.987,228.444,58.209C230.448,58.432,232.452,58.639,234.456,58.861C236.46,59.084,238.464,59.321,240.468,59.469C242.472,59.616,244.476,59.675,246.479,58.963C248.483,58.252,250.487,56.77,252.491,56.741C254.495,56.712,256.499,58.135,258.503,58.831C260.507,59.528,262.511,59.499,264.515,58.891C266.518,58.284,268.522,57.099,270.526,55.957C272.53,54.816,274.534,53.719,276.538,53.097C278.542,52.475,280.546,52.327,282.55,52.194C284.554,52.061,286.557,51.941,288.561,52.193C290.565,52.444,292.569,53.067,294.573,54.06C296.577,55.053,298.581,56.416,300.585,56.298C302.589,56.18,304.593,54.58,306.596,54.167C308.6,53.753,310.604,54.527,312.608,54.586C314.612,54.644,316.616,53.989,318.62,53.899C320.624,53.808,322.628,54.283,324.632,54.239C326.635,54.194,328.639,53.63,330.643,54.104C332.647,54.578,334.651,56.089,336.655,56.326C338.659,56.563,340.663,55.526,342.667,55.572C344.671,55.619,346.674,56.748,348.678,58.985C350.682,61.222,352.686,64.567,354.69,64.831C356.694,65.096,358.698,62.281,360.702,59.926C362.706,57.57,364.71,55.674,366.713,54.489C368.717,53.304,370.721,52.831,372.725,53.083C374.729,53.336,376.733,54.313,378.737,55.128C380.741,55.943,382.745,56.595,384.749,58.27C386.752,59.944,388.756,62.642,390.76,62.153C392.764,61.664,394.768,57.989,396.772,56.522C398.776,55.055,400.78,55.796,402.784,54.981C404.787,54.167,406.791,51.796,408.795,51.262C410.799,50.728,412.803,52.032,414.807,52.106C416.811,52.18,418.815,51.024,420.819,49.795C422.823,48.565,424.826,47.261,426.83,46.819C428.834,46.377,430.838,46.796,432.842,46.114C434.846,45.433,436.85,43.65,438.854,43.884C440.858,44.119,442.862,46.372,444.865,47.557C446.869,48.743,448.873,48.861,450.877,48.817C452.881,48.773,454.885,48.565,456.889,48.994C458.893,49.424,460.897,50.49,462.901,50.297C464.904,50.104,466.908,48.652,468.912,47.407C470.916,46.163,472.92,45.126,474.924,44.8C476.928,44.474,478.932,44.859,480.936,45.452C482.94,46.045,484.944,46.846,486.947,47.602C488.951,48.358,490.955,49.069,492.959,49.039C494.963,49.009,496.967,48.238,498.971,47.393C500.975,46.549,502.979,45.631,504.983,45.32C506.986,45.01,508.99,45.306,510.994,45.039C512.998,44.772,515.002,43.941,517.006,43.349C519.01,42.756,521.014,42.4,523.018,42.43C525.022,42.459,527.025,42.874,529.029,44.386C531.033,45.898,533.037,48.507,535.041,50.611C537.045,52.716,539.049,54.316,541.053,54.848C543.057,55.381,545.06,54.846,547.064,54.045C549.068,53.244,551.072,52.178,553.076,51.022C555.08,49.867,557.084,48.622,559.088,47.956C561.092,47.289,563.096,47.2,565.099,46.638C567.103,46.076,569.107,45.04,571.111,45.484C573.115,45.929,575.119,47.853,577.123,49.231C579.127,50.608,581.131,51.439,583.135,51.825C585.139,52.211,587.142,52.153,589.146,51.471L589.146,29.407C587.142,29.867,585.139,30.222,583.135,29.763C581.131,29.303,579.127,28.028,577.123,26.679C575.119,25.33,573.115,23.907,571.111,23.849C569.107,23.79,567.103,25.095,565.099,25.925C563.096,26.756,561.092,27.111,559.088,27.348C557.084,27.585,555.08,27.704,553.076,28.296C551.072,28.888,549.068,29.954,547.064,30.013C545.06,30.072,543.057,29.124,541.053,29.434C539.049,29.744,537.045,31.313,535.041,30.973C533.037,30.633,531.033,28.383,529.029,26.769C527.025,25.155,525.022,24.176,523.018,24.221C521.014,24.265,519.01,25.333,517.006,25.733C515.002,26.133,512.998,25.865,510.994,25.806C508.99,25.747,506.986,25.896,504.983,27.185C502.979,28.474,500.975,30.904,498.971,32.103C496.967,33.303,494.963,33.273,492.959,33.302C490.955,33.332,488.951,33.421,486.947,32.207C484.944,30.992,482.94,28.473,480.936,27.331C478.932,26.19,476.928,26.426,474.924,27.419C472.92,28.412,470.916,30.161,468.912,30.829C466.908,31.496,464.904,31.08,462.901,30.843C460.897,30.605,458.893,30.546,456.889,30.561C454.885,30.576,452.881,30.664,450.877,31.064C448.873,31.464,446.869,32.176,444.865,31.835C442.862,31.495,440.858,30.103,438.854,29.407C436.85,28.71,434.846,28.71,432.842,28.931C430.838,29.153,428.834,29.596,426.83,30.307C424.826,31.019,422.823,31.997,420.819,33.494C418.815,34.991,416.811,37.007,414.807,36.859C412.803,36.711,410.799,34.4,408.795,33.526C406.791,32.651,404.787,33.213,402.784,33.242C400.78,33.27,398.776,32.765,396.772,33.284C394.768,33.803,392.764,35.346,390.76,35.851C388.756,36.356,386.752,35.822,384.749,35.393C382.745,34.963,380.741,34.637,378.737,34.593C376.733,34.548,374.729,34.785,372.725,35.378C370.721,35.97,368.717,36.919,366.713,37.437C364.71,37.956,362.706,38.044,360.702,38.577C358.698,39.11,356.694,40.087,354.69,40.443C352.686,40.798,350.682,40.531,348.678,39.539C346.674,38.547,344.671,36.829,342.667,36.103C340.663,35.377,338.659,35.643,336.655,35.05C334.651,34.457,332.647,33.005,330.643,32.28C328.639,31.554,326.635,31.555,324.632,31.763C322.628,31.97,320.624,32.385,318.62,32.101C316.616,31.817,314.612,30.834,312.608,30.286C310.604,29.737,308.6,29.623,306.596,30.574C304.593,31.524,302.589,33.54,300.585,34.548C298.581,35.556,296.577,35.556,294.573,35.659C292.569,35.763,290.565,35.97,288.561,35.97C286.557,35.969,284.554,35.76,282.55,35.256C280.546,34.751,278.542,33.951,276.538,34.248C274.534,34.545,272.53,35.939,270.526,37.006C268.522,38.073,266.518,38.812,264.515,40.071C262.511,41.33,260.507,43.108,258.503,42.53C256.499,41.953,254.495,39.019,252.491,38.307C250.487,37.596,248.483,39.108,246.479,39.598C244.476,40.087,242.472,39.555,240.468,39.081C238.464,38.607,236.46,38.191,234.456,38.295C232.452,38.399,230.448,39.021,228.444,39.466C226.44,39.911,224.437,40.178,222.433,40.622C220.429,41.066,218.425,41.687,216.421,43.286C214.417,44.885,212.413,47.461,210.409,47.314C208.405,47.166,206.401,44.294,204.398,43.791C202.394,43.288,200.39,45.154,198.386,45.584C196.382,46.013,194.378,45.007,192.374,45.54C190.37,46.074,188.366,48.148,186.362,49.392C184.359,50.636,182.355,51.05,180.351,50.917C178.347,50.783,176.343,50.101,174.339,50.25C172.335,50.398,170.331,51.376,168.327,53.213C166.323,55.05,164.319,57.746,162.316,59.257C160.312,60.769,158.308,61.096,156.304,61.866C154.3,62.636,152.296,63.85,150.292,65.76C148.288,67.67,146.284,70.276,144.281,71.284C142.277,72.292,140.273,71.701,138.269,73.554C136.265,75.407,134.261,79.702,132.257,81.124C130.253,82.545,128.249,81.093,126.245,81.996C124.242,82.9,122.238,86.16,120.234,87.953C118.23,89.745,116.226,90.07,114.222,91.893C112.218,93.715,110.214,97.034,108.21,100.235C106.206,103.436,104.203,106.518,102.199,108.237C100.195,109.956,98.191,110.311,96.187,110.8C94.183,111.289,92.179,111.911,90.175,113.081C88.171,114.251,86.167,115.969,84.164,116.739C82.16,117.51,80.156,117.333,78.152,117.17C76.148,117.007,74.144,116.859,72.14,118.266C70.136,119.673,68.132,122.636,66.128,124.591C64.125,126.546,62.121,127.494,60.117,129.286C58.113,131.078,56.109,133.713,54.105,135.832C52.101,137.95,50.097,139.552,48.093,144.16C46.089,148.768,44.086,156.383,42.082,163.124C40.078,169.864,38.074,175.731,36.07,183.034C34.066,190.338,32.062,199.078,30.058,209.048C28.054,219.019,26.05,230.219,24.047,240.914C22.043,251.61,20.039,261.799,18.035,275.059C16.031,288.319,14.027,304.648,12.023,320.131Z" fill="#B22B24" opacity="0.3"/></g></g><path class="foreground" aria-hidden="true" d="" display="none"/></g><g transform="translate(0,0)"><path class="background" aria-hidden="true" d="M0,0h600v400h-600Z"/><g><g class="mark-area role-mark layer_0_layer_0_marks" clip-path="url(#clip5)" role="graphics-object" aria-roledescription="area mark container"><path aria-label="Timestep: 200.38k; Success rate: 0.120211111111; upper_Success rate: 0.171783333333; Width: 4096; Ci1 of Success rate: 0.171783333333; Ci0 of Success rate: 0.120211111111; Mean of Success rate: 0.147555555556" role="graphics-symbol" aria-roledescription="errorband" d="M12.023,341.878C14.027,326.124,16.031,311.31,18.035,292.199C20.039,273.088,22.043,249.68,24.047,233.647C26.05,217.615,28.054,208.958,30.058,200.892C32.062,192.826,34.066,185.351,36.07,180.874C38.074,176.397,40.078,174.917,42.082,173.749C44.086,172.58,46.089,171.723,48.093,170.95C50.097,170.176,52.101,169.486,54.105,167.247C56.109,165.008,58.113,161.221,60.117,157.188C62.121,153.154,64.125,148.873,66.128,144.955C68.132,141.037,70.136,137.481,72.14,136.264C74.144,135.046,76.148,136.166,78.152,134.603C80.156,133.04,82.16,128.793,84.164,126.767C86.167,124.742,88.171,124.939,90.175,125.038C92.179,125.137,94.183,125.137,96.187,125.121C98.191,125.105,100.195,125.072,102.199,124.315C104.203,123.558,106.206,122.077,108.21,121.451C110.214,120.825,112.218,121.054,114.222,120.346C116.226,119.638,118.23,117.992,120.234,115.49C122.238,112.988,124.242,109.631,126.245,107.477C128.249,105.322,130.253,104.37,132.257,103.76C134.261,103.151,136.265,102.886,138.269,102.407C140.273,101.928,142.277,101.237,144.281,101.221C146.284,101.204,148.288,101.863,150.292,99.739C152.296,97.616,154.3,92.71,156.304,88.792C158.308,84.874,160.312,81.943,162.316,80.66C164.319,79.376,166.323,79.74,168.327,78.028C170.331,76.317,172.335,72.53,174.339,70.538C176.343,68.546,178.347,68.348,180.351,67.756C182.355,67.163,184.359,66.175,186.362,64.644C188.366,63.114,190.37,61.04,192.374,60.595C194.378,60.151,196.382,61.336,198.386,61.007C200.39,60.677,202.394,58.834,204.398,58.603C206.401,58.373,208.405,59.756,210.409,60.332C212.413,60.908,214.417,60.677,216.421,60.134C218.425,59.591,220.429,58.735,222.433,57.302C224.437,55.87,226.44,53.861,228.444,53.449C230.448,53.037,232.452,54.222,234.456,54.601C236.46,54.98,238.464,54.553,240.468,53.977C242.472,53.401,244.476,52.676,246.479,52.857C248.483,53.039,250.487,54.127,252.491,54.556C254.495,54.984,256.499,54.754,258.503,54.869C260.507,54.984,262.511,55.444,264.515,55.641C266.518,55.838,268.522,55.772,270.526,54.702C272.53,53.631,274.534,51.556,276.538,51.227C278.542,50.898,280.546,52.314,282.55,53.039C284.554,53.764,286.557,53.797,288.561,52.265C290.565,50.734,292.569,47.639,294.573,46.47C296.577,45.3,298.581,46.058,300.585,46.14C302.589,46.223,304.593,45.631,306.596,46.603C308.6,47.574,310.604,50.109,312.608,52.43C314.612,54.751,316.616,56.857,318.62,57.845C320.624,58.833,322.628,58.703,324.632,58.983C326.635,59.263,328.639,59.954,330.643,59.707C332.647,59.459,334.651,58.274,336.655,56.332C338.659,54.389,340.663,51.69,342.667,50.291C344.671,48.891,346.674,48.793,348.678,52.02C350.682,55.247,352.686,61.8,354.69,63.429C356.694,65.058,358.698,61.764,360.702,60.248C362.706,58.733,364.71,58.996,366.713,58.93C368.717,58.864,370.721,58.469,372.725,58.453C374.729,58.436,376.733,58.798,378.737,58.651C380.741,58.504,382.745,57.847,384.749,56.679C386.752,55.512,388.756,53.834,390.76,51.891C392.764,49.947,394.768,47.739,396.772,46.948C398.776,46.157,400.78,46.784,402.784,49.516C404.787,52.249,406.791,57.089,408.795,57.648C410.799,58.207,412.803,54.486,414.807,54.553C416.811,54.621,418.815,58.476,420.819,59.842C422.823,61.209,424.826,60.087,426.83,59.147C428.834,58.207,430.838,57.449,432.842,56.461C434.846,55.473,436.85,54.255,438.854,53.745C440.858,53.235,442.862,53.434,444.865,52.956C446.869,52.479,448.873,51.326,450.877,51.376C452.881,51.426,454.885,52.68,456.889,54.328C458.893,55.977,460.897,58.021,462.901,57.971C464.904,57.921,466.908,55.778,468.912,54.261C470.916,52.744,472.92,51.853,474.924,52.166C476.928,52.479,478.932,53.995,480.936,54.556C482.94,55.116,484.944,54.721,486.947,54.672C488.951,54.622,490.955,54.919,492.959,55.214C494.963,55.51,496.967,55.806,498.971,57.171C500.975,58.537,502.979,60.972,504.983,61.845C506.986,62.718,508.99,62.028,510.994,59.263C512.998,56.497,515.002,51.656,517.006,49.795C519.01,47.934,521.014,49.053,523.018,49.597C525.022,50.14,527.025,50.107,529.029,49.07C531.033,48.034,533.037,45.993,535.041,44.232C537.045,42.471,539.049,40.988,541.053,41.087C543.057,41.185,545.06,42.864,547.064,43.144C549.068,43.425,551.072,42.306,553.076,41.714C555.08,41.121,557.084,41.054,559.088,41.927C561.092,42.8,563.096,44.612,565.099,45.09C567.103,45.567,569.107,44.709,571.111,44.249C573.115,43.788,575.119,43.723,577.123,44.498C579.127,45.272,581.131,46.886,583.135,46.951C585.139,47.016,587.142,45.534,589.146,44.991L589.146,27.144C587.142,27.852,585.139,27.951,583.135,27.868C581.131,27.785,579.127,27.521,577.123,26.895C575.119,26.27,573.115,25.283,571.111,25.201C569.107,25.119,567.103,25.942,565.099,25.514C563.096,25.086,561.092,23.406,559.088,23.34C557.084,23.274,555.08,24.822,553.076,25.481C551.072,26.139,549.068,25.908,547.064,25.2C545.06,24.492,543.057,23.308,541.053,22.946C539.049,22.584,537.045,23.045,535.041,24.691C533.037,26.337,531.033,29.169,529.029,31.308C527.025,33.448,525.022,34.895,523.018,34.632C521.014,34.368,519.01,32.393,517.006,32.228C515.002,32.063,512.998,33.709,510.994,34.154C508.99,34.599,506.986,33.843,504.983,32.312C502.979,30.782,500.975,28.477,498.971,27.736C496.967,26.994,494.963,27.816,492.959,28.161C490.955,28.507,488.951,28.377,486.947,27.85C484.944,27.323,482.94,26.398,480.936,26.184C478.932,25.97,476.928,26.467,474.924,26.78C472.92,27.094,470.916,27.225,468.912,27.06C466.908,26.895,464.904,26.435,462.901,27.176C460.897,27.916,458.893,29.857,456.889,30.531C454.885,31.206,452.881,30.614,450.877,31.964C448.873,33.314,446.869,36.607,444.865,36.656C442.862,36.705,440.858,33.51,438.854,32.622C436.85,31.733,434.846,33.151,432.842,34.172C430.838,35.193,428.834,35.817,426.83,36.474C424.826,37.131,422.823,37.82,420.819,37.54C418.815,37.261,416.811,36.013,414.807,35.142C412.803,34.272,410.799,33.778,408.795,32.823C406.791,31.868,404.787,30.453,402.784,29.844C400.78,29.235,398.776,29.432,396.772,29.185C394.768,28.937,392.764,28.245,390.76,28.755C388.756,29.265,386.752,30.977,384.749,32.014C382.745,33.052,380.741,33.415,378.737,34.089C376.733,34.764,374.729,35.75,372.725,36.358C370.721,36.967,368.717,37.198,366.713,36.787C364.71,36.376,362.706,35.323,360.702,34.22C358.698,33.118,356.694,31.966,354.69,31.011C352.686,30.056,350.682,29.297,348.678,29.363C346.674,29.428,344.671,30.318,342.667,31.734C340.663,33.151,338.659,35.094,336.655,36.229C334.651,37.364,332.647,37.691,330.643,37.987C328.639,38.283,326.635,38.549,324.632,37.562C322.628,36.574,320.624,34.334,318.62,33.182C316.616,32.03,314.612,31.965,312.608,31.884C310.604,31.802,308.6,31.702,306.596,31.57C304.593,31.439,302.589,31.275,300.585,30.584C298.581,29.892,296.577,28.673,294.573,29.035C292.569,29.397,290.565,31.339,288.561,32.327C286.557,33.315,284.554,33.349,282.55,32.789C280.546,32.23,278.542,31.077,276.538,31.505C274.534,31.933,272.53,33.942,270.526,35.242C268.522,36.542,266.518,37.134,264.515,36.854C262.511,36.574,260.507,35.423,258.503,34.699C256.499,33.975,254.495,33.679,252.491,33.07C250.487,32.46,248.483,31.537,246.479,31.488C244.476,31.438,242.472,32.261,240.468,32.458C238.464,32.656,236.46,32.228,234.456,32.623C232.452,33.019,230.448,34.238,228.444,34.485C226.44,34.732,224.437,34.007,222.433,34.912C220.429,35.817,218.425,38.353,216.421,39.802C214.417,41.251,212.413,41.613,210.409,41.07C208.405,40.526,206.401,39.077,204.398,38.22C202.394,37.364,200.39,37.1,198.386,37.447C196.382,37.793,194.378,38.748,192.374,38.353C190.37,37.957,188.366,36.211,186.362,36.013C184.359,35.816,182.355,37.167,180.351,38.435C178.347,39.704,176.343,40.889,174.339,42.749C172.335,44.608,170.331,47.142,168.327,48.771C166.323,50.4,164.319,51.123,162.316,52.918C160.312,54.712,158.308,57.577,156.304,60.623C154.3,63.669,152.296,66.896,150.292,68.822C148.288,70.747,146.284,71.371,144.281,71.963C142.277,72.555,140.273,73.114,138.269,72.818C136.265,72.522,134.261,71.37,132.257,72.177C130.253,72.984,128.249,75.751,126.245,78.221C124.242,80.691,122.238,82.863,120.234,85.167C118.23,87.471,116.226,89.907,114.222,91.356C112.218,92.804,110.214,93.265,108.21,93.824C106.206,94.384,104.203,95.041,102.199,95.765C100.195,96.489,98.191,97.279,96.187,98.744C94.183,100.21,92.179,102.351,90.175,103.685C88.171,105.019,86.167,105.547,84.164,107.785C82.16,110.023,80.156,113.972,78.152,116.754C76.148,119.536,74.144,121.151,72.14,121.596C70.136,122.041,68.132,121.317,66.128,122.897C64.125,124.477,62.121,128.362,60.117,130.749C58.113,133.135,56.109,134.023,54.105,136.508C52.101,138.993,50.097,143.074,48.093,145.263C46.089,147.452,44.086,147.748,42.082,147.337C40.078,146.926,38.074,145.807,36.07,147.881C34.066,149.955,32.062,155.221,30.058,163.664C28.054,172.108,26.05,183.729,24.047,198.576C22.043,213.423,20.039,231.495,18.035,248.416C16.031,265.336,14.027,281.104,12.023,300.858Z" fill="#7A1F18" opacity="0.3"/></g></g><path class="foreground" aria-hidden="true" d="" display="none"/></g></g><g class="mark-group role-scope layer_1_pathgroup" role="graphics-object" aria-roledescription="group mark container"><g transform="translate(0,0)"><path class="background" aria-hidden="true" d="M0,0h600v400h-600Z"/><g><g class="mark-line role-mark layer_1_marks" clip-path="url(#clip6)" role="graphics-object" aria-roledescription="line mark container"><path aria-label="Timestep: 200.38k; Success rate: 0.0554; Width: 256" role="graphics-symbol" aria-roledescription="line mark" d="M12.023,378.741C14.027,367.526,16.031,360.03,18.035,354.119C20.039,348.207,22.043,343.881,24.047,337.585C26.05,331.289,28.054,323.022,30.058,314.252C32.062,305.481,34.066,296.207,36.07,287.704C38.074,279.2,40.078,271.467,42.082,265.393C44.086,259.319,46.089,254.904,48.093,251.23C50.097,247.556,52.101,244.622,54.105,239.6C56.109,234.578,58.113,227.467,60.117,223.215C62.121,218.963,64.125,217.57,66.128,214.785C68.132,212,70.136,207.822,72.14,205.467C74.144,203.111,76.148,202.578,78.152,200.504C80.156,198.43,82.16,194.815,84.164,192.252C86.167,189.689,88.171,188.178,90.175,186.504C92.179,184.83,94.183,182.993,96.187,180.83C98.191,178.667,100.195,176.178,102.199,173.867C104.203,171.556,106.206,169.422,108.21,168.474C110.214,167.526,112.218,167.763,114.222,167.333C116.226,166.904,118.23,165.807,120.234,164.667C122.238,163.526,124.242,162.341,126.245,161.393C128.249,160.444,130.253,159.733,132.257,158.889C134.261,158.044,136.265,157.067,138.269,155.763C140.273,154.459,142.277,152.83,144.281,152.622C146.284,152.415,148.288,153.63,150.292,153.719C152.296,153.807,154.3,152.77,156.304,152.4C158.308,152.03,160.312,152.326,162.316,152C164.319,151.674,166.323,150.726,168.327,149.956C170.331,149.185,172.335,148.593,174.339,148.474C176.343,148.356,178.347,148.711,180.351,148.074C182.355,147.437,184.359,145.807,186.362,144.593C188.366,143.378,190.37,142.578,192.374,141.926C194.378,141.274,196.382,140.77,198.386,140.459C200.39,140.148,202.394,140.03,204.398,139.807C206.401,139.585,208.405,139.259,210.409,139.467C212.413,139.674,214.417,140.415,216.421,140.296C218.425,140.178,220.429,139.2,222.433,139.096C224.437,138.993,226.44,139.763,228.444,140.193C230.448,140.622,232.452,140.711,234.456,140.207C236.46,139.704,238.464,138.607,240.468,137.852C242.472,137.096,244.476,136.681,246.479,136.03C248.483,135.378,250.487,134.489,252.491,134.519C254.495,134.548,256.499,135.496,258.503,135.852C260.507,136.207,262.511,135.97,264.515,135.422C266.518,134.874,268.522,134.015,270.526,134.119C272.53,134.222,274.534,135.289,276.538,135.17C278.542,135.052,280.546,133.748,282.55,133.037C284.554,132.326,286.557,132.207,288.561,131.719C290.565,131.23,292.569,130.37,294.573,130.119C296.577,129.867,298.581,130.222,300.585,130.074C302.589,129.926,304.593,129.274,306.596,129.378C308.6,129.481,310.604,130.341,312.608,130.711C314.612,131.081,316.616,130.963,318.62,131.007C320.624,131.052,322.628,131.259,324.632,130.815C326.635,130.37,328.639,129.274,330.643,128.933C332.647,128.593,334.651,129.007,336.655,129.126C338.659,129.244,340.663,129.067,342.667,128.444C344.671,127.822,346.674,126.756,348.678,126.533C350.682,126.311,352.686,126.933,354.69,127.985C356.694,129.037,358.698,130.519,360.702,130.326C362.706,130.133,364.71,128.267,366.713,127.496C368.717,126.726,370.721,127.052,372.725,126.741C374.729,126.43,376.733,125.481,378.737,125.437C380.741,125.393,382.745,126.252,384.749,125.837C386.752,125.422,388.756,123.733,390.76,122.637C392.764,121.541,394.768,121.037,396.772,120.622C398.776,120.207,400.78,119.881,402.784,120.237C404.787,120.593,406.791,121.63,407.793,120.93C408.795,120.23,408.795,117.794,409.797,114.979C410.799,112.165,412.803,108.971,413.805,110.718C414.807,112.466,414.807,119.153,415.809,121.129C416.811,123.104,418.815,120.367,419.817,120.282C420.819,120.198,420.819,122.765,421.821,122.025C422.823,121.284,424.826,117.235,425.828,116.896C426.83,116.557,426.83,119.929,427.832,118.646C428.834,117.362,430.838,111.422,431.84,111.506C432.842,111.591,432.842,117.7,433.844,117.7C434.846,117.7,436.85,111.591,437.852,111.57C438.854,111.549,438.854,117.616,439.856,117.418C440.858,117.22,442.861,110.758,443.863,110.907C444.865,111.055,444.865,117.813,445.867,119.245C446.869,120.677,448.873,116.783,449.875,116.995C450.877,117.206,450.877,121.524,451.879,120.832C452.881,120.141,454.885,114.441,455.887,113.383C456.889,112.325,456.889,115.908,457.891,116.995C458.893,118.081,460.897,116.67,461.898,117.242C462.9,117.813,462.901,120.367,463.902,120.021C464.904,119.675,466.908,116.43,467.91,115.795C468.912,115.16,468.912,117.136,469.914,115.951C470.916,114.765,472.92,110.42,473.922,111.224C474.924,112.028,474.924,117.982,475.926,118.526C476.928,119.069,478.932,114.201,479.934,113.608C480.936,113.016,480.936,116.698,481.938,116.995C482.939,117.291,484.943,114.201,485.945,114.307C486.947,114.413,486.947,117.714,487.949,118.653C488.951,119.591,490.955,118.166,491.957,118.314C492.959,118.462,492.959,120.183,493.961,118.702C494.963,117.22,496.967,112.536,497.969,112.049C498.971,111.563,498.971,115.273,499.973,115.52C500.975,115.767,502.978,112.55,503.98,112.508C504.982,112.466,504.982,115.598,505.984,115.302C506.986,115.005,508.99,111.28,509.992,111.196C510.994,111.111,510.994,114.667,511.996,115.309C512.998,115.951,515.002,113.679,516.004,113.785C517.006,113.891,517.006,116.374,518.008,116.473C519.01,116.571,521.014,114.286,522.015,114.476C523.017,114.667,523.018,117.333,524.019,118.333C525.021,119.333,527.025,118.667,528.027,118.296C529.029,117.926,529.029,117.852,530.031,118.511C531.033,119.17,533.037,120.563,534.039,119.6C535.041,118.637,535.041,115.319,536.043,114.904C537.045,114.489,539.049,116.978,540.051,117.333C541.052,117.689,541.053,115.911,542.055,115.615C543.057,115.319,545.06,116.504,546.062,115.704C547.064,114.904,547.064,112.119,548.066,112.741C549.068,113.363,551.072,117.393,552.074,117.037C553.076,116.681,553.076,111.941,554.078,111.081C555.08,110.222,557.084,113.244,558.086,113.57C559.088,113.896,559.088,111.526,560.09,111.467C561.092,111.407,563.095,113.659,564.097,114.4C565.099,115.141,565.099,114.37,566.101,115.763C567.103,117.156,569.107,120.711,570.109,120.356C571.111,120,571.111,115.733,572.113,113.304C573.115,110.874,575.119,110.281,576.121,110.815C577.123,111.348,577.123,113.007,578.125,112.405C579.127,111.802,581.13,108.938,582.132,110.605C583.134,112.272,583.135,118.469,584.136,118.444C585.138,118.42,587.142,112.173,588.144,111.321C589.146,110.469,589.146,115.012,590.148,114.889C591.15,114.765,593.154,109.975,594.156,109.531" stroke="#FF5F33" stroke-width="2"/></g></g><path class="foreground" aria-hidden="true" d="" display="none"/></g><g transform="translate(0,0)"><path class="background" aria-hidden="true" d="M0,0h600v400h-600Z"/><g><g class="mark-line role-mark layer_1_marks" clip-path="url(#clip7)" role="graphics-object" aria-roledescription="line mark container"><path aria-label="Timestep: 200.38k; Success rate: 0.1034; Width: 512" role="graphics-symbol" aria-roledescription="line mark" d="M12.023,361.852C14.027,354.844,16.031,355.644,18.035,348.059C20.039,340.474,22.043,324.504,24.047,314.593C26.05,304.681,28.054,300.83,30.058,295.274C32.062,289.719,34.066,282.459,36.07,274.03C38.074,265.6,40.078,256,42.082,248.533C44.086,241.067,46.089,235.733,48.093,230.296C50.097,224.859,52.101,219.319,54.105,212.756C56.109,206.193,58.113,198.607,60.117,192.148C62.121,185.689,64.125,180.356,66.128,176.785C68.132,173.215,70.136,171.407,72.14,168.37C74.144,165.333,76.148,161.067,78.152,157.141C80.156,153.215,82.16,149.63,84.164,147.481C86.167,145.333,88.171,144.622,90.175,143.822C92.179,143.022,94.183,142.133,96.187,140.83C98.191,139.526,100.195,137.807,102.199,137.185C104.203,136.563,106.206,137.037,108.21,137.081C110.214,137.126,112.218,136.741,114.222,135.185C116.226,133.63,118.23,130.904,120.234,129.126C122.238,127.348,124.242,126.519,126.245,126.415C128.249,126.311,130.253,126.933,132.257,126.356C134.261,125.778,136.265,124,138.269,122.356C140.273,120.711,142.277,119.2,144.281,118.459C146.284,117.719,148.288,117.748,150.292,117.956C152.296,118.163,154.3,118.548,156.304,118.089C158.308,117.63,160.312,116.326,162.316,116.015C164.319,115.704,166.323,116.385,168.327,116.267C170.331,116.148,172.335,115.23,174.339,114.874C176.343,114.519,178.347,114.726,180.351,114.741C182.355,114.756,184.359,114.578,186.362,114.785C188.366,114.993,190.37,115.585,192.374,114.356C194.378,113.126,196.382,110.074,198.386,109.259C200.39,108.444,202.394,109.867,204.398,110.222C206.401,110.578,208.405,109.867,210.409,109.644C212.413,109.422,214.417,109.689,216.421,109.896C218.425,110.104,220.429,110.252,222.433,109.881C224.437,109.511,226.44,108.622,228.444,107.763C230.448,106.904,232.452,106.074,234.456,106.163C236.46,106.252,238.464,107.259,240.468,107.704C242.472,108.148,244.476,108.03,246.479,107.807C248.483,107.585,250.487,107.259,252.491,106.622C254.495,105.985,256.499,105.037,258.503,105.6C260.507,106.163,262.511,108.237,264.515,107.941C266.518,107.644,268.522,104.978,270.526,104.341C272.53,103.704,274.534,105.096,276.538,105.156C278.542,105.215,280.546,103.941,282.55,103.422C284.554,102.904,286.557,103.141,288.561,103.407C290.565,103.674,292.569,103.97,294.573,104.178C296.577,104.385,298.581,104.504,300.585,104.104C302.589,103.704,304.593,102.785,306.596,101.63C308.6,100.474,310.604,99.081,312.608,98C314.612,96.919,316.616,96.148,318.62,96.178C320.624,96.207,322.628,97.037,324.632,96.889C326.635,96.741,328.639,95.615,330.643,94.504C332.647,93.393,334.651,92.296,336.655,91.689C338.659,91.081,340.663,90.963,342.667,90.919C344.671,90.874,346.674,90.904,348.678,90.77C350.682,90.637,352.686,90.341,354.69,89.852C356.694,89.363,358.698,88.681,360.702,88.667C362.706,88.652,364.71,89.304,366.713,89.215C368.717,89.126,370.721,88.296,372.725,88.385C374.729,88.474,376.733,89.481,378.737,89.704C380.741,89.926,382.745,89.363,384.749,88.726C386.752,88.089,388.756,87.378,390.76,87.111C392.764,86.844,394.768,87.022,396.772,87.585C398.776,88.148,400.78,89.096,402.784,89.452C404.787,89.807,406.791,89.57,408.795,88.8C410.799,88.03,412.803,86.726,414.807,86.311C416.811,85.896,418.815,86.37,420.819,86.296C422.823,86.222,424.826,85.6,426.83,85.452C428.834,85.304,430.838,85.63,432.842,85.585C434.846,85.541,436.85,85.126,438.854,84.844C440.858,84.563,442.862,84.415,444.865,84.311C446.869,84.207,448.873,84.148,450.877,84.711C452.881,85.274,454.885,86.459,456.889,86.43C458.893,86.4,460.897,85.156,462.901,84.415C464.904,83.674,466.908,83.437,468.912,84.148C470.916,84.859,472.92,86.519,474.924,86.296C476.928,86.074,478.932,83.97,480.936,83.23C482.94,82.489,484.944,83.111,486.947,83.289C488.951,83.467,490.955,83.2,492.959,82.844C494.963,82.489,496.967,82.044,498.971,82.193C500.975,82.341,502.979,83.081,504.983,83.274C506.986,83.467,508.99,83.111,510.994,82.726C512.998,82.341,515.002,81.926,517.006,82.267C519.01,82.607,521.014,83.704,523.018,83.259C525.022,82.815,527.025,80.83,529.029,80.148C531.033,79.467,533.037,80.089,535.041,80.681C537.045,81.274,539.049,81.837,541.053,82.193C543.057,82.548,545.06,82.696,547.064,82.459C549.068,82.222,551.072,81.6,553.076,81.007C555.08,80.415,557.084,79.852,559.088,79.037C561.092,78.222,563.096,77.156,565.099,77.052C567.103,76.948,569.107,77.807,571.111,77.659C573.115,77.511,575.119,76.356,577.123,75.289C579.127,74.222,581.131,73.244,583.135,73.185C585.139,73.126,587.142,73.985,589.146,74.311" stroke="#FF4B33" stroke-width="2"/></g></g><path class="foreground" aria-hidden="true" d="" display="none"/></g><g transform="translate(0,0)"><path class="background" aria-hidden="true" d="M0,0h600v400h-600Z"/><g><g class="mark-line role-mark layer_1_marks" clip-path="url(#clip8)" role="graphics-object" aria-roledescription="line mark container"><path aria-label="Timestep: 200.38k; Success rate: 0.1004; Width: 1024" role="graphics-symbol" aria-roledescription="line mark" d="M12.023,357.407C14.027,342.548,16.031,326.607,18.035,314.193C20.039,301.778,22.043,292.889,24.047,284.4C26.05,275.911,28.054,267.822,30.058,258.815C32.062,249.807,34.066,239.881,36.07,233.081C38.074,226.281,40.078,222.607,42.082,219.289C44.086,215.97,46.089,213.007,48.093,209.615C50.097,206.222,52.101,202.4,54.105,196.993C56.109,191.585,58.113,184.593,60.117,179.526C62.121,174.459,64.125,171.319,66.128,170.593C68.132,169.867,70.136,171.556,72.14,170.711C74.144,169.867,76.148,166.489,78.152,163.037C80.156,159.585,82.16,156.059,84.164,153.319C86.167,150.578,88.171,148.622,90.175,147.096C92.179,145.57,94.183,144.474,96.187,143.333C98.191,142.193,100.195,141.007,102.199,140.652C104.203,140.296,106.206,140.77,108.21,139.333C110.214,137.896,112.218,134.548,114.222,132.859C116.226,131.17,118.23,131.141,120.234,130.193C122.238,129.244,124.242,127.378,126.245,126.044C128.249,124.711,130.253,123.911,132.257,122.963C134.261,122.015,136.265,120.919,138.269,119.615C140.273,118.311,142.277,116.8,144.281,114.756C146.284,112.711,148.288,110.133,150.292,109.23C152.296,108.326,154.3,109.096,156.304,107.541C158.308,105.985,160.312,102.104,162.316,100.059C164.319,98.015,166.323,97.807,168.327,95.852C170.331,93.896,172.335,90.193,174.339,87.659C176.343,85.126,178.347,83.763,180.351,82.815C182.355,81.867,184.359,81.333,186.362,81.837C188.366,82.341,190.37,83.881,192.374,84.933C194.378,85.985,196.382,86.548,198.386,85.274C200.39,84,202.394,80.889,204.398,79.452C206.401,78.015,208.405,78.252,210.409,78.163C212.413,78.074,214.417,77.659,216.421,76.326C218.425,74.993,220.429,72.741,222.433,72.193C224.437,71.644,226.44,72.8,228.444,72.237C230.448,71.674,232.452,69.393,234.456,68.356C236.46,67.319,238.464,67.526,240.468,67.407C242.472,67.289,244.476,66.844,246.479,66.474C248.483,66.104,250.487,65.807,252.491,65.393C254.495,64.978,256.499,64.444,258.503,64.281C260.507,64.119,262.511,64.326,264.515,64.163C266.518,64,268.522,63.467,270.526,63.081C272.53,62.696,274.534,62.459,276.538,61.511C278.542,60.563,280.546,58.904,282.55,58.519C284.554,58.133,286.557,59.022,288.561,58.844C290.565,58.667,292.569,57.422,294.573,57.467C296.577,57.511,298.581,58.844,300.585,59.052C302.589,59.259,304.593,58.341,306.596,57.867C308.6,57.393,310.604,57.363,312.608,57.6C314.612,57.837,316.616,58.341,318.62,58.326C320.624,58.311,322.628,57.778,324.632,57.867C326.635,57.956,328.639,58.667,330.643,58.83C332.647,58.993,334.651,58.607,336.655,58.252C338.659,57.896,340.663,57.57,342.667,57.215C344.671,56.859,346.674,56.474,348.678,56.281C350.682,56.089,352.686,56.089,354.69,56.252C356.694,56.415,358.698,56.741,360.702,56.756C362.706,56.77,364.71,56.474,366.713,56.43C368.717,56.385,370.721,56.593,372.725,56.681C374.729,56.77,376.733,56.741,378.737,56.563C380.741,56.385,382.745,56.059,384.749,56.193C386.752,56.326,388.756,56.919,390.76,56.652C392.764,56.385,394.768,55.259,396.772,55.007C398.776,54.756,400.78,55.378,402.784,56.296C404.787,57.215,406.791,58.43,408.795,58.474C410.799,58.519,412.803,57.393,414.807,57.17C416.811,56.948,418.815,57.63,420.819,57.733C422.823,57.837,424.826,57.363,426.83,56.726C428.834,56.089,430.838,55.289,432.842,55.481C434.846,55.674,436.85,56.859,438.854,56.889C440.858,56.919,442.862,55.793,444.865,55.748C446.869,55.704,448.873,56.741,450.877,57.63C452.881,58.519,454.885,59.259,456.889,58.726C458.893,58.193,460.897,56.385,462.901,55.304C464.904,54.222,466.908,53.867,468.912,53.763C470.916,53.659,472.92,53.807,474.924,54.252C476.928,54.696,478.932,55.437,480.936,55.911C482.94,56.385,484.944,56.593,486.947,57.067C488.951,57.541,490.955,58.281,492.959,58.356C494.963,58.43,496.967,57.837,498.971,57.304C500.975,56.77,502.979,56.296,504.983,56C506.986,55.704,508.99,55.585,510.994,55.615C512.998,55.644,515.002,55.822,517.006,55.793C519.01,55.763,521.014,55.526,523.018,55.526C525.022,55.526,527.025,55.763,529.029,55.822C531.033,55.881,533.037,55.763,535.041,55.822C537.045,55.881,539.049,56.119,541.053,55.867C543.057,55.615,545.06,54.874,547.064,54.993C549.068,55.111,551.072,56.089,553.076,56.519C555.08,56.948,557.084,56.83,559.088,56.726C561.092,56.622,563.096,56.533,565.099,56.785C567.103,57.037,569.107,57.63,571.111,57.733C573.115,57.837,575.119,57.452,577.123,57.526C579.127,57.6,581.131,58.133,583.135,58.104C585.139,58.074,587.142,57.481,589.146,57.007" stroke="#E0392D" stroke-width="2"/></g></g><path class="foreground" aria-hidden="true" d="" display="none"/></g><g transform="translate(0,0)"><path class="background" aria-hidden="true" d="M0,0h600v400h-600Z"/><g><g class="mark-line role-mark layer_1_marks" clip-path="url(#clip9)" role="graphics-object" aria-roledescription="line mark container"><path aria-label="Timestep: 200.38k; Success rate: 0.1416; Width: 2048" role="graphics-symbol" aria-roledescription="line mark" d="M12.023,336.519C14.027,322.637,16.031,310.43,18.035,297.2C20.039,283.97,22.043,269.719,24.047,257.037C26.05,244.356,28.054,233.244,30.058,223.807C32.062,214.37,34.066,206.607,36.07,200.43C38.074,194.252,40.078,189.659,42.082,182.815C44.086,175.97,46.089,166.874,48.093,161.704C50.097,156.533,52.101,155.289,54.105,152.474C56.109,149.659,58.113,145.274,60.117,142.341C62.121,139.407,64.125,137.926,66.128,135.007C68.132,132.089,70.136,127.733,72.14,125.585C74.144,123.437,76.148,123.496,78.152,123.23C80.156,122.963,82.16,122.37,84.164,121.23C86.167,120.089,88.171,118.4,90.175,117.674C92.179,116.948,94.183,117.185,96.187,117.007C98.191,116.83,100.195,116.237,102.199,115.452C104.203,114.667,106.206,113.689,108.21,111.393C110.214,109.096,112.218,105.481,114.222,103.719C116.226,101.956,118.23,102.044,120.234,100.593C122.238,99.141,124.242,96.148,126.245,95.096C128.249,94.044,130.253,94.933,132.257,93.63C134.261,92.326,136.265,88.83,138.269,87.17C140.273,85.511,142.277,85.689,144.281,84.444C146.284,83.2,148.288,80.533,150.292,78.519C152.296,76.504,154.3,75.141,156.304,73.763C158.308,72.385,160.312,70.993,162.316,69.23C164.319,67.467,166.323,65.333,168.327,63.244C170.331,61.156,172.335,59.111,174.339,58.681C176.343,58.252,178.347,59.437,180.351,59.526C182.355,59.615,184.359,58.607,186.362,57.6C188.366,56.593,190.37,55.585,192.374,55.304C194.378,55.022,196.382,55.467,198.386,54.593C200.39,53.719,202.394,51.526,204.398,51.896C206.401,52.267,208.405,55.2,210.409,55.674C212.413,56.148,214.417,54.163,216.421,52.593C218.425,51.022,220.429,49.867,222.433,49.393C224.437,48.919,226.44,49.126,228.444,49.037C230.448,48.948,232.452,48.563,234.456,48.652C236.46,48.741,238.464,49.304,240.468,49.719C242.472,50.133,244.476,50.4,246.479,49.704C248.483,49.007,250.487,47.348,252.491,47.644C254.495,47.941,256.499,50.193,258.503,50.785C260.507,51.378,262.511,50.311,264.515,49.378C266.518,48.444,268.522,47.644,270.526,46.622C272.53,45.6,274.534,44.356,276.538,43.867C278.542,43.378,280.546,43.644,282.55,43.793C284.554,43.941,286.557,43.97,288.561,44.03C290.565,44.089,292.569,44.178,294.573,44.652C296.577,45.126,298.581,45.985,300.585,45.481C302.589,44.978,304.593,43.111,306.596,42.385C308.6,41.659,310.604,42.074,312.608,42.326C314.612,42.578,316.616,42.667,318.62,42.77C320.624,42.874,322.628,42.993,324.632,42.993C326.635,42.993,328.639,42.874,330.643,43.496C332.647,44.119,334.651,45.481,336.655,45.807C338.659,46.133,340.663,45.422,342.667,45.837C344.671,46.252,346.674,47.793,348.678,49.259C350.682,50.726,352.686,52.119,354.69,52.074C356.694,52.03,358.698,50.548,360.702,49.17C362.706,47.793,364.71,46.519,366.713,45.63C368.717,44.741,370.721,44.237,372.725,44.222C374.729,44.207,376.733,44.681,378.737,45.23C380.741,45.778,382.745,46.4,384.749,47.185C386.752,47.97,388.756,48.919,390.76,48.207C392.764,47.496,394.768,45.126,396.772,44.444C398.776,43.763,400.78,44.77,402.784,44.489C404.787,44.207,406.791,42.637,408.795,42.622C410.799,42.607,412.803,44.148,414.807,44.296C416.811,44.444,418.815,43.2,420.819,42.059C422.823,40.919,424.826,39.881,426.83,39.111C428.834,38.341,430.838,37.837,432.842,37.23C434.846,36.622,436.85,35.911,438.854,36.504C440.858,37.096,442.862,38.993,444.865,39.704C446.869,40.415,448.873,39.941,450.877,39.6C452.881,39.259,454.885,39.052,456.889,39.304C458.893,39.556,460.897,40.267,462.901,40.341C464.904,40.415,466.908,39.852,468.912,38.83C470.916,37.807,472.92,36.326,474.924,35.615C476.928,34.904,478.932,34.963,480.936,35.822C482.94,36.681,484.944,38.341,486.947,39.333C488.951,40.326,490.955,40.652,492.959,40.637C494.963,40.622,496.967,40.267,498.971,39.289C500.975,38.311,502.979,36.711,504.983,35.778C506.986,34.844,508.99,34.578,510.994,34.444C512.998,34.311,515.002,34.311,517.006,33.896C519.01,33.481,521.014,32.652,523.018,32.696C525.022,32.741,527.025,33.659,529.029,35.333C531.033,37.007,533.037,39.437,535.041,40.548C537.045,41.659,539.049,41.452,541.053,41.541C543.057,41.63,545.06,42.015,547.064,41.481C549.068,40.948,551.072,39.496,553.076,38.607C555.08,37.719,557.084,37.393,559.088,37.111C561.092,36.83,563.096,36.593,565.099,35.807C567.103,35.022,569.107,33.689,571.111,33.956C573.115,34.222,575.119,36.089,577.123,37.556C579.127,39.022,581.131,40.089,583.135,40.548C585.139,41.007,587.142,40.859,589.146,40.296" stroke="#B22B24" stroke-width="2"/></g></g><path class="foreground" aria-hidden="true" d="" display="none"/></g><g transform="translate(0,0)"><path class="background" aria-hidden="true" d="M0,0h600v400h-600Z"/><g><g class="mark-line role-mark layer_1_marks" clip-path="url(#clip10)" role="graphics-object" aria-roledescription="line mark container"><path aria-label="Timestep: 200.38k; Success rate: 0.147555555556; Width: 4096" role="graphics-symbol" aria-roledescription="line mark" d="M12.023,322.173C14.027,304.724,16.031,289.449,18.035,270.996C20.039,252.543,22.043,230.914,24.047,215.243C26.05,199.572,28.054,189.86,30.058,181.728C32.062,173.597,34.066,167.045,36.07,163.621C38.074,160.198,40.078,159.901,42.082,159.621C44.086,159.342,46.089,159.078,48.093,157.514C50.097,155.951,52.101,153.086,54.105,150.337C56.109,147.588,58.113,144.955,60.117,141.712C62.121,138.469,64.125,134.617,66.128,132.23C68.132,129.844,70.136,128.922,72.14,128.444C74.144,127.967,76.148,127.934,78.152,125.811C80.156,123.687,82.16,119.473,84.164,117.399C86.167,115.325,88.171,115.391,90.175,114.897C92.179,114.403,94.183,113.35,96.187,112.708C98.191,112.066,100.195,111.835,102.199,111.095C104.203,110.354,106.206,109.103,108.21,108.395C110.214,107.687,112.218,107.523,114.222,106.436C116.226,105.35,118.23,103.342,120.234,100.856C122.238,98.37,124.242,95.407,126.245,92.889C128.249,90.37,130.253,88.296,132.257,87.457C134.261,86.617,136.265,87.012,138.269,86.848C140.273,86.683,142.277,85.959,144.281,85.728C146.284,85.498,148.288,85.761,150.292,83.852C152.296,81.942,154.3,77.86,156.304,74.37C158.308,70.881,160.312,67.984,162.316,66.42C164.319,64.856,166.323,64.626,168.327,62.914C170.331,61.202,172.335,58.008,174.339,56.247C176.343,54.486,178.347,54.156,180.351,53.235C182.355,52.313,184.359,50.798,186.362,50.123C188.366,49.449,190.37,49.613,192.374,49.613C194.378,49.613,196.382,49.449,198.386,49.004C200.39,48.56,202.394,47.835,204.398,48.313C206.401,48.79,208.405,50.469,210.409,51.111C212.413,51.753,214.417,51.358,216.421,50.156C218.425,48.955,220.429,46.947,222.433,45.663C224.437,44.379,226.44,43.819,228.444,43.638C230.448,43.457,232.452,43.654,234.456,43.671C236.46,43.687,238.464,43.523,240.468,43.177C242.472,42.831,244.476,42.305,246.479,42.354C248.483,42.403,250.487,43.029,252.491,43.49C254.495,43.951,256.499,44.247,258.503,44.626C260.507,45.004,262.511,45.465,264.515,45.63C266.518,45.794,268.522,45.663,270.526,44.56C272.53,43.457,274.534,41.383,276.538,41.07C278.542,40.757,280.546,42.206,282.55,42.864C284.554,43.523,286.557,43.391,288.561,42.008C290.565,40.626,292.569,37.992,294.573,37.218C296.577,36.444,298.581,37.531,300.585,38.107C302.589,38.683,304.593,38.749,306.596,39.374C308.6,40,310.604,41.185,312.608,42.403C314.612,43.621,316.616,44.872,318.62,45.992C320.624,47.111,322.628,48.099,324.632,48.494C326.635,48.889,328.639,48.691,330.643,48.23C332.647,47.77,334.651,47.045,336.655,45.663C338.659,44.28,340.663,42.239,342.667,40.922C344.671,39.605,346.674,39.012,348.678,40.362C350.682,41.712,352.686,45.004,354.69,46.272C356.694,47.539,358.698,46.782,360.702,46.897C362.706,47.012,364.71,48,366.713,48.049C368.717,48.099,370.721,47.21,372.725,46.749C374.729,46.288,376.733,46.255,378.737,45.86C380.741,45.465,382.745,44.708,384.749,43.588C386.752,42.469,388.756,40.988,390.76,39.901C392.764,38.815,394.768,38.123,396.772,37.975C398.776,37.827,400.78,38.222,402.784,39.918C404.787,41.613,406.791,44.609,408.795,45.235C410.799,45.86,412.803,44.115,414.807,44.494C416.811,44.872,418.815,47.374,420.819,48.263C422.823,49.152,424.826,48.428,426.83,47.835C428.834,47.243,430.838,46.782,432.842,45.761C434.846,44.741,436.85,43.16,438.854,43.111C440.858,43.062,442.862,44.543,444.865,44.033C446.869,43.523,448.873,41.021,450.877,40.395C452.881,39.77,454.885,41.021,456.889,41.333C458.893,41.646,460.897,41.021,462.901,40.675C464.904,40.329,466.908,40.263,468.912,39.835C470.916,39.407,472.92,38.617,474.924,38.469C476.928,38.321,478.932,38.815,480.936,39.325C482.94,39.835,484.944,40.362,486.947,40.626C488.951,40.889,490.955,40.889,492.959,40.741C494.963,40.593,496.967,40.296,498.971,41.169C500.975,42.041,502.979,44.082,504.983,45.531C506.986,46.979,508.99,47.835,510.994,46.519C512.998,45.202,515.002,41.712,517.006,40.724C519.01,39.737,521.014,41.251,523.018,41.613C525.022,41.975,527.025,41.185,529.029,39.654C531.033,38.123,533.037,35.852,535.041,34.255C537.045,32.658,539.049,31.737,541.053,31.918C543.057,32.099,545.06,33.383,547.064,33.728C549.068,34.074,551.072,33.481,553.076,32.823C555.08,32.165,557.084,31.44,559.088,31.951C561.092,32.461,563.096,34.206,565.099,34.486C567.103,34.765,569.107,33.58,571.111,33.366C573.115,33.152,575.119,33.909,577.123,34.831C579.127,35.753,581.131,36.84,583.135,36.889C585.139,36.938,587.142,35.951,589.146,35.243" stroke="#7A1F18" stroke-width="2"/></g></g><path class="foreground" aria-hidden="true" d="" display="none"/></g></g><g class="mark-group role-legend" role="graphics-symbol" aria-roledescription="legend" aria-label="Symbol legend titled 'Width' for fill color and stroke color with 5 values: 256, 512, 1024, 2048, 4096"><g transform="translate(618,0)"><path class="background" aria-hidden="true" d="M0,0h46v99h-46Z" pointer-events="none"/><g><g class="mark-group role-legend-entry"><g transform="translate(0,21)"><path class="background" aria-hidden="true" d="M0,0h0v0h0Z" pointer-events="none"/><g><g class="mark-group role-scope" role="graphics-object" aria-roledescription="group mark container"><g transform="translate(0,0)"><path class="background" aria-hidden="true" d="M0,0h46v14h-46Z" pointer-events="none" opacity="1"/><g><g class="mark-symbol role-legend-symbol" pointer-events="none"><path transform="translate(7,7)" d="M5,0A5,5,0,1,1,-5,0A5,5,0,1,1,5,0" fill="#FF5F33" stroke="#FF5F33" stroke-width="1.5" opacity="0.3"/></g><g class="mark-text role-legend-label" pointer-events="none"><text text-anchor="start" transform="translate(18,11)" font-family="Times New Roman" font-size="14px" fill="#000" opacity="1">256</text></g></g><path class="foreground" aria-hidden="true" d="" pointer-events="none" display="none"/></g><g transform="translate(0,16)"><path class="background" aria-hidden="true" d="M0,0h46v14h-46Z" pointer-events="none" opacity="1"/><g><g class="mark-symbol role-legend-symbol" pointer-events="none"><path transform="translate(7,7)" d="M5,0A5,5,0,1,1,-5,0A5,5,0,1,1,5,0" fill="#FF4B33" stroke="#FF4B33" stroke-width="1.5" opacity="0.3"/></g><g class="mark-text role-legend-label" pointer-events="none"><text text-anchor="start" transform="translate(18,11)" font-family="Times New Roman" font-size="14px" fill="#000" opacity="1">512</text></g></g><path class="foreground" aria-hidden="true" d="" pointer-events="none" display="none"/></g><g transform="translate(0,32)"><path class="background" aria-hidden="true" d="M0,0h46v14h-46Z" pointer-events="none" opacity="1"/><g><g class="mark-symbol role-legend-symbol" pointer-events="none"><path transform="translate(7,7)" d="M5,0A5,5,0,1,1,-5,0A5,5,0,1,1,5,0" fill="#E0392D" stroke="#E0392D" stroke-width="1.5" opacity="0.3"/></g><g class="mark-text role-legend-label" pointer-events="none"><text text-anchor="start" transform="translate(18,11)" font-family="Times New Roman" font-size="14px" fill="#000" opacity="1">1024</text></g></g><path class="foreground" aria-hidden="true" d="" pointer-events="none" display="none"/></g><g transform="translate(0,48)"><path class="background" aria-hidden="true" d="M0,0h46v14h-46Z" pointer-events="none" opacity="1"/><g><g class="mark-symbol role-legend-symbol" pointer-events="none"><path transform="translate(7,7)" d="M5,0A5,5,0,1,1,-5,0A5,5,0,1,1,5,0" fill="#B22B24" stroke="#B22B24" stroke-width="1.5" opacity="0.3"/></g><g class="mark-text role-legend-label" pointer-events="none"><text text-anchor="start" transform="translate(18,11)" font-family="Times New Roman" font-size="14px" fill="#000" opacity="1">2048</text></g></g><path class="foreground" aria-hidden="true" d="" pointer-events="none" display="none"/></g><g transform="translate(0,64)"><path class="background" aria-hidden="true" d="M0,0h46v14h-46Z" pointer-events="none" opacity="1"/><g><g class="mark-symbol role-legend-symbol" pointer-events="none"><path transform="translate(7,7)" d="M5,0A5,5,0,1,1,-5,0A5,5,0,1,1,5,0" fill="#7A1F18" stroke="#7A1F18" stroke-width="1.5" opacity="0.3"/></g><g class="mark-text role-legend-label" pointer-events="none"><text text-anchor="start" transform="translate(18,11)" font-family="Times New Roman" font-size="14px" fill="#000" opacity="1">4096</text></g></g><path class="foreground" aria-hidden="true" d="" pointer-events="none" display="none"/></g></g></g><path class="foreground" aria-hidden="true" d="" pointer-events="none" display="none"/></g></g><g class="mark-text role-legend-title" pointer-events="none"><text text-anchor="start" transform="translate(0,13)" font-family="Times New Roman" font-size="16px" font-weight="bold" fill="#000" opacity="1">Width</text></g></g><path class="foreground" aria-hidden="true" d="" pointer-events="none" display="none"/></g></g></g><path class="foreground" aria-hidden="true" d="" display="none"/></g></g></g><defs><clipPath id="clip1"><rect x="0" y="0" width="600" height="400"/></clipPath><clipPath id="clip2"><rect x="0" y="0" width="600" height="400"/></clipPath><clipPath id="clip3"><rect x="0" y="0" width="600" height="400"/></clipPath><clipPath id="clip4"><rect x="0" y="0" width="600" height="400"/></clipPath><clipPath id="clip5"><rect x="0" y="0" width="600" height="400"/></clipPath><clipPath id="clip6"><rect x="0" y="0" width="600" height="400"/></clipPath><clipPath id="clip7"><rect x="0" y="0" width="600" height="400"/></clipPath><clipPath id="clip8"><rect x="0" y="0" width="600" height="400"/></clipPath><clipPath id="clip9"><rect x="0" y="0" width="600" height="400"/></clipPath><clipPath id="clip10"><rect x="0" y="0" width="600" height="400"/></clipPath></defs></svg>