<svg xmlns="http://www.w3.org/2000/svg" xmlns:xlink="http://www.w3.org/1999/xlink" version="1.1" class="marks" width="656" height="458" viewBox="0 0 656 458"><rect width="656" height="458" fill="white"/><g fill="none" stroke-miterlimit="10" transform="translate(50,12)"><g class="mark-group role-frame root" role="graphics-object" aria-roledescription="group mark container"><g transform="translate(0,0)"><path class="background" aria-hidden="true" d="M0.5,0.5h600v400h-600Z" stroke="#ddd"/><g><g class="mark-group role-axis" aria-hidden="true"><g transform="translate(0.5,400.5)"><path class="background" aria-hidden="true" d="M0,0h0v0h0Z" pointer-events="none"/><g><g class="mark-rule role-axis-grid" pointer-events="none"><line transform="translate(24,-400)" x2="0" y2="400" stroke="#ddd" stroke-width="1" opacity="1"/><line transform="translate(55,-400)" x2="0" y2="400" stroke="#ddd" stroke-width="1" opacity="1"/><line transform="translate(85,-400)" x2="0" y2="400" stroke="#ddd" stroke-width="1" opacity="1"/><line transform="translate(115,-400)" x2="0" y2="400" stroke="#ddd" stroke-width="1" opacity="1"/><line transform="translate(145,-400)" x2="0" y2="400" stroke="#ddd" stroke-width="1" opacity="1"/><line transform="translate(176,-400)" x2="0" y2="400" stroke="#ddd" stroke-width="1" opacity="1"/><line transform="translate(206,-400)" x2="0" y2="400" stroke="#ddd" stroke-width="1" opacity="1"/><line transform="translate(236,-400)" x2="0" y2="400" stroke="#ddd" stroke-width="1" opacity="1"/><line transform="translate(267,-400)" x2="0" y2="400" stroke="#ddd" stroke-width="1" opacity="1"/><line transform="translate(297,-400)" x2="0" y2="400" stroke="#ddd" stroke-width="1" opacity="1"/><line transform="translate(327,-400)" x2="0" y2="400" stroke="#ddd" stroke-width="1" opacity="1"/><line transform="translate(358,-400)" x2="0" y2="400" stroke="#ddd" stroke-width="1" opacity="1"/><line transform="translate(388,-400)" x2="0" y2="400" stroke="#ddd" stroke-width="1" opacity="1"/><line transform="translate(418,-400)" x2="0" y2="400" stroke="#ddd" stroke-width="1" opacity="1"/><line transform="translate(448,-400)" x2="0" y2="400" stroke="#ddd" stroke-width="1" opacity="1"/><line transform="translate(479,-400)" x2="0" y2="400" stroke="#ddd" stroke-width="1" opacity="1"/><line transform="translate(509,-400)" x2="0" y2="400" stroke="#ddd" stroke-width="1" opacity="1"/><line transform="translate(539,-400)" x2="0" y2="400" stroke="#ddd" stroke-width="1" opacity="1"/><line transform="translate(570,-400)" x2="0" y2="400" stroke="#ddd" stroke-width="1" opacity="1"/><line transform="translate(600,-400)" x2="0" y2="400" stroke="#ddd" stroke-width="1" opacity="1"/></g></g><path class="foreground" aria-hidden="true" d="" pointer-events="none" display="none"/></g></g><g class="mark-group role-axis" aria-hidden="true"><g transform="translate(0.5,0.5)"><path class="background" aria-hidden="true" d="M0,0h0v0h0Z" pointer-events="none"/><g><g class="mark-rule role-axis-grid" pointer-events="none"><line transform="translate(0,376)" x2="600" y2="0" stroke="#ddd" stroke-width="1" opacity="1"/><line transform="translate(0,329)" x2="600" y2="0" stroke="#ddd" stroke-width="1" opacity="1"/><line transform="translate(0,282)" x2="600" y2="0" stroke="#ddd" stroke-width="1" opacity="1"/><line transform="translate(0,235)" x2="600" y2="0" stroke="#ddd" stroke-width="1" opacity="1"/><line transform="translate(0,188)" x2="600" y2="0" stroke="#ddd" stroke-width="1" opacity="1"/><line transform="translate(0,141)" x2="600" y2="0" stroke="#ddd" stroke-width="1" opacity="1"/><line transform="translate(0,94)" x2="600" y2="0" stroke="#ddd" stroke-width="1" opacity="1"/><line transform="translate(0,47)" x2="600" y2="0" stroke="#ddd" stroke-width="1" opacity="1"/><line transform="translate(0,0)" x2="600" y2="0" stroke="#ddd" stroke-width="1" opacity="1"/></g></g><path class="foreground" aria-hidden="true" d="" pointer-events="none" display="none"/></g></g><g class="mark-group role-axis" role="graphics-symbol" aria-roledescription="axis" aria-label="X-axis titled 'Number of environment steps' for a linear scale with values from 0M to 20M"><g transform="translate(0.5,400.5)"><path class="background" aria-hidden="true" d="M0,0h0v0h0Z" pointer-events="none"/><g><g class="mark-rule role-axis-tick" pointer-events="none"><line transform="translate(24,0)" x2="0" y2="5" stroke="#888" stroke-width="1" opacity="1"/><line transform="translate(55,0)" x2="0" y2="5" stroke="#888" stroke-width="1" opacity="1"/><line transform="translate(85,0)" x2="0" y2="5" stroke="#888" stroke-width="1" opacity="1"/><line transform="translate(115,0)" x2="0" y2="5" stroke="#888" stroke-width="1" opacity="1"/><line transform="translate(145,0)" x2="0" y2="5" stroke="#888" stroke-width="1" opacity="1"/><line transform="translate(176,0)" x2="0" y2="5" stroke="#888" stroke-width="1" opacity="1"/><line transform="translate(206,0)" x2="0" y2="5" stroke="#888" stroke-width="1" opacity="1"/><line transform="translate(236,0)" x2="0" y2="5" stroke="#888" stroke-width="1" opacity="1"/><line transform="translate(267,0)" x2="0" y2="5" stroke="#888" stroke-width="1" opacity="1"/><line transform="translate(297,0)" x2="0" y2="5" stroke="#888" stroke-width="1" opacity="1"/><line transform="translate(327,0)" x2="0" y2="5" stroke="#888" stroke-width="1" opacity="1"/><line transform="translate(358,0)" x2="0" y2="5" stroke="#888" stroke-width="1" opacity="1"/><line transform="translate(388,0)" x2="0" y2="5" stroke="#888" stroke-width="1" opacity="1"/><line transform="translate(418,0)" x2="0" y2="5" stroke="#888" stroke-width="1" opacity="1"/><line transform="translate(448,0)" x2="0" y2="5" stroke="#888" stroke-width="1" opacity="1"/><line transform="translate(479,0)" x2="0" y2="5" stroke="#888" stroke-width="1" opacity="1"/><line transform="translate(509,0)" x2="0" y2="5" stroke="#888" stroke-width="1" opacity="1"/><line transform="translate(539,0)" x2="0" y2="5" stroke="#888" stroke-width="1" opacity="1"/><line transform="translate(570,0)" x2="0" y2="5" stroke="#888" stroke-width="1" opacity="1"/><line transform="translate(600,0)" x2="0" y2="5" stroke="#888" stroke-width="1" opacity="1"/></g><g class="mark-text role-axis-label" pointer-events="none"><text text-anchor="middle" transform="translate(24.242424242424246,18)" font-family="Times New Roman" font-size="14px" fill="#000" opacity="1">1M</text><text text-anchor="middle" transform="translate(54.54545454545455,18)" font-family="Times New Roman" font-size="14px" fill="#000" opacity="0">2M</text><text text-anchor="middle" transform="translate(84.84848484848484,18)" font-family="Times New Roman" font-size="14px" fill="#000" opacity="1">3M</text><text text-anchor="middle" transform="translate(115.15151515151514,18)" font-family="Times New Roman" font-size="14px" fill="#000" opacity="0">4M</text><text text-anchor="middle" transform="translate(145.45454545454547,18)" font-family="Times New Roman" font-size="14px" fill="#000" opacity="1">5M</text><text text-anchor="middle" transform="translate(175.75757575757575,18)" font-family="Times New Roman" font-size="14px" fill="#000" opacity="0">6M</text><text text-anchor="middle" transform="translate(206.06060606060606,18)" font-family="Times New Roman" font-size="14px" fill="#000" opacity="1">7M</text><text text-anchor="middle" transform="translate(236.36363636363635,18)" font-family="Times New Roman" font-size="14px" fill="#000" opacity="0">8M</text><text text-anchor="middle" transform="translate(266.66666666666663,18)" font-family="Times New Roman" font-size="14px" fill="#000" opacity="1">9M</text><text text-anchor="middle" transform="translate(296.969696969697,18)" font-family="Times New Roman" font-size="14px" fill="#000" opacity="0">10M</text><text text-anchor="middle" transform="translate(327.27272727272725,18)" font-family="Times New Roman" font-size="14px" fill="#000" opacity="1">11M</text><text text-anchor="middle" transform="translate(357.57575757575756,18)" font-family="Times New Roman" font-size="14px" fill="#000" opacity="0">12M</text><text text-anchor="middle" transform="translate(387.87878787878793,18)" font-family="Times New Roman" font-size="14px" fill="#000" opacity="1">13M</text><text text-anchor="middle" transform="translate(418.1818181818182,18)" font-family="Times New Roman" font-size="14px" fill="#000" opacity="0">14M</text><text text-anchor="middle" transform="translate(448.4848484848485,18)" font-family="Times New Roman" font-size="14px" fill="#000" opacity="1">15M</text><text text-anchor="middle" transform="translate(478.7878787878788,18)" font-family="Times New Roman" font-size="14px" fill="#000" opacity="0">16M</text><text text-anchor="middle" transform="translate(509.0909090909091,18)" font-family="Times New Roman" font-size="14px" fill="#000" opacity="1">17M</text><text text-anchor="middle" transform="translate(539.3939393939394,18)" font-family="Times New Roman" font-size="14px" fill="#000" opacity="0">18M</text><text text-anchor="middle" transform="translate(569.6969696969697,18)" font-family="Times New Roman" font-size="14px" fill="#000" opacity="1">19M</text><text text-anchor="end" transform="translate(600,18)" font-family="Times New Roman" font-size="14px" fill="#000" opacity="0">20M</text></g><g class="mark-rule role-axis-domain" pointer-events="none"><line transform="translate(0,0)" x2="600" y2="0" stroke="#888" stroke-width="1" opacity="1"/></g><g class="mark-text role-axis-title" pointer-events="none"><text text-anchor="middle" transform="translate(300,38)" font-family="Times New Roman" font-size="16px" font-weight="bold" fill="#000" opacity="1">Number of environment steps</text></g></g><path class="foreground" aria-hidden="true" d="" pointer-events="none" display="none"/></g></g><g class="mark-group role-axis" role="graphics-symbol" aria-roledescription="axis" aria-label="Y-axis titled 'Success rate' for a linear scale with values from 0.1 to 1.0"><g transform="translate(0.5,0.5)"><path class="background" aria-hidden="true" d="M0,0h0v0h0Z" pointer-events="none"/><g><g class="mark-rule role-axis-tick" pointer-events="none"><line transform="translate(0,376)" x2="-5" y2="0" stroke="#888" stroke-width="1" opacity="1"/><line transform="translate(0,329)" x2="-5" y2="0" stroke="#888" stroke-width="1" opacity="1"/><line transform="translate(0,282)" x2="-5" y2="0" stroke="#888" stroke-width="1" opacity="1"/><line transform="translate(0,235)" x2="-5" y2="0" stroke="#888" stroke-width="1" opacity="1"/><line transform="translate(0,188)" x2="-5" y2="0" stroke="#888" stroke-width="1" opacity="1"/><line transform="translate(0,141)" x2="-5" y2="0" stroke="#888" stroke-width="1" opacity="1"/><line transform="translate(0,94)" x2="-5" y2="0" stroke="#888" stroke-width="1" opacity="1"/><line transform="translate(0,47)" x2="-5" y2="0" stroke="#888" stroke-width="1" opacity="1"/><line transform="translate(0,0)" x2="-5" y2="0" stroke="#888" stroke-width="1" opacity="1"/></g><g class="mark-text role-axis-label" pointer-events="none"><text text-anchor="end" transform="translate(-7,380.4705882352941)" font-family="Times New Roman" font-size="14px" fill="#000" opacity="1">0.2</text><text text-anchor="end" transform="translate(-7,333.4117647058823)" font-family="Times New Roman" font-size="14px" fill="#000" opacity="1">0.3</text><text text-anchor="end" transform="translate(-7,286.35294117647055)" font-family="Times New Roman" font-size="14px" fill="#000" opacity="1">0.4</text><text text-anchor="end" transform="translate(-7,239.29411764705884)" font-family="Times New Roman" font-size="14px" fill="#000" opacity="1">0.5</text><text text-anchor="end" transform="translate(-7,192.23529411764704)" font-family="Times New Roman" font-size="14px" fill="#000" opacity="1">0.6</text><text text-anchor="end" transform="translate(-7,145.17647058823533)" font-family="Times New Roman" font-size="14px" fill="#000" opacity="1">0.7</text><text text-anchor="end" transform="translate(-7,98.11764705882351)" font-family="Times New Roman" font-size="14px" fill="#000" opacity="1">0.8</text><text text-anchor="end" transform="translate(-7,51.058823529411775)" font-family="Times New Roman" font-size="14px" fill="#000" opacity="1">0.9</text><text text-anchor="end" transform="translate(-7,4)" font-family="Times New Roman" font-size="14px" fill="#000" opacity="1">1.0</text></g><g class="mark-rule role-axis-domain" pointer-events="none"><line transform="translate(0,400)" x2="0" y2="-400" stroke="#888" stroke-width="1" opacity="1"/></g><g class="mark-text role-axis-title" pointer-events="none"><text text-anchor="middle" transform="translate(-28.5,200) rotate(-90) translate(0,-3)" font-family="Times New Roman" font-size="16px" font-weight="bold" fill="#000" opacity="1">Success rate</text></g></g><path class="foreground" aria-hidden="true" d="" pointer-events="none" display="none"/></g></g><g class="mark-group role-scope layer_0_layer_0_pathgroup" role="graphics-object" aria-roledescription="group mark container"><g transform="translate(0,0)"><path class="background" aria-hidden="true" d="M0,0h600v400h-600Z"/><g><g class="mark-area role-mark layer_0_layer_0_marks" clip-path="url(#clip1)" role="graphics-object" aria-roledescription="area mark container"><path aria-label="Number of environment steps: 200.38k; Success rate: 0.0266666666667; upper_Success rate: 0.0613333333333; Width: 256; Ci1 of Success rate: 0.0613333333333; Ci0 of Success rate: 0.0266666666667; Mean of Success rate: 0.044" role="graphics-symbol" aria-roledescription="errorband" d="M6.084,404.735C8.108,391.166,10.132,383.897,12.156,379.399C14.181,374.902,16.205,373.176,18.229,367.843C20.253,362.51,22.277,353.569,24.301,344.702C26.325,335.836,28.349,327.044,30.374,318.495C32.398,309.946,34.422,301.64,36.446,294.794C38.47,287.949,40.494,282.565,42.518,278.121C44.543,273.677,46.567,270.174,48.591,264.343C50.615,258.512,52.639,250.354,54.663,246.144C56.687,241.935,58.712,241.673,60.736,239.895C62.76,238.118,64.784,234.824,66.808,232.706C68.832,230.588,70.856,229.647,72.881,227.634C74.905,225.621,76.929,222.536,78.953,219.399C80.977,216.261,83.001,213.072,85.025,210.067C87.05,207.061,89.074,204.241,91.098,201.574C93.122,198.907,95.146,196.395,97.17,193.387C99.194,190.379,101.219,186.876,103.243,186.431C105.267,185.987,107.291,188.601,109.315,188.941C111.339,189.281,113.363,187.346,115.388,186.626C117.412,185.905,119.436,186.398,121.46,185.852C123.484,185.306,125.508,183.722,127.532,182.377C129.557,181.033,131.581,179.928,133.605,177.94C135.629,175.952,137.653,173.08,139.677,172.844C141.701,172.609,143.726,175.01,145.75,175.087C147.774,175.163,149.798,172.915,151.822,172.235C153.846,171.556,155.87,172.444,157.895,170.872C159.919,169.299,161.943,165.265,163.967,165.886C165.991,166.506,168.015,171.783,170.039,172.754C172.064,173.725,174.088,170.392,176.112,167.235C178.136,164.078,180.16,161.098,182.184,158.537C184.208,155.975,186.233,153.833,188.257,152.212C190.281,150.591,192.305,149.492,194.329,148.863C196.353,148.235,198.377,148.078,200.402,147.608C202.426,147.137,204.45,146.353,206.474,146.118C208.498,145.882,210.522,146.196,212.546,146.431C214.571,146.667,216.595,146.824,218.619,146.484C220.643,146.144,222.667,145.307,224.691,146.092C226.715,146.876,228.739,149.281,230.764,149.595C232.788,149.908,234.812,148.131,236.836,146.797C238.86,145.464,240.884,144.575,242.908,144.049C244.933,143.522,246.957,143.358,248.981,143.148C251.005,142.939,253.029,142.685,255.053,142.35C257.077,142.014,259.102,141.597,261.126,141.885C263.15,142.172,265.174,143.165,267.198,143.791C269.222,144.418,271.246,144.68,273.271,144.34C275.295,144,277.319,143.059,279.343,142.876C281.367,142.693,283.391,143.268,285.415,143.163C287.44,143.059,289.464,142.275,291.488,141.856C293.512,141.438,295.536,141.386,297.56,141.359C299.584,141.333,301.609,141.333,303.633,141.621C305.657,141.908,307.681,142.484,309.705,142.824C311.729,143.163,313.753,143.268,315.778,143.268C317.802,143.268,319.826,143.163,321.85,142.85C323.874,142.536,325.898,142.013,327.922,142.17C329.947,142.327,331.971,143.163,333.995,143.163C336.019,143.163,338.043,142.327,340.067,141.856C342.091,141.386,344.116,141.281,346.14,141.15C348.164,141.02,350.188,140.863,352.212,141.203C354.236,141.542,356.26,142.379,358.285,142.196C360.309,142.013,362.333,140.81,364.357,140C366.381,139.19,368.405,138.771,370.429,138.824C372.454,138.876,374.478,139.399,376.502,140.602C378.526,141.805,380.55,143.689,382.574,143.067C384.598,142.444,386.623,139.316,388.647,137.747C390.671,136.178,392.695,136.167,394.719,135.903C396.743,135.638,398.767,135.12,400.791,134.074C402.816,133.029,404.84,131.455,405.852,131.202C406.864,130.949,406.864,132.016,407.876,129.192C408.888,126.369,410.912,119.655,411.924,121.161C412.936,122.667,412.936,132.392,413.948,134.902C414.96,137.412,416.984,132.706,417.997,132.235C419.009,131.765,419.009,135.529,420.021,134.431C421.033,133.333,423.057,127.373,424.069,127.373C425.081,127.373,425.081,133.333,426.093,132.706C427.105,132.078,429.129,124.863,430.141,125.098C431.153,125.333,431.154,133.02,432.166,133.333C433.178,133.647,435.202,126.588,436.214,126.51C437.226,126.431,437.226,133.333,438.238,132.235C439.25,131.137,441.274,122.039,442.286,122.196C443.298,122.353,443.298,131.765,444.31,134.275C445.323,136.784,447.347,132.392,448.359,132.894C449.371,133.396,449.371,138.792,450.383,136.596C451.395,134.4,453.419,124.612,454.431,122.133C455.443,119.655,455.443,124.486,456.455,124.643C457.467,124.8,459.491,120.282,460.503,121.129C461.516,121.976,461.516,128.188,462.528,129.286C463.54,130.384,465.564,126.369,466.576,127.029C467.588,127.69,467.588,133.027,468.6,132.243C469.612,131.459,471.636,124.553,472.648,125.116C473.66,125.678,473.661,133.71,474.673,134.494C475.685,135.278,477.709,128.816,478.721,128.486C479.733,128.157,479.733,133.961,480.745,133.961C481.757,133.961,483.781,128.157,484.793,128.078C485.805,128,485.805,133.647,486.817,135.843C487.829,138.039,489.854,136.784,490.866,136C491.878,135.216,491.878,134.902,492.89,132.549C493.902,130.196,495.926,125.804,496.938,125.843C497.95,125.882,497.95,130.353,498.962,130.196C499.974,130.039,501.998,125.255,503.01,125.216C504.023,125.176,504.023,129.882,505.035,130.039C506.047,130.196,508.071,125.804,509.083,126.118C510.095,126.431,510.095,131.451,511.107,131.294C512.119,131.137,514.143,125.804,515.155,125.412C516.167,125.02,516.167,129.569,517.18,128.784C518.192,128,520.216,121.882,521.228,122.212C522.24,122.541,522.24,129.318,523.252,132.298C524.264,135.278,526.288,134.463,527.3,135.467C528.312,136.471,528.312,139.294,529.324,140.863C530.336,142.431,532.361,142.745,533.373,142.431C534.385,142.118,534.385,141.176,535.397,140.863C536.409,140.549,538.433,140.863,539.445,141.176C540.457,141.49,540.457,141.804,541.469,140.235C542.481,138.667,544.505,135.216,545.517,134.275C546.529,133.333,546.53,134.902,547.542,134.588C548.554,134.275,550.578,132.078,551.59,131.922C552.602,131.765,552.602,133.647,553.614,133.333C554.626,133.02,556.65,130.51,557.662,130.98C558.674,131.451,558.674,134.902,559.687,134.745C560.699,134.588,562.723,130.824,563.735,131.137C564.747,131.451,564.747,135.843,565.759,138.039C566.771,140.235,568.795,140.235,569.807,139.765C570.819,139.294,570.819,138.353,571.831,134.275C572.843,130.196,574.867,122.98,575.88,123.922C576.892,124.863,576.892,133.961,577.904,135.608C578.916,137.255,580.94,131.451,581.952,130.039C582.964,128.627,582.964,131.608,583.976,131.647C584.988,131.686,587.012,128.784,588.024,130.039C589.036,131.294,589.037,136.706,590.049,136.824C591.061,136.941,593.085,131.765,594.097,130.98L594.097,110.745C593.085,110.275,591.061,116.314,590.049,116.118C589.037,115.922,589.036,109.49,588.024,111.059C587.012,112.627,584.988,122.196,583.976,122.549C582.964,122.902,582.964,114.039,581.952,110.118C580.94,106.196,578.916,107.216,577.904,108.98C576.892,110.745,576.892,113.255,575.88,112.784C574.867,112.314,572.843,108.863,571.831,110.118C570.819,111.373,570.819,117.333,569.807,117.49C568.795,117.647,566.771,112,565.759,112C564.747,112,564.747,117.647,563.735,114.196C562.723,110.745,560.699,98.196,559.687,98.196C558.674,98.196,558.674,110.745,557.662,111.529C556.65,112.314,554.626,101.333,553.614,101.961C552.602,102.588,552.602,114.824,551.59,115.765C550.578,116.706,548.554,106.353,547.542,104.784C546.53,103.216,546.529,110.431,545.517,110.745C544.505,111.059,542.481,104.471,541.469,105.098C540.457,105.725,540.457,113.569,539.445,113.098C538.433,112.627,536.409,103.843,535.397,105.255C534.385,106.667,534.385,118.275,533.373,121.059C532.361,123.843,530.336,117.804,529.324,116.863C528.312,115.922,528.312,120.078,527.3,121.435C526.288,122.792,524.264,121.349,523.252,116.643C522.24,111.937,522.24,103.969,521.228,103.631C520.216,103.294,518.192,110.588,517.18,112.314C516.167,114.039,516.167,110.196,515.155,108.51C514.143,106.824,512.119,107.294,511.107,105.255C510.095,103.216,510.095,98.667,509.083,99.176C508.071,99.686,506.047,105.255,505.035,105.412C504.023,105.569,504.023,100.314,503.01,100.314C501.998,100.314,499.974,105.569,498.962,106.196C497.95,106.824,497.95,102.824,496.938,102.392C495.926,101.961,493.902,105.098,492.89,104.627C491.878,104.157,491.878,100.078,490.866,101.137C489.854,102.196,487.829,108.392,486.817,108.235C485.805,108.078,485.805,101.569,484.793,101.098C483.781,100.627,481.757,106.196,480.745,106.039C479.733,105.882,479.733,100,478.721,101.922C477.709,103.843,475.685,113.569,474.673,113.725C473.661,113.882,473.66,104.471,472.648,102C471.636,99.529,469.612,104,468.6,106.196C467.588,108.392,467.588,108.314,466.576,109.153C465.564,109.992,463.54,111.749,462.528,111.278C461.516,110.808,461.516,108.11,460.503,107.043C459.491,105.976,457.467,106.541,456.455,105.286C455.443,104.031,455.443,100.957,454.431,102.933C453.419,104.91,451.395,111.937,450.383,111.937C449.371,111.937,449.371,104.91,448.359,104.729C447.347,104.549,445.323,111.216,444.31,110.902C443.298,110.588,443.298,103.294,442.286,103.922C441.274,104.549,439.25,113.098,438.238,112.941C437.226,112.784,437.226,103.922,436.214,103.373C435.202,102.824,433.178,110.588,432.166,110.431C431.154,110.275,431.153,102.196,430.141,101.49C429.129,100.784,427.105,107.451,426.093,108.235C425.081,109.02,425.081,103.922,424.069,105.294C423.057,106.667,421.033,114.51,420.021,113.725C419.009,112.941,419.009,103.529,417.997,102.431C416.984,101.333,414.96,108.549,413.948,109.647C412.936,110.745,412.936,105.725,411.924,105.255C410.912,104.784,408.888,108.863,407.876,113.725C406.864,118.588,406.864,124.235,405.852,124.527C404.84,124.818,402.816,119.754,400.791,118.655C398.767,117.556,396.743,120.423,394.719,121.596C392.695,122.769,390.671,122.247,388.647,123.527C386.623,124.807,384.598,127.888,382.574,128.907C380.55,129.927,378.526,128.885,376.502,129.044C374.478,129.203,372.454,130.562,370.429,130.536C368.405,130.51,366.381,129.098,364.357,130.327C362.333,131.556,360.309,135.425,358.285,136.34C356.26,137.255,354.236,135.216,352.212,133.621C350.188,132.026,348.164,130.876,346.14,131.817C344.116,132.758,342.091,135.791,340.067,137.229C338.043,138.667,336.019,138.51,333.995,137.804C331.971,137.098,329.947,135.843,327.922,135.922C325.898,136,323.874,137.412,321.85,137.882C319.826,138.353,317.802,137.882,315.778,138.248C313.753,138.614,311.729,139.817,309.705,139.399C307.681,138.98,305.657,136.941,303.633,136.706C301.609,136.471,299.584,138.039,297.56,137.804C295.536,137.569,293.512,135.529,291.488,135.686C289.464,135.842,287.44,138.193,285.415,139.082C283.391,139.971,281.367,139.397,279.343,139.267C277.319,139.137,275.295,139.451,273.271,139.895C271.246,140.34,269.222,140.915,267.198,140.814C265.174,140.713,263.15,139.937,261.126,139.544C259.102,139.152,257.077,139.145,255.053,139.188C253.029,139.232,251.005,139.327,248.981,139.249C246.957,139.17,244.933,138.918,242.908,139.498C240.884,140.077,238.86,141.488,236.836,142.297C234.812,143.106,232.788,143.314,230.764,143.001C228.739,142.688,226.715,141.854,224.691,141.279C222.667,140.705,220.643,140.39,218.619,140.024C216.595,139.658,214.571,139.241,212.546,139.529C210.522,139.817,208.498,140.81,206.474,141.359C204.45,141.908,202.426,142.013,200.402,141.961C198.377,141.908,196.353,141.699,194.329,141.752C192.305,141.804,190.281,142.118,188.257,142.092C186.233,142.065,184.208,141.699,182.184,142.039C180.16,142.379,178.136,143.425,176.112,143.948C174.088,144.471,172.064,144.471,170.039,144.301C168.015,144.132,165.991,143.794,163.967,144.055C161.943,144.317,159.919,145.178,157.895,145.739C155.87,146.301,153.846,146.562,151.822,147.503C149.798,148.444,147.774,150.065,145.75,149.986C143.726,149.906,141.701,148.125,139.677,148.021C137.653,147.916,135.629,149.488,133.605,151.11C131.581,152.732,129.557,154.405,127.532,156.456C125.508,158.506,123.484,160.934,121.46,161.639C119.436,162.344,117.412,161.327,115.388,160.871C113.363,160.416,111.339,160.522,109.315,161.646C107.291,162.771,105.267,164.915,103.243,167.817C101.219,170.719,99.194,174.379,97.17,176.418C95.146,178.458,93.122,178.876,91.098,179.686C89.074,180.495,87.05,181.697,85.025,183.788C83.001,185.88,80.977,188.861,78.953,191.946C76.929,195.03,74.905,198.217,72.881,200.204C70.856,202.191,68.832,202.978,66.808,207.58C64.784,212.183,62.76,220.601,60.736,223.921C58.712,227.241,56.687,225.461,54.663,228.676C52.639,231.892,50.615,240.101,48.591,245.459C46.567,250.818,44.543,253.327,42.518,257.092C40.494,260.858,38.47,265.88,36.446,272.898C34.422,279.917,32.398,288.931,30.374,298.473C28.349,308.015,26.325,318.084,24.301,328.583C22.277,339.081,20.253,350.009,18.229,356.284C16.205,362.559,14.181,364.182,12.156,369.333C10.132,374.484,8.108,383.163,6.084,395.817Z" fill="#FF5F33" opacity="0.3"/></g></g><path class="foreground" aria-hidden="true" d="" display="none"/></g><g transform="translate(0,0)"><path class="background" aria-hidden="true" d="M0,0h600v400h-600Z"/><g><g class="mark-area role-mark layer_0_layer_0_marks" clip-path="url(#clip2)" role="graphics-object" aria-roledescription="area mark container"><path aria-label="Number of environment steps: 200.38k; Success rate: 0.081; upper_Success rate: 0.116; Width: 512; Ci1 of Success rate: 0.116; Ci0 of Success rate: 0.081; Mean of Success rate: 0.0993333333333" role="graphics-symbol" aria-roledescription="errorband" d="M6.084,397.595C8.108,389.699,10.132,387.399,12.156,379.452C14.181,371.505,16.205,357.911,18.229,348.292C20.253,338.672,22.277,333.026,24.301,325.235C26.325,317.443,28.349,307.506,30.374,298.825C32.398,290.144,34.422,282.719,36.446,274.719C38.47,266.719,40.494,258.144,42.518,252.899C44.543,247.654,46.567,245.739,48.591,240.85C50.615,235.961,52.639,228.098,54.663,220.036C56.687,211.974,58.712,203.712,60.736,199.243C62.76,194.774,64.784,194.097,66.808,191.614C68.832,189.131,70.856,184.842,72.881,179.72C74.905,174.599,76.929,168.644,78.953,164.984C80.977,161.323,83.001,159.956,85.025,158.671C87.05,157.386,89.074,156.183,91.098,154.537C93.122,152.89,95.146,150.8,97.17,149.415C99.194,148.03,101.219,147.35,103.243,147.35C105.267,147.349,107.291,148.027,109.315,145.426C111.339,142.825,113.363,136.943,115.388,134.12C117.412,131.296,119.436,131.53,121.46,132.772C123.484,134.013,125.508,136.261,127.532,136C129.557,135.739,131.581,132.967,133.605,131.373C135.629,129.778,137.653,129.359,139.677,128.81C141.701,128.261,143.726,127.582,145.75,127.111C147.774,126.641,149.798,126.379,151.822,125.882C153.846,125.386,155.87,124.654,157.895,124.855C159.919,125.057,161.943,126.192,163.967,126.065C165.991,125.938,168.015,124.549,170.039,124.347C172.064,124.146,174.088,125.132,176.112,125.389C178.136,125.647,180.16,125.176,182.184,125.229C184.208,125.281,186.233,125.856,188.257,124.411C190.281,122.965,192.305,119.5,194.329,118.585C196.353,117.669,198.377,119.305,200.402,119.574C202.426,119.843,204.45,118.745,206.474,118.824C208.498,118.902,210.522,120.157,212.546,121.124C214.571,122.092,216.595,122.771,218.619,122.85C220.643,122.928,222.667,122.405,224.691,121.02C226.715,119.634,228.739,117.386,230.764,117.333C232.788,117.281,234.812,119.425,236.836,120.131C238.86,120.838,240.884,120.107,242.908,119.252C244.933,118.397,246.957,117.417,248.981,117.129C251.005,116.84,253.029,117.244,255.053,117.759C257.077,118.275,259.102,118.902,261.126,118.536C263.15,118.17,265.174,116.81,267.198,117.359C269.222,117.908,271.246,120.366,273.271,120.183C275.295,120,277.319,117.176,279.343,115.91C281.367,114.644,283.391,114.936,285.415,115.432C287.44,115.929,289.464,116.631,291.488,117.427C293.512,118.224,295.536,119.114,297.56,118.695C299.584,118.277,301.609,116.55,303.633,114.929C305.657,113.307,307.681,111.791,309.705,111.033C311.729,110.275,313.753,110.275,315.778,110.614C317.802,110.954,319.826,111.634,321.85,111.922C323.874,112.209,325.898,112.105,327.922,111.843C329.947,111.582,331.971,111.163,333.995,111.208C336.019,111.253,338.043,111.761,340.067,111.735C342.091,111.71,344.116,111.151,346.14,111.028C348.164,110.905,350.188,111.217,352.212,110.85C354.236,110.484,356.26,109.438,358.285,108.732C360.309,108.026,362.333,107.66,364.357,107.399C366.381,107.137,368.405,106.98,370.429,107.477C372.454,107.974,374.478,109.124,376.502,109.935C378.526,110.745,380.55,111.216,382.574,110.693C384.598,110.17,386.623,108.654,388.647,107.922C390.671,107.19,392.695,107.242,394.719,107.716C396.743,108.19,398.767,109.087,400.792,109.218C402.816,109.35,404.84,108.716,406.864,108.112C408.888,107.508,410.912,106.935,412.936,106.15C414.961,105.365,416.985,104.369,419.009,103.046C421.033,101.724,423.057,100.075,425.081,99.685C427.105,99.295,429.129,100.163,431.154,101.275C433.178,102.387,435.202,103.742,437.226,103.976C439.25,104.209,441.274,103.32,443.298,102.85C445.323,102.379,447.347,102.327,449.371,103.112C451.395,103.897,453.419,105.519,455.443,105.127C457.467,104.735,459.492,102.328,461.516,101.073C463.54,99.818,465.564,99.715,467.588,100.54C469.612,101.366,471.636,103.12,473.661,103.407C475.685,103.694,477.709,102.514,479.733,101.908C481.757,101.303,483.781,101.274,485.805,100.803C487.83,100.332,489.854,99.421,491.878,97.948C493.902,96.475,495.926,94.439,497.95,94.223C499.974,94.007,501.999,95.61,504.023,96.027C506.047,96.443,508.071,95.672,510.095,95.47C512.119,95.268,514.143,95.634,516.168,96.811C518.192,97.988,520.216,99.976,522.24,99.327C524.264,98.677,526.288,95.389,528.312,94.343C530.337,93.297,532.361,94.494,534.385,95.666C536.409,96.839,538.433,97.988,540.457,98.355C542.481,98.722,544.506,98.306,546.53,97.312C548.554,96.319,550.578,94.748,552.602,93.282C554.626,91.817,556.65,90.458,558.675,89.517C560.699,88.576,562.723,88.055,564.747,88.264C566.771,88.473,568.795,89.413,570.819,88.539C572.844,87.665,574.868,84.977,576.892,83.588C578.916,82.198,580.94,82.108,582.964,82.175C584.988,82.243,587.013,82.469,589.037,82.918L589.037,63.649C587.013,63.014,584.988,62.7,582.964,62.633C580.94,62.566,578.916,62.745,576.892,64.19C574.868,65.636,572.844,68.347,570.819,69.153C568.795,69.959,566.771,68.86,564.747,68.965C562.723,69.069,560.699,70.378,558.675,70.938C556.65,71.497,554.626,71.308,552.602,71.178C550.578,71.047,548.554,70.974,546.53,71.618C544.506,72.261,542.481,73.621,540.457,73.595C538.433,73.569,536.409,72.157,534.385,70.394C532.361,68.631,530.337,66.517,528.312,67.458C526.288,68.4,524.264,72.396,522.24,73.688C520.216,74.98,518.192,73.569,516.168,73.386C514.143,73.203,512.119,74.248,510.095,74.255C508.071,74.262,506.047,73.23,504.023,72.681C501.999,72.132,499.974,72.066,497.95,72.216C495.926,72.366,493.902,72.732,491.878,72.493C489.854,72.254,487.83,71.409,485.805,70.832C483.781,70.255,481.757,69.945,479.733,70.487C477.709,71.029,475.685,72.422,473.661,72.973C471.636,73.524,469.612,73.232,467.588,73.453C465.564,73.673,463.54,74.405,461.516,75.422C459.492,76.439,457.467,77.741,455.443,77.82C453.419,77.898,451.395,76.753,449.371,75.971C447.347,75.19,445.323,74.771,443.298,75.216C441.274,75.66,439.25,76.967,437.226,77.124C435.202,77.281,433.178,76.288,431.154,76.105C429.129,75.922,427.105,76.549,425.081,76.966C423.057,77.383,421.033,77.59,419.009,77.825C416.985,78.06,414.961,78.324,412.936,79.109C410.912,79.894,408.888,81.2,406.864,82.891C404.84,84.583,402.816,86.659,400.792,86.294C398.767,85.929,396.743,83.121,394.719,81.456C392.695,79.791,390.671,79.268,388.647,79.503C386.623,79.737,384.598,80.729,382.574,81.278C380.55,81.827,378.526,81.933,376.502,81.907C374.478,81.881,372.454,81.723,370.429,82.246C368.405,82.769,366.381,83.973,364.357,83.708C362.333,83.444,360.309,81.712,358.285,81.686C356.26,81.659,354.236,83.337,352.212,83.942C350.188,84.546,348.164,84.077,346.14,84.698C344.116,85.318,342.091,87.029,340.067,87.264C338.043,87.5,336.019,86.26,333.995,86.372C331.971,86.484,329.947,87.948,327.922,89.516C325.898,91.085,323.874,92.758,321.85,93.567C319.826,94.376,317.802,94.322,315.778,95.576C313.753,96.831,311.729,99.396,309.705,101.933C307.681,104.471,305.657,106.98,303.633,108.418C301.609,109.856,299.584,110.222,297.56,110.458C295.536,110.693,293.512,110.797,291.488,110.674C289.464,110.551,287.44,110.2,285.415,109.599C283.391,108.997,281.367,108.146,279.343,108.53C277.319,108.915,275.295,110.536,273.271,110.667C271.246,110.797,269.222,109.438,267.198,109.523C265.174,109.609,263.15,111.139,261.126,111.452C259.102,111.766,257.077,110.863,255.053,110.797C253.029,110.73,251.005,111.5,248.981,112.205C246.957,112.911,244.933,113.554,242.908,113.796C240.884,114.039,238.86,113.882,236.836,113.83C234.812,113.778,232.788,113.83,230.764,114.379C228.739,114.928,226.715,115.974,224.691,116.679C222.667,117.384,220.643,117.749,218.619,117.958C216.595,118.167,214.571,118.221,212.546,117.646C210.522,117.072,208.498,115.869,206.474,115.268C204.45,114.667,202.426,114.667,200.402,114.536C198.377,114.405,196.353,114.144,194.329,114.954C192.305,115.765,190.281,117.647,188.257,118.484C186.233,119.32,184.208,119.111,182.184,119.246C180.16,119.38,178.136,119.858,176.112,119.089C174.088,118.319,172.064,116.303,170.039,116.661C168.015,117.018,165.991,119.751,163.967,120.547C161.943,121.342,159.919,120.201,157.895,120.448C155.87,120.695,153.846,122.331,151.822,122.592C149.798,122.853,147.774,121.74,145.75,121.132C143.726,120.523,141.701,120.418,139.677,121.359C137.653,122.301,135.629,124.288,133.605,126.745C131.581,129.203,129.557,132.131,127.532,132.366C125.508,132.601,123.484,130.144,121.46,128.203C119.436,126.261,117.412,124.837,115.388,126.211C113.363,127.585,111.339,131.759,109.315,134.171C107.291,136.583,105.267,137.232,103.243,136.695C101.219,136.157,99.194,134.431,97.17,133.961C95.146,133.49,93.122,134.275,91.098,135.843C89.074,137.412,87.05,139.765,85.025,140.837C83.001,141.908,80.977,141.699,78.953,142.797C76.929,143.895,74.905,146.301,72.881,149.569C70.856,152.837,68.832,156.967,66.808,161.777C64.784,166.587,62.76,172.076,60.736,176.442C58.712,180.808,56.687,184.051,54.663,188.235C52.639,192.418,50.615,197.542,48.591,205.412C46.567,213.281,44.543,223.895,42.518,230.928C40.494,237.961,38.47,241.412,36.446,248.915C34.422,256.418,32.398,267.974,30.374,277.83C28.349,287.686,26.325,295.843,24.301,301.569C22.277,307.294,20.253,310.588,18.229,321.804C16.205,333.02,14.181,352.157,12.156,361.045C10.132,369.933,8.108,368.573,6.084,376.024Z" fill="#FF4B33" opacity="0.3"/></g></g><path class="foreground" aria-hidden="true" d="" display="none"/></g><g transform="translate(0,0)"><path class="background" aria-hidden="true" d="M0,0h600v400h-600Z"/><g><g class="mark-area role-mark layer_0_layer_0_marks" clip-path="url(#clip3)" role="graphics-object" aria-roledescription="area mark container"><path aria-label="Number of environment steps: 200.38k; Success rate: 0.0786666666667; upper_Success rate: 0.123691666667; Width: 1024; Ci1 of Success rate: 0.123691666667; Ci0 of Success rate: 0.0786666666667; Mean of Success rate: 0.101666666667" role="graphics-symbol" aria-roledescription="errorband" d="M6.084,393.02C8.108,379.033,10.132,364.34,12.156,349.438C14.181,334.536,16.205,319.425,18.229,310.798C20.253,302.171,22.277,300.029,24.301,291.352C26.325,282.675,28.349,267.463,30.374,257.765C32.398,248.067,34.422,243.882,36.446,237.579C38.47,231.276,40.494,222.854,42.518,217.518C44.543,212.183,46.567,209.935,48.591,203.948C50.615,197.961,52.639,188.235,54.663,179.582C56.687,170.928,58.712,163.346,60.736,159.687C62.76,156.027,64.784,156.29,66.808,154.565C68.832,152.839,70.856,149.125,72.881,145.909C74.905,142.693,76.929,139.974,78.953,136.706C80.977,133.438,83.001,129.621,85.025,127.242C87.05,124.863,89.074,123.922,91.098,124.512C93.122,125.103,95.146,127.225,97.17,127.21C99.194,127.196,101.219,125.043,103.243,123.485C105.267,121.927,107.291,120.964,109.315,120.09C111.339,119.217,113.363,118.434,115.388,118.748C117.412,119.061,119.436,120.472,121.46,121.125C123.484,121.779,125.508,121.676,127.532,121.597C129.557,121.519,131.581,121.465,133.605,121.073C135.629,120.68,137.653,119.948,139.677,118.536C141.701,117.124,143.726,115.033,145.75,113.725C147.774,112.418,149.798,111.895,151.822,110.981C153.846,110.067,155.87,108.761,157.895,107.35C159.919,105.94,161.943,104.425,163.967,103.222C165.991,102.018,168.015,101.127,170.039,99.635C172.064,98.144,174.088,96.052,176.112,95.346C178.136,94.641,180.16,95.32,182.184,95.392C184.208,95.463,186.233,94.927,188.257,95.057C190.281,95.188,192.305,95.986,194.329,94.79C196.353,93.595,198.377,90.405,200.402,88.418C202.426,86.431,204.45,85.647,206.474,84.315C208.498,82.983,210.522,81.103,212.546,80.345C214.571,79.587,216.595,79.95,218.619,80.289C220.643,80.627,222.667,80.941,224.691,79.32C226.715,77.699,228.739,74.144,230.764,72.504C232.788,70.864,234.812,71.139,236.836,70.355C238.86,69.571,240.884,67.726,242.908,67.51C244.933,67.294,246.957,68.706,248.981,69.438C251.005,70.17,253.029,70.222,255.053,69.427C257.077,68.631,259.102,66.988,261.126,66.047C263.15,65.106,265.174,64.866,267.198,65.061C269.222,65.255,271.246,65.882,273.271,65.804C275.295,65.725,277.319,64.941,279.343,65.412C281.367,65.882,283.391,67.608,285.415,67.38C287.44,67.152,289.464,64.971,291.488,64.553C293.512,64.134,295.536,65.479,297.56,66.099C299.584,66.719,301.609,66.614,303.633,66.275C305.657,65.935,307.681,65.359,309.705,65.438C311.729,65.516,313.753,66.248,315.778,66.301C317.802,66.353,319.826,65.725,321.85,65.386C323.874,65.047,325.898,64.996,327.922,64.996C329.947,64.996,331.971,65.047,333.995,64.968C336.019,64.889,338.043,64.68,340.067,64.68C342.091,64.68,344.116,64.889,346.14,64.654C348.164,64.418,350.188,63.739,352.212,63.922C354.236,64.105,356.26,65.15,358.285,65.49C360.309,65.83,362.333,65.464,364.357,65.177C366.381,64.89,368.405,64.682,370.429,64.525C372.454,64.369,374.478,64.263,376.502,64.206C378.526,64.149,380.55,64.142,382.574,64.613C384.598,65.083,386.623,66.032,388.647,65.853C390.671,65.675,392.695,64.369,394.719,63.793C396.743,63.218,398.767,63.374,400.792,64.733C402.816,66.092,404.84,68.654,406.864,69.651C408.888,70.648,410.912,70.08,412.936,69.688C414.961,69.296,416.985,69.079,419.009,68.71C421.033,68.34,423.057,67.817,425.081,66.772C427.105,65.727,429.129,64.159,431.154,64.574C433.178,64.989,435.202,67.385,437.226,67.698C439.25,68.011,441.274,66.241,443.298,65.382C445.323,64.523,447.347,64.575,449.371,65.203C451.395,65.83,453.419,67.033,455.443,67.059C457.467,67.085,459.492,65.935,461.516,64.732C463.54,63.529,465.564,62.275,467.588,61.857C469.612,61.439,471.636,61.859,473.661,61.99C475.685,62.12,477.709,61.962,479.733,62.432C481.757,62.902,483.781,64,485.805,64.968C487.83,65.936,489.854,66.774,491.878,67.061C493.902,67.349,495.926,67.086,497.95,66.484C499.974,65.882,501.999,64.941,504.023,64.628C506.047,64.315,508.071,64.63,510.095,64.656C512.119,64.682,514.143,64.42,516.168,64.105C518.192,63.791,520.216,63.425,522.24,63.608C524.264,63.791,526.288,64.523,528.312,64.523C530.337,64.523,532.361,63.791,534.385,63.739C536.409,63.686,538.433,64.314,540.457,64.366C542.481,64.418,544.506,63.895,546.53,63.686C548.554,63.477,550.578,63.582,552.602,63.869C554.626,64.157,556.65,64.627,558.675,65.177C560.699,65.727,562.723,66.356,564.747,66.774C566.771,67.192,568.795,67.4,570.819,67.138C572.844,66.876,574.868,66.144,576.892,66.406C578.916,66.668,580.94,67.924,582.964,68.16C584.988,68.396,587.013,67.612,589.037,67.193L589.037,58.375C587.013,59.187,584.988,59.868,582.964,59.947C580.94,60.026,578.916,59.503,576.892,58.876C574.868,58.248,572.844,57.516,570.819,57.437C568.795,57.357,566.771,57.929,564.747,58.06C562.723,58.191,560.699,57.88,558.675,57.829C556.65,57.778,554.626,57.987,552.602,57.804C550.578,57.621,548.554,57.046,546.53,56.784C544.506,56.523,542.481,56.575,540.457,57.307C538.433,58.039,536.409,59.451,534.385,60.182C532.361,60.914,530.337,60.965,528.312,60.677C526.288,60.39,524.264,59.763,522.24,59.189C520.216,58.614,518.192,58.092,516.168,58.17C514.143,58.248,512.119,58.928,510.095,59.373C508.071,59.817,506.047,60.026,504.023,60.523C501.999,61.02,499.974,61.804,497.95,62.169C495.926,62.535,493.902,62.481,491.878,61.488C489.854,60.494,487.83,58.561,485.805,57.673C483.781,56.784,481.757,56.941,479.733,56.993C477.709,57.046,475.685,56.993,473.661,57.098C471.636,57.203,469.612,57.464,467.588,57.516C465.564,57.569,463.54,57.412,461.516,57.935C459.492,58.458,457.467,59.66,455.443,60.392C453.419,61.124,451.395,61.386,449.371,60.654C447.347,59.922,445.323,58.196,443.298,58.073C441.274,57.95,439.25,59.429,437.226,59.612C435.202,59.795,433.178,58.682,431.154,58.36C429.129,58.039,427.105,58.51,425.081,59.163C423.057,59.817,421.033,60.654,419.009,60.706C416.985,60.758,414.961,60.026,412.936,60.13C410.912,60.234,408.888,61.174,406.864,60.86C404.84,60.546,402.816,58.979,400.792,58.457C398.767,57.935,396.743,58.458,394.719,59.033C392.695,59.608,390.671,60.235,388.647,60.512C386.623,60.788,384.598,60.713,382.574,60.582C380.55,60.451,378.526,60.263,376.502,60.221C374.478,60.18,372.454,60.286,370.429,59.895C368.405,59.503,366.381,58.614,364.357,58.118C362.333,57.621,360.309,57.516,358.285,57.203C356.26,56.889,354.236,56.366,352.212,56.575C350.188,56.784,348.164,57.725,346.14,57.412C344.116,57.098,342.091,55.529,340.067,55.32C338.043,55.111,336.019,56.261,333.995,56.837C331.971,57.412,329.947,57.412,327.922,58.118C325.898,58.824,323.874,60.235,321.85,60.863C319.826,61.49,317.802,61.333,315.778,60.471C313.753,59.608,311.729,58.039,309.705,57.778C307.681,57.516,305.657,58.562,303.633,58.902C301.609,59.242,299.584,58.876,297.56,58.824C295.536,58.771,293.512,59.033,291.488,59.294C289.464,59.556,287.44,59.817,285.415,59.007C283.391,58.196,281.367,56.314,279.343,55.843C277.319,55.373,275.295,56.314,273.271,57.046C271.246,57.778,269.222,58.301,267.198,58.819C265.174,59.338,263.15,59.852,261.126,60.192C259.102,60.532,257.077,60.697,255.053,60.885C253.029,61.072,251.005,61.281,248.981,60.997C246.957,60.713,244.933,59.937,242.908,59.963C240.884,59.989,238.86,60.818,236.836,61.625C234.812,62.431,232.788,63.216,230.764,64.157C228.739,65.098,226.715,66.196,224.691,65.751C222.667,65.306,220.643,63.318,218.619,62.873C216.595,62.429,214.571,63.528,212.546,64.444C210.522,65.359,208.498,66.092,206.474,66.353C204.45,66.614,202.426,66.405,200.402,68.183C198.377,69.961,196.353,73.725,194.329,74.614C192.305,75.503,190.281,73.516,188.257,72.026C186.233,70.536,184.208,69.542,182.184,69.515C180.16,69.488,178.136,70.426,176.112,71.629C174.088,72.831,172.064,74.298,170.039,77.123C168.015,79.948,165.991,84.131,163.967,85.515C161.943,86.899,159.919,85.485,157.895,87.786C155.87,90.086,153.846,96.102,151.822,99.136C149.798,102.17,147.774,102.222,145.75,102.667C143.726,103.111,141.701,103.948,139.677,105.255C137.653,106.562,135.629,108.34,133.605,109.307C131.581,110.275,129.557,110.431,127.532,110.928C125.508,111.425,123.484,112.261,121.46,111.843C119.436,111.425,117.412,109.752,115.388,110.039C113.363,110.327,111.339,112.575,109.315,113.856C107.291,115.137,105.267,115.451,103.243,116.011C101.219,116.571,99.194,117.378,97.17,117.927C95.146,118.476,93.122,118.768,91.098,119.096C89.074,119.425,87.05,119.791,85.025,121.699C83.001,123.608,80.977,127.059,78.953,130.065C76.929,133.072,74.905,135.634,72.881,137.647C70.856,139.66,68.832,141.124,66.808,140.575C64.784,140.026,62.76,137.464,60.736,139.712C58.712,141.961,56.687,149.02,54.663,156.444C52.639,163.869,50.615,171.66,48.591,178.118C46.567,184.575,44.543,189.699,42.518,194.352C40.494,199.005,38.47,203.187,36.446,207.997C34.422,212.808,32.398,218.247,30.374,227.497C28.349,236.748,26.325,249.809,24.301,259.901C22.277,269.992,20.253,277.114,18.229,286.373C16.205,295.631,14.181,307.027,12.156,321.72C10.132,336.413,8.108,354.403,6.084,370.062Z" fill="#E0392D" opacity="0.3"/></g></g><path class="foreground" aria-hidden="true" d="" display="none"/></g><g transform="translate(0,0)"><path class="background" aria-hidden="true" d="M0,0h600v400h-600Z"/><g><g class="mark-area role-mark layer_0_layer_0_marks" clip-path="url(#clip4)" role="graphics-object" aria-roledescription="area mark container"><path aria-label="Number of environment steps: 200.38k; Success rate: 0.111; upper_Success rate: 0.168666666667; Width: 2048; Ci1 of Success rate: 0.168666666667; Ci0 of Success rate: 0.111; Mean of Success rate: 0.140333333333" role="graphics-symbol" aria-roledescription="errorband" d="M6.084,369.624C8.108,355.925,10.132,346.043,12.156,330.827C14.181,315.61,16.205,295.06,18.229,280.21C20.253,265.359,22.277,256.209,24.301,248.183C26.325,240.157,28.349,233.255,30.374,228.575C32.398,223.895,34.422,221.438,36.446,212.777C38.47,204.117,40.494,189.253,42.518,180.627C44.543,172,46.567,169.61,48.591,165.983C50.615,162.356,52.639,157.492,54.663,154.667C56.687,151.843,58.712,151.059,60.736,147.986C62.76,144.912,64.784,139.55,66.808,136.727C68.832,133.903,70.856,133.618,72.881,133.11C74.905,132.603,76.929,131.872,78.953,130.565C80.977,129.258,83.001,127.374,85.025,126.85C87.05,126.327,89.074,127.163,91.098,127.649C93.122,128.134,95.146,128.269,97.17,127.824C99.194,127.38,101.219,126.357,103.243,124.382C105.267,122.407,107.291,119.48,109.315,117.258C111.339,115.035,113.363,113.518,115.388,112.603C117.412,111.688,119.436,111.375,121.46,110.878C123.484,110.382,125.508,109.701,127.532,108.839C129.557,107.978,131.581,106.936,133.605,106.387C135.629,105.838,137.653,105.782,139.677,104.394C141.701,103.007,143.726,100.288,145.75,97.15C147.774,94.013,149.798,90.458,151.822,86.562C153.846,82.667,155.87,78.431,157.895,75.817C159.919,73.203,161.943,72.209,163.967,70.902C165.991,69.595,168.015,67.974,170.039,67.556C172.064,67.137,174.088,67.922,176.112,67.843C178.136,67.765,180.16,66.824,182.184,66.536C184.208,66.248,186.233,66.614,188.257,66.797C190.281,66.98,192.305,66.98,194.329,65.098C196.353,63.216,198.377,59.451,200.402,59.373C202.426,59.294,204.45,62.902,206.474,64.34C208.498,65.778,210.522,65.046,212.546,63.529C214.571,62.013,216.595,59.712,218.619,59.139C220.643,58.565,222.667,59.718,224.691,60.189C226.715,60.66,228.739,60.45,230.764,60.867C232.788,61.284,234.812,62.328,236.836,62.982C238.86,63.635,240.884,63.898,242.908,62.617C244.933,61.336,246.957,58.511,248.981,58.354C251.005,58.196,253.029,60.706,255.053,61.57C257.077,62.434,259.102,61.652,261.126,60.345C263.15,59.038,265.174,57.205,267.198,55.629C269.222,54.053,271.246,52.734,273.271,52.63C275.295,52.526,277.319,53.638,279.343,53.905C281.367,54.173,283.391,53.596,285.415,53.569C287.44,53.542,289.464,54.065,291.488,54.693C293.512,55.32,295.536,56.052,297.56,56.079C299.584,56.106,301.609,55.427,303.633,55.062C305.657,54.697,307.681,54.644,309.705,54.578C311.729,54.512,313.753,54.433,315.778,55.112C317.802,55.791,319.826,57.229,321.85,57.346C323.874,57.464,325.898,56.261,327.922,56.575C329.947,56.889,331.971,58.719,333.995,59.033C336.019,59.346,338.043,58.144,340.067,57.856C342.091,57.569,344.116,58.196,346.14,59.843C348.164,61.49,350.188,64.157,352.212,64.42C354.236,64.682,356.26,62.541,358.285,60.816C360.309,59.092,362.333,57.783,364.357,56.736C366.381,55.689,368.405,54.903,370.429,55.164C372.454,55.425,374.478,56.732,376.502,58.401C378.526,60.071,380.55,62.103,382.574,62.103C384.598,62.104,386.623,60.074,388.647,59.058C390.671,58.042,392.695,58.041,394.719,57.831C396.743,57.621,398.767,57.203,400.792,55.687C402.816,54.171,404.84,51.558,406.864,50.46C408.888,49.362,410.912,49.779,412.936,50.459C414.961,51.14,416.985,52.084,419.009,51.692C421.033,51.299,423.057,49.571,425.081,47.792C427.105,46.013,429.129,44.183,431.154,43.294C433.178,42.405,435.202,42.458,437.226,43.712C439.25,44.967,441.274,47.425,443.298,47.735C445.323,48.045,447.347,46.207,449.371,45.371C451.395,44.534,453.419,44.698,455.443,45.016C457.467,45.333,459.492,45.804,461.516,46.222C463.54,46.641,465.564,47.007,467.588,46.222C469.612,45.438,471.636,43.503,473.661,42.562C475.685,41.621,477.709,41.673,479.733,41.856C481.757,42.039,483.781,42.353,485.805,43.503C487.83,44.654,489.854,46.641,491.878,47.451C493.902,48.261,495.926,47.895,497.95,46.51C499.974,45.125,501.999,42.722,504.023,40.313C506.047,37.905,508.071,35.492,510.095,35.177C512.119,34.863,514.143,36.647,516.168,36.154C518.192,35.66,520.216,32.889,522.24,32.732C524.264,32.575,526.288,35.033,528.312,38.222C530.337,41.412,532.361,45.333,534.385,47.53C536.409,49.727,538.433,50.199,540.457,49.922C542.481,49.646,544.506,48.621,546.53,47.915C548.554,47.208,550.578,46.82,552.602,46.575C554.626,46.331,556.65,46.23,558.675,45.682C560.699,45.133,562.723,44.137,564.747,43.116C566.771,42.094,568.795,41.047,570.819,41.388C572.844,41.729,574.868,43.459,576.892,45.393C578.916,47.328,580.94,49.468,582.964,50.826C584.988,52.184,587.013,52.761,589.037,51.506L589.037,32.836C587.013,32.888,584.988,32.52,582.964,31.527C580.94,30.533,578.916,28.914,576.892,27.32C574.868,25.725,572.844,24.157,570.819,24.209C568.795,24.261,566.771,25.935,564.747,27.399C562.723,28.863,560.699,30.118,558.675,30.301C556.65,30.484,554.626,29.595,552.602,29.833C550.578,30.071,548.554,31.435,546.53,31.566C544.506,31.697,542.481,30.593,540.457,30.748C538.433,30.902,536.409,32.314,534.385,32.339C532.361,32.365,530.337,31.004,528.312,29.618C526.288,28.233,524.264,26.822,522.24,26.457C520.216,26.092,518.192,26.771,516.168,26.883C514.143,26.994,512.119,26.537,510.095,26.668C508.071,26.798,506.047,27.514,504.023,29.075C501.999,30.635,499.974,33.039,497.95,34.477C495.926,35.915,493.902,36.387,491.878,36.519C489.854,36.651,487.83,36.443,485.805,34.849C483.781,33.255,481.757,30.275,479.733,28.888C477.709,27.502,475.685,27.71,473.661,28.886C471.636,30.063,469.612,32.208,467.588,34.065C465.564,35.922,463.54,37.49,461.516,37.15C459.492,36.81,457.467,34.562,455.443,33.408C453.419,32.254,451.395,32.194,449.371,32.9C447.347,33.606,445.323,35.077,443.298,34.898C441.274,34.719,439.25,32.889,437.226,31.712C435.202,30.535,433.178,30.01,431.154,31.212C429.129,32.414,427.105,35.342,425.081,37.12C423.057,38.897,421.033,39.523,419.009,40.177C416.985,40.831,414.961,41.514,412.936,41.175C410.912,40.837,408.888,39.477,406.864,39.503C404.84,39.529,402.816,40.941,400.792,40.366C398.767,39.791,396.743,37.229,394.719,36.915C392.695,36.601,390.671,38.536,388.647,40.51C386.623,42.484,384.598,44.497,382.574,44.497C380.55,44.497,378.526,42.484,376.502,41.005C374.478,39.527,372.454,38.583,370.429,38.426C368.405,38.269,366.381,38.899,364.357,39.659C362.333,40.418,360.309,41.307,358.285,41.908C356.26,42.51,354.236,42.824,352.212,43.634C350.188,44.444,348.164,45.752,346.14,44.863C344.116,43.974,342.091,40.889,340.067,40.392C338.043,39.895,336.019,41.987,333.995,41.595C331.971,41.203,329.947,38.327,327.922,37.201C325.898,36.076,323.874,36.701,321.85,36.536C319.826,36.372,317.802,35.418,315.778,33.825C313.753,32.231,311.729,29.998,309.705,29.508C307.681,29.018,305.657,30.272,303.633,31.893C301.609,33.514,299.584,35.502,297.56,36.888C295.536,38.275,293.512,39.059,291.488,39.216C289.464,39.373,287.44,38.902,285.415,38.51C283.391,38.118,281.367,37.804,279.343,36.339C277.319,34.875,275.295,32.259,273.271,33.07C271.246,33.88,269.222,38.117,267.198,40.287C265.174,42.458,263.15,42.562,261.126,43.503C259.102,44.444,257.077,46.222,255.053,46.405C253.029,46.588,251.005,45.176,248.981,45.28C246.957,45.384,244.933,47.004,242.908,47.082C240.884,47.161,238.86,45.698,236.836,44.208C234.812,42.719,232.788,41.203,230.764,41.488C228.739,41.773,226.715,43.859,224.691,44.904C222.667,45.949,220.643,45.953,218.619,46.661C216.595,47.369,214.571,48.78,212.546,51.003C210.522,53.226,208.498,56.26,206.474,56.47C204.45,56.68,202.426,54.065,200.402,54.039C198.377,54.013,196.353,56.575,194.329,57.255C192.305,57.935,190.281,56.732,188.257,56.261C186.233,55.791,184.208,56.052,182.184,56.392C180.16,56.732,178.136,57.15,176.112,56.863C174.088,56.575,172.064,55.582,170.039,55.79C168.015,55.999,165.991,57.409,163.967,59.422C161.943,61.435,159.919,64.051,157.895,66.168C155.87,68.285,153.846,69.903,151.822,71.288C149.798,72.673,147.774,73.825,145.75,75.499C143.726,77.174,141.701,79.371,139.677,80.575C137.653,81.778,135.629,81.987,133.605,84.418C131.581,86.85,129.557,91.503,127.532,93.072C125.508,94.641,123.484,93.124,121.46,93.438C119.436,93.752,117.412,95.895,115.388,98.118C113.363,100.34,111.339,102.641,109.315,105.438C107.291,108.235,105.267,111.529,103.243,113.871C101.219,116.212,99.194,117.6,97.17,118.254C95.146,118.907,93.122,118.826,91.098,118.969C89.074,119.111,87.05,119.477,85.025,120.732C83.001,121.987,80.977,124.131,78.953,125.333C76.929,126.536,74.905,126.797,72.881,126.098C70.856,125.399,68.832,123.74,66.808,125.282C64.784,126.824,62.76,131.567,60.736,134.2C58.712,136.834,56.687,137.358,54.663,138.64C52.639,139.922,50.615,141.961,48.591,143.07C46.567,144.179,44.543,144.359,42.518,150.424C40.494,156.489,38.47,168.441,36.446,177.371C34.422,186.301,32.398,192.209,30.374,201.516C28.349,210.824,26.325,223.529,24.301,233.804C22.277,244.078,20.253,251.922,18.229,263.242C16.205,274.562,14.181,289.359,12.156,302.693C10.132,316.026,8.108,327.895,6.084,342.405Z" fill="#B22B24" opacity="0.3"/></g></g><path class="foreground" aria-hidden="true" d="" display="none"/></g><g transform="translate(0,0)"><path class="background" aria-hidden="true" d="M0,0h600v400h-600Z"/><g><g class="mark-area role-mark layer_0_layer_0_marks" clip-path="url(#clip5)" role="graphics-object" aria-roledescription="area mark container"><path aria-label="Number of environment steps: 200.38k; Success rate: 0.1504; upper_Success rate: 0.1596; Width: 4096; Ci1 of Success rate: 0.1596; Ci0 of Success rate: 0.1504; Mean of Success rate: 0.1548" role="graphics-symbol" aria-roledescription="errorband" d="M6.084,359.498C8.108,344.659,10.132,327.718,12.156,305.255C14.181,282.792,16.205,254.808,18.229,236.047C20.253,217.286,22.277,207.749,24.301,199.278C26.325,190.808,28.349,183.404,30.374,178.573C32.398,173.741,34.422,171.482,36.446,170.949C38.47,170.416,40.494,171.608,42.518,169.725C44.543,167.843,46.567,162.886,48.591,158.745C50.615,154.604,52.639,151.278,54.663,147.984C56.687,144.69,58.712,141.427,60.736,139.639C62.76,137.851,64.784,137.537,66.808,138.196C68.832,138.855,70.856,140.486,72.881,139.482C74.905,138.478,76.929,134.839,78.953,132.769C80.977,130.698,83.001,130.196,85.025,129.788C87.05,129.38,89.074,129.067,91.098,128.6C93.122,128.133,95.146,127.514,97.17,126.448C99.194,125.382,101.219,123.87,103.243,122.642C105.267,121.415,107.291,120.472,109.315,118.873C111.339,117.274,113.363,115.018,115.388,112.729C117.412,110.441,119.436,108.119,121.46,106.456C123.484,104.792,125.508,103.787,127.532,103.534C129.557,103.282,131.581,103.782,133.605,102.653C135.629,101.523,137.653,98.764,139.677,99.517C141.701,100.27,143.726,104.535,145.75,103.938C147.774,103.341,149.798,97.882,151.822,92.894C153.846,87.906,155.87,83.388,157.895,80.345C159.919,77.302,161.943,75.733,163.967,72.472C165.991,69.211,168.015,64.257,170.039,62.908C172.064,61.559,174.088,63.815,176.112,64.82C178.136,65.824,180.16,65.578,182.184,64.731C184.208,63.884,186.233,62.436,188.257,61.681C190.281,60.925,192.305,60.863,194.329,59.859C196.353,58.855,198.377,56.91,200.402,57.035C202.426,57.161,204.45,59.357,206.474,60.549C208.498,61.741,210.522,61.929,212.546,60.737C214.571,59.545,216.595,56.973,218.619,54.557C220.643,52.141,222.667,49.882,224.691,50.29C226.715,50.698,228.739,53.773,230.764,54.4C232.788,55.027,234.812,53.208,236.836,52.267C238.86,51.325,240.884,51.263,242.908,50.667C244.933,50.071,246.957,48.941,248.981,49.004C251.005,49.067,253.029,50.322,255.053,51.169C257.077,52.016,259.102,52.455,261.126,53.051C263.15,53.647,265.174,54.4,267.198,52.706C269.222,51.012,271.246,46.871,273.271,46.369C275.295,45.867,277.319,49.004,279.343,50.85C281.367,52.695,283.391,53.25,285.415,51.116C287.44,48.983,289.464,44.162,291.488,42.316C293.512,40.471,295.536,41.6,297.56,42.762C299.584,43.923,301.609,45.117,303.633,46.518C305.657,47.919,307.681,49.528,309.705,51.326C311.729,53.124,313.753,55.111,315.778,56.596C317.802,58.081,319.826,59.064,321.85,58.897C323.874,58.729,325.898,57.412,327.922,56.409C329.947,55.407,331.971,54.72,333.995,54.03C336.019,53.34,338.043,52.646,340.067,51.609C342.091,50.573,344.116,49.192,346.14,49.631C348.164,50.071,350.188,52.329,352.212,53.459C354.236,54.588,356.26,54.588,358.285,56.158C360.309,57.729,362.333,60.869,364.357,60.053C366.381,59.238,368.405,54.466,370.429,53.147C372.454,51.827,374.478,53.961,376.502,55.027C378.526,56.094,380.55,56.094,382.574,54.431C384.598,52.769,386.623,49.443,388.647,47.561C390.671,45.678,392.695,45.239,394.719,45.616C396.743,45.992,398.767,47.184,400.792,49.475C402.816,51.765,404.84,55.153,406.864,54.588C408.888,54.024,410.912,49.506,412.936,49.945C414.961,50.384,416.985,55.78,419.009,57.569C421.033,59.357,423.057,57.537,425.081,57.443C427.105,57.349,429.129,58.98,431.154,58.573C433.178,58.165,435.202,55.718,437.226,54.306C439.25,52.894,441.274,52.518,443.298,50.573C445.323,48.627,447.347,45.114,449.371,43.89C451.395,42.667,453.419,43.733,455.443,43.357C457.467,42.98,459.492,41.161,461.516,41.851C463.54,42.541,465.564,45.741,467.588,45.835C469.612,45.929,471.636,42.918,473.661,42.635C475.685,42.353,477.709,44.8,479.733,45.616C481.757,46.431,483.781,45.616,485.805,45.929C487.83,46.243,489.854,47.686,491.878,47.467C493.902,47.247,495.926,45.365,497.95,45.992C499.974,46.62,501.999,49.757,504.023,53.208C506.047,56.659,508.071,60.424,510.095,58.635C512.119,56.847,514.143,49.506,516.168,46.902C518.192,44.298,520.216,46.431,522.24,47.09C524.264,47.749,526.288,46.933,528.312,44.424C530.337,41.914,532.361,37.71,534.385,36.299C536.409,34.888,538.433,36.27,540.457,37.87C542.481,39.47,544.506,41.288,546.53,40.999C548.554,40.711,550.578,38.316,552.602,36.81C554.626,35.305,556.65,34.688,558.675,36.261C560.699,37.835,562.723,41.6,564.747,40.91C566.771,40.22,568.795,35.075,570.819,33.851C572.844,32.627,574.868,35.325,576.892,37.584C578.916,39.843,580.94,41.663,582.964,41.537C584.988,41.412,587.013,39.341,589.037,38.494L589.037,31.686C587.013,33.318,584.988,34.071,582.964,33.757C580.94,33.443,578.916,32.063,576.892,30.651C574.868,29.239,572.844,27.796,570.819,27.451C568.795,27.106,566.771,27.859,564.747,27.89C562.723,27.922,560.699,27.231,558.675,26.855C556.65,26.478,554.626,26.416,552.602,26.855C550.578,27.294,548.554,28.235,546.53,28.421C544.506,28.607,542.481,28.038,540.457,27.504C538.433,26.971,536.409,26.474,534.385,27.888C532.361,29.302,530.337,32.627,528.312,35.137C526.288,37.647,524.264,39.341,522.24,38.776C520.216,38.212,518.192,35.388,516.168,35.859C514.143,36.329,512.119,40.094,510.095,40.188C508.071,40.282,506.047,36.706,504.023,33.976C501.999,31.247,499.974,29.365,497.95,29.49C495.926,29.616,493.902,31.749,491.878,31.906C489.854,32.063,487.83,30.243,485.805,29.27C483.781,28.296,481.757,28.169,479.733,28.013C477.709,27.856,475.685,27.669,473.661,27.701C471.636,27.733,469.612,27.984,467.588,28.392C465.564,28.8,463.54,29.365,461.516,30.494C459.492,31.624,457.467,33.318,455.443,33.787C453.419,34.257,451.395,33.503,449.371,34.538C447.347,35.573,445.323,38.398,443.298,38.304C441.274,38.21,439.25,35.197,437.226,35.134C435.202,35.071,433.178,37.959,431.154,39.685C429.129,41.412,427.105,41.976,425.081,41.851C423.057,41.725,421.033,40.91,419.009,40.596C416.985,40.282,414.961,40.471,412.936,40.502C410.912,40.533,408.888,40.408,406.864,39.214C404.84,38.02,402.816,35.758,400.792,34.628C398.767,33.498,396.743,33.5,394.719,33.031C392.695,32.562,390.671,31.622,388.647,31.435C386.623,31.247,384.598,31.812,382.574,32.471C380.55,33.129,378.526,33.882,376.502,35.137C374.478,36.392,372.454,38.149,370.429,39.686C368.405,41.224,366.381,42.541,364.357,41.6C362.333,40.659,360.309,37.459,358.285,35.451C356.26,33.443,354.236,32.627,352.212,32.501C350.188,32.375,348.164,32.938,346.14,33.5C344.116,34.061,342.091,34.621,340.067,35.94C338.043,37.258,336.019,39.335,333.995,40.467C331.971,41.598,329.947,41.785,327.922,42.852C325.898,43.918,323.874,45.865,321.85,44.517C319.826,43.169,317.802,38.525,315.778,36.361C313.753,34.196,311.729,34.51,309.705,35.294C307.681,36.078,305.657,37.333,303.633,37.459C301.609,37.584,299.584,36.58,297.56,35.231C295.536,33.882,293.512,32.188,291.488,32.559C289.464,32.929,287.44,35.365,285.415,36.4C283.391,37.435,281.367,37.071,279.343,36.763C277.319,36.455,275.295,36.204,273.271,36.047C271.246,35.89,269.222,35.827,267.198,36.267C265.174,36.706,263.15,37.647,261.126,38.463C259.102,39.278,257.077,39.969,255.053,39.467C253.029,38.965,251.005,37.271,248.981,37.145C246.957,37.02,244.933,38.463,242.908,38.306C240.884,38.149,238.86,36.392,236.836,35.606C234.812,34.82,232.788,35.005,230.764,35.915C228.739,36.825,226.715,38.46,224.691,39.089C222.667,39.718,220.643,39.341,218.619,40.188C216.595,41.035,214.571,43.106,212.546,45.114C210.522,47.122,208.498,49.067,206.474,48.471C204.45,47.875,202.426,44.737,200.402,42.604C198.377,40.471,196.353,39.341,194.329,39.906C192.305,40.471,190.281,42.729,188.257,42.416C186.233,42.102,184.208,39.216,182.184,40C180.16,40.784,178.136,45.239,176.112,46.776C174.088,48.314,172.064,46.933,170.039,48.063C168.015,49.192,165.991,52.831,163.967,54.62C161.943,56.408,159.919,56.345,157.895,57.914C155.87,59.482,153.846,62.682,151.822,65.473C149.798,68.264,147.774,70.645,145.75,73.28C143.726,75.915,141.701,78.805,139.677,79.685C137.653,80.565,135.629,79.435,133.605,77.898C131.581,76.361,129.557,74.416,127.532,75.605C125.508,76.795,123.484,81.12,121.46,85.92C119.436,90.72,117.412,95.995,115.388,100.453C113.363,104.91,111.339,108.549,109.315,110.839C107.291,113.129,105.267,114.071,103.243,114.384C101.219,114.696,99.194,114.381,97.17,115.165C95.146,115.95,93.122,117.834,91.098,118.462C89.074,119.09,87.05,118.463,85.025,117.741C83.001,117.02,80.977,116.204,78.953,118.557C76.929,120.91,74.905,126.431,72.881,128.816C70.856,131.2,68.832,130.447,66.808,129.882C64.784,129.318,62.76,128.941,60.736,130.667C58.712,132.392,56.687,136.22,54.663,138.792C52.639,141.365,50.615,142.682,48.591,145.38C46.567,148.078,44.543,152.157,42.518,154.478C40.494,156.8,38.47,157.365,36.446,156.706C34.422,156.047,32.398,154.165,30.374,157.522C28.349,160.878,26.325,169.475,24.301,178.918C22.277,188.361,20.253,198.651,18.229,215.247C16.205,231.843,14.181,254.745,12.156,274.259C10.132,293.773,8.108,309.898,6.084,329.537Z" fill="#7A1F18" opacity="0.3"/></g></g><path class="foreground" aria-hidden="true" d="" display="none"/></g></g><g class="mark-group role-scope layer_1_pathgroup" role="graphics-object" aria-roledescription="group mark container"><g transform="translate(0,0)"><path class="background" aria-hidden="true" d="M0,0h600v400h-600Z"/><g><g class="mark-line role-mark layer_1_marks" clip-path="url(#clip6)" role="graphics-object" aria-roledescription="line mark container"><path aria-label="Number of environment steps: 200.38k; Success rate: 0.044; Width: 256" role="graphics-symbol" aria-roledescription="line mark" d="M6.084,400C8.108,386.824,10.132,378.824,12.156,373.987C14.181,369.15,16.205,367.477,18.229,361.752C20.253,356.026,22.277,346.248,24.301,336.777C26.325,327.305,28.349,318.14,30.374,309.094C32.398,300.049,34.422,291.122,36.446,284.149C38.47,277.176,40.494,272.157,42.518,268.105C44.543,264.052,46.567,260.967,48.591,255.346C50.615,249.725,52.639,241.569,54.663,237.778C56.687,233.987,58.712,234.562,60.736,232.105C62.76,229.647,64.784,224.157,66.808,220.889C68.832,217.621,70.856,216.575,72.881,214.614C74.905,212.654,76.929,209.778,78.953,206.667C80.977,203.556,83.001,200.209,85.025,197.516C87.05,194.824,89.074,192.784,91.098,191.085C93.122,189.386,95.146,188.026,97.17,185.464C99.194,182.902,101.219,179.137,103.243,177.49C105.267,175.843,107.291,176.314,109.315,175.974C111.339,175.634,113.363,174.484,115.388,174.286C117.412,174.088,119.436,174.842,121.46,174.058C123.484,173.274,125.508,170.951,127.532,169.214C129.557,167.477,131.581,166.327,133.605,164.471C135.629,162.614,137.653,160.052,139.677,160C141.701,159.948,143.726,162.405,145.75,162.693C147.774,162.98,149.798,161.098,151.822,160.026C153.846,158.954,155.87,158.693,157.895,157.546C159.919,156.4,161.943,154.368,163.967,154.747C165.991,155.126,168.015,157.916,170.039,158.174C172.064,158.431,174.088,156.157,176.112,154.026C178.136,151.895,180.16,149.908,182.184,148.68C184.208,147.451,186.233,146.98,188.257,146.458C190.281,145.935,192.305,145.359,194.329,145.072C196.353,144.784,198.377,144.784,200.402,144.627C202.426,144.471,204.45,144.157,206.474,143.791C208.498,143.425,210.522,143.007,212.546,142.928C214.571,142.85,216.595,143.111,218.619,143.137C220.643,143.163,222.667,142.954,224.691,143.686C226.715,144.418,228.739,146.092,230.764,146.379C232.788,146.667,234.812,145.569,236.836,144.471C238.86,143.373,240.884,142.275,242.908,141.748C244.933,141.221,246.957,141.266,248.981,141.266C251.005,141.266,253.029,141.221,255.053,141.042C257.077,140.863,259.102,140.549,261.126,140.784C263.15,141.02,265.174,141.804,267.198,142.144C269.222,142.484,271.246,142.379,273.271,142.039C275.295,141.699,277.319,141.124,279.343,141.098C281.367,141.072,283.391,141.595,285.415,141.124C287.44,140.654,289.464,139.19,291.488,138.902C293.512,138.614,295.536,139.503,297.56,139.634C299.584,139.765,301.609,139.137,303.633,139.399C305.657,139.66,307.681,140.81,309.705,141.176C311.729,141.542,313.753,141.124,315.778,140.993C317.802,140.863,319.826,141.02,321.85,140.654C323.874,140.288,325.898,139.399,327.922,139.451C329.947,139.503,331.971,140.497,333.995,140.758C336.019,141.02,338.043,140.549,340.067,139.529C342.091,138.51,344.116,136.941,346.14,136.444C348.164,135.948,350.188,136.523,352.212,137.516C354.236,138.51,356.26,139.922,358.285,139.32C360.309,138.719,362.333,136.105,364.357,135.111C366.381,134.118,368.405,134.745,370.429,134.824C372.454,134.902,374.478,134.431,376.502,135.007C378.526,135.582,380.55,137.203,382.574,136.366C384.598,135.529,386.623,132.235,388.647,130.667C390.671,129.098,392.695,129.255,394.719,128.471C396.743,127.686,398.767,125.961,400.791,126.039C402.816,126.118,404.84,128,405.852,127.937C406.864,127.875,406.864,125.867,407.876,122.024C408.888,118.18,410.912,112.502,411.924,113.741C412.936,114.98,412.936,123.137,413.948,123.843C414.96,124.549,416.984,117.804,417.997,117.804C419.009,117.804,419.009,124.549,420.021,124.392C421.033,124.235,423.057,117.176,424.069,116.588C425.081,116,425.081,121.882,426.093,121.176C427.105,120.471,429.129,113.176,430.141,113.529C431.153,113.882,431.154,121.882,432.166,122.118C433.178,122.353,435.202,114.824,436.214,115.294C437.226,115.765,437.226,124.235,438.238,123.765C439.25,123.294,441.274,113.882,442.286,113.843C443.298,113.804,443.298,123.137,444.31,124.549C445.323,125.961,447.347,119.451,448.359,119.522C449.371,119.592,449.371,126.243,450.383,125.145C451.395,124.047,453.419,115.2,454.431,112.753C455.443,110.306,455.443,114.259,456.455,114.965C457.467,115.671,459.491,113.129,460.503,113.945C461.516,114.761,461.516,118.933,462.528,119.718C463.54,120.502,465.564,117.898,466.576,118.322C467.588,118.745,467.588,122.196,468.6,120.706C469.612,119.216,471.636,112.784,472.648,114.212C473.66,115.639,473.661,124.925,474.673,125.239C475.685,125.553,477.709,116.894,478.721,115.78C479.733,114.667,479.733,121.098,480.745,121.176C481.757,121.255,483.781,114.98,484.793,115.451C485.805,115.922,485.805,123.137,486.817,124.314C487.829,125.49,489.854,120.627,490.866,119.529C491.878,118.431,491.878,121.098,492.89,120.157C493.902,119.216,495.926,114.667,496.938,114.941C497.95,115.216,497.95,120.314,498.962,119.922C499.974,119.529,501.998,113.647,503.01,113.451C504.023,113.255,504.023,118.745,505.035,118.745C506.047,118.745,508.071,113.255,509.083,113.451C510.095,113.647,510.095,119.529,511.107,120.471C512.119,121.412,514.143,117.412,515.155,117.49C516.167,117.569,516.167,121.725,517.18,120.471C518.192,119.216,520.216,112.549,521.228,113.247C522.24,113.945,522.24,122.008,523.252,125.851C524.264,129.694,526.288,129.318,527.3,129.169C528.312,129.02,528.312,129.098,529.324,129.987C530.336,130.876,532.361,132.575,533.373,130.967C534.385,129.359,534.385,124.444,535.397,123.608C536.409,122.771,538.433,126.013,539.445,126.327C540.457,126.641,540.457,124.026,541.469,123.399C542.481,122.771,544.505,124.131,545.517,124.078C546.529,124.026,546.53,122.562,547.542,123.085C548.554,123.608,550.578,126.118,551.59,125.49C552.602,124.863,552.602,121.098,553.614,120.471C554.626,119.843,556.65,122.353,557.662,122.614C558.674,122.876,558.674,120.889,559.687,120.837C560.699,120.784,562.723,122.667,563.735,124.078C564.747,125.49,564.747,126.431,565.759,128.052C566.771,129.673,568.795,131.974,569.807,131.503C570.819,131.033,570.819,127.791,571.831,124.706C572.843,121.621,574.867,118.693,575.88,119.529C576.892,120.366,576.892,124.967,577.904,125.203C578.916,125.438,580.94,121.307,581.952,121.908C582.964,122.51,582.964,127.843,583.976,127.882C584.988,127.922,587.012,122.667,588.024,122.51C589.036,122.353,589.037,127.294,590.049,127.059C591.061,126.824,593.085,121.412,594.097,121.255" stroke="#FF5F33" stroke-width="2"/></g></g><path class="foreground" aria-hidden="true" d="" display="none"/></g><g transform="translate(0,0)"><path class="background" aria-hidden="true" d="M0,0h600v400h-600Z"/><g><g class="mark-line role-mark layer_1_marks" clip-path="url(#clip7)" role="graphics-object" aria-roledescription="line mark container"><path aria-label="Number of environment steps: 200.38k; Success rate: 0.0993333333333; Width: 512" role="graphics-symbol" aria-roledescription="line mark" d="M6.084,386.954C8.108,379.451,10.132,379.137,12.156,370.614C14.181,362.092,16.205,345.359,18.229,335.059C20.253,324.758,22.277,320.889,24.301,314.144C26.325,307.399,28.349,297.778,30.374,288.34C32.398,278.902,34.422,269.647,36.446,261.961C38.47,254.275,40.494,248.157,42.518,241.856C44.543,235.556,46.567,229.072,48.591,222.745C50.615,216.418,52.639,210.248,54.663,204.209C56.687,198.17,58.712,192.261,60.736,187.791C62.76,183.32,64.784,180.288,66.808,176.497C68.832,172.706,70.856,168.157,72.881,163.817C74.905,159.477,76.929,155.346,78.953,152.967C80.977,150.588,83.001,149.961,85.025,148.81C87.05,147.66,89.074,145.987,91.098,144.261C93.122,142.536,95.146,140.758,97.17,140.366C99.194,139.974,101.219,140.967,103.243,141.513C105.267,142.058,107.291,142.155,109.315,139.613C111.339,137.07,113.363,131.888,115.388,129.826C117.412,127.765,119.436,128.824,121.46,130.529C123.484,132.235,125.508,134.588,127.532,134.301C129.557,134.013,131.581,131.085,133.605,129.046C135.629,127.007,137.653,125.856,139.677,125.124C141.701,124.392,143.726,124.078,145.75,124.134C147.774,124.19,149.798,124.616,151.822,124.224C153.846,123.832,155.87,122.622,157.895,122.599C159.919,122.577,161.943,123.742,163.967,123.204C165.991,122.667,168.015,120.426,170.039,120.179C172.064,119.933,174.088,121.681,176.112,122.323C178.136,122.965,180.16,122.502,182.184,122.454C184.208,122.405,186.233,122.771,188.257,121.591C190.281,120.411,192.305,117.684,194.329,116.796C196.353,115.907,198.377,116.855,200.402,117.068C202.426,117.281,204.45,116.758,206.474,117.098C208.498,117.438,210.522,118.641,212.546,119.399C214.571,120.157,216.595,120.471,218.619,120.392C220.643,120.314,222.667,119.843,224.691,118.824C226.715,117.804,228.739,116.235,230.764,115.974C232.788,115.712,234.812,116.758,236.836,117.124C238.86,117.49,240.884,117.176,242.908,116.59C244.933,116.004,246.957,115.145,248.981,114.674C251.005,114.204,253.029,114.121,255.053,114.39C257.077,114.659,259.102,115.279,261.126,114.913C263.15,114.547,265.174,113.195,267.198,113.539C269.222,113.882,271.246,115.922,273.271,115.765C275.295,115.608,277.319,113.255,279.343,112.329C281.367,111.402,283.391,111.903,285.415,112.452C287.44,113.001,289.464,113.599,291.488,114.054C293.512,114.51,295.536,114.824,297.56,114.51C299.584,114.196,301.609,113.255,303.633,111.686C305.657,110.118,307.681,107.922,309.705,106.458C311.729,104.993,313.753,104.261,315.778,104C317.802,103.739,319.826,103.948,321.85,103.477C323.874,103.007,325.898,101.856,327.922,100.81C329.947,99.765,331.971,98.824,333.995,98.958C336.019,99.092,338.043,100.303,340.067,100.172C342.091,100.041,344.116,98.57,346.14,98.069C348.164,97.569,350.188,98.039,352.212,97.673C354.236,97.307,356.26,96.105,358.285,95.817C360.309,95.529,362.333,96.157,364.357,96.261C366.381,96.366,368.405,95.948,370.429,95.922C372.454,95.895,374.478,96.261,376.502,96.523C378.526,96.784,380.55,96.941,382.574,96.314C384.598,95.686,386.623,94.275,388.647,93.83C390.671,93.386,392.695,93.908,394.719,95.148C396.743,96.388,398.767,98.345,400.792,98.581C402.816,98.816,404.84,97.33,406.864,95.907C408.888,94.484,410.912,93.124,412.936,92.366C414.961,91.608,416.985,91.451,419.009,90.678C421.033,89.905,423.057,88.515,425.081,87.993C427.105,87.47,429.129,87.813,431.154,88.586C433.178,89.359,435.202,90.562,437.226,90.614C439.25,90.667,441.274,89.569,443.298,89.176C445.323,88.784,447.347,89.098,449.371,89.778C451.395,90.458,453.419,91.503,455.443,91.216C457.467,90.928,459.492,89.307,461.516,88.157C463.54,87.007,465.564,86.327,467.588,86.614C469.612,86.902,471.636,88.157,473.661,88.026C475.685,87.895,477.709,86.379,479.733,85.595C481.757,84.81,483.781,84.758,485.805,84.837C487.83,84.915,489.854,85.124,491.878,84.706C493.902,84.288,495.926,83.242,497.95,82.936C499.974,82.629,501.999,83.063,504.023,83.507C506.047,83.951,508.071,84.407,510.095,84.373C512.119,84.34,514.143,83.817,516.168,84.34C518.192,84.863,520.216,86.431,522.24,85.277C524.264,84.123,526.288,80.246,528.312,79.331C530.337,78.416,532.361,80.463,534.385,82.114C536.409,83.765,538.433,85.02,540.457,85.255C542.481,85.49,544.506,84.706,546.53,83.862C548.554,83.018,550.578,82.114,552.602,81.46C554.626,80.807,556.65,80.403,558.675,79.496C560.699,78.588,562.723,77.176,564.747,76.993C566.771,76.81,568.795,77.856,570.819,77.218C572.844,76.579,574.868,74.256,576.892,72.713C578.916,71.171,580.94,70.409,582.964,70.275C584.988,70.14,587.013,70.633,589.037,71.47" stroke="#FF4B33" stroke-width="2"/></g></g><path class="foreground" aria-hidden="true" d="" display="none"/></g><g transform="translate(0,0)"><path class="background" aria-hidden="true" d="M0,0h600v400h-600Z"/><g><g class="mark-line role-mark layer_1_marks" clip-path="url(#clip8)" role="graphics-object" aria-roledescription="line mark container"><path aria-label="Number of environment steps: 200.38k; Success rate: 0.101666666667; Width: 1024" role="graphics-symbol" aria-roledescription="line mark" d="M6.084,381.229C8.108,366.588,10.132,350.745,12.156,336.314C14.181,321.882,16.205,308.863,18.229,300.026C20.253,291.19,22.277,286.536,24.301,277.02C26.325,267.503,28.349,253.124,30.374,243.503C32.398,233.882,34.422,229.02,36.446,223.111C38.47,217.203,40.494,210.248,42.518,204.706C44.543,199.163,46.567,195.033,48.591,189.072C50.615,183.111,52.639,175.32,54.663,167.529C56.687,159.739,58.712,151.948,60.736,148.967C62.76,145.987,64.784,147.817,66.808,147.425C68.832,147.033,70.856,144.418,72.881,141.804C74.905,139.19,76.929,136.575,78.953,133.438C80.977,130.301,83.001,126.641,85.025,124.471C87.05,122.301,89.074,121.621,91.098,121.74C93.122,121.86,95.146,122.779,97.17,122.521C99.194,122.263,101.219,120.829,103.243,119.795C105.267,118.76,107.291,118.125,109.315,117.049C111.339,115.974,113.363,114.458,115.388,114.353C117.412,114.248,119.436,115.556,121.46,116.052C123.484,116.549,125.508,116.235,127.532,116.105C129.557,115.974,131.581,116.026,133.605,115.425C135.629,114.824,137.653,113.569,139.677,112.261C141.701,110.954,143.726,109.595,145.75,108.68C147.774,107.765,149.798,107.294,151.822,105.516C153.846,103.739,155.87,100.654,157.895,98.797C159.919,96.941,161.943,96.314,163.967,94.719C165.991,93.124,168.015,90.562,170.039,88.366C172.064,86.17,174.088,84.34,176.112,83.294C178.136,82.248,180.16,81.987,182.184,81.972C184.208,81.957,186.233,82.189,188.257,83.077C190.281,83.966,192.305,85.513,194.329,84.325C196.353,83.137,198.377,79.216,200.402,77.072C202.426,74.928,204.45,74.562,206.474,73.83C208.498,73.098,210.522,72,212.546,71.399C214.571,70.797,216.595,70.693,218.619,71.085C220.643,71.477,222.667,72.366,224.691,71.843C226.715,71.32,228.739,69.386,230.764,68.216C232.788,67.046,234.812,66.641,236.836,65.796C238.86,64.952,240.884,63.669,242.908,63.715C244.933,63.761,246.957,65.135,248.981,65.744C251.005,66.353,253.029,66.196,255.053,65.576C257.077,64.956,259.102,63.873,261.126,63.193C263.15,62.514,265.174,62.237,267.198,62.021C269.222,61.804,271.246,61.647,273.271,61.203C275.295,60.758,277.319,60.026,279.343,60.627C281.367,61.229,283.391,63.163,285.415,63.477C287.44,63.791,289.464,62.484,291.488,62.17C293.512,61.856,295.536,62.536,297.56,62.876C299.584,63.216,301.609,63.216,303.633,62.771C305.657,62.327,307.681,61.438,309.705,61.647C311.729,61.856,313.753,63.163,315.778,63.634C317.802,64.105,319.826,63.739,321.85,63.163C323.874,62.588,325.898,61.804,327.922,61.464C329.947,61.124,331.971,61.229,333.995,60.941C336.019,60.654,338.043,59.974,340.067,60.105C342.091,60.235,344.116,61.176,346.14,61.176C348.164,61.176,350.188,60.235,352.212,60.183C354.236,60.131,356.26,60.967,358.285,61.359C360.309,61.752,362.333,61.699,364.357,61.778C366.381,61.856,368.405,62.065,370.429,62.144C372.454,62.222,374.478,62.17,376.502,62.189C378.526,62.207,380.55,62.297,382.574,62.585C384.598,62.872,386.623,63.358,388.647,63.13C390.671,62.902,392.695,61.961,394.719,61.386C396.743,60.81,398.767,60.601,400.792,61.542C402.816,62.484,404.84,64.575,406.864,65.311C408.888,66.047,410.912,65.427,412.936,65.139C414.961,64.852,416.985,64.896,419.009,64.474C421.033,64.052,423.057,63.163,425.081,62.353C427.105,61.542,429.129,60.81,431.154,61.434C433.178,62.058,435.202,64.037,437.226,64.116C439.25,64.194,441.274,62.372,443.298,61.879C445.323,61.386,447.347,62.222,449.371,62.797C451.395,63.373,453.419,63.686,455.443,63.373C457.467,63.059,459.492,62.118,461.516,61.359C463.54,60.601,465.564,60.026,467.588,59.817C469.612,59.608,471.636,59.765,473.661,59.765C475.685,59.765,477.709,59.608,479.733,59.608C481.757,59.608,483.781,59.765,485.805,60.706C487.83,61.647,489.854,63.373,491.878,64.157C493.902,64.941,495.926,64.784,497.95,64.34C499.974,63.895,501.999,63.163,504.023,62.745C506.047,62.327,508.071,62.222,510.095,62.013C512.119,61.804,514.143,61.49,516.168,61.412C518.192,61.333,520.216,61.49,522.24,61.778C524.264,62.065,526.288,62.484,528.312,62.536C530.337,62.588,532.361,62.275,534.385,61.935C536.409,61.595,538.433,61.229,540.457,60.967C542.481,60.706,544.506,60.549,546.53,60.575C548.554,60.601,550.578,60.81,552.602,60.967C554.626,61.124,556.65,61.229,558.675,61.542C560.699,61.856,562.723,62.379,564.747,62.614C566.771,62.85,568.795,62.797,570.819,62.641C572.844,62.484,574.868,62.222,576.892,62.588C578.916,62.954,580.94,63.948,582.964,64.078C584.988,64.209,587.013,63.477,589.037,62.824" stroke="#E0392D" stroke-width="2"/></g></g><path class="foreground" aria-hidden="true" d="" display="none"/></g><g transform="translate(0,0)"><path class="background" aria-hidden="true" d="M0,0h600v400h-600Z"/><g><g class="mark-line role-mark layer_1_marks" clip-path="url(#clip9)" role="graphics-object" aria-roledescription="line mark container"><path aria-label="Number of environment steps: 200.38k; Success rate: 0.140333333333; Width: 2048" role="graphics-symbol" aria-roledescription="line mark" d="M6.084,355.529C8.108,341.229,10.132,329.987,12.156,315.817C14.181,301.647,16.205,284.549,18.229,271.765C20.253,258.98,22.277,250.51,24.301,241.307C26.325,232.105,28.349,222.17,30.374,215.111C32.398,208.052,34.422,203.869,36.446,194.536C38.47,185.203,40.494,170.719,42.518,163.373C44.543,156.026,46.567,155.817,48.591,153.987C50.615,152.157,52.639,148.706,54.663,146.693C56.687,144.68,58.712,144.105,60.736,141.206C62.76,138.308,64.784,133.087,66.808,130.865C68.832,128.642,70.856,129.419,72.881,129.572C74.905,129.725,76.929,129.255,78.953,128.026C80.977,126.797,83.001,124.81,85.025,123.843C87.05,122.876,89.074,122.928,91.098,123.163C93.122,123.399,95.146,123.817,97.17,123.373C99.194,122.928,101.219,121.621,103.243,119.425C105.267,117.229,107.291,114.144,109.315,111.582C111.339,109.02,113.363,106.98,115.388,105.438C117.412,103.895,119.436,102.85,121.46,102.745C123.484,102.641,125.508,103.477,127.532,102.222C129.557,100.967,131.581,97.621,133.605,95.869C135.629,94.118,137.653,93.961,139.677,92.627C141.701,91.294,143.726,88.784,145.75,86.379C147.774,83.974,149.798,81.673,151.822,79.059C153.846,76.444,155.87,73.516,157.895,71.163C159.919,68.81,161.943,67.033,163.967,65.333C165.991,63.634,168.015,62.013,170.039,61.542C172.064,61.072,174.088,61.752,176.112,61.856C178.136,61.961,180.16,61.49,182.184,61.386C184.208,61.281,186.233,61.542,188.257,61.882C190.281,62.222,192.305,62.641,194.329,61.255C196.353,59.869,198.377,56.68,200.402,56.627C202.426,56.575,204.45,59.66,206.474,60.418C208.498,61.176,210.522,59.608,212.546,57.725C214.571,55.843,216.595,53.647,218.619,52.915C220.643,52.183,222.667,52.915,224.691,52.627C226.715,52.34,228.739,51.033,230.764,51.111C232.788,51.19,234.812,52.654,236.836,53.673C238.86,54.693,240.884,55.268,242.908,54.693C244.933,54.118,246.957,52.392,248.981,52.366C251.005,52.34,253.029,54.013,255.053,54.222C257.077,54.431,259.102,53.176,261.126,52.131C263.15,51.085,265.174,50.248,267.198,48.379C269.222,46.51,271.246,43.608,273.271,43.059C275.295,42.51,277.319,44.314,279.343,45.242C281.367,46.17,283.391,46.222,285.415,46.353C287.44,46.484,289.464,46.693,291.488,46.85C293.512,47.007,295.536,47.111,297.56,46.51C299.584,45.908,301.609,44.601,303.633,43.869C305.657,43.137,307.681,42.98,309.705,43.157C311.729,43.333,313.753,43.843,315.778,44.732C317.802,45.621,319.826,46.889,321.85,47.078C323.874,47.268,325.898,46.379,327.922,47.059C329.947,47.739,331.971,49.987,333.995,50.275C336.019,50.562,338.043,48.889,340.067,49.02C342.091,49.15,344.116,51.085,346.14,52.314C348.164,53.542,350.188,54.065,352.212,53.778C354.236,53.49,356.26,52.392,358.285,51.32C360.309,50.248,362.333,49.203,364.357,48.314C366.381,47.425,368.405,46.693,370.429,46.902C372.454,47.111,374.478,48.261,376.502,49.968C378.526,51.675,380.55,53.938,382.574,53.991C384.598,54.043,386.623,51.884,388.647,50.151C390.671,48.418,392.695,47.111,394.719,47.085C396.743,47.059,398.767,48.314,400.792,47.922C402.816,47.529,404.84,45.49,406.864,44.915C408.888,44.34,410.912,45.229,412.936,45.752C414.961,46.275,416.985,46.431,419.009,45.961C421.033,45.49,423.057,44.392,425.081,42.614C427.105,40.837,429.129,38.379,431.154,37.15C433.178,35.922,435.202,35.922,437.226,37.15C439.25,38.379,441.274,40.837,443.298,41.124C445.323,41.412,447.347,39.529,449.371,38.693C451.395,37.856,453.419,38.065,455.443,38.902C457.467,39.739,459.492,41.203,461.516,41.49C463.54,41.778,465.564,40.889,467.588,39.608C469.612,38.327,471.636,36.654,473.661,35.791C475.685,34.928,477.709,34.876,479.733,35.686C481.757,36.497,483.781,38.17,485.805,39.477C487.83,40.784,489.854,41.725,491.878,41.908C493.902,42.092,495.926,41.516,497.95,40.157C499.974,38.797,501.999,36.654,504.023,34.693C506.047,32.732,508.071,30.954,510.095,30.536C512.119,30.118,514.143,31.059,516.168,30.835C518.192,30.611,520.216,29.221,522.24,29.483C524.264,29.744,526.288,31.656,528.312,33.841C530.337,36.026,532.361,38.484,534.385,39.425C536.409,40.366,538.433,39.791,540.457,39.69C542.481,39.589,544.506,39.963,546.53,39.414C548.554,38.865,550.578,37.393,552.602,37.049C554.626,36.706,556.65,37.49,558.675,37.307C560.699,37.124,562.723,35.974,564.747,34.484C566.771,32.993,568.795,31.163,570.819,31.216C572.844,31.268,574.868,33.203,576.892,35.216C578.916,37.229,580.94,39.32,582.964,40.601C584.988,41.882,587.013,42.353,589.037,41.595" stroke="#B22B24" stroke-width="2"/></g></g><path class="foreground" aria-hidden="true" d="" display="none"/></g><g transform="translate(0,0)"><path class="background" aria-hidden="true" d="M0,0h600v400h-600Z"/><g><g class="mark-line role-mark layer_1_marks" clip-path="url(#clip10)" role="graphics-object" aria-roledescription="line mark container"><path aria-label="Number of environment steps: 200.38k; Success rate: 0.1548; Width: 4096" role="graphics-symbol" aria-roledescription="line mark" d="M6.084,345.224C8.108,327.969,10.132,311.09,12.156,290.008C14.181,268.925,16.205,243.639,18.229,225.882C20.253,208.125,22.277,197.898,24.301,188.863C26.325,179.827,28.349,171.984,30.374,167.969C32.398,163.953,34.422,163.765,36.446,163.89C38.47,164.016,40.494,164.455,42.518,162.008C44.543,159.561,46.567,154.227,48.591,150.745C50.615,147.263,52.639,145.631,54.663,143.122C56.687,140.612,58.712,137.224,60.736,135.467C62.76,133.71,64.784,133.584,66.808,133.929C68.832,134.275,70.856,135.09,72.881,133.396C74.905,131.702,76.929,127.498,78.953,125.522C80.977,123.545,83.001,123.796,85.025,123.859C87.05,123.922,89.074,123.796,91.098,123.137C93.122,122.478,95.146,121.286,97.17,120.533C99.194,119.78,101.219,119.467,103.243,118.745C105.267,118.024,107.291,116.894,109.315,114.824C111.339,112.753,113.363,109.741,115.388,106.667C117.412,103.592,119.436,100.455,121.46,97.255C123.484,94.055,125.508,90.792,127.532,89.631C129.557,88.471,131.581,89.412,133.605,89.475C135.629,89.537,137.653,88.722,139.677,89.067C141.701,89.412,143.726,90.918,145.75,89.475C147.774,88.031,149.798,83.639,151.822,79.184C153.846,74.729,155.87,70.212,157.895,67.702C159.919,65.192,161.943,64.69,163.967,62.4C165.991,60.11,168.015,56.031,170.039,54.996C172.064,53.961,174.088,55.969,176.112,55.718C178.136,55.467,180.16,52.957,182.184,52.11C184.208,51.263,186.233,52.078,188.257,51.922C190.281,51.765,192.305,50.635,194.329,49.694C196.353,48.753,198.377,48,200.402,49.224C202.426,50.447,204.45,53.647,206.474,54.902C208.498,56.157,210.522,55.467,212.546,53.647C214.571,51.827,216.595,48.878,218.619,47.122C220.643,45.365,222.667,44.8,224.691,44.925C226.715,45.051,228.739,45.867,230.764,45.678C232.788,45.49,234.812,44.298,236.836,44.078C238.86,43.859,240.884,44.612,242.908,44.361C244.933,44.11,246.957,42.855,248.981,42.886C251.005,42.918,253.029,44.235,255.053,44.925C257.077,45.616,259.102,45.678,261.126,45.584C263.15,45.49,265.174,45.239,267.198,44.173C269.222,43.106,271.246,41.224,273.271,41.129C275.295,41.035,277.319,42.729,279.343,43.911C281.367,45.093,283.391,45.762,285.415,44.162C287.44,42.562,289.464,38.693,291.488,37.417C293.512,36.141,295.536,37.459,297.56,38.714C299.584,39.969,301.609,41.161,303.633,41.757C305.657,42.353,307.681,42.353,309.705,42.876C311.729,43.399,313.753,44.444,315.778,46.358C317.802,48.272,319.826,51.054,321.85,51.535C323.874,52.016,325.898,50.196,327.922,49.224C329.947,48.251,331.971,48.125,333.995,47.247C336.019,46.369,338.043,44.737,340.067,43.514C342.091,42.29,344.116,41.475,346.14,41.38C348.164,41.286,350.188,41.914,352.212,42.541C354.236,43.169,356.26,43.796,358.285,45.835C360.309,47.875,362.333,51.325,364.357,51.325C366.381,51.325,368.405,47.875,370.429,46.306C372.454,44.737,374.478,45.051,376.502,45.02C378.526,44.988,380.55,44.612,382.574,43.451C384.598,42.29,386.623,40.345,388.647,39.467C390.671,38.588,392.695,38.776,394.719,39.122C396.743,39.467,398.767,39.969,400.792,41.663C402.816,43.357,404.84,46.243,406.864,46.62C408.888,46.996,410.912,44.863,412.936,45.114C414.961,45.365,416.985,48,419.009,49.067C421.033,50.133,423.057,49.631,425.081,49.725C427.105,49.82,429.129,50.51,431.154,49.475C433.178,48.439,435.202,45.678,437.226,44.925C439.25,44.173,441.274,45.427,443.298,44.424C445.323,43.42,447.347,40.157,449.371,38.933C451.395,37.71,453.419,38.525,455.443,38.024C457.467,37.522,459.492,35.702,461.516,35.576C463.54,35.451,465.564,37.02,467.588,36.988C469.612,36.957,471.636,35.325,473.661,35.043C475.685,34.761,477.709,35.827,479.733,36.267C481.757,36.706,483.781,36.518,485.805,37.051C487.83,37.584,489.854,38.839,491.878,38.494C493.902,38.149,495.926,36.204,497.95,36.486C499.974,36.769,501.999,39.278,504.023,42.573C506.047,45.867,508.071,49.945,510.095,49.224C512.119,48.502,514.143,42.98,516.168,41.443C518.192,39.906,520.216,42.353,522.24,42.98C524.264,43.608,526.288,42.416,528.312,39.906C530.337,37.396,532.361,33.569,534.385,32.094C536.409,30.62,538.433,31.498,540.457,32.314C542.481,33.129,544.506,33.882,546.53,33.637C548.554,33.391,550.578,32.146,552.602,31.362C554.626,30.578,556.65,30.254,558.675,31.127C560.699,32,562.723,34.071,564.747,33.82C566.771,33.569,568.795,30.996,570.819,30.588C572.844,30.18,574.868,31.937,576.892,33.694C578.916,35.451,580.94,37.208,582.964,37.459C584.988,37.71,587.013,36.455,589.037,35.2" stroke="#7A1F18" stroke-width="2"/></g></g><path class="foreground" aria-hidden="true" d="" display="none"/></g></g><g class="mark-group role-legend" role="graphics-symbol" aria-roledescription="legend" aria-label="Symbol legend titled 'Width' for fill color and stroke color with 5 values: 256, 512, 1024, 2048, 4096"><g transform="translate(536,283)"><path class="background" aria-hidden="true" d="M0,0h46v99h-46Z" pointer-events="none"/><g><g class="mark-group role-legend-entry"><g transform="translate(0,21)"><path class="background" aria-hidden="true" d="M0,0h0v0h0Z" pointer-events="none"/><g><g class="mark-group role-scope" role="graphics-object" aria-roledescription="group mark container"><g transform="translate(0,0)"><path class="background" aria-hidden="true" d="M0,0h46v14h-46Z" pointer-events="none" opacity="1"/><g><g class="mark-symbol role-legend-symbol" pointer-events="none"><path transform="translate(7,7)" d="M3.536,0A3.536,3.536,0,1,1,-3.536,0A3.536,3.536,0,1,1,3.536,0" fill="#FF5F33" stroke="#FF5F33" stroke-width="1.5" opacity="1"/></g><g class="mark-text role-legend-label" pointer-events="none"><text text-anchor="start" transform="translate(18,11)" font-family="Times New Roman" font-size="14px" fill="#000" opacity="1">256</text></g></g><path class="foreground" aria-hidden="true" d="" pointer-events="none" display="none"/></g><g transform="translate(0,16)"><path class="background" aria-hidden="true" d="M0,0h46v14h-46Z" pointer-events="none" opacity="1"/><g><g class="mark-symbol role-legend-symbol" pointer-events="none"><path transform="translate(7,7)" d="M3.536,0A3.536,3.536,0,1,1,-3.536,0A3.536,3.536,0,1,1,3.536,0" fill="#FF4B33" stroke="#FF4B33" stroke-width="1.5" opacity="1"/></g><g class="mark-text role-legend-label" pointer-events="none"><text text-anchor="start" transform="translate(18,11)" font-family="Times New Roman" font-size="14px" fill="#000" opacity="1">512</text></g></g><path class="foreground" aria-hidden="true" d="" pointer-events="none" display="none"/></g><g transform="translate(0,32)"><path class="background" aria-hidden="true" d="M0,0h46v14h-46Z" pointer-events="none" opacity="1"/><g><g class="mark-symbol role-legend-symbol" pointer-events="none"><path transform="translate(7,7)" d="M3.536,0A3.536,3.536,0,1,1,-3.536,0A3.536,3.536,0,1,1,3.536,0" fill="#E0392D" stroke="#E0392D" stroke-width="1.5" opacity="1"/></g><g class="mark-text role-legend-label" pointer-events="none"><text text-anchor="start" transform="translate(18,11)" font-family="Times New Roman" font-size="14px" fill="#000" opacity="1">1024</text></g></g><path class="foreground" aria-hidden="true" d="" pointer-events="none" display="none"/></g><g transform="translate(0,48)"><path class="background" aria-hidden="true" d="M0,0h46v14h-46Z" pointer-events="none" opacity="1"/><g><g class="mark-symbol role-legend-symbol" pointer-events="none"><path transform="translate(7,7)" d="M3.536,0A3.536,3.536,0,1,1,-3.536,0A3.536,3.536,0,1,1,3.536,0" fill="#B22B24" stroke="#B22B24" stroke-width="1.5" opacity="1"/></g><g class="mark-text role-legend-label" pointer-events="none"><text text-anchor="start" transform="translate(18,11)" font-family="Times New Roman" font-size="14px" fill="#000" opacity="1">2048</text></g></g><path class="foreground" aria-hidden="true" d="" pointer-events="none" display="none"/></g><g transform="translate(0,64)"><path class="background" aria-hidden="true" d="M0,0h46v14h-46Z" pointer-events="none" opacity="1"/><g><g class="mark-symbol role-legend-symbol" pointer-events="none"><path transform="translate(7,7)" d="M3.536,0A3.536,3.536,0,1,1,-3.536,0A3.536,3.536,0,1,1,3.536,0" fill="#7A1F18" stroke="#7A1F18" stroke-width="1.5" opacity="1"/></g><g class="mark-text role-legend-label" pointer-events="none"><text text-anchor="start" transform="translate(18,11)" font-family="Times New Roman" font-size="14px" fill="#000" opacity="1">4096</text></g></g><path class="foreground" aria-hidden="true" d="" pointer-events="none" display="none"/></g></g></g><path class="foreground" aria-hidden="true" d="" pointer-events="none" display="none"/></g></g><g class="mark-text role-legend-title" pointer-events="none"><text text-anchor="start" transform="translate(0,13)" font-family="Times New Roman" font-size="16px" font-weight="bold" fill="#000" opacity="1">Width</text></g></g><path class="foreground" aria-hidden="true" d="" pointer-events="none" display="none"/></g></g></g><path class="foreground" aria-hidden="true" d="" display="none"/></g></g></g><defs><clipPath id="clip1"><rect x="0" y="0" width="600" height="400"/></clipPath><clipPath id="clip2"><rect x="0" y="0" width="600" height="400"/></clipPath><clipPath id="clip3"><rect x="0" y="0" width="600" height="400"/></clipPath><clipPath id="clip4"><rect x="0" y="0" width="600" height="400"/></clipPath><clipPath id="clip5"><rect x="0" y="0" width="600" height="400"/></clipPath><clipPath id="clip6"><rect x="0" y="0" width="600" height="400"/></clipPath><clipPath id="clip7"><rect x="0" y="0" width="600" height="400"/></clipPath><clipPath id="clip8"><rect x="0" y="0" width="600" height="400"/></clipPath><clipPath id="clip9"><rect x="0" y="0" width="600" height="400"/></clipPath><clipPath id="clip10"><rect x="0" y="0" width="600" height="400"/></clipPath></defs></svg>