<svg xmlns="http://www.w3.org/2000/svg" xmlns:xlink="http://www.w3.org/1999/xlink" version="1.1" class="marks" width="749" height="458" viewBox="0 0 749 458"><rect width="749" height="458" fill="white"/><g fill="none" stroke-miterlimit="10" transform="translate(46,12)"><g class="mark-group role-frame root" role="graphics-object" aria-roledescription="group mark container"><g transform="translate(0,0)"><path class="background" aria-hidden="true" d="M0.5,0.5h600v400h-600Z" stroke="#ddd"/><g><g class="mark-group role-axis" aria-hidden="true"><g transform="translate(0.5,400.5)"><path class="background" aria-hidden="true" d="M0,0h0v0h0Z" pointer-events="none"/><g><g class="mark-rule role-axis-grid" pointer-events="none"><line transform="translate(0,-400)" x2="0" y2="400" stroke="#ddd" stroke-width="1" opacity="1"/><line transform="translate(30,-400)" x2="0" y2="400" stroke="#ddd" stroke-width="1" opacity="1"/><line transform="translate(60,-400)" x2="0" y2="400" stroke="#ddd" stroke-width="1" opacity="1"/><line transform="translate(90,-400)" x2="0" y2="400" stroke="#ddd" stroke-width="1" opacity="1"/><line transform="translate(120,-400)" x2="0" y2="400" stroke="#ddd" stroke-width="1" opacity="1"/><line transform="translate(150,-400)" x2="0" y2="400" stroke="#ddd" stroke-width="1" opacity="1"/><line transform="translate(180,-400)" x2="0" y2="400" stroke="#ddd" stroke-width="1" opacity="1"/><line transform="translate(210,-400)" x2="0" y2="400" stroke="#ddd" stroke-width="1" opacity="1"/><line transform="translate(240,-400)" x2="0" y2="400" stroke="#ddd" stroke-width="1" opacity="1"/><line transform="translate(270,-400)" x2="0" y2="400" stroke="#ddd" stroke-width="1" opacity="1"/><line transform="translate(300,-400)" x2="0" y2="400" stroke="#ddd" stroke-width="1" opacity="1"/><line transform="translate(330,-400)" x2="0" y2="400" stroke="#ddd" stroke-width="1" opacity="1"/><line transform="translate(360,-400)" x2="0" y2="400" stroke="#ddd" stroke-width="1" opacity="1"/><line transform="translate(390,-400)" x2="0" y2="400" stroke="#ddd" stroke-width="1" opacity="1"/><line transform="translate(420,-400)" x2="0" y2="400" stroke="#ddd" stroke-width="1" opacity="1"/><line transform="translate(450,-400)" x2="0" y2="400" stroke="#ddd" stroke-width="1" opacity="1"/><line transform="translate(480,-400)" x2="0" y2="400" stroke="#ddd" stroke-width="1" opacity="1"/><line transform="translate(510,-400)" x2="0" y2="400" stroke="#ddd" stroke-width="1" opacity="1"/><line transform="translate(540,-400)" x2="0" y2="400" stroke="#ddd" stroke-width="1" opacity="1"/><line transform="translate(570,-400)" x2="0" y2="400" stroke="#ddd" stroke-width="1" opacity="1"/><line transform="translate(600,-400)" x2="0" y2="400" stroke="#ddd" stroke-width="1" opacity="1"/></g></g><path class="foreground" aria-hidden="true" d="" pointer-events="none" display="none"/></g></g><g class="mark-group role-axis" aria-hidden="true"><g transform="translate(0.5,0.5)"><path class="background" aria-hidden="true" d="M0,0h0v0h0Z" pointer-events="none"/><g><g class="mark-rule role-axis-grid" pointer-events="none"><line transform="translate(0,400)" x2="600" y2="0" stroke="#ddd" stroke-width="1" opacity="1"/><line transform="translate(0,360)" x2="600" y2="0" stroke="#ddd" stroke-width="1" opacity="1"/><line transform="translate(0,320)" x2="600" y2="0" stroke="#ddd" stroke-width="1" opacity="1"/><line transform="translate(0,280)" x2="600" y2="0" stroke="#ddd" stroke-width="1" opacity="1"/><line transform="translate(0,240)" x2="600" y2="0" stroke="#ddd" stroke-width="1" opacity="1"/><line transform="translate(0,200)" x2="600" y2="0" stroke="#ddd" stroke-width="1" opacity="1"/><line transform="translate(0,160)" x2="600" y2="0" stroke="#ddd" stroke-width="1" opacity="1"/><line transform="translate(0,120)" x2="600" y2="0" stroke="#ddd" stroke-width="1" opacity="1"/><line transform="translate(0,80)" x2="600" y2="0" stroke="#ddd" stroke-width="1" opacity="1"/><line transform="translate(0,40)" x2="600" y2="0" stroke="#ddd" stroke-width="1" opacity="1"/><line transform="translate(0,0)" x2="600" y2="0" stroke="#ddd" stroke-width="1" opacity="1"/></g></g><path class="foreground" aria-hidden="true" d="" pointer-events="none" display="none"/></g></g><g class="mark-group role-axis" role="graphics-symbol" aria-roledescription="axis" aria-label="X-axis titled 'Timestep' for a linear scale with values from 0M to 100M"><g transform="translate(0.5,400.5)"><path class="background" aria-hidden="true" d="M0,0h0v0h0Z" pointer-events="none"/><g><g class="mark-rule role-axis-tick" pointer-events="none"><line transform="translate(0,0)" x2="0" y2="5" stroke="#888" stroke-width="1" opacity="1"/><line transform="translate(30,0)" x2="0" y2="5" stroke="#888" stroke-width="1" opacity="1"/><line transform="translate(60,0)" x2="0" y2="5" stroke="#888" stroke-width="1" opacity="1"/><line transform="translate(90,0)" x2="0" y2="5" stroke="#888" stroke-width="1" opacity="1"/><line transform="translate(120,0)" x2="0" y2="5" stroke="#888" stroke-width="1" opacity="1"/><line transform="translate(150,0)" x2="0" y2="5" stroke="#888" stroke-width="1" opacity="1"/><line transform="translate(180,0)" x2="0" y2="5" stroke="#888" stroke-width="1" opacity="1"/><line transform="translate(210,0)" x2="0" y2="5" stroke="#888" stroke-width="1" opacity="1"/><line transform="translate(240,0)" x2="0" y2="5" stroke="#888" stroke-width="1" opacity="1"/><line transform="translate(270,0)" x2="0" y2="5" stroke="#888" stroke-width="1" opacity="1"/><line transform="translate(300,0)" x2="0" y2="5" stroke="#888" stroke-width="1" opacity="1"/><line transform="translate(330,0)" x2="0" y2="5" stroke="#888" stroke-width="1" opacity="1"/><line transform="translate(360,0)" x2="0" y2="5" stroke="#888" stroke-width="1" opacity="1"/><line transform="translate(390,0)" x2="0" y2="5" stroke="#888" stroke-width="1" opacity="1"/><line transform="translate(420,0)" x2="0" y2="5" stroke="#888" stroke-width="1" opacity="1"/><line transform="translate(450,0)" x2="0" y2="5" stroke="#888" stroke-width="1" opacity="1"/><line transform="translate(480,0)" x2="0" y2="5" stroke="#888" stroke-width="1" opacity="1"/><line transform="translate(510,0)" x2="0" y2="5" stroke="#888" stroke-width="1" opacity="1"/><line transform="translate(540,0)" x2="0" y2="5" stroke="#888" stroke-width="1" opacity="1"/><line transform="translate(570,0)" x2="0" y2="5" stroke="#888" stroke-width="1" opacity="1"/><line transform="translate(600,0)" x2="0" y2="5" stroke="#888" stroke-width="1" opacity="1"/></g><g class="mark-text role-axis-label" pointer-events="none"><text text-anchor="start" transform="translate(0,18)" font-family="Times New Roman" font-size="14px" fill="#000" opacity="1">0</text><text text-anchor="middle" transform="translate(30,18)" font-family="Times New Roman" font-size="14px" fill="#000" opacity="0">5M</text><text text-anchor="middle" transform="translate(60,18)" font-family="Times New Roman" font-size="14px" fill="#000" opacity="1">10M</text><text text-anchor="middle" transform="translate(90,18)" font-family="Times New Roman" font-size="14px" fill="#000" opacity="0">15M</text><text text-anchor="middle" transform="translate(120,18)" font-family="Times New Roman" font-size="14px" fill="#000" opacity="1">20M</text><text text-anchor="middle" transform="translate(150,18)" font-family="Times New Roman" font-size="14px" fill="#000" opacity="0">25M</text><text text-anchor="middle" transform="translate(180,18)" font-family="Times New Roman" font-size="14px" fill="#000" opacity="1">30M</text><text text-anchor="middle" transform="translate(210,18)" font-family="Times New Roman" font-size="14px" fill="#000" opacity="0">35M</text><text text-anchor="middle" transform="translate(240,18)" font-family="Times New Roman" font-size="14px" fill="#000" opacity="1">40M</text><text text-anchor="middle" transform="translate(270,18)" font-family="Times New Roman" font-size="14px" fill="#000" opacity="0">45M</text><text text-anchor="middle" transform="translate(300,18)" font-family="Times New Roman" font-size="14px" fill="#000" opacity="1">50M</text><text text-anchor="middle" transform="translate(330,18)" font-family="Times New Roman" font-size="14px" fill="#000" opacity="0">55M</text><text text-anchor="middle" transform="translate(360,18)" font-family="Times New Roman" font-size="14px" fill="#000" opacity="1">60M</text><text text-anchor="middle" transform="translate(390,18)" font-family="Times New Roman" font-size="14px" fill="#000" opacity="0">65M</text><text text-anchor="middle" transform="translate(420,18)" font-family="Times New Roman" font-size="14px" fill="#000" opacity="1">70M</text><text text-anchor="middle" transform="translate(450,18)" font-family="Times New Roman" font-size="14px" fill="#000" opacity="0">75M</text><text text-anchor="middle" transform="translate(480,18)" font-family="Times New Roman" font-size="14px" fill="#000" opacity="1">80M</text><text text-anchor="middle" transform="translate(510,18)" font-family="Times New Roman" font-size="14px" fill="#000" opacity="0">85M</text><text text-anchor="middle" transform="translate(540,18)" font-family="Times New Roman" font-size="14px" fill="#000" opacity="1">90M</text><text text-anchor="middle" transform="translate(570,18)" font-family="Times New Roman" font-size="14px" fill="#000" opacity="0">95M</text><text text-anchor="end" transform="translate(600,18)" font-family="Times New Roman" font-size="14px" fill="#000" opacity="1">100M</text></g><g class="mark-rule role-axis-domain" pointer-events="none"><line transform="translate(0,0)" x2="600" y2="0" stroke="#888" stroke-width="1" opacity="1"/></g><g class="mark-text role-axis-title" pointer-events="none"><text text-anchor="middle" transform="translate(300,38)" font-family="Times New Roman" font-size="16px" font-weight="bold" fill="#000" opacity="1">Timestep</text></g></g><path class="foreground" aria-hidden="true" d="" pointer-events="none" display="none"/></g></g><g class="mark-group role-axis" role="graphics-symbol" aria-roledescription="axis" aria-label="Y-axis titled 'Dormant neuron ratio (%)' for a linear scale with values from 0 to 50"><g transform="translate(0.5,0.5)"><path class="background" aria-hidden="true" d="M0,0h0v0h0Z" pointer-events="none"/><g><g class="mark-rule role-axis-tick" pointer-events="none"><line transform="translate(0,400)" x2="-5" y2="0" stroke="#888" stroke-width="1" opacity="1"/><line transform="translate(0,360)" x2="-5" y2="0" stroke="#888" stroke-width="1" opacity="1"/><line transform="translate(0,320)" x2="-5" y2="0" stroke="#888" stroke-width="1" opacity="1"/><line transform="translate(0,280)" x2="-5" y2="0" stroke="#888" stroke-width="1" opacity="1"/><line transform="translate(0,240)" x2="-5" y2="0" stroke="#888" stroke-width="1" opacity="1"/><line transform="translate(0,200)" x2="-5" y2="0" stroke="#888" stroke-width="1" opacity="1"/><line transform="translate(0,160)" x2="-5" y2="0" stroke="#888" stroke-width="1" opacity="1"/><line transform="translate(0,120)" x2="-5" y2="0" stroke="#888" stroke-width="1" opacity="1"/><line transform="translate(0,80)" x2="-5" y2="0" stroke="#888" stroke-width="1" opacity="1"/><line transform="translate(0,40)" x2="-5" y2="0" stroke="#888" stroke-width="1" opacity="1"/><line transform="translate(0,0)" x2="-5" y2="0" stroke="#888" stroke-width="1" opacity="1"/></g><g class="mark-text role-axis-label" pointer-events="none"><text text-anchor="end" transform="translate(-7,404)" font-family="Times New Roman" font-size="14px" fill="#000" opacity="1">0</text><text text-anchor="end" transform="translate(-7,364)" font-family="Times New Roman" font-size="14px" fill="#000" opacity="1">5</text><text text-anchor="end" transform="translate(-7,324)" font-family="Times New Roman" font-size="14px" fill="#000" opacity="1">10</text><text text-anchor="end" transform="translate(-7,284)" font-family="Times New Roman" font-size="14px" fill="#000" opacity="1">15</text><text text-anchor="end" transform="translate(-7,244)" font-family="Times New Roman" font-size="14px" fill="#000" opacity="1">20</text><text text-anchor="end" transform="translate(-7,204)" font-family="Times New Roman" font-size="14px" fill="#000" opacity="1">25</text><text text-anchor="end" transform="translate(-7,164)" font-family="Times New Roman" font-size="14px" fill="#000" opacity="1">30</text><text text-anchor="end" transform="translate(-7,124.00000000000001)" font-family="Times New Roman" font-size="14px" fill="#000" opacity="1">35</text><text text-anchor="end" transform="translate(-7,83.99999999999999)" font-family="Times New Roman" font-size="14px" fill="#000" opacity="1">40</text><text text-anchor="end" transform="translate(-7,43.99999999999999)" font-family="Times New Roman" font-size="14px" fill="#000" opacity="1">45</text><text text-anchor="end" transform="translate(-7,4)" font-family="Times New Roman" font-size="14px" fill="#000" opacity="1">50</text></g><g class="mark-rule role-axis-domain" pointer-events="none"><line transform="translate(0,400)" x2="0" y2="-400" stroke="#888" stroke-width="1" opacity="1"/></g><g class="mark-text role-axis-title" pointer-events="none"><text text-anchor="middle" transform="translate(-25,200) rotate(-90) translate(0,-3)" font-family="Times New Roman" font-size="16px" font-weight="bold" fill="#000" opacity="1">Dormant neuron ratio (%)</text></g></g><path class="foreground" aria-hidden="true" d="" pointer-events="none" display="none"/></g></g><g class="mark-group role-scope layer_0_layer_0_pathgroup" role="graphics-object" aria-roledescription="group mark container"><g transform="translate(0,0)"><path class="background" aria-hidden="true" d="M0,0h600v400h-600Z"/><g><g class="mark-area role-mark layer_0_layer_0_marks" clip-path="url(#clip1)" role="graphics-object" aria-roledescription="area mark container"><path aria-label="Timestep: 200.38k; Dormant neuron ratio (%): 18.0190431023; upper_Dormant neuron ratio: 19.6990971851; Benchmark: MT10; Ci1 of Dormant neuron ratio: 19.6990971851; Ci0 of Dormant neuron ratio: 18.0190431023; Mean of Dormant neuron ratio: 18.8183597565" role="graphics-symbol" aria-roledescription="errorband" d="M2.405,283.552C2.805,291.022,3.206,295.844,3.607,300.51C4.008,305.176,4.409,309.685,4.809,313.537C5.21,317.388,5.611,320.583,6.012,323.052C6.412,325.521,6.813,327.266,7.214,328.464C7.615,329.662,8.016,330.314,8.416,330.978C8.817,331.642,9.218,332.319,9.619,332.907C10.019,333.495,10.42,333.994,10.821,334.389C11.222,334.784,11.623,335.075,12.023,335.329C12.424,335.582,12.825,335.799,13.226,335.614C13.626,335.43,14.027,334.844,14.428,334.221C14.829,333.599,15.23,332.939,15.63,332.043C16.031,331.147,16.432,330.014,16.833,328.933C17.233,327.852,17.634,326.823,18.035,326.235C18.436,325.647,18.837,325.5,19.237,325.048C19.638,324.597,20.039,323.843,20.44,323.111C20.841,322.38,21.241,321.672,21.642,321.438C22.043,321.203,22.444,321.443,22.844,321.046C23.245,320.649,23.646,319.615,24.047,318.94C24.448,318.264,24.848,317.947,25.249,317.613C25.65,317.28,26.051,316.928,26.451,316.586C26.852,316.243,27.253,315.908,27.654,315.606C28.055,315.304,28.455,315.035,28.856,314.547C29.257,314.059,29.658,313.351,30.058,312.59C30.459,311.828,30.86,311.012,31.261,310.166C31.662,309.319,32.062,308.443,32.463,307.519C32.864,306.594,33.265,305.622,33.665,304.455C34.066,303.288,34.467,301.927,34.868,300.814C35.269,299.701,35.669,298.835,36.07,298.048C36.471,297.26,36.872,296.549,37.272,295.4C37.673,294.25,38.074,292.66,38.475,291.382C38.876,290.103,39.276,289.135,39.677,288.477C40.078,287.82,40.479,287.473,40.88,287.109C41.28,286.744,41.681,286.362,42.082,285.209C42.483,284.056,42.883,282.132,43.284,280.843C43.685,279.554,44.086,278.9,44.487,278.325C44.887,277.75,45.288,277.254,45.689,276.772C46.09,276.29,46.49,275.822,46.891,275.332C47.292,274.842,47.693,274.33,48.094,272.978C48.494,271.625,48.895,269.433,49.296,268.074C49.697,266.715,50.097,266.191,50.498,265.44C50.899,264.69,51.3,263.714,51.701,262.833C52.101,261.953,52.502,261.169,52.903,259.775C53.304,258.381,53.704,256.377,54.105,255.124C54.506,253.871,54.907,253.369,55.308,252.933C55.708,252.498,56.109,252.129,56.51,251.667C56.911,251.205,57.311,250.649,57.712,250.13C58.113,249.612,58.514,249.13,58.915,248.084C59.315,247.038,59.716,245.428,60.117,244.035C60.518,242.641,60.919,241.465,61.319,240.458C61.72,239.451,62.121,238.614,62.522,237.526C62.922,236.439,63.323,235.101,63.724,234.164C64.125,233.226,64.526,232.688,64.926,231.85C65.327,231.012,65.728,229.875,66.129,229.096C66.529,228.318,66.93,227.897,67.331,227.241C67.732,226.584,68.133,225.69,68.533,225.013C68.934,224.336,69.335,223.876,69.736,223.264C70.136,222.651,70.537,221.886,70.938,221.029C71.339,220.171,71.74,219.221,72.14,218.112C72.541,217.002,72.942,215.734,73.343,214.816C73.743,213.898,74.144,213.329,74.545,212.14C74.946,210.951,75.347,209.141,75.747,208.781C76.148,208.421,76.549,209.511,76.95,210.16C77.35,210.809,77.751,211.018,78.152,210.594C78.553,210.171,78.954,209.116,79.354,208.224C79.755,207.333,80.156,206.605,80.557,205.727C80.958,204.849,81.358,203.819,81.759,203.044C82.16,202.268,82.561,201.747,82.961,200.954C83.362,200.162,83.763,199.098,84.164,198.064C84.565,197.029,84.965,196.023,85.366,194.821C85.767,193.62,86.168,192.222,86.568,191.523C86.969,190.824,87.37,190.822,87.771,190.976C88.172,191.13,88.572,191.438,88.973,191.65C89.374,191.863,89.775,191.98,90.175,191.652C90.576,191.324,90.977,190.552,91.378,189.981C91.779,189.41,92.179,189.041,92.58,188.559C92.981,188.078,93.382,187.483,93.782,186.991C94.183,186.498,94.584,186.107,94.985,185.176C95.386,184.245,95.786,182.774,96.187,181.486C96.588,180.197,96.989,179.092,97.389,178.044C97.79,176.996,98.191,176.005,98.592,175.033C98.993,174.061,99.393,173.107,99.794,172.792C100.195,172.477,100.596,172.801,100.996,172.534C101.397,172.266,101.798,171.407,102.199,170.376C102.6,169.345,103,168.143,103.401,167.331C103.802,166.52,104.203,166.099,104.604,166.314C105.004,166.529,105.405,167.379,105.806,168.066C106.207,168.752,106.607,169.275,107.008,169.257C107.409,169.24,107.81,168.683,108.211,168.567C108.611,168.452,109.012,168.777,109.413,168.334C109.814,167.892,110.214,166.68,110.615,165.999C111.016,165.317,111.417,165.166,111.818,164.849C112.218,164.533,112.619,164.052,113.02,163.793C113.421,163.535,113.821,163.499,114.222,163.496C114.623,163.492,115.024,163.52,115.425,163.459C115.825,163.399,116.226,163.25,116.627,162.55C117.028,161.851,117.428,160.6,117.829,159.749L117.829,135.331C117.428,136.192,117.028,137.58,116.627,138.164C116.226,138.747,115.825,138.526,115.425,138.618C115.024,138.709,114.623,139.114,114.222,139.396C113.821,139.678,113.421,139.839,113.02,140.318C112.619,140.796,112.218,141.594,111.818,142.186C111.417,142.778,111.016,143.164,110.615,143.652C110.214,144.141,109.814,144.732,109.413,145.014C109.012,145.297,108.611,145.271,108.211,145.181C107.81,145.09,107.409,144.934,107.008,145.269C106.607,145.605,106.207,146.433,105.806,147.004C105.405,147.575,105.004,147.889,104.604,148.132C104.203,148.376,103.802,148.55,103.401,149.227C103,149.904,102.6,151.084,102.199,152.217C101.798,153.35,101.397,154.435,100.997,154.906C100.596,155.377,100.195,155.234,99.794,155.404C99.393,155.573,98.993,156.055,98.592,156.682C98.191,157.308,97.79,158.081,97.389,159.071C96.989,160.062,96.588,161.271,96.187,162.24C95.786,163.21,95.386,163.941,94.985,164.643C94.584,165.345,94.183,166.019,93.782,166.59C93.382,167.161,92.981,167.629,92.58,167.556C92.179,167.484,91.779,166.87,91.378,167.077C90.977,167.283,90.576,168.309,90.175,168.904C89.775,169.5,89.374,169.665,88.973,170.181C88.572,170.698,88.172,171.566,87.771,171.99C87.37,172.413,86.969,172.391,86.568,172.437C86.168,172.482,85.767,172.595,85.366,173.293C84.965,173.992,84.565,175.276,84.164,176.281C83.763,177.286,83.362,178.011,82.961,178.467C82.561,178.923,82.16,179.11,81.759,179.784C81.358,180.459,80.958,181.622,80.557,182.496C80.156,183.371,79.755,183.957,79.354,184.352C78.954,184.747,78.553,184.951,78.152,185.368C77.751,185.785,77.35,186.414,76.95,186.571C76.549,186.727,76.148,186.41,75.747,186.869C75.347,187.329,74.946,188.564,74.545,189.443C74.144,190.322,73.743,190.844,73.343,191.639C72.942,192.434,72.541,193.502,72.14,194.643C71.74,195.785,71.339,197,70.938,197.917C70.537,198.835,70.136,199.454,69.736,199.962C69.335,200.469,68.934,200.866,68.533,201.932C68.133,202.998,67.732,204.734,67.331,205.794C66.93,206.854,66.529,207.238,66.129,207.728C65.728,208.219,65.327,208.816,64.926,209.611C64.526,210.406,64.125,211.4,63.724,212.064C63.323,212.727,62.922,213.062,62.522,213.348C62.121,213.635,61.72,213.875,61.319,214.732C60.919,215.589,60.518,217.064,60.117,218.547C59.716,220.029,59.315,221.518,58.915,222.566C58.514,223.614,58.113,224.221,57.712,224.974C57.311,225.727,56.911,226.625,56.51,227.168C56.109,227.711,55.708,227.898,55.308,228.507C54.907,229.116,54.506,230.146,54.105,231.366C53.704,232.585,53.304,233.993,52.903,235.137C52.502,236.281,52.101,237.162,51.701,238.149C51.3,239.137,50.899,240.232,50.498,241.431C50.097,242.629,49.697,243.932,49.296,245.095C48.895,246.258,48.494,247.282,48.094,248.035C47.693,248.787,47.292,249.268,46.891,250.123C46.49,250.978,46.09,252.207,45.689,253.052C45.288,253.896,44.887,254.357,44.487,254.822C44.086,255.286,43.685,255.755,43.284,256.727C42.883,257.699,42.483,259.175,42.082,260.705C41.681,262.235,41.28,263.819,40.88,264.596C40.479,265.372,40.078,265.341,39.677,266.135C39.276,266.929,38.876,268.548,38.475,269.672C38.074,270.795,37.673,271.423,37.272,272.225C36.872,273.026,36.471,274.001,36.07,275.141C35.669,276.281,35.269,277.586,34.868,278.972C34.467,280.359,34.066,281.826,33.665,283.19C33.265,284.553,32.864,285.811,32.463,287.041C32.062,288.271,31.662,289.472,31.261,290.37C30.86,291.269,30.459,291.865,30.058,292.458C29.658,293.05,29.257,293.64,28.856,293.978C28.455,294.317,28.055,294.404,27.654,295.124C27.253,295.845,26.852,297.199,26.451,298.169C26.051,299.138,25.65,299.723,25.249,300.123C24.848,300.522,24.448,300.736,24.047,300.992C23.646,301.248,23.245,301.546,22.844,302.158C22.444,302.77,22.043,303.696,21.642,304.718C21.241,305.74,20.841,306.859,20.44,307.569C20.039,308.279,19.638,308.579,19.237,309.55C18.837,310.521,18.436,312.161,18.035,313.471C17.634,314.782,17.233,315.763,16.833,316.985C16.432,318.207,16.031,319.67,15.63,321.035C15.23,322.4,14.829,323.667,14.428,324.499C14.027,325.33,13.626,325.724,13.226,325.704C12.825,325.684,12.424,325.249,12.023,324.952C11.623,324.655,11.222,324.495,10.821,324.327C10.42,324.158,10.019,323.98,9.619,323.248C9.218,322.517,8.817,321.231,8.416,320.626C8.016,320.02,7.615,320.095,7.214,319.007C6.813,317.92,6.412,315.672,6.012,312.692C5.611,309.712,5.21,306.001,4.809,301.704C4.409,297.408,4.008,292.525,3.607,287.095C3.206,281.664,2.805,275.687,2.405,268.148Z" fill="#FF4B33" opacity="0.3"/></g></g><path class="foreground" aria-hidden="true" d="" display="none"/></g><g transform="translate(0,0)"><path class="background" aria-hidden="true" d="M0,0h600v400h-600Z"/><g><g class="mark-area role-mark layer_0_layer_0_marks" clip-path="url(#clip2)" role="graphics-object" aria-roledescription="area mark container"><path aria-label="Timestep: 1.0019M; Dormant neuron ratio (%): 12.1499433517; upper_Dormant neuron ratio: 13.1722821546; Benchmark: MT50; Ci1 of Dormant neuron ratio: 13.1722821546; Ci0 of Dormant neuron ratio: 12.1499433517; Mean of Dormant neuron ratio: 12.6660159111" role="graphics-symbol" aria-roledescription="errorband" d="M12.023,334.577C14.027,343.455,16.031,349.762,18.035,354.831C20.039,359.901,22.043,363.733,24.047,366.984C26.05,370.235,28.054,372.904,30.058,375.05C32.062,377.197,34.066,378.82,36.07,380.387C38.074,381.954,40.078,383.464,42.082,384.627C44.086,385.79,46.089,386.606,48.093,387.387C50.097,388.169,52.101,388.915,54.105,389.492C56.109,390.07,58.113,390.478,60.117,390.933C62.121,391.389,64.125,391.893,66.128,392.355C68.132,392.817,70.136,393.238,72.14,393.546C74.144,393.854,76.148,394.05,78.152,394.267C80.156,394.484,82.16,394.723,84.164,394.898C86.167,395.074,88.171,395.187,90.175,395.298C92.179,395.408,94.183,395.517,96.187,395.666C98.191,395.816,100.195,396.007,102.199,396.12C104.203,396.233,106.206,396.268,108.21,396.363C110.214,396.459,112.218,396.615,114.222,396.719C116.226,396.823,118.23,396.875,120.234,396.912C122.238,396.949,124.242,396.971,126.245,396.964C128.249,396.958,130.253,396.923,132.257,396.921C134.261,396.919,136.265,396.949,138.269,396.997C140.273,397.044,142.277,397.109,144.281,397.138C146.284,397.166,148.288,397.157,150.292,397.142C152.296,397.127,154.3,397.105,156.304,397.09C158.308,397.075,160.312,397.066,162.316,397.079C164.319,397.092,166.323,397.127,168.327,397.125C170.331,397.123,172.335,397.083,174.339,397.012C176.343,396.94,178.347,396.836,180.351,396.803C182.355,396.771,184.359,396.81,186.362,396.875C188.366,396.941,190.37,397.031,192.374,397.044C194.378,397.057,196.382,396.992,198.386,396.932C200.39,396.871,202.394,396.814,204.398,396.743C206.401,396.671,208.405,396.584,210.409,396.571C212.413,396.558,214.417,396.619,216.421,396.617C218.425,396.615,220.429,396.55,222.433,396.58C224.437,396.611,226.44,396.736,228.444,396.738C230.448,396.741,232.452,396.619,234.456,396.533C236.46,396.446,238.464,396.394,240.468,396.407C242.472,396.42,244.476,396.498,246.479,396.504C248.483,396.511,250.487,396.446,252.491,396.472C254.495,396.498,256.499,396.615,258.503,396.621C260.507,396.628,262.511,396.524,264.515,396.467C266.518,396.411,268.522,396.402,270.526,396.385C272.53,396.367,274.534,396.341,276.538,396.333C278.542,396.324,280.546,396.333,282.55,396.287C284.554,396.241,286.557,396.142,288.561,396.092C290.565,396.042,292.569,396.042,294.573,395.957C296.577,395.873,298.581,395.704,300.585,395.684C302.589,395.665,304.593,395.795,306.596,395.879C308.6,395.964,310.604,396.003,312.608,395.97C314.612,395.937,316.616,395.833,318.62,395.773C320.624,395.712,322.628,395.694,324.632,395.625C326.635,395.556,328.639,395.434,330.643,395.35C332.647,395.265,334.651,395.217,336.655,395.202C338.659,395.187,340.663,395.204,342.667,395.081C344.671,394.957,346.674,394.692,348.678,394.568C350.682,394.445,352.686,394.462,354.69,394.46C356.694,394.457,358.698,394.436,360.702,394.303C362.706,394.171,364.71,393.928,366.713,393.889C368.717,393.85,370.721,394.015,372.725,393.954C374.729,393.894,376.733,393.607,378.737,393.533C380.741,393.459,382.745,393.598,384.749,393.605C386.752,393.611,388.756,393.485,390.76,393.39C392.764,393.294,394.768,393.229,396.772,393.208C398.776,393.186,400.78,393.207,402.784,393.175C404.787,393.142,406.791,393.056,408.795,393.095C410.799,393.134,412.803,393.299,414.807,393.301C416.811,393.303,418.815,393.142,420.819,393.012C422.823,392.882,424.826,392.783,426.83,392.8C428.834,392.818,430.838,392.952,432.842,392.93C434.846,392.908,436.85,392.73,438.854,392.596C440.858,392.461,442.862,392.37,444.865,392.344C446.869,392.318,448.873,392.357,450.877,392.385C452.881,392.414,454.885,392.431,456.889,392.383C458.893,392.335,460.897,392.222,462.901,392.168C464.904,392.114,466.908,392.118,468.912,392.107C470.916,392.096,472.92,392.071,474.924,391.88C476.928,391.689,478.932,391.333,480.936,391.226C482.94,391.12,484.944,391.263,486.947,391.283C488.951,391.303,490.955,391.199,492.959,391.149C494.963,391.099,496.967,391.104,498.971,390.837C500.975,390.57,502.979,390.031,504.983,389.866C506.986,389.701,508.99,389.909,510.994,389.97C512.998,390.031,515.002,389.944,517.006,389.866C519.01,389.788,521.014,389.718,523.018,389.731C525.022,389.744,527.025,389.84,529.029,389.898C531.033,389.957,533.037,389.978,535.041,389.998C537.045,390.017,539.049,390.035,541.053,389.855C543.057,389.675,545.06,389.297,547.064,389.202C549.068,389.106,551.072,389.293,553.076,389.403C555.08,389.514,557.084,389.549,559.088,389.456C561.092,389.363,563.096,389.142,565.099,388.962C567.103,388.782,569.107,388.643,571.111,388.519C573.115,388.394,575.119,388.286,577.123,388.075C579.127,387.865,581.131,387.552,583.135,387.587C585.139,387.622,587.142,388.004,589.146,388.082L589.146,382.104C587.142,382.265,585.139,382.213,583.135,382.296C581.131,382.378,579.127,382.595,577.123,382.714C575.119,382.834,573.115,382.855,571.111,382.845C569.107,382.834,567.103,382.79,565.099,383.005C563.096,383.22,561.092,383.693,559.088,383.934C557.084,384.175,555.08,384.183,553.076,384.153C551.072,384.122,549.068,384.052,547.064,384.135C545.06,384.217,543.057,384.452,541.053,384.745C539.049,385.039,537.045,385.39,535.041,385.44C533.037,385.49,531.033,385.238,529.029,383.955C527.025,382.672,525.022,380.357,523.018,380.162C521.014,379.966,519.01,381.891,517.006,383.204C515.002,384.518,512.998,385.22,510.994,385.164C508.99,385.107,506.986,384.291,504.983,383.937C502.979,383.584,500.975,383.693,498.971,384.116C496.967,384.54,494.963,385.278,492.959,385.753C490.955,386.228,488.951,386.441,486.947,386.108C484.944,385.776,482.94,384.899,480.936,384.981C478.932,385.064,476.928,386.106,474.924,386.746C472.92,387.387,470.916,387.626,468.912,387.73C466.908,387.834,464.904,387.804,462.901,387.797C460.897,387.79,458.893,387.808,456.889,387.756C454.885,387.704,452.881,387.582,450.877,387.439C448.873,387.295,446.869,387.13,444.865,387.403C442.862,387.677,440.858,388.389,438.854,388.73C436.85,389.071,434.846,389.04,432.842,388.756C430.838,388.472,428.834,387.934,426.83,387.99C424.826,388.047,422.823,388.697,420.819,389.047C418.815,389.396,416.811,389.444,414.807,389.544C412.803,389.644,410.799,389.796,408.795,389.876C406.791,389.957,404.787,389.965,402.784,389.976C400.78,389.987,398.776,389.999,396.772,390.021C394.768,390.043,392.764,390.073,390.76,390.152C388.756,390.23,386.752,390.355,384.749,390.353C382.745,390.351,380.741,390.221,378.737,390.23C376.733,390.238,374.729,390.386,372.725,390.409C370.721,390.433,368.717,390.332,366.713,390.393C364.71,390.454,362.706,390.676,360.702,390.854C358.698,391.032,356.694,391.166,354.69,391.162C352.686,391.158,350.682,391.015,348.678,391.02C346.674,391.024,344.671,391.176,342.667,391.334C340.663,391.492,338.659,391.657,336.655,391.688C334.651,391.718,332.647,391.614,330.643,391.688C328.639,391.762,326.635,392.014,324.632,392.07C322.628,392.127,320.624,391.988,318.62,391.925C316.616,391.862,314.612,391.875,312.608,391.918C310.604,391.961,308.6,392.035,306.596,392.041C304.593,392.048,302.589,391.987,300.585,392.092C298.581,392.196,296.577,392.465,294.573,392.628C292.569,392.791,290.565,392.847,288.561,392.884C286.557,392.921,284.554,392.938,282.55,392.997C280.546,393.056,278.542,393.155,276.538,393.151C274.534,393.147,272.53,393.038,270.526,393.06C268.522,393.081,266.518,393.233,264.515,393.281C262.511,393.329,260.507,393.272,258.503,393.235C256.499,393.199,254.495,393.181,252.491,393.223C250.487,393.264,248.483,393.363,246.479,391.013C244.476,388.663,242.472,383.862,240.468,383.86C238.464,383.858,236.46,388.654,234.456,391.169C232.452,393.684,230.448,393.919,228.444,393.917C226.44,393.915,224.437,393.676,222.433,393.615C220.429,393.554,218.425,393.672,216.421,393.737C214.417,393.802,212.413,393.814,210.409,393.879C208.405,393.944,206.401,394.062,204.398,394.168C202.394,394.275,200.39,394.37,198.386,394.52C196.382,394.67,194.378,394.874,192.374,390.166C190.37,385.459,188.366,375.84,186.362,375.769C184.359,375.697,182.355,385.172,180.351,389.953C178.347,394.735,176.343,394.822,174.339,394.88C172.335,394.939,170.331,394.969,168.327,394.839C166.323,394.709,164.319,394.418,162.316,394.329C160.312,394.24,158.308,394.353,156.304,394.349C154.3,394.345,152.296,394.223,150.292,394.125C148.288,394.028,146.284,393.954,144.281,393.824C142.277,393.693,140.273,393.507,138.269,393.398C136.265,393.29,134.261,393.26,132.257,393.171C130.253,393.081,128.249,392.934,126.245,392.795C124.242,392.655,122.238,392.525,120.234,392.379C118.23,392.234,116.226,392.073,114.222,391.883C112.218,391.692,110.214,391.47,108.21,391.613C106.206,391.757,104.203,392.265,102.199,392.208C100.195,392.152,98.191,391.532,96.187,391.198C94.183,390.863,92.179,390.816,90.175,390.696C88.171,390.577,86.167,390.386,84.164,390.256C82.16,390.125,80.156,390.055,78.152,389.808C76.148,389.56,74.144,389.134,72.14,388.766C70.136,388.397,68.132,388.085,66.128,387.627C64.125,387.17,62.121,386.566,60.117,386.056C58.113,385.546,56.109,385.13,54.105,384.459C52.101,383.789,50.097,382.864,48.093,381.883C46.089,380.902,44.086,379.865,42.082,378.76C40.078,377.656,38.074,376.484,36.07,374.921C34.066,373.359,32.062,371.405,30.058,368.983C28.054,366.561,26.05,363.671,24.047,360.029C22.043,356.388,20.039,351.996,18.035,346.484C16.031,340.972,14.027,334.34,12.023,325.509Z" fill="#3D494C" opacity="0.3"/></g></g><path class="foreground" aria-hidden="true" d="" display="none"/></g><g transform="translate(0,0)"><path class="background" aria-hidden="true" d="M0,0h600v400h-600Z"/><g><g class="mark-area role-mark layer_0_layer_0_marks" clip-path="url(#clip3)" role="graphics-object" aria-roledescription="area mark container"><path aria-label="Timestep: 1.00195M; Dormant neuron ratio (%): 10.400390625; upper_Dormant neuron ratio: 11.7024745941; Benchmark: MT25; Ci1 of Dormant neuron ratio: 11.7024745941; Ci0 of Dormant neuron ratio: 10.400390625; Mean of Dormant neuron ratio: 11.0839846929" role="graphics-symbol" aria-roledescription="errorband" d="M12.024,349.653C14.027,357.856,16.031,361.936,18.035,365.951C20.039,369.965,22.043,373.915,24.047,376.259C26.051,378.602,28.055,379.34,30.059,379.818C32.063,380.295,34.067,380.512,36.071,380.599C38.075,380.686,40.079,380.642,42.083,380.621C44.087,380.599,46.091,380.599,48.095,380.599C50.099,380.599,52.103,380.599,54.107,380.317C56.11,380.035,58.114,379.47,60.118,378.472C62.122,377.474,64.126,376.042,66.13,375.239C68.134,374.436,70.138,374.262,72.142,374.631C74.146,375,76.15,375.911,78.154,376.671C80.158,377.431,82.162,378.038,84.166,378.168C86.17,378.299,88.174,377.951,90.178,378.038C92.182,378.125,94.186,378.646,96.189,378.32C98.193,377.995,100.197,376.823,102.201,376.78C104.205,376.736,106.209,377.821,108.213,378.689C110.217,379.557,112.221,380.208,114.225,379.34C116.229,378.472,118.233,376.085,120.237,373.503C122.241,370.92,124.245,368.142,126.249,367.274C128.253,366.406,130.257,367.448,132.261,366.45C134.265,365.451,136.268,362.413,138.272,360.525C140.276,358.637,142.28,357.899,144.284,357.183C146.288,356.467,148.292,355.773,150.296,355.404C152.3,355.035,154.304,354.991,156.308,355.208C158.312,355.425,160.316,355.903,162.32,355.447C164.324,354.991,166.328,353.602,168.332,352.127C170.336,350.651,172.34,349.089,174.344,349.132C176.347,349.175,178.351,350.825,180.355,351.845C182.359,352.865,184.363,353.255,186.367,351.845C188.371,350.434,190.375,347.222,192.379,346.463C194.383,345.703,196.387,347.396,198.391,345.758C200.395,344.121,202.399,339.154,204.403,337.266C206.407,335.378,208.411,336.569,210.415,338.554C212.419,340.538,214.423,343.316,216.426,345.66C218.43,348.003,220.434,349.913,222.438,350.326C224.442,350.738,226.446,349.653,228.45,348.351C230.454,347.049,232.458,345.53,234.462,343.815C236.466,342.101,238.47,340.191,240.474,339.106C242.478,338.021,244.482,337.76,246.486,335.699C248.49,333.637,250.494,329.774,252.498,329.687C254.502,329.601,256.505,333.29,258.509,333.963C260.513,334.635,262.517,332.292,264.521,331.619C266.525,330.946,268.529,331.944,270.533,330.534C272.537,329.123,274.541,325.304,276.545,323.286C278.549,321.267,280.553,321.05,282.557,322.179C284.561,323.307,286.565,325.781,288.569,327.018L288.569,306.25C286.565,307.378,284.561,311.372,282.557,313.607C280.553,315.842,278.549,316.319,276.545,315.039C274.541,313.759,272.537,310.72,270.533,305.469C268.529,300.217,266.525,292.752,264.521,287.023C262.517,281.293,260.513,277.3,258.509,281.098C256.505,284.896,254.502,296.484,252.498,298.481C250.494,300.477,248.49,292.882,246.486,288.911C244.482,284.939,242.478,284.592,240.474,285.872C238.47,287.153,236.466,290.061,234.462,292.925C232.458,295.79,230.454,298.611,228.45,303.754C226.446,308.898,224.442,316.363,222.438,320.573C220.434,324.783,218.43,325.738,216.426,325.89C214.423,326.042,212.419,325.391,210.415,323.199C208.411,321.007,206.407,317.274,204.403,319.293C202.399,321.311,200.395,329.08,198.391,332.4C196.387,335.72,194.383,334.592,192.379,331.532C190.375,328.472,188.371,323.481,186.367,308.051C184.363,292.622,182.359,266.753,180.355,256.901C178.351,247.049,176.347,253.212,174.344,241.949C172.34,230.686,170.336,201.997,168.332,192.491C166.328,182.986,164.324,192.665,162.32,215.148C160.316,237.63,158.312,272.917,156.308,293.012C154.304,313.108,152.3,318.012,150.296,308.051C148.292,298.09,146.288,273.264,144.284,271.593C142.28,269.922,140.276,291.406,138.272,307.588C136.268,323.77,134.265,334.65,132.261,333.912C130.257,333.174,128.253,320.819,126.249,321.108C124.245,321.398,122.241,334.332,120.237,342.708C118.233,351.085,116.229,354.905,114.225,356.076C112.221,357.248,110.217,355.773,108.213,355.686C106.209,355.599,104.205,356.901,102.201,357.422C100.197,357.943,98.193,357.682,96.189,358.181C94.186,358.681,92.182,359.939,90.178,361.263C88.174,362.587,86.17,363.976,84.166,364.54C82.162,365.104,80.158,364.844,78.154,364.996C76.15,365.148,74.146,365.712,72.142,366.037C70.138,366.363,68.134,366.45,66.13,366.536C64.126,366.623,62.122,366.71,60.118,367.318C58.114,367.925,56.11,369.054,54.107,369.336C52.103,369.618,50.099,369.054,48.095,368.685C46.091,368.316,44.087,368.142,42.083,368.164C40.079,368.186,38.075,368.403,36.071,367.773C34.067,367.144,32.063,365.668,30.059,364.757C28.055,363.845,26.051,363.498,24.047,362.24C22.043,360.981,20.039,358.811,18.035,355.404C16.031,351.997,14.027,347.352,12.024,338.976Z" fill="#7A1F18" opacity="0.3"/></g></g><path class="foreground" aria-hidden="true" d="" display="none"/></g></g><g class="mark-group role-scope layer_1_pathgroup" role="graphics-object" aria-roledescription="group mark container"><g transform="translate(0,0)"><path class="background" aria-hidden="true" d="M0,0h600v400h-600Z"/><g><g class="mark-line role-mark layer_1_marks" clip-path="url(#clip4)" role="graphics-object" aria-roledescription="line mark container"><path aria-label="Timestep: 200.38k; Dormant neuron ratio (%): 18.8183597565; Benchmark: MT10" role="graphics-symbol" aria-roledescription="line mark" d="M2.405,275.935C2.805,283.424,3.206,288.906,3.607,293.917C4.008,298.928,4.409,303.468,4.809,307.587C5.21,311.706,5.611,315.404,6.012,318.184C6.412,320.964,6.813,322.826,7.214,324.052C7.615,325.278,8.016,325.868,8.416,326.586C8.817,327.305,9.218,328.151,9.619,328.711C10.019,329.271,10.42,329.544,10.821,329.768C11.222,329.991,11.623,330.165,12.023,330.339C12.424,330.512,12.825,330.686,13.226,330.538C13.626,330.391,14.027,329.922,14.428,329.219C14.829,328.516,15.23,327.578,15.63,326.493C16.031,325.408,16.432,324.175,16.833,323.049C17.233,321.923,17.634,320.903,18.035,319.998C18.436,319.093,18.837,318.303,19.237,317.539C19.638,316.775,20.039,316.037,20.44,315.286C20.841,314.536,21.241,313.772,21.642,313.429C22.043,313.086,22.444,313.164,22.844,312.756C23.245,312.348,23.646,311.454,24.047,310.72C24.448,309.987,24.848,309.414,25.249,309.026C25.65,308.637,26.051,308.433,26.451,307.925C26.852,307.418,27.253,306.606,27.654,306.072C28.055,305.538,28.455,305.282,28.856,304.8C29.257,304.319,29.658,303.611,30.058,302.984C30.459,302.357,30.86,301.81,31.261,301.098C31.662,300.386,32.062,299.51,32.463,298.357C32.864,297.205,33.265,295.777,33.665,294.286C34.066,292.795,34.467,291.241,34.868,289.933C35.269,288.624,35.669,287.561,36.07,286.595C36.471,285.629,36.872,284.761,37.272,283.783C37.673,282.804,38.074,281.714,38.475,280.642C38.876,279.57,39.276,278.516,39.677,277.83C40.078,277.144,40.479,276.827,40.88,276.118C41.28,275.408,41.681,274.306,42.082,273.006C42.483,271.706,42.883,270.208,43.284,269.058C43.685,267.908,44.086,267.105,44.487,266.374C44.887,265.642,45.288,264.983,45.689,264.312C46.09,263.641,46.49,262.96,46.891,262.376C47.292,261.793,47.693,261.306,48.094,260.347C48.494,259.388,48.895,257.956,49.296,256.684C49.697,255.412,50.097,254.301,50.498,253.303C50.899,252.305,51.3,251.419,51.701,250.508C52.101,249.596,52.502,248.659,52.903,247.407C53.304,246.155,53.704,244.588,54.105,243.498C54.506,242.409,54.907,241.797,55.308,241.246C55.708,240.694,56.109,240.204,56.51,239.64C56.911,239.076,57.311,238.437,57.712,237.611C58.113,236.784,58.514,235.768,58.915,234.657C59.315,233.546,59.716,232.339,60.117,230.957C60.518,229.575,60.919,228.016,61.319,227.101C61.72,226.185,62.121,225.911,62.522,225.284C62.922,224.657,63.323,223.676,63.724,222.869C64.125,222.062,64.526,221.428,64.926,220.647C65.327,219.865,65.728,218.937,66.129,218.362C66.529,217.786,66.93,217.565,67.331,216.78C67.732,215.994,68.133,214.644,68.533,213.626C68.934,212.609,69.335,211.923,69.736,211.263C70.136,210.603,70.537,209.97,70.938,209.188C71.339,208.407,71.74,207.478,72.14,206.302C72.541,205.126,72.942,203.702,73.343,202.843C73.743,201.984,74.144,201.688,74.545,200.788C74.946,199.887,75.347,198.381,75.747,197.958C76.148,197.535,76.549,198.194,76.95,198.327C77.35,198.459,77.751,198.064,78.152,197.5C78.553,196.936,78.954,196.202,79.354,195.523C79.755,194.844,80.156,194.219,80.557,193.461C80.958,192.704,81.358,191.814,81.759,191.126C82.16,190.438,82.561,189.952,82.961,189.434C83.362,188.915,83.763,188.364,84.164,187.48C84.565,186.597,84.965,185.382,85.366,184.403C85.767,183.424,86.168,182.682,86.568,182.316C86.969,181.949,87.37,181.957,87.771,181.938C88.172,181.918,88.572,181.871,88.973,181.643C89.374,181.415,89.775,181.007,90.175,180.321C90.576,179.635,90.977,178.672,91.378,178.22C91.779,177.769,92.179,177.83,92.58,177.695C92.981,177.561,93.382,177.231,93.782,176.678C94.183,176.124,94.584,175.347,94.985,174.531C95.386,173.715,95.786,172.86,96.187,171.842C96.588,170.825,96.989,169.644,97.389,168.652C97.79,167.661,98.191,166.858,98.592,166.059C98.993,165.26,99.393,164.466,99.794,164.199C100.195,163.932,100.596,164.193,100.996,163.806C101.397,163.42,101.798,162.387,102.199,161.424C102.6,160.46,103,159.566,103.401,158.859C103.802,158.151,104.203,157.63,104.604,157.465C105.004,157.3,105.405,157.491,105.806,157.431C106.207,157.37,106.607,157.057,107.008,156.895C107.409,156.732,107.81,156.719,108.211,156.775C108.611,156.832,109.012,156.957,109.413,156.504C109.814,156.05,110.214,155.017,110.615,154.444C111.016,153.872,111.417,153.759,111.818,153.294C112.218,152.83,112.619,152.014,113.02,151.595C113.421,151.176,113.821,151.155,114.222,151.089C114.623,151.024,115.024,150.916,115.425,150.755C115.825,150.595,116.226,150.382,116.627,149.789C117.028,149.197,117.428,148.225,117.829,147.563" stroke="#FF4B33" stroke-width="2"/></g></g><path class="foreground" aria-hidden="true" d="" display="none"/></g><g transform="translate(0,0)"><path class="background" aria-hidden="true" d="M0,0h600v400h-600Z"/><g><g class="mark-line role-mark layer_1_marks" clip-path="url(#clip5)" role="graphics-object" aria-roledescription="line mark container"><path aria-label="Timestep: 1.0019M; Dormant neuron ratio (%): 12.6660159111; Benchmark: MT50" role="graphics-symbol" aria-roledescription="line mark" d="M12.023,329.863C14.027,338.746,16.031,345.356,18.035,350.705C20.039,356.055,22.043,360.143,24.047,363.559C26.05,366.975,28.054,369.718,30.058,372.003C32.062,374.288,34.066,376.115,36.07,377.7C38.074,379.284,40.078,380.625,42.082,381.795C44.086,382.964,46.089,383.963,48.093,384.855C50.097,385.747,52.101,386.532,54.105,387.164C56.109,387.795,58.113,388.273,60.117,388.78C62.121,389.288,64.125,389.826,66.128,390.293C68.132,390.76,70.136,391.155,72.14,391.495C74.144,391.836,76.148,392.122,78.152,392.381C80.156,392.639,82.16,392.869,84.164,393.043C86.167,393.216,88.171,393.333,90.175,393.437C92.179,393.542,94.183,393.633,96.187,393.843C98.191,394.054,100.195,394.384,102.199,394.481C104.203,394.579,106.206,394.444,108.21,394.447C110.214,394.449,112.218,394.588,114.222,394.714C116.226,394.839,118.23,394.952,120.234,395.028C122.238,395.104,124.242,395.143,126.245,395.182C128.249,395.221,130.253,395.26,132.257,395.291C134.261,395.321,136.265,395.343,138.269,395.408C140.273,395.473,142.277,395.582,144.281,395.655C146.284,395.729,148.288,395.768,150.292,395.807C152.296,395.846,154.3,395.885,156.304,395.883C158.308,395.881,160.312,395.838,162.316,395.881C164.319,395.924,166.323,396.055,168.327,396.107C170.331,396.159,172.335,396.133,174.339,396.066C176.343,395.998,178.347,395.89,180.351,394.243C182.355,392.595,184.359,389.41,186.362,389.477C188.366,389.544,190.37,392.865,192.374,394.451C194.378,396.037,196.382,395.89,198.386,395.783C200.39,395.677,202.394,395.612,204.398,395.523C206.401,395.434,208.405,395.321,210.409,395.28C212.413,395.239,214.417,395.269,216.421,395.254C218.425,395.239,220.429,395.178,222.433,395.232C224.437,395.286,226.44,395.456,228.444,395.449C230.448,395.443,232.452,395.26,234.456,394.329C236.46,393.398,238.464,391.719,240.468,391.736C242.472,391.753,244.476,393.468,246.479,394.284C248.483,395.1,250.487,395.017,252.491,395.024C254.495,395.03,256.499,395.126,258.503,395.156C260.507,395.187,262.511,395.152,264.515,395.091C266.518,395.03,268.522,394.944,270.526,394.924C272.53,394.905,274.534,394.952,276.538,394.948C278.542,394.944,280.546,394.887,282.55,394.822C284.554,394.757,286.557,394.683,288.561,394.64C290.565,394.596,292.569,394.583,294.573,394.466C296.577,394.349,298.581,394.128,300.585,394.054C302.589,393.98,304.593,394.054,306.596,394.104C308.6,394.154,310.604,394.18,312.608,394.169C314.612,394.158,316.616,394.11,318.62,394.095C320.624,394.08,322.628,394.097,324.632,394.03C326.635,393.963,328.639,393.811,330.643,393.737C332.647,393.663,334.651,393.668,336.655,393.633C338.659,393.598,340.663,393.524,342.667,393.388C344.671,393.251,346.674,393.051,348.678,392.988C350.682,392.925,352.686,392.999,354.69,392.982C356.694,392.964,358.698,392.856,360.702,392.684C362.706,392.513,364.71,392.279,366.713,392.233C368.717,392.187,370.721,392.331,372.725,392.287C374.729,392.244,376.733,392.014,378.737,391.986C380.741,391.957,382.745,392.131,384.749,392.142C386.752,392.153,388.756,392.001,390.76,391.905C392.764,391.81,394.768,391.771,396.772,391.76C398.776,391.749,400.78,391.766,402.784,391.738C404.787,391.71,406.791,391.636,408.795,391.599C410.799,391.562,412.803,391.562,414.807,391.526C416.811,391.489,418.815,391.415,420.819,391.187C422.823,390.959,424.826,390.577,426.83,390.556C428.834,390.534,430.838,390.872,432.842,391.009C434.846,391.146,436.85,391.081,438.854,390.838C440.858,390.595,442.862,390.174,444.865,390.035C446.869,389.896,448.873,390.039,450.877,390.13C452.881,390.221,454.885,390.26,456.889,390.28C458.893,390.299,460.897,390.299,462.901,390.284C464.904,390.269,466.908,390.239,468.912,390.154C470.916,390.069,472.92,389.931,474.924,389.531C476.928,389.132,478.932,388.472,480.936,388.388C482.94,388.303,484.944,388.793,486.947,388.939C488.951,389.084,490.955,388.885,492.959,388.602C494.963,388.32,496.967,387.956,498.971,387.609C500.975,387.261,502.979,386.931,504.983,387.001C506.986,387.07,508.99,387.539,510.994,387.6C512.998,387.661,515.002,387.313,517.006,386.806C519.01,386.298,521.014,385.629,523.018,385.729C525.022,385.829,527.025,386.697,529.029,387.203C531.033,387.708,533.037,387.852,535.041,387.841C537.045,387.83,539.049,387.665,541.053,387.452C543.057,387.24,545.06,386.979,547.064,386.91C549.068,386.84,551.072,386.962,553.076,386.99C555.08,387.018,557.084,386.953,559.088,386.79C561.092,386.628,563.096,386.367,565.099,386.211C567.103,386.055,569.107,386.003,571.111,385.94C573.115,385.877,575.119,385.803,577.123,385.61C579.127,385.417,581.131,385.104,583.135,385.03C585.139,384.957,587.142,385.122,589.146,385.119" stroke="#3D494C" stroke-width="2"/></g></g><path class="foreground" aria-hidden="true" d="" display="none"/></g><g transform="translate(0,0)"><path class="background" aria-hidden="true" d="M0,0h600v400h-600Z"/><g><g class="mark-line role-mark layer_1_marks" clip-path="url(#clip6)" role="graphics-object" aria-roledescription="line mark container"><path aria-label="Timestep: 1.00195M; Dormant neuron ratio (%): 11.0839846929; Benchmark: MT25" role="graphics-symbol" aria-roledescription="line mark" d="M12.024,343.685C14.027,352.141,16.031,357.104,18.035,361.111C20.039,365.119,22.043,368.171,24.047,369.799C26.051,371.427,28.055,371.629,30.059,371.911C32.063,372.193,34.067,372.555,36.071,372.721C38.075,372.888,40.079,372.859,42.083,372.815C44.087,372.772,46.091,372.714,48.095,373.032C50.099,373.351,52.103,374.045,54.107,373.929C56.11,373.814,58.114,372.888,60.118,372.099C62.122,371.311,64.126,370.66,66.13,370.508C68.134,370.356,70.138,370.703,72.142,370.877C74.146,371.05,76.15,371.05,78.154,370.855C80.158,370.66,82.162,370.269,84.166,370.117C86.17,369.965,88.174,370.052,90.178,369.958C92.182,369.864,94.186,369.589,96.189,369.264C98.193,368.938,100.197,368.562,102.201,367.578C104.205,366.594,106.209,365.003,108.213,364.67C110.217,364.337,112.221,365.263,114.225,364.981C116.229,364.699,118.233,363.209,120.237,359.903C122.241,356.597,124.245,351.476,126.249,350.477C128.253,349.479,130.257,352.604,132.261,352.12C134.265,351.635,136.268,347.541,138.272,341.406C140.276,335.272,142.28,327.098,144.284,326.642C146.288,326.186,148.292,333.449,150.296,336.806C152.3,340.162,154.304,339.612,156.308,333.659C158.312,327.705,160.316,316.348,162.32,308.304C164.324,300.26,166.328,295.53,168.332,297.584C170.336,299.638,172.34,308.478,174.344,311.994C176.347,315.509,178.351,313.701,180.355,317.499C182.359,321.296,184.363,330.7,186.367,335.373C188.371,340.046,190.375,339.988,192.379,340.372C194.383,340.755,196.387,341.58,198.391,339.41C200.395,337.24,202.399,332.075,204.403,330.122C206.407,328.168,208.411,329.427,210.415,330.722C212.419,332.017,214.423,333.348,216.426,334.281C218.43,335.214,220.434,335.749,222.438,334.346C224.442,332.943,226.446,329.601,228.45,326.353C230.454,323.105,232.458,319.951,234.462,317.556C236.466,315.162,238.47,313.527,240.474,312.674C242.478,311.82,244.482,311.748,246.486,312.543C248.49,313.339,250.494,315.003,252.498,314.012C254.502,313.021,256.505,309.375,258.509,308.709C260.513,308.044,262.517,310.359,264.521,312.775C266.525,315.191,268.529,317.708,270.533,318.714C272.537,319.719,274.541,319.213,276.545,318.786C278.549,318.359,280.553,318.012,282.557,317.274C284.561,316.536,286.565,315.408,288.569,315.126" stroke="#7A1F18" stroke-width="2"/></g></g><path class="foreground" aria-hidden="true" d="" display="none"/></g></g><g class="mark-group role-legend" role="graphics-symbol" aria-roledescription="legend" aria-label="Symbol legend titled 'Benchmark' for fill color and stroke color with 3 values: MT10, MT25, MT50"><g transform="translate(618,0)"><path class="background" aria-hidden="true" d="M0,0h80v67h-80Z" pointer-events="none"/><g><g class="mark-group role-legend-entry"><g transform="translate(0,21)"><path class="background" aria-hidden="true" d="M0,0h0v0h0Z" pointer-events="none"/><g><g class="mark-group role-scope" role="graphics-object" aria-roledescription="group mark container"><g transform="translate(0,0)"><path class="background" aria-hidden="true" d="M0,0h53v14h-53Z" pointer-events="none" opacity="1"/><g><g class="mark-symbol role-legend-symbol" pointer-events="none"><path transform="translate(7,7)" d="M5,0A5,5,0,1,1,-5,0A5,5,0,1,1,5,0" fill="#FF4B33" stroke="#FF4B33" stroke-width="1.5" opacity="0.3"/></g><g class="mark-text role-legend-label" pointer-events="none"><text text-anchor="start" transform="translate(18,11)" font-family="Times New Roman" font-size="14px" fill="#000" opacity="1">MT10</text></g></g><path class="foreground" aria-hidden="true" d="" pointer-events="none" display="none"/></g><g transform="translate(0,16)"><path class="background" aria-hidden="true" d="M0,0h53v14h-53Z" pointer-events="none" opacity="1"/><g><g class="mark-symbol role-legend-symbol" pointer-events="none"><path transform="translate(7,7)" d="M5,0A5,5,0,1,1,-5,0A5,5,0,1,1,5,0" fill="#7A1F18" stroke="#7A1F18" stroke-width="1.5" opacity="0.3"/></g><g class="mark-text role-legend-label" pointer-events="none"><text text-anchor="start" transform="translate(18,11)" font-family="Times New Roman" font-size="14px" fill="#000" opacity="1">MT25</text></g></g><path class="foreground" aria-hidden="true" d="" pointer-events="none" display="none"/></g><g transform="translate(0,32)"><path class="background" aria-hidden="true" d="M0,0h53v14h-53Z" pointer-events="none" opacity="1"/><g><g class="mark-symbol role-legend-symbol" pointer-events="none"><path transform="translate(7,7)" d="M5,0A5,5,0,1,1,-5,0A5,5,0,1,1,5,0" fill="#3D494C" stroke="#3D494C" stroke-width="1.5" opacity="0.3"/></g><g class="mark-text role-legend-label" pointer-events="none"><text text-anchor="start" transform="translate(18,11)" font-family="Times New Roman" font-size="14px" fill="#000" opacity="1">MT50</text></g></g><path class="foreground" aria-hidden="true" d="" pointer-events="none" display="none"/></g></g></g><path class="foreground" aria-hidden="true" d="" pointer-events="none" display="none"/></g></g><g class="mark-text role-legend-title" pointer-events="none"><text text-anchor="start" transform="translate(0,13)" font-family="Times New Roman" font-size="16px" font-weight="bold" fill="#000" opacity="1">Benchmark</text></g></g><path class="foreground" aria-hidden="true" d="" pointer-events="none" display="none"/></g></g></g><path class="foreground" aria-hidden="true" d="" display="none"/></g></g></g><defs><clipPath id="clip1"><rect x="0" y="0" width="600" height="400"/></clipPath><clipPath id="clip2"><rect x="0" y="0" width="600" height="400"/></clipPath><clipPath id="clip3"><rect x="0" y="0" width="600" height="400"/></clipPath><clipPath id="clip4"><rect x="0" y="0" width="600" height="400"/></clipPath><clipPath id="clip5"><rect x="0" y="0" width="600" height="400"/></clipPath><clipPath id="clip6"><rect x="0" y="0" width="600" height="400"/></clipPath></defs></svg>