<svg xmlns="http://www.w3.org/2000/svg" xmlns:xlink="http://www.w3.org/1999/xlink" version="1.1" class="marks" width="652" height="458" viewBox="0 0 652 458"><rect width="652" height="458" fill="white"/><g fill="none" stroke-miterlimit="10" transform="translate(46,12)"><g class="mark-group role-frame root" role="graphics-object" aria-roledescription="group mark container"><g transform="translate(0,0)"><path class="background" aria-hidden="true" d="M0.5,0.5h600v400h-600Z" stroke="#ddd"/><g><g class="mark-group role-axis" aria-hidden="true"><g transform="translate(0.5,400.5)"><path class="background" aria-hidden="true" d="M0,0h0v0h0Z" pointer-events="none"/><g><g class="mark-rule role-axis-grid" pointer-events="none"><line transform="translate(0,-400)" x2="0" y2="400" stroke="#ddd" stroke-width="1" opacity="1"/><line transform="translate(30,-400)" x2="0" y2="400" stroke="#ddd" stroke-width="1" opacity="1"/><line transform="translate(60,-400)" x2="0" y2="400" stroke="#ddd" stroke-width="1" opacity="1"/><line transform="translate(90,-400)" x2="0" y2="400" stroke="#ddd" stroke-width="1" opacity="1"/><line transform="translate(120,-400)" x2="0" y2="400" stroke="#ddd" stroke-width="1" opacity="1"/><line transform="translate(150,-400)" x2="0" y2="400" stroke="#ddd" stroke-width="1" opacity="1"/><line transform="translate(180,-400)" x2="0" y2="400" stroke="#ddd" stroke-width="1" opacity="1"/><line transform="translate(210,-400)" x2="0" y2="400" stroke="#ddd" stroke-width="1" opacity="1"/><line transform="translate(240,-400)" x2="0" y2="400" stroke="#ddd" stroke-width="1" opacity="1"/><line transform="translate(270,-400)" x2="0" y2="400" stroke="#ddd" stroke-width="1" opacity="1"/><line transform="translate(300,-400)" x2="0" y2="400" stroke="#ddd" stroke-width="1" opacity="1"/><line transform="translate(330,-400)" x2="0" y2="400" stroke="#ddd" stroke-width="1" opacity="1"/><line transform="translate(360,-400)" x2="0" y2="400" stroke="#ddd" stroke-width="1" opacity="1"/><line transform="translate(390,-400)" x2="0" y2="400" stroke="#ddd" stroke-width="1" opacity="1"/><line transform="translate(420,-400)" x2="0" y2="400" stroke="#ddd" stroke-width="1" opacity="1"/><line transform="translate(450,-400)" x2="0" y2="400" stroke="#ddd" stroke-width="1" opacity="1"/><line transform="translate(480,-400)" x2="0" y2="400" stroke="#ddd" stroke-width="1" opacity="1"/><line transform="translate(510,-400)" x2="0" y2="400" stroke="#ddd" stroke-width="1" opacity="1"/><line transform="translate(540,-400)" x2="0" y2="400" stroke="#ddd" stroke-width="1" opacity="1"/><line transform="translate(570,-400)" x2="0" y2="400" stroke="#ddd" stroke-width="1" opacity="1"/><line transform="translate(600,-400)" x2="0" y2="400" stroke="#ddd" stroke-width="1" opacity="1"/></g></g><path class="foreground" aria-hidden="true" d="" pointer-events="none" display="none"/></g></g><g class="mark-group role-axis" aria-hidden="true"><g transform="translate(0.5,0.5)"><path class="background" aria-hidden="true" d="M0,0h0v0h0Z" pointer-events="none"/><g><g class="mark-rule role-axis-grid" pointer-events="none"><line transform="translate(0,400)" x2="600" y2="0" stroke="#ddd" stroke-width="1" opacity="1"/><line transform="translate(0,360)" x2="600" y2="0" stroke="#ddd" stroke-width="1" opacity="1"/><line transform="translate(0,320)" x2="600" y2="0" stroke="#ddd" stroke-width="1" opacity="1"/><line transform="translate(0,280)" x2="600" y2="0" stroke="#ddd" stroke-width="1" opacity="1"/><line transform="translate(0,240)" x2="600" y2="0" stroke="#ddd" stroke-width="1" opacity="1"/><line transform="translate(0,200)" x2="600" y2="0" stroke="#ddd" stroke-width="1" opacity="1"/><line transform="translate(0,160)" x2="600" y2="0" stroke="#ddd" stroke-width="1" opacity="1"/><line transform="translate(0,120)" x2="600" y2="0" stroke="#ddd" stroke-width="1" opacity="1"/><line transform="translate(0,80)" x2="600" y2="0" stroke="#ddd" stroke-width="1" opacity="1"/><line transform="translate(0,40)" x2="600" y2="0" stroke="#ddd" stroke-width="1" opacity="1"/><line transform="translate(0,0)" x2="600" y2="0" stroke="#ddd" stroke-width="1" opacity="1"/></g></g><path class="foreground" aria-hidden="true" d="" pointer-events="none" display="none"/></g></g><g class="mark-group role-axis" role="graphics-symbol" aria-roledescription="axis" aria-label="X-axis titled 'Number of environment steps' for a linear scale with values from 0M to 100M"><g transform="translate(0.5,400.5)"><path class="background" aria-hidden="true" d="M0,0h0v0h0Z" pointer-events="none"/><g><g class="mark-rule role-axis-tick" pointer-events="none"><line transform="translate(0,0)" x2="0" y2="5" stroke="#888" stroke-width="1" opacity="1"/><line transform="translate(30,0)" x2="0" y2="5" stroke="#888" stroke-width="1" opacity="1"/><line transform="translate(60,0)" x2="0" y2="5" stroke="#888" stroke-width="1" opacity="1"/><line transform="translate(90,0)" x2="0" y2="5" stroke="#888" stroke-width="1" opacity="1"/><line transform="translate(120,0)" x2="0" y2="5" stroke="#888" stroke-width="1" opacity="1"/><line transform="translate(150,0)" x2="0" y2="5" stroke="#888" stroke-width="1" opacity="1"/><line transform="translate(180,0)" x2="0" y2="5" stroke="#888" stroke-width="1" opacity="1"/><line transform="translate(210,0)" x2="0" y2="5" stroke="#888" stroke-width="1" opacity="1"/><line transform="translate(240,0)" x2="0" y2="5" stroke="#888" stroke-width="1" opacity="1"/><line transform="translate(270,0)" x2="0" y2="5" stroke="#888" stroke-width="1" opacity="1"/><line transform="translate(300,0)" x2="0" y2="5" stroke="#888" stroke-width="1" opacity="1"/><line transform="translate(330,0)" x2="0" y2="5" stroke="#888" stroke-width="1" opacity="1"/><line transform="translate(360,0)" x2="0" y2="5" stroke="#888" stroke-width="1" opacity="1"/><line transform="translate(390,0)" x2="0" y2="5" stroke="#888" stroke-width="1" opacity="1"/><line transform="translate(420,0)" x2="0" y2="5" stroke="#888" stroke-width="1" opacity="1"/><line transform="translate(450,0)" x2="0" y2="5" stroke="#888" stroke-width="1" opacity="1"/><line transform="translate(480,0)" x2="0" y2="5" stroke="#888" stroke-width="1" opacity="1"/><line transform="translate(510,0)" x2="0" y2="5" stroke="#888" stroke-width="1" opacity="1"/><line transform="translate(540,0)" x2="0" y2="5" stroke="#888" stroke-width="1" opacity="1"/><line transform="translate(570,0)" x2="0" y2="5" stroke="#888" stroke-width="1" opacity="1"/><line transform="translate(600,0)" x2="0" y2="5" stroke="#888" stroke-width="1" opacity="1"/></g><g class="mark-text role-axis-label" pointer-events="none"><text text-anchor="start" transform="translate(0,18)" font-family="Times New Roman" font-size="14px" fill="#000" opacity="1">0</text><text text-anchor="middle" transform="translate(30,18)" font-family="Times New Roman" font-size="14px" fill="#000" opacity="0">5M</text><text text-anchor="middle" transform="translate(60,18)" font-family="Times New Roman" font-size="14px" fill="#000" opacity="1">10M</text><text text-anchor="middle" transform="translate(90,18)" font-family="Times New Roman" font-size="14px" fill="#000" opacity="0">15M</text><text text-anchor="middle" transform="translate(120,18)" font-family="Times New Roman" font-size="14px" fill="#000" opacity="1">20M</text><text text-anchor="middle" transform="translate(150,18)" font-family="Times New Roman" font-size="14px" fill="#000" opacity="0">25M</text><text text-anchor="middle" transform="translate(180,18)" font-family="Times New Roman" font-size="14px" fill="#000" opacity="1">30M</text><text text-anchor="middle" transform="translate(210,18)" font-family="Times New Roman" font-size="14px" fill="#000" opacity="0">35M</text><text text-anchor="middle" transform="translate(240,18)" font-family="Times New Roman" font-size="14px" fill="#000" opacity="1">40M</text><text text-anchor="middle" transform="translate(270,18)" font-family="Times New Roman" font-size="14px" fill="#000" opacity="0">45M</text><text text-anchor="middle" transform="translate(300,18)" font-family="Times New Roman" font-size="14px" fill="#000" opacity="1">50M</text><text text-anchor="middle" transform="translate(330,18)" font-family="Times New Roman" font-size="14px" fill="#000" opacity="0">55M</text><text text-anchor="middle" transform="translate(360,18)" font-family="Times New Roman" font-size="14px" fill="#000" opacity="1">60M</text><text text-anchor="middle" transform="translate(390,18)" font-family="Times New Roman" font-size="14px" fill="#000" opacity="0">65M</text><text text-anchor="middle" transform="translate(420,18)" font-family="Times New Roman" font-size="14px" fill="#000" opacity="1">70M</text><text text-anchor="middle" transform="translate(450,18)" font-family="Times New Roman" font-size="14px" fill="#000" opacity="0">75M</text><text text-anchor="middle" transform="translate(480,18)" font-family="Times New Roman" font-size="14px" fill="#000" opacity="1">80M</text><text text-anchor="middle" transform="translate(510,18)" font-family="Times New Roman" font-size="14px" fill="#000" opacity="0">85M</text><text text-anchor="middle" transform="translate(540,18)" font-family="Times New Roman" font-size="14px" fill="#000" opacity="1">90M</text><text text-anchor="middle" transform="translate(570,18)" font-family="Times New Roman" font-size="14px" fill="#000" opacity="0">95M</text><text text-anchor="end" transform="translate(600,18)" font-family="Times New Roman" font-size="14px" fill="#000" opacity="1">100M</text></g><g class="mark-rule role-axis-domain" pointer-events="none"><line transform="translate(0,0)" x2="600" y2="0" stroke="#888" stroke-width="1" opacity="1"/></g><g class="mark-text role-axis-title" pointer-events="none"><text text-anchor="middle" transform="translate(300,38)" font-family="Times New Roman" font-size="16px" font-weight="bold" fill="#000" opacity="1">Number of environment steps</text></g></g><path class="foreground" aria-hidden="true" d="" pointer-events="none" display="none"/></g></g><g class="mark-group role-axis" role="graphics-symbol" aria-roledescription="axis" aria-label="Y-axis titled 'Dormant neuron ratio (%)' for a linear scale with values from 0 to 50"><g transform="translate(0.5,0.5)"><path class="background" aria-hidden="true" d="M0,0h0v0h0Z" pointer-events="none"/><g><g class="mark-rule role-axis-tick" pointer-events="none"><line transform="translate(0,400)" x2="-5" y2="0" stroke="#888" stroke-width="1" opacity="1"/><line transform="translate(0,360)" x2="-5" y2="0" stroke="#888" stroke-width="1" opacity="1"/><line transform="translate(0,320)" x2="-5" y2="0" stroke="#888" stroke-width="1" opacity="1"/><line transform="translate(0,280)" x2="-5" y2="0" stroke="#888" stroke-width="1" opacity="1"/><line transform="translate(0,240)" x2="-5" y2="0" stroke="#888" stroke-width="1" opacity="1"/><line transform="translate(0,200)" x2="-5" y2="0" stroke="#888" stroke-width="1" opacity="1"/><line transform="translate(0,160)" x2="-5" y2="0" stroke="#888" stroke-width="1" opacity="1"/><line transform="translate(0,120)" x2="-5" y2="0" stroke="#888" stroke-width="1" opacity="1"/><line transform="translate(0,80)" x2="-5" y2="0" stroke="#888" stroke-width="1" opacity="1"/><line transform="translate(0,40)" x2="-5" y2="0" stroke="#888" stroke-width="1" opacity="1"/><line transform="translate(0,0)" x2="-5" y2="0" stroke="#888" stroke-width="1" opacity="1"/></g><g class="mark-text role-axis-label" pointer-events="none"><text text-anchor="end" transform="translate(-7,404)" font-family="Times New Roman" font-size="14px" fill="#000" opacity="1">0</text><text text-anchor="end" transform="translate(-7,364)" font-family="Times New Roman" font-size="14px" fill="#000" opacity="1">5</text><text text-anchor="end" transform="translate(-7,324)" font-family="Times New Roman" font-size="14px" fill="#000" opacity="1">10</text><text text-anchor="end" transform="translate(-7,284)" font-family="Times New Roman" font-size="14px" fill="#000" opacity="1">15</text><text text-anchor="end" transform="translate(-7,244)" font-family="Times New Roman" font-size="14px" fill="#000" opacity="1">20</text><text text-anchor="end" transform="translate(-7,204)" font-family="Times New Roman" font-size="14px" fill="#000" opacity="1">25</text><text text-anchor="end" transform="translate(-7,164)" font-family="Times New Roman" font-size="14px" fill="#000" opacity="1">30</text><text text-anchor="end" transform="translate(-7,124.00000000000001)" font-family="Times New Roman" font-size="14px" fill="#000" opacity="1">35</text><text text-anchor="end" transform="translate(-7,83.99999999999999)" font-family="Times New Roman" font-size="14px" fill="#000" opacity="1">40</text><text text-anchor="end" transform="translate(-7,43.99999999999999)" font-family="Times New Roman" font-size="14px" fill="#000" opacity="1">45</text><text text-anchor="end" transform="translate(-7,4)" font-family="Times New Roman" font-size="14px" fill="#000" opacity="1">50</text></g><g class="mark-rule role-axis-domain" pointer-events="none"><line transform="translate(0,400)" x2="0" y2="-400" stroke="#888" stroke-width="1" opacity="1"/></g><g class="mark-text role-axis-title" pointer-events="none"><text text-anchor="middle" transform="translate(-25,200) rotate(-90) translate(0,-3)" font-family="Times New Roman" font-size="16px" font-weight="bold" fill="#000" opacity="1">Dormant neuron ratio (%)</text></g></g><path class="foreground" aria-hidden="true" d="" pointer-events="none" display="none"/></g></g><g class="mark-group role-scope layer_0_layer_0_pathgroup" role="graphics-object" aria-roledescription="group mark container"><g transform="translate(0,0)"><path class="background" aria-hidden="true" d="M0,0h600v400h-600Z"/><g><g class="mark-area role-mark layer_0_layer_0_marks" clip-path="url(#clip1)" role="graphics-object" aria-roledescription="area mark container"><path aria-label="Number of environment steps: 200.38k; Dormant neuron ratio (%): 17.9622400236; upper_Dormant neuron ratio: 19.765706954; Benchmark: MT10; Ci1 of Dormant neuron ratio: 19.765706954; Ci0 of Dormant neuron ratio: 17.9622400236; Mean of Dormant neuron ratio: 18.8183597565" role="graphics-symbol" aria-roledescription="errorband" d="M2.405,284.061C2.805,291.42,3.206,295.938,3.607,300.5C4.008,305.061,4.409,309.666,4.809,313.59C5.21,317.513,5.611,320.755,6.012,323.128C6.412,325.5,6.813,327.002,7.214,328.2C7.615,329.397,8.016,330.291,8.416,331.046C8.817,331.802,9.218,332.418,9.619,333.013C10.019,333.607,10.42,334.18,10.821,334.541C11.222,334.902,11.623,335.05,12.023,335.226C12.424,335.402,12.825,335.605,13.226,335.446C13.626,335.288,14.027,334.767,14.428,334.116C14.829,333.465,15.23,332.684,15.63,331.814C16.031,330.943,16.432,329.984,16.833,329.031C17.233,328.078,17.634,327.132,18.035,326.483C18.436,325.834,18.837,325.482,19.237,324.879C19.638,324.276,20.039,323.421,20.44,322.833C20.841,322.245,21.241,321.924,21.642,321.876C22.043,321.828,22.444,322.053,22.844,321.613C23.245,321.172,23.646,320.066,24.047,319.228C24.448,318.39,24.848,317.821,25.249,317.409C25.65,316.997,26.051,316.741,26.451,316.351C26.852,315.96,27.253,315.435,27.654,315.13C28.055,314.824,28.455,314.738,28.856,314.215C29.257,313.692,29.658,312.732,30.058,312.044C30.459,311.355,30.86,310.938,31.261,310.326C31.662,309.714,32.062,308.907,32.463,307.848C32.864,306.79,33.265,305.48,33.665,304.002C34.066,302.525,34.467,300.879,34.868,299.831C35.269,298.783,35.669,298.332,36.07,297.636C36.471,296.94,36.872,296,37.272,294.947C37.673,293.894,38.074,292.729,38.475,291.805C38.876,290.88,39.276,290.195,39.677,289.472C40.078,288.75,40.479,287.989,40.88,287.258C41.28,286.527,41.681,285.826,42.082,284.599C42.483,283.373,42.883,281.622,43.284,280.495C43.685,279.368,44.086,278.866,44.487,278.087C44.887,277.308,45.288,276.254,45.689,275.737C46.09,275.22,46.49,275.241,46.891,274.898C47.292,274.555,47.693,273.848,48.094,272.567C48.494,271.287,48.895,269.433,49.296,268.136C49.697,266.838,50.097,266.096,50.498,265.085C50.899,264.073,51.3,262.793,51.701,261.823C52.101,260.852,52.502,260.193,52.903,258.993C53.304,257.794,53.704,256.054,54.105,255.045C54.506,254.036,54.907,253.758,55.308,253.471C55.708,253.184,56.109,252.889,56.51,252.353C56.911,251.818,57.311,251.043,57.712,250.225C58.113,249.407,58.514,248.546,58.915,247.361C59.315,246.175,59.716,244.665,60.117,243.326C60.518,241.987,60.919,240.819,61.319,239.875C61.72,238.931,62.121,238.211,62.522,237.232C62.922,236.253,63.323,235.016,63.724,234.078C64.125,233.14,64.526,232.501,64.926,231.627C65.327,230.753,65.728,229.643,66.129,228.949C66.529,228.254,66.93,227.975,67.331,227.475C67.732,226.976,68.133,226.257,68.533,225.385C68.934,224.512,69.335,223.487,69.736,222.658C70.136,221.829,70.537,221.195,70.938,220.592C71.339,219.988,71.74,219.416,72.14,218.2C72.541,216.985,72.942,215.127,73.343,214.112C73.743,213.097,74.144,212.925,74.545,212.048C74.946,211.172,75.347,209.591,75.747,209.389C76.148,209.186,76.549,210.363,76.95,210.701C77.35,211.038,77.751,210.536,78.152,209.722C78.553,208.909,78.954,207.785,79.354,207.107C79.755,206.429,80.156,206.197,80.557,205.597C80.958,204.997,81.358,204.03,81.759,203.16C82.16,202.29,82.561,201.517,82.961,200.812C83.362,200.106,83.763,199.468,84.164,198.428C84.565,197.388,84.965,195.947,85.366,194.664C85.767,193.382,86.168,192.258,86.568,191.724C86.969,191.19,87.37,191.247,87.771,191.426C88.172,191.604,88.572,191.904,88.973,192.072C89.374,192.24,89.775,192.277,90.175,191.788C90.576,191.299,90.977,190.285,91.378,189.709C91.779,189.133,92.179,188.994,92.58,188.704C92.981,188.413,93.382,187.971,93.782,187.243C94.183,186.515,94.584,185.501,94.985,184.554C95.386,183.608,95.786,182.729,96.187,181.645C96.588,180.561,96.989,179.272,97.389,178.098C97.79,176.924,98.191,175.866,98.592,174.913C98.993,173.96,99.393,173.113,99.794,172.705C100.195,172.296,100.596,172.327,100.996,172C101.397,171.672,101.798,170.986,102.199,170.264C102.6,169.541,103,168.782,103.401,168.138C103.802,167.493,104.203,166.963,104.604,167.041C105.004,167.118,105.405,167.804,105.806,168.31C106.207,168.816,106.607,169.141,107.008,169.102C107.409,169.064,107.81,168.661,108.211,168.588C108.611,168.514,109.012,168.77,109.413,168.384C109.814,167.997,110.214,166.968,110.615,166.497C111.016,166.025,111.417,166.112,111.818,165.517C112.218,164.923,112.619,163.647,113.02,163.044C113.421,162.441,113.821,162.511,114.222,162.702C114.623,162.893,115.024,163.207,115.425,163.29C115.825,163.372,116.226,163.224,116.627,162.689C117.028,162.155,117.428,161.234,117.829,160.452L117.829,136.138C117.428,136.856,117.028,137.594,116.627,138.085C116.226,138.575,115.825,138.819,115.425,139.029C115.024,139.24,114.623,139.418,114.222,139.615C113.821,139.812,113.421,140.029,113.02,140.472C112.619,140.915,112.218,141.584,111.818,142.133C111.417,142.682,111.016,143.111,110.615,143.608C110.214,144.105,109.814,144.67,109.413,144.819C109.012,144.969,108.611,144.703,108.211,144.656C107.81,144.609,107.409,144.782,107.008,145.263C106.607,145.745,106.207,146.535,105.806,147.024C105.405,147.513,105.004,147.699,104.604,147.988C104.203,148.277,103.802,148.668,103.401,149.448C103,150.227,102.6,151.395,102.199,152.505C101.798,153.614,101.397,154.665,100.997,154.973C100.596,155.281,100.195,154.846,99.794,155.028C99.393,155.211,98.993,156.009,98.592,156.706C98.191,157.402,97.79,157.996,97.389,159.034C96.989,160.073,96.588,161.557,96.187,162.595C95.786,163.632,95.386,164.224,94.985,164.692C94.584,165.159,94.183,165.501,93.782,165.877C93.382,166.252,92.981,166.66,92.58,166.582C92.179,166.503,91.779,165.937,91.378,166.33C90.977,166.722,90.576,168.073,90.175,168.883C89.775,169.693,89.374,169.962,88.973,170.498C88.572,171.035,88.172,171.838,87.771,172.177C87.37,172.516,86.969,172.391,86.568,172.582C86.168,172.773,85.767,173.28,85.366,174.139C84.965,174.998,84.565,176.209,84.164,176.914C83.763,177.619,83.362,177.819,82.961,178.117C82.561,178.414,82.16,178.811,81.759,179.525C81.358,180.239,80.958,181.271,80.557,182.042C80.156,182.814,79.755,183.327,79.354,183.819C78.954,184.311,78.553,184.784,78.152,185.466C77.751,186.147,77.35,187.038,76.95,187.279C76.549,187.52,76.148,187.112,75.747,187.485C75.347,187.859,74.946,189.014,74.545,189.622C74.144,190.229,73.743,190.29,73.343,191.071C72.942,191.852,72.541,193.354,72.14,194.53C71.74,195.707,71.339,196.557,70.938,197.462C70.537,198.366,70.136,199.325,69.736,200.004C69.335,200.684,68.934,201.084,68.533,202.277C68.133,203.471,67.732,205.458,67.331,206.438C66.93,207.419,66.529,207.394,66.129,207.683C65.728,207.972,65.327,208.575,64.926,209.093C64.526,209.611,64.125,210.044,63.724,210.885C63.323,211.725,62.922,212.975,62.522,213.527C62.121,214.079,61.72,213.934,61.319,214.779C60.919,215.624,60.518,217.46,60.117,218.864C59.716,220.268,59.315,221.24,58.915,222.155C58.514,223.071,58.113,223.93,57.712,224.705C57.311,225.479,56.911,226.169,56.51,226.801C56.109,227.432,55.708,228.006,55.308,228.848C54.907,229.691,54.506,230.802,54.105,231.813C53.704,232.824,53.304,233.736,52.903,234.844C52.502,235.952,52.101,237.258,51.701,238.44C51.3,239.622,50.899,240.681,50.498,241.734C50.097,242.786,49.697,243.832,49.296,245C48.895,246.168,48.494,247.458,48.094,248.405C47.693,249.351,47.292,249.955,46.891,250.543C46.49,251.131,46.09,251.703,45.689,252.293C45.288,252.883,44.887,253.491,44.487,254.089C44.086,254.687,43.685,255.275,43.284,256.343C42.883,257.411,42.483,258.959,42.082,260.553C41.681,262.148,41.28,263.788,40.88,264.506C40.479,265.223,40.078,265.017,39.677,265.753C39.276,266.489,38.876,268.166,38.475,269.529C38.074,270.893,37.673,271.943,37.272,272.881C36.872,273.818,36.471,274.643,36.07,275.331C35.669,276.019,35.269,276.57,34.868,277.828C34.467,279.087,34.066,281.054,33.665,283.035C33.265,285.017,32.864,287.014,32.463,288.203C32.062,289.392,31.662,289.773,31.261,290.207C30.86,290.641,30.459,291.127,30.058,291.789C29.658,292.451,29.257,293.289,28.856,293.875C28.455,294.461,28.055,294.796,27.654,295.542C27.253,296.287,26.852,297.444,26.451,298.101C26.051,298.758,25.65,298.915,25.249,299.315C24.848,299.715,24.448,300.358,24.047,301.153C23.646,301.948,23.245,302.894,22.844,303.293C22.444,303.693,22.043,303.545,21.642,304.09C21.241,304.635,20.841,305.872,20.44,306.916C20.039,307.959,19.638,308.81,19.237,309.867C18.837,310.923,18.436,312.186,18.035,313.33C17.634,314.474,17.233,315.499,16.833,316.723C16.432,317.947,16.031,319.37,15.63,320.761C15.23,322.152,14.829,323.511,14.428,324.361C14.027,325.212,13.626,325.555,13.226,325.62C12.825,325.684,12.424,325.469,12.023,325.098C11.623,324.726,11.222,324.198,10.821,323.98C10.42,323.761,10.019,323.852,9.619,323.203C9.218,322.554,8.817,321.166,8.416,320.54C8.016,319.915,7.615,320.054,7.214,319.01C6.813,317.967,6.412,315.741,6.012,312.69C5.611,309.639,5.21,305.763,4.809,301.469C4.409,297.174,4.008,292.461,3.607,287.002C3.206,281.543,2.805,275.34,2.405,267.694Z" fill="#FF4B33" opacity="0.3"/></g></g><path class="foreground" aria-hidden="true" d="" display="none"/></g><g transform="translate(0,0)"><path class="background" aria-hidden="true" d="M0,0h600v400h-600Z"/><g><g class="mark-area role-mark layer_0_layer_0_marks" clip-path="url(#clip2)" role="graphics-object" aria-roledescription="area mark container"><path aria-label="Number of environment steps: 1.0019M; Dormant neuron ratio (%): 12.1158856392; upper_Dormant neuron ratio: 13.1416017866; Benchmark: MT50; Ci1 of Dormant neuron ratio: 13.1416017866; Ci0 of Dormant neuron ratio: 12.1158856392; Mean of Dormant neuron ratio: 12.6660159111" role="graphics-symbol" aria-roledescription="errorband" d="M12.023,334.028C14.027,342.865,16.031,349.48,18.035,354.773C20.039,360.066,22.043,364.038,24.047,367.306C26.05,370.574,28.054,373.139,30.058,375.207C32.062,377.275,34.066,378.846,36.07,380.369C38.074,381.893,40.078,383.369,42.082,384.556C44.086,385.743,46.089,386.641,48.093,387.45C50.097,388.26,52.101,388.98,54.105,389.553C56.109,390.126,58.113,390.551,60.117,390.999C62.121,391.446,64.125,391.915,66.128,392.366C68.132,392.817,70.136,393.251,72.14,393.585C74.144,393.919,76.148,394.154,78.152,394.377C80.156,394.601,82.16,394.813,84.164,394.97C86.167,395.126,88.171,395.226,90.175,395.341C92.179,395.456,94.183,395.586,96.187,395.725C98.191,395.864,100.195,396.012,102.199,396.103C104.203,396.194,106.206,396.229,108.21,396.329C110.214,396.428,112.218,396.593,114.222,396.708C116.226,396.823,118.23,396.888,120.234,396.914C122.238,396.94,124.242,396.927,126.245,396.908C128.249,396.888,130.253,396.862,132.257,396.882C134.261,396.901,136.265,396.966,138.269,397.016C140.273,397.066,142.277,397.101,144.281,397.116C146.284,397.131,148.288,397.127,150.292,397.11C152.296,397.092,154.3,397.062,156.304,397.053C158.308,397.045,160.312,397.058,162.316,397.077C164.319,397.097,166.323,397.123,168.327,397.116C170.331,397.109,172.335,397.07,174.339,397.003C176.343,396.936,178.347,396.84,180.351,396.817C182.355,396.793,184.359,396.841,186.362,396.899C188.366,396.958,190.37,397.027,192.374,397.031C194.378,397.036,196.382,396.975,198.386,396.912C200.39,396.849,202.394,396.784,204.398,396.715C206.401,396.645,208.405,396.572,210.409,396.563C212.413,396.554,214.417,396.611,216.421,396.617C218.425,396.624,220.429,396.58,222.433,396.602C224.437,396.623,226.44,396.71,228.444,396.697C230.448,396.684,232.452,396.571,234.456,396.487C236.46,396.402,238.464,396.345,240.468,396.365C242.472,396.385,244.476,396.48,246.479,396.502C248.483,396.524,250.487,396.472,252.491,396.495C254.495,396.519,256.499,396.619,258.503,396.632C260.507,396.645,262.511,396.572,264.515,396.52C266.518,396.468,268.522,396.437,270.526,396.404C272.53,396.372,274.534,396.337,276.538,396.322C278.542,396.307,280.546,396.311,282.55,396.257C284.554,396.202,286.557,396.09,288.561,396.051C290.565,396.012,292.569,396.046,294.573,395.981C296.577,395.916,298.581,395.751,300.585,395.717C302.589,395.682,304.593,395.778,306.596,395.851C308.6,395.925,310.604,395.977,312.608,395.953C314.612,395.929,316.616,395.829,318.62,395.773C320.624,395.716,322.628,395.703,324.632,395.623C326.635,395.543,328.639,395.395,330.643,395.311C332.647,395.226,334.651,395.204,336.655,395.181C338.659,395.157,340.663,395.131,342.667,395.014C344.671,394.897,346.674,394.689,348.678,394.591C350.682,394.493,352.686,394.506,354.69,394.486C356.694,394.467,358.698,394.414,360.702,394.258C362.706,394.102,364.71,393.841,366.713,393.809C368.717,393.776,370.721,393.972,372.725,393.935C374.729,393.898,376.733,393.629,378.737,393.564C380.741,393.498,382.745,393.637,384.749,393.624C386.752,393.611,388.756,393.446,390.76,393.347C392.764,393.247,394.768,393.212,396.772,393.21C398.776,393.208,400.78,393.238,402.784,393.206C404.787,393.173,406.791,393.077,408.795,393.103C410.799,393.129,412.803,393.277,414.807,393.29C416.811,393.303,418.815,393.182,420.819,393.054C422.823,392.926,424.826,392.792,426.83,392.775C428.834,392.757,430.838,392.857,432.842,392.865C434.846,392.874,436.85,392.791,438.854,392.674C440.858,392.557,442.862,392.405,444.865,392.34C446.869,392.275,448.873,392.297,450.877,392.317C452.881,392.336,454.885,392.353,456.889,392.329C458.893,392.305,460.897,392.24,462.901,392.198C464.904,392.157,466.908,392.14,468.912,392.116C470.916,392.092,472.92,392.062,474.924,391.888C476.928,391.715,478.932,391.398,480.936,391.3C482.94,391.202,484.944,391.324,486.947,391.328C488.951,391.332,490.955,391.22,492.959,391.153C494.963,391.085,496.967,391.064,498.971,390.817C500.975,390.569,502.979,390.096,504.983,389.935C506.986,389.775,508.99,389.926,510.994,389.963C512.998,390,515.002,389.922,517.006,389.861C519.01,389.801,521.014,389.758,523.018,389.773C525.022,389.788,527.025,389.862,529.029,389.898C531.033,389.935,533.037,389.935,535.041,389.944C537.045,389.952,539.049,389.97,541.053,389.824C543.057,389.679,545.06,389.371,547.064,389.301C549.068,389.232,551.072,389.401,553.076,389.475C555.08,389.549,557.084,389.527,559.088,389.451C561.092,389.375,563.096,389.245,565.099,389.132C567.103,389.02,569.107,388.924,571.111,388.794C573.115,388.663,575.119,388.498,577.123,388.249C579.127,387.999,581.131,387.665,583.135,387.611C585.139,387.557,587.142,387.782,589.146,387.873L589.146,381.959C587.142,382.079,585.139,382.022,583.135,382.12C581.131,382.217,579.127,382.469,577.123,382.631C575.119,382.794,573.115,382.867,571.111,382.828C569.107,382.789,567.103,382.638,565.099,382.805C563.096,382.972,561.092,383.459,559.088,383.793C557.084,384.127,555.08,384.31,553.076,384.349C551.072,384.387,549.068,384.283,547.064,384.272C545.06,384.261,543.057,384.344,541.053,384.602C539.049,384.861,537.045,385.295,535.041,385.377C533.037,385.46,531.033,385.191,529.029,383.958C527.025,382.725,525.022,380.527,523.018,380.356C521.014,380.184,519.01,382.038,517.006,383.239C515.002,384.439,512.998,384.986,510.994,384.885C508.99,384.783,506.986,384.032,504.983,383.63C502.979,383.229,500.975,383.177,498.971,383.609C496.967,384.041,494.963,384.956,492.959,385.57C490.955,386.184,488.951,386.497,486.947,386.24C484.944,385.984,482.94,385.159,480.936,385.17C478.932,385.181,476.928,386.028,474.924,386.623C472.92,387.217,470.916,387.561,468.912,387.754C466.908,387.947,464.904,387.99,462.901,387.962C460.897,387.934,458.893,387.834,456.889,387.745C454.885,387.656,452.881,387.578,450.877,387.409C448.873,387.239,446.869,386.979,444.865,387.224C442.862,387.469,440.858,388.22,438.854,388.576C436.85,388.932,434.846,388.893,432.842,388.617C430.838,388.342,428.834,387.83,426.83,387.901C424.826,387.973,422.823,388.628,420.819,388.981C418.815,389.335,416.811,389.387,414.807,389.474C412.803,389.561,410.799,389.683,408.795,389.811C406.791,389.939,404.787,390.074,402.784,390.115C400.78,390.156,398.776,390.104,396.772,390.082C394.768,390.06,392.764,390.069,390.76,390.178C388.756,390.286,386.752,390.494,384.749,390.492C382.745,390.49,380.741,390.277,378.737,390.251C376.733,390.225,374.729,390.386,372.725,390.425C370.721,390.464,368.717,390.382,366.713,390.405C364.71,390.429,362.706,390.56,360.702,390.723C358.698,390.885,356.694,391.081,354.69,391.135C352.686,391.189,350.682,391.102,348.678,391.117C346.674,391.131,344.671,391.247,342.667,391.38C340.663,391.512,338.659,391.661,336.655,391.694C334.651,391.727,332.647,391.645,330.643,391.703C328.639,391.762,326.635,391.962,324.632,392.053C322.628,392.144,320.624,392.126,318.62,392.063C316.616,392,314.612,391.892,312.608,391.873C310.604,391.853,308.6,391.923,306.596,391.931C304.593,391.94,302.589,391.888,300.585,392.001C298.581,392.113,296.577,392.391,294.573,392.58C292.569,392.769,290.565,392.869,288.561,392.923C286.557,392.977,284.554,392.985,282.55,393.037C280.546,393.089,278.542,393.185,276.538,393.153C274.534,393.121,272.53,392.96,270.526,392.988C268.522,393.016,266.518,393.233,264.515,393.339C262.511,393.446,260.507,393.442,258.503,393.372C256.499,393.303,254.495,393.168,252.491,393.159C250.487,393.15,248.483,393.268,246.479,390.822C244.476,388.376,242.472,383.367,240.468,383.393C238.464,383.419,236.46,388.481,234.456,391.113C232.452,393.745,230.448,393.949,228.444,393.93C226.44,393.91,224.437,393.667,222.433,393.594C220.429,393.52,218.425,393.615,216.421,393.674C214.417,393.733,212.413,393.754,210.409,393.837C208.405,393.919,206.401,394.062,204.398,394.181C202.394,394.3,200.39,394.396,198.386,394.544C196.382,394.692,194.378,394.891,192.374,390.15C190.37,385.408,188.366,375.724,186.362,375.67C184.359,375.616,182.355,385.19,180.351,390.004C178.347,394.817,176.343,394.869,174.339,394.891C172.335,394.913,170.331,394.904,168.327,394.794C166.323,394.683,164.319,394.47,162.316,394.431C160.312,394.391,158.308,394.526,156.304,394.531C154.3,394.535,152.296,394.409,150.292,394.255C148.288,394.101,146.284,393.919,144.281,393.765C142.277,393.61,140.273,393.484,138.269,393.399C136.265,393.315,134.261,393.272,132.257,393.166C130.253,393.059,128.249,392.89,126.245,392.743C124.242,392.595,122.238,392.469,120.234,392.311C118.23,392.153,116.226,391.962,114.222,391.786C112.218,391.61,110.214,391.449,108.21,391.64C106.206,391.831,104.203,392.374,102.199,392.323C100.195,392.273,98.191,391.629,96.187,391.275C94.183,390.922,92.179,390.857,90.175,390.802C88.171,390.746,86.167,390.698,84.164,390.544C82.16,390.39,80.156,390.129,78.152,389.826C76.148,389.522,74.144,389.175,72.14,388.819C70.136,388.463,68.132,388.099,66.128,387.619C64.125,387.139,62.121,386.545,60.117,385.991C58.113,385.438,56.109,384.926,54.105,384.266C52.101,383.606,50.097,382.799,48.093,381.865C46.089,380.932,44.086,379.872,42.082,378.75C40.078,377.628,38.074,376.443,36.07,374.853C34.066,373.262,32.062,371.266,30.058,368.851C28.054,366.436,26.05,363.602,24.047,360.032C22.043,356.462,20.039,352.157,18.035,346.671C16.031,341.184,14.027,334.517,12.023,325.687Z" fill="#3D494C" opacity="0.3"/></g></g><path class="foreground" aria-hidden="true" d="" display="none"/></g><g transform="translate(0,0)"><path class="background" aria-hidden="true" d="M0,0h600v400h-600Z"/><g><g class="mark-area role-mark layer_0_layer_0_marks" clip-path="url(#clip3)" role="graphics-object" aria-roledescription="area mark container"><path aria-label="Number of environment steps: 1.00195M; Dormant neuron ratio (%): 10.400390625; upper_Dormant neuron ratio: 11.7024745941; Benchmark: MT25; Ci1 of Dormant neuron ratio: 11.7024745941; Ci0 of Dormant neuron ratio: 10.400390625; Mean of Dormant neuron ratio: 11.0839846929" role="graphics-symbol" aria-roledescription="errorband" d="M12.024,349.653C14.027,357.856,16.031,361.936,18.035,365.951C20.039,369.965,22.043,373.915,24.047,376.259C26.051,378.602,28.055,379.34,30.059,379.818C32.063,380.295,34.067,380.512,36.071,380.599C38.075,380.686,40.079,380.642,42.083,380.621C44.087,380.599,46.091,380.599,48.095,380.599C50.099,380.599,52.103,380.599,54.107,380.317C56.11,380.035,58.114,379.47,60.118,378.472C62.122,377.474,64.126,376.042,66.13,375.239C68.134,374.436,70.138,374.262,72.142,374.631C74.146,375,76.15,375.911,78.154,376.671C80.158,377.431,82.162,378.038,84.166,378.168C86.17,378.299,88.174,377.951,90.178,378.038C92.182,378.125,94.186,378.646,96.189,378.32C98.193,377.995,100.197,376.823,102.201,376.78C104.205,376.736,106.209,377.821,108.213,378.689C110.217,379.557,112.221,380.208,114.225,379.34C116.229,378.472,118.233,376.085,120.237,373.503C122.241,370.92,124.245,368.142,126.249,367.274C128.253,366.406,130.257,367.448,132.261,366.45C134.265,365.451,136.268,362.413,138.272,360.525C140.276,358.637,142.28,357.899,144.284,357.183C146.288,356.467,148.292,355.773,150.296,355.404C152.3,355.035,154.304,354.991,156.308,355.208C158.312,355.425,160.316,355.903,162.32,355.447C164.324,354.991,166.328,353.602,168.332,352.127C170.336,350.651,172.34,349.089,174.344,348.582C176.347,348.075,178.351,348.624,180.355,349.644C182.359,350.664,184.363,352.155,186.367,351.294C188.371,350.434,190.375,347.222,192.379,346.463C194.383,345.703,196.387,347.396,198.391,345.942C200.395,344.488,202.399,339.887,204.403,337.999C206.407,336.111,208.411,336.936,210.415,338.737C212.419,340.538,214.423,343.316,216.426,345.66C218.43,348.003,220.434,349.913,222.438,350.326C224.442,350.738,226.446,349.653,228.45,348.351C230.454,347.049,232.458,345.53,234.462,343.815C236.466,342.101,238.47,340.191,240.474,339.106C242.478,338.021,244.482,337.76,246.486,335.699C248.49,333.637,250.494,329.774,252.498,329.687C254.502,329.601,256.505,333.29,258.509,333.565C260.513,333.84,262.517,330.7,264.521,330.027C266.525,329.355,268.529,331.149,270.533,330.136C272.537,329.123,274.541,325.304,276.545,323.286C278.549,321.267,280.553,321.05,282.557,322.179C284.561,323.307,286.565,325.781,288.569,327.018L288.569,306.25C286.565,307.378,284.561,311.372,282.557,313.607C280.553,315.842,278.549,316.319,276.545,315.039C274.541,313.759,272.537,310.72,270.533,305.469C268.529,300.217,266.525,292.752,264.521,287.023C262.517,281.293,260.513,277.3,258.509,281.539C256.505,285.778,254.502,298.249,252.498,300.246C250.494,302.242,248.49,293.764,246.486,289.352C244.482,284.939,242.478,284.592,240.474,285.872C238.47,287.153,236.466,290.061,234.462,292.925C232.458,295.79,230.454,298.611,228.45,303.754C226.446,308.898,224.442,316.363,222.438,320.573C220.434,324.783,218.43,325.738,216.426,325.89C214.423,326.042,212.419,325.391,210.415,323.199C208.411,321.007,206.407,317.274,204.403,319.293C202.399,321.311,200.395,329.08,198.391,332.4C196.387,335.72,194.383,334.592,192.379,333.181C190.375,331.771,188.371,330.078,186.367,314.648C184.363,299.219,182.359,270.052,180.355,258.55C178.351,247.049,176.347,253.212,174.344,241.949C172.34,230.686,170.336,201.997,168.332,200.828C166.328,199.659,164.324,226.011,162.32,248.494C160.316,270.977,158.312,289.59,156.308,301.349C154.304,313.108,152.3,318.012,150.296,308.051C148.292,298.09,146.288,273.264,144.284,271.593C142.28,269.922,140.276,291.406,138.272,306.315C136.268,321.224,134.265,329.557,132.261,328.819C130.257,328.082,128.253,318.273,126.249,319.835C124.245,321.398,122.241,334.332,120.237,342.708C118.233,351.085,116.229,354.905,114.225,356.076C112.221,357.248,110.217,355.773,108.213,355.686C106.209,355.599,104.205,356.901,102.201,357.422C100.197,357.943,98.193,357.682,96.189,358.181C94.186,358.681,92.182,359.939,90.178,361.263C88.174,362.587,86.17,363.976,84.166,364.54C82.162,365.104,80.158,364.844,78.154,364.996C76.15,365.148,74.146,365.712,72.142,366.037C70.138,366.363,68.134,366.45,66.13,366.536C64.126,366.623,62.122,366.71,60.118,367.318C58.114,367.925,56.11,369.054,54.107,369.336C52.103,369.618,50.099,369.054,48.095,368.685C46.091,368.316,44.087,368.142,42.083,368.164C40.079,368.186,38.075,368.403,36.071,367.773C34.067,367.144,32.063,365.668,30.059,364.757C28.055,363.845,26.051,363.498,24.047,362.24C22.043,360.981,20.039,358.811,18.035,355.404C16.031,351.997,14.027,347.352,12.024,338.976Z" fill="#7A1F18" opacity="0.3"/></g></g><path class="foreground" aria-hidden="true" d="" display="none"/></g></g><g class="mark-group role-scope layer_1_pathgroup" role="graphics-object" aria-roledescription="group mark container"><g transform="translate(0,0)"><path class="background" aria-hidden="true" d="M0,0h600v400h-600Z"/><g><g class="mark-line role-mark layer_1_marks" clip-path="url(#clip4)" role="graphics-object" aria-roledescription="line mark container"><path aria-label="Number of environment steps: 200.38k; Dormant neuron ratio (%): 18.8183597565; Benchmark: MT10" role="graphics-symbol" aria-roledescription="line mark" d="M2.405,275.935C2.805,283.424,3.206,288.906,3.607,293.917C4.008,298.928,4.409,303.468,4.809,307.587C5.21,311.706,5.611,315.404,6.012,318.184C6.412,320.964,6.813,322.826,7.214,324.052C7.615,325.278,8.016,325.868,8.416,326.586C8.817,327.305,9.218,328.151,9.619,328.711C10.019,329.271,10.42,329.544,10.821,329.768C11.222,329.991,11.623,330.165,12.023,330.339C12.424,330.512,12.825,330.686,13.226,330.538C13.626,330.391,14.027,329.922,14.428,329.219C14.829,328.516,15.23,327.578,15.63,326.493C16.031,325.408,16.432,324.175,16.833,323.049C17.233,321.923,17.634,320.903,18.035,319.998C18.436,319.093,18.837,318.303,19.237,317.539C19.638,316.775,20.039,316.037,20.44,315.286C20.841,314.536,21.241,313.772,21.642,313.429C22.043,313.086,22.444,313.164,22.844,312.756C23.245,312.348,23.646,311.454,24.047,310.72C24.448,309.987,24.848,309.414,25.249,309.026C25.65,308.637,26.051,308.433,26.451,307.925C26.852,307.418,27.253,306.606,27.654,306.072C28.055,305.538,28.455,305.282,28.856,304.8C29.257,304.319,29.658,303.611,30.058,302.984C30.459,302.357,30.86,301.81,31.261,301.098C31.662,300.386,32.062,299.51,32.463,298.357C32.864,297.205,33.265,295.777,33.665,294.286C34.066,292.795,34.467,291.241,34.868,289.933C35.269,288.624,35.669,287.561,36.07,286.595C36.471,285.629,36.872,284.761,37.272,283.783C37.673,282.804,38.074,281.714,38.475,280.642C38.876,279.57,39.276,278.516,39.677,277.83C40.078,277.144,40.479,276.827,40.88,276.118C41.28,275.408,41.681,274.306,42.082,273.006C42.483,271.706,42.883,270.208,43.284,269.058C43.685,267.908,44.086,267.105,44.487,266.374C44.887,265.642,45.288,264.983,45.689,264.312C46.09,263.641,46.49,262.96,46.891,262.376C47.292,261.793,47.693,261.306,48.094,260.347C48.494,259.388,48.895,257.956,49.296,256.684C49.697,255.412,50.097,254.301,50.498,253.303C50.899,252.305,51.3,251.419,51.701,250.508C52.101,249.596,52.502,248.659,52.903,247.407C53.304,246.155,53.704,244.588,54.105,243.498C54.506,242.409,54.907,241.797,55.308,241.246C55.708,240.694,56.109,240.204,56.51,239.64C56.911,239.076,57.311,238.437,57.712,237.611C58.113,236.784,58.514,235.768,58.915,234.657C59.315,233.546,59.716,232.339,60.117,230.957C60.518,229.575,60.919,228.016,61.319,227.101C61.72,226.185,62.121,225.911,62.522,225.284C62.922,224.657,63.323,223.676,63.724,222.869C64.125,222.062,64.526,221.428,64.926,220.647C65.327,219.865,65.728,218.937,66.129,218.362C66.529,217.786,66.93,217.565,67.331,216.78C67.732,215.994,68.133,214.644,68.533,213.626C68.934,212.609,69.335,211.923,69.736,211.263C70.136,210.603,70.537,209.97,70.938,209.188C71.339,208.407,71.74,207.478,72.14,206.302C72.541,205.126,72.942,203.702,73.343,202.843C73.743,201.984,74.144,201.688,74.545,200.788C74.946,199.887,75.347,198.381,75.747,197.958C76.148,197.535,76.549,198.194,76.95,198.327C77.35,198.459,77.751,198.064,78.152,197.5C78.553,196.936,78.954,196.202,79.354,195.523C79.755,194.844,80.156,194.219,80.557,193.461C80.958,192.704,81.358,191.814,81.759,191.126C82.16,190.438,82.561,189.952,82.961,189.434C83.362,188.915,83.763,188.364,84.164,187.48C84.565,186.597,84.965,185.382,85.366,184.403C85.767,183.424,86.168,182.682,86.568,182.316C86.969,181.949,87.37,181.957,87.771,181.938C88.172,181.918,88.572,181.871,88.973,181.643C89.374,181.415,89.775,181.007,90.175,180.321C90.576,179.635,90.977,178.672,91.378,178.22C91.779,177.769,92.179,177.83,92.58,177.695C92.981,177.561,93.382,177.231,93.782,176.678C94.183,176.124,94.584,175.347,94.985,174.531C95.386,173.715,95.786,172.86,96.187,171.842C96.588,170.825,96.989,169.644,97.389,168.652C97.79,167.661,98.191,166.858,98.592,166.059C98.993,165.26,99.393,164.466,99.794,164.199C100.195,163.932,100.596,164.193,100.996,163.806C101.397,163.42,101.798,162.387,102.199,161.424C102.6,160.46,103,159.566,103.401,158.859C103.802,158.151,104.203,157.63,104.604,157.465C105.004,157.3,105.405,157.491,105.806,157.431C106.207,157.37,106.607,157.057,107.008,156.895C107.409,156.732,107.81,156.719,108.211,156.775C108.611,156.832,109.012,156.957,109.413,156.504C109.814,156.05,110.214,155.017,110.615,154.444C111.016,153.872,111.417,153.759,111.818,153.294C112.218,152.83,112.619,152.014,113.02,151.595C113.421,151.176,113.821,151.155,114.222,151.089C114.623,151.024,115.024,150.916,115.425,150.755C115.825,150.595,116.226,150.382,116.627,149.789C117.028,149.197,117.428,148.225,117.829,147.563" stroke="#FF4B33" stroke-width="2"/></g></g><path class="foreground" aria-hidden="true" d="" display="none"/></g><g transform="translate(0,0)"><path class="background" aria-hidden="true" d="M0,0h600v400h-600Z"/><g><g class="mark-line role-mark layer_1_marks" clip-path="url(#clip5)" role="graphics-object" aria-roledescription="line mark container"><path aria-label="Number of environment steps: 1.0019M; Dormant neuron ratio (%): 12.6660159111; Benchmark: MT50" role="graphics-symbol" aria-roledescription="line mark" d="M12.023,329.863C14.027,338.746,16.031,345.356,18.035,350.705C20.039,356.055,22.043,360.143,24.047,363.559C26.05,366.975,28.054,369.718,30.058,372.003C32.062,374.288,34.066,376.115,36.07,377.7C38.074,379.284,40.078,380.625,42.082,381.795C44.086,382.964,46.089,383.963,48.093,384.855C50.097,385.747,52.101,386.532,54.105,387.164C56.109,387.795,58.113,388.273,60.117,388.78C62.121,389.288,64.125,389.826,66.128,390.293C68.132,390.76,70.136,391.155,72.14,391.495C74.144,391.836,76.148,392.122,78.152,392.381C80.156,392.639,82.16,392.869,84.164,393.043C86.167,393.216,88.171,393.333,90.175,393.437C92.179,393.542,94.183,393.633,96.187,393.843C98.191,394.054,100.195,394.384,102.199,394.481C104.203,394.579,106.206,394.444,108.21,394.447C110.214,394.449,112.218,394.588,114.222,394.714C116.226,394.839,118.23,394.952,120.234,395.028C122.238,395.104,124.242,395.143,126.245,395.182C128.249,395.221,130.253,395.26,132.257,395.291C134.261,395.321,136.265,395.343,138.269,395.408C140.273,395.473,142.277,395.582,144.281,395.655C146.284,395.729,148.288,395.768,150.292,395.807C152.296,395.846,154.3,395.885,156.304,395.883C158.308,395.881,160.312,395.838,162.316,395.881C164.319,395.924,166.323,396.055,168.327,396.107C170.331,396.159,172.335,396.133,174.339,396.066C176.343,395.998,178.347,395.89,180.351,394.243C182.355,392.595,184.359,389.41,186.362,389.477C188.366,389.544,190.37,392.865,192.374,394.451C194.378,396.037,196.382,395.89,198.386,395.783C200.39,395.677,202.394,395.612,204.398,395.523C206.401,395.434,208.405,395.321,210.409,395.28C212.413,395.239,214.417,395.269,216.421,395.254C218.425,395.239,220.429,395.178,222.433,395.232C224.437,395.286,226.44,395.456,228.444,395.449C230.448,395.443,232.452,395.26,234.456,394.329C236.46,393.398,238.464,391.719,240.468,391.736C242.472,391.753,244.476,393.468,246.479,394.284C248.483,395.1,250.487,395.017,252.491,395.024C254.495,395.03,256.499,395.126,258.503,395.156C260.507,395.187,262.511,395.152,264.515,395.091C266.518,395.03,268.522,394.944,270.526,394.924C272.53,394.905,274.534,394.952,276.538,394.948C278.542,394.944,280.546,394.887,282.55,394.822C284.554,394.757,286.557,394.683,288.561,394.64C290.565,394.596,292.569,394.583,294.573,394.466C296.577,394.349,298.581,394.128,300.585,394.054C302.589,393.98,304.593,394.054,306.596,394.104C308.6,394.154,310.604,394.18,312.608,394.169C314.612,394.158,316.616,394.11,318.62,394.095C320.624,394.08,322.628,394.097,324.632,394.03C326.635,393.963,328.639,393.811,330.643,393.737C332.647,393.663,334.651,393.668,336.655,393.633C338.659,393.598,340.663,393.524,342.667,393.388C344.671,393.251,346.674,393.051,348.678,392.988C350.682,392.925,352.686,392.999,354.69,392.982C356.694,392.964,358.698,392.856,360.702,392.684C362.706,392.513,364.71,392.279,366.713,392.233C368.717,392.187,370.721,392.331,372.725,392.287C374.729,392.244,376.733,392.014,378.737,391.986C380.741,391.957,382.745,392.131,384.749,392.142C386.752,392.153,388.756,392.001,390.76,391.905C392.764,391.81,394.768,391.771,396.772,391.76C398.776,391.749,400.78,391.766,402.784,391.738C404.787,391.71,406.791,391.636,408.795,391.599C410.799,391.562,412.803,391.562,414.807,391.526C416.811,391.489,418.815,391.415,420.819,391.187C422.823,390.959,424.826,390.577,426.83,390.556C428.834,390.534,430.838,390.872,432.842,391.009C434.846,391.146,436.85,391.081,438.854,390.838C440.858,390.595,442.862,390.174,444.865,390.035C446.869,389.896,448.873,390.039,450.877,390.13C452.881,390.221,454.885,390.26,456.889,390.28C458.893,390.299,460.897,390.299,462.901,390.284C464.904,390.269,466.908,390.239,468.912,390.154C470.916,390.069,472.92,389.931,474.924,389.531C476.928,389.132,478.932,388.472,480.936,388.388C482.94,388.303,484.944,388.793,486.947,388.939C488.951,389.084,490.955,388.885,492.959,388.602C494.963,388.32,496.967,387.956,498.971,387.609C500.975,387.261,502.979,386.931,504.983,387.001C506.986,387.07,508.99,387.539,510.994,387.6C512.998,387.661,515.002,387.313,517.006,386.806C519.01,386.298,521.014,385.629,523.018,385.729C525.022,385.829,527.025,386.697,529.029,387.203C531.033,387.708,533.037,387.852,535.041,387.841C537.045,387.83,539.049,387.665,541.053,387.452C543.057,387.24,545.06,386.979,547.064,386.91C549.068,386.84,551.072,386.962,553.076,386.99C555.08,387.018,557.084,386.953,559.088,386.79C561.092,386.628,563.096,386.367,565.099,386.211C567.103,386.055,569.107,386.003,571.111,385.94C573.115,385.877,575.119,385.803,577.123,385.61C579.127,385.417,581.131,385.104,583.135,385.03C585.139,384.957,587.142,385.122,589.146,385.119" stroke="#3D494C" stroke-width="2"/></g></g><path class="foreground" aria-hidden="true" d="" display="none"/></g><g transform="translate(0,0)"><path class="background" aria-hidden="true" d="M0,0h600v400h-600Z"/><g><g class="mark-line role-mark layer_1_marks" clip-path="url(#clip6)" role="graphics-object" aria-roledescription="line mark container"><path aria-label="Number of environment steps: 1.00195M; Dormant neuron ratio (%): 11.0839846929; Benchmark: MT25" role="graphics-symbol" aria-roledescription="line mark" d="M12.024,343.685C14.027,352.141,16.031,357.104,18.035,361.111C20.039,365.119,22.043,368.171,24.047,369.799C26.051,371.427,28.055,371.629,30.059,371.911C32.063,372.193,34.067,372.555,36.071,372.721C38.075,372.888,40.079,372.859,42.083,372.815C44.087,372.772,46.091,372.714,48.095,373.032C50.099,373.351,52.103,374.045,54.107,373.929C56.11,373.814,58.114,372.888,60.118,372.099C62.122,371.311,64.126,370.66,66.13,370.508C68.134,370.356,70.138,370.703,72.142,370.877C74.146,371.05,76.15,371.05,78.154,370.855C80.158,370.66,82.162,370.269,84.166,370.117C86.17,369.965,88.174,370.052,90.178,369.958C92.182,369.864,94.186,369.589,96.189,369.264C98.193,368.938,100.197,368.562,102.201,367.578C104.205,366.594,106.209,365.003,108.213,364.67C110.217,364.337,112.221,365.263,114.225,364.981C116.229,364.699,118.233,363.209,120.237,359.903C122.241,356.597,124.245,351.476,126.249,350.477C128.253,349.479,130.257,352.604,132.261,352.12C134.265,351.635,136.268,347.541,138.272,341.406C140.276,335.272,142.28,327.098,144.284,326.642C146.288,326.186,148.292,333.449,150.296,336.806C152.3,340.162,154.304,339.612,156.308,333.659C158.312,327.705,160.316,316.348,162.32,308.304C164.324,300.26,166.328,295.53,168.332,297.584C170.336,299.638,172.34,308.478,174.344,311.994C176.347,315.509,178.351,313.701,180.355,317.499C182.359,321.296,184.363,330.7,186.367,335.373C188.371,340.046,190.375,339.988,192.379,340.372C194.383,340.755,196.387,341.58,198.391,339.41C200.395,337.24,202.399,332.075,204.403,330.122C206.407,328.168,208.411,329.427,210.415,330.722C212.419,332.017,214.423,333.348,216.426,334.281C218.43,335.214,220.434,335.749,222.438,334.346C224.442,332.943,226.446,329.601,228.45,326.353C230.454,323.105,232.458,319.951,234.462,317.556C236.466,315.162,238.47,313.527,240.474,312.674C242.478,311.82,244.482,311.748,246.486,312.543C248.49,313.339,250.494,315.003,252.498,314.012C254.502,313.021,256.505,309.375,258.509,308.709C260.513,308.044,262.517,310.359,264.521,312.775C266.525,315.191,268.529,317.708,270.533,318.714C272.537,319.719,274.541,319.213,276.545,318.786C278.549,318.359,280.553,318.012,282.557,317.274C284.561,316.536,286.565,315.408,288.569,315.126" stroke="#7A1F18" stroke-width="2"/></g></g><path class="foreground" aria-hidden="true" d="" display="none"/></g></g><g class="mark-group role-legend" role="graphics-symbol" aria-roledescription="legend" aria-label="Symbol legend titled 'Benchmark' for fill color and stroke color with 3 values: MT10, MT25, MT50"><g transform="translate(18,18)"><path class="background" aria-hidden="true" d="M0,0h80v67h-80Z" pointer-events="none"/><g><g class="mark-group role-legend-entry"><g transform="translate(0,21)"><path class="background" aria-hidden="true" d="M0,0h0v0h0Z" pointer-events="none"/><g><g class="mark-group role-scope" role="graphics-object" aria-roledescription="group mark container"><g transform="translate(0,0)"><path class="background" aria-hidden="true" d="M0,0h53v14h-53Z" pointer-events="none" opacity="1"/><g><g class="mark-symbol role-legend-symbol" pointer-events="none"><path transform="translate(7,7)" d="M3.536,0A3.536,3.536,0,1,1,-3.536,0A3.536,3.536,0,1,1,3.536,0" fill="#FF4B33" stroke="#FF4B33" stroke-width="1.5" opacity="1"/></g><g class="mark-text role-legend-label" pointer-events="none"><text text-anchor="start" transform="translate(18,11)" font-family="Times New Roman" font-size="14px" fill="#000" opacity="1">MT10</text></g></g><path class="foreground" aria-hidden="true" d="" pointer-events="none" display="none"/></g><g transform="translate(0,16)"><path class="background" aria-hidden="true" d="M0,0h53v14h-53Z" pointer-events="none" opacity="1"/><g><g class="mark-symbol role-legend-symbol" pointer-events="none"><path transform="translate(7,7)" d="M3.536,0A3.536,3.536,0,1,1,-3.536,0A3.536,3.536,0,1,1,3.536,0" fill="#7A1F18" stroke="#7A1F18" stroke-width="1.5" opacity="1"/></g><g class="mark-text role-legend-label" pointer-events="none"><text text-anchor="start" transform="translate(18,11)" font-family="Times New Roman" font-size="14px" fill="#000" opacity="1">MT25</text></g></g><path class="foreground" aria-hidden="true" d="" pointer-events="none" display="none"/></g><g transform="translate(0,32)"><path class="background" aria-hidden="true" d="M0,0h53v14h-53Z" pointer-events="none" opacity="1"/><g><g class="mark-symbol role-legend-symbol" pointer-events="none"><path transform="translate(7,7)" d="M3.536,0A3.536,3.536,0,1,1,-3.536,0A3.536,3.536,0,1,1,3.536,0" fill="#3D494C" stroke="#3D494C" stroke-width="1.5" opacity="1"/></g><g class="mark-text role-legend-label" pointer-events="none"><text text-anchor="start" transform="translate(18,11)" font-family="Times New Roman" font-size="14px" fill="#000" opacity="1">MT50</text></g></g><path class="foreground" aria-hidden="true" d="" pointer-events="none" display="none"/></g></g></g><path class="foreground" aria-hidden="true" d="" pointer-events="none" display="none"/></g></g><g class="mark-text role-legend-title" pointer-events="none"><text text-anchor="start" transform="translate(0,13)" font-family="Times New Roman" font-size="16px" font-weight="bold" fill="#000" opacity="1">Benchmark</text></g></g><path class="foreground" aria-hidden="true" d="" pointer-events="none" display="none"/></g></g></g><path class="foreground" aria-hidden="true" d="" display="none"/></g></g></g><defs><clipPath id="clip1"><rect x="0" y="0" width="600" height="400"/></clipPath><clipPath id="clip2"><rect x="0" y="0" width="600" height="400"/></clipPath><clipPath id="clip3"><rect x="0" y="0" width="600" height="400"/></clipPath><clipPath id="clip4"><rect x="0" y="0" width="600" height="400"/></clipPath><clipPath id="clip5"><rect x="0" y="0" width="600" height="400"/></clipPath><clipPath id="clip6"><rect x="0" y="0" width="600" height="400"/></clipPath></defs></svg>