<svg xmlns="http://www.w3.org/2000/svg" xmlns:xlink="http://www.w3.org/1999/xlink" version="1.1" class="marks" width="652" height="458" viewBox="0 0 652 458"><rect width="652" height="458" fill="white"/><g fill="none" stroke-miterlimit="10" transform="translate(46,12)"><g class="mark-group role-frame root" role="graphics-object" aria-roledescription="group mark container"><g transform="translate(0,0)"><path class="background" aria-hidden="true" d="M0.5,0.5h600v400h-600Z" stroke="#ddd"/><g><g class="mark-group role-axis" aria-hidden="true"><g transform="translate(0.5,400.5)"><path class="background" aria-hidden="true" d="M0,0h0v0h0Z" pointer-events="none"/><g><g class="mark-rule role-axis-grid" pointer-events="none"><line transform="translate(0,-400)" x2="0" y2="400" stroke="#ddd" stroke-width="1" opacity="1"/><line transform="translate(30,-400)" x2="0" y2="400" stroke="#ddd" stroke-width="1" opacity="1"/><line transform="translate(60,-400)" x2="0" y2="400" stroke="#ddd" stroke-width="1" opacity="1"/><line transform="translate(90,-400)" x2="0" y2="400" stroke="#ddd" stroke-width="1" opacity="1"/><line transform="translate(120,-400)" x2="0" y2="400" stroke="#ddd" stroke-width="1" opacity="1"/><line transform="translate(150,-400)" x2="0" y2="400" stroke="#ddd" stroke-width="1" opacity="1"/><line transform="translate(180,-400)" x2="0" y2="400" stroke="#ddd" stroke-width="1" opacity="1"/><line transform="translate(210,-400)" x2="0" y2="400" stroke="#ddd" stroke-width="1" opacity="1"/><line transform="translate(240,-400)" x2="0" y2="400" stroke="#ddd" stroke-width="1" opacity="1"/><line transform="translate(270,-400)" x2="0" y2="400" stroke="#ddd" stroke-width="1" opacity="1"/><line transform="translate(300,-400)" x2="0" y2="400" stroke="#ddd" stroke-width="1" opacity="1"/><line transform="translate(330,-400)" x2="0" y2="400" stroke="#ddd" stroke-width="1" opacity="1"/><line transform="translate(360,-400)" x2="0" y2="400" stroke="#ddd" stroke-width="1" opacity="1"/><line transform="translate(390,-400)" x2="0" y2="400" stroke="#ddd" stroke-width="1" opacity="1"/><line transform="translate(420,-400)" x2="0" y2="400" stroke="#ddd" stroke-width="1" opacity="1"/><line transform="translate(450,-400)" x2="0" y2="400" stroke="#ddd" stroke-width="1" opacity="1"/><line transform="translate(480,-400)" x2="0" y2="400" stroke="#ddd" stroke-width="1" opacity="1"/><line transform="translate(510,-400)" x2="0" y2="400" stroke="#ddd" stroke-width="1" opacity="1"/><line transform="translate(540,-400)" x2="0" y2="400" stroke="#ddd" stroke-width="1" opacity="1"/><line transform="translate(570,-400)" x2="0" y2="400" stroke="#ddd" stroke-width="1" opacity="1"/><line transform="translate(600,-400)" x2="0" y2="400" stroke="#ddd" stroke-width="1" opacity="1"/></g></g><path class="foreground" aria-hidden="true" d="" pointer-events="none" display="none"/></g></g><g class="mark-group role-axis" aria-hidden="true"><g transform="translate(0.5,0.5)"><path class="background" aria-hidden="true" d="M0,0h0v0h0Z" pointer-events="none"/><g><g class="mark-rule role-axis-grid" pointer-events="none"><line transform="translate(0,400)" x2="600" y2="0" stroke="#ddd" stroke-width="1" opacity="1"/><line transform="translate(0,360)" x2="600" y2="0" stroke="#ddd" stroke-width="1" opacity="1"/><line transform="translate(0,320)" x2="600" y2="0" stroke="#ddd" stroke-width="1" opacity="1"/><line transform="translate(0,280)" x2="600" y2="0" stroke="#ddd" stroke-width="1" opacity="1"/><line transform="translate(0,240)" x2="600" y2="0" stroke="#ddd" stroke-width="1" opacity="1"/><line transform="translate(0,200)" x2="600" y2="0" stroke="#ddd" stroke-width="1" opacity="1"/><line transform="translate(0,160)" x2="600" y2="0" stroke="#ddd" stroke-width="1" opacity="1"/><line transform="translate(0,120)" x2="600" y2="0" stroke="#ddd" stroke-width="1" opacity="1"/><line transform="translate(0,80)" x2="600" y2="0" stroke="#ddd" stroke-width="1" opacity="1"/><line transform="translate(0,40)" x2="600" y2="0" stroke="#ddd" stroke-width="1" opacity="1"/><line transform="translate(0,0)" x2="600" y2="0" stroke="#ddd" stroke-width="1" opacity="1"/></g></g><path class="foreground" aria-hidden="true" d="" pointer-events="none" display="none"/></g></g><g class="mark-group role-axis" role="graphics-symbol" aria-roledescription="axis" aria-label="X-axis titled 'Number of environment steps' for a linear scale with values from 0M to 100M"><g transform="translate(0.5,400.5)"><path class="background" aria-hidden="true" d="M0,0h0v0h0Z" pointer-events="none"/><g><g class="mark-rule role-axis-tick" pointer-events="none"><line transform="translate(0,0)" x2="0" y2="5" stroke="#888" stroke-width="1" opacity="1"/><line transform="translate(30,0)" x2="0" y2="5" stroke="#888" stroke-width="1" opacity="1"/><line transform="translate(60,0)" x2="0" y2="5" stroke="#888" stroke-width="1" opacity="1"/><line transform="translate(90,0)" x2="0" y2="5" stroke="#888" stroke-width="1" opacity="1"/><line transform="translate(120,0)" x2="0" y2="5" stroke="#888" stroke-width="1" opacity="1"/><line transform="translate(150,0)" x2="0" y2="5" stroke="#888" stroke-width="1" opacity="1"/><line transform="translate(180,0)" x2="0" y2="5" stroke="#888" stroke-width="1" opacity="1"/><line transform="translate(210,0)" x2="0" y2="5" stroke="#888" stroke-width="1" opacity="1"/><line transform="translate(240,0)" x2="0" y2="5" stroke="#888" stroke-width="1" opacity="1"/><line transform="translate(270,0)" x2="0" y2="5" stroke="#888" stroke-width="1" opacity="1"/><line transform="translate(300,0)" x2="0" y2="5" stroke="#888" stroke-width="1" opacity="1"/><line transform="translate(330,0)" x2="0" y2="5" stroke="#888" stroke-width="1" opacity="1"/><line transform="translate(360,0)" x2="0" y2="5" stroke="#888" stroke-width="1" opacity="1"/><line transform="translate(390,0)" x2="0" y2="5" stroke="#888" stroke-width="1" opacity="1"/><line transform="translate(420,0)" x2="0" y2="5" stroke="#888" stroke-width="1" opacity="1"/><line transform="translate(450,0)" x2="0" y2="5" stroke="#888" stroke-width="1" opacity="1"/><line transform="translate(480,0)" x2="0" y2="5" stroke="#888" stroke-width="1" opacity="1"/><line transform="translate(510,0)" x2="0" y2="5" stroke="#888" stroke-width="1" opacity="1"/><line transform="translate(540,0)" x2="0" y2="5" stroke="#888" stroke-width="1" opacity="1"/><line transform="translate(570,0)" x2="0" y2="5" stroke="#888" stroke-width="1" opacity="1"/><line transform="translate(600,0)" x2="0" y2="5" stroke="#888" stroke-width="1" opacity="1"/></g><g class="mark-text role-axis-label" pointer-events="none"><text text-anchor="start" transform="translate(0,18)" font-family="Times New Roman" font-size="14px" fill="#000" opacity="1">0</text><text text-anchor="middle" transform="translate(30,18)" font-family="Times New Roman" font-size="14px" fill="#000" opacity="0">5M</text><text text-anchor="middle" transform="translate(60,18)" font-family="Times New Roman" font-size="14px" fill="#000" opacity="1">10M</text><text text-anchor="middle" transform="translate(90,18)" font-family="Times New Roman" font-size="14px" fill="#000" opacity="0">15M</text><text text-anchor="middle" transform="translate(120,18)" font-family="Times New Roman" font-size="14px" fill="#000" opacity="1">20M</text><text text-anchor="middle" transform="translate(150,18)" font-family="Times New Roman" font-size="14px" fill="#000" opacity="0">25M</text><text text-anchor="middle" transform="translate(180,18)" font-family="Times New Roman" font-size="14px" fill="#000" opacity="1">30M</text><text text-anchor="middle" transform="translate(210,18)" font-family="Times New Roman" font-size="14px" fill="#000" opacity="0">35M</text><text text-anchor="middle" transform="translate(240,18)" font-family="Times New Roman" font-size="14px" fill="#000" opacity="1">40M</text><text text-anchor="middle" transform="translate(270,18)" font-family="Times New Roman" font-size="14px" fill="#000" opacity="0">45M</text><text text-anchor="middle" transform="translate(300,18)" font-family="Times New Roman" font-size="14px" fill="#000" opacity="1">50M</text><text text-anchor="middle" transform="translate(330,18)" font-family="Times New Roman" font-size="14px" fill="#000" opacity="0">55M</text><text text-anchor="middle" transform="translate(360,18)" font-family="Times New Roman" font-size="14px" fill="#000" opacity="1">60M</text><text text-anchor="middle" transform="translate(390,18)" font-family="Times New Roman" font-size="14px" fill="#000" opacity="0">65M</text><text text-anchor="middle" transform="translate(420,18)" font-family="Times New Roman" font-size="14px" fill="#000" opacity="1">70M</text><text text-anchor="middle" transform="translate(450,18)" font-family="Times New Roman" font-size="14px" fill="#000" opacity="0">75M</text><text text-anchor="middle" transform="translate(480,18)" font-family="Times New Roman" font-size="14px" fill="#000" opacity="1">80M</text><text text-anchor="middle" transform="translate(510,18)" font-family="Times New Roman" font-size="14px" fill="#000" opacity="0">85M</text><text text-anchor="middle" transform="translate(540,18)" font-family="Times New Roman" font-size="14px" fill="#000" opacity="1">90M</text><text text-anchor="middle" transform="translate(570,18)" font-family="Times New Roman" font-size="14px" fill="#000" opacity="0">95M</text><text text-anchor="end" transform="translate(600,18)" font-family="Times New Roman" font-size="14px" fill="#000" opacity="1">100M</text></g><g class="mark-rule role-axis-domain" pointer-events="none"><line transform="translate(0,0)" x2="600" y2="0" stroke="#888" stroke-width="1" opacity="1"/></g><g class="mark-text role-axis-title" pointer-events="none"><text text-anchor="middle" transform="translate(300,38)" font-family="Times New Roman" font-size="16px" font-weight="bold" fill="#000" opacity="1">Number of environment steps</text></g></g><path class="foreground" aria-hidden="true" d="" pointer-events="none" display="none"/></g></g><g class="mark-group role-axis" role="graphics-symbol" aria-roledescription="axis" aria-label="Y-axis titled 'Dormant neuron ratio (%)' for a linear scale with values from 0 to 50"><g transform="translate(0.5,0.5)"><path class="background" aria-hidden="true" d="M0,0h0v0h0Z" pointer-events="none"/><g><g class="mark-rule role-axis-tick" pointer-events="none"><line transform="translate(0,400)" x2="-5" y2="0" stroke="#888" stroke-width="1" opacity="1"/><line transform="translate(0,360)" x2="-5" y2="0" stroke="#888" stroke-width="1" opacity="1"/><line transform="translate(0,320)" x2="-5" y2="0" stroke="#888" stroke-width="1" opacity="1"/><line transform="translate(0,280)" x2="-5" y2="0" stroke="#888" stroke-width="1" opacity="1"/><line transform="translate(0,240)" x2="-5" y2="0" stroke="#888" stroke-width="1" opacity="1"/><line transform="translate(0,200)" x2="-5" y2="0" stroke="#888" stroke-width="1" opacity="1"/><line transform="translate(0,160)" x2="-5" y2="0" stroke="#888" stroke-width="1" opacity="1"/><line transform="translate(0,120)" x2="-5" y2="0" stroke="#888" stroke-width="1" opacity="1"/><line transform="translate(0,80)" x2="-5" y2="0" stroke="#888" stroke-width="1" opacity="1"/><line transform="translate(0,40)" x2="-5" y2="0" stroke="#888" stroke-width="1" opacity="1"/><line transform="translate(0,0)" x2="-5" y2="0" stroke="#888" stroke-width="1" opacity="1"/></g><g class="mark-text role-axis-label" pointer-events="none"><text text-anchor="end" transform="translate(-7,404)" font-family="Times New Roman" font-size="14px" fill="#000" opacity="1">0</text><text text-anchor="end" transform="translate(-7,364)" font-family="Times New Roman" font-size="14px" fill="#000" opacity="1">5</text><text text-anchor="end" transform="translate(-7,324)" font-family="Times New Roman" font-size="14px" fill="#000" opacity="1">10</text><text text-anchor="end" transform="translate(-7,284)" font-family="Times New Roman" font-size="14px" fill="#000" opacity="1">15</text><text text-anchor="end" transform="translate(-7,244)" font-family="Times New Roman" font-size="14px" fill="#000" opacity="1">20</text><text text-anchor="end" transform="translate(-7,204)" font-family="Times New Roman" font-size="14px" fill="#000" opacity="1">25</text><text text-anchor="end" transform="translate(-7,164)" font-family="Times New Roman" font-size="14px" fill="#000" opacity="1">30</text><text text-anchor="end" transform="translate(-7,124.00000000000001)" font-family="Times New Roman" font-size="14px" fill="#000" opacity="1">35</text><text text-anchor="end" transform="translate(-7,83.99999999999999)" font-family="Times New Roman" font-size="14px" fill="#000" opacity="1">40</text><text text-anchor="end" transform="translate(-7,43.99999999999999)" font-family="Times New Roman" font-size="14px" fill="#000" opacity="1">45</text><text text-anchor="end" transform="translate(-7,4)" font-family="Times New Roman" font-size="14px" fill="#000" opacity="1">50</text></g><g class="mark-rule role-axis-domain" pointer-events="none"><line transform="translate(0,400)" x2="0" y2="-400" stroke="#888" stroke-width="1" opacity="1"/></g><g class="mark-text role-axis-title" pointer-events="none"><text text-anchor="middle" transform="translate(-25,200) rotate(-90) translate(0,-3)" font-family="Times New Roman" font-size="16px" font-weight="bold" fill="#000" opacity="1">Dormant neuron ratio (%)</text></g></g><path class="foreground" aria-hidden="true" d="" pointer-events="none" display="none"/></g></g><g class="mark-group role-scope layer_0_layer_0_pathgroup" role="graphics-object" aria-roledescription="group mark container"><g transform="translate(0,0)"><path class="background" aria-hidden="true" d="M0,0h600v400h-600Z"/><g><g class="mark-area role-mark layer_0_layer_0_marks" clip-path="url(#clip1)" role="graphics-object" aria-roledescription="area mark container"><path aria-label="Number of environment steps: 200.38k; Dormant neuron ratio (%): 18.0060225821; upper_Dormant neuron ratio: 19.705607543; Benchmark: MT10; Ci1 of Dormant neuron ratio: 19.705607543; Ci0 of Dormant neuron ratio: 18.0060225821; Mean of Dormant neuron ratio: 18.8183597565" role="graphics-symbol" aria-roledescription="errorband" d="M2.405,283.432C2.805,290.843,3.206,295.631,3.607,300.338C4.008,305.045,4.409,309.671,4.809,313.61C5.21,317.548,5.611,320.799,6.012,323.254C6.412,325.708,6.813,327.366,7.214,328.516C7.615,329.667,8.016,330.309,8.416,330.958C8.817,331.607,9.218,332.262,9.619,332.865C10.019,333.469,10.42,334.02,10.821,334.43C11.222,334.84,11.623,335.109,12.023,335.295C12.424,335.482,12.825,335.586,13.226,335.387C13.626,335.188,14.027,334.685,14.428,334.082C14.829,333.479,15.23,332.775,15.63,331.917C16.031,331.06,16.432,330.048,16.833,329.134C17.233,328.221,17.634,327.405,18.035,326.739C18.436,326.072,18.837,325.556,19.237,324.83C19.638,324.104,20.039,323.167,20.44,322.519C20.841,321.871,21.241,321.512,21.642,321.405C22.043,321.298,22.444,321.444,22.844,321.076C23.245,320.708,23.646,319.827,24.047,319.044C24.448,318.26,24.848,317.576,25.249,317.257C25.65,316.938,26.051,316.985,26.451,316.759C26.852,316.533,27.253,316.033,27.654,315.589C28.055,315.144,28.455,314.755,28.856,314.321C29.257,313.887,29.658,313.408,30.058,312.828C30.459,312.249,30.86,311.567,31.261,310.74C31.662,309.914,32.062,308.942,32.463,307.825C32.864,306.707,33.265,305.445,33.665,304.113C34.066,302.78,34.467,301.377,34.868,300.32C35.269,299.263,35.669,298.552,36.07,297.848C36.471,297.145,36.872,296.45,37.272,295.45C37.673,294.449,38.074,293.143,38.475,292.165C38.876,291.187,39.276,290.539,39.677,289.855C40.078,289.172,40.479,288.454,40.88,287.655C41.28,286.855,41.681,285.973,42.082,284.836C42.483,283.699,42.883,282.306,43.284,281.21C43.685,280.114,44.086,279.315,44.487,278.503C44.887,277.692,45.288,276.867,45.689,276.245C46.09,275.622,46.49,275.201,46.891,274.576C47.292,273.951,47.693,273.122,48.094,272.063C48.494,271.004,48.895,269.717,49.296,268.812C49.697,267.908,50.097,267.386,50.498,266.333C50.899,265.28,51.3,263.695,51.701,262.332C52.101,260.97,52.502,259.83,52.903,258.616C53.304,257.402,53.704,256.114,54.105,255.227C54.506,254.341,54.907,253.857,55.308,253.654C55.708,253.451,56.109,253.529,56.51,253.069C56.911,252.61,57.311,251.611,57.712,250.685C58.113,249.758,58.514,248.903,58.915,247.926C59.315,246.95,59.716,245.852,60.117,244.366C60.518,242.88,60.919,241.005,61.319,239.788C61.72,238.571,62.121,238.012,62.522,237.106C62.922,236.201,63.323,234.95,63.724,234.003C64.125,233.057,64.526,232.414,64.926,231.539C65.327,230.664,65.728,229.558,66.129,228.879C66.529,228.201,66.93,227.95,67.331,227.39C67.732,226.831,68.133,225.961,68.533,225.267C68.934,224.572,69.335,224.053,69.736,223.316C70.136,222.578,70.537,221.621,70.938,220.748C71.339,219.875,71.74,219.085,72.14,217.74C72.541,216.395,72.942,214.494,73.343,213.6C73.743,212.706,74.144,212.818,74.545,212.041C74.946,211.264,75.347,209.597,75.747,209.345C76.148,209.093,76.549,210.256,76.95,210.702C77.35,211.148,77.751,210.877,78.152,210.443C78.553,210.01,78.954,209.414,79.354,208.491C79.755,207.569,80.156,206.319,80.557,205.369C80.958,204.419,81.358,203.767,81.759,203.195C82.16,202.624,82.561,202.133,82.961,201.421C83.362,200.71,83.763,199.776,84.164,198.735C84.565,197.693,84.965,196.542,85.366,195.359C85.767,194.176,86.168,192.961,86.568,192.297C86.969,191.634,87.37,191.524,87.771,191.721C88.172,191.919,88.572,192.425,88.973,192.507C89.374,192.589,89.775,192.247,90.175,191.711C90.576,191.174,90.977,190.444,91.378,189.874C91.779,189.303,92.179,188.891,92.58,188.49C92.981,188.088,93.382,187.698,93.782,187.062C94.183,186.426,94.584,185.544,94.985,184.453C95.386,183.361,95.786,182.058,96.187,180.967C96.588,179.875,96.989,178.994,97.389,177.995C97.79,176.997,98.191,175.881,98.592,174.931C98.993,173.98,99.393,173.195,99.794,172.796C100.195,172.397,100.596,172.384,100.996,171.959C101.397,171.533,101.798,170.696,102.199,169.897C102.6,169.098,103,168.338,103.401,167.64C103.802,166.942,104.203,166.305,104.604,166.6C105.004,166.895,105.405,168.122,105.806,168.829C106.207,169.536,106.607,169.723,107.008,169.437C107.409,169.151,107.81,168.392,108.211,168.374C108.611,168.356,109.012,169.079,109.413,168.74C109.814,168.401,110.214,167.001,110.615,166.133C111.016,165.266,111.417,164.931,111.818,164.518C112.218,164.104,112.619,163.612,113.02,163.367C113.421,163.122,113.821,163.125,114.222,163.389C114.623,163.653,115.024,164.177,115.425,164.069C115.825,163.961,116.226,163.22,116.627,162.402C117.028,161.584,117.428,160.689,117.829,159.944L117.829,135.943C117.428,136.585,117.028,137.249,116.627,137.775C116.226,138.301,115.825,138.688,115.425,138.889C115.024,139.091,114.623,139.108,114.222,139.287C113.821,139.467,113.421,139.809,113.02,140.224C112.619,140.639,112.218,141.126,111.818,141.669C111.417,142.211,111.016,142.808,110.615,143.504C110.214,144.2,109.814,144.995,109.413,145.29C109.012,145.585,108.611,145.381,108.211,145.163C107.81,144.944,107.409,144.711,107.008,145.063C106.607,145.415,106.207,146.352,105.806,146.849C105.405,147.346,105.004,147.403,104.604,147.787C104.203,148.172,103.802,148.883,103.401,149.632C103,150.38,102.6,151.165,102.199,152.282C101.798,153.4,101.397,154.849,100.997,155.182C100.596,155.514,100.195,154.73,99.794,154.858C99.393,154.986,98.993,156.028,98.592,156.793C98.191,157.559,97.79,158.05,97.389,158.898C96.989,159.747,96.588,160.953,96.187,161.994C95.786,163.036,95.386,163.911,94.985,164.684C94.584,165.457,94.183,166.126,93.782,166.487C93.382,166.848,92.981,166.901,92.58,166.844C92.179,166.787,91.779,166.621,91.378,167.002C90.977,167.383,90.576,168.311,90.175,169.108C89.775,169.904,89.374,170.57,88.973,171.144C88.572,171.718,88.172,172.199,87.771,172.47C87.37,172.742,86.969,172.803,86.568,172.857C86.168,172.912,85.767,172.96,85.366,173.628C84.965,174.297,84.565,175.585,84.164,176.44C83.763,177.294,83.362,177.714,82.961,178.07C82.561,178.426,82.16,178.718,81.759,179.393C81.358,180.067,80.958,181.124,80.557,182.044C80.156,182.963,79.755,183.744,79.354,184.354C78.954,184.965,78.553,185.404,78.152,185.945C77.751,186.486,77.35,187.129,76.95,187.21C76.549,187.291,76.148,186.809,75.747,187.067C75.347,187.325,74.946,188.323,74.545,189.157C74.144,189.991,73.743,190.662,73.343,191.591C72.942,192.52,72.541,193.707,72.14,194.814C71.74,195.922,71.339,196.951,70.938,197.754C70.537,198.556,70.136,199.133,69.736,199.628C69.335,200.123,68.934,200.537,68.533,201.852C68.133,203.168,67.732,205.386,67.331,206.523C66.93,207.66,66.529,207.716,66.129,207.966C65.728,208.215,65.327,208.658,64.926,209.242C64.526,209.826,64.125,210.55,63.724,211.136C63.323,211.721,62.922,212.169,62.522,212.496C62.121,212.824,61.72,213.031,61.319,214.093C60.919,215.154,60.518,217.069,60.117,218.389C59.716,219.709,59.315,220.433,58.915,221.553C58.514,222.672,58.113,224.187,57.712,225.204C57.311,226.221,56.911,226.74,56.51,227.196C56.109,227.651,55.708,228.043,55.308,228.734C54.907,229.424,54.506,230.414,54.105,231.485C53.704,232.555,53.304,233.706,52.903,234.993C52.502,236.28,52.101,237.704,51.701,238.721C51.3,239.739,50.899,240.35,50.498,241.393C50.097,242.436,49.697,243.912,49.296,245.314C48.895,246.715,48.494,248.043,48.094,248.79C47.693,249.537,47.292,249.703,46.891,250.367C46.49,251.031,46.09,252.194,45.689,252.882C45.288,253.571,44.887,253.784,44.487,254.287C44.086,254.79,43.685,255.584,43.284,256.701C42.883,257.819,42.483,259.26,42.082,260.706C41.681,262.152,41.28,263.602,40.88,264.403C40.479,265.203,40.078,265.355,39.677,266.032C39.276,266.709,38.876,267.912,38.475,268.866C38.074,269.82,37.673,270.526,37.272,271.326C36.872,272.127,36.471,273.022,36.07,274.162C35.669,275.302,35.269,276.687,34.868,278.256C34.467,279.825,34.066,281.579,33.665,283.281C33.265,284.982,32.864,286.631,32.463,287.82C32.062,289.009,31.662,289.738,31.261,290.537C30.86,291.335,30.459,292.204,30.058,292.755C29.658,293.306,29.257,293.54,28.856,293.879C28.455,294.217,28.055,294.659,27.654,295.401C27.253,296.144,26.852,297.186,26.451,297.941C26.051,298.696,25.65,299.162,25.249,299.718C24.848,300.273,24.448,300.916,24.047,301.312C23.646,301.708,23.245,301.857,22.844,302.263C22.444,302.669,22.043,303.333,21.642,304.105C21.241,304.876,20.841,305.755,20.44,306.656C20.039,307.556,19.638,308.477,19.237,309.65C18.837,310.823,18.436,312.247,18.035,313.471C17.634,314.695,17.233,315.72,16.833,316.985C16.432,318.25,16.031,319.757,15.63,321.091C15.23,322.426,14.829,323.589,14.428,324.383C14.027,325.177,13.626,325.602,13.226,325.613C12.825,325.624,12.424,325.221,12.023,324.923C11.623,324.626,11.222,324.435,10.821,324.214C10.42,323.992,10.019,323.74,9.619,322.981C9.218,322.221,8.817,320.954,8.416,320.353C8.016,319.752,7.615,319.818,7.214,318.826C6.813,317.834,6.412,315.785,6.012,312.849C5.611,309.912,5.21,306.087,4.809,301.702C4.409,297.316,4.008,292.369,3.607,286.983C3.206,281.597,2.805,275.772,2.405,268.261Z" fill="#FF4B33" opacity="0.3"/></g></g><path class="foreground" aria-hidden="true" d="" display="none"/></g><g transform="translate(0,0)"><path class="background" aria-hidden="true" d="M0,0h600v400h-600Z"/><g><g class="mark-area role-mark layer_0_layer_0_marks" clip-path="url(#clip2)" role="graphics-object" aria-roledescription="area mark container"><path aria-label="Number of environment steps: 1.0019M; Dormant neuron ratio (%): 12.112630651; upper_Dormant neuron ratio: 13.1689861917; Benchmark: MT50; Ci1 of Dormant neuron ratio: 13.1689861917; Ci0 of Dormant neuron ratio: 12.112630651; Mean of Dormant neuron ratio: 12.6660159111" role="graphics-symbol" aria-roledescription="errorband" d="M12.023,334.259C14.027,343.135,16.031,349.747,18.035,354.955C20.039,360.163,22.043,363.969,24.047,367.189C26.05,370.409,28.054,373.043,30.058,375.172C32.062,377.301,34.066,378.924,36.07,380.452C38.074,381.98,40.078,383.412,42.082,384.595C44.086,385.778,46.089,386.71,48.093,387.518C50.097,388.325,52.101,389.006,54.105,389.566C56.109,390.126,58.113,390.564,60.117,391.031C62.121,391.497,64.125,391.992,66.128,392.433C68.132,392.873,70.136,393.26,72.14,393.555C74.144,393.85,76.148,394.054,78.152,394.282C80.156,394.51,82.16,394.762,84.164,394.935C86.167,395.109,88.171,395.204,90.175,395.315C92.179,395.426,94.183,395.552,96.187,395.686C98.191,395.821,100.195,395.964,102.199,396.072C104.203,396.181,106.206,396.255,108.21,396.359C110.214,396.463,112.218,396.598,114.222,396.702C116.226,396.806,118.23,396.879,120.234,396.905C122.238,396.932,124.242,396.91,126.245,396.899C128.249,396.888,130.253,396.888,132.257,396.912C134.261,396.936,136.265,396.984,138.269,397.025C140.273,397.066,142.277,397.101,144.281,397.118C146.284,397.136,148.288,397.136,150.292,397.129C152.296,397.123,154.3,397.11,156.304,397.09C158.308,397.071,160.312,397.045,162.316,397.053C164.319,397.062,166.323,397.105,168.327,397.101C170.331,397.097,172.335,397.045,174.339,396.975C176.343,396.906,178.347,396.819,180.351,396.793C182.355,396.766,184.359,396.801,186.362,396.866C188.366,396.931,190.37,397.027,192.374,397.023C194.378,397.018,196.382,396.914,198.386,396.838C200.39,396.762,202.394,396.715,204.398,396.662C206.401,396.61,208.405,396.554,210.409,396.552C212.413,396.55,214.417,396.602,216.421,396.602C218.425,396.602,220.429,396.55,222.433,396.573C224.437,396.597,226.44,396.697,228.444,396.669C230.448,396.641,232.452,396.485,234.456,396.413C236.46,396.341,238.464,396.354,240.468,396.391C242.472,396.428,244.476,396.489,246.479,396.489C248.483,396.489,250.487,396.428,252.491,396.474C254.495,396.519,256.499,396.671,258.503,396.682C260.507,396.693,262.511,396.562,264.515,396.493C266.518,396.424,268.522,396.415,270.526,396.406C272.53,396.398,274.534,396.389,276.538,396.376C278.542,396.363,280.546,396.345,282.55,396.285C284.554,396.224,286.557,396.12,288.561,396.074C290.565,396.029,292.569,396.042,294.573,395.988C296.577,395.933,298.581,395.812,300.585,395.797C302.589,395.782,304.593,395.873,306.596,395.929C308.6,395.986,310.604,396.007,312.608,395.968C314.612,395.929,316.616,395.829,318.62,395.764C320.624,395.699,322.628,395.669,324.632,395.59C326.635,395.512,328.639,395.386,330.643,395.308C332.647,395.23,334.651,395.2,336.655,395.181C338.659,395.161,340.663,395.152,342.667,395.033C344.671,394.914,346.674,394.684,348.678,394.577C350.682,394.471,352.686,394.488,354.69,394.477C356.694,394.466,358.698,394.427,360.702,394.264C362.706,394.102,364.71,393.815,366.713,393.77C368.717,393.724,370.721,393.92,372.725,393.889C374.729,393.859,376.733,393.603,378.737,393.546C380.741,393.49,382.745,393.633,384.749,393.629C386.752,393.624,388.756,393.473,390.76,393.375C392.764,393.277,394.768,393.234,396.772,393.221C398.776,393.208,400.78,393.225,402.784,393.186C404.787,393.147,406.791,393.051,408.795,393.071C410.799,393.09,412.803,393.225,414.807,393.236C416.811,393.247,418.815,393.134,420.819,393.056C422.823,392.978,424.826,392.934,426.83,392.941C428.834,392.947,430.838,393.003,432.842,392.956C434.846,392.908,436.85,392.757,438.854,392.637C440.858,392.518,442.862,392.431,444.865,392.416C446.869,392.401,448.873,392.457,450.877,392.449C452.881,392.44,454.885,392.366,456.889,392.283C458.893,392.201,460.897,392.109,462.901,392.083C464.904,392.057,466.908,392.096,468.912,392.116C470.916,392.136,472.92,392.136,474.924,391.982C476.928,391.827,478.932,391.519,480.936,391.393C482.94,391.267,484.944,391.324,486.947,391.3C488.951,391.276,490.955,391.172,492.959,391.15C494.963,391.129,496.967,391.19,498.971,390.973C500.975,390.756,502.979,390.261,504.983,390.059C506.986,389.857,508.99,389.949,510.994,389.945C512.998,389.94,515.002,389.84,517.006,389.805C519.01,389.77,521.014,389.801,523.018,389.818C525.022,389.836,527.025,389.84,529.029,389.862C531.033,389.884,533.037,389.922,535.041,389.99C537.045,390.057,539.049,390.152,541.053,390.015C543.057,389.878,545.06,389.51,547.064,389.388C549.068,389.267,551.072,389.393,553.076,389.447C555.08,389.501,557.084,389.484,559.088,389.401C561.092,389.319,563.096,389.171,565.099,389.037C567.103,388.902,569.107,388.78,571.111,388.676C573.115,388.572,575.119,388.485,577.123,388.236C579.127,387.986,581.131,387.574,583.135,387.55C585.139,387.526,587.142,387.891,589.146,387.973L589.146,381.839C587.142,381.935,585.139,381.892,583.135,382.035C581.131,382.178,579.127,382.508,577.123,382.679C575.119,382.851,573.115,382.864,571.111,382.836C569.107,382.807,567.103,382.738,565.099,382.984C563.096,383.231,561.092,383.795,559.088,384.056C557.084,384.317,555.08,384.274,553.076,384.209C551.072,384.145,549.068,384.058,547.064,384.125C545.06,384.193,543.057,384.414,541.053,384.687C539.049,384.961,537.045,385.286,535.041,385.291C533.037,385.295,531.033,384.977,529.029,383.714C527.025,382.451,525.022,380.242,523.018,380.123C521.014,380.004,519.01,381.974,517.006,383.27C515.002,384.565,512.998,385.185,510.994,385.103C508.99,385.02,506.986,384.234,504.983,383.802C502.979,383.37,500.975,383.292,498.971,383.711C496.967,384.13,494.963,385.046,492.959,385.632C490.955,386.219,488.951,386.475,486.947,386.18C484.944,385.885,482.94,385.037,480.936,385.133C478.932,385.228,476.928,386.266,474.924,386.872C472.92,387.478,470.916,387.652,468.912,387.763C466.908,387.873,464.904,387.921,462.901,387.921C460.897,387.921,458.893,387.873,456.889,387.784C454.885,387.695,452.881,387.565,450.877,387.447C448.873,387.33,446.869,387.226,444.865,387.469C442.862,387.712,440.858,388.302,438.854,388.6C436.85,388.897,434.846,388.902,432.842,388.657C430.838,388.411,428.834,387.916,426.83,387.962C424.826,388.007,422.823,388.593,420.819,388.904C418.815,389.214,416.811,389.249,414.807,389.357C412.803,389.466,410.799,389.648,408.795,389.798C406.791,389.948,404.787,390.065,402.784,390.097C400.78,390.13,398.776,390.078,396.772,390.063C394.768,390.047,392.764,390.069,390.76,390.18C388.756,390.29,386.752,390.49,384.749,390.466C382.745,390.442,380.741,390.195,378.737,390.156C376.733,390.117,374.729,390.286,372.725,390.365C370.721,390.443,368.717,390.429,366.713,390.473C364.71,390.516,362.706,390.616,360.702,390.738C358.698,390.859,356.694,391.002,354.69,391.028C352.686,391.054,350.682,390.963,348.678,390.998C346.674,391.032,344.671,391.193,342.667,391.312C340.663,391.431,338.659,391.509,336.655,391.563C334.651,391.618,332.647,391.648,330.643,391.705C328.639,391.762,326.635,391.844,324.632,391.909C322.628,391.974,320.624,392.022,318.62,391.996C316.616,391.97,314.612,391.87,312.608,391.831C310.604,391.792,308.6,391.814,306.596,391.829C304.593,391.844,302.589,391.853,300.585,391.994C298.581,392.135,296.577,392.409,294.573,392.589C292.569,392.769,290.565,392.856,288.561,392.916C286.557,392.977,284.554,393.012,282.55,393.038C280.546,393.064,278.542,393.081,276.538,393.084C274.534,393.086,272.53,393.073,270.526,393.155C268.522,393.238,266.518,393.416,264.515,393.448C262.511,393.481,260.507,393.368,258.503,393.292C256.499,393.216,254.495,393.177,252.491,393.227C250.487,393.277,248.483,393.415,246.479,391.067C244.476,388.719,242.472,383.884,240.468,383.86C238.464,383.836,236.46,388.623,234.456,391.143C232.452,393.662,230.448,393.914,228.444,393.927C226.44,393.94,224.437,393.714,222.433,393.656C220.429,393.597,218.425,393.706,216.421,393.754C214.417,393.802,212.413,393.788,210.409,393.858C208.405,393.927,206.401,394.079,204.398,394.181C202.394,394.283,200.39,394.335,198.386,394.466C196.382,394.596,194.378,394.805,192.374,390.102C190.37,385.399,188.366,375.785,186.362,375.729C184.359,375.673,182.355,385.174,180.351,389.961C178.347,394.748,176.343,394.822,174.339,394.859C172.335,394.896,170.331,394.896,168.327,394.789C166.323,394.683,164.319,394.47,162.316,394.407C160.312,394.345,158.308,394.431,156.304,394.424C154.3,394.418,152.296,394.317,150.292,394.213C148.288,394.109,146.284,394,144.281,393.879C142.277,393.758,140.273,393.624,138.269,393.507C136.265,393.39,134.261,393.29,132.257,393.177C130.253,393.064,128.249,392.938,126.245,392.793C124.242,392.647,122.238,392.482,120.234,392.347C118.23,392.212,116.226,392.109,114.222,391.974C112.218,391.84,110.214,391.675,108.21,391.808C106.206,391.94,104.203,392.369,102.199,392.3C100.195,392.23,98.191,391.662,96.187,391.334C94.183,391.007,92.179,390.92,90.175,390.816C88.171,390.711,86.167,390.589,84.164,390.394C82.16,390.199,80.156,389.93,78.152,389.611C76.148,389.292,74.144,388.922,72.14,388.603C70.136,388.284,68.132,388.015,66.128,387.612C64.125,387.208,62.121,386.67,60.117,386.162C58.113,385.654,56.109,385.177,54.105,384.504C52.101,383.831,50.097,382.963,48.093,381.976C46.089,380.989,44.086,379.882,42.082,378.697C40.078,377.512,38.074,376.249,36.07,374.691C34.066,373.132,32.062,371.279,30.058,368.951C28.054,366.623,26.05,363.819,24.047,360.236C22.043,356.653,20.039,352.29,18.035,346.725C16.031,341.161,14.027,334.394,12.023,325.514Z" fill="#3D494C" opacity="0.3"/></g></g><path class="foreground" aria-hidden="true" d="" display="none"/></g><g transform="translate(0,0)"><path class="background" aria-hidden="true" d="M0,0h600v400h-600Z"/><g><g class="mark-area role-mark layer_0_layer_0_marks" clip-path="url(#clip3)" role="graphics-object" aria-roledescription="area mark container"><path aria-label="Number of environment steps: 1.00195M; Dormant neuron ratio (%): 10.400390625; upper_Dormant neuron ratio: 11.7024745941; Benchmark: MT25; Ci1 of Dormant neuron ratio: 11.7024745941; Ci0 of Dormant neuron ratio: 10.400390625; Mean of Dormant neuron ratio: 11.0839846929" role="graphics-symbol" aria-roledescription="errorband" d="M12.024,349.653C14.027,357.856,16.031,361.936,18.035,365.951C20.039,369.965,22.043,373.915,24.047,376.259C26.051,378.602,28.055,379.34,30.059,379.818C32.063,380.295,34.067,380.512,36.071,380.599C38.075,380.686,40.079,380.642,42.083,380.621C44.087,380.599,46.091,380.599,48.095,380.599C50.099,380.599,52.103,380.599,54.107,380.317C56.11,380.035,58.114,379.47,60.118,378.472C62.122,377.474,64.126,376.042,66.13,375.239C68.134,374.436,70.138,374.262,72.142,374.631C74.146,375,76.15,375.911,78.154,376.671C80.158,377.431,82.162,378.038,84.166,378.168C86.17,378.299,88.174,377.951,90.178,378.038C92.182,378.125,94.186,378.646,96.189,378.32C98.193,377.995,100.197,376.823,102.201,376.78C104.205,376.736,106.209,377.821,108.213,378.689C110.217,379.557,112.221,380.208,114.225,379.34C116.229,378.472,118.233,376.085,120.237,373.503C122.241,370.92,124.245,368.142,126.249,367.274C128.253,366.406,130.257,367.448,132.261,366.45C134.265,365.451,136.268,362.413,138.272,360.525C140.276,358.637,142.28,357.899,144.284,357.183C146.288,356.467,148.292,355.773,150.296,355.404C152.3,355.035,154.304,354.991,156.308,355.208C158.312,355.425,160.316,355.903,162.32,355.447C164.324,354.991,166.328,353.602,168.332,352.127C170.336,350.651,172.34,349.089,174.344,349.132C176.347,349.175,178.351,350.825,180.355,351.845C182.359,352.865,184.363,353.255,186.367,351.845C188.371,350.434,190.375,347.222,192.379,346.463C194.383,345.703,196.387,347.396,198.391,345.942C200.395,344.488,202.399,339.887,204.403,337.999C206.407,336.111,208.411,336.936,210.415,338.737C212.419,340.538,214.423,343.316,216.426,345.66C218.43,348.003,220.434,349.913,222.438,350.326C224.442,350.738,226.446,349.653,228.45,348.351C230.454,347.049,232.458,345.53,234.462,343.815C236.466,342.101,238.47,340.191,240.474,339.106C242.478,338.021,244.482,337.76,246.486,335.699C248.49,333.637,250.494,329.774,252.498,329.687C254.502,329.601,256.505,333.29,258.509,333.963C260.513,334.635,262.517,332.292,264.521,331.619C266.525,330.946,268.529,331.944,270.533,330.534C272.537,329.123,274.541,325.304,276.545,323.286C278.549,321.267,280.553,321.05,282.557,322.179C284.561,323.307,286.565,325.781,288.569,327.018L288.569,306.25C286.565,307.378,284.561,311.372,282.557,313.607C280.553,315.842,278.549,316.319,276.545,315.039C274.541,313.759,272.537,310.72,270.533,305.469C268.529,300.217,266.525,292.752,264.521,287.023C262.517,281.293,260.513,277.3,258.509,281.098C256.505,284.896,254.502,296.484,252.498,298.481C250.494,300.477,248.49,292.882,246.486,288.911C244.482,284.939,242.478,284.592,240.474,287.008C238.47,289.424,236.466,294.604,234.462,297.468C232.458,300.333,230.454,300.883,228.45,304.89C226.446,308.898,224.442,316.363,222.438,320.573C220.434,324.783,218.43,325.738,216.426,325.89C214.423,326.042,212.419,325.391,210.415,323.199C208.411,321.007,206.407,317.274,204.403,319.293C202.399,321.311,200.395,329.08,198.391,332.4C196.387,335.72,194.383,334.592,192.379,331.532C190.375,328.472,188.371,323.481,186.367,308.051C184.363,292.622,182.359,266.753,180.355,256.901C178.351,247.049,176.347,253.212,174.344,241.949C172.34,230.686,170.336,201.997,168.332,192.491C166.328,182.986,164.324,192.665,162.32,215.148C160.316,237.63,158.312,272.917,156.308,293.012C154.304,313.108,152.3,318.012,150.296,308.051C148.292,298.09,146.288,273.264,144.284,271.593C142.28,269.922,140.276,291.406,138.272,306.315C136.268,321.224,134.265,329.557,132.261,328.819C130.257,328.082,128.253,318.273,126.249,319.835C124.245,321.398,122.241,334.332,120.237,342.708C118.233,351.085,116.229,354.905,114.225,356.076C112.221,357.248,110.217,355.773,108.213,355.686C106.209,355.599,104.205,356.901,102.201,357.422C100.197,357.943,98.193,357.682,96.189,358.181C94.186,358.681,92.182,359.939,90.178,361.263C88.174,362.587,86.17,363.976,84.166,364.54C82.162,365.104,80.158,364.844,78.154,364.996C76.15,365.148,74.146,365.712,72.142,366.037C70.138,366.363,68.134,366.45,66.13,366.536C64.126,366.623,62.122,366.71,60.118,367.318C58.114,367.925,56.11,369.054,54.107,369.336C52.103,369.618,50.099,369.054,48.095,368.685C46.091,368.316,44.087,368.142,42.083,368.164C40.079,368.186,38.075,368.403,36.071,367.773C34.067,367.144,32.063,365.668,30.059,364.757C28.055,363.845,26.051,363.498,24.047,362.24C22.043,360.981,20.039,358.811,18.035,355.404C16.031,351.997,14.027,347.352,12.024,338.976Z" fill="#7A1F18" opacity="0.3"/></g></g><path class="foreground" aria-hidden="true" d="" display="none"/></g></g><g class="mark-group role-scope layer_1_pathgroup" role="graphics-object" aria-roledescription="group mark container"><g transform="translate(0,0)"><path class="background" aria-hidden="true" d="M0,0h600v400h-600Z"/><g><g class="mark-line role-mark layer_1_marks" clip-path="url(#clip4)" role="graphics-object" aria-roledescription="line mark container"><path aria-label="Number of environment steps: 200.38k; Dormant neuron ratio (%): 18.8183597565; Benchmark: MT10" role="graphics-symbol" aria-roledescription="line mark" d="M2.405,275.935C2.805,283.424,3.206,288.906,3.607,293.917C4.008,298.928,4.409,303.468,4.809,307.587C5.21,311.706,5.611,315.404,6.012,318.184C6.412,320.964,6.813,322.826,7.214,324.052C7.615,325.278,8.016,325.868,8.416,326.586C8.817,327.305,9.218,328.151,9.619,328.711C10.019,329.271,10.42,329.544,10.821,329.768C11.222,329.991,11.623,330.165,12.023,330.339C12.424,330.512,12.825,330.686,13.226,330.538C13.626,330.391,14.027,329.922,14.428,329.219C14.829,328.516,15.23,327.578,15.63,326.493C16.031,325.408,16.432,324.175,16.833,323.049C17.233,321.923,17.634,320.903,18.035,319.998C18.436,319.093,18.837,318.303,19.237,317.539C19.638,316.775,20.039,316.037,20.44,315.286C20.841,314.536,21.241,313.772,21.642,313.429C22.043,313.086,22.444,313.164,22.844,312.756C23.245,312.348,23.646,311.454,24.047,310.72C24.448,309.987,24.848,309.414,25.249,309.026C25.65,308.637,26.051,308.433,26.451,307.925C26.852,307.418,27.253,306.606,27.654,306.072C28.055,305.538,28.455,305.282,28.856,304.8C29.257,304.319,29.658,303.611,30.058,302.984C30.459,302.357,30.86,301.81,31.261,301.098C31.662,300.386,32.062,299.51,32.463,298.357C32.864,297.205,33.265,295.777,33.665,294.286C34.066,292.795,34.467,291.241,34.868,289.933C35.269,288.624,35.669,287.561,36.07,286.595C36.471,285.629,36.872,284.761,37.272,283.783C37.673,282.804,38.074,281.714,38.475,280.642C38.876,279.57,39.276,278.516,39.677,277.83C40.078,277.144,40.479,276.827,40.88,276.118C41.28,275.408,41.681,274.306,42.082,273.006C42.483,271.706,42.883,270.208,43.284,269.058C43.685,267.908,44.086,267.105,44.487,266.374C44.887,265.642,45.288,264.983,45.689,264.312C46.09,263.641,46.49,262.96,46.891,262.376C47.292,261.793,47.693,261.306,48.094,260.347C48.494,259.388,48.895,257.956,49.296,256.684C49.697,255.412,50.097,254.301,50.498,253.303C50.899,252.305,51.3,251.419,51.701,250.508C52.101,249.596,52.502,248.659,52.903,247.407C53.304,246.155,53.704,244.588,54.105,243.498C54.506,242.409,54.907,241.797,55.308,241.246C55.708,240.694,56.109,240.204,56.51,239.64C56.911,239.076,57.311,238.437,57.712,237.611C58.113,236.784,58.514,235.768,58.915,234.657C59.315,233.546,59.716,232.339,60.117,230.957C60.518,229.575,60.919,228.016,61.319,227.101C61.72,226.185,62.121,225.911,62.522,225.284C62.922,224.657,63.323,223.676,63.724,222.869C64.125,222.062,64.526,221.428,64.926,220.647C65.327,219.865,65.728,218.937,66.129,218.362C66.529,217.786,66.93,217.565,67.331,216.78C67.732,215.994,68.133,214.644,68.533,213.626C68.934,212.609,69.335,211.923,69.736,211.263C70.136,210.603,70.537,209.97,70.938,209.188C71.339,208.407,71.74,207.478,72.14,206.302C72.541,205.126,72.942,203.702,73.343,202.843C73.743,201.984,74.144,201.688,74.545,200.788C74.946,199.887,75.347,198.381,75.747,197.958C76.148,197.535,76.549,198.194,76.95,198.327C77.35,198.459,77.751,198.064,78.152,197.5C78.553,196.936,78.954,196.202,79.354,195.523C79.755,194.844,80.156,194.219,80.557,193.461C80.958,192.704,81.358,191.814,81.759,191.126C82.16,190.438,82.561,189.952,82.961,189.434C83.362,188.915,83.763,188.364,84.164,187.48C84.565,186.597,84.965,185.382,85.366,184.403C85.767,183.424,86.168,182.682,86.568,182.316C86.969,181.949,87.37,181.957,87.771,181.938C88.172,181.918,88.572,181.871,88.973,181.643C89.374,181.415,89.775,181.007,90.175,180.321C90.576,179.635,90.977,178.672,91.378,178.22C91.779,177.769,92.179,177.83,92.58,177.695C92.981,177.561,93.382,177.231,93.782,176.678C94.183,176.124,94.584,175.347,94.985,174.531C95.386,173.715,95.786,172.86,96.187,171.842C96.588,170.825,96.989,169.644,97.389,168.652C97.79,167.661,98.191,166.858,98.592,166.059C98.993,165.26,99.393,164.466,99.794,164.199C100.195,163.932,100.596,164.193,100.996,163.806C101.397,163.42,101.798,162.387,102.199,161.424C102.6,160.46,103,159.566,103.401,158.859C103.802,158.151,104.203,157.63,104.604,157.465C105.004,157.3,105.405,157.491,105.806,157.431C106.207,157.37,106.607,157.057,107.008,156.895C107.409,156.732,107.81,156.719,108.211,156.775C108.611,156.832,109.012,156.957,109.413,156.504C109.814,156.05,110.214,155.017,110.615,154.444C111.016,153.872,111.417,153.759,111.818,153.294C112.218,152.83,112.619,152.014,113.02,151.595C113.421,151.176,113.821,151.155,114.222,151.089C114.623,151.024,115.024,150.916,115.425,150.755C115.825,150.595,116.226,150.382,116.627,149.789C117.028,149.197,117.428,148.225,117.829,147.563" stroke="#FF4B33" stroke-width="2"/></g></g><path class="foreground" aria-hidden="true" d="" display="none"/></g><g transform="translate(0,0)"><path class="background" aria-hidden="true" d="M0,0h600v400h-600Z"/><g><g class="mark-line role-mark layer_1_marks" clip-path="url(#clip5)" role="graphics-object" aria-roledescription="line mark container"><path aria-label="Number of environment steps: 1.0019M; Dormant neuron ratio (%): 12.6660159111; Benchmark: MT50" role="graphics-symbol" aria-roledescription="line mark" d="M12.023,329.863C14.027,338.746,16.031,345.356,18.035,350.705C20.039,356.055,22.043,360.143,24.047,363.559C26.05,366.975,28.054,369.718,30.058,372.003C32.062,374.288,34.066,376.115,36.07,377.7C38.074,379.284,40.078,380.625,42.082,381.795C44.086,382.964,46.089,383.963,48.093,384.855C50.097,385.747,52.101,386.532,54.105,387.164C56.109,387.795,58.113,388.273,60.117,388.78C62.121,389.288,64.125,389.826,66.128,390.293C68.132,390.76,70.136,391.155,72.14,391.495C74.144,391.836,76.148,392.122,78.152,392.381C80.156,392.639,82.16,392.869,84.164,393.043C86.167,393.216,88.171,393.333,90.175,393.437C92.179,393.542,94.183,393.633,96.187,393.843C98.191,394.054,100.195,394.384,102.199,394.481C104.203,394.579,106.206,394.444,108.21,394.447C110.214,394.449,112.218,394.588,114.222,394.714C116.226,394.839,118.23,394.952,120.234,395.028C122.238,395.104,124.242,395.143,126.245,395.182C128.249,395.221,130.253,395.26,132.257,395.291C134.261,395.321,136.265,395.343,138.269,395.408C140.273,395.473,142.277,395.582,144.281,395.655C146.284,395.729,148.288,395.768,150.292,395.807C152.296,395.846,154.3,395.885,156.304,395.883C158.308,395.881,160.312,395.838,162.316,395.881C164.319,395.924,166.323,396.055,168.327,396.107C170.331,396.159,172.335,396.133,174.339,396.066C176.343,395.998,178.347,395.89,180.351,394.243C182.355,392.595,184.359,389.41,186.362,389.477C188.366,389.544,190.37,392.865,192.374,394.451C194.378,396.037,196.382,395.89,198.386,395.783C200.39,395.677,202.394,395.612,204.398,395.523C206.401,395.434,208.405,395.321,210.409,395.28C212.413,395.239,214.417,395.269,216.421,395.254C218.425,395.239,220.429,395.178,222.433,395.232C224.437,395.286,226.44,395.456,228.444,395.449C230.448,395.443,232.452,395.26,234.456,394.329C236.46,393.398,238.464,391.719,240.468,391.736C242.472,391.753,244.476,393.468,246.479,394.284C248.483,395.1,250.487,395.017,252.491,395.024C254.495,395.03,256.499,395.126,258.503,395.156C260.507,395.187,262.511,395.152,264.515,395.091C266.518,395.03,268.522,394.944,270.526,394.924C272.53,394.905,274.534,394.952,276.538,394.948C278.542,394.944,280.546,394.887,282.55,394.822C284.554,394.757,286.557,394.683,288.561,394.64C290.565,394.596,292.569,394.583,294.573,394.466C296.577,394.349,298.581,394.128,300.585,394.054C302.589,393.98,304.593,394.054,306.596,394.104C308.6,394.154,310.604,394.18,312.608,394.169C314.612,394.158,316.616,394.11,318.62,394.095C320.624,394.08,322.628,394.097,324.632,394.03C326.635,393.963,328.639,393.811,330.643,393.737C332.647,393.663,334.651,393.668,336.655,393.633C338.659,393.598,340.663,393.524,342.667,393.388C344.671,393.251,346.674,393.051,348.678,392.988C350.682,392.925,352.686,392.999,354.69,392.982C356.694,392.964,358.698,392.856,360.702,392.684C362.706,392.513,364.71,392.279,366.713,392.233C368.717,392.187,370.721,392.331,372.725,392.287C374.729,392.244,376.733,392.014,378.737,391.986C380.741,391.957,382.745,392.131,384.749,392.142C386.752,392.153,388.756,392.001,390.76,391.905C392.764,391.81,394.768,391.771,396.772,391.76C398.776,391.749,400.78,391.766,402.784,391.738C404.787,391.71,406.791,391.636,408.795,391.599C410.799,391.562,412.803,391.562,414.807,391.526C416.811,391.489,418.815,391.415,420.819,391.187C422.823,390.959,424.826,390.577,426.83,390.556C428.834,390.534,430.838,390.872,432.842,391.009C434.846,391.146,436.85,391.081,438.854,390.838C440.858,390.595,442.862,390.174,444.865,390.035C446.869,389.896,448.873,390.039,450.877,390.13C452.881,390.221,454.885,390.26,456.889,390.28C458.893,390.299,460.897,390.299,462.901,390.284C464.904,390.269,466.908,390.239,468.912,390.154C470.916,390.069,472.92,389.931,474.924,389.531C476.928,389.132,478.932,388.472,480.936,388.388C482.94,388.303,484.944,388.793,486.947,388.939C488.951,389.084,490.955,388.885,492.959,388.602C494.963,388.32,496.967,387.956,498.971,387.609C500.975,387.261,502.979,386.931,504.983,387.001C506.986,387.07,508.99,387.539,510.994,387.6C512.998,387.661,515.002,387.313,517.006,386.806C519.01,386.298,521.014,385.629,523.018,385.729C525.022,385.829,527.025,386.697,529.029,387.203C531.033,387.708,533.037,387.852,535.041,387.841C537.045,387.83,539.049,387.665,541.053,387.452C543.057,387.24,545.06,386.979,547.064,386.91C549.068,386.84,551.072,386.962,553.076,386.99C555.08,387.018,557.084,386.953,559.088,386.79C561.092,386.628,563.096,386.367,565.099,386.211C567.103,386.055,569.107,386.003,571.111,385.94C573.115,385.877,575.119,385.803,577.123,385.61C579.127,385.417,581.131,385.104,583.135,385.03C585.139,384.957,587.142,385.122,589.146,385.119" stroke="#3D494C" stroke-width="2"/></g></g><path class="foreground" aria-hidden="true" d="" display="none"/></g><g transform="translate(0,0)"><path class="background" aria-hidden="true" d="M0,0h600v400h-600Z"/><g><g class="mark-line role-mark layer_1_marks" clip-path="url(#clip6)" role="graphics-object" aria-roledescription="line mark container"><path aria-label="Number of environment steps: 1.00195M; Dormant neuron ratio (%): 11.0839846929; Benchmark: MT25" role="graphics-symbol" aria-roledescription="line mark" d="M12.024,343.685C14.027,352.141,16.031,357.104,18.035,361.111C20.039,365.119,22.043,368.171,24.047,369.799C26.051,371.427,28.055,371.629,30.059,371.911C32.063,372.193,34.067,372.555,36.071,372.721C38.075,372.888,40.079,372.859,42.083,372.815C44.087,372.772,46.091,372.714,48.095,373.032C50.099,373.351,52.103,374.045,54.107,373.929C56.11,373.814,58.114,372.888,60.118,372.099C62.122,371.311,64.126,370.66,66.13,370.508C68.134,370.356,70.138,370.703,72.142,370.877C74.146,371.05,76.15,371.05,78.154,370.855C80.158,370.66,82.162,370.269,84.166,370.117C86.17,369.965,88.174,370.052,90.178,369.958C92.182,369.864,94.186,369.589,96.189,369.264C98.193,368.938,100.197,368.562,102.201,367.578C104.205,366.594,106.209,365.003,108.213,364.67C110.217,364.337,112.221,365.263,114.225,364.981C116.229,364.699,118.233,363.209,120.237,359.903C122.241,356.597,124.245,351.476,126.249,350.477C128.253,349.479,130.257,352.604,132.261,352.12C134.265,351.635,136.268,347.541,138.272,341.406C140.276,335.272,142.28,327.098,144.284,326.642C146.288,326.186,148.292,333.449,150.296,336.806C152.3,340.162,154.304,339.612,156.308,333.659C158.312,327.705,160.316,316.348,162.32,308.304C164.324,300.26,166.328,295.53,168.332,297.584C170.336,299.638,172.34,308.478,174.344,311.994C176.347,315.509,178.351,313.701,180.355,317.499C182.359,321.296,184.363,330.7,186.367,335.373C188.371,340.046,190.375,339.988,192.379,340.372C194.383,340.755,196.387,341.58,198.391,339.41C200.395,337.24,202.399,332.075,204.403,330.122C206.407,328.168,208.411,329.427,210.415,330.722C212.419,332.017,214.423,333.348,216.426,334.281C218.43,335.214,220.434,335.749,222.438,334.346C224.442,332.943,226.446,329.601,228.45,326.353C230.454,323.105,232.458,319.951,234.462,317.556C236.466,315.162,238.47,313.527,240.474,312.674C242.478,311.82,244.482,311.748,246.486,312.543C248.49,313.339,250.494,315.003,252.498,314.012C254.502,313.021,256.505,309.375,258.509,308.709C260.513,308.044,262.517,310.359,264.521,312.775C266.525,315.191,268.529,317.708,270.533,318.714C272.537,319.719,274.541,319.213,276.545,318.786C278.549,318.359,280.553,318.012,282.557,317.274C284.561,316.536,286.565,315.408,288.569,315.126" stroke="#7A1F18" stroke-width="2"/></g></g><path class="foreground" aria-hidden="true" d="" display="none"/></g></g><g class="mark-group role-legend" role="graphics-symbol" aria-roledescription="legend" aria-label="Symbol legend titled 'Benchmark' for fill color and stroke color with 3 values: MT10, MT25, MT50"><g transform="translate(18,18)"><path class="background" aria-hidden="true" d="M0,0h80v67h-80Z" pointer-events="none"/><g><g class="mark-group role-legend-entry"><g transform="translate(0,21)"><path class="background" aria-hidden="true" d="M0,0h0v0h0Z" pointer-events="none"/><g><g class="mark-group role-scope" role="graphics-object" aria-roledescription="group mark container"><g transform="translate(0,0)"><path class="background" aria-hidden="true" d="M0,0h53v14h-53Z" pointer-events="none" opacity="1"/><g><g class="mark-symbol role-legend-symbol" pointer-events="none"><path transform="translate(7,7)" d="M3.536,0A3.536,3.536,0,1,1,-3.536,0A3.536,3.536,0,1,1,3.536,0" fill="#FF4B33" stroke="#FF4B33" stroke-width="1.5" opacity="1"/></g><g class="mark-text role-legend-label" pointer-events="none"><text text-anchor="start" transform="translate(18,11)" font-family="Times New Roman" font-size="14px" fill="#000" opacity="1">MT10</text></g></g><path class="foreground" aria-hidden="true" d="" pointer-events="none" display="none"/></g><g transform="translate(0,16)"><path class="background" aria-hidden="true" d="M0,0h53v14h-53Z" pointer-events="none" opacity="1"/><g><g class="mark-symbol role-legend-symbol" pointer-events="none"><path transform="translate(7,7)" d="M3.536,0A3.536,3.536,0,1,1,-3.536,0A3.536,3.536,0,1,1,3.536,0" fill="#7A1F18" stroke="#7A1F18" stroke-width="1.5" opacity="1"/></g><g class="mark-text role-legend-label" pointer-events="none"><text text-anchor="start" transform="translate(18,11)" font-family="Times New Roman" font-size="14px" fill="#000" opacity="1">MT25</text></g></g><path class="foreground" aria-hidden="true" d="" pointer-events="none" display="none"/></g><g transform="translate(0,32)"><path class="background" aria-hidden="true" d="M0,0h53v14h-53Z" pointer-events="none" opacity="1"/><g><g class="mark-symbol role-legend-symbol" pointer-events="none"><path transform="translate(7,7)" d="M3.536,0A3.536,3.536,0,1,1,-3.536,0A3.536,3.536,0,1,1,3.536,0" fill="#3D494C" stroke="#3D494C" stroke-width="1.5" opacity="1"/></g><g class="mark-text role-legend-label" pointer-events="none"><text text-anchor="start" transform="translate(18,11)" font-family="Times New Roman" font-size="14px" fill="#000" opacity="1">MT50</text></g></g><path class="foreground" aria-hidden="true" d="" pointer-events="none" display="none"/></g></g></g><path class="foreground" aria-hidden="true" d="" pointer-events="none" display="none"/></g></g><g class="mark-text role-legend-title" pointer-events="none"><text text-anchor="start" transform="translate(0,13)" font-family="Times New Roman" font-size="16px" font-weight="bold" fill="#000" opacity="1">Benchmark</text></g></g><path class="foreground" aria-hidden="true" d="" pointer-events="none" display="none"/></g></g></g><path class="foreground" aria-hidden="true" d="" display="none"/></g></g></g><defs><clipPath id="clip1"><rect x="0" y="0" width="600" height="400"/></clipPath><clipPath id="clip2"><rect x="0" y="0" width="600" height="400"/></clipPath><clipPath id="clip3"><rect x="0" y="0" width="600" height="400"/></clipPath><clipPath id="clip4"><rect x="0" y="0" width="600" height="400"/></clipPath><clipPath id="clip5"><rect x="0" y="0" width="600" height="400"/></clipPath><clipPath id="clip6"><rect x="0" y="0" width="600" height="400"/></clipPath></defs></svg>