<svg xmlns="http://www.w3.org/2000/svg" xmlns:xlink="http://www.w3.org/1999/xlink" version="1.1" class="marks" width="652" height="458" viewBox="0 0 652 458"><rect width="652" height="458" fill="white"/><g fill="none" stroke-miterlimit="10" transform="translate(46,12)"><g class="mark-group role-frame root" role="graphics-object" aria-roledescription="group mark container"><g transform="translate(0,0)"><path class="background" aria-hidden="true" d="M0.5,0.5h600v400h-600Z" stroke="#ddd"/><g><g class="mark-group role-axis" aria-hidden="true"><g transform="translate(0.5,400.5)"><path class="background" aria-hidden="true" d="M0,0h0v0h0Z" pointer-events="none"/><g><g class="mark-rule role-axis-grid" pointer-events="none"><line transform="translate(0,-400)" x2="0" y2="400" stroke="#ddd" stroke-width="1" opacity="1"/><line transform="translate(30,-400)" x2="0" y2="400" stroke="#ddd" stroke-width="1" opacity="1"/><line transform="translate(60,-400)" x2="0" y2="400" stroke="#ddd" stroke-width="1" opacity="1"/><line transform="translate(90,-400)" x2="0" y2="400" stroke="#ddd" stroke-width="1" opacity="1"/><line transform="translate(120,-400)" x2="0" y2="400" stroke="#ddd" stroke-width="1" opacity="1"/><line transform="translate(150,-400)" x2="0" y2="400" stroke="#ddd" stroke-width="1" opacity="1"/><line transform="translate(180,-400)" x2="0" y2="400" stroke="#ddd" stroke-width="1" opacity="1"/><line transform="translate(210,-400)" x2="0" y2="400" stroke="#ddd" stroke-width="1" opacity="1"/><line transform="translate(240,-400)" x2="0" y2="400" stroke="#ddd" stroke-width="1" opacity="1"/><line transform="translate(270,-400)" x2="0" y2="400" stroke="#ddd" stroke-width="1" opacity="1"/><line transform="translate(300,-400)" x2="0" y2="400" stroke="#ddd" stroke-width="1" opacity="1"/><line transform="translate(330,-400)" x2="0" y2="400" stroke="#ddd" stroke-width="1" opacity="1"/><line transform="translate(360,-400)" x2="0" y2="400" stroke="#ddd" stroke-width="1" opacity="1"/><line transform="translate(390,-400)" x2="0" y2="400" stroke="#ddd" stroke-width="1" opacity="1"/><line transform="translate(420,-400)" x2="0" y2="400" stroke="#ddd" stroke-width="1" opacity="1"/><line transform="translate(450,-400)" x2="0" y2="400" stroke="#ddd" stroke-width="1" opacity="1"/><line transform="translate(480,-400)" x2="0" y2="400" stroke="#ddd" stroke-width="1" opacity="1"/><line transform="translate(510,-400)" x2="0" y2="400" stroke="#ddd" stroke-width="1" opacity="1"/><line transform="translate(540,-400)" x2="0" y2="400" stroke="#ddd" stroke-width="1" opacity="1"/><line transform="translate(570,-400)" x2="0" y2="400" stroke="#ddd" stroke-width="1" opacity="1"/><line transform="translate(600,-400)" x2="0" y2="400" stroke="#ddd" stroke-width="1" opacity="1"/></g></g><path class="foreground" aria-hidden="true" d="" pointer-events="none" display="none"/></g></g><g class="mark-group role-axis" aria-hidden="true"><g transform="translate(0.5,0.5)"><path class="background" aria-hidden="true" d="M0,0h0v0h0Z" pointer-events="none"/><g><g class="mark-rule role-axis-grid" pointer-events="none"><line transform="translate(0,400)" x2="600" y2="0" stroke="#ddd" stroke-width="1" opacity="1"/><line transform="translate(0,360)" x2="600" y2="0" stroke="#ddd" stroke-width="1" opacity="1"/><line transform="translate(0,320)" x2="600" y2="0" stroke="#ddd" stroke-width="1" opacity="1"/><line transform="translate(0,280)" x2="600" y2="0" stroke="#ddd" stroke-width="1" opacity="1"/><line transform="translate(0,240)" x2="600" y2="0" stroke="#ddd" stroke-width="1" opacity="1"/><line transform="translate(0,200)" x2="600" y2="0" stroke="#ddd" stroke-width="1" opacity="1"/><line transform="translate(0,160)" x2="600" y2="0" stroke="#ddd" stroke-width="1" opacity="1"/><line transform="translate(0,120)" x2="600" y2="0" stroke="#ddd" stroke-width="1" opacity="1"/><line transform="translate(0,80)" x2="600" y2="0" stroke="#ddd" stroke-width="1" opacity="1"/><line transform="translate(0,40)" x2="600" y2="0" stroke="#ddd" stroke-width="1" opacity="1"/><line transform="translate(0,0)" x2="600" y2="0" stroke="#ddd" stroke-width="1" opacity="1"/></g></g><path class="foreground" aria-hidden="true" d="" pointer-events="none" display="none"/></g></g><g class="mark-group role-axis" role="graphics-symbol" aria-roledescription="axis" aria-label="X-axis titled 'Number of environment steps' for a linear scale with values from 0M to 20M"><g transform="translate(0.5,400.5)"><path class="background" aria-hidden="true" d="M0,0h0v0h0Z" pointer-events="none"/><g><g class="mark-rule role-axis-tick" pointer-events="none"><line transform="translate(0,0)" x2="0" y2="5" stroke="#888" stroke-width="1" opacity="1"/><line transform="translate(30,0)" x2="0" y2="5" stroke="#888" stroke-width="1" opacity="1"/><line transform="translate(60,0)" x2="0" y2="5" stroke="#888" stroke-width="1" opacity="1"/><line transform="translate(90,0)" x2="0" y2="5" stroke="#888" stroke-width="1" opacity="1"/><line transform="translate(120,0)" x2="0" y2="5" stroke="#888" stroke-width="1" opacity="1"/><line transform="translate(150,0)" x2="0" y2="5" stroke="#888" stroke-width="1" opacity="1"/><line transform="translate(180,0)" x2="0" y2="5" stroke="#888" stroke-width="1" opacity="1"/><line transform="translate(210,0)" x2="0" y2="5" stroke="#888" stroke-width="1" opacity="1"/><line transform="translate(240,0)" x2="0" y2="5" stroke="#888" stroke-width="1" opacity="1"/><line transform="translate(270,0)" x2="0" y2="5" stroke="#888" stroke-width="1" opacity="1"/><line transform="translate(300,0)" x2="0" y2="5" stroke="#888" stroke-width="1" opacity="1"/><line transform="translate(330,0)" x2="0" y2="5" stroke="#888" stroke-width="1" opacity="1"/><line transform="translate(360,0)" x2="0" y2="5" stroke="#888" stroke-width="1" opacity="1"/><line transform="translate(390,0)" x2="0" y2="5" stroke="#888" stroke-width="1" opacity="1"/><line transform="translate(420,0)" x2="0" y2="5" stroke="#888" stroke-width="1" opacity="1"/><line transform="translate(450,0)" x2="0" y2="5" stroke="#888" stroke-width="1" opacity="1"/><line transform="translate(480,0)" x2="0" y2="5" stroke="#888" stroke-width="1" opacity="1"/><line transform="translate(510,0)" x2="0" y2="5" stroke="#888" stroke-width="1" opacity="1"/><line transform="translate(540,0)" x2="0" y2="5" stroke="#888" stroke-width="1" opacity="1"/><line transform="translate(570,0)" x2="0" y2="5" stroke="#888" stroke-width="1" opacity="1"/><line transform="translate(600,0)" x2="0" y2="5" stroke="#888" stroke-width="1" opacity="1"/></g><g class="mark-text role-axis-label" pointer-events="none"><text text-anchor="start" transform="translate(0,18)" font-family="Times New Roman" font-size="14px" fill="#000" opacity="1">0</text><text text-anchor="middle" transform="translate(30,18)" font-family="Times New Roman" font-size="14px" fill="#000" opacity="0">1M</text><text text-anchor="middle" transform="translate(60,18)" font-family="Times New Roman" font-size="14px" fill="#000" opacity="1">2M</text><text text-anchor="middle" transform="translate(90,18)" font-family="Times New Roman" font-size="14px" fill="#000" opacity="0">3M</text><text text-anchor="middle" transform="translate(120,18)" font-family="Times New Roman" font-size="14px" fill="#000" opacity="1">4M</text><text text-anchor="middle" transform="translate(150,18)" font-family="Times New Roman" font-size="14px" fill="#000" opacity="0">5M</text><text text-anchor="middle" transform="translate(180,18)" font-family="Times New Roman" font-size="14px" fill="#000" opacity="1">6M</text><text text-anchor="middle" transform="translate(210,18)" font-family="Times New Roman" font-size="14px" fill="#000" opacity="0">7M</text><text text-anchor="middle" transform="translate(240,18)" font-family="Times New Roman" font-size="14px" fill="#000" opacity="1">8M</text><text text-anchor="middle" transform="translate(270,18)" font-family="Times New Roman" font-size="14px" fill="#000" opacity="0">9M</text><text text-anchor="middle" transform="translate(300,18)" font-family="Times New Roman" font-size="14px" fill="#000" opacity="1">10M</text><text text-anchor="middle" transform="translate(330,18)" font-family="Times New Roman" font-size="14px" fill="#000" opacity="0">11M</text><text text-anchor="middle" transform="translate(360,18)" font-family="Times New Roman" font-size="14px" fill="#000" opacity="1">12M</text><text text-anchor="middle" transform="translate(390,18)" font-family="Times New Roman" font-size="14px" fill="#000" opacity="0">13M</text><text text-anchor="middle" transform="translate(420,18)" font-family="Times New Roman" font-size="14px" fill="#000" opacity="1">14M</text><text text-anchor="middle" transform="translate(450,18)" font-family="Times New Roman" font-size="14px" fill="#000" opacity="0">15M</text><text text-anchor="middle" transform="translate(480,18)" font-family="Times New Roman" font-size="14px" fill="#000" opacity="1">16M</text><text text-anchor="middle" transform="translate(510,18)" font-family="Times New Roman" font-size="14px" fill="#000" opacity="0">17M</text><text text-anchor="middle" transform="translate(540,18)" font-family="Times New Roman" font-size="14px" fill="#000" opacity="1">18M</text><text text-anchor="middle" transform="translate(570,18)" font-family="Times New Roman" font-size="14px" fill="#000" opacity="0">19M</text><text text-anchor="end" transform="translate(600,18)" font-family="Times New Roman" font-size="14px" fill="#000" opacity="1">20M</text></g><g class="mark-rule role-axis-domain" pointer-events="none"><line transform="translate(0,0)" x2="600" y2="0" stroke="#888" stroke-width="1" opacity="1"/></g><g class="mark-text role-axis-title" pointer-events="none"><text text-anchor="middle" transform="translate(300,38)" font-family="Times New Roman" font-size="16px" font-weight="bold" fill="#000" opacity="1">Number of environment steps</text></g></g><path class="foreground" aria-hidden="true" d="" pointer-events="none" display="none"/></g></g><g class="mark-group role-axis" role="graphics-symbol" aria-roledescription="axis" aria-label="Y-axis titled 'Dormant neuron ratio (%)' for a linear scale with values from 0 to 50"><g transform="translate(0.5,0.5)"><path class="background" aria-hidden="true" d="M0,0h0v0h0Z" pointer-events="none"/><g><g class="mark-rule role-axis-tick" pointer-events="none"><line transform="translate(0,400)" x2="-5" y2="0" stroke="#888" stroke-width="1" opacity="1"/><line transform="translate(0,360)" x2="-5" y2="0" stroke="#888" stroke-width="1" opacity="1"/><line transform="translate(0,320)" x2="-5" y2="0" stroke="#888" stroke-width="1" opacity="1"/><line transform="translate(0,280)" x2="-5" y2="0" stroke="#888" stroke-width="1" opacity="1"/><line transform="translate(0,240)" x2="-5" y2="0" stroke="#888" stroke-width="1" opacity="1"/><line transform="translate(0,200)" x2="-5" y2="0" stroke="#888" stroke-width="1" opacity="1"/><line transform="translate(0,160)" x2="-5" y2="0" stroke="#888" stroke-width="1" opacity="1"/><line transform="translate(0,120)" x2="-5" y2="0" stroke="#888" stroke-width="1" opacity="1"/><line transform="translate(0,80)" x2="-5" y2="0" stroke="#888" stroke-width="1" opacity="1"/><line transform="translate(0,40)" x2="-5" y2="0" stroke="#888" stroke-width="1" opacity="1"/><line transform="translate(0,0)" x2="-5" y2="0" stroke="#888" stroke-width="1" opacity="1"/></g><g class="mark-text role-axis-label" pointer-events="none"><text text-anchor="end" transform="translate(-7,404)" font-family="Times New Roman" font-size="14px" fill="#000" opacity="1">0</text><text text-anchor="end" transform="translate(-7,364)" font-family="Times New Roman" font-size="14px" fill="#000" opacity="1">5</text><text text-anchor="end" transform="translate(-7,324)" font-family="Times New Roman" font-size="14px" fill="#000" opacity="1">10</text><text text-anchor="end" transform="translate(-7,284)" font-family="Times New Roman" font-size="14px" fill="#000" opacity="1">15</text><text text-anchor="end" transform="translate(-7,244)" font-family="Times New Roman" font-size="14px" fill="#000" opacity="1">20</text><text text-anchor="end" transform="translate(-7,204)" font-family="Times New Roman" font-size="14px" fill="#000" opacity="1">25</text><text text-anchor="end" transform="translate(-7,164)" font-family="Times New Roman" font-size="14px" fill="#000" opacity="1">30</text><text text-anchor="end" transform="translate(-7,124.00000000000001)" font-family="Times New Roman" font-size="14px" fill="#000" opacity="1">35</text><text text-anchor="end" transform="translate(-7,83.99999999999999)" font-family="Times New Roman" font-size="14px" fill="#000" opacity="1">40</text><text text-anchor="end" transform="translate(-7,43.99999999999999)" font-family="Times New Roman" font-size="14px" fill="#000" opacity="1">45</text><text text-anchor="end" transform="translate(-7,4)" font-family="Times New Roman" font-size="14px" fill="#000" opacity="1">50</text></g><g class="mark-rule role-axis-domain" pointer-events="none"><line transform="translate(0,400)" x2="0" y2="-400" stroke="#888" stroke-width="1" opacity="1"/></g><g class="mark-text role-axis-title" pointer-events="none"><text text-anchor="middle" transform="translate(-25,200) rotate(-90) translate(0,-3)" font-family="Times New Roman" font-size="16px" font-weight="bold" fill="#000" opacity="1">Dormant neuron ratio (%)</text></g></g><path class="foreground" aria-hidden="true" d="" pointer-events="none" display="none"/></g></g><g class="mark-group role-scope layer_0_layer_0_pathgroup" role="graphics-object" aria-roledescription="group mark container"><g transform="translate(0,0)"><path class="background" aria-hidden="true" d="M0,0h600v400h-600Z"/><g><g class="mark-area role-mark layer_0_layer_0_marks" clip-path="url(#clip1)" role="graphics-object" aria-roledescription="area mark container"><path aria-label="Number of environment steps: 200.38k; Dormant neuron ratio (%): 8.89290386915; upper_Dormant neuron ratio: 10.4687502885; Width: 256; Ci1 of Dormant neuron ratio: 10.4687502885; Ci0 of Dormant neuron ratio: 8.89290386915; Mean of Dormant neuron ratio: 9.6875002861" role="graphics-symbol" aria-roledescription="errorband" d="M12.023,339.636C14.027,342.709,16.031,345.002,18.035,347.033C20.039,349.064,22.043,350.834,24.047,352.223C26.05,353.611,28.054,354.618,30.058,355.486C32.062,356.354,34.066,357.083,36.07,357.778C38.074,358.472,40.078,359.132,42.082,360.261C44.086,361.39,46.089,362.988,48.093,363.839C50.097,364.69,52.101,364.794,54.105,365.54C56.109,366.286,58.113,367.674,60.117,368.698C62.121,369.722,64.125,370.382,66.128,370.747C68.132,371.112,70.136,371.182,72.14,371.165C74.144,371.148,76.148,371.044,78.152,371.183C80.156,371.322,82.16,371.704,84.164,372.329C86.167,372.954,88.171,373.822,90.175,374.204C92.179,374.586,94.183,374.482,96.187,374.776C98.191,375.071,100.195,375.765,102.199,376.199C104.203,376.633,106.206,376.807,108.21,376.946C110.214,377.085,112.218,377.188,114.222,377.309C116.226,377.431,118.23,377.569,120.234,377.657C122.238,377.744,124.242,377.78,126.245,377.884C128.249,377.988,130.253,378.161,132.257,378.126C134.261,378.091,136.265,377.849,138.269,377.867C140.273,377.885,142.277,378.162,144.281,378.231C146.284,378.3,148.288,378.161,150.292,378.23C152.296,378.299,154.3,378.578,156.304,378.943C158.308,379.307,160.312,379.758,162.316,380.105C164.319,380.451,166.323,380.694,168.327,380.66C170.331,380.625,172.335,380.312,174.339,380.226C176.343,380.14,178.347,380.28,180.351,380.227C182.355,380.175,184.359,379.931,186.362,380.018C188.366,380.105,190.37,380.523,192.374,380.905C194.378,381.286,196.382,381.633,198.386,382.153C200.39,382.674,202.394,383.368,204.398,383.507C206.401,383.646,208.405,383.229,210.409,383.316C212.413,383.403,214.417,383.993,216.421,384.184C218.425,384.376,220.429,384.168,222.433,384.168C224.437,384.168,226.44,384.376,228.444,384.653C230.448,384.931,232.452,385.278,234.456,385.33C236.46,385.382,238.464,385.139,240.468,384.966C242.472,384.793,244.476,384.689,246.479,384.602C248.483,384.516,250.487,384.445,252.491,384.636C254.495,384.827,256.499,385.28,258.503,385.384C260.507,385.488,262.511,385.244,264.515,384.931C266.518,384.618,268.522,384.236,270.526,384.132C272.53,384.028,274.534,384.201,276.538,384.288C278.542,384.375,280.546,384.375,282.55,384.132C284.554,383.889,286.557,383.403,288.561,383.073C290.565,382.743,292.569,382.569,294.573,382.535C296.577,382.5,298.581,382.604,300.585,382.553C302.589,382.501,304.593,382.293,306.596,382.172C308.6,382.05,310.604,382.015,312.608,381.893C314.612,381.772,316.616,381.564,318.62,381.495C320.624,381.425,322.628,381.494,324.632,381.493C326.635,381.493,328.639,381.424,330.643,381.319C332.647,381.215,334.651,381.076,336.655,380.972C338.659,380.868,340.663,380.799,342.667,381.181C344.671,381.562,346.674,382.396,348.678,382.535C350.682,382.674,352.686,382.118,354.69,382.118C356.694,382.118,358.698,382.674,360.702,382.865C362.706,383.056,364.71,382.882,366.713,382.743C368.717,382.604,370.721,382.5,372.725,382.569C374.729,382.639,376.733,382.882,378.737,383.021C380.741,383.16,382.745,383.194,384.749,383.108C386.752,383.021,388.756,382.812,390.76,382.622C392.764,382.431,394.768,382.257,396.772,382.153C398.776,382.049,400.78,382.014,402.784,382.049C404.787,382.083,406.791,382.187,407.793,382.394C408.795,382.6,408.795,382.909,409.797,383.083C410.799,383.256,412.803,383.295,413.805,383.315C414.807,383.335,414.807,383.336,415.809,382.989C416.811,382.641,418.815,381.946,419.817,381.697C420.819,381.448,420.819,381.647,421.821,382.341C422.823,383.036,424.826,384.226,425.828,384.226C426.83,384.226,426.83,383.036,427.832,382.515C428.834,381.994,430.838,382.143,431.84,382.342C432.842,382.541,432.842,382.79,433.844,383.137C434.846,383.485,436.85,383.93,437.852,383.88C438.854,383.829,438.854,383.284,439.856,383.631C440.858,383.978,442.861,385.218,443.863,385.342C444.865,385.466,444.865,384.474,445.867,383.953C446.869,383.433,448.873,383.383,449.875,383.185C450.877,382.987,450.877,382.641,451.879,382.815C452.881,382.989,454.885,383.682,455.887,383.26C456.889,382.837,456.889,381.3,457.891,380.952C458.893,380.605,460.897,381.448,461.898,381.845C462.9,382.242,462.901,382.192,463.902,382.192C464.904,382.192,466.908,382.242,467.91,381.92C468.912,381.597,468.912,380.903,469.914,381.25C470.916,381.597,472.92,382.986,473.922,383.334C474.924,383.682,474.924,382.989,475.926,383.336C476.928,383.683,478.932,385.071,479.934,385.045C480.936,385.02,480.936,383.581,481.938,382.713C482.939,381.845,484.943,381.548,485.945,381.746C486.947,381.944,486.947,382.639,487.949,382.465C488.951,382.292,490.955,381.25,491.957,380.879C492.959,380.507,492.959,380.806,493.961,381.153C494.963,381.5,496.967,381.896,497.969,381.946C498.971,381.995,498.971,381.699,499.973,381.525C500.975,381.352,502.978,381.301,503.98,381.226C504.982,381.151,504.982,381.052,505.984,381.052C506.986,381.052,508.99,381.151,509.992,381.127C510.994,381.104,510.994,380.957,511.996,381.305C512.998,381.652,515.002,382.493,516.004,382.541C517.006,382.589,517.006,381.845,518.008,381.845C519.01,381.845,521.014,382.589,522.015,382.465C523.017,382.341,523.018,381.349,524.019,382.217C525.021,383.085,527.025,385.813,528.027,385.586C529.029,385.359,529.029,382.176,530.031,381.759C531.033,381.343,533.037,383.692,534.039,383.582C535.041,383.472,535.041,380.903,536.043,380.799C537.045,380.694,539.049,383.056,540.051,383.611C541.052,384.167,541.053,382.917,542.055,382.778C543.057,382.639,545.06,383.611,546.062,383.299C547.064,382.986,547.064,381.389,548.066,381.597C549.068,381.806,551.072,383.819,552.074,383.648C553.076,383.476,553.076,381.118,554.078,380.667C555.08,380.215,557.084,381.67,558.086,381.911C559.088,382.153,559.088,381.181,560.09,380.973C561.092,380.766,563.095,381.323,564.097,381.497C565.099,381.67,565.099,381.46,566.101,381.216C567.103,380.972,569.107,380.694,570.109,380.521C571.111,380.347,571.111,380.278,572.113,380.174C573.115,380.069,575.119,379.931,576.121,380.243C577.123,380.556,577.123,381.319,578.125,382.083C579.127,382.847,581.13,383.611,582.132,381.91C583.134,380.208,583.135,376.042,584.136,376.042C585.138,376.042,587.142,380.208,588.144,379.948C589.146,379.687,589.146,375,590.148,374.971C591.15,374.942,593.154,379.572,594.156,379.485L594.156,369.821C593.154,369.56,591.15,368.113,590.148,368.547C589.146,368.98,589.146,371.293,588.144,370.99C587.142,370.686,585.138,367.765,584.136,367.331C583.135,366.898,583.134,368.953,582.132,369.326C581.13,369.699,579.127,368.391,578.125,367.772C577.123,367.153,577.123,367.222,576.121,367.535C575.119,367.847,573.115,368.403,572.113,368.611C571.111,368.819,571.111,368.681,570.109,368.333C569.107,367.986,567.103,367.431,566.101,367.639C565.099,367.847,565.099,368.819,564.097,368.333C563.095,367.847,561.092,365.903,560.09,365.657C559.088,365.411,559.088,366.865,558.086,366.83C557.084,366.795,555.08,365.273,554.078,365.27C553.076,365.267,553.076,366.785,552.074,366.992C551.072,367.2,549.068,366.097,548.066,365.443C547.064,364.788,547.064,364.582,546.062,365.173C545.06,365.764,543.057,367.153,542.055,367.535C541.053,367.917,541.052,367.292,540.051,367.118C539.049,366.944,537.045,367.222,536.043,367.535C535.041,367.847,535.041,368.194,534.039,367.824C533.037,367.454,531.033,366.366,530.031,367.008C529.029,367.65,529.029,370.023,528.027,370.18C527.025,370.337,525.021,368.279,524.019,368.018C523.018,367.758,523.017,369.296,522.015,369.42C521.014,369.544,519.01,368.254,518.008,368.601C517.006,368.948,517.006,370.933,516.004,370.759C515.002,370.585,512.998,368.254,511.996,367.733C510.994,367.212,510.994,368.502,509.992,368.676C508.99,368.849,506.986,367.907,505.984,367.56C504.982,367.212,504.982,367.46,503.98,367.41C502.978,367.36,500.975,367.011,499.973,367.532C498.971,368.053,498.971,369.443,497.969,368.973C496.967,368.502,494.963,366.171,493.961,365.823C492.959,365.476,492.959,367.113,491.957,367.386C490.955,367.659,488.951,366.567,487.949,366.394C486.947,366.22,486.947,366.964,485.945,366.939C484.943,366.915,482.939,366.121,481.938,366.295C480.936,366.468,480.936,367.609,479.934,367.584C478.932,367.56,476.928,366.369,475.926,367.063C474.924,367.758,474.924,370.337,473.922,370.263C472.92,370.188,470.916,367.46,469.914,367.981C468.912,368.502,468.912,372.272,467.91,372.643C466.908,373.015,464.904,369.988,463.902,369.64C462.901,369.293,462.9,371.626,461.898,371.478C460.897,371.329,458.893,368.7,457.891,369.395C456.889,370.089,456.889,374.107,455.887,373.884C454.885,373.661,452.881,369.196,451.879,369.717C450.877,370.238,450.877,375.744,449.875,375.645C448.873,375.546,446.869,369.841,445.867,368.8C444.865,367.758,444.865,371.379,443.863,371.676C442.861,371.973,440.858,368.946,439.856,368.772C438.854,368.599,438.854,371.279,437.852,371.031C436.85,370.784,434.846,367.609,433.844,367.609C432.842,367.609,432.842,370.784,431.84,370.858C430.838,370.933,428.834,367.907,427.832,367.386C426.83,366.865,426.83,368.849,425.828,369.121C424.826,369.394,422.823,367.954,421.821,367.607C420.819,367.259,420.819,368.005,419.817,367.807C418.815,367.609,416.811,366.468,415.809,366.295C414.807,366.121,414.807,366.915,413.805,367.774C412.803,368.633,410.799,369.558,409.797,371.989C408.795,374.419,408.795,378.356,407.793,378.483C406.791,378.61,404.787,374.929,402.784,373.071C400.78,371.213,398.776,371.178,396.772,371.144C394.768,371.109,392.764,371.076,390.76,370.954C388.756,370.833,386.752,370.625,384.749,370.729C382.745,370.832,380.741,371.248,378.737,371.508C376.733,371.768,374.729,371.872,372.725,371.924C370.721,371.977,368.717,371.977,366.713,371.96C364.71,371.943,362.706,371.909,360.702,371.684C358.698,371.458,356.694,371.042,354.69,371.163C352.686,371.285,350.682,371.944,348.678,371.961C346.674,371.978,344.671,371.352,342.667,371.422C340.663,371.491,338.659,372.256,336.655,372.43C334.651,372.604,332.647,372.187,330.643,372.222C328.639,372.256,326.635,372.741,324.632,372.793C322.628,372.845,320.624,372.463,318.62,372.133C316.616,371.803,314.612,371.525,312.608,371.543C310.604,371.561,308.6,371.874,306.596,372.222C304.593,372.569,302.589,372.951,300.585,373.073C298.581,373.194,296.577,373.056,294.573,373.212C292.569,373.368,290.565,373.819,288.561,374.236C286.557,374.653,284.554,375.035,282.55,375.052C280.546,375.069,278.542,374.722,276.538,374.513C274.534,374.305,272.53,374.234,270.526,374.408C268.522,374.582,266.518,374.999,264.515,375.208C262.511,375.417,260.507,375.417,258.503,375.174C256.499,374.931,254.495,374.444,252.491,374.253C250.487,374.062,248.483,374.167,246.479,374.462C244.476,374.757,242.472,375.243,240.468,375.382C238.464,375.52,236.46,375.311,234.456,375.155C232.452,374.998,230.448,374.895,228.444,374.757C226.44,374.618,224.437,374.444,222.433,374.461C220.429,374.478,218.425,374.686,216.421,374.686C214.417,374.686,212.413,374.478,210.409,374.288C208.405,374.097,206.401,373.924,204.398,373.681C202.394,373.437,200.39,373.125,198.386,372.916C196.382,372.707,194.378,372.602,192.374,372.411C190.37,372.22,188.366,371.942,186.362,371.595C184.359,371.248,182.355,370.832,180.351,370.589C178.347,370.346,176.343,370.276,174.339,370.31C172.335,370.345,170.331,370.484,168.327,370.379C166.323,370.275,164.319,369.928,162.316,369.529C160.312,369.13,158.308,368.68,156.304,368.35C154.3,368.021,152.296,367.812,150.292,367.777C148.288,367.742,146.284,367.88,144.281,367.863C142.277,367.845,140.273,367.673,138.269,367.725C136.265,367.778,134.261,368.056,132.257,368.056C130.253,368.056,128.249,367.778,126.245,367.725C124.242,367.673,122.238,367.845,120.234,367.671C118.23,367.497,116.226,366.977,114.222,366.96C112.218,366.943,110.214,367.43,108.21,367.638C106.206,367.847,104.203,367.778,102.199,367.569C100.195,367.36,98.191,367.012,96.187,366.525C94.183,366.038,92.179,365.412,90.175,364.944C88.171,364.475,86.167,364.163,84.164,363.869C82.16,363.575,80.156,363.298,78.152,363.229C76.148,363.16,74.144,363.299,72.14,363.125C70.136,362.951,68.132,362.464,66.128,361.7C64.125,360.936,62.121,359.895,60.117,359.079C58.113,358.264,56.109,357.674,54.105,356.806C52.101,355.937,50.097,354.792,48.093,353.611C46.089,352.43,44.086,351.214,42.082,350.259C40.078,349.304,38.074,348.61,36.07,348.003C34.066,347.395,32.062,346.873,30.058,345.814C28.054,344.755,26.05,343.159,24.047,341.354C22.043,339.549,20.039,337.535,18.035,335C16.031,332.465,14.027,329.41,12.023,326.198Z" fill="#FF5F33" opacity="0.3"/></g></g><path class="foreground" aria-hidden="true" d="" display="none"/></g><g transform="translate(0,0)"><path class="background" aria-hidden="true" d="M0,0h600v400h-600Z"/><g><g class="mark-area role-mark layer_0_layer_0_marks" clip-path="url(#clip2)" role="graphics-object" aria-roledescription="area mark container"><path aria-label="Number of environment steps: 200.38k; Dormant neuron ratio (%): 10.3710940337; upper_Dormant neuron ratio: 11.6993818927; Width: 512; Ci1 of Dormant neuron ratio: 11.6993818927; Ci0 of Dormant neuron ratio: 10.3710940337; Mean of Dormant neuron ratio: 11.0221357346" role="graphics-symbol" aria-roledescription="errorband" d="M12.023,333.552C14.027,338.474,16.031,342.52,18.035,345.663C20.039,348.805,22.043,351.044,24.047,352.71C26.05,354.376,28.054,355.47,30.058,356.833C32.062,358.196,34.066,359.829,36.07,361.339C38.074,362.849,40.078,364.237,42.082,365.66C44.086,367.083,46.089,368.542,48.093,369.861C50.097,371.181,52.101,372.361,54.105,373.229C56.109,374.097,58.113,374.653,60.117,375.295C62.121,375.937,64.125,376.667,66.128,377.344C68.132,378.021,70.136,378.646,72.14,379.132C74.144,379.618,76.148,379.965,78.152,380.234C80.156,380.503,82.16,380.694,84.164,380.964C86.167,381.233,88.171,381.58,90.175,381.667C92.179,381.754,94.183,381.582,96.187,381.764C98.191,381.946,100.195,382.484,102.199,382.7C104.203,382.917,106.206,382.812,108.21,383.012C110.214,383.212,112.218,383.716,114.222,384.176C116.226,384.637,118.23,385.053,120.234,385.209C122.238,385.365,124.242,385.261,126.245,385.2C128.249,385.139,130.253,385.122,132.257,385.313C134.261,385.504,136.265,385.904,138.269,386.069C140.273,386.234,142.277,386.164,144.281,386.285C146.284,386.406,148.288,386.719,150.292,386.753C152.296,386.788,154.3,386.545,156.304,386.345C158.308,386.146,160.312,385.99,162.316,386.033C164.319,386.076,166.323,386.319,168.327,386.354C170.331,386.389,172.335,386.215,174.339,385.946C176.343,385.677,178.347,385.312,180.351,385.347C182.355,385.382,184.359,385.816,186.362,385.816C188.366,385.816,190.37,385.383,192.374,385.244C194.378,385.105,196.382,385.261,198.386,385.104C200.39,384.948,202.394,384.479,204.398,384.193C206.401,383.907,208.405,383.803,210.409,383.864C212.413,383.925,214.417,384.151,216.421,384.02C218.425,383.89,220.429,383.404,222.433,383.282C224.437,383.161,226.44,383.403,228.444,383.455C230.448,383.507,232.452,383.368,234.456,383.116C236.46,382.865,238.464,382.5,240.468,382.309C242.472,382.118,244.476,382.102,246.479,382.119C248.483,382.137,250.487,382.189,252.491,382.163C254.495,382.136,256.499,382.032,258.503,381.814C260.507,381.597,262.511,381.267,264.515,381.094C266.518,380.92,268.522,380.903,270.526,380.834C272.53,380.764,274.534,380.643,276.538,380.513C278.542,380.383,280.546,380.244,282.55,380.244C284.554,380.244,286.557,380.383,288.561,380.617C290.565,380.852,292.569,381.181,294.573,381.277C296.577,381.372,298.581,381.234,300.585,381.165C302.589,381.095,304.593,381.095,306.596,380.886C308.6,380.678,310.604,380.261,312.608,379.853C314.612,379.445,316.616,379.046,318.62,378.785C320.624,378.524,322.628,378.403,324.632,378.116C326.635,377.83,328.639,377.378,330.643,377.24C332.647,377.101,334.651,377.275,336.655,377.327C338.659,377.379,340.663,377.309,342.667,377.118C344.671,376.928,346.674,376.615,348.678,376.155C350.682,375.695,352.686,375.087,354.69,374.323C356.694,373.559,358.698,372.64,360.702,372.432C362.706,372.224,364.71,372.727,366.713,373.152C368.717,373.578,370.721,373.925,372.725,374.133C374.729,374.341,376.733,374.41,378.737,374.323C380.741,374.237,382.745,373.994,384.749,373.855C386.752,373.716,388.756,373.681,390.76,373.481C392.764,373.281,394.768,372.917,396.772,372.734C398.776,372.552,400.78,372.552,402.784,372.474C404.787,372.396,406.791,372.24,408.795,372.127C410.799,372.014,412.803,371.944,414.807,371.398C416.811,370.851,418.815,369.827,420.819,369.489C422.823,369.151,424.826,369.499,426.83,369.768C428.834,370.036,430.838,370.227,432.842,370.496C434.846,370.765,436.85,371.113,438.854,371.139C440.858,371.165,442.862,370.869,444.865,370.738C446.869,370.608,448.873,370.643,450.877,370.288C452.881,369.932,454.885,369.186,456.889,368.986C458.893,368.786,460.897,369.133,462.901,368.967C464.904,368.802,466.908,368.125,468.912,367.778C470.916,367.431,472.92,367.414,474.924,367.284C476.928,367.154,478.932,366.91,480.936,366.736C482.94,366.562,484.944,366.458,486.947,366.25C488.951,366.042,490.955,365.729,492.959,365.451C494.963,365.174,496.967,364.931,498.971,364.714C500.975,364.497,502.979,364.306,504.983,364.072C506.986,363.838,508.99,363.559,510.994,363.551C512.998,363.542,515.002,363.803,517.006,363.925C519.01,364.046,521.014,364.029,523.018,363.899C525.022,363.769,527.025,363.526,529.029,363.517C531.033,363.508,533.037,363.734,535.041,363.665C537.045,363.595,539.049,363.231,541.053,362.91C543.057,362.589,545.06,362.311,547.064,361.876C549.068,361.442,551.072,360.851,553.076,360.678C555.08,360.504,557.084,360.748,559.088,360.653C561.092,360.557,563.096,360.122,565.099,359.922C567.103,359.722,569.107,359.757,571.111,359.488C573.115,359.219,575.119,358.646,577.123,358.542C579.127,358.437,581.131,358.802,583.135,359.158C585.139,359.514,587.142,359.862,589.146,359.732L589.146,347.733C587.142,348.002,585.139,348.661,583.135,348.765C581.131,348.87,579.127,348.419,577.123,347.821C575.119,347.222,573.115,346.476,571.111,346.554C569.107,346.632,567.103,347.535,565.099,348.498C563.096,349.461,561.092,350.485,559.088,350.876C557.084,351.266,555.08,351.023,553.076,350.98C551.072,350.937,549.068,351.093,547.064,351.154C545.06,351.215,543.057,351.181,541.053,351.458C539.049,351.736,537.045,352.326,535.041,352.638C533.037,352.951,531.033,352.984,529.029,352.871C527.025,352.758,525.022,352.498,523.018,352.212C521.014,351.926,519.01,351.614,517.006,351.849C515.002,352.083,512.998,352.865,510.994,353.212C508.99,353.559,506.986,353.471,504.983,353.654C502.979,353.836,500.975,354.288,498.971,354.826C496.967,355.364,494.963,355.989,492.959,356.405C490.955,356.821,488.951,357.029,486.947,357.298C484.944,357.568,482.94,357.898,480.936,358.064C478.932,358.229,476.928,358.229,474.924,358.255C472.92,358.281,470.916,358.333,468.912,358.594C466.908,358.854,464.904,359.322,462.901,359.487C460.897,359.651,458.893,359.513,456.889,359.539C454.885,359.565,452.881,359.756,450.877,359.747C448.873,359.739,446.869,359.531,444.865,359.436C442.862,359.34,440.858,359.358,438.854,359.462C436.85,359.566,434.846,359.756,432.842,360.138C430.838,360.52,428.834,361.092,426.83,361.101C424.826,361.11,422.823,360.554,420.819,360.607C418.815,360.659,416.811,361.319,414.807,361.901C412.803,362.483,410.799,362.986,408.795,362.977C406.791,362.969,404.787,362.448,402.784,362.335C400.78,362.222,398.776,362.516,396.772,362.699C394.768,362.881,392.764,362.95,390.76,363.298C388.756,363.645,386.752,364.27,384.749,364.765C382.745,365.26,380.741,365.624,378.737,365.867C376.733,366.11,374.729,366.231,372.725,366.162C370.721,366.093,368.717,365.833,366.713,365.738C364.71,365.642,362.706,365.712,360.702,365.946C358.698,366.18,356.694,366.579,354.69,367.021C352.686,367.464,350.682,367.95,348.678,368.254C346.674,368.558,344.671,368.68,342.667,368.793C340.663,368.906,338.659,369.01,336.655,369.062C334.651,369.115,332.647,369.115,330.643,369.418C328.639,369.722,326.635,370.329,324.632,370.65C322.628,370.971,320.624,371.006,318.62,371.24C316.616,371.475,314.612,371.909,312.608,372.343C310.604,372.777,308.6,373.21,306.596,373.375C304.593,373.539,302.589,373.436,300.585,373.575C298.581,373.714,296.577,374.096,294.573,374.183C292.569,374.27,290.565,374.062,288.561,374.21C286.557,374.357,284.554,374.86,282.55,374.99C280.546,375.12,278.542,374.877,276.538,374.938C274.534,374.999,272.53,375.364,270.526,375.503C268.522,375.642,266.518,375.556,264.515,375.625C262.511,375.694,260.507,375.919,258.503,376.162C256.499,376.405,254.495,376.665,252.491,376.813C250.487,376.961,248.483,376.996,246.479,377.161C244.476,377.326,242.472,377.622,240.468,377.691C238.464,377.76,236.46,377.603,234.456,377.751C232.452,377.898,230.448,378.35,228.444,378.524C226.44,378.697,224.437,378.593,222.433,378.74C220.429,378.888,218.425,379.287,216.421,379.218C214.417,379.148,212.413,378.611,210.409,378.576C208.405,378.542,206.401,379.01,204.398,379.392C202.394,379.774,200.39,380.069,198.386,380.173C196.382,380.277,194.378,380.19,192.374,380.355C190.37,380.52,188.366,380.937,186.362,381.154C184.359,381.372,182.355,381.389,180.351,381.614C178.347,381.84,176.343,382.273,174.339,382.326C172.335,382.378,170.331,382.048,168.327,381.883C166.323,381.718,164.319,381.718,162.316,381.744C160.312,381.77,158.308,381.822,156.304,381.961C154.3,382.1,152.296,382.326,150.292,382.343C148.288,382.361,146.284,382.169,144.281,382.117C142.277,382.065,140.273,382.152,138.269,382.014C136.265,381.875,134.261,381.51,132.257,381.432C130.253,381.354,128.249,381.562,126.245,381.736C124.242,381.909,122.238,382.048,120.234,382.048C118.23,382.048,116.226,381.909,114.222,381.484C112.218,381.059,110.214,380.347,108.21,380.113C106.206,379.878,104.203,380.122,102.199,379.861C100.195,379.601,98.191,378.837,96.187,378.411C94.183,377.986,92.179,377.899,90.175,377.613C88.171,377.326,86.167,376.839,84.164,376.344C82.16,375.849,80.156,375.346,78.152,374.773C76.148,374.201,74.144,373.559,72.14,372.951C70.136,372.344,68.132,371.771,66.128,370.955C64.125,370.138,62.121,369.079,60.117,368.072C58.113,367.065,56.109,366.11,54.105,364.964C52.101,363.818,50.097,362.481,48.093,361.153C46.089,359.825,44.086,358.505,42.082,357.151C40.078,355.797,38.074,354.409,36.07,353.081C34.066,351.753,32.062,350.484,30.058,348.957C28.054,347.429,26.05,345.641,24.047,343.628C22.043,341.614,20.039,339.374,18.035,335.85C16.031,332.325,14.027,327.516,12.023,322.395Z" fill="#FF4B33" opacity="0.3"/></g></g><path class="foreground" aria-hidden="true" d="" display="none"/></g><g transform="translate(0,0)"><path class="background" aria-hidden="true" d="M0,0h600v400h-600Z"/><g><g class="mark-area role-mark layer_0_layer_0_marks" clip-path="url(#clip3)" role="graphics-object" aria-roledescription="area mark container"><path aria-label="Number of environment steps: 200.38k; Dormant neuron ratio (%): 12.5909835172; upper_Dormant neuron ratio: 14.5346682262; Width: 1024; Ci1 of Dormant neuron ratio: 14.5346682262; Ci0 of Dormant neuron ratio: 12.5909835172; Mean of Dormant neuron ratio: 13.684896183" role="graphics-symbol" aria-roledescription="errorband" d="M12.023,318.665C14.027,323.891,16.031,327.259,18.035,330.922C20.039,334.586,22.043,338.543,24.047,341.963C26.05,345.383,28.054,348.265,30.058,351.064C32.062,353.864,34.066,356.581,36.07,358.587C38.074,360.593,40.078,361.888,42.082,363.177C44.086,364.465,46.089,365.749,48.093,366.894C50.097,368.04,52.101,369.048,54.105,369.999C56.109,370.95,58.113,371.844,60.117,372.564C62.121,373.283,64.125,373.829,66.128,374.18C68.132,374.531,70.136,374.688,72.14,374.779C74.144,374.87,76.148,374.896,78.152,375.014C80.156,375.131,82.16,375.339,84.164,375.321C86.167,375.304,88.171,375.061,90.175,375.113C92.179,375.165,94.183,375.512,96.187,375.76C98.191,376.007,100.195,376.155,102.199,376.164C104.203,376.173,106.206,376.043,108.21,376.13C110.214,376.217,112.218,376.52,114.222,376.611C116.226,376.702,118.23,376.58,120.234,376.303C122.238,376.025,124.242,375.591,126.245,375.344C128.249,375.096,130.253,375.035,132.257,375.148C134.261,375.261,136.265,375.548,138.269,375.643C140.273,375.739,142.277,375.643,144.281,375.4C146.284,375.156,148.288,374.766,150.292,374.523C152.296,374.28,154.3,374.185,156.304,374.011C158.308,373.838,160.312,373.586,162.316,373.551C164.319,373.516,166.323,373.699,168.327,373.461C170.331,373.222,172.335,372.562,174.339,372.393C176.343,372.223,178.347,372.545,180.351,372.567C182.355,372.588,184.359,372.31,186.362,371.755C188.366,371.199,190.37,370.367,192.374,369.912C194.378,369.456,196.382,369.378,198.386,368.978C200.39,368.579,202.394,367.858,204.398,367.324C206.401,366.79,208.405,366.442,210.409,366.408C212.413,366.373,214.417,366.651,216.421,366.399C218.425,366.147,220.429,365.366,222.433,364.645C224.437,363.925,226.44,363.265,228.444,362.792C230.448,362.319,232.452,362.032,234.456,361.642C236.46,361.251,238.464,360.756,240.468,360.331C242.472,359.905,244.476,359.55,246.479,359.142C248.483,358.734,250.487,358.274,252.491,357.818C254.495,357.362,256.499,356.91,258.503,356.671C260.507,356.433,262.511,356.407,264.515,355.917C266.518,355.426,268.522,354.472,270.526,353.773C272.53,353.075,274.534,352.632,276.538,352.05C278.542,351.468,280.546,350.748,282.55,350.44C284.554,350.132,286.557,350.237,288.561,350.228C290.565,350.219,292.569,350.097,294.573,349.554C296.577,349.011,298.581,348.048,300.585,347.431C302.589,346.815,304.593,346.545,306.596,346.107C308.6,345.669,310.604,345.062,312.608,344.537C314.612,344.013,316.616,343.57,318.62,343.153C320.624,342.737,322.628,342.346,324.632,342.111C326.635,341.877,328.639,341.798,330.643,341.321C332.647,340.843,334.651,339.967,336.655,339.659C338.659,339.351,340.663,339.611,342.667,339.354C344.671,339.098,346.674,338.326,348.678,337.987C350.682,337.649,352.686,337.745,354.69,337.402C356.694,337.059,358.698,336.277,360.702,335.704C362.706,335.131,364.71,334.767,366.713,334.455C368.717,334.142,370.721,333.882,372.725,333.553C374.729,333.223,376.733,332.824,378.737,332.806C380.741,332.788,382.745,333.152,384.749,332.418C386.752,331.684,388.756,329.853,390.76,328.642C392.764,327.431,394.768,326.841,396.772,326.35C398.776,325.86,400.78,325.47,402.784,324.872C404.787,324.273,406.791,323.467,408.795,323.007C410.799,322.546,412.803,322.432,414.807,322.358C416.811,322.284,418.815,322.25,420.819,321.917C422.823,321.583,424.826,320.95,426.83,320.867C428.834,320.784,430.838,321.252,432.842,320.665C434.846,320.079,436.85,318.439,438.854,317.688C440.858,316.938,442.862,317.077,444.865,317.25C446.869,317.423,448.873,317.631,450.877,316.988C452.881,316.346,454.885,314.853,456.889,314.558C458.893,314.263,460.897,315.166,462.901,315.222C464.904,315.279,466.908,314.489,468.912,313.682C470.916,312.874,472.92,312.049,474.924,311.29C476.928,310.531,478.932,309.837,480.936,309.412C482.94,308.987,484.944,308.831,486.947,308.752C488.951,308.674,490.955,308.673,492.959,308.468C494.963,308.264,496.967,307.856,498.971,307.453C500.975,307.05,502.979,306.651,504.983,306.113C506.986,305.575,508.99,304.897,510.994,304.203C512.998,303.508,515.002,302.796,517.006,302.141C519.01,301.485,521.014,300.886,523.018,300.969C525.022,301.051,527.025,301.815,529.029,301.581C531.033,301.347,533.037,300.116,535.041,299.414C537.045,298.712,539.049,298.538,541.053,297.848C543.057,297.157,545.06,295.949,547.064,295.606C549.068,295.263,551.072,295.784,553.076,295.88C555.08,295.976,557.084,295.647,559.088,295.166C561.092,294.684,563.096,294.049,565.099,293.598C567.103,293.147,569.107,292.879,571.111,292.67C573.115,292.462,575.119,292.314,577.123,291.996C579.127,291.678,581.131,291.191,583.135,291.099C585.139,291.008,587.142,291.311,589.146,291.42L589.146,267.897C587.142,268.04,585.139,268.381,583.135,268.894C581.131,269.408,579.127,270.093,577.123,270.519C575.119,270.944,573.115,271.109,571.111,270.749C569.107,270.39,567.103,269.504,565.099,269.365C563.096,269.225,561.092,269.832,559.088,270.661C557.084,271.49,555.08,272.541,553.076,272.694C551.072,272.846,549.068,272.1,547.064,272.108C545.06,272.117,543.057,272.882,541.053,274.257C539.049,275.632,537.045,277.619,535.041,278.681C533.037,279.743,531.033,279.882,529.029,279.713C527.025,279.544,525.022,279.068,523.018,279.003C521.014,278.939,519.01,279.286,517.006,279.794C515.002,280.302,512.998,280.97,510.994,281.943C508.99,282.916,506.986,284.192,504.983,284.739C502.979,285.286,500.975,285.104,498.971,285.438C496.967,285.772,494.963,286.623,492.959,286.857C490.955,287.09,488.951,286.706,486.947,286.827C484.944,286.949,482.94,287.575,480.936,288.113C478.932,288.652,476.928,289.102,474.924,289.739C472.92,290.377,470.916,291.201,468.912,291.909C466.908,292.616,464.904,293.208,462.901,293.682C460.897,294.156,458.893,294.513,456.889,295.112C454.885,295.712,452.881,296.553,450.877,296.822C448.873,297.091,446.869,296.788,444.865,296.692C442.862,296.597,440.858,296.71,438.854,297.409C436.85,298.108,434.846,299.392,432.842,299.808C430.838,300.224,428.834,299.771,426.83,300.062C424.826,300.352,422.823,301.386,420.819,302.024C418.815,302.663,416.811,302.906,414.807,302.932C412.803,302.958,410.799,302.766,408.795,303.166C406.791,303.565,404.787,304.554,402.784,305.374C400.78,306.194,398.776,306.845,396.772,307.196C394.768,307.547,392.764,307.599,390.76,308.116C388.756,308.633,386.752,309.613,384.749,309.939C382.745,310.264,380.741,309.934,378.737,310.204C376.733,310.474,374.729,311.344,372.725,311.769C370.721,312.195,368.717,312.176,366.713,312.141C364.71,312.107,362.706,312.056,360.702,312.503C358.698,312.95,356.694,313.896,354.69,314.629C352.686,315.362,350.682,315.883,348.678,316.17C346.674,316.456,344.671,316.508,342.667,316.78C340.663,317.053,338.659,317.548,336.655,317.751C334.651,317.954,332.647,317.867,330.643,318.25C328.639,318.633,326.635,319.485,324.632,319.858C322.628,320.23,320.624,320.122,318.62,320.43C316.616,320.738,314.612,321.462,312.608,321.753C310.604,322.044,308.6,321.902,306.596,322.165C304.593,322.428,302.589,323.096,300.585,323.553C298.581,324.01,296.577,324.255,294.573,324.296C292.569,324.337,290.565,324.173,288.561,323.996C286.557,323.819,284.554,323.628,282.55,323.819C280.546,324.01,278.542,324.583,276.538,324.995C274.534,325.408,272.53,325.66,270.526,326.171C268.522,326.683,266.518,327.455,264.515,327.914C262.511,328.373,260.507,328.519,258.503,328.771C256.499,329.022,254.495,329.38,252.491,329.754C250.487,330.129,248.483,330.52,246.479,330.698C244.476,330.876,242.472,330.841,240.468,330.611C238.464,330.381,236.46,329.955,234.456,329.651C232.452,329.347,230.448,329.165,228.444,329.225C226.44,329.285,224.437,329.587,222.433,329.917C220.429,330.247,218.425,330.605,216.421,330.072C214.417,329.539,212.413,328.115,210.409,327.338C208.405,326.561,206.401,326.43,204.398,326.764C202.394,327.099,200.39,327.898,198.386,328.041C196.382,328.184,194.378,327.671,192.374,327.306C190.37,326.941,188.366,326.724,186.362,327.046C184.359,327.367,182.355,328.227,180.351,328.535C178.347,328.842,176.343,328.596,174.339,328.54C172.335,328.484,170.331,328.617,168.327,327.979C166.323,327.341,164.319,325.933,162.316,325.364C160.312,324.794,158.308,325.064,156.304,325.299C154.3,325.533,152.296,325.733,150.292,325.798C148.288,325.863,146.284,325.795,144.281,325.274C142.277,324.754,140.273,323.782,138.269,323.103C136.265,322.424,134.261,322.038,132.257,321.604C130.253,321.169,128.249,320.687,126.245,320.724C124.242,320.761,122.238,321.318,120.234,322.073C118.23,322.829,116.226,323.784,114.222,325.229C112.218,326.675,110.214,328.61,108.21,331.145C106.206,333.68,104.203,336.814,102.199,338.975C100.195,341.137,98.191,342.326,96.187,343.39C94.183,344.453,92.179,345.391,90.175,346.775C88.171,348.16,86.167,349.991,84.164,351.752C82.16,353.514,80.156,355.204,78.152,356.459C76.148,357.713,74.144,358.531,72.14,359.022C70.136,359.513,68.132,359.678,66.128,359.843C64.125,360.008,62.121,360.173,60.117,359.551C58.113,358.93,56.109,357.523,54.105,355.278C52.101,353.034,50.097,349.952,48.093,348.924C46.089,347.896,44.086,348.922,42.082,348.545C40.078,348.168,38.074,346.389,36.07,343.806C34.066,341.224,32.062,337.838,30.058,334.6C28.054,331.362,26.05,328.271,24.047,325.393C22.043,322.515,20.039,319.85,18.035,316.265C16.031,312.68,14.027,308.174,12.023,302.597Z" fill="#E0392D" opacity="0.3"/></g></g><path class="foreground" aria-hidden="true" d="" display="none"/></g><g transform="translate(0,0)"><path class="background" aria-hidden="true" d="M0,0h600v400h-600Z"/><g><g class="mark-area role-mark layer_0_layer_0_marks" clip-path="url(#clip4)" role="graphics-object" aria-roledescription="area mark container"><path aria-label="Number of environment steps: 200.38k; Dormant neuron ratio (%): 18.025513134; upper_Dormant neuron ratio: 19.7038577414; Width: 2048; Ci1 of Dormant neuron ratio: 19.7038577414; Ci0 of Dormant neuron ratio: 18.025513134; Mean of Dormant neuron ratio: 18.8183597565" role="graphics-symbol" aria-roledescription="errorband" d="M12.023,283.814C14.027,291.252,16.031,295.836,18.035,300.448C20.039,305.059,22.043,309.699,24.047,313.683C26.05,317.667,28.054,320.995,30.058,323.397C32.062,325.799,34.066,327.275,36.07,328.41C38.074,329.545,40.078,330.339,42.082,331.044C44.086,331.75,46.089,332.366,48.093,332.924C50.097,333.481,52.101,333.98,54.105,334.347C56.109,334.714,58.113,334.948,60.117,335.137C62.121,335.326,64.125,335.469,66.128,335.382C68.132,335.296,70.136,334.979,72.14,334.367C74.144,333.756,76.148,332.849,78.152,331.891C80.156,330.934,82.16,329.927,84.164,329.024C86.167,328.122,88.171,327.324,90.175,326.555C92.179,325.786,94.183,325.045,96.187,324.357C98.191,323.669,100.195,323.033,102.199,322.555C104.203,322.076,106.206,321.754,108.21,321.617C110.214,321.48,112.218,321.528,114.222,321.076C116.226,320.625,118.23,319.675,120.234,318.913C122.238,318.151,124.242,317.579,126.245,317.206C128.249,316.832,130.253,316.659,132.257,316.418C134.261,316.178,136.265,315.87,138.269,315.558C140.273,315.245,142.277,314.928,144.281,314.5C146.284,314.072,148.288,313.534,150.292,312.892C152.296,312.249,154.3,311.502,156.304,310.721C158.308,309.939,160.312,309.123,162.316,308.08C164.319,307.036,166.323,305.765,168.327,304.588C170.331,303.412,172.335,302.331,174.339,301.276C176.343,300.22,178.347,299.19,180.351,298.314C182.355,297.438,184.359,296.716,186.362,295.679C188.366,294.643,190.37,293.292,192.374,292.074C194.378,290.856,196.382,289.771,198.386,288.944C200.39,288.118,202.394,287.551,204.398,287.037C206.401,286.523,208.405,286.063,210.409,284.93C212.413,283.797,214.417,281.991,216.421,280.87C218.425,279.75,220.429,279.315,222.433,278.658C224.437,278.001,226.44,277.121,228.444,276.454C230.448,275.787,232.452,275.332,234.456,274.8C236.46,274.267,238.464,273.657,240.468,272.474C242.472,271.29,244.476,269.533,246.479,268.287C248.483,267.04,250.487,266.304,252.491,265.418C254.495,264.532,256.499,263.497,258.503,262.6C260.507,261.702,262.511,260.943,264.515,259.566C266.518,258.189,268.522,256.194,270.526,255.181C272.53,254.168,274.534,254.136,276.538,253.724C278.542,253.311,280.546,252.518,282.55,251.906C284.554,251.294,286.557,250.864,288.561,250.192C290.565,249.521,292.569,248.609,294.573,247.488C296.577,246.368,298.581,245.04,300.585,243.705C302.589,242.371,304.593,241.031,306.596,240.102C308.6,239.174,310.604,238.656,312.608,237.562C314.612,236.469,316.616,234.798,318.62,233.834C320.624,232.871,322.628,232.615,324.632,231.842C326.635,231.07,328.639,229.781,330.643,228.926C332.647,228.07,334.651,227.649,336.655,227.132C338.659,226.615,340.663,226.003,342.667,225.183C344.671,224.363,346.674,223.334,348.678,222.712C350.682,222.089,352.686,221.873,354.69,221.174C356.694,220.475,358.698,219.294,360.702,217.814C362.706,216.333,364.71,214.553,366.713,213.618C368.717,212.683,370.721,212.592,372.725,211.831C374.729,211.07,376.733,209.639,378.737,209.237C380.741,208.836,382.745,209.464,384.749,210.019C386.752,210.574,388.756,211.055,390.76,210.621C392.764,210.187,394.768,208.838,396.772,207.801C398.776,206.764,400.78,206.04,402.784,205.279C404.787,204.518,406.791,203.719,408.795,203.131C410.799,202.542,412.803,202.163,414.807,201.47C416.811,200.777,418.815,199.771,420.819,198.647C422.823,197.524,424.826,196.284,426.83,195.023C428.834,193.762,430.838,192.481,432.842,191.909C434.846,191.338,436.85,191.478,438.854,191.634C440.858,191.79,442.862,191.963,444.865,191.973C446.869,191.984,448.873,191.832,450.877,191.322C452.881,190.813,454.885,189.947,456.889,189.64C458.893,189.333,460.897,189.586,462.901,189.232C464.904,188.878,466.908,187.916,468.912,187.129C470.916,186.342,472.92,185.73,474.924,184.799C476.928,183.868,478.932,182.618,480.936,181.413C482.94,180.207,484.944,179.045,486.947,177.958C488.951,176.871,490.955,175.858,492.959,174.967C494.963,174.077,496.967,173.308,498.971,172.995C500.975,172.683,502.979,172.826,504.983,172.41C506.986,171.994,508.99,171.017,510.994,170.264C512.998,169.511,515.002,168.981,517.006,168.402C519.01,167.822,521.014,167.194,523.018,167.29C525.022,167.386,527.025,168.207,529.029,168.952C531.033,169.697,533.037,170.365,535.041,170.234C537.045,170.103,539.049,169.173,541.053,168.861C543.057,168.548,545.06,168.853,547.064,168.261C549.068,167.67,551.072,166.183,553.076,165.557C555.08,164.932,557.084,165.169,559.088,164.839C561.092,164.509,563.096,163.613,565.099,163.236C567.103,162.858,569.107,162.999,571.111,163.316C573.115,163.634,575.119,164.128,577.123,164.183C579.127,164.238,581.131,163.853,583.135,163.141C585.139,162.43,587.142,161.392,589.146,160.499L589.146,136.139C587.142,136.814,585.139,137.704,583.135,138.148C581.131,138.593,579.127,138.593,577.123,138.87C575.119,139.148,573.115,139.704,571.111,139.943C569.107,140.181,567.103,140.102,565.099,140.445C563.096,140.787,561.092,141.552,559.088,141.964C557.084,142.377,555.08,142.437,553.076,142.915C551.072,143.392,549.068,144.287,547.064,144.677C545.06,145.066,543.057,144.951,541.053,144.829C539.049,144.707,537.045,144.579,535.041,144.797C533.037,145.016,531.033,145.581,529.029,146.139C527.025,146.697,525.022,147.248,523.018,147.706C521.014,148.163,519.01,148.527,517.006,149.315C515.002,150.102,512.998,151.313,510.994,152.566C508.99,153.818,506.986,155.112,504.983,155.515C502.979,155.919,500.975,155.434,498.971,155.557C496.967,155.681,494.963,156.414,492.959,157.026C490.955,157.638,488.951,158.128,486.947,158.959C484.944,159.79,482.94,160.962,480.936,161.992C478.932,163.022,476.928,163.91,474.924,164.684C472.92,165.457,470.916,166.116,468.912,166.612C466.908,167.108,464.904,167.44,462.901,167.147C460.897,166.853,458.893,165.932,456.889,166.299C454.885,166.665,452.881,168.319,450.877,169.354C448.873,170.388,446.869,170.805,444.865,171.132C442.862,171.46,440.858,171.698,438.854,171.887C436.85,172.076,434.846,172.214,432.842,172.31C430.838,172.406,428.834,172.459,426.83,173.21C424.826,173.962,422.823,175.412,420.819,176.074C418.815,176.736,416.811,176.609,414.807,176.976C412.803,177.343,410.799,178.202,408.795,179.27C406.791,180.337,404.787,181.613,402.784,182.533C400.78,183.453,398.776,184.018,396.772,184.323C394.768,184.629,392.764,184.676,390.76,185.056C388.756,185.436,386.752,186.149,384.749,186.371C382.745,186.592,380.741,186.323,378.737,186.835C376.733,187.347,374.729,188.64,372.725,189.511C370.721,190.381,368.717,190.828,366.713,191.483C364.71,192.137,362.706,193,360.702,193.951C358.698,194.901,356.694,195.94,354.69,197.127C352.686,198.315,350.682,199.652,348.678,200.394C346.674,201.136,344.671,201.283,342.667,202.27C340.663,203.257,338.659,205.085,336.655,206.062C334.651,207.039,332.647,207.165,330.643,207.534C328.639,207.903,326.635,208.515,324.632,209.292C322.628,210.068,320.624,211.011,318.62,211.707C316.616,212.404,314.612,212.855,312.608,213.076C310.604,213.298,308.6,213.289,306.596,214.27C304.593,215.251,302.589,217.221,300.585,218.473C298.581,219.725,296.577,220.258,294.573,221.274C292.569,222.289,290.565,223.787,288.561,224.807C286.557,225.826,284.554,226.367,282.55,226.981C280.546,227.594,278.542,228.281,276.538,229.104C274.534,229.927,272.53,230.887,270.526,232.143C268.522,233.4,266.518,234.953,264.515,236.047C262.511,237.14,260.507,237.774,258.503,238.361C256.499,238.947,254.495,239.487,252.491,240.585C250.487,241.683,248.483,243.341,246.479,244.594C244.476,245.848,242.472,246.698,240.468,247.445C238.464,248.192,236.46,248.835,234.456,249.71C232.452,250.585,230.448,251.692,228.444,252.468C226.44,253.245,224.437,253.692,222.433,254.514C220.429,255.337,218.425,256.535,216.421,257.717C214.417,258.9,212.413,260.065,210.409,261.4C208.405,262.735,206.401,264.238,204.398,264.949C202.394,265.659,200.39,265.576,198.386,266.137C196.382,266.699,194.378,267.906,192.374,269.015C190.37,270.124,188.366,271.136,186.362,272.132C184.359,273.128,182.355,274.109,180.351,275.015C178.347,275.922,176.343,276.755,174.339,278.114C172.335,279.472,170.331,281.357,168.327,283.104C166.323,284.851,164.319,286.461,162.316,287.626C160.312,288.791,158.308,289.512,156.304,290.229C154.3,290.945,152.296,291.656,150.292,292.208C148.288,292.759,146.284,293.149,144.281,293.477C142.277,293.804,140.273,294.069,138.269,294.972C136.265,295.875,134.261,297.416,132.257,298.156C130.253,298.895,128.249,298.832,126.245,299.164C124.242,299.496,122.238,300.223,120.234,300.96C118.23,301.697,116.226,302.443,114.222,302.818C112.218,303.194,110.214,303.198,108.21,303.946C106.206,304.694,104.203,306.184,102.199,307.23C100.195,308.276,98.191,308.877,96.187,309.872C94.183,310.867,92.179,312.256,90.175,313.436C88.171,314.617,86.167,315.589,84.164,316.812C82.16,318.036,80.156,319.512,78.152,320.882C76.148,322.251,74.144,323.515,72.14,324.422C70.136,325.329,68.132,325.88,66.128,325.819C64.125,325.758,62.121,325.086,60.117,324.743C58.113,324.401,56.109,324.387,54.105,324.322C52.101,324.257,50.097,324.14,48.093,323.328C46.089,322.517,44.086,321.011,42.082,320.362C40.078,319.713,38.074,319.921,36.07,318.977C34.066,318.033,32.062,315.937,30.058,312.921C28.054,309.905,26.05,305.968,24.047,301.649C22.043,297.33,20.039,292.629,18.035,287.137C16.031,281.644,14.027,275.359,12.023,267.766Z" fill="#B22B24" opacity="0.3"/></g></g><path class="foreground" aria-hidden="true" d="" display="none"/></g><g transform="translate(0,0)"><path class="background" aria-hidden="true" d="M0,0h600v400h-600Z"/><g><g class="mark-area role-mark layer_0_layer_0_marks" clip-path="url(#clip5)" role="graphics-object" aria-roledescription="area mark container"><path aria-label="Number of environment steps: 200.38k; Dormant neuron ratio (%): 25.5685993459; upper_Dormant neuron ratio: 26.6240326246; Width: 4096; Ci1 of Dormant neuron ratio: 26.6240326246; Ci0 of Dormant neuron ratio: 25.5685993459; Mean of Dormant neuron ratio: 26.1348020766" role="graphics-symbol" aria-roledescription="errorband" d="M12.023,217.788C14.027,224.62,16.031,230.534,18.035,234.995C20.039,239.456,22.043,242.464,24.047,244.91C26.05,247.356,28.054,249.239,30.058,250.118C32.062,250.997,34.066,250.871,36.07,249.849C38.074,248.826,40.078,246.907,42.082,245.064C44.086,243.22,46.089,241.453,48.093,239.081C50.097,236.709,52.101,233.734,54.105,231.481C56.109,229.228,58.113,227.698,60.117,225.801C62.121,223.903,64.125,221.638,66.128,219.149C68.132,216.66,70.136,213.948,72.14,211.657C74.144,209.367,76.148,207.499,78.152,205.891C80.156,204.283,82.16,202.934,84.164,201.838C86.167,200.741,88.171,199.896,90.175,199.356C92.179,198.816,94.183,198.58,96.187,198.111C98.191,197.643,100.195,196.943,102.199,196.067C104.203,195.191,106.206,194.139,108.21,192.87C110.214,191.601,112.218,190.114,114.222,188.741C116.226,187.368,118.23,186.108,120.234,185.287C122.238,184.466,124.242,184.084,126.245,183.247C128.249,182.41,130.253,181.118,132.257,179.74C134.261,178.362,136.265,176.898,138.269,175.801C140.273,174.704,142.277,173.973,144.281,173.098C146.284,172.222,148.288,171.202,150.292,170.267C152.296,169.332,154.3,168.481,156.304,167.745C158.308,167.009,160.312,166.387,162.316,165.367C164.319,164.347,166.323,162.928,168.327,161.875C170.331,160.822,172.335,160.135,174.339,159.265C176.343,158.394,178.347,157.34,180.351,156.326C182.355,155.313,184.359,154.339,186.362,153.045C188.366,151.752,190.37,150.138,192.374,148.617C194.378,147.095,196.382,145.665,198.386,144.41C200.39,143.155,202.394,142.075,204.398,141.252C206.401,140.43,208.405,139.866,210.409,138.567C212.413,137.269,214.417,135.236,216.421,133.143C218.425,131.05,220.429,128.897,222.433,127.318C224.437,125.738,226.44,124.733,228.444,123.741C230.448,122.749,232.452,121.77,234.456,120.224C236.46,118.678,238.464,116.566,240.468,115.038C242.472,113.511,244.476,112.568,246.479,111.541C248.483,110.514,250.487,109.403,252.491,108.823C254.495,108.244,256.499,108.195,258.503,107.658C260.507,107.122,262.511,106.097,264.515,105.319C266.518,104.541,268.522,104.011,270.526,102.849C272.53,101.687,274.534,99.893,276.538,98.477C278.542,97.062,280.546,96.025,282.55,94.87C284.554,93.715,286.557,92.442,288.561,91.449C290.565,90.457,292.569,89.745,294.573,89.216C296.577,88.686,298.581,88.339,300.585,87.587C302.589,86.835,304.593,85.677,306.596,84.891C308.6,84.105,310.604,83.691,312.608,83.423C314.612,83.156,316.616,83.035,318.62,83.038C320.624,83.042,322.628,83.17,324.632,82.309C326.635,81.449,328.639,79.599,330.643,78.238C332.647,76.877,334.651,76.004,336.655,74.861C338.659,73.717,340.663,72.305,342.667,71.826C344.671,71.348,346.674,71.804,348.678,72.246C350.682,72.688,352.686,73.115,354.69,73.647C356.694,74.178,358.698,74.814,360.702,74.405C362.706,73.996,364.71,72.543,366.713,70.953C368.717,69.363,370.721,67.635,372.725,67.29C374.729,66.944,376.733,67.981,378.737,67.591C380.741,67.2,382.745,65.382,384.749,63.792C386.752,62.202,388.756,60.84,390.76,59.125C392.764,57.411,394.768,55.344,396.772,53.415C398.776,51.486,400.78,49.694,402.784,49.047C404.787,48.399,406.791,48.896,408.795,49.418C410.799,49.94,412.803,50.488,414.807,50.797C416.811,51.106,418.815,51.177,420.819,51.188C422.823,51.199,424.826,51.151,426.83,50.219C428.834,49.287,430.838,47.471,432.842,46.925C434.846,46.378,436.85,47.1,438.854,47.944C440.858,48.789,442.862,49.756,444.865,49.923C446.869,50.091,448.873,49.458,450.877,48.623C452.881,47.788,454.885,46.749,456.889,46.135C458.893,45.521,460.897,45.33,462.901,45.485C464.904,45.641,466.908,46.143,468.912,45.566C470.916,44.989,472.92,43.333,474.924,41.706C476.928,40.08,478.932,38.483,480.936,37.205C482.94,35.927,484.944,34.969,486.947,34.772C488.951,34.575,490.955,35.14,492.959,34.986C494.963,34.833,496.967,33.961,498.971,32.772C500.975,31.582,502.979,30.076,504.983,29.015C506.986,27.954,508.99,27.338,510.994,26.04C512.998,24.743,515.002,22.763,517.006,21.951C519.01,21.138,521.014,21.492,523.018,21.305C525.022,21.118,527.025,20.39,529.029,19.932C531.033,19.475,533.037,19.287,535.041,18.552C537.045,17.817,539.049,16.533,541.053,15.852C543.057,15.17,545.06,15.09,547.064,14.932C549.068,14.774,551.072,14.538,553.076,14.133C555.08,13.728,557.084,13.154,559.088,12.81C561.092,12.466,563.096,12.35,565.099,12.719C567.103,13.088,569.107,13.941,571.111,14.217C573.115,14.493,575.119,14.191,577.123,14.334C579.127,14.478,581.131,15.066,583.135,14.627C585.139,14.189,587.142,12.722,589.146,12.164L589.146,6.104C587.142,6.379,585.139,6.314,583.135,6.487C581.131,6.661,579.127,7.073,577.123,7.101C575.119,7.129,573.115,6.772,571.111,6.504C569.107,6.235,567.103,6.054,565.099,5.778C563.096,5.502,561.092,5.131,559.088,5.561C557.084,5.991,555.08,7.223,553.076,7.586C551.072,7.948,549.068,7.442,547.064,7.321C545.06,7.201,543.057,7.467,541.053,7.951C539.049,8.434,537.045,9.136,535.041,9.58C533.037,10.023,531.033,10.209,529.029,11.02C527.025,11.831,525.022,13.269,523.018,13.948C521.014,14.628,519.01,14.55,517.006,14.662C515.002,14.774,512.998,15.076,510.994,15.505C508.99,15.935,506.986,16.491,504.983,17.245C502.979,17.998,500.975,18.949,498.971,19.395C496.967,19.842,494.963,19.784,492.959,20.176C490.955,20.568,488.951,21.409,486.947,21.92C484.944,22.431,482.94,22.612,480.936,22.993C478.932,23.374,476.928,23.955,474.924,24.61C472.92,25.265,470.916,25.993,468.912,26.528C466.908,27.063,464.904,27.406,462.901,27.762C460.897,28.117,458.893,28.486,456.889,28.861C454.885,29.236,452.881,29.617,450.877,29.924C448.873,30.232,446.869,30.466,444.865,30.956C442.862,31.445,440.858,32.19,438.854,32.62C436.85,33.051,434.846,33.167,432.842,34.02C430.838,34.874,428.834,36.465,426.83,36.959C424.826,37.453,422.823,36.851,420.819,37.291C418.815,37.731,416.811,39.214,414.807,40.064C412.803,40.914,410.799,41.13,408.795,41.386C406.791,41.642,404.787,41.936,402.784,42.178C400.78,42.419,398.776,42.607,396.772,43.12C394.768,43.634,392.764,44.473,390.76,45.293C388.756,46.112,386.752,46.912,384.749,47.739C382.745,48.566,380.741,49.421,378.737,49.85C376.733,50.28,374.729,50.284,372.725,50.617C370.721,50.949,368.717,51.609,366.713,52.596C364.71,53.582,362.706,54.894,360.702,55.632C358.698,56.371,356.694,56.535,354.69,56.501C352.686,56.467,350.682,56.235,348.678,56.489C346.674,56.744,344.671,57.483,342.667,58.615C340.663,59.747,338.659,61.272,336.655,62.689C334.651,64.106,332.647,65.415,330.643,66.739C328.639,68.063,326.635,69.401,324.632,70.175C322.628,70.949,320.624,71.159,318.62,71.749C316.616,72.34,314.612,73.312,312.608,74.133C310.604,74.954,308.6,75.624,306.596,76.362C304.593,77.1,302.589,77.905,300.585,78.577C298.581,79.248,296.577,79.786,294.573,79.812C292.569,79.839,290.565,79.354,288.561,79.469C286.557,79.584,284.554,80.297,282.55,81.407C280.546,82.516,278.542,84.02,276.538,85.092C274.534,86.164,272.53,86.802,270.526,87.856C268.522,88.909,266.518,90.378,264.515,91.46C262.511,92.543,260.507,93.24,258.503,94.069C256.499,94.899,254.495,95.862,252.491,96.928C250.487,97.994,248.483,99.163,246.479,100.352C244.476,101.541,242.472,102.751,240.468,103.493C238.464,104.236,236.46,104.512,234.456,105.238C232.452,105.964,230.448,107.141,228.444,108.402C226.44,109.664,224.437,111.009,222.433,112.181C220.429,113.352,218.425,114.35,216.421,115.851C214.417,117.353,212.413,119.359,210.409,120.727C208.405,122.096,206.401,122.827,204.398,123.692C202.394,124.556,200.39,125.553,198.386,126.24C196.382,126.926,194.378,127.301,192.374,128.3C190.37,129.299,188.366,130.921,186.362,132.508C184.359,134.094,182.355,135.645,180.351,136.85C178.347,138.056,176.343,138.917,174.339,139.849C172.335,140.781,170.331,141.784,168.327,142.944C166.323,144.103,164.319,145.419,162.316,146.295C160.312,147.171,158.308,147.606,156.304,148.442C154.3,149.278,152.296,150.514,150.292,151.724C148.288,152.934,146.284,154.118,144.281,155.007C142.277,155.896,140.273,156.491,138.269,157.501C136.265,158.512,134.261,159.94,132.257,160.969C130.253,161.998,128.249,162.628,126.245,163.231C124.242,163.834,122.238,164.409,120.234,164.954C118.23,165.499,116.226,166.014,114.222,166.695C112.218,167.375,110.214,168.222,108.21,169.069C106.206,169.916,104.203,170.763,102.199,171.629C100.195,172.495,98.191,173.379,96.187,174.51C94.183,175.641,92.179,177.019,90.175,178.474C88.171,179.929,86.167,181.46,84.164,182.86C82.16,184.26,80.156,185.528,78.152,187.193C76.148,188.857,74.144,190.918,72.14,193.188C70.136,195.459,68.132,197.939,66.128,200.581C64.125,203.223,62.121,206.027,60.117,208.141C58.113,210.256,56.109,211.681,54.105,213.141C52.101,214.6,50.097,216.094,48.093,217.795C46.089,219.495,44.086,221.402,42.082,223.798C40.078,226.193,38.074,229.076,36.07,230.596C34.066,232.116,32.062,232.274,30.058,231.928C28.054,231.582,26.05,230.732,24.047,229.017C22.043,227.302,20.039,224.721,18.035,220.998C16.031,217.275,14.027,212.409,12.023,206.554Z" fill="#7A1F18" opacity="0.3"/></g></g><path class="foreground" aria-hidden="true" d="" display="none"/></g></g><g class="mark-group role-scope layer_1_pathgroup" role="graphics-object" aria-roledescription="group mark container"><g transform="translate(0,0)"><path class="background" aria-hidden="true" d="M0,0h600v400h-600Z"/><g><g class="mark-line role-mark layer_1_marks" clip-path="url(#clip6)" role="graphics-object" aria-roledescription="line mark container"><path aria-label="Number of environment steps: 200.38k; Dormant neuron ratio (%): 9.6875002861; Width: 256" role="graphics-symbol" aria-roledescription="line mark" d="M12.023,333.073C14.027,336.215,16.031,338.785,18.035,341.094C20.039,343.403,22.043,345.451,24.047,347.049C26.05,348.646,28.054,349.792,30.058,350.712C32.062,351.632,34.066,352.326,36.07,353.003C38.074,353.681,40.078,354.34,42.082,355.434C44.086,356.528,46.089,358.056,48.093,359.062C50.097,360.069,52.101,360.556,54.105,361.25C56.109,361.944,58.113,362.847,60.117,363.698C62.121,364.549,64.125,365.347,66.128,365.92C68.132,366.493,70.136,366.84,72.14,366.962C74.144,367.083,76.148,366.979,78.152,367.135C80.156,367.292,82.16,367.708,84.164,368.194C86.167,368.681,88.171,369.236,90.175,369.601C92.179,369.965,94.183,370.139,96.187,370.503C98.191,370.868,100.195,371.424,102.199,371.771C104.203,372.118,106.206,372.257,108.21,372.326C110.214,372.396,112.218,372.396,114.222,372.5C116.226,372.604,118.23,372.812,120.234,372.847C122.238,372.882,124.242,372.743,126.245,372.743C128.249,372.743,130.253,372.882,132.257,372.899C134.261,372.917,136.265,372.812,138.269,372.812C140.273,372.812,142.277,372.917,144.281,372.951C146.284,372.986,148.288,372.951,150.292,373.003C152.296,373.056,154.3,373.194,156.304,373.507C158.308,373.819,160.312,374.306,162.316,374.635C164.319,374.965,166.323,375.139,168.327,375.174C170.331,375.208,172.335,375.104,174.339,375.122C176.343,375.139,178.347,375.278,180.351,375.399C182.355,375.521,184.359,375.625,186.362,375.799C188.366,375.972,190.37,376.215,192.374,376.51C194.378,376.806,196.382,377.153,198.386,377.587C200.39,378.021,202.394,378.542,204.398,378.75C206.401,378.958,208.405,378.854,210.409,378.924C212.413,378.993,214.417,379.236,216.421,379.306C218.425,379.375,220.429,379.271,222.433,379.323C224.437,379.375,226.44,379.583,228.444,379.774C230.448,379.965,232.452,380.139,234.456,380.226C236.46,380.312,238.464,380.312,240.468,380.191C242.472,380.069,244.476,379.826,246.479,379.601C248.483,379.375,250.487,379.167,252.491,379.288C254.495,379.41,256.499,379.861,258.503,380.017C260.507,380.174,262.511,380.035,264.515,379.826C266.518,379.618,268.522,379.34,270.526,379.201C272.53,379.062,274.534,379.062,276.538,379.184C278.542,379.306,280.546,379.549,282.55,379.462C284.554,379.375,286.557,378.958,288.561,378.594C290.565,378.229,292.569,377.917,294.573,377.847C296.577,377.778,298.581,377.951,300.585,377.882C302.589,377.812,304.593,377.5,306.596,377.257C308.6,377.014,310.604,376.84,312.608,376.719C314.612,376.597,316.616,376.528,318.62,376.649C320.624,376.771,322.628,377.083,324.632,377.049C326.635,377.014,328.639,376.632,330.643,376.562C332.647,376.493,334.651,376.736,336.655,376.649C338.659,376.562,340.663,376.146,342.667,376.354C344.671,376.562,346.674,377.396,348.678,377.448C350.682,377.5,352.686,376.771,354.69,376.667C356.694,376.562,358.698,377.083,360.702,377.309C362.706,377.535,364.71,377.465,366.713,377.361C368.717,377.257,370.721,377.118,372.725,377.153C374.729,377.187,376.733,377.396,378.737,377.448C380.741,377.5,382.745,377.396,384.749,377.24C386.752,377.083,388.756,376.875,390.76,376.667C392.764,376.458,394.768,376.25,396.772,376.267C398.776,376.285,400.78,376.528,402.784,377.569C404.787,378.611,406.791,380.451,407.793,380.388C408.795,380.324,408.795,378.356,409.797,377.662C410.799,376.968,412.803,377.546,413.805,377.24C414.807,376.935,414.807,375.744,415.809,375.455C416.811,375.165,418.815,375.777,419.817,375.728C420.819,375.678,420.819,374.967,421.821,375.488C422.823,376.009,424.826,377.761,425.828,377.662C426.83,377.563,426.83,375.612,427.832,375.554C428.834,375.496,430.838,377.331,431.84,377.406C432.842,377.48,432.842,375.794,433.844,376.025C434.846,376.257,436.85,378.406,437.852,378.431C438.854,378.456,438.854,376.356,439.856,376.529C440.858,376.703,442.861,379.15,443.863,379.001C444.865,378.853,444.865,376.108,445.867,376.224C446.869,376.339,448.873,379.315,449.875,379.241C450.877,379.167,450.877,376.042,451.879,375.868C452.881,375.694,454.885,378.472,455.887,378.423C456.889,378.373,456.889,375.496,457.891,375.149C458.893,374.802,460.897,376.984,461.898,377.207C462.9,377.431,462.901,375.694,463.902,375.81C464.904,375.926,466.908,377.894,467.91,377.596C468.912,377.298,468.912,374.735,469.914,374.678C470.916,374.62,472.92,377.067,473.922,377.191C474.924,377.315,474.924,375.116,475.926,375C476.928,374.884,478.932,376.852,479.934,376.951C480.936,377.05,480.936,375.281,481.938,374.818C482.939,374.355,484.943,375.198,485.945,375.248C486.947,375.298,486.947,374.554,487.949,374.611C488.951,374.669,490.955,375.529,491.957,375.231C492.959,374.934,492.959,373.479,493.961,373.768C494.963,374.058,496.967,376.091,497.969,376.389C498.971,376.687,498.971,375.248,499.973,374.959C500.975,374.669,502.978,375.529,503.98,375.43C504.982,375.331,504.982,374.272,505.984,374.33C506.986,374.388,508.99,375.562,509.992,375.562C510.994,375.562,510.994,374.388,511.996,374.909C512.998,375.43,515.002,377.646,516.004,377.745C517.006,377.844,517.006,375.827,518.008,375.537C519.01,375.248,521.014,376.687,522.015,376.538C523.017,376.389,523.018,374.653,524.019,375.174C525.021,375.694,527.025,378.472,528.027,378.241C529.029,378.009,529.029,374.769,530.031,374.213C531.033,373.657,533.037,375.787,534.039,375.949C535.041,376.111,535.041,374.306,536.043,374.097C537.045,373.889,539.049,375.278,540.051,375.486C541.052,375.694,541.053,374.722,542.055,374.479C543.057,374.236,545.06,374.722,546.062,374.375C547.064,374.028,547.064,372.847,548.066,373.16C549.068,373.472,551.072,375.278,552.074,375.104C553.076,374.931,553.076,372.778,554.078,372.604C555.08,372.431,557.084,374.236,558.086,374.271C559.088,374.306,559.088,372.569,560.09,372.674C561.092,372.778,563.095,374.722,564.097,375C565.099,375.278,565.099,373.889,566.101,373.646C567.103,373.403,569.107,374.306,570.109,374.444C571.111,374.583,571.111,373.958,572.113,373.681C573.115,373.403,575.119,373.472,576.121,373.472C577.123,373.472,577.123,373.403,578.125,374.109C579.127,374.815,581.13,376.296,582.132,375.663C583.134,375.029,583.135,372.28,584.136,372.454C585.138,372.627,587.142,375.723,588.144,375.593C589.146,375.463,589.146,372.106,590.148,371.933C591.15,371.759,593.154,374.769,594.156,374.855" stroke="#FF5F33" stroke-width="2"/></g></g><path class="foreground" aria-hidden="true" d="" display="none"/></g><g transform="translate(0,0)"><path class="background" aria-hidden="true" d="M0,0h600v400h-600Z"/><g><g class="mark-line role-mark layer_1_marks" clip-path="url(#clip7)" role="graphics-object" aria-roledescription="line mark container"><path aria-label="Number of environment steps: 200.38k; Dormant neuron ratio (%): 11.0221357346; Width: 512" role="graphics-symbol" aria-roledescription="line mark" d="M12.023,327.552C14.027,332.448,16.031,336.823,18.035,340.139C20.039,343.455,22.043,345.712,24.047,347.613C26.05,349.514,28.054,351.059,30.058,352.578C32.062,354.097,34.066,355.59,36.07,357.04C38.074,358.49,40.078,359.896,42.082,361.285C44.086,362.674,46.089,364.045,48.093,365.373C50.097,366.701,52.101,367.986,54.105,369.036C56.109,370.087,58.113,370.903,60.117,371.745C62.121,372.587,64.125,373.455,66.128,374.193C68.132,374.931,70.136,375.538,72.14,376.05C74.144,376.562,76.148,376.979,78.152,377.387C80.156,377.795,82.16,378.194,84.164,378.611C86.167,379.028,88.171,379.462,90.175,379.67C92.179,379.878,94.183,379.861,96.187,380.165C98.191,380.469,100.195,381.094,102.199,381.328C104.203,381.562,106.206,381.406,108.21,381.606C110.214,381.806,112.218,382.361,114.222,382.795C116.226,383.229,118.23,383.542,120.234,383.646C122.238,383.75,124.242,383.646,126.245,383.568C128.249,383.49,130.253,383.437,132.257,383.594C134.261,383.75,136.265,384.115,138.269,384.245C140.273,384.375,142.277,384.271,144.281,384.34C146.284,384.41,148.288,384.653,150.292,384.661C152.296,384.67,154.3,384.444,156.304,384.262C158.308,384.08,160.312,383.941,162.316,383.95C164.319,383.958,166.323,384.115,168.327,384.21C170.331,384.306,172.335,384.34,174.339,384.175C176.343,384.01,178.347,383.646,180.351,383.559C182.355,383.472,184.359,383.663,186.362,383.542C188.366,383.42,190.37,382.986,192.374,382.83C194.378,382.674,196.382,382.795,198.386,382.656C200.39,382.517,202.394,382.118,204.398,381.806C206.401,381.493,208.405,381.267,210.409,381.259C212.413,381.25,214.417,381.458,216.421,381.415C218.425,381.372,220.429,381.076,222.433,380.981C224.437,380.885,226.44,380.99,228.444,380.885C230.448,380.781,232.452,380.469,234.456,380.286C236.46,380.104,238.464,380.052,240.468,379.957C242.472,379.861,244.476,379.722,246.479,379.661C248.483,379.601,250.487,379.618,252.491,379.523C254.495,379.427,256.499,379.219,258.503,379.002C260.507,378.785,262.511,378.559,264.515,378.446C266.518,378.333,268.522,378.333,270.526,378.22C272.53,378.108,274.534,377.882,276.538,377.778C278.542,377.674,280.546,377.691,282.55,377.622C284.554,377.552,286.557,377.396,288.561,377.448C290.565,377.5,292.569,377.76,294.573,377.717C296.577,377.674,298.581,377.326,300.585,377.248C302.589,377.17,304.593,377.361,306.596,377.231C308.6,377.101,310.604,376.649,312.608,376.233C314.612,375.816,316.616,375.434,318.62,375.243C320.624,375.052,322.628,375.052,324.632,374.722C326.635,374.392,328.639,373.733,330.643,373.481C332.647,373.229,334.651,373.385,336.655,373.394C338.659,373.403,340.663,373.264,342.667,373.056C344.671,372.847,346.674,372.569,348.678,372.214C350.682,371.858,352.686,371.424,354.69,370.877C356.694,370.33,358.698,369.67,360.702,369.444C362.706,369.219,364.71,369.427,366.713,369.653C368.717,369.878,370.721,370.122,372.725,370.243C374.729,370.365,376.733,370.365,378.737,370.191C380.741,370.017,382.745,369.67,384.749,369.34C386.752,369.01,388.756,368.698,390.76,368.446C392.764,368.194,394.768,368.003,396.772,367.821C398.776,367.639,400.78,367.465,402.784,367.448C404.787,367.431,406.791,367.569,408.795,367.526C410.799,367.483,412.803,367.257,414.807,366.727C416.811,366.198,418.815,365.365,420.819,365.182C422.823,365,424.826,365.469,426.83,365.59C428.834,365.712,430.838,365.486,432.842,365.408C434.846,365.33,436.85,365.399,438.854,365.391C440.858,365.382,442.862,365.295,444.865,365.321C446.869,365.347,448.873,365.486,450.877,365.295C452.881,365.104,454.885,364.583,456.889,364.41C458.893,364.236,460.897,364.41,462.901,364.245C464.904,364.08,466.908,363.576,468.912,363.247C470.916,362.917,472.92,362.76,474.924,362.648C476.928,362.535,478.932,362.465,480.936,362.344C482.94,362.222,484.944,362.049,486.947,361.806C488.951,361.562,490.955,361.25,492.959,360.955C494.963,360.66,496.967,360.382,498.971,360.087C500.975,359.792,502.979,359.479,504.983,359.253C506.986,359.028,508.99,358.889,510.994,358.733C512.998,358.576,515.002,358.403,517.006,358.307C519.01,358.212,521.014,358.194,523.018,358.151C525.022,358.108,527.025,358.038,529.029,358.056C531.033,358.073,533.037,358.177,535.041,358.038C537.045,357.899,539.049,357.517,541.053,357.3C543.057,357.083,545.06,357.031,547.064,356.788C549.068,356.545,551.072,356.111,553.076,355.981C555.08,355.851,557.084,356.024,559.088,355.738C561.092,355.451,563.096,354.705,565.099,354.193C567.103,353.681,569.107,353.403,571.111,353.247C573.115,353.09,575.119,353.056,577.123,353.22C579.127,353.385,581.131,353.75,583.135,353.906C585.139,354.062,587.142,354.01,589.146,353.811" stroke="#FF4B33" stroke-width="2"/></g></g><path class="foreground" aria-hidden="true" d="" display="none"/></g><g transform="translate(0,0)"><path class="background" aria-hidden="true" d="M0,0h600v400h-600Z"/><g><g class="mark-line role-mark layer_1_marks" clip-path="url(#clip8)" role="graphics-object" aria-roledescription="line mark container"><path aria-label="Number of environment steps: 200.38k; Dormant neuron ratio (%): 13.684896183; Width: 1024" role="graphics-symbol" aria-roledescription="line mark" d="M12.023,310.148C14.027,315.816,16.031,320.174,18.035,324.149C20.039,328.125,22.043,331.719,24.047,334.974C26.05,338.229,28.054,341.146,30.058,344.054C32.062,346.962,34.066,349.861,36.07,352.127C38.074,354.392,40.078,356.024,42.082,356.962C44.086,357.899,46.089,358.142,48.093,359.149C50.097,360.156,52.101,361.927,54.105,363.286C56.109,364.644,58.113,365.59,60.117,366.319C62.121,367.049,64.125,367.561,66.128,367.743C68.132,367.925,70.136,367.778,72.14,367.708C74.144,367.639,76.148,367.648,78.152,367.452C80.156,367.257,82.16,366.858,84.164,366.267C86.167,365.677,88.171,364.896,90.175,364.384C92.179,363.872,94.183,363.628,96.187,363.451C98.191,363.273,100.195,363.16,102.199,362.496C104.203,361.832,106.206,360.616,108.21,359.709C110.214,358.802,112.218,358.203,114.222,357.626C116.226,357.049,118.23,356.493,120.234,355.981C122.238,355.469,124.242,355,126.245,354.792C128.249,354.583,130.253,354.635,132.257,354.848C134.261,355.061,136.265,355.434,138.269,355.725C140.273,356.016,142.277,356.224,144.281,356.155C146.284,356.085,148.288,355.738,150.292,355.677C152.296,355.616,154.3,355.842,156.304,355.768C158.308,355.694,160.312,355.321,162.316,355.308C164.319,355.295,166.323,355.642,168.327,355.694C170.331,355.747,172.335,355.503,174.339,355.499C176.343,355.495,178.347,355.729,180.351,355.599C182.355,355.469,184.359,354.974,186.362,354.579C188.366,354.184,190.37,353.889,192.374,353.75C194.378,353.611,196.382,353.628,198.386,353.312C200.39,352.995,202.394,352.344,204.398,351.858C206.401,351.372,208.405,351.05,210.409,351.246C212.413,351.441,214.417,352.153,216.421,352.279C218.425,352.405,220.429,351.944,222.433,351.45C224.437,350.955,226.44,350.425,228.444,349.952C230.448,349.479,232.452,349.062,234.456,348.806C236.46,348.55,238.464,348.455,240.468,348.355C242.472,348.255,244.476,348.151,246.479,347.891C248.483,347.63,250.487,347.214,252.491,346.784C254.495,346.354,256.499,345.911,258.503,345.699C260.507,345.486,262.511,345.503,264.515,345.035C266.518,344.566,268.522,343.611,270.526,342.882C272.53,342.153,274.534,341.649,276.538,341.102C278.542,340.556,280.546,339.965,282.55,339.709C284.554,339.453,286.557,339.531,288.561,339.484C290.565,339.436,292.569,339.262,294.573,338.859C296.577,338.455,298.581,337.821,300.585,337.24C302.589,336.658,304.593,336.128,306.596,335.66C308.6,335.191,310.604,334.783,312.608,334.293C314.612,333.802,316.616,333.229,318.62,332.904C320.624,332.578,322.628,332.5,324.632,332.283C326.635,332.066,328.639,331.71,330.643,331.215C332.647,330.72,334.651,330.087,336.655,329.792C338.659,329.497,340.663,329.54,342.667,329.297C344.671,329.054,346.674,328.524,348.678,328.147C350.682,327.769,352.686,327.543,354.69,327.109C356.694,326.675,358.698,326.033,360.702,325.434C362.706,324.835,364.71,324.28,366.713,323.932C368.717,323.585,370.721,323.446,372.725,323.177C374.729,322.908,376.733,322.509,378.737,322.539C380.741,322.569,382.745,323.03,384.749,322.483C386.752,321.936,388.756,320.382,390.76,319.327C392.764,318.273,394.768,317.717,396.772,317.183C398.776,316.649,400.78,316.137,402.784,315.499C404.787,314.861,406.791,314.097,408.795,313.711C410.799,313.325,412.803,313.316,414.807,313.234C416.811,313.151,418.815,312.995,420.819,312.439C422.823,311.884,424.826,310.929,426.83,310.595C428.834,310.26,430.838,310.547,432.842,310.178C434.846,309.809,436.85,308.785,438.854,308.134C440.858,307.483,442.862,307.205,444.865,307.227C446.869,307.248,448.873,307.569,450.877,307.118C452.881,306.667,454.885,305.443,456.889,304.913C458.893,304.384,460.897,304.549,462.901,304.327C464.904,304.106,466.908,303.498,468.912,302.873C470.916,302.248,472.92,301.606,474.924,300.959C476.928,300.312,478.932,299.661,480.936,299.128C482.94,298.594,484.944,298.177,486.947,297.917C488.951,297.656,490.955,297.552,492.959,297.253C494.963,296.953,496.967,296.458,498.971,296.306C500.975,296.155,502.979,296.345,504.983,295.894C506.986,295.443,508.99,294.349,510.994,293.446C512.998,292.543,515.002,291.832,517.006,291.328C519.01,290.825,521.014,290.53,523.018,290.49C525.022,290.451,527.025,290.668,529.029,290.425C531.033,290.182,533.037,289.479,535.041,288.694C537.045,287.908,539.049,287.04,541.053,286.111C543.057,285.182,545.06,284.193,547.064,283.841C549.068,283.49,551.072,283.776,553.076,283.741C555.08,283.707,557.084,283.351,559.088,282.756C561.092,282.161,563.096,281.328,565.099,281.102C567.103,280.877,569.107,281.259,571.111,281.506C573.115,281.753,575.119,281.866,577.123,281.536C579.127,281.207,581.131,280.434,583.135,280.065C585.139,279.696,587.142,279.731,589.146,279.766" stroke="#E0392D" stroke-width="2"/></g></g><path class="foreground" aria-hidden="true" d="" display="none"/></g><g transform="translate(0,0)"><path class="background" aria-hidden="true" d="M0,0h600v400h-600Z"/><g><g class="mark-line role-mark layer_1_marks" clip-path="url(#clip9)" role="graphics-object" aria-roledescription="line mark container"><path aria-label="Number of environment steps: 200.38k; Dormant neuron ratio (%): 18.8183597565; Width: 2048" role="graphics-symbol" aria-roledescription="line mark" d="M12.023,275.935C14.027,283.424,16.031,288.906,18.035,293.917C20.039,298.928,22.043,303.468,24.047,307.587C26.05,311.706,28.054,315.404,30.058,318.184C32.062,320.964,34.066,322.826,36.07,324.052C38.074,325.278,40.078,325.868,42.082,326.586C44.086,327.305,46.089,328.151,48.093,328.711C50.097,329.271,52.101,329.544,54.105,329.768C56.109,329.991,58.113,330.165,60.117,330.339C62.121,330.512,64.125,330.686,66.128,330.538C68.132,330.391,70.136,329.922,72.14,329.219C74.144,328.516,76.148,327.578,78.152,326.493C80.156,325.408,82.16,324.175,84.164,323.049C86.167,321.923,88.171,320.903,90.175,319.998C92.179,319.093,94.183,318.303,96.187,317.539C98.191,316.775,100.195,316.037,102.199,315.286C104.203,314.536,106.206,313.772,108.21,313.429C110.214,313.086,112.218,313.164,114.222,312.756C116.226,312.348,118.23,311.454,120.234,310.72C122.238,309.987,124.242,309.414,126.245,309.026C128.249,308.637,130.253,308.433,132.257,307.925C134.261,307.418,136.265,306.606,138.269,306.072C140.273,305.538,142.277,305.282,144.281,304.8C146.284,304.319,148.288,303.611,150.292,302.984C152.296,302.357,154.3,301.81,156.304,301.098C158.308,300.386,160.312,299.51,162.316,298.357C164.319,297.205,166.323,295.777,168.327,294.286C170.331,292.795,172.335,291.241,174.339,289.933C176.343,288.624,178.347,287.561,180.351,286.595C182.355,285.629,184.359,284.761,186.362,283.783C188.366,282.804,190.37,281.714,192.374,280.642C194.378,279.57,196.382,278.516,198.386,277.83C200.39,277.144,202.394,276.827,204.398,276.118C206.401,275.408,208.405,274.306,210.409,273.006C212.413,271.706,214.417,270.208,216.421,269.058C218.425,267.908,220.429,267.105,222.433,266.374C224.437,265.642,226.44,264.983,228.444,264.312C230.448,263.641,232.452,262.96,234.456,262.376C236.46,261.793,238.464,261.306,240.468,260.347C242.472,259.388,244.476,257.956,246.479,256.684C248.483,255.412,250.487,254.301,252.491,253.303C254.495,252.305,256.499,251.419,258.503,250.508C260.507,249.596,262.511,248.659,264.515,247.407C266.518,246.155,268.522,244.588,270.526,243.498C272.53,242.409,274.534,241.797,276.538,241.246C278.542,240.694,280.546,240.204,282.55,239.64C284.554,239.076,286.557,238.437,288.561,237.611C290.565,236.784,292.569,235.768,294.573,234.657C296.577,233.546,298.581,232.339,300.585,230.957C302.589,229.575,304.593,228.016,306.596,227.101C308.6,226.185,310.604,225.911,312.608,225.284C314.612,224.657,316.616,223.676,318.62,222.869C320.624,222.062,322.628,221.428,324.632,220.647C326.635,219.865,328.639,218.937,330.643,218.362C332.647,217.786,334.651,217.565,336.655,216.78C338.659,215.994,340.663,214.644,342.667,213.626C344.671,212.609,346.674,211.923,348.678,211.263C350.682,210.603,352.686,209.97,354.69,209.188C356.694,208.407,358.698,207.478,360.702,206.302C362.706,205.126,364.71,203.702,366.713,202.843C368.717,201.984,370.721,201.688,372.725,200.788C374.729,199.887,376.733,198.381,378.737,197.958C380.741,197.535,382.745,198.194,384.749,198.327C386.752,198.459,388.756,198.064,390.76,197.5C392.764,196.936,394.768,196.202,396.772,195.523C398.776,194.844,400.78,194.219,402.784,193.461C404.787,192.704,406.791,191.814,408.795,191.126C410.799,190.438,412.803,189.952,414.807,189.434C416.811,188.915,418.815,188.364,420.819,187.48C422.823,186.597,424.826,185.382,426.83,184.403C428.834,183.424,430.838,182.682,432.842,182.316C434.846,181.949,436.85,181.957,438.854,181.938C440.858,181.918,442.862,181.871,444.865,181.643C446.869,181.415,448.873,181.007,450.877,180.321C452.881,179.635,454.885,178.672,456.889,178.22C458.893,177.769,460.897,177.83,462.901,177.695C464.904,177.561,466.908,177.231,468.912,176.678C470.916,176.124,472.92,175.347,474.924,174.531C476.928,173.715,478.932,172.86,480.936,171.842C482.94,170.825,484.944,169.644,486.947,168.652C488.951,167.661,490.955,166.858,492.959,166.059C494.963,165.26,496.967,164.466,498.971,164.199C500.975,163.932,502.979,164.193,504.983,163.806C506.986,163.42,508.99,162.387,510.994,161.424C512.998,160.46,515.002,159.566,517.006,158.859C519.01,158.151,521.014,157.63,523.018,157.465C525.022,157.3,527.025,157.491,529.029,157.431C531.033,157.37,533.037,157.057,535.041,156.895C537.045,156.732,539.049,156.719,541.053,156.775C543.057,156.832,545.06,156.957,547.064,156.504C549.068,156.05,551.072,155.017,553.076,154.444C555.08,153.872,557.084,153.759,559.088,153.294C561.092,152.83,563.096,152.014,565.099,151.595C567.103,151.176,569.107,151.155,571.111,151.089C573.115,151.024,575.119,150.916,577.123,150.755C579.127,150.595,581.131,150.382,583.135,149.789C585.139,149.197,587.142,148.225,589.146,147.563" stroke="#B22B24" stroke-width="2"/></g></g><path class="foreground" aria-hidden="true" d="" display="none"/></g><g transform="translate(0,0)"><path class="background" aria-hidden="true" d="M0,0h600v400h-600Z"/><g><g class="mark-line role-mark layer_1_marks" clip-path="url(#clip10)" role="graphics-object" aria-roledescription="line mark container"><path aria-label="Number of environment steps: 200.38k; Dormant neuron ratio (%): 26.1348020766; Width: 4096" role="graphics-symbol" aria-roledescription="line mark" d="M12.023,212.199C14.027,218.526,16.031,223.705,18.035,227.752C20.039,231.8,22.043,234.715,24.047,236.939C26.05,239.164,28.054,240.697,30.058,241.276C32.062,241.855,34.066,241.479,36.07,240.183C38.074,238.886,40.078,236.671,42.082,234.773C44.086,232.875,46.089,231.296,48.093,229.282C50.097,227.269,52.101,224.822,54.105,222.83C56.109,220.838,58.113,219.302,60.117,217.314C62.121,215.326,64.125,212.886,66.128,210.485C68.132,208.085,70.136,205.724,72.14,203.47C74.144,201.215,76.148,199.067,78.152,197.413C80.156,195.759,82.16,194.599,84.164,193.521C86.167,192.443,88.171,191.447,90.175,190.449C92.179,189.451,94.183,188.45,96.187,187.554C98.191,186.658,100.195,185.868,102.199,184.948C104.203,184.028,106.206,182.979,108.21,181.707C110.214,180.435,112.218,178.94,114.222,177.873C116.226,176.806,118.23,176.167,120.234,175.731C122.238,175.294,124.242,175.06,126.245,174.513C128.249,173.966,130.253,173.105,132.257,171.945C134.261,170.785,136.265,169.326,138.269,168.164C140.273,167.002,142.277,166.136,144.281,165.168C146.284,164.2,148.288,163.129,150.292,162.048C152.296,160.966,154.3,159.874,156.304,159.066C158.308,158.259,160.312,157.735,162.316,156.94C164.319,156.144,166.323,155.076,168.327,154.051C170.331,153.026,172.335,152.045,174.339,151.014C176.343,149.983,178.347,148.903,180.351,147.905C182.355,146.906,184.359,145.99,186.362,144.683C188.366,143.376,190.37,141.679,192.374,140.292C194.378,138.906,196.382,137.83,198.386,136.841C200.39,135.851,202.394,134.946,204.398,134.053C206.401,133.16,208.405,132.277,210.409,130.947C212.413,129.618,214.417,127.84,216.421,126.124C218.425,124.407,220.429,122.75,222.433,121.265C224.437,119.78,226.44,118.465,228.444,117.339C230.448,116.213,232.452,115.275,234.456,114.069C236.46,112.862,238.464,111.386,240.468,110.168C242.472,108.951,244.476,107.991,246.479,106.864C248.483,105.736,250.487,104.442,252.491,103.587C254.495,102.732,256.499,102.317,258.503,101.739C260.507,101.16,262.511,100.417,264.515,99.589C266.518,98.761,268.522,97.847,270.526,96.622C272.53,95.397,274.534,93.861,276.538,92.603C278.542,91.346,280.546,90.367,282.55,89.278C284.554,88.19,286.557,86.991,288.561,86.216C290.565,85.441,292.569,85.089,294.573,84.638C296.577,84.187,298.581,83.637,300.585,82.89C302.589,82.142,304.593,81.197,306.596,80.496C308.6,79.796,310.604,79.34,312.608,78.787C314.612,78.233,316.616,77.582,318.62,77.215C320.624,76.847,322.628,76.763,324.632,75.968C326.635,75.174,328.639,73.669,330.643,72.424C332.647,71.178,334.651,70.192,336.655,69.047C338.659,67.901,340.663,66.597,342.667,65.707C344.671,64.817,346.674,64.342,348.678,64.277C350.682,64.212,352.686,64.557,354.69,64.745C356.694,64.933,358.698,64.964,360.702,64.357C362.706,63.749,364.71,62.502,366.713,61.29C368.717,60.077,370.721,58.898,372.725,58.462C374.729,58.027,376.733,58.336,378.737,57.946C380.741,57.557,382.745,56.469,384.749,55.333C386.752,54.196,388.756,53.009,390.76,51.798C392.764,50.586,394.768,49.349,396.772,48.24C398.776,47.131,400.78,46.149,402.784,45.756C404.787,45.363,406.791,45.558,408.795,45.675C410.799,45.792,412.803,45.831,414.807,45.481C416.811,45.132,418.815,44.394,420.819,44.106C422.823,43.818,424.826,43.979,426.83,43.345C428.834,42.711,430.838,41.281,432.842,40.633C434.846,39.986,436.85,40.121,438.854,40.116C440.858,40.111,442.862,39.967,444.865,39.541C446.869,39.116,448.873,38.409,450.877,37.671C452.881,36.933,454.885,36.164,456.889,35.597C458.893,35.031,460.897,34.667,462.901,34.639C464.904,34.611,466.908,34.92,468.912,34.45C470.916,33.98,472.92,32.731,474.924,31.777C476.928,30.823,478.932,30.165,480.936,29.496C482.94,28.827,484.944,28.147,486.947,27.792C488.951,27.438,490.955,27.409,492.959,27.201C494.963,26.994,496.967,26.608,498.971,25.832C500.975,25.055,502.979,23.888,504.983,23.017C506.986,22.145,508.99,21.569,510.994,20.796C512.998,20.023,515.002,19.054,517.006,18.638C519.01,18.222,521.014,18.359,523.018,17.881C525.022,17.402,527.025,16.307,529.029,15.636C531.033,14.964,533.037,14.716,535.041,14.078C537.045,13.44,539.049,12.413,541.053,11.832C543.057,11.251,545.06,11.116,547.064,11.123C549.068,11.13,551.072,11.28,553.076,10.906C555.08,10.532,557.084,9.635,559.088,9.244C561.092,8.852,563.096,8.965,565.099,9.277C567.103,9.59,569.107,10.101,571.111,10.362C573.115,10.624,575.119,10.636,577.123,10.575C579.127,10.513,581.131,10.378,583.135,10.067C585.139,9.756,587.142,9.269,589.146,8.963" stroke="#7A1F18" stroke-width="2"/></g></g><path class="foreground" aria-hidden="true" d="" display="none"/></g></g><g class="mark-group role-legend" role="graphics-symbol" aria-roledescription="legend" aria-label="Symbol legend titled 'Width' for fill color and stroke color with 5 values: 256, 512, 1024, 2048, 4096"><g transform="translate(18,18)"><path class="background" aria-hidden="true" d="M0,0h46v99h-46Z" pointer-events="none"/><g><g class="mark-group role-legend-entry"><g transform="translate(0,21)"><path class="background" aria-hidden="true" d="M0,0h0v0h0Z" pointer-events="none"/><g><g class="mark-group role-scope" role="graphics-object" aria-roledescription="group mark container"><g transform="translate(0,0)"><path class="background" aria-hidden="true" d="M0,0h46v14h-46Z" pointer-events="none" opacity="1"/><g><g class="mark-symbol role-legend-symbol" pointer-events="none"><path transform="translate(7,7)" d="M3.536,0A3.536,3.536,0,1,1,-3.536,0A3.536,3.536,0,1,1,3.536,0" fill="#FF5F33" stroke="#FF5F33" stroke-width="1.5" opacity="1"/></g><g class="mark-text role-legend-label" pointer-events="none"><text text-anchor="start" transform="translate(18,11)" font-family="Times New Roman" font-size="14px" fill="#000" opacity="1">256</text></g></g><path class="foreground" aria-hidden="true" d="" pointer-events="none" display="none"/></g><g transform="translate(0,16)"><path class="background" aria-hidden="true" d="M0,0h46v14h-46Z" pointer-events="none" opacity="1"/><g><g class="mark-symbol role-legend-symbol" pointer-events="none"><path transform="translate(7,7)" d="M3.536,0A3.536,3.536,0,1,1,-3.536,0A3.536,3.536,0,1,1,3.536,0" fill="#FF4B33" stroke="#FF4B33" stroke-width="1.5" opacity="1"/></g><g class="mark-text role-legend-label" pointer-events="none"><text text-anchor="start" transform="translate(18,11)" font-family="Times New Roman" font-size="14px" fill="#000" opacity="1">512</text></g></g><path class="foreground" aria-hidden="true" d="" pointer-events="none" display="none"/></g><g transform="translate(0,32)"><path class="background" aria-hidden="true" d="M0,0h46v14h-46Z" pointer-events="none" opacity="1"/><g><g class="mark-symbol role-legend-symbol" pointer-events="none"><path transform="translate(7,7)" d="M3.536,0A3.536,3.536,0,1,1,-3.536,0A3.536,3.536,0,1,1,3.536,0" fill="#E0392D" stroke="#E0392D" stroke-width="1.5" opacity="1"/></g><g class="mark-text role-legend-label" pointer-events="none"><text text-anchor="start" transform="translate(18,11)" font-family="Times New Roman" font-size="14px" fill="#000" opacity="1">1024</text></g></g><path class="foreground" aria-hidden="true" d="" pointer-events="none" display="none"/></g><g transform="translate(0,48)"><path class="background" aria-hidden="true" d="M0,0h46v14h-46Z" pointer-events="none" opacity="1"/><g><g class="mark-symbol role-legend-symbol" pointer-events="none"><path transform="translate(7,7)" d="M3.536,0A3.536,3.536,0,1,1,-3.536,0A3.536,3.536,0,1,1,3.536,0" fill="#B22B24" stroke="#B22B24" stroke-width="1.5" opacity="1"/></g><g class="mark-text role-legend-label" pointer-events="none"><text text-anchor="start" transform="translate(18,11)" font-family="Times New Roman" font-size="14px" fill="#000" opacity="1">2048</text></g></g><path class="foreground" aria-hidden="true" d="" pointer-events="none" display="none"/></g><g transform="translate(0,64)"><path class="background" aria-hidden="true" d="M0,0h46v14h-46Z" pointer-events="none" opacity="1"/><g><g class="mark-symbol role-legend-symbol" pointer-events="none"><path transform="translate(7,7)" d="M3.536,0A3.536,3.536,0,1,1,-3.536,0A3.536,3.536,0,1,1,3.536,0" fill="#7A1F18" stroke="#7A1F18" stroke-width="1.5" opacity="1"/></g><g class="mark-text role-legend-label" pointer-events="none"><text text-anchor="start" transform="translate(18,11)" font-family="Times New Roman" font-size="14px" fill="#000" opacity="1">4096</text></g></g><path class="foreground" aria-hidden="true" d="" pointer-events="none" display="none"/></g></g></g><path class="foreground" aria-hidden="true" d="" pointer-events="none" display="none"/></g></g><g class="mark-text role-legend-title" pointer-events="none"><text text-anchor="start" transform="translate(0,13)" font-family="Times New Roman" font-size="16px" font-weight="bold" fill="#000" opacity="1">Width</text></g></g><path class="foreground" aria-hidden="true" d="" pointer-events="none" display="none"/></g></g></g><path class="foreground" aria-hidden="true" d="" display="none"/></g></g></g><defs><clipPath id="clip1"><rect x="0" y="0" width="600" height="400"/></clipPath><clipPath id="clip2"><rect x="0" y="0" width="600" height="400"/></clipPath><clipPath id="clip3"><rect x="0" y="0" width="600" height="400"/></clipPath><clipPath id="clip4"><rect x="0" y="0" width="600" height="400"/></clipPath><clipPath id="clip5"><rect x="0" y="0" width="600" height="400"/></clipPath><clipPath id="clip6"><rect x="0" y="0" width="600" height="400"/></clipPath><clipPath id="clip7"><rect x="0" y="0" width="600" height="400"/></clipPath><clipPath id="clip8"><rect x="0" y="0" width="600" height="400"/></clipPath><clipPath id="clip9"><rect x="0" y="0" width="600" height="400"/></clipPath><clipPath id="clip10"><rect x="0" y="0" width="600" height="400"/></clipPath></defs></svg>