<svg xmlns="http://www.w3.org/2000/svg" xmlns:xlink="http://www.w3.org/1999/xlink" version="1.1" class="marks" width="749" height="482" viewBox="0 0 749 482"><rect width="749" height="482" fill="white"/><g fill="none" stroke-miterlimit="10" transform="translate(46,36)"><g class="mark-group role-frame root" role="graphics-object" aria-roledescription="group mark container"><g transform="translate(0,0)"><path class="background" aria-hidden="true" d="M0.5,0.5h600v400h-600Z" stroke="#ddd"/><g><g class="mark-group role-axis" aria-hidden="true"><g transform="translate(0.5,400.5)"><path class="background" aria-hidden="true" d="M0,0h0v0h0Z" pointer-events="none"/><g><g class="mark-rule role-axis-grid" pointer-events="none"><line transform="translate(0,-400)" x2="0" y2="400" stroke="#ddd" stroke-width="1" opacity="1"/><line transform="translate(30,-400)" x2="0" y2="400" stroke="#ddd" stroke-width="1" opacity="1"/><line transform="translate(60,-400)" x2="0" y2="400" stroke="#ddd" stroke-width="1" opacity="1"/><line transform="translate(90,-400)" x2="0" y2="400" stroke="#ddd" stroke-width="1" opacity="1"/><line transform="translate(120,-400)" x2="0" y2="400" stroke="#ddd" stroke-width="1" opacity="1"/><line transform="translate(150,-400)" x2="0" y2="400" stroke="#ddd" stroke-width="1" opacity="1"/><line transform="translate(180,-400)" x2="0" y2="400" stroke="#ddd" stroke-width="1" opacity="1"/><line transform="translate(210,-400)" x2="0" y2="400" stroke="#ddd" stroke-width="1" opacity="1"/><line transform="translate(240,-400)" x2="0" y2="400" stroke="#ddd" stroke-width="1" opacity="1"/><line transform="translate(270,-400)" x2="0" y2="400" stroke="#ddd" stroke-width="1" opacity="1"/><line transform="translate(300,-400)" x2="0" y2="400" stroke="#ddd" stroke-width="1" opacity="1"/><line transform="translate(330,-400)" x2="0" y2="400" stroke="#ddd" stroke-width="1" opacity="1"/><line transform="translate(360,-400)" x2="0" y2="400" stroke="#ddd" stroke-width="1" opacity="1"/><line transform="translate(390,-400)" x2="0" y2="400" stroke="#ddd" stroke-width="1" opacity="1"/><line transform="translate(420,-400)" x2="0" y2="400" stroke="#ddd" stroke-width="1" opacity="1"/><line transform="translate(450,-400)" x2="0" y2="400" stroke="#ddd" stroke-width="1" opacity="1"/><line transform="translate(480,-400)" x2="0" y2="400" stroke="#ddd" stroke-width="1" opacity="1"/><line transform="translate(510,-400)" x2="0" y2="400" stroke="#ddd" stroke-width="1" opacity="1"/><line transform="translate(540,-400)" x2="0" y2="400" stroke="#ddd" stroke-width="1" opacity="1"/><line transform="translate(570,-400)" x2="0" y2="400" stroke="#ddd" stroke-width="1" opacity="1"/><line transform="translate(600,-400)" x2="0" y2="400" stroke="#ddd" stroke-width="1" opacity="1"/></g></g><path class="foreground" aria-hidden="true" d="" pointer-events="none" display="none"/></g></g><g class="mark-group role-axis" aria-hidden="true"><g transform="translate(0.5,0.5)"><path class="background" aria-hidden="true" d="M0,0h0v0h0Z" pointer-events="none"/><g><g class="mark-rule role-axis-grid" pointer-events="none"><line transform="translate(0,400)" x2="600" y2="0" stroke="#ddd" stroke-width="1" opacity="1"/><line transform="translate(0,360)" x2="600" y2="0" stroke="#ddd" stroke-width="1" opacity="1"/><line transform="translate(0,320)" x2="600" y2="0" stroke="#ddd" stroke-width="1" opacity="1"/><line transform="translate(0,280)" x2="600" y2="0" stroke="#ddd" stroke-width="1" opacity="1"/><line transform="translate(0,240)" x2="600" y2="0" stroke="#ddd" stroke-width="1" opacity="1"/><line transform="translate(0,200)" x2="600" y2="0" stroke="#ddd" stroke-width="1" opacity="1"/><line transform="translate(0,160)" x2="600" y2="0" stroke="#ddd" stroke-width="1" opacity="1"/><line transform="translate(0,120)" x2="600" y2="0" stroke="#ddd" stroke-width="1" opacity="1"/><line transform="translate(0,80)" x2="600" y2="0" stroke="#ddd" stroke-width="1" opacity="1"/><line transform="translate(0,40)" x2="600" y2="0" stroke="#ddd" stroke-width="1" opacity="1"/><line transform="translate(0,0)" x2="600" y2="0" stroke="#ddd" stroke-width="1" opacity="1"/></g></g><path class="foreground" aria-hidden="true" d="" pointer-events="none" display="none"/></g></g><g class="mark-group role-axis" role="graphics-symbol" aria-roledescription="axis" aria-label="X-axis titled 'Timestep' for a linear scale with values from 0M to 100M"><g transform="translate(0.5,400.5)"><path class="background" aria-hidden="true" d="M0,0h0v0h0Z" pointer-events="none"/><g><g class="mark-rule role-axis-tick" pointer-events="none"><line transform="translate(0,0)" x2="0" y2="5" stroke="#888" stroke-width="1" opacity="1"/><line transform="translate(30,0)" x2="0" y2="5" stroke="#888" stroke-width="1" opacity="1"/><line transform="translate(60,0)" x2="0" y2="5" stroke="#888" stroke-width="1" opacity="1"/><line transform="translate(90,0)" x2="0" y2="5" stroke="#888" stroke-width="1" opacity="1"/><line transform="translate(120,0)" x2="0" y2="5" stroke="#888" stroke-width="1" opacity="1"/><line transform="translate(150,0)" x2="0" y2="5" stroke="#888" stroke-width="1" opacity="1"/><line transform="translate(180,0)" x2="0" y2="5" stroke="#888" stroke-width="1" opacity="1"/><line transform="translate(210,0)" x2="0" y2="5" stroke="#888" stroke-width="1" opacity="1"/><line transform="translate(240,0)" x2="0" y2="5" stroke="#888" stroke-width="1" opacity="1"/><line transform="translate(270,0)" x2="0" y2="5" stroke="#888" stroke-width="1" opacity="1"/><line transform="translate(300,0)" x2="0" y2="5" stroke="#888" stroke-width="1" opacity="1"/><line transform="translate(330,0)" x2="0" y2="5" stroke="#888" stroke-width="1" opacity="1"/><line transform="translate(360,0)" x2="0" y2="5" stroke="#888" stroke-width="1" opacity="1"/><line transform="translate(390,0)" x2="0" y2="5" stroke="#888" stroke-width="1" opacity="1"/><line transform="translate(420,0)" x2="0" y2="5" stroke="#888" stroke-width="1" opacity="1"/><line transform="translate(450,0)" x2="0" y2="5" stroke="#888" stroke-width="1" opacity="1"/><line transform="translate(480,0)" x2="0" y2="5" stroke="#888" stroke-width="1" opacity="1"/><line transform="translate(510,0)" x2="0" y2="5" stroke="#888" stroke-width="1" opacity="1"/><line transform="translate(540,0)" x2="0" y2="5" stroke="#888" stroke-width="1" opacity="1"/><line transform="translate(570,0)" x2="0" y2="5" stroke="#888" stroke-width="1" opacity="1"/><line transform="translate(600,0)" x2="0" y2="5" stroke="#888" stroke-width="1" opacity="1"/></g><g class="mark-text role-axis-label" pointer-events="none"><text text-anchor="start" transform="translate(0,18)" font-family="Times New Roman" font-size="14px" fill="#000" opacity="1">0</text><text text-anchor="middle" transform="translate(30,18)" font-family="Times New Roman" font-size="14px" fill="#000" opacity="0">5M</text><text text-anchor="middle" transform="translate(60,18)" font-family="Times New Roman" font-size="14px" fill="#000" opacity="1">10M</text><text text-anchor="middle" transform="translate(90,18)" font-family="Times New Roman" font-size="14px" fill="#000" opacity="0">15M</text><text text-anchor="middle" transform="translate(120,18)" font-family="Times New Roman" font-size="14px" fill="#000" opacity="1">20M</text><text text-anchor="middle" transform="translate(150,18)" font-family="Times New Roman" font-size="14px" fill="#000" opacity="0">25M</text><text text-anchor="middle" transform="translate(180,18)" font-family="Times New Roman" font-size="14px" fill="#000" opacity="1">30M</text><text text-anchor="middle" transform="translate(210,18)" font-family="Times New Roman" font-size="14px" fill="#000" opacity="0">35M</text><text text-anchor="middle" transform="translate(240,18)" font-family="Times New Roman" font-size="14px" fill="#000" opacity="1">40M</text><text text-anchor="middle" transform="translate(270,18)" font-family="Times New Roman" font-size="14px" fill="#000" opacity="0">45M</text><text text-anchor="middle" transform="translate(300,18)" font-family="Times New Roman" font-size="14px" fill="#000" opacity="1">50M</text><text text-anchor="middle" transform="translate(330,18)" font-family="Times New Roman" font-size="14px" fill="#000" opacity="0">55M</text><text text-anchor="middle" transform="translate(360,18)" font-family="Times New Roman" font-size="14px" fill="#000" opacity="1">60M</text><text text-anchor="middle" transform="translate(390,18)" font-family="Times New Roman" font-size="14px" fill="#000" opacity="0">65M</text><text text-anchor="middle" transform="translate(420,18)" font-family="Times New Roman" font-size="14px" fill="#000" opacity="1">70M</text><text text-anchor="middle" transform="translate(450,18)" font-family="Times New Roman" font-size="14px" fill="#000" opacity="0">75M</text><text text-anchor="middle" transform="translate(480,18)" font-family="Times New Roman" font-size="14px" fill="#000" opacity="1">80M</text><text text-anchor="middle" transform="translate(510,18)" font-family="Times New Roman" font-size="14px" fill="#000" opacity="0">85M</text><text text-anchor="middle" transform="translate(540,18)" font-family="Times New Roman" font-size="14px" fill="#000" opacity="1">90M</text><text text-anchor="middle" transform="translate(570,18)" font-family="Times New Roman" font-size="14px" fill="#000" opacity="0">95M</text><text text-anchor="end" transform="translate(600,18)" font-family="Times New Roman" font-size="14px" fill="#000" opacity="1">100M</text></g><g class="mark-rule role-axis-domain" pointer-events="none"><line transform="translate(0,0)" x2="600" y2="0" stroke="#888" stroke-width="1" opacity="1"/></g><g class="mark-text role-axis-title" pointer-events="none"><text text-anchor="middle" transform="translate(300,38)" font-family="Times New Roman" font-size="16px" font-weight="bold" fill="#000" opacity="1">Timestep</text></g></g><path class="foreground" aria-hidden="true" d="" pointer-events="none" display="none"/></g></g><g class="mark-group role-axis" role="graphics-symbol" aria-roledescription="axis" aria-label="Y-axis titled 'Dormant neuron ratio (%)' for a linear scale with values from 0 to 50"><g transform="translate(0.5,0.5)"><path class="background" aria-hidden="true" d="M0,0h0v0h0Z" pointer-events="none"/><g><g class="mark-rule role-axis-tick" pointer-events="none"><line transform="translate(0,400)" x2="-5" y2="0" stroke="#888" stroke-width="1" opacity="1"/><line transform="translate(0,360)" x2="-5" y2="0" stroke="#888" stroke-width="1" opacity="1"/><line transform="translate(0,320)" x2="-5" y2="0" stroke="#888" stroke-width="1" opacity="1"/><line transform="translate(0,280)" x2="-5" y2="0" stroke="#888" stroke-width="1" opacity="1"/><line transform="translate(0,240)" x2="-5" y2="0" stroke="#888" stroke-width="1" opacity="1"/><line transform="translate(0,200)" x2="-5" y2="0" stroke="#888" stroke-width="1" opacity="1"/><line transform="translate(0,160)" x2="-5" y2="0" stroke="#888" stroke-width="1" opacity="1"/><line transform="translate(0,120)" x2="-5" y2="0" stroke="#888" stroke-width="1" opacity="1"/><line transform="translate(0,80)" x2="-5" y2="0" stroke="#888" stroke-width="1" opacity="1"/><line transform="translate(0,40)" x2="-5" y2="0" stroke="#888" stroke-width="1" opacity="1"/><line transform="translate(0,0)" x2="-5" y2="0" stroke="#888" stroke-width="1" opacity="1"/></g><g class="mark-text role-axis-label" pointer-events="none"><text text-anchor="end" transform="translate(-7,404)" font-family="Times New Roman" font-size="14px" fill="#000" opacity="1">0</text><text text-anchor="end" transform="translate(-7,364)" font-family="Times New Roman" font-size="14px" fill="#000" opacity="1">5</text><text text-anchor="end" transform="translate(-7,324)" font-family="Times New Roman" font-size="14px" fill="#000" opacity="1">10</text><text text-anchor="end" transform="translate(-7,284)" font-family="Times New Roman" font-size="14px" fill="#000" opacity="1">15</text><text text-anchor="end" transform="translate(-7,244)" font-family="Times New Roman" font-size="14px" fill="#000" opacity="1">20</text><text text-anchor="end" transform="translate(-7,204)" font-family="Times New Roman" font-size="14px" fill="#000" opacity="1">25</text><text text-anchor="end" transform="translate(-7,164)" font-family="Times New Roman" font-size="14px" fill="#000" opacity="1">30</text><text text-anchor="end" transform="translate(-7,124.00000000000001)" font-family="Times New Roman" font-size="14px" fill="#000" opacity="1">35</text><text text-anchor="end" transform="translate(-7,83.99999999999999)" font-family="Times New Roman" font-size="14px" fill="#000" opacity="1">40</text><text text-anchor="end" transform="translate(-7,43.99999999999999)" font-family="Times New Roman" font-size="14px" fill="#000" opacity="1">45</text><text text-anchor="end" transform="translate(-7,4)" font-family="Times New Roman" font-size="14px" fill="#000" opacity="1">50</text></g><g class="mark-rule role-axis-domain" pointer-events="none"><line transform="translate(0,400)" x2="0" y2="-400" stroke="#888" stroke-width="1" opacity="1"/></g><g class="mark-text role-axis-title" pointer-events="none"><text text-anchor="middle" transform="translate(-25,200) rotate(-90) translate(0,-3)" font-family="Times New Roman" font-size="16px" font-weight="bold" fill="#000" opacity="1">Dormant neuron ratio (%)</text></g></g><path class="foreground" aria-hidden="true" d="" pointer-events="none" display="none"/></g></g><g class="mark-group role-scope layer_0_layer_0_pathgroup" role="graphics-object" aria-roledescription="group mark container"><g transform="translate(0,0)"><path class="background" aria-hidden="true" d="M0,0h600v400h-600Z"/><g><g class="mark-area role-mark layer_0_layer_0_marks" clip-path="url(#clip1)" role="graphics-object" aria-roledescription="area mark container"><path aria-label="Timestep: 200.38k; Dormant neuron ratio (%): 18.0354006481; upper_Dormant neuron ratio: 19.7656660748; Benchmark: MT10; Ci1 of Dormant neuron ratio: 19.7656660748; Ci0 of Dormant neuron ratio: 18.0354006481; Mean of Dormant neuron ratio: 18.8183597565" role="graphics-symbol" aria-roledescription="errorband" d="M2.405,283.82C2.805,291.342,3.206,296.094,3.607,300.751C4.008,305.409,4.409,309.97,4.809,313.859C5.21,317.748,5.611,320.965,6.012,323.393C6.412,325.821,6.813,327.462,7.214,328.631C7.615,329.801,8.016,330.5,8.416,331.153C8.817,331.806,9.218,332.413,9.619,332.995C10.019,333.578,10.42,334.134,10.821,334.536C11.222,334.937,11.623,335.184,12.023,335.407C12.424,335.63,12.825,335.83,13.226,335.621C13.626,335.413,14.027,334.796,14.428,334.117C14.829,333.438,15.23,332.695,15.63,331.767C16.031,330.838,16.432,329.723,16.833,328.666C17.233,327.609,17.634,326.611,18.035,326.025C18.436,325.439,18.837,325.266,19.237,324.706C19.638,324.146,20.039,323.199,20.44,322.539C20.841,321.88,21.241,321.506,21.642,321.421C22.043,321.336,22.444,321.538,22.844,321.252C23.245,320.965,23.646,320.19,24.047,319.49C24.448,318.789,24.848,318.164,25.249,317.694C25.65,317.223,26.051,316.906,26.451,316.587C26.852,316.268,27.253,315.947,27.654,315.761C28.055,315.574,28.455,315.522,28.856,314.897C29.257,314.272,29.658,313.074,30.058,312.289C30.459,311.503,30.86,311.13,31.261,310.366C31.662,309.603,32.062,308.448,32.463,307.52C32.864,306.591,33.265,305.888,33.665,304.859C34.066,303.831,34.467,302.477,34.868,301.236C35.269,299.994,35.669,298.865,36.07,298.042C36.471,297.219,36.872,296.703,37.272,295.756C37.673,294.81,38.074,293.434,38.475,292.149C38.876,290.864,39.276,289.67,39.677,288.891C40.078,288.113,40.479,287.748,40.88,287.306C41.28,286.863,41.681,286.342,42.082,285.229C42.483,284.116,42.883,282.411,43.284,281.269C43.685,280.128,44.086,279.55,44.487,278.719C44.887,277.888,45.288,276.804,45.689,276.091C46.09,275.377,46.49,275.034,46.891,274.579C47.292,274.123,47.693,273.554,48.094,272.362C48.494,271.17,48.895,269.355,49.296,268.192C49.697,267.03,50.097,266.52,50.498,265.661C50.899,264.802,51.3,263.595,51.701,262.518C52.101,261.44,52.502,260.494,52.903,259.171C53.304,257.847,53.704,256.148,54.105,255.087C54.506,254.026,54.907,253.604,55.308,253.264C55.708,252.924,56.109,252.667,56.51,252.031C56.911,251.394,57.311,250.379,57.712,249.674C58.113,248.969,58.514,248.575,58.915,247.551C59.315,246.527,59.716,244.874,60.117,243.435C60.518,241.995,60.919,240.771,61.319,239.722C61.72,238.674,62.121,237.802,62.522,236.798C62.922,235.794,63.323,234.658,63.724,233.868C64.125,233.078,64.526,232.634,64.926,231.835C65.327,231.036,65.728,229.882,66.129,229.031C66.529,228.18,66.93,227.632,67.331,227.022C67.732,226.411,68.133,225.738,68.533,224.968C68.934,224.197,69.335,223.329,69.736,222.623C70.136,221.916,70.537,221.371,70.938,220.65C71.339,219.93,71.74,219.034,72.14,217.749C72.541,216.463,72.942,214.788,73.343,213.842C73.743,212.896,74.144,212.679,74.545,211.724C74.946,210.769,75.347,209.076,75.747,208.912C76.148,208.747,76.549,210.111,76.95,210.688C77.35,211.265,77.751,211.056,78.152,210.546C78.553,210.035,78.954,209.224,79.354,208.28C79.755,207.336,80.156,206.259,80.557,205.259C80.958,204.258,81.358,203.335,81.759,202.762C82.16,202.189,82.561,201.967,82.961,201.319C83.362,200.671,83.763,199.596,84.164,198.585C84.565,197.574,84.965,196.626,85.366,195.393C85.767,194.159,86.168,192.64,86.568,191.922C86.969,191.204,87.37,191.287,87.771,191.531C88.172,191.775,88.572,192.18,88.973,192.347C89.374,192.513,89.775,192.442,90.175,191.951C90.576,191.46,90.977,190.549,91.378,189.846C91.779,189.143,92.179,188.648,92.58,188.176C92.981,187.705,93.382,187.257,93.782,186.759C94.183,186.26,94.584,185.71,94.985,184.841C95.386,183.971,95.786,182.782,96.187,181.607C96.588,180.433,96.989,179.273,97.389,178.165C97.79,177.058,98.191,176.003,98.592,175.088C98.993,174.172,99.393,173.395,99.794,172.963C100.195,172.531,100.596,172.444,100.996,171.965C101.397,171.485,101.798,170.613,102.199,169.819C102.6,169.025,103,168.31,103.401,167.635C103.802,166.96,104.203,166.325,104.604,166.486C105.004,166.646,105.405,167.602,105.806,168.586C106.207,169.57,106.607,170.582,107.008,170.605C107.409,170.629,107.81,169.664,108.211,169.551C108.611,169.438,109.012,170.177,109.413,169.556C109.814,168.936,110.214,166.955,110.615,166.089C111.016,165.222,111.417,165.47,111.818,165.176C112.218,164.881,112.619,164.045,113.02,163.528C113.421,163.011,113.821,162.815,114.222,162.998C114.623,163.182,115.024,163.747,115.425,163.712C115.825,163.678,116.226,163.045,116.627,162.227C117.028,161.41,117.428,160.409,117.829,159.738L117.829,136.165C117.428,137.1,117.028,138.224,116.627,138.767C116.226,139.31,115.825,139.271,115.425,139.335C115.024,139.4,114.623,139.569,114.222,139.602C113.821,139.634,113.421,139.53,113.02,139.99C112.619,140.45,112.218,141.474,111.818,142.158C111.417,142.841,111.016,143.184,110.615,143.647C110.214,144.109,109.814,144.691,109.413,145.093C109.012,145.494,108.611,145.716,108.211,145.563C107.81,145.411,107.409,144.884,107.008,145.14C106.607,145.396,106.207,146.435,105.806,146.982C105.405,147.53,105.004,147.588,104.604,147.735C104.203,147.882,103.802,148.118,103.401,149C103,149.883,102.6,151.41,102.199,152.68C101.798,153.95,101.397,154.962,100.997,155.266C100.596,155.571,100.195,155.168,99.794,155.193C99.393,155.217,98.993,155.668,98.592,156.258C98.191,156.848,97.79,157.576,97.389,158.572C96.989,159.568,96.588,160.832,96.187,161.943C95.786,163.054,95.386,164.014,94.985,164.845C94.584,165.676,94.183,166.378,93.782,166.763C93.382,167.147,92.981,167.213,92.58,167.063C92.179,166.914,91.779,166.549,91.378,166.974C90.977,167.399,90.576,168.614,90.175,169.507C89.775,170.401,89.374,170.973,88.973,171.353C88.572,171.733,88.172,171.921,87.771,172.08C87.37,172.239,86.969,172.369,86.568,172.304C86.168,172.239,85.767,171.978,85.366,172.753C84.965,173.527,84.565,175.337,84.164,176.294C83.763,177.252,83.362,177.356,82.961,177.82C82.561,178.285,82.16,179.109,81.759,180.007C81.358,180.905,80.958,181.877,80.557,182.576C80.156,183.275,79.755,183.701,79.354,184.013C78.954,184.325,78.553,184.523,78.152,184.978C77.751,185.434,77.35,186.147,76.95,186.389C76.549,186.631,76.148,186.401,75.747,186.805C75.347,187.209,74.946,188.246,74.545,189.088C74.144,189.93,73.743,190.576,73.343,191.465C72.942,192.354,72.541,193.485,72.14,194.601C71.74,195.716,71.339,196.816,70.938,197.669C70.537,198.523,70.136,199.131,69.736,199.617C69.335,200.104,68.934,200.468,68.533,201.718C68.133,202.968,67.732,205.103,67.331,206.245C66.93,207.386,66.529,207.534,66.129,208.022C65.728,208.51,65.327,209.339,64.926,210.048C64.526,210.757,64.125,211.347,63.724,211.803C63.323,212.259,62.922,212.581,62.522,212.904C62.121,213.227,61.72,213.552,61.319,214.514C60.919,215.475,60.518,217.073,60.117,218.392C59.716,219.712,59.315,220.754,58.915,221.981C58.514,223.207,58.113,224.618,57.712,225.497C57.311,226.375,56.911,226.722,56.51,227.148C56.109,227.573,55.708,228.076,55.308,228.762C54.907,229.447,54.506,230.315,54.105,231.509C53.704,232.702,53.304,234.222,52.903,235.428C52.502,236.634,52.101,237.527,51.701,238.356C51.3,239.184,50.899,239.948,50.498,241.068C50.097,242.189,49.697,243.666,49.296,244.999C48.895,246.332,48.494,247.521,48.094,248.458C47.693,249.396,47.292,250.082,46.891,250.715C46.49,251.349,46.09,251.93,45.689,252.407C45.288,252.883,44.887,253.256,44.487,253.935C44.086,254.615,43.685,255.601,43.284,256.815C42.883,258.029,42.483,259.47,42.082,261.019C41.681,262.569,41.28,264.226,40.88,264.87C40.479,265.515,40.078,265.145,39.677,265.791C39.276,266.438,38.876,268.1,38.475,269.52C38.074,270.94,37.673,272.117,37.272,272.941C36.872,273.765,36.471,274.236,36.07,274.889C35.669,275.542,35.269,276.377,34.868,278.063C34.467,279.749,34.066,282.288,33.665,284.152C33.265,286.016,32.864,287.207,32.463,288.251C32.062,289.296,31.662,290.194,31.261,290.734C30.86,291.274,30.459,291.457,30.058,291.872C29.658,292.286,29.257,292.932,28.856,293.587C28.455,294.242,28.055,294.907,27.654,295.788C27.253,296.669,26.852,297.768,26.451,298.43C26.051,299.092,25.65,299.318,25.249,299.543C24.848,299.769,24.448,299.994,24.047,300.553C23.646,301.113,23.245,302.007,22.844,302.561C22.444,303.114,22.043,303.327,21.642,303.974C21.241,304.621,20.841,305.701,20.44,306.678C20.039,307.655,19.638,308.528,19.237,309.598C18.837,310.668,18.436,311.936,18.035,313.157C17.634,314.378,17.233,315.553,16.833,316.865C16.432,318.177,16.031,319.625,15.63,320.939C15.23,322.252,14.829,323.431,14.428,324.209C14.027,324.986,13.626,325.363,13.226,325.478C12.825,325.593,12.424,325.445,12.023,325.15C11.623,324.855,11.222,324.412,10.821,324.128C10.42,323.843,10.019,323.717,9.619,323.001C9.218,322.285,8.817,320.98,8.416,320.422C8.016,319.865,7.615,320.056,7.214,319.072C6.813,318.089,6.412,315.932,6.012,312.883C5.611,309.834,5.21,305.893,4.809,301.552C4.409,297.212,4.008,292.473,3.607,286.999C3.206,281.525,2.805,275.318,2.405,267.675Z" fill="#FF4B33" opacity="0.3"/></g></g><path class="foreground" aria-hidden="true" d="" display="none"/></g><g transform="translate(0,0)"><path class="background" aria-hidden="true" d="M0,0h600v400h-600Z"/><g><g class="mark-area role-mark layer_0_layer_0_marks" clip-path="url(#clip2)" role="graphics-object" aria-roledescription="area mark container"><path aria-label="Timestep: 1.0019M; Dormant neuron ratio (%): 12.1059166598; upper_Dormant neuron ratio: 13.1789959598; Benchmark: MT50; Ci1 of Dormant neuron ratio: 13.1789959598; Ci0 of Dormant neuron ratio: 12.1059166598; Mean of Dormant neuron ratio: 12.6660159111" role="graphics-symbol" aria-roledescription="errorband" d="M12.023,334.478C14.027,343.322,16.031,349.767,18.035,354.927C20.039,360.087,22.043,363.963,24.047,367.201C26.05,370.439,28.054,373.039,30.058,375.127C32.062,377.215,34.066,378.79,36.07,380.31C38.074,381.829,40.078,383.291,42.082,384.46C44.086,385.63,46.089,386.507,48.093,387.314C50.097,388.121,52.101,388.859,54.105,389.451C56.109,390.044,58.113,390.491,60.117,390.99C62.121,391.489,64.125,392.04,66.128,392.492C68.132,392.943,70.136,393.295,72.14,393.601C74.144,393.907,76.148,394.168,78.152,394.391C80.156,394.614,82.16,394.801,84.164,394.952C86.167,395.104,88.171,395.222,90.175,395.341C92.179,395.46,94.183,395.582,96.187,395.712C98.191,395.842,100.195,395.981,102.199,396.088C104.203,396.194,106.206,396.268,108.21,396.363C110.214,396.459,112.218,396.576,114.222,396.682C116.226,396.788,118.23,396.884,120.234,396.929C122.238,396.975,124.242,396.971,126.245,396.942C128.249,396.914,130.253,396.862,132.257,396.882C134.261,396.901,136.265,396.992,138.269,397.046C140.273,397.101,142.277,397.118,144.281,397.131C146.284,397.144,148.288,397.153,150.292,397.14C152.296,397.127,154.3,397.092,156.304,397.066C158.308,397.04,160.312,397.023,162.316,397.04C164.319,397.058,166.323,397.109,168.327,397.118C170.331,397.127,172.335,397.092,174.339,397.016C176.343,396.94,178.347,396.823,180.351,396.795C182.355,396.767,184.359,396.828,186.362,396.891C188.366,396.954,190.37,397.018,192.374,397.01C194.378,397.001,196.382,396.918,198.386,396.877C200.39,396.836,202.394,396.836,204.398,396.777C206.401,396.719,208.405,396.602,210.409,396.567C212.413,396.532,214.417,396.581,216.421,396.587C218.425,396.594,220.429,396.559,222.433,396.591C224.437,396.623,226.44,396.723,228.444,396.702C230.448,396.68,232.452,396.537,234.456,396.459C236.46,396.381,238.464,396.368,240.468,396.398C242.472,396.428,244.476,396.502,246.479,396.511C248.483,396.519,250.487,396.463,252.491,396.487C254.495,396.511,256.499,396.615,258.503,396.617C260.507,396.619,262.511,396.519,264.515,396.471C266.518,396.424,268.522,396.428,270.526,396.421C272.53,396.415,274.534,396.398,276.538,396.376C278.542,396.354,280.546,396.328,282.55,396.27C284.554,396.211,286.557,396.12,288.561,396.076C290.565,396.033,292.569,396.037,294.573,395.959C296.577,395.881,298.581,395.72,300.585,395.703C302.589,395.686,304.593,395.812,306.596,395.894C308.6,395.977,310.604,396.016,312.608,395.981C314.612,395.947,316.616,395.838,318.62,395.771C320.624,395.704,322.628,395.678,324.632,395.595C326.635,395.513,328.639,395.374,330.643,395.291C332.647,395.209,334.651,395.183,336.655,395.167C338.659,395.152,340.663,395.148,342.667,395.035C344.671,394.922,346.674,394.701,348.678,394.616C350.682,394.531,352.686,394.583,354.69,394.564C356.694,394.544,358.698,394.454,360.702,394.304C362.706,394.154,364.71,393.946,366.713,393.904C368.717,393.863,370.721,393.989,372.725,393.93C374.729,393.872,376.733,393.629,378.737,393.577C380.741,393.525,382.745,393.663,384.749,393.661C386.752,393.659,388.756,393.516,390.76,393.412C392.764,393.308,394.768,393.243,396.772,393.221C398.776,393.199,400.78,393.221,402.784,393.203C404.787,393.186,406.791,393.129,408.795,393.145C410.799,393.16,412.803,393.247,414.807,393.242C416.811,393.238,418.815,393.143,420.819,393.043C422.823,392.943,424.826,392.84,426.83,392.857C428.834,392.874,430.838,393.013,432.842,392.987C434.846,392.961,436.85,392.77,438.854,392.627C440.858,392.484,442.862,392.389,444.865,392.349C446.869,392.31,448.873,392.327,450.877,392.333C452.881,392.34,454.885,392.335,456.889,392.307C458.893,392.279,460.897,392.227,462.901,392.192C464.904,392.157,466.908,392.14,468.912,392.138C470.916,392.136,472.92,392.149,474.924,391.963C476.928,391.776,478.932,391.391,480.936,391.269C482.94,391.147,484.944,391.29,486.947,391.296C488.951,391.302,490.955,391.172,492.959,391.174C494.963,391.177,496.967,391.311,498.971,391.064C500.975,390.816,502.979,390.187,504.983,389.959C506.986,389.731,508.99,389.905,510.994,389.933C512.998,389.961,515.002,389.844,517.006,389.779C519.01,389.714,521.014,389.701,523.018,389.731C525.022,389.762,527.025,389.835,529.029,389.883C531.033,389.931,533.037,389.953,535.041,389.983C537.045,390.013,539.049,390.052,541.053,389.898C543.057,389.744,545.06,389.397,547.064,389.308C549.068,389.22,551.072,389.389,553.076,389.469C555.08,389.549,557.084,389.54,559.088,389.453C561.092,389.367,563.096,389.202,565.099,389.053C567.103,388.903,569.107,388.768,571.111,388.627C573.115,388.485,575.119,388.338,577.123,388.136C579.127,387.934,581.131,387.678,583.135,387.672C585.139,387.665,587.142,387.909,589.146,387.976L589.146,381.748C587.142,381.9,585.139,381.952,583.135,382.081C581.131,382.209,579.127,382.413,577.123,382.553C575.119,382.694,573.115,382.772,571.111,382.808C569.107,382.845,567.103,382.84,565.099,383.045C563.096,383.249,561.092,383.662,559.088,383.916C557.084,384.171,555.08,384.266,553.076,384.292C551.072,384.318,549.068,384.274,547.064,384.287C545.06,384.301,543.057,384.37,541.053,384.566C539.049,384.761,537.045,385.082,535.041,385.16C533.037,385.238,531.033,385.073,529.029,383.769C527.025,382.464,525.022,380.02,523.018,379.842C521.014,379.665,519.01,381.753,517.006,383.096C515.002,384.44,512.998,385.039,510.994,385.002C508.99,384.965,506.986,384.292,504.983,383.951C502.979,383.611,500.975,383.602,498.971,384.003C496.967,384.405,494.963,385.217,492.959,385.768C490.955,386.319,488.951,386.61,486.947,386.295C484.944,385.981,482.94,385.06,480.936,385.065C478.932,385.069,476.928,385.998,474.924,386.623C472.92,387.248,470.916,387.569,468.912,387.767C466.908,387.964,464.904,388.038,462.901,388.022C460.897,388.007,458.893,387.903,456.889,387.829C454.885,387.756,452.881,387.712,450.877,387.56C448.873,387.408,446.869,387.147,444.865,387.384C442.862,387.621,440.858,388.354,438.854,388.721C436.85,389.088,434.846,389.088,432.842,388.78C430.838,388.472,428.834,387.856,426.83,387.89C424.826,387.925,422.823,388.611,420.819,388.95C418.815,389.288,416.811,389.279,414.807,389.379C412.803,389.479,410.799,389.687,408.795,389.798C406.791,389.909,404.787,389.922,402.784,389.943C400.78,389.965,398.776,389.995,396.772,390.008C394.768,390.021,392.764,390.017,390.76,390.115C388.756,390.213,386.752,390.412,384.749,390.406C382.745,390.399,380.741,390.186,378.737,390.173C376.733,390.16,374.729,390.347,372.725,390.367C370.721,390.386,368.717,390.239,366.713,390.284C364.71,390.33,362.706,390.568,360.702,390.753C358.698,390.937,356.694,391.067,354.69,391.076C352.686,391.084,350.682,390.971,348.678,391.012C346.674,391.053,344.671,391.249,342.667,391.399C340.663,391.548,338.659,391.652,336.655,391.676C334.651,391.7,332.647,391.644,330.643,391.685C328.639,391.727,326.635,391.866,324.632,391.976C322.628,392.087,320.624,392.169,318.62,392.163C316.616,392.156,314.612,392.061,312.608,392.022C310.604,391.983,308.6,392.001,306.596,391.986C304.593,391.97,302.589,391.923,300.585,392.051C298.581,392.179,296.577,392.482,294.573,392.684C292.569,392.886,290.565,392.986,288.561,393.001C286.557,393.016,284.554,392.947,282.55,393.02C280.546,393.094,278.542,393.311,276.538,393.296C274.534,393.28,272.53,393.033,270.526,393.018C268.522,393.003,266.518,393.22,264.515,393.303C262.511,393.385,260.507,393.333,258.503,393.261C256.499,393.19,254.495,393.099,252.491,393.14C250.487,393.181,248.483,393.355,246.479,390.998C244.476,388.641,242.472,383.754,240.468,383.769C238.464,383.785,236.46,388.702,234.456,391.233C232.452,393.763,230.448,393.906,228.444,393.895C226.44,393.884,224.437,393.719,222.433,393.667C220.429,393.615,218.425,393.676,216.421,393.711C214.417,393.745,212.413,393.754,210.409,393.832C208.405,393.911,206.401,394.058,204.398,394.158C202.394,394.258,200.39,394.309,198.386,394.446C196.382,394.583,194.378,394.804,192.374,390.12C190.37,385.437,188.366,375.848,186.362,375.798C184.359,375.748,182.355,385.237,180.351,390.014C178.347,394.791,176.343,394.856,174.339,394.902C172.335,394.948,170.331,394.974,168.327,394.863C166.323,394.753,164.319,394.505,162.316,394.436C160.312,394.366,158.308,394.474,156.304,394.463C154.3,394.452,152.296,394.322,150.292,394.201C148.288,394.079,146.284,393.966,144.281,393.829C142.277,393.692,140.273,393.532,138.269,393.439C136.265,393.345,134.261,393.319,132.257,393.217C130.253,393.115,128.249,392.938,126.245,392.818C124.242,392.699,122.238,392.638,120.234,392.44C118.23,392.242,116.226,391.908,114.222,391.728C112.218,391.549,110.214,391.523,108.21,391.751C106.206,391.979,104.203,392.461,102.199,392.382C100.195,392.304,98.191,391.665,96.187,391.31C94.183,390.954,92.179,390.88,90.175,390.789C88.171,390.698,86.167,390.59,84.164,390.412C82.16,390.234,80.156,389.987,78.152,389.661C76.148,389.335,74.144,388.931,72.14,388.597C70.136,388.263,68.132,387.999,66.128,387.567C64.125,387.135,62.121,386.536,60.117,386.009C58.113,385.481,56.109,385.025,54.105,384.387C52.101,383.749,50.097,382.929,48.093,381.994C46.089,381.059,44.086,380.008,42.082,378.845C40.078,377.682,38.074,376.406,36.07,374.83C34.066,373.255,32.062,371.38,30.058,368.973C28.054,366.566,26.05,363.628,24.047,359.991C22.043,356.354,20.039,352.018,18.035,346.517C16.031,341.015,14.027,334.348,12.023,325.496Z" fill="#3D494C" opacity="0.3"/></g></g><path class="foreground" aria-hidden="true" d="" display="none"/></g><g transform="translate(0,0)"><path class="background" aria-hidden="true" d="M0,0h600v400h-600Z"/><g><g class="mark-area role-mark layer_0_layer_0_marks" clip-path="url(#clip3)" role="graphics-object" aria-roledescription="area mark container"><path aria-label="Timestep: 1.00195M; Dormant neuron ratio (%): 10.400390625; upper_Dormant neuron ratio: 11.7024745941; Benchmark: MT25; Ci1 of Dormant neuron ratio: 11.7024745941; Ci0 of Dormant neuron ratio: 10.400390625; Mean of Dormant neuron ratio: 11.0839846929" role="graphics-symbol" aria-roledescription="errorband" d="M12.024,349.653C14.027,357.856,16.031,361.936,18.035,365.951C20.039,369.965,22.043,373.915,24.047,376.259C26.051,378.602,28.055,379.34,30.059,379.818C32.063,380.295,34.067,380.512,36.071,380.599C38.075,380.686,40.079,380.642,42.083,380.621C44.087,380.599,46.091,380.599,48.095,380.599C50.099,380.599,52.103,380.599,54.107,380.317C56.11,380.035,58.114,379.47,60.118,378.472C62.122,377.474,64.126,376.042,66.13,375.239C68.134,374.436,70.138,374.262,72.142,374.631C74.146,375,76.15,375.911,78.154,376.671C80.158,377.431,82.162,378.038,84.166,378.168C86.17,378.299,88.174,377.951,90.178,378.038C92.182,378.125,94.186,378.646,96.189,378.32C98.193,377.995,100.197,376.823,102.201,376.78C104.205,376.736,106.209,377.821,108.213,378.689C110.217,379.557,112.221,380.208,114.225,379.34C116.229,378.472,118.233,376.085,120.237,373.503C122.241,370.92,124.245,368.142,126.249,367.274C128.253,366.406,130.257,367.448,132.261,366.45C134.265,365.451,136.268,362.413,138.272,360.525C140.276,358.637,142.28,357.899,144.284,357.183C146.288,356.467,148.292,355.773,150.296,355.404C152.3,355.035,154.304,354.991,156.308,355.208C158.312,355.425,160.316,355.903,162.32,355.447C164.324,354.991,166.328,353.602,168.332,352.127C170.336,350.651,172.34,349.089,174.344,349.132C176.347,349.175,178.351,350.825,180.355,351.845C182.359,352.865,184.363,353.255,186.367,351.845C188.371,350.434,190.375,347.222,192.379,346.463C194.383,345.703,196.387,347.396,198.391,345.942C200.395,344.488,202.399,339.887,204.403,337.999C206.407,336.111,208.411,336.936,210.415,338.737C212.419,340.538,214.423,343.316,216.426,345.66C218.43,348.003,220.434,349.913,222.438,350.326C224.442,350.738,226.446,349.653,228.45,348.351C230.454,347.049,232.458,345.53,234.462,343.815C236.466,342.101,238.47,340.191,240.474,339.106C242.478,338.021,244.482,337.76,246.486,335.699C248.49,333.637,250.494,329.774,252.498,329.687C254.502,329.601,256.505,333.29,258.509,333.963C260.513,334.635,262.517,332.292,264.521,331.619C266.525,330.946,268.529,331.944,270.533,330.534C272.537,329.123,274.541,325.304,276.545,323.286C278.549,321.267,280.553,321.05,282.557,322.179C284.561,323.307,286.565,325.781,288.569,327.018L288.569,306.25C286.565,307.378,284.561,311.372,282.557,313.607C280.553,315.842,278.549,316.319,276.545,315.039C274.541,313.759,272.537,310.72,270.533,305.469C268.529,300.217,266.525,292.752,264.521,287.023C262.517,281.293,260.513,277.3,258.509,281.098C256.505,284.896,254.502,296.484,252.498,298.481C250.494,300.477,248.49,292.882,246.486,288.911C244.482,284.939,242.478,284.592,240.474,285.872C238.47,287.153,236.466,290.061,234.462,292.925C232.458,295.79,230.454,298.611,228.45,303.754C226.446,308.898,224.442,316.363,222.438,320.573C220.434,324.783,218.43,325.738,216.426,325.89C214.423,326.042,212.419,325.391,210.415,323.199C208.411,321.007,206.407,317.274,204.403,319.293C202.399,321.311,200.395,329.08,198.391,332.4C196.387,335.72,194.383,334.592,192.379,331.532C190.375,328.472,188.371,323.481,186.367,308.051C184.363,292.622,182.359,266.753,180.355,256.901C178.351,247.049,176.347,253.212,174.344,241.949C172.34,230.686,170.336,201.997,168.332,192.491C166.328,182.986,164.324,192.665,162.32,215.148C160.316,237.63,158.312,272.917,156.308,293.012C154.304,313.108,152.3,318.012,150.296,308.051C148.292,298.09,146.288,273.264,144.284,271.593C142.28,269.922,140.276,291.406,138.272,306.315C136.268,321.224,134.265,329.557,132.261,328.819C130.257,328.082,128.253,318.273,126.249,319.835C124.245,321.398,122.241,334.332,120.237,342.708C118.233,351.085,116.229,354.905,114.225,356.076C112.221,357.248,110.217,355.773,108.213,355.686C106.209,355.599,104.205,356.901,102.201,357.422C100.197,357.943,98.193,357.682,96.189,358.181C94.186,358.681,92.182,359.939,90.178,361.263C88.174,362.587,86.17,363.976,84.166,364.54C82.162,365.104,80.158,364.844,78.154,364.996C76.15,365.148,74.146,365.712,72.142,366.037C70.138,366.363,68.134,366.45,66.13,366.536C64.126,366.623,62.122,366.71,60.118,367.318C58.114,367.925,56.11,369.054,54.107,369.336C52.103,369.618,50.099,369.054,48.095,368.685C46.091,368.316,44.087,368.142,42.083,368.164C40.079,368.186,38.075,368.403,36.071,367.773C34.067,367.144,32.063,365.668,30.059,364.757C28.055,363.845,26.051,363.498,24.047,362.24C22.043,360.981,20.039,358.811,18.035,355.404C16.031,351.997,14.027,347.352,12.024,338.976Z" fill="#7A1F18" opacity="0.3"/></g></g><path class="foreground" aria-hidden="true" d="" display="none"/></g></g><g class="mark-group role-scope layer_1_pathgroup" role="graphics-object" aria-roledescription="group mark container"><g transform="translate(0,0)"><path class="background" aria-hidden="true" d="M0,0h600v400h-600Z"/><g><g class="mark-line role-mark layer_1_marks" clip-path="url(#clip4)" role="graphics-object" aria-roledescription="line mark container"><path aria-label="Timestep: 200.38k; Dormant neuron ratio (%): 18.8183597565; Benchmark: MT10" role="graphics-symbol" aria-roledescription="line mark" d="M2.405,275.935C2.805,283.424,3.206,288.906,3.607,293.917C4.008,298.928,4.409,303.468,4.809,307.587C5.21,311.706,5.611,315.404,6.012,318.184C6.412,320.964,6.813,322.826,7.214,324.052C7.615,325.278,8.016,325.868,8.416,326.586C8.817,327.305,9.218,328.151,9.619,328.711C10.019,329.271,10.42,329.544,10.821,329.768C11.222,329.991,11.623,330.165,12.023,330.339C12.424,330.512,12.825,330.686,13.226,330.538C13.626,330.391,14.027,329.922,14.428,329.219C14.829,328.516,15.23,327.578,15.63,326.493C16.031,325.408,16.432,324.175,16.833,323.049C17.233,321.923,17.634,320.903,18.035,319.998C18.436,319.093,18.837,318.303,19.237,317.539C19.638,316.775,20.039,316.037,20.44,315.286C20.841,314.536,21.241,313.772,21.642,313.429C22.043,313.086,22.444,313.164,22.844,312.756C23.245,312.348,23.646,311.454,24.047,310.72C24.448,309.987,24.848,309.414,25.249,309.026C25.65,308.637,26.051,308.433,26.451,307.925C26.852,307.418,27.253,306.606,27.654,306.072C28.055,305.538,28.455,305.282,28.856,304.8C29.257,304.319,29.658,303.611,30.058,302.984C30.459,302.357,30.86,301.81,31.261,301.098C31.662,300.386,32.062,299.51,32.463,298.357C32.864,297.205,33.265,295.777,33.665,294.286C34.066,292.795,34.467,291.241,34.868,289.933C35.269,288.624,35.669,287.561,36.07,286.595C36.471,285.629,36.872,284.761,37.272,283.783C37.673,282.804,38.074,281.714,38.475,280.642C38.876,279.57,39.276,278.516,39.677,277.83C40.078,277.144,40.479,276.827,40.88,276.118C41.28,275.408,41.681,274.306,42.082,273.006C42.483,271.706,42.883,270.208,43.284,269.058C43.685,267.908,44.086,267.105,44.487,266.374C44.887,265.642,45.288,264.983,45.689,264.312C46.09,263.641,46.49,262.96,46.891,262.376C47.292,261.793,47.693,261.306,48.094,260.347C48.494,259.388,48.895,257.956,49.296,256.684C49.697,255.412,50.097,254.301,50.498,253.303C50.899,252.305,51.3,251.419,51.701,250.508C52.101,249.596,52.502,248.659,52.903,247.407C53.304,246.155,53.704,244.588,54.105,243.498C54.506,242.409,54.907,241.797,55.308,241.246C55.708,240.694,56.109,240.204,56.51,239.64C56.911,239.076,57.311,238.437,57.712,237.611C58.113,236.784,58.514,235.768,58.915,234.657C59.315,233.546,59.716,232.339,60.117,230.957C60.518,229.575,60.919,228.016,61.319,227.101C61.72,226.185,62.121,225.911,62.522,225.284C62.922,224.657,63.323,223.676,63.724,222.869C64.125,222.062,64.526,221.428,64.926,220.647C65.327,219.865,65.728,218.937,66.129,218.362C66.529,217.786,66.93,217.565,67.331,216.78C67.732,215.994,68.133,214.644,68.533,213.626C68.934,212.609,69.335,211.923,69.736,211.263C70.136,210.603,70.537,209.97,70.938,209.188C71.339,208.407,71.74,207.478,72.14,206.302C72.541,205.126,72.942,203.702,73.343,202.843C73.743,201.984,74.144,201.688,74.545,200.788C74.946,199.887,75.347,198.381,75.747,197.958C76.148,197.535,76.549,198.194,76.95,198.327C77.35,198.459,77.751,198.064,78.152,197.5C78.553,196.936,78.954,196.202,79.354,195.523C79.755,194.844,80.156,194.219,80.557,193.461C80.958,192.704,81.358,191.814,81.759,191.126C82.16,190.438,82.561,189.952,82.961,189.434C83.362,188.915,83.763,188.364,84.164,187.48C84.565,186.597,84.965,185.382,85.366,184.403C85.767,183.424,86.168,182.682,86.568,182.316C86.969,181.949,87.37,181.957,87.771,181.938C88.172,181.918,88.572,181.871,88.973,181.643C89.374,181.415,89.775,181.007,90.175,180.321C90.576,179.635,90.977,178.672,91.378,178.22C91.779,177.769,92.179,177.83,92.58,177.695C92.981,177.561,93.382,177.231,93.782,176.678C94.183,176.124,94.584,175.347,94.985,174.531C95.386,173.715,95.786,172.86,96.187,171.842C96.588,170.825,96.989,169.644,97.389,168.652C97.79,167.661,98.191,166.858,98.592,166.059C98.993,165.26,99.393,164.466,99.794,164.199C100.195,163.932,100.596,164.193,100.996,163.806C101.397,163.42,101.798,162.387,102.199,161.424C102.6,160.46,103,159.566,103.401,158.859C103.802,158.151,104.203,157.63,104.604,157.465C105.004,157.3,105.405,157.491,105.806,157.431C106.207,157.37,106.607,157.057,107.008,156.895C107.409,156.732,107.81,156.719,108.211,156.775C108.611,156.832,109.012,156.957,109.413,156.504C109.814,156.05,110.214,155.017,110.615,154.444C111.016,153.872,111.417,153.759,111.818,153.294C112.218,152.83,112.619,152.014,113.02,151.595C113.421,151.176,113.821,151.155,114.222,151.089C114.623,151.024,115.024,150.916,115.425,150.755C115.825,150.595,116.226,150.382,116.627,149.789C117.028,149.197,117.428,148.225,117.829,147.563" stroke="#FF4B33" stroke-width="2"/></g></g><path class="foreground" aria-hidden="true" d="" display="none"/></g><g transform="translate(0,0)"><path class="background" aria-hidden="true" d="M0,0h600v400h-600Z"/><g><g class="mark-line role-mark layer_1_marks" clip-path="url(#clip5)" role="graphics-object" aria-roledescription="line mark container"><path aria-label="Timestep: 1.0019M; Dormant neuron ratio (%): 12.6660159111; Benchmark: MT50" role="graphics-symbol" aria-roledescription="line mark" d="M12.023,329.863C14.027,338.746,16.031,345.356,18.035,350.705C20.039,356.055,22.043,360.143,24.047,363.559C26.05,366.975,28.054,369.718,30.058,372.003C32.062,374.288,34.066,376.115,36.07,377.7C38.074,379.284,40.078,380.625,42.082,381.795C44.086,382.964,46.089,383.963,48.093,384.855C50.097,385.747,52.101,386.532,54.105,387.164C56.109,387.795,58.113,388.273,60.117,388.78C62.121,389.288,64.125,389.826,66.128,390.293C68.132,390.76,70.136,391.155,72.14,391.495C74.144,391.836,76.148,392.122,78.152,392.381C80.156,392.639,82.16,392.869,84.164,393.043C86.167,393.216,88.171,393.333,90.175,393.437C92.179,393.542,94.183,393.633,96.187,393.843C98.191,394.054,100.195,394.384,102.199,394.481C104.203,394.579,106.206,394.444,108.21,394.447C110.214,394.449,112.218,394.588,114.222,394.714C116.226,394.839,118.23,394.952,120.234,395.028C122.238,395.104,124.242,395.143,126.245,395.182C128.249,395.221,130.253,395.26,132.257,395.291C134.261,395.321,136.265,395.343,138.269,395.408C140.273,395.473,142.277,395.582,144.281,395.655C146.284,395.729,148.288,395.768,150.292,395.807C152.296,395.846,154.3,395.885,156.304,395.883C158.308,395.881,160.312,395.838,162.316,395.881C164.319,395.924,166.323,396.055,168.327,396.107C170.331,396.159,172.335,396.133,174.339,396.066C176.343,395.998,178.347,395.89,180.351,394.243C182.355,392.595,184.359,389.41,186.362,389.477C188.366,389.544,190.37,392.865,192.374,394.451C194.378,396.037,196.382,395.89,198.386,395.783C200.39,395.677,202.394,395.612,204.398,395.523C206.401,395.434,208.405,395.321,210.409,395.28C212.413,395.239,214.417,395.269,216.421,395.254C218.425,395.239,220.429,395.178,222.433,395.232C224.437,395.286,226.44,395.456,228.444,395.449C230.448,395.443,232.452,395.26,234.456,394.329C236.46,393.398,238.464,391.719,240.468,391.736C242.472,391.753,244.476,393.468,246.479,394.284C248.483,395.1,250.487,395.017,252.491,395.024C254.495,395.03,256.499,395.126,258.503,395.156C260.507,395.187,262.511,395.152,264.515,395.091C266.518,395.03,268.522,394.944,270.526,394.924C272.53,394.905,274.534,394.952,276.538,394.948C278.542,394.944,280.546,394.887,282.55,394.822C284.554,394.757,286.557,394.683,288.561,394.64C290.565,394.596,292.569,394.583,294.573,394.466C296.577,394.349,298.581,394.128,300.585,394.054C302.589,393.98,304.593,394.054,306.596,394.104C308.6,394.154,310.604,394.18,312.608,394.169C314.612,394.158,316.616,394.11,318.62,394.095C320.624,394.08,322.628,394.097,324.632,394.03C326.635,393.963,328.639,393.811,330.643,393.737C332.647,393.663,334.651,393.668,336.655,393.633C338.659,393.598,340.663,393.524,342.667,393.388C344.671,393.251,346.674,393.051,348.678,392.988C350.682,392.925,352.686,392.999,354.69,392.982C356.694,392.964,358.698,392.856,360.702,392.684C362.706,392.513,364.71,392.279,366.713,392.233C368.717,392.187,370.721,392.331,372.725,392.287C374.729,392.244,376.733,392.014,378.737,391.986C380.741,391.957,382.745,392.131,384.749,392.142C386.752,392.153,388.756,392.001,390.76,391.905C392.764,391.81,394.768,391.771,396.772,391.76C398.776,391.749,400.78,391.766,402.784,391.738C404.787,391.71,406.791,391.636,408.795,391.599C410.799,391.562,412.803,391.562,414.807,391.526C416.811,391.489,418.815,391.415,420.819,391.187C422.823,390.959,424.826,390.577,426.83,390.556C428.834,390.534,430.838,390.872,432.842,391.009C434.846,391.146,436.85,391.081,438.854,390.838C440.858,390.595,442.862,390.174,444.865,390.035C446.869,389.896,448.873,390.039,450.877,390.13C452.881,390.221,454.885,390.26,456.889,390.28C458.893,390.299,460.897,390.299,462.901,390.284C464.904,390.269,466.908,390.239,468.912,390.154C470.916,390.069,472.92,389.931,474.924,389.531C476.928,389.132,478.932,388.472,480.936,388.388C482.94,388.303,484.944,388.793,486.947,388.939C488.951,389.084,490.955,388.885,492.959,388.602C494.963,388.32,496.967,387.956,498.971,387.609C500.975,387.261,502.979,386.931,504.983,387.001C506.986,387.07,508.99,387.539,510.994,387.6C512.998,387.661,515.002,387.313,517.006,386.806C519.01,386.298,521.014,385.629,523.018,385.729C525.022,385.829,527.025,386.697,529.029,387.203C531.033,387.708,533.037,387.852,535.041,387.841C537.045,387.83,539.049,387.665,541.053,387.452C543.057,387.24,545.06,386.979,547.064,386.91C549.068,386.84,551.072,386.962,553.076,386.99C555.08,387.018,557.084,386.953,559.088,386.79C561.092,386.628,563.096,386.367,565.099,386.211C567.103,386.055,569.107,386.003,571.111,385.94C573.115,385.877,575.119,385.803,577.123,385.61C579.127,385.417,581.131,385.104,583.135,385.03C585.139,384.957,587.142,385.122,589.146,385.119" stroke="#3D494C" stroke-width="2"/></g></g><path class="foreground" aria-hidden="true" d="" display="none"/></g><g transform="translate(0,0)"><path class="background" aria-hidden="true" d="M0,0h600v400h-600Z"/><g><g class="mark-line role-mark layer_1_marks" clip-path="url(#clip6)" role="graphics-object" aria-roledescription="line mark container"><path aria-label="Timestep: 1.00195M; Dormant neuron ratio (%): 11.0839846929; Benchmark: MT25" role="graphics-symbol" aria-roledescription="line mark" d="M12.024,343.685C14.027,352.141,16.031,357.104,18.035,361.111C20.039,365.119,22.043,368.171,24.047,369.799C26.051,371.427,28.055,371.629,30.059,371.911C32.063,372.193,34.067,372.555,36.071,372.721C38.075,372.888,40.079,372.859,42.083,372.815C44.087,372.772,46.091,372.714,48.095,373.032C50.099,373.351,52.103,374.045,54.107,373.929C56.11,373.814,58.114,372.888,60.118,372.099C62.122,371.311,64.126,370.66,66.13,370.508C68.134,370.356,70.138,370.703,72.142,370.877C74.146,371.05,76.15,371.05,78.154,370.855C80.158,370.66,82.162,370.269,84.166,370.117C86.17,369.965,88.174,370.052,90.178,369.958C92.182,369.864,94.186,369.589,96.189,369.264C98.193,368.938,100.197,368.562,102.201,367.578C104.205,366.594,106.209,365.003,108.213,364.67C110.217,364.337,112.221,365.263,114.225,364.981C116.229,364.699,118.233,363.209,120.237,359.903C122.241,356.597,124.245,351.476,126.249,350.477C128.253,349.479,130.257,352.604,132.261,352.12C134.265,351.635,136.268,347.541,138.272,341.406C140.276,335.272,142.28,327.098,144.284,326.642C146.288,326.186,148.292,333.449,150.296,336.806C152.3,340.162,154.304,339.612,156.308,333.659C158.312,327.705,160.316,316.348,162.32,308.304C164.324,300.26,166.328,295.53,168.332,297.584C170.336,299.638,172.34,308.478,174.344,311.994C176.347,315.509,178.351,313.701,180.355,317.499C182.359,321.296,184.363,330.7,186.367,335.373C188.371,340.046,190.375,339.988,192.379,340.372C194.383,340.755,196.387,341.58,198.391,339.41C200.395,337.24,202.399,332.075,204.403,330.122C206.407,328.168,208.411,329.427,210.415,330.722C212.419,332.017,214.423,333.348,216.426,334.281C218.43,335.214,220.434,335.749,222.438,334.346C224.442,332.943,226.446,329.601,228.45,326.353C230.454,323.105,232.458,319.951,234.462,317.556C236.466,315.162,238.47,313.527,240.474,312.674C242.478,311.82,244.482,311.748,246.486,312.543C248.49,313.339,250.494,315.003,252.498,314.012C254.502,313.021,256.505,309.375,258.509,308.709C260.513,308.044,262.517,310.359,264.521,312.775C266.525,315.191,268.529,317.708,270.533,318.714C272.537,319.719,274.541,319.213,276.545,318.786C278.549,318.359,280.553,318.012,282.557,317.274C284.561,316.536,286.565,315.408,288.569,315.126" stroke="#7A1F18" stroke-width="2"/></g></g><path class="foreground" aria-hidden="true" d="" display="none"/></g></g><g class="mark-group role-legend" role="graphics-symbol" aria-roledescription="legend" aria-label="Symbol legend titled 'Benchmark' for fill color and stroke color with 3 values: MT10, MT25, MT50"><g transform="translate(618,0)"><path class="background" aria-hidden="true" d="M0,0h80v67h-80Z" pointer-events="none"/><g><g class="mark-group role-legend-entry"><g transform="translate(0,21)"><path class="background" aria-hidden="true" d="M0,0h0v0h0Z" pointer-events="none"/><g><g class="mark-group role-scope" role="graphics-object" aria-roledescription="group mark container"><g transform="translate(0,0)"><path class="background" aria-hidden="true" d="M0,0h53v14h-53Z" pointer-events="none" opacity="1"/><g><g class="mark-symbol role-legend-symbol" pointer-events="none"><path transform="translate(7,7)" d="M5,0A5,5,0,1,1,-5,0A5,5,0,1,1,5,0" fill="#FF4B33" stroke="#FF4B33" stroke-width="1.5" opacity="0.3"/></g><g class="mark-text role-legend-label" pointer-events="none"><text text-anchor="start" transform="translate(18,11)" font-family="Times New Roman" font-size="14px" fill="#000" opacity="1">MT10</text></g></g><path class="foreground" aria-hidden="true" d="" pointer-events="none" display="none"/></g><g transform="translate(0,16)"><path class="background" aria-hidden="true" d="M0,0h53v14h-53Z" pointer-events="none" opacity="1"/><g><g class="mark-symbol role-legend-symbol" pointer-events="none"><path transform="translate(7,7)" d="M5,0A5,5,0,1,1,-5,0A5,5,0,1,1,5,0" fill="#7A1F18" stroke="#7A1F18" stroke-width="1.5" opacity="0.3"/></g><g class="mark-text role-legend-label" pointer-events="none"><text text-anchor="start" transform="translate(18,11)" font-family="Times New Roman" font-size="14px" fill="#000" opacity="1">MT25</text></g></g><path class="foreground" aria-hidden="true" d="" pointer-events="none" display="none"/></g><g transform="translate(0,32)"><path class="background" aria-hidden="true" d="M0,0h53v14h-53Z" pointer-events="none" opacity="1"/><g><g class="mark-symbol role-legend-symbol" pointer-events="none"><path transform="translate(7,7)" d="M5,0A5,5,0,1,1,-5,0A5,5,0,1,1,5,0" fill="#3D494C" stroke="#3D494C" stroke-width="1.5" opacity="0.3"/></g><g class="mark-text role-legend-label" pointer-events="none"><text text-anchor="start" transform="translate(18,11)" font-family="Times New Roman" font-size="14px" fill="#000" opacity="1">MT50</text></g></g><path class="foreground" aria-hidden="true" d="" pointer-events="none" display="none"/></g></g></g><path class="foreground" aria-hidden="true" d="" pointer-events="none" display="none"/></g></g><g class="mark-text role-legend-title" pointer-events="none"><text text-anchor="start" transform="translate(0,13)" font-family="Times New Roman" font-size="16px" font-weight="bold" fill="#000" opacity="1">Benchmark</text></g></g><path class="foreground" aria-hidden="true" d="" pointer-events="none" display="none"/></g></g><g class="mark-group role-title"><g transform="translate(300,-31)"><path class="background" aria-hidden="true" d="M0,0h0v0h0Z" pointer-events="none"/><g><g class="mark-text role-title-text" role="graphics-symbol" aria-roledescription="title" aria-label="Title text 'Dormant neuron ratio throughout training across different benchmarks'" pointer-events="none"><text text-anchor="middle" transform="translate(0,16)" font-family="Times New Roman" font-size="20px" font-weight="bold" fill="#000" opacity="1">Dormant neuron ratio throughout training across different benchmarks</text></g></g><path class="foreground" aria-hidden="true" d="" pointer-events="none" display="none"/></g></g></g><path class="foreground" aria-hidden="true" d="" display="none"/></g></g></g><defs><clipPath id="clip1"><rect x="0" y="0" width="600" height="400"/></clipPath><clipPath id="clip2"><rect x="0" y="0" width="600" height="400"/></clipPath><clipPath id="clip3"><rect x="0" y="0" width="600" height="400"/></clipPath><clipPath id="clip4"><rect x="0" y="0" width="600" height="400"/></clipPath><clipPath id="clip5"><rect x="0" y="0" width="600" height="400"/></clipPath><clipPath id="clip6"><rect x="0" y="0" width="600" height="400"/></clipPath></defs></svg>