<svg xmlns="http://www.w3.org/2000/svg" xmlns:xlink="http://www.w3.org/1999/xlink" version="1.1" class="marks" width="658" height="465" viewBox="0 0 658 465"><rect width="658" height="465" fill="white"/><g fill="none" stroke-miterlimit="10" transform="translate(52,13)"><g class="mark-group role-frame root" role="graphics-object" aria-roledescription="group mark container"><g transform="translate(0,0)"><path class="background" aria-hidden="true" d="M0.5,0.5h600v400h-600Z" stroke="#ddd"/><g><g class="mark-group role-axis" aria-hidden="true"><g transform="translate(0.5,400.5)"><path class="background" aria-hidden="true" d="M0,0h0v0h0Z" pointer-events="none"/><g><g class="mark-rule role-axis-grid" pointer-events="none"><line transform="translate(0,-400)" x2="0" y2="400" stroke="#ddd" stroke-width="1" opacity="1"/><line transform="translate(30,-400)" x2="0" y2="400" stroke="#ddd" stroke-width="1" opacity="1"/><line transform="translate(60,-400)" x2="0" y2="400" stroke="#ddd" stroke-width="1" opacity="1"/><line transform="translate(90,-400)" x2="0" y2="400" stroke="#ddd" stroke-width="1" opacity="1"/><line transform="translate(120,-400)" x2="0" y2="400" stroke="#ddd" stroke-width="1" opacity="1"/><line transform="translate(150,-400)" x2="0" y2="400" stroke="#ddd" stroke-width="1" opacity="1"/><line transform="translate(180,-400)" x2="0" y2="400" stroke="#ddd" stroke-width="1" opacity="1"/><line transform="translate(210,-400)" x2="0" y2="400" stroke="#ddd" stroke-width="1" opacity="1"/><line transform="translate(240,-400)" x2="0" y2="400" stroke="#ddd" stroke-width="1" opacity="1"/><line transform="translate(270,-400)" x2="0" y2="400" stroke="#ddd" stroke-width="1" opacity="1"/><line transform="translate(300,-400)" x2="0" y2="400" stroke="#ddd" stroke-width="1" opacity="1"/><line transform="translate(330,-400)" x2="0" y2="400" stroke="#ddd" stroke-width="1" opacity="1"/><line transform="translate(360,-400)" x2="0" y2="400" stroke="#ddd" stroke-width="1" opacity="1"/><line transform="translate(390,-400)" x2="0" y2="400" stroke="#ddd" stroke-width="1" opacity="1"/><line transform="translate(420,-400)" x2="0" y2="400" stroke="#ddd" stroke-width="1" opacity="1"/><line transform="translate(450,-400)" x2="0" y2="400" stroke="#ddd" stroke-width="1" opacity="1"/><line transform="translate(480,-400)" x2="0" y2="400" stroke="#ddd" stroke-width="1" opacity="1"/><line transform="translate(510,-400)" x2="0" y2="400" stroke="#ddd" stroke-width="1" opacity="1"/><line transform="translate(540,-400)" x2="0" y2="400" stroke="#ddd" stroke-width="1" opacity="1"/><line transform="translate(570,-400)" x2="0" y2="400" stroke="#ddd" stroke-width="1" opacity="1"/><line transform="translate(600,-400)" x2="0" y2="400" stroke="#ddd" stroke-width="1" opacity="1"/></g></g><path class="foreground" aria-hidden="true" d="" pointer-events="none" display="none"/></g></g><g class="mark-group role-axis" aria-hidden="true"><g transform="translate(0.5,0.5)"><path class="background" aria-hidden="true" d="M0,0h0v0h0Z" pointer-events="none"/><g><g class="mark-rule role-axis-grid" pointer-events="none"><line transform="translate(0,400)" x2="600" y2="0" stroke="#ddd" stroke-width="1" opacity="1"/><line transform="translate(0,360)" x2="600" y2="0" stroke="#ddd" stroke-width="1" opacity="1"/><line transform="translate(0,320)" x2="600" y2="0" stroke="#ddd" stroke-width="1" opacity="1"/><line transform="translate(0,280)" x2="600" y2="0" stroke="#ddd" stroke-width="1" opacity="1"/><line transform="translate(0,240)" x2="600" y2="0" stroke="#ddd" stroke-width="1" opacity="1"/><line transform="translate(0,200)" x2="600" y2="0" stroke="#ddd" stroke-width="1" opacity="1"/><line transform="translate(0,160)" x2="600" y2="0" stroke="#ddd" stroke-width="1" opacity="1"/><line transform="translate(0,120)" x2="600" y2="0" stroke="#ddd" stroke-width="1" opacity="1"/><line transform="translate(0,80)" x2="600" y2="0" stroke="#ddd" stroke-width="1" opacity="1"/><line transform="translate(0,40)" x2="600" y2="0" stroke="#ddd" stroke-width="1" opacity="1"/><line transform="translate(0,0)" x2="600" y2="0" stroke="#ddd" stroke-width="1" opacity="1"/></g></g><path class="foreground" aria-hidden="true" d="" pointer-events="none" display="none"/></g></g><g class="mark-group role-axis" role="graphics-symbol" aria-roledescription="axis" aria-label="X-axis titled 'Number of environment steps' for a linear scale with values from 0M to 100M"><g transform="translate(0.5,400.5)"><path class="background" aria-hidden="true" d="M0,0h0v0h0Z" pointer-events="none"/><g><g class="mark-rule role-axis-tick" pointer-events="none"><line transform="translate(0,0)" x2="0" y2="5" stroke="#888" stroke-width="1" opacity="1"/><line transform="translate(30,0)" x2="0" y2="5" stroke="#888" stroke-width="1" opacity="1"/><line transform="translate(60,0)" x2="0" y2="5" stroke="#888" stroke-width="1" opacity="1"/><line transform="translate(90,0)" x2="0" y2="5" stroke="#888" stroke-width="1" opacity="1"/><line transform="translate(120,0)" x2="0" y2="5" stroke="#888" stroke-width="1" opacity="1"/><line transform="translate(150,0)" x2="0" y2="5" stroke="#888" stroke-width="1" opacity="1"/><line transform="translate(180,0)" x2="0" y2="5" stroke="#888" stroke-width="1" opacity="1"/><line transform="translate(210,0)" x2="0" y2="5" stroke="#888" stroke-width="1" opacity="1"/><line transform="translate(240,0)" x2="0" y2="5" stroke="#888" stroke-width="1" opacity="1"/><line transform="translate(270,0)" x2="0" y2="5" stroke="#888" stroke-width="1" opacity="1"/><line transform="translate(300,0)" x2="0" y2="5" stroke="#888" stroke-width="1" opacity="1"/><line transform="translate(330,0)" x2="0" y2="5" stroke="#888" stroke-width="1" opacity="1"/><line transform="translate(360,0)" x2="0" y2="5" stroke="#888" stroke-width="1" opacity="1"/><line transform="translate(390,0)" x2="0" y2="5" stroke="#888" stroke-width="1" opacity="1"/><line transform="translate(420,0)" x2="0" y2="5" stroke="#888" stroke-width="1" opacity="1"/><line transform="translate(450,0)" x2="0" y2="5" stroke="#888" stroke-width="1" opacity="1"/><line transform="translate(480,0)" x2="0" y2="5" stroke="#888" stroke-width="1" opacity="1"/><line transform="translate(510,0)" x2="0" y2="5" stroke="#888" stroke-width="1" opacity="1"/><line transform="translate(540,0)" x2="0" y2="5" stroke="#888" stroke-width="1" opacity="1"/><line transform="translate(570,0)" x2="0" y2="5" stroke="#888" stroke-width="1" opacity="1"/><line transform="translate(600,0)" x2="0" y2="5" stroke="#888" stroke-width="1" opacity="1"/></g><g class="mark-text role-axis-label" pointer-events="none"><text text-anchor="start" transform="translate(0,20)" font-family="Times New Roman" font-size="16px" fill="#000" opacity="1">0</text><text text-anchor="middle" transform="translate(30,20)" font-family="Times New Roman" font-size="16px" fill="#000" opacity="0">5M</text><text text-anchor="middle" transform="translate(60,20)" font-family="Times New Roman" font-size="16px" fill="#000" opacity="1">10M</text><text text-anchor="middle" transform="translate(90,20)" font-family="Times New Roman" font-size="16px" fill="#000" opacity="0">15M</text><text text-anchor="middle" transform="translate(120,20)" font-family="Times New Roman" font-size="16px" fill="#000" opacity="1">20M</text><text text-anchor="middle" transform="translate(150,20)" font-family="Times New Roman" font-size="16px" fill="#000" opacity="0">25M</text><text text-anchor="middle" transform="translate(180,20)" font-family="Times New Roman" font-size="16px" fill="#000" opacity="1">30M</text><text text-anchor="middle" transform="translate(210,20)" font-family="Times New Roman" font-size="16px" fill="#000" opacity="0">35M</text><text text-anchor="middle" transform="translate(240,20)" font-family="Times New Roman" font-size="16px" fill="#000" opacity="1">40M</text><text text-anchor="middle" transform="translate(270,20)" font-family="Times New Roman" font-size="16px" fill="#000" opacity="0">45M</text><text text-anchor="middle" transform="translate(300,20)" font-family="Times New Roman" font-size="16px" fill="#000" opacity="1">50M</text><text text-anchor="middle" transform="translate(330,20)" font-family="Times New Roman" font-size="16px" fill="#000" opacity="0">55M</text><text text-anchor="middle" transform="translate(360,20)" font-family="Times New Roman" font-size="16px" fill="#000" opacity="1">60M</text><text text-anchor="middle" transform="translate(390,20)" font-family="Times New Roman" font-size="16px" fill="#000" opacity="0">65M</text><text text-anchor="middle" transform="translate(420,20)" font-family="Times New Roman" font-size="16px" fill="#000" opacity="1">70M</text><text text-anchor="middle" transform="translate(450,20)" font-family="Times New Roman" font-size="16px" fill="#000" opacity="0">75M</text><text text-anchor="middle" transform="translate(480,20)" font-family="Times New Roman" font-size="16px" fill="#000" opacity="1">80M</text><text text-anchor="middle" transform="translate(510,20)" font-family="Times New Roman" font-size="16px" fill="#000" opacity="0">85M</text><text text-anchor="middle" transform="translate(540,20)" font-family="Times New Roman" font-size="16px" fill="#000" opacity="1">90M</text><text text-anchor="middle" transform="translate(570,20)" font-family="Times New Roman" font-size="16px" fill="#000" opacity="0">95M</text><text text-anchor="end" transform="translate(600,20)" font-family="Times New Roman" font-size="16px" fill="#000" opacity="1">100M</text></g><g class="mark-rule role-axis-domain" pointer-events="none"><line transform="translate(0,0)" x2="600" y2="0" stroke="#888" stroke-width="1" opacity="1"/></g><g class="mark-text role-axis-title" pointer-events="none"><text text-anchor="middle" transform="translate(300,43)" font-family="Times New Roman" font-size="20px" font-weight="bold" fill="#000" opacity="1">Number of environment steps</text></g></g><path class="foreground" aria-hidden="true" d="" pointer-events="none" display="none"/></g></g><g class="mark-group role-axis" role="graphics-symbol" aria-roledescription="axis" aria-label="Y-axis titled 'Dormant neuron ratio (%)' for a linear scale with values from 0 to 50"><g transform="translate(0.5,0.5)"><path class="background" aria-hidden="true" d="M0,0h0v0h0Z" pointer-events="none"/><g><g class="mark-rule role-axis-tick" pointer-events="none"><line transform="translate(0,400)" x2="-5" y2="0" stroke="#888" stroke-width="1" opacity="1"/><line transform="translate(0,360)" x2="-5" y2="0" stroke="#888" stroke-width="1" opacity="1"/><line transform="translate(0,320)" x2="-5" y2="0" stroke="#888" stroke-width="1" opacity="1"/><line transform="translate(0,280)" x2="-5" y2="0" stroke="#888" stroke-width="1" opacity="1"/><line transform="translate(0,240)" x2="-5" y2="0" stroke="#888" stroke-width="1" opacity="1"/><line transform="translate(0,200)" x2="-5" y2="0" stroke="#888" stroke-width="1" opacity="1"/><line transform="translate(0,160)" x2="-5" y2="0" stroke="#888" stroke-width="1" opacity="1"/><line transform="translate(0,120)" x2="-5" y2="0" stroke="#888" stroke-width="1" opacity="1"/><line transform="translate(0,80)" x2="-5" y2="0" stroke="#888" stroke-width="1" opacity="1"/><line transform="translate(0,40)" x2="-5" y2="0" stroke="#888" stroke-width="1" opacity="1"/><line transform="translate(0,0)" x2="-5" y2="0" stroke="#888" stroke-width="1" opacity="1"/></g><g class="mark-text role-axis-label" pointer-events="none"><text text-anchor="end" transform="translate(-7,405)" font-family="Times New Roman" font-size="16px" fill="#000" opacity="1">0</text><text text-anchor="end" transform="translate(-7,365)" font-family="Times New Roman" font-size="16px" fill="#000" opacity="1">5</text><text text-anchor="end" transform="translate(-7,325)" font-family="Times New Roman" font-size="16px" fill="#000" opacity="1">10</text><text text-anchor="end" transform="translate(-7,285)" font-family="Times New Roman" font-size="16px" fill="#000" opacity="1">15</text><text text-anchor="end" transform="translate(-7,245)" font-family="Times New Roman" font-size="16px" fill="#000" opacity="1">20</text><text text-anchor="end" transform="translate(-7,205)" font-family="Times New Roman" font-size="16px" fill="#000" opacity="1">25</text><text text-anchor="end" transform="translate(-7,165)" font-family="Times New Roman" font-size="16px" fill="#000" opacity="1">30</text><text text-anchor="end" transform="translate(-7,125.00000000000001)" font-family="Times New Roman" font-size="16px" fill="#000" opacity="1">35</text><text text-anchor="end" transform="translate(-7,84.99999999999999)" font-family="Times New Roman" font-size="16px" fill="#000" opacity="1">40</text><text text-anchor="end" transform="translate(-7,44.99999999999999)" font-family="Times New Roman" font-size="16px" fill="#000" opacity="1">45</text><text text-anchor="end" transform="translate(-7,5)" font-family="Times New Roman" font-size="16px" fill="#000" opacity="1">50</text></g><g class="mark-rule role-axis-domain" pointer-events="none"><line transform="translate(0,400)" x2="0" y2="-400" stroke="#888" stroke-width="1" opacity="1"/></g><g class="mark-text role-axis-title" pointer-events="none"><text text-anchor="middle" transform="translate(-27,200) rotate(-90) translate(0,-4)" font-family="Times New Roman" font-size="20px" font-weight="bold" fill="#000" opacity="1">Dormant neuron ratio (%)</text></g></g><path class="foreground" aria-hidden="true" d="" pointer-events="none" display="none"/></g></g><g class="mark-group role-scope layer_0_layer_0_pathgroup" role="graphics-object" aria-roledescription="group mark container"><g transform="translate(0,0)"><path class="background" aria-hidden="true" d="M0,0h600v400h-600Z"/><g><g class="mark-area role-mark layer_0_layer_0_marks" clip-path="url(#clip1)" role="graphics-object" aria-roledescription="area mark container"><path aria-label="Number of environment steps: 200.38k; Dormant neuron ratio (%): 18.0402427673; upper_Dormant neuron ratio: 19.7200523424; Benchmark: MT10; Ci1 of Dormant neuron ratio: 19.7200523424; Ci0 of Dormant neuron ratio: 18.0402427673; Mean of Dormant neuron ratio: 18.8183597565" role="graphics-symbol" aria-roledescription="errorband" d="M2.405,283.656C2.805,291.112,3.206,295.764,3.607,300.409C4.008,305.053,4.409,309.689,4.809,313.693C5.21,317.697,5.611,321.068,6.012,323.499C6.412,325.929,6.813,327.418,7.214,328.534C7.615,329.649,8.016,330.391,8.416,331.097C8.817,331.802,9.218,332.47,9.619,333.069C10.019,333.668,10.42,334.198,10.821,334.51C11.222,334.823,11.623,334.918,12.023,335.112C12.424,335.305,12.825,335.596,13.226,335.447C13.626,335.297,14.027,334.706,14.428,334.031C14.829,333.355,15.23,332.596,15.63,331.715C16.031,330.834,16.432,329.831,16.833,328.933C17.233,328.035,17.634,327.241,18.035,326.601C18.436,325.962,18.837,325.477,19.237,324.861C19.638,324.245,20.039,323.496,20.44,322.819C20.841,322.141,21.241,321.533,21.642,321.416C22.043,321.299,22.444,321.672,22.844,321.286C23.245,320.9,23.646,319.754,24.047,319.018C24.448,318.283,24.848,317.957,25.249,317.642C25.65,317.328,26.051,317.024,26.451,316.627C26.852,316.23,27.253,315.74,27.654,315.466C28.055,315.192,28.455,315.135,28.856,314.721C29.257,314.306,29.658,313.534,30.058,312.799C30.459,312.063,30.86,311.363,31.261,310.517C31.662,309.67,32.062,308.677,32.463,307.584C32.864,306.49,33.265,305.298,33.665,304.096C34.066,302.894,34.467,301.682,34.868,300.625C35.269,299.568,35.669,298.666,36.07,297.946C36.471,297.225,36.872,296.686,37.272,295.771C37.673,294.857,38.074,293.568,38.475,292.261C38.876,290.955,39.276,289.632,39.677,288.968C40.078,288.304,40.479,288.299,40.88,287.951C41.28,287.602,41.681,286.909,42.082,285.722C42.483,284.536,42.883,282.855,43.284,281.674C43.685,280.492,44.086,279.81,44.487,278.968C44.887,278.126,45.288,277.125,45.689,276.415C46.09,275.706,46.49,275.289,46.891,274.787C47.292,274.285,47.693,273.7,48.094,272.554C48.494,271.408,48.895,269.702,49.296,268.641C49.697,267.579,50.097,267.163,50.498,266.336C50.899,265.51,51.3,264.272,51.701,263.178C52.101,262.084,52.502,261.133,52.903,259.681C53.304,258.229,53.704,256.276,54.105,255.252C54.506,254.227,54.907,254.131,55.308,253.923C55.708,253.715,56.109,253.396,56.51,252.645C56.911,251.894,57.311,250.712,57.712,249.762C58.113,248.813,58.514,248.095,58.915,247.121C59.315,246.147,59.716,244.917,60.117,243.675C60.518,242.434,60.919,241.182,61.319,240.11C61.72,239.038,62.121,238.146,62.522,237.029C62.922,235.912,63.323,234.571,63.724,233.779C64.125,232.987,64.526,232.744,64.926,231.956C65.327,231.168,65.728,229.836,66.129,228.988C66.529,228.139,66.93,227.775,67.331,227.165C67.732,226.556,68.133,225.701,68.533,224.755C68.934,223.809,69.335,222.771,69.736,221.981C70.136,221.191,70.537,220.648,70.938,220.133C71.339,219.619,71.74,219.133,72.14,217.946C72.541,216.759,72.942,214.871,73.343,214.001C73.743,213.131,74.144,213.279,74.545,212.379C74.946,211.478,75.347,209.528,75.747,209.166C76.148,208.804,76.549,210.029,76.95,210.693C77.35,211.357,77.751,211.46,78.152,210.898C78.553,210.336,78.954,209.108,79.354,208.117C79.755,207.125,80.156,206.37,80.557,205.521C80.958,204.672,81.358,203.731,81.759,203.086C82.16,202.441,82.561,202.093,82.961,201.263C83.362,200.432,83.763,199.118,84.164,198.035C84.565,196.952,84.965,196.1,85.366,194.969C85.767,193.837,86.168,192.427,86.568,191.716C86.969,191.004,87.37,190.992,87.771,191.141C88.172,191.291,88.572,191.603,88.973,191.793C89.374,191.984,89.775,192.054,90.175,191.8C90.576,191.547,90.977,190.969,91.378,190.507C91.779,190.045,92.179,189.697,92.58,189.125C92.981,188.553,93.382,187.756,93.782,187.069C94.183,186.381,94.584,185.803,94.985,184.867C95.386,183.931,95.786,182.637,96.187,181.373C96.588,180.11,96.989,178.877,97.389,177.879C97.79,176.881,98.191,176.116,98.592,175.244C98.993,174.372,99.393,173.392,99.794,172.841C100.195,172.289,100.596,172.167,100.996,171.717C101.397,171.267,101.798,170.491,102.199,169.733C102.6,168.976,103,168.238,103.401,167.598C103.802,166.958,104.203,166.415,104.604,166.724C105.004,167.032,105.405,168.191,105.806,168.945C106.207,169.698,106.607,170.046,107.008,170.022C107.409,169.999,107.81,169.604,108.211,169.389C108.611,169.174,109.012,169.138,109.413,168.322C109.814,167.505,110.214,165.908,110.615,165.255C111.016,164.602,111.417,164.893,111.818,164.468C112.218,164.043,112.619,162.902,113.02,162.446C113.421,161.99,113.821,162.219,114.222,162.508C114.623,162.797,115.024,163.145,115.425,163.336C115.825,163.527,116.226,163.562,116.627,162.864C117.028,162.166,117.428,160.735,117.829,159.838L117.829,135.639C117.428,136.452,117.028,137.828,116.627,138.436C116.226,139.043,115.825,138.881,115.425,138.951C115.024,139.02,114.623,139.321,114.222,139.571C113.821,139.821,113.421,140.02,113.02,140.485C112.619,140.949,112.218,141.679,111.818,142.315C111.417,142.951,111.016,143.493,110.615,144.07C110.214,144.647,109.814,145.259,109.413,145.656C109.012,146.053,108.611,146.235,108.211,145.947C107.81,145.659,107.409,144.899,107.008,145.035C106.607,145.17,106.207,146.2,105.806,146.931C105.405,147.662,105.004,148.093,104.604,148.308C104.203,148.522,103.802,148.519,103.401,149.181C103,149.844,102.6,151.171,102.199,152.414C101.798,153.658,101.397,154.816,100.997,155.24C100.596,155.664,100.195,155.354,99.794,155.517C99.393,155.68,98.993,156.316,98.592,156.779C98.191,157.243,97.79,157.533,97.389,158.33C96.989,159.126,96.588,160.429,96.187,161.49C95.786,162.551,95.386,163.372,94.985,164.163C94.584,164.955,94.183,165.718,93.782,166.311C93.382,166.903,92.981,167.324,92.58,167.184C92.179,167.043,91.779,166.34,91.378,166.727C90.977,167.113,90.576,168.589,90.175,169.565C89.775,170.541,89.374,171.018,88.973,171.339C88.572,171.66,88.172,171.825,87.771,172.004C87.37,172.182,86.969,172.373,86.568,172.549C86.168,172.725,85.767,172.885,85.366,173.766C84.965,174.647,84.565,176.249,84.164,176.95C83.763,177.651,83.362,177.451,82.961,177.615C82.561,177.779,82.16,178.308,81.759,179.069C81.358,179.831,80.958,180.826,80.557,181.682C80.156,182.537,79.755,183.253,79.354,183.836C78.954,184.419,78.553,184.87,78.152,185.427C77.751,185.984,77.35,186.647,76.95,186.801C76.549,186.955,76.148,186.6,75.747,187.078C75.347,187.557,74.946,188.868,74.545,189.658C74.144,190.448,73.743,190.718,73.343,191.395C72.942,192.073,72.541,193.158,72.14,194.296C71.74,195.433,71.339,196.622,70.938,197.494C70.537,198.367,70.136,198.923,69.736,199.5C69.335,200.078,68.934,200.677,68.533,201.925C68.133,203.172,67.732,205.069,67.331,206.034C66.93,206.999,66.529,207.033,66.129,207.397C65.728,207.762,65.327,208.457,64.926,209.197C64.526,209.938,64.125,210.724,63.724,211.525C63.323,212.326,62.922,213.142,62.522,213.484C62.121,213.826,61.72,213.695,61.319,214.561C60.919,215.426,60.518,217.289,60.117,218.811C59.716,220.333,59.315,221.513,58.915,222.509C58.514,223.505,58.113,224.317,57.712,224.92C57.311,225.524,56.911,225.919,56.51,226.435C56.109,226.951,55.708,227.587,55.308,228.343C54.907,229.099,54.506,229.976,54.105,231.246C53.704,232.516,53.304,234.18,52.903,235.513C52.502,236.846,52.101,237.849,51.701,238.678C51.3,239.507,50.899,240.161,50.498,241.202C50.097,242.244,49.697,243.674,49.296,244.957C48.895,246.24,48.494,247.376,48.094,248.268C47.693,249.16,47.292,249.807,46.891,250.438C46.49,251.069,46.09,251.684,45.689,252.191C45.288,252.699,44.887,253.099,44.487,253.942C44.086,254.785,43.685,256.071,43.284,257.373C42.883,258.674,42.483,259.992,42.082,261.403C41.681,262.813,41.28,264.316,40.88,265.134C40.479,265.952,40.078,266.085,39.677,266.634C39.276,267.183,38.876,268.148,38.475,269.325C38.074,270.502,37.673,271.891,37.272,272.829C36.872,273.766,36.471,274.252,36.07,275.068C35.669,275.883,35.269,277.029,34.868,278.494C34.467,279.959,34.066,281.742,33.665,283.459C33.265,285.176,32.864,286.825,32.463,288.058C32.062,289.291,31.662,290.108,31.261,290.689C30.86,291.271,30.459,291.617,30.058,292.054C29.658,292.49,29.257,293.016,28.856,293.61C28.455,294.204,28.055,294.866,27.654,295.592C27.253,296.318,26.852,297.108,26.451,297.702C26.051,298.296,25.65,298.695,25.249,299.173C24.848,299.652,24.448,300.21,24.047,300.846C23.646,301.483,23.245,302.197,22.844,302.607C22.444,303.016,22.043,303.12,21.642,303.941C21.241,304.762,20.841,306.3,20.44,307.364C20.039,308.428,19.638,309.018,19.237,309.88C18.837,310.742,18.436,311.875,18.035,313.018C17.634,314.162,17.233,315.316,16.833,316.644C16.432,317.972,16.031,319.474,15.63,320.882C15.23,322.291,14.829,323.606,14.428,324.451C14.027,325.295,13.626,325.668,13.226,325.62C12.825,325.572,12.424,325.102,12.023,324.772C11.623,324.442,11.222,324.252,10.821,324.129C10.42,324.005,10.019,323.949,9.619,323.248C9.218,322.547,8.817,321.202,8.416,320.546C8.016,319.89,7.615,319.924,7.214,318.973C6.813,318.022,6.412,316.088,6.012,313.121C5.611,310.155,5.21,306.156,4.809,301.751C4.409,297.345,4.008,292.533,3.607,287.088C3.206,281.644,2.805,275.568,2.405,267.988Z" fill="#FF4B33" opacity="0.3"/></g></g><path class="foreground" aria-hidden="true" d="" display="none"/></g><g transform="translate(0,0)"><path class="background" aria-hidden="true" d="M0,0h600v400h-600Z"/><g><g class="mark-area role-mark layer_0_layer_0_marks" clip-path="url(#clip2)" role="graphics-object" aria-roledescription="area mark container"><path aria-label="Number of environment steps: 1.0019M; Dormant neuron ratio (%): 12.1514897013; upper_Dormant neuron ratio: 13.1429039025; Benchmark: MT50; Ci1 of Dormant neuron ratio: 13.1429039025; Ci0 of Dormant neuron ratio: 12.1514897013; Mean of Dormant neuron ratio: 12.6660159111" role="graphics-symbol" aria-roledescription="errorband" d="M12.023,334.041C14.027,342.9,16.031,349.419,18.035,354.653C20.039,359.887,22.043,363.837,24.047,367.092C26.05,370.347,28.054,372.908,30.058,375.035C32.062,377.162,34.066,378.854,36.07,380.413C38.074,381.971,40.078,383.394,42.082,384.547C44.086,385.699,46.089,386.58,48.093,387.394C50.097,388.208,52.101,388.955,54.105,389.536C56.109,390.118,58.113,390.534,60.117,391.007C62.121,391.48,64.125,392.01,66.128,392.474C68.132,392.939,70.136,393.338,72.14,393.642C74.144,393.946,76.148,394.154,78.152,394.379C80.156,394.605,82.16,394.848,84.164,394.996C86.167,395.143,88.171,395.195,90.175,395.289C92.179,395.382,94.183,395.517,96.187,395.677C98.191,395.838,100.195,396.024,102.199,396.135C104.203,396.246,106.206,396.28,108.21,396.369C110.214,396.458,112.218,396.602,114.222,396.717C116.226,396.832,118.23,396.918,120.234,396.96C122.238,397.001,124.242,396.997,126.245,396.973C128.249,396.949,130.253,396.906,132.257,396.908C134.261,396.91,136.265,396.958,138.269,397.003C140.273,397.049,142.277,397.092,144.281,397.114C146.284,397.135,148.288,397.135,150.292,397.127C152.296,397.118,154.3,397.101,156.304,397.097C158.308,397.092,160.312,397.101,162.316,397.114C164.319,397.127,166.323,397.144,168.327,397.133C170.331,397.123,172.335,397.084,174.339,397.014C176.343,396.945,178.347,396.845,180.351,396.799C182.355,396.754,184.359,396.762,186.362,396.823C188.366,396.884,190.37,396.997,192.374,397.007C194.378,397.018,196.382,396.927,198.386,396.873C200.39,396.819,202.394,396.801,204.398,396.745C206.401,396.688,208.405,396.593,210.409,396.571C212.413,396.55,214.417,396.602,216.421,396.606C218.425,396.61,220.429,396.567,222.433,396.593C224.437,396.619,226.44,396.715,228.444,396.676C230.448,396.637,232.452,396.463,234.456,396.398C236.46,396.333,238.464,396.376,240.468,396.424C242.472,396.472,244.476,396.524,246.479,396.519C248.483,396.515,250.487,396.454,252.491,396.487C254.495,396.519,256.499,396.645,258.503,396.663C260.507,396.68,262.511,396.589,264.515,396.524C266.518,396.458,268.522,396.419,270.526,396.398C272.53,396.376,274.534,396.372,276.538,396.357C278.542,396.341,280.546,396.315,282.55,396.25C284.554,396.185,286.557,396.081,288.561,396.042C290.565,396.003,292.569,396.029,294.573,395.964C296.577,395.899,298.581,395.743,300.585,395.728C302.589,395.712,304.593,395.838,306.596,395.907C308.6,395.977,310.604,395.99,312.608,395.942C314.612,395.894,316.616,395.786,318.62,395.727C320.624,395.669,322.628,395.66,324.632,395.599C326.635,395.538,328.639,395.425,330.643,395.332C332.647,395.239,334.651,395.165,336.655,395.159C338.659,395.152,340.663,395.213,342.667,395.132C344.671,395.052,346.674,394.831,348.678,394.718C350.682,394.605,352.686,394.601,354.69,394.562C356.694,394.523,358.698,394.449,360.702,394.275C362.706,394.102,364.71,393.829,366.713,393.777C368.717,393.724,370.721,393.893,372.725,393.878C374.729,393.863,376.733,393.663,378.737,393.602C380.741,393.542,382.745,393.62,384.749,393.59C386.752,393.559,388.756,393.42,390.76,393.325C392.764,393.229,394.768,393.177,396.772,393.168C398.776,393.16,400.78,393.194,402.784,393.166C404.787,393.138,406.791,393.047,408.795,393.071C410.799,393.095,412.803,393.234,414.807,393.243C416.811,393.251,418.815,393.13,420.819,393.069C422.823,393.008,424.826,393.008,426.83,393.006C428.834,393.004,430.838,393,432.842,392.926C434.846,392.852,436.85,392.709,438.854,392.585C440.858,392.461,442.862,392.357,444.865,392.348C446.869,392.34,448.873,392.426,450.877,392.435C452.881,392.444,454.885,392.374,456.889,392.307C458.893,392.24,460.897,392.175,462.901,392.151C464.904,392.127,466.908,392.144,468.912,392.116C470.916,392.088,472.92,392.014,474.924,391.812C476.928,391.611,478.932,391.281,480.936,391.196C482.94,391.112,484.944,391.272,486.947,391.305C488.951,391.337,490.955,391.241,492.959,391.15C494.963,391.059,496.967,390.972,498.971,390.727C500.975,390.482,502.979,390.078,504.983,389.94C506.986,389.801,508.99,389.927,510.994,389.933C512.998,389.94,515.002,389.828,517.006,389.778C519.01,389.728,521.014,389.74,523.018,389.786C525.022,389.831,527.025,389.909,529.029,389.957C531.033,390.005,533.037,390.022,535.041,390.052C537.045,390.083,539.049,390.126,541.053,389.948C543.057,389.771,545.06,389.371,547.064,389.271C549.068,389.171,551.072,389.371,553.076,389.467C555.08,389.562,557.084,389.554,559.088,389.478C561.092,389.402,563.096,389.258,565.099,389.128C567.103,388.998,569.107,388.881,571.111,388.763C573.115,388.646,575.119,388.529,577.123,388.279C579.127,388.03,581.131,387.648,583.135,387.644C585.139,387.639,587.142,388.013,589.146,388.104L589.146,381.977C587.142,382.135,585.139,382.122,583.135,382.167C581.131,382.213,579.127,382.317,577.123,382.441C575.119,382.565,573.115,382.708,571.111,382.73C569.107,382.752,567.103,382.652,565.099,382.834C563.096,383.016,561.092,383.481,559.088,383.769C557.084,384.058,555.08,384.17,553.076,384.194C551.072,384.218,549.068,384.153,547.064,384.158C545.06,384.162,543.057,384.236,541.053,384.516C539.049,384.796,537.045,385.281,535.041,385.364C533.037,385.446,531.033,385.125,529.029,383.914C527.025,382.704,525.022,380.603,523.018,380.444C521.014,380.286,519.01,382.069,517.006,383.252C515.002,384.435,512.998,385.017,510.994,384.9C508.99,384.783,506.986,383.967,504.983,383.572C502.979,383.177,500.975,383.203,498.971,383.676C496.967,384.149,494.963,385.069,492.959,385.635C490.955,386.202,488.951,386.415,486.947,386.104C484.944,385.794,482.94,384.961,480.936,385.074C478.932,385.186,476.928,386.246,474.924,386.834C472.92,387.422,470.916,387.539,468.912,387.63C466.908,387.721,464.904,387.786,462.901,387.814C460.897,387.841,458.893,387.833,456.889,387.789C454.885,387.746,452.881,387.668,450.877,387.514C448.873,387.36,446.869,387.13,444.865,387.343C442.862,387.556,440.858,388.211,438.854,388.545C436.85,388.879,434.846,388.893,432.842,388.624C430.838,388.355,428.834,387.803,426.83,387.871C424.826,387.938,422.823,388.623,420.819,388.977C418.815,389.331,416.811,389.353,414.807,389.435C412.803,389.518,410.799,389.661,408.795,389.763C406.791,389.865,404.787,389.926,402.784,389.986C400.78,390.047,398.776,390.108,396.772,390.147C394.768,390.186,392.764,390.204,390.76,390.277C388.756,390.351,386.752,390.481,384.749,390.47C382.745,390.459,380.741,390.308,378.737,390.297C376.733,390.286,374.729,390.416,372.725,390.446C370.721,390.477,368.717,390.407,366.713,390.464C364.71,390.52,362.706,390.703,360.702,390.883C358.698,391.063,356.694,391.241,354.69,391.27C352.686,391.298,350.682,391.176,348.678,391.131C346.674,391.085,344.671,391.115,342.667,391.261C340.663,391.406,338.659,391.667,336.655,391.727C334.651,391.788,332.647,391.648,330.643,391.685C328.639,391.722,326.635,391.934,324.632,392.019C322.628,392.104,320.624,392.061,318.62,392.011C316.616,391.961,314.612,391.905,312.608,391.879C310.604,391.853,308.6,391.857,306.596,391.889C304.593,391.922,302.589,391.982,300.585,392.113C298.581,392.243,296.577,392.443,294.573,392.602C292.569,392.76,290.565,392.877,288.561,392.912C286.557,392.947,284.554,392.899,282.55,392.971C280.546,393.042,278.542,393.233,276.538,393.209C274.534,393.185,272.53,392.946,270.526,392.948C268.522,392.95,266.518,393.194,264.515,393.324C262.511,393.454,260.507,393.471,258.503,393.428C256.499,393.384,254.495,393.279,252.491,393.273C250.487,393.267,248.483,393.358,246.479,390.95C244.476,388.541,242.472,383.632,240.468,383.661C238.464,383.689,236.46,388.654,234.456,391.208C232.452,393.763,230.448,393.906,228.444,393.876C226.44,393.845,224.437,393.641,222.433,393.622C220.429,393.602,218.425,393.767,216.421,393.822C214.417,393.876,212.413,393.819,210.409,393.858C208.405,393.897,206.401,394.032,204.398,394.164C202.394,394.297,200.39,394.427,198.386,394.59C196.382,394.752,194.378,394.948,192.374,390.206C190.37,385.464,188.366,375.785,186.362,375.7C184.359,375.615,182.355,385.125,180.351,389.917C178.347,394.709,176.343,394.783,174.339,394.826C172.335,394.869,170.331,394.882,168.327,394.759C166.323,394.635,164.319,394.375,162.316,394.295C160.312,394.214,158.308,394.314,156.304,394.331C154.3,394.349,152.296,394.284,150.292,394.221C148.288,394.157,146.284,394.096,144.281,393.97C142.277,393.844,140.273,393.654,138.269,393.539C136.265,393.424,134.261,393.385,132.257,393.27C130.253,393.155,128.249,392.964,126.245,392.825C124.242,392.686,122.238,392.599,120.234,392.458C118.23,392.317,116.226,392.122,114.222,391.94C112.218,391.758,110.214,391.588,108.21,391.732C106.206,391.875,104.203,392.331,102.199,392.25C100.195,392.17,98.191,391.554,96.187,391.226C94.183,390.898,92.179,390.858,90.175,390.795C88.171,390.732,86.167,390.645,84.164,390.458C82.16,390.272,80.156,389.986,78.152,389.695C76.148,389.405,74.144,389.11,72.14,388.774C70.136,388.437,68.132,388.06,66.128,387.604C64.125,387.148,62.121,386.615,60.117,386.122C58.113,385.629,56.109,385.178,54.105,384.525C52.101,383.871,50.097,383.016,48.093,382.059C46.089,381.102,44.086,380.043,42.082,378.891C40.078,377.738,38.074,376.493,36.07,374.906C34.066,373.32,32.062,371.393,30.058,368.966C28.054,366.54,26.05,363.614,24.047,359.987C22.043,356.361,20.039,352.035,18.035,346.569C16.031,341.102,14.027,334.496,12.023,325.688Z" fill="#3D494C" opacity="0.3"/></g></g><path class="foreground" aria-hidden="true" d="" display="none"/></g><g transform="translate(0,0)"><path class="background" aria-hidden="true" d="M0,0h600v400h-600Z"/><g><g class="mark-area role-mark layer_0_layer_0_marks" clip-path="url(#clip3)" role="graphics-object" aria-roledescription="area mark container"><path aria-label="Number of environment steps: 1.00195M; Dormant neuron ratio (%): 10.400390625; upper_Dormant neuron ratio: 11.7024745941; Benchmark: MT25; Ci1 of Dormant neuron ratio: 11.7024745941; Ci0 of Dormant neuron ratio: 10.400390625; Mean of Dormant neuron ratio: 11.0839846929" role="graphics-symbol" aria-roledescription="errorband" d="M12.024,349.653C14.027,357.856,16.031,361.936,18.035,365.951C20.039,369.965,22.043,373.915,24.047,376.259C26.051,378.602,28.055,379.34,30.059,379.818C32.063,380.295,34.067,380.512,36.071,380.599C38.075,380.686,40.079,380.642,42.083,380.621C44.087,380.599,46.091,380.599,48.095,380.599C50.099,380.599,52.103,380.599,54.107,379.844C56.11,379.09,58.114,377.58,60.118,376.582C62.122,375.584,64.126,375.097,66.13,374.766C68.134,374.436,70.138,374.262,72.142,374.349C74.146,374.436,76.15,374.783,78.154,375.543C80.158,376.302,82.162,377.474,84.166,377.554C86.17,377.633,88.174,376.62,90.178,376.707C92.182,376.794,94.186,377.98,96.189,377.988C98.193,377.995,100.197,376.823,102.201,376.78C104.205,376.736,106.209,377.821,108.213,378.689C110.217,379.557,112.221,380.208,114.225,379.34C116.229,378.472,118.233,376.085,120.237,373.503C122.241,370.92,124.245,368.142,126.249,367.274C128.253,366.406,130.257,367.448,132.261,366.45C134.265,365.451,136.268,362.413,138.272,360.525C140.276,358.637,142.28,357.899,144.284,357.183C146.288,356.467,148.292,355.773,150.296,355.404C152.3,355.035,154.304,354.991,156.308,355.208C158.312,355.425,160.316,355.903,162.32,355.447C164.324,354.991,166.328,353.602,168.332,352.127C170.336,350.651,172.34,349.089,174.344,349.132C176.347,349.175,178.351,350.825,180.355,351.845C182.359,352.865,184.363,353.255,186.367,351.845C188.371,350.434,190.375,347.222,192.379,346.463C194.383,345.703,196.387,347.396,198.391,345.942C200.395,344.488,202.399,339.887,204.403,337.999C206.407,336.111,208.411,336.936,210.415,338.737C212.419,340.538,214.423,343.316,216.426,345.66C218.43,348.003,220.434,349.913,222.438,350.326C224.442,350.738,226.446,349.653,228.45,348.351C230.454,347.049,232.458,345.53,234.462,343.815C236.466,342.101,238.47,340.191,240.474,339.106C242.478,338.021,244.482,337.76,246.486,335.699C248.49,333.637,250.494,329.774,252.498,329.687C254.502,329.601,256.505,333.29,258.509,333.963C260.513,334.635,262.517,332.292,264.521,331.619C266.525,330.946,268.529,331.944,270.533,330.534C272.537,329.123,274.541,325.304,276.545,323.286C278.549,321.267,280.553,321.05,282.557,322.179C284.561,323.307,286.565,325.781,288.569,327.018L288.569,306.25C286.565,307.378,284.561,311.372,282.557,313.607C280.553,315.842,278.549,316.319,276.545,315.039C274.541,313.759,272.537,310.72,270.533,305.469C268.529,300.217,266.525,292.752,264.521,287.023C262.517,281.293,260.513,277.3,258.509,281.098C256.505,284.896,254.502,296.484,252.498,298.481C250.494,300.477,248.49,292.882,246.486,288.911C244.482,284.939,242.478,284.592,240.474,285.872C238.47,287.153,236.466,290.061,234.462,292.925C232.458,295.79,230.454,298.611,228.45,303.754C226.446,308.898,224.442,316.363,222.438,320.573C220.434,324.783,218.43,325.738,216.426,325.89C214.423,326.042,212.419,325.391,210.415,323.199C208.411,321.007,206.407,317.274,204.403,319.293C202.399,321.311,200.395,329.08,198.391,332.4C196.387,335.72,194.383,334.592,192.379,331.532C190.375,328.472,188.371,323.481,186.367,308.051C184.363,292.622,182.359,266.753,180.355,256.901C178.351,247.049,176.347,253.212,174.344,241.949C172.34,230.686,170.336,201.997,168.332,192.491C166.328,182.986,164.324,192.665,162.32,215.148C160.316,237.63,158.312,272.917,156.308,293.012C154.304,313.108,152.3,318.012,150.296,308.051C148.292,298.09,146.288,273.264,144.284,271.593C142.28,269.922,140.276,291.406,138.272,306.315C136.268,321.224,134.265,329.557,132.261,328.819C130.257,328.082,128.253,318.273,126.249,319.835C124.245,321.398,122.241,334.332,120.237,342.708C118.233,351.085,116.229,354.905,114.225,356.076C112.221,357.248,110.217,355.773,108.213,355.686C106.209,355.599,104.205,356.901,102.201,357.422C100.197,357.943,98.193,357.682,96.189,358.76C94.186,359.838,92.182,362.254,90.178,363.578C88.174,364.902,86.17,365.133,84.166,365.119C82.162,365.104,80.158,364.844,78.154,364.996C76.15,365.148,74.146,365.712,72.142,366.037C70.138,366.363,68.134,366.45,66.13,366.536C64.126,366.623,62.122,366.71,60.118,367.318C58.114,367.925,56.11,369.054,54.107,369.336C52.103,369.618,50.099,369.054,48.095,368.793C46.091,368.533,44.087,368.576,42.083,368.598C40.079,368.62,38.075,368.62,36.071,367.882C34.067,367.144,32.063,365.668,30.059,364.757C28.055,363.845,26.051,363.498,24.047,362.24C22.043,360.981,20.039,358.811,18.035,355.404C16.031,351.997,14.027,347.352,12.024,338.976Z" fill="#7A1F18" opacity="0.3"/></g></g><path class="foreground" aria-hidden="true" d="" display="none"/></g></g><g class="mark-group role-scope layer_1_pathgroup" role="graphics-object" aria-roledescription="group mark container"><g transform="translate(0,0)"><path class="background" aria-hidden="true" d="M0,0h600v400h-600Z"/><g><g class="mark-line role-mark layer_1_marks" clip-path="url(#clip4)" role="graphics-object" aria-roledescription="line mark container"><path aria-label="Number of environment steps: 200.38k; Dormant neuron ratio (%): 18.8183597565; Benchmark: MT10" role="graphics-symbol" aria-roledescription="line mark" d="M2.405,275.935C2.805,283.424,3.206,288.906,3.607,293.917C4.008,298.928,4.409,303.468,4.809,307.587C5.21,311.706,5.611,315.404,6.012,318.184C6.412,320.964,6.813,322.826,7.214,324.052C7.615,325.278,8.016,325.868,8.416,326.586C8.817,327.305,9.218,328.151,9.619,328.711C10.019,329.271,10.42,329.544,10.821,329.768C11.222,329.991,11.623,330.165,12.023,330.339C12.424,330.512,12.825,330.686,13.226,330.538C13.626,330.391,14.027,329.922,14.428,329.219C14.829,328.516,15.23,327.578,15.63,326.493C16.031,325.408,16.432,324.175,16.833,323.049C17.233,321.923,17.634,320.903,18.035,319.998C18.436,319.093,18.837,318.303,19.237,317.539C19.638,316.775,20.039,316.037,20.44,315.286C20.841,314.536,21.241,313.772,21.642,313.429C22.043,313.086,22.444,313.164,22.844,312.756C23.245,312.348,23.646,311.454,24.047,310.72C24.448,309.987,24.848,309.414,25.249,309.026C25.65,308.637,26.051,308.433,26.451,307.925C26.852,307.418,27.253,306.606,27.654,306.072C28.055,305.538,28.455,305.282,28.856,304.8C29.257,304.319,29.658,303.611,30.058,302.984C30.459,302.357,30.86,301.81,31.261,301.098C31.662,300.386,32.062,299.51,32.463,298.357C32.864,297.205,33.265,295.777,33.665,294.286C34.066,292.795,34.467,291.241,34.868,289.933C35.269,288.624,35.669,287.561,36.07,286.595C36.471,285.629,36.872,284.761,37.272,283.783C37.673,282.804,38.074,281.714,38.475,280.642C38.876,279.57,39.276,278.516,39.677,277.83C40.078,277.144,40.479,276.827,40.88,276.118C41.28,275.408,41.681,274.306,42.082,273.006C42.483,271.706,42.883,270.208,43.284,269.058C43.685,267.908,44.086,267.105,44.487,266.374C44.887,265.642,45.288,264.983,45.689,264.312C46.09,263.641,46.49,262.96,46.891,262.376C47.292,261.793,47.693,261.306,48.094,260.347C48.494,259.388,48.895,257.956,49.296,256.684C49.697,255.412,50.097,254.301,50.498,253.303C50.899,252.305,51.3,251.419,51.701,250.508C52.101,249.596,52.502,248.659,52.903,247.407C53.304,246.155,53.704,244.588,54.105,243.498C54.506,242.409,54.907,241.797,55.308,241.246C55.708,240.694,56.109,240.204,56.51,239.64C56.911,239.076,57.311,238.437,57.712,237.611C58.113,236.784,58.514,235.768,58.915,234.657C59.315,233.546,59.716,232.339,60.117,230.957C60.518,229.575,60.919,228.016,61.319,227.101C61.72,226.185,62.121,225.911,62.522,225.284C62.922,224.657,63.323,223.676,63.724,222.869C64.125,222.062,64.526,221.428,64.926,220.647C65.327,219.865,65.728,218.937,66.129,218.362C66.529,217.786,66.93,217.565,67.331,216.78C67.732,215.994,68.133,214.644,68.533,213.626C68.934,212.609,69.335,211.923,69.736,211.263C70.136,210.603,70.537,209.97,70.938,209.188C71.339,208.407,71.74,207.478,72.14,206.302C72.541,205.126,72.942,203.702,73.343,202.843C73.743,201.984,74.144,201.688,74.545,200.788C74.946,199.887,75.347,198.381,75.747,197.958C76.148,197.535,76.549,198.194,76.95,198.327C77.35,198.459,77.751,198.064,78.152,197.5C78.553,196.936,78.954,196.202,79.354,195.523C79.755,194.844,80.156,194.219,80.557,193.461C80.958,192.704,81.358,191.814,81.759,191.126C82.16,190.438,82.561,189.952,82.961,189.434C83.362,188.915,83.763,188.364,84.164,187.48C84.565,186.597,84.965,185.382,85.366,184.403C85.767,183.424,86.168,182.682,86.568,182.316C86.969,181.949,87.37,181.957,87.771,181.938C88.172,181.918,88.572,181.871,88.973,181.643C89.374,181.415,89.775,181.007,90.175,180.321C90.576,179.635,90.977,178.672,91.378,178.22C91.779,177.769,92.179,177.83,92.58,177.695C92.981,177.561,93.382,177.231,93.782,176.678C94.183,176.124,94.584,175.347,94.985,174.531C95.386,173.715,95.786,172.86,96.187,171.842C96.588,170.825,96.989,169.644,97.389,168.652C97.79,167.661,98.191,166.858,98.592,166.059C98.993,165.26,99.393,164.466,99.794,164.199C100.195,163.932,100.596,164.193,100.996,163.806C101.397,163.42,101.798,162.387,102.199,161.424C102.6,160.46,103,159.566,103.401,158.859C103.802,158.151,104.203,157.63,104.604,157.465C105.004,157.3,105.405,157.491,105.806,157.431C106.207,157.37,106.607,157.057,107.008,156.895C107.409,156.732,107.81,156.719,108.211,156.775C108.611,156.832,109.012,156.957,109.413,156.504C109.814,156.05,110.214,155.017,110.615,154.444C111.016,153.872,111.417,153.759,111.818,153.294C112.218,152.83,112.619,152.014,113.02,151.595C113.421,151.176,113.821,151.155,114.222,151.089C114.623,151.024,115.024,150.916,115.425,150.755C115.825,150.595,116.226,150.382,116.627,149.789C117.028,149.197,117.428,148.225,117.829,147.563" stroke="#FF4B33" stroke-width="2"/></g></g><path class="foreground" aria-hidden="true" d="" display="none"/></g><g transform="translate(0,0)"><path class="background" aria-hidden="true" d="M0,0h600v400h-600Z"/><g><g class="mark-line role-mark layer_1_marks" clip-path="url(#clip5)" role="graphics-object" aria-roledescription="line mark container"><path aria-label="Number of environment steps: 1.0019M; Dormant neuron ratio (%): 12.6660159111; Benchmark: MT50" role="graphics-symbol" aria-roledescription="line mark" d="M12.023,329.863C14.027,338.746,16.031,345.356,18.035,350.705C20.039,356.055,22.043,360.143,24.047,363.559C26.05,366.975,28.054,369.718,30.058,372.003C32.062,374.288,34.066,376.115,36.07,377.7C38.074,379.284,40.078,380.625,42.082,381.795C44.086,382.964,46.089,383.963,48.093,384.855C50.097,385.747,52.101,386.532,54.105,387.164C56.109,387.795,58.113,388.273,60.117,388.78C62.121,389.288,64.125,389.826,66.128,390.293C68.132,390.76,70.136,391.155,72.14,391.495C74.144,391.836,76.148,392.122,78.152,392.381C80.156,392.639,82.16,392.869,84.164,393.043C86.167,393.216,88.171,393.333,90.175,393.437C92.179,393.542,94.183,393.633,96.187,393.843C98.191,394.054,100.195,394.384,102.199,394.481C104.203,394.579,106.206,394.444,108.21,394.447C110.214,394.449,112.218,394.588,114.222,394.714C116.226,394.839,118.23,394.952,120.234,395.028C122.238,395.104,124.242,395.143,126.245,395.182C128.249,395.221,130.253,395.26,132.257,395.291C134.261,395.321,136.265,395.343,138.269,395.408C140.273,395.473,142.277,395.582,144.281,395.655C146.284,395.729,148.288,395.768,150.292,395.807C152.296,395.846,154.3,395.885,156.304,395.883C158.308,395.881,160.312,395.838,162.316,395.881C164.319,395.924,166.323,396.055,168.327,396.107C170.331,396.159,172.335,396.133,174.339,396.066C176.343,395.998,178.347,395.89,180.351,394.243C182.355,392.595,184.359,389.41,186.362,389.477C188.366,389.544,190.37,392.865,192.374,394.451C194.378,396.037,196.382,395.89,198.386,395.783C200.39,395.677,202.394,395.612,204.398,395.523C206.401,395.434,208.405,395.321,210.409,395.28C212.413,395.239,214.417,395.269,216.421,395.254C218.425,395.239,220.429,395.178,222.433,395.232C224.437,395.286,226.44,395.456,228.444,395.449C230.448,395.443,232.452,395.26,234.456,394.329C236.46,393.398,238.464,391.719,240.468,391.736C242.472,391.753,244.476,393.468,246.479,394.284C248.483,395.1,250.487,395.017,252.491,395.024C254.495,395.03,256.499,395.126,258.503,395.156C260.507,395.187,262.511,395.152,264.515,395.091C266.518,395.03,268.522,394.944,270.526,394.924C272.53,394.905,274.534,394.952,276.538,394.948C278.542,394.944,280.546,394.887,282.55,394.822C284.554,394.757,286.557,394.683,288.561,394.64C290.565,394.596,292.569,394.583,294.573,394.466C296.577,394.349,298.581,394.128,300.585,394.054C302.589,393.98,304.593,394.054,306.596,394.104C308.6,394.154,310.604,394.18,312.608,394.169C314.612,394.158,316.616,394.11,318.62,394.095C320.624,394.08,322.628,394.097,324.632,394.03C326.635,393.963,328.639,393.811,330.643,393.737C332.647,393.663,334.651,393.668,336.655,393.633C338.659,393.598,340.663,393.524,342.667,393.388C344.671,393.251,346.674,393.051,348.678,392.988C350.682,392.925,352.686,392.999,354.69,392.982C356.694,392.964,358.698,392.856,360.702,392.684C362.706,392.513,364.71,392.279,366.713,392.233C368.717,392.187,370.721,392.331,372.725,392.287C374.729,392.244,376.733,392.014,378.737,391.986C380.741,391.957,382.745,392.131,384.749,392.142C386.752,392.153,388.756,392.001,390.76,391.905C392.764,391.81,394.768,391.771,396.772,391.76C398.776,391.749,400.78,391.766,402.784,391.738C404.787,391.71,406.791,391.636,408.795,391.599C410.799,391.562,412.803,391.562,414.807,391.526C416.811,391.489,418.815,391.415,420.819,391.187C422.823,390.959,424.826,390.577,426.83,390.556C428.834,390.534,430.838,390.872,432.842,391.009C434.846,391.146,436.85,391.081,438.854,390.838C440.858,390.595,442.862,390.174,444.865,390.035C446.869,389.896,448.873,390.039,450.877,390.13C452.881,390.221,454.885,390.26,456.889,390.28C458.893,390.299,460.897,390.299,462.901,390.284C464.904,390.269,466.908,390.239,468.912,390.154C470.916,390.069,472.92,389.931,474.924,389.531C476.928,389.132,478.932,388.472,480.936,388.388C482.94,388.303,484.944,388.793,486.947,388.939C488.951,389.084,490.955,388.885,492.959,388.602C494.963,388.32,496.967,387.956,498.971,387.609C500.975,387.261,502.979,386.931,504.983,387.001C506.986,387.07,508.99,387.539,510.994,387.6C512.998,387.661,515.002,387.313,517.006,386.806C519.01,386.298,521.014,385.629,523.018,385.729C525.022,385.829,527.025,386.697,529.029,387.203C531.033,387.708,533.037,387.852,535.041,387.841C537.045,387.83,539.049,387.665,541.053,387.452C543.057,387.24,545.06,386.979,547.064,386.91C549.068,386.84,551.072,386.962,553.076,386.99C555.08,387.018,557.084,386.953,559.088,386.79C561.092,386.628,563.096,386.367,565.099,386.211C567.103,386.055,569.107,386.003,571.111,385.94C573.115,385.877,575.119,385.803,577.123,385.61C579.127,385.417,581.131,385.104,583.135,385.03C585.139,384.957,587.142,385.122,589.146,385.119" stroke="#3D494C" stroke-width="2"/></g></g><path class="foreground" aria-hidden="true" d="" display="none"/></g><g transform="translate(0,0)"><path class="background" aria-hidden="true" d="M0,0h600v400h-600Z"/><g><g class="mark-line role-mark layer_1_marks" clip-path="url(#clip6)" role="graphics-object" aria-roledescription="line mark container"><path aria-label="Number of environment steps: 1.00195M; Dormant neuron ratio (%): 11.0839846929; Benchmark: MT25" role="graphics-symbol" aria-roledescription="line mark" d="M12.024,343.685C14.027,352.141,16.031,357.104,18.035,361.111C20.039,365.119,22.043,368.171,24.047,369.799C26.051,371.427,28.055,371.629,30.059,371.911C32.063,372.193,34.067,372.555,36.071,372.721C38.075,372.888,40.079,372.859,42.083,372.815C44.087,372.772,46.091,372.714,48.095,373.032C50.099,373.351,52.103,374.045,54.107,373.929C56.11,373.814,58.114,372.888,60.118,372.099C62.122,371.311,64.126,370.66,66.13,370.508C68.134,370.356,70.138,370.703,72.142,370.877C74.146,371.05,76.15,371.05,78.154,370.855C80.158,370.66,82.162,370.269,84.166,370.117C86.17,369.965,88.174,370.052,90.178,369.958C92.182,369.864,94.186,369.589,96.189,369.264C98.193,368.938,100.197,368.562,102.201,367.578C104.205,366.594,106.209,365.003,108.213,364.67C110.217,364.337,112.221,365.263,114.225,364.981C116.229,364.699,118.233,363.209,120.237,359.903C122.241,356.597,124.245,351.476,126.249,350.477C128.253,349.479,130.257,352.604,132.261,352.12C134.265,351.635,136.268,347.541,138.272,341.406C140.276,335.272,142.28,327.098,144.284,326.642C146.288,326.186,148.292,333.449,150.296,336.806C152.3,340.162,154.304,339.612,156.308,333.659C158.312,327.705,160.316,316.348,162.32,308.304C164.324,300.26,166.328,295.53,168.332,297.584C170.336,299.638,172.34,308.478,174.344,311.994C176.347,315.509,178.351,313.701,180.355,317.499C182.359,321.296,184.363,330.7,186.367,335.373C188.371,340.046,190.375,339.988,192.379,340.372C194.383,340.755,196.387,341.58,198.391,339.41C200.395,337.24,202.399,332.075,204.403,330.122C206.407,328.168,208.411,329.427,210.415,330.722C212.419,332.017,214.423,333.348,216.426,334.281C218.43,335.214,220.434,335.749,222.438,334.346C224.442,332.943,226.446,329.601,228.45,326.353C230.454,323.105,232.458,319.951,234.462,317.556C236.466,315.162,238.47,313.527,240.474,312.674C242.478,311.82,244.482,311.748,246.486,312.543C248.49,313.339,250.494,315.003,252.498,314.012C254.502,313.021,256.505,309.375,258.509,308.709C260.513,308.044,262.517,310.359,264.521,312.775C266.525,315.191,268.529,317.708,270.533,318.714C272.537,319.719,274.541,319.213,276.545,318.786C278.549,318.359,280.553,318.012,282.557,317.274C284.561,316.536,286.565,315.408,288.569,315.126" stroke="#7A1F18" stroke-width="2"/></g></g><path class="foreground" aria-hidden="true" d="" display="none"/></g></g><g class="mark-group role-legend" role="graphics-symbol" aria-roledescription="legend" aria-label="Symbol legend titled 'Benchmark' for fill color and stroke color with 3 values: MT10, MT25, MT50"><g transform="translate(18,18)"><path class="background" aria-hidden="true" d="M0,0h100v77h-100Z" pointer-events="none"/><g><g class="mark-group role-legend-entry"><g transform="translate(0,25)"><path class="background" aria-hidden="true" d="M0,0h0v0h0Z" pointer-events="none"/><g><g class="mark-group role-scope" role="graphics-object" aria-roledescription="group mark container"><g transform="translate(0,0)"><path class="background" aria-hidden="true" d="M0,0h60v16h-60Z" pointer-events="none" opacity="1"/><g><g class="mark-symbol role-legend-symbol" pointer-events="none"><path transform="translate(8,8)" d="M3.536,0A3.536,3.536,0,1,1,-3.536,0A3.536,3.536,0,1,1,3.536,0" fill="#FF4B33" stroke="#FF4B33" stroke-width="1.5" opacity="1"/></g><g class="mark-text role-legend-label" pointer-events="none"><text text-anchor="start" transform="translate(20,13)" font-family="Times New Roman" font-size="16px" fill="#000" opacity="1">MT10</text></g></g><path class="foreground" aria-hidden="true" d="" pointer-events="none" display="none"/></g><g transform="translate(0,18)"><path class="background" aria-hidden="true" d="M0,0h60v16h-60Z" pointer-events="none" opacity="1"/><g><g class="mark-symbol role-legend-symbol" pointer-events="none"><path transform="translate(8,8)" d="M3.536,0A3.536,3.536,0,1,1,-3.536,0A3.536,3.536,0,1,1,3.536,0" fill="#7A1F18" stroke="#7A1F18" stroke-width="1.5" opacity="1"/></g><g class="mark-text role-legend-label" pointer-events="none"><text text-anchor="start" transform="translate(20,13)" font-family="Times New Roman" font-size="16px" fill="#000" opacity="1">MT25</text></g></g><path class="foreground" aria-hidden="true" d="" pointer-events="none" display="none"/></g><g transform="translate(0,36)"><path class="background" aria-hidden="true" d="M0,0h60v16h-60Z" pointer-events="none" opacity="1"/><g><g class="mark-symbol role-legend-symbol" pointer-events="none"><path transform="translate(8,8)" d="M3.536,0A3.536,3.536,0,1,1,-3.536,0A3.536,3.536,0,1,1,3.536,0" fill="#3D494C" stroke="#3D494C" stroke-width="1.5" opacity="1"/></g><g class="mark-text role-legend-label" pointer-events="none"><text text-anchor="start" transform="translate(20,13)" font-family="Times New Roman" font-size="16px" fill="#000" opacity="1">MT50</text></g></g><path class="foreground" aria-hidden="true" d="" pointer-events="none" display="none"/></g></g></g><path class="foreground" aria-hidden="true" d="" pointer-events="none" display="none"/></g></g><g class="mark-text role-legend-title" pointer-events="none"><text text-anchor="start" transform="translate(0,16)" font-family="Times New Roman" font-size="20px" font-weight="bold" fill="#000" opacity="1">Benchmark</text></g></g><path class="foreground" aria-hidden="true" d="" pointer-events="none" display="none"/></g></g></g><path class="foreground" aria-hidden="true" d="" display="none"/></g></g></g><defs><clipPath id="clip1"><rect x="0" y="0" width="600" height="400"/></clipPath><clipPath id="clip2"><rect x="0" y="0" width="600" height="400"/></clipPath><clipPath id="clip3"><rect x="0" y="0" width="600" height="400"/></clipPath><clipPath id="clip4"><rect x="0" y="0" width="600" height="400"/></clipPath><clipPath id="clip5"><rect x="0" y="0" width="600" height="400"/></clipPath><clipPath id="clip6"><rect x="0" y="0" width="600" height="400"/></clipPath></defs></svg>