<svg xmlns="http://www.w3.org/2000/svg" xmlns:xlink="http://www.w3.org/1999/xlink" version="1.1" class="marks" width="782" height="458" viewBox="0 0 782 458"><rect width="782" height="458" fill="white"/><g fill="none" stroke-miterlimit="10" transform="translate(46,12)"><g class="mark-group role-frame root" role="graphics-object" aria-roledescription="group mark container"><g transform="translate(0,0)"><path class="background" aria-hidden="true" d="M0.5,0.5h600v400h-600Z" stroke="#ddd"/><g><g class="mark-group role-axis" aria-hidden="true"><g transform="translate(0.5,400.5)"><path class="background" aria-hidden="true" d="M0,0h0v0h0Z" pointer-events="none"/><g><g class="mark-rule role-axis-grid" pointer-events="none"><line transform="translate(29,-400)" x2="0" y2="400" stroke="#ddd" stroke-width="1" opacity="1"/><line transform="translate(89,-400)" x2="0" y2="400" stroke="#ddd" stroke-width="1" opacity="1"/><line transform="translate(131,-400)" x2="0" y2="400" stroke="#ddd" stroke-width="1" opacity="1"/><line transform="translate(165,-400)" x2="0" y2="400" stroke="#ddd" stroke-width="1" opacity="1"/><line transform="translate(192,-400)" x2="0" y2="400" stroke="#ddd" stroke-width="1" opacity="1"/><line transform="translate(215,-400)" x2="0" y2="400" stroke="#ddd" stroke-width="1" opacity="1"/><line transform="translate(234,-400)" x2="0" y2="400" stroke="#ddd" stroke-width="1" opacity="1"/><line transform="translate(252,-400)" x2="0" y2="400" stroke="#ddd" stroke-width="1" opacity="1"/><line transform="translate(267,-400)" x2="0" y2="400" stroke="#ddd" stroke-width="1" opacity="1"/><line transform="translate(370,-400)" x2="0" y2="400" stroke="#ddd" stroke-width="1" opacity="1"/><line transform="translate(431,-400)" x2="0" y2="400" stroke="#ddd" stroke-width="1" opacity="1"/><line transform="translate(473,-400)" x2="0" y2="400" stroke="#ddd" stroke-width="1" opacity="1"/><line transform="translate(506,-400)" x2="0" y2="400" stroke="#ddd" stroke-width="1" opacity="1"/><line transform="translate(533,-400)" x2="0" y2="400" stroke="#ddd" stroke-width="1" opacity="1"/><line transform="translate(556,-400)" x2="0" y2="400" stroke="#ddd" stroke-width="1" opacity="1"/><line transform="translate(576,-400)" x2="0" y2="400" stroke="#ddd" stroke-width="1" opacity="1"/><line transform="translate(594,-400)" x2="0" y2="400" stroke="#ddd" stroke-width="1" opacity="1"/></g></g><path class="foreground" aria-hidden="true" d="" pointer-events="none" display="none"/></g></g><g class="mark-group role-axis" aria-hidden="true"><g transform="translate(0.5,0.5)"><path class="background" aria-hidden="true" d="M0,0h0v0h0Z" pointer-events="none"/><g><g class="mark-rule role-axis-grid" pointer-events="none"><line transform="translate(0,400)" x2="600" y2="0" stroke="#ddd" stroke-width="1" opacity="1"/><line transform="translate(0,360)" x2="600" y2="0" stroke="#ddd" stroke-width="1" opacity="1"/><line transform="translate(0,320)" x2="600" y2="0" stroke="#ddd" stroke-width="1" opacity="1"/><line transform="translate(0,280)" x2="600" y2="0" stroke="#ddd" stroke-width="1" opacity="1"/><line transform="translate(0,240)" x2="600" y2="0" stroke="#ddd" stroke-width="1" opacity="1"/><line transform="translate(0,200)" x2="600" y2="0" stroke="#ddd" stroke-width="1" opacity="1"/><line transform="translate(0,160)" x2="600" y2="0" stroke="#ddd" stroke-width="1" opacity="1"/><line transform="translate(0,120)" x2="600" y2="0" stroke="#ddd" stroke-width="1" opacity="1"/><line transform="translate(0,80)" x2="600" y2="0" stroke="#ddd" stroke-width="1" opacity="1"/><line transform="translate(0,40)" x2="600" y2="0" stroke="#ddd" stroke-width="1" opacity="1"/><line transform="translate(0,0)" x2="600" y2="0" stroke="#ddd" stroke-width="1" opacity="1"/></g></g><path class="foreground" aria-hidden="true" d="" pointer-events="none" display="none"/></g></g><g class="mark-group role-axis" role="graphics-symbol" aria-roledescription="axis" aria-label="X-axis titled 'Number of parameters' for a log scale with values from 164.944k to 9.396624M"><g transform="translate(0.5,400.5)"><path class="background" aria-hidden="true" d="M0,0h0v0h0Z" pointer-events="none"/><g><g class="mark-rule role-axis-tick" pointer-events="none"><line transform="translate(29,0)" x2="0" y2="5" stroke="#888" stroke-width="1" opacity="1"/><line transform="translate(89,0)" x2="0" y2="5" stroke="#888" stroke-width="1" opacity="1"/><line transform="translate(131,0)" x2="0" y2="5" stroke="#888" stroke-width="1" opacity="1"/><line transform="translate(165,0)" x2="0" y2="5" stroke="#888" stroke-width="1" opacity="1"/><line transform="translate(192,0)" x2="0" y2="5" stroke="#888" stroke-width="1" opacity="1"/><line transform="translate(215,0)" x2="0" y2="5" stroke="#888" stroke-width="1" opacity="1"/><line transform="translate(234,0)" x2="0" y2="5" stroke="#888" stroke-width="1" opacity="1"/><line transform="translate(252,0)" x2="0" y2="5" stroke="#888" stroke-width="1" opacity="1"/><line transform="translate(267,0)" x2="0" y2="5" stroke="#888" stroke-width="1" opacity="1"/><line transform="translate(370,0)" x2="0" y2="5" stroke="#888" stroke-width="1" opacity="1"/><line transform="translate(431,0)" x2="0" y2="5" stroke="#888" stroke-width="1" opacity="1"/><line transform="translate(473,0)" x2="0" y2="5" stroke="#888" stroke-width="1" opacity="1"/><line transform="translate(506,0)" x2="0" y2="5" stroke="#888" stroke-width="1" opacity="1"/><line transform="translate(533,0)" x2="0" y2="5" stroke="#888" stroke-width="1" opacity="1"/><line transform="translate(556,0)" x2="0" y2="5" stroke="#888" stroke-width="1" opacity="1"/><line transform="translate(576,0)" x2="0" y2="5" stroke="#888" stroke-width="1" opacity="1"/><line transform="translate(594,0)" x2="0" y2="5" stroke="#888" stroke-width="1" opacity="1"/></g><g class="mark-text role-axis-label" pointer-events="none"><text text-anchor="middle" transform="translate(28.602798804908115,18)" font-family="Times New Roman" font-size="14px" fill="#000" opacity="1">200K</text><text text-anchor="middle" transform="translate(88.78315278527721,18)" font-family="Times New Roman" font-size="14px" fill="#000" opacity="1">300K</text><text text-anchor="middle" transform="translate(131.48179345187674,18)" font-family="Times New Roman" font-size="14px" fill="#000" opacity="1">400K</text><text text-anchor="middle" transform="translate(164.60143220250234,18)" font-family="Times New Roman" font-size="14px" fill="#000" opacity="1">500K</text><text text-anchor="middle" transform="translate(191.66214743224583,18)" font-family="Times New Roman" font-size="14px" fill="#000" opacity="0">600K</text><text text-anchor="middle" transform="translate(214.54165615644473,18)" font-family="Times New Roman" font-size="14px" fill="#000" opacity="1">700K</text><text text-anchor="middle" transform="translate(234.36078809884535,18)" font-family="Times New Roman" font-size="14px" fill="#000" opacity="0">800K</text><text text-anchor="middle" transform="translate(251.8425014126152,18)" font-family="Times New Roman" font-size="14px" fill="#000" opacity="1">900K</text><text text-anchor="middle" transform="translate(267.480426849471,18)" font-family="Times New Roman" font-size="14px" fill="#000" opacity="0">1M</text><text text-anchor="middle" transform="translate(370.3594214964396,18)" font-family="Times New Roman" font-size="14px" fill="#000" opacity="1">2M</text><text text-anchor="middle" transform="translate(430.539775476809,18)" font-family="Times New Roman" font-size="14px" fill="#000" opacity="1">3M</text><text text-anchor="middle" transform="translate(473.23841614340824,18)" font-family="Times New Roman" font-size="14px" fill="#000" opacity="1">4M</text><text text-anchor="middle" transform="translate(506.35805489403407,18)" font-family="Times New Roman" font-size="14px" fill="#000" opacity="1">5M</text><text text-anchor="middle" transform="translate(533.4187701237776,18)" font-family="Times New Roman" font-size="14px" fill="#000" opacity="1">6M</text><text text-anchor="middle" transform="translate(556.2982788479762,18)" font-family="Times New Roman" font-size="14px" fill="#000" opacity="1">7M</text><text text-anchor="middle" transform="translate(576.1174107903769,18)" font-family="Times New Roman" font-size="14px" fill="#000" opacity="1">8M</text><text text-anchor="middle" transform="translate(593.5991241041464,18)" font-family="Times New Roman" font-size="14px" fill="#000" opacity="0">9M</text></g><g class="mark-rule role-axis-domain" pointer-events="none"><line transform="translate(0,0)" x2="600" y2="0" stroke="#888" stroke-width="1" opacity="1"/></g><g class="mark-text role-axis-title" pointer-events="none"><text text-anchor="middle" transform="translate(300,38)" font-family="Times New Roman" font-size="16px" font-weight="bold" fill="#000" opacity="1">Number of parameters</text></g></g><path class="foreground" aria-hidden="true" d="" pointer-events="none" display="none"/></g></g><g class="mark-group role-axis" role="graphics-symbol" aria-roledescription="axis" aria-label="Y-axis titled 'Dormant neuron ratio (%)' for a linear scale with values from 0 to 50"><g transform="translate(0.5,0.5)"><path class="background" aria-hidden="true" d="M0,0h0v0h0Z" pointer-events="none"/><g><g class="mark-rule role-axis-tick" pointer-events="none"><line transform="translate(0,400)" x2="-5" y2="0" stroke="#888" stroke-width="1" opacity="1"/><line transform="translate(0,360)" x2="-5" y2="0" stroke="#888" stroke-width="1" opacity="1"/><line transform="translate(0,320)" x2="-5" y2="0" stroke="#888" stroke-width="1" opacity="1"/><line transform="translate(0,280)" x2="-5" y2="0" stroke="#888" stroke-width="1" opacity="1"/><line transform="translate(0,240)" x2="-5" y2="0" stroke="#888" stroke-width="1" opacity="1"/><line transform="translate(0,200)" x2="-5" y2="0" stroke="#888" stroke-width="1" opacity="1"/><line transform="translate(0,160)" x2="-5" y2="0" stroke="#888" stroke-width="1" opacity="1"/><line transform="translate(0,120)" x2="-5" y2="0" stroke="#888" stroke-width="1" opacity="1"/><line transform="translate(0,80)" x2="-5" y2="0" stroke="#888" stroke-width="1" opacity="1"/><line transform="translate(0,40)" x2="-5" y2="0" stroke="#888" stroke-width="1" opacity="1"/><line transform="translate(0,0)" x2="-5" y2="0" stroke="#888" stroke-width="1" opacity="1"/></g><g class="mark-text role-axis-label" pointer-events="none"><text text-anchor="end" transform="translate(-7,404)" font-family="Times New Roman" font-size="14px" fill="#000" opacity="1">0</text><text text-anchor="end" transform="translate(-7,364)" font-family="Times New Roman" font-size="14px" fill="#000" opacity="1">5</text><text text-anchor="end" transform="translate(-7,324)" font-family="Times New Roman" font-size="14px" fill="#000" opacity="1">10</text><text text-anchor="end" transform="translate(-7,284)" font-family="Times New Roman" font-size="14px" fill="#000" opacity="1">15</text><text text-anchor="end" transform="translate(-7,244)" font-family="Times New Roman" font-size="14px" fill="#000" opacity="1">20</text><text text-anchor="end" transform="translate(-7,204)" font-family="Times New Roman" font-size="14px" fill="#000" opacity="1">25</text><text text-anchor="end" transform="translate(-7,164)" font-family="Times New Roman" font-size="14px" fill="#000" opacity="1">30</text><text text-anchor="end" transform="translate(-7,124.00000000000001)" font-family="Times New Roman" font-size="14px" fill="#000" opacity="1">35</text><text text-anchor="end" transform="translate(-7,83.99999999999999)" font-family="Times New Roman" font-size="14px" fill="#000" opacity="1">40</text><text text-anchor="end" transform="translate(-7,43.99999999999999)" font-family="Times New Roman" font-size="14px" fill="#000" opacity="1">45</text><text text-anchor="end" transform="translate(-7,4)" font-family="Times New Roman" font-size="14px" fill="#000" opacity="1">50</text></g><g class="mark-rule role-axis-domain" pointer-events="none"><line transform="translate(0,400)" x2="0" y2="-400" stroke="#888" stroke-width="1" opacity="1"/></g><g class="mark-text role-axis-title" pointer-events="none"><text text-anchor="middle" transform="translate(-25,200) rotate(-90) translate(0,-3)" font-family="Times New Roman" font-size="16px" font-weight="bold" fill="#000" opacity="1">Dormant neuron ratio (%)</text></g></g><path class="foreground" aria-hidden="true" d="" pointer-events="none" display="none"/></g></g><g class="mark-group role-scope layer_0_layer_0_pathgroup" role="graphics-object" aria-roledescription="group mark container"><g transform="translate(0,0)"><path class="background" aria-hidden="true" d="M0,0h600v400h-600Z"/><g><g class="mark-area role-mark layer_0_layer_0_marks" role="graphics-object" aria-roledescription="area mark container"><path aria-label="Number of parameters: 164.944k; Dormant neuron ratio (%): 3.77604174614; upper_Dormant neuron ratio: 3.97135430574; Number of tasks: 10; Ci1 of Dormant neuron ratio: 3.97135430574; Ci0 of Dormant neuron ratio: 3.77604174614; Mean of Dormant neuron ratio: 3.84114593267" role="graphics-symbol" aria-roledescription="errorband" d="M0,369.792L189.658,358.335L386.676,290.704L587.867,158.621L587.867,134.282L386.676,269.295L189.658,347.5L0,368.229Z" fill="#FF4B33" opacity="0.3"/></g></g><path class="foreground" aria-hidden="true" d="" display="none"/></g><g transform="translate(0,0)"><path class="background" aria-hidden="true" d="M0,0h600v400h-600Z"/><g><g class="mark-area role-mark layer_0_layer_0_marks" role="graphics-object" aria-roledescription="area mark container"><path aria-label="Number of parameters: 257.424k; Dormant neuron ratio (%): 0.390625011921; upper_Dormant neuron ratio: 0.859375035763; Number of tasks: 50; Ci1 of Dormant neuron ratio: 0.859375035763; Ci0 of Dormant neuron ratio: 0.390625011921; Mean of Dormant neuron ratio: 0.625000023842" role="graphics-symbol" aria-roledescription="errorband" d="M66.066,396.875L229.953,397.083L409.378,397.135L600,387.813L600,381.354L409.378,394.791L229.953,395.937L66.066,393.125Z" fill="#3D494C" opacity="0.3"/></g></g><path class="foreground" aria-hidden="true" d="" display="none"/></g><g transform="translate(0,0)"><path class="background" aria-hidden="true" d="M0,0h600v400h-600Z"/><g><g class="mark-area role-mark layer_0_layer_0_marks" role="graphics-object" aria-roledescription="area mark container"><path aria-label="Number of parameters: 199.624k; Dormant neuron ratio (%): 1.85149019758; upper_Dormant neuron ratio: 2.73437505298; Number of tasks: 25; Ci1 of Dormant neuron ratio: 2.73437505298; Ci0 of Dormant neuron ratio: 1.85149019758; Mean of Dormant neuron ratio: 2.3003472752" role="graphics-symbol" aria-roledescription="errorband" d="M28.324,385.188L206.076,385.887L395.601,339.583L592.534,328.255L592.534,308.594L395.601,328.958L206.076,379.896L28.324,378.125Z" fill="#7A1F18" opacity="0.3"/></g></g><path class="foreground" aria-hidden="true" d="" display="none"/></g></g><g class="mark-group role-scope layer_1_layer_0_pathgroup" role="graphics-object" aria-roledescription="group mark container"><g transform="translate(0,0)"><path class="background" aria-hidden="true" d="M0,0h600v400h-600Z"/><g><g class="mark-line role-mark layer_1_layer_0_marks" clip-path="url(#clip1)" role="graphics-object" aria-roledescription="line mark container"><path aria-label="Number of parameters: 164.944k; Dormant neuron ratio (%): 3.84114593267; Number of tasks: 10" role="graphics-symbol" aria-roledescription="line mark" d="M0,369.271L189.658,352.917L386.676,279.87L587.867,146.198" stroke="#FF4B33" stroke-width="2"/></g></g><path class="foreground" aria-hidden="true" d="" display="none"/></g><g transform="translate(0,0)"><path class="background" aria-hidden="true" d="M0,0h600v400h-600Z"/><g><g class="mark-line role-mark layer_1_layer_0_marks" clip-path="url(#clip2)" role="graphics-object" aria-roledescription="line mark container"><path aria-label="Number of parameters: 257.424k; Dormant neuron ratio (%): 0.625000023842; Number of tasks: 50" role="graphics-symbol" aria-roledescription="line mark" d="M66.066,395L229.953,396.458L409.378,396.224L600,384.779" stroke="#3D494C" stroke-width="2"/></g></g><path class="foreground" aria-hidden="true" d="" display="none"/></g><g transform="translate(0,0)"><path class="background" aria-hidden="true" d="M0,0h600v400h-600Z"/><g><g class="mark-line role-mark layer_1_layer_0_marks" clip-path="url(#clip3)" role="graphics-object" aria-roledescription="line mark container"><path aria-label="Number of parameters: 199.624k; Dormant neuron ratio (%): 2.3003472752; Number of tasks: 25" role="graphics-symbol" aria-roledescription="line mark" d="M28.324,381.597L206.076,382.656L395.601,334.323L592.534,315.972" stroke="#7A1F18" stroke-width="2"/></g></g><path class="foreground" aria-hidden="true" d="" display="none"/></g></g><g class="mark-symbol role-mark layer_1_layer_1_marks" clip-path="url(#clip4)" role="graphics-object" aria-roledescription="symbol mark container"><path aria-label="Number of parameters: 164.944k; Dormant neuron ratio (%): 3.84114593267; Number of tasks: 10" role="graphics-symbol" aria-roledescription="point" transform="translate(0,369.27083253860474)" d="M2.739,0A2.739,2.739,0,1,1,-2.739,0A2.739,2.739,0,1,1,2.739,0" fill="#FF4B33" stroke-width="2" opacity="1"/><path aria-label="Number of parameters: 591.952k; Dormant neuron ratio (%): 5.88541688919; Number of tasks: 10" role="graphics-symbol" aria-roledescription="point" transform="translate(189.65782749247572,352.9166648864746)" d="M2.739,0A2.739,2.739,0,1,1,-2.739,0A2.739,2.739,0,1,1,2.739,0" fill="#FF4B33" stroke-width="2" opacity="1"/><path aria-label="Number of parameters: 2.2324M; Dormant neuron ratio (%): 15.0162763596; Number of tasks: 10" role="graphics-symbol" aria-roledescription="point" transform="translate(386.6755723903334,279.86978912353516)" d="M2.739,0A2.739,2.739,0,1,1,-2.739,0A2.739,2.739,0,1,1,2.739,0" fill="#FF4B33" stroke-width="2" opacity="1"/><path aria-label="Number of parameters: 8.65902M; Dormant neuron ratio (%): 31.7252613068; Number of tasks: 10" role="graphics-symbol" aria-roledescription="point" transform="translate(587.8666468131811,146.19790954589843)" d="M2.739,0A2.739,2.739,0,1,1,-2.739,0A2.739,2.739,0,1,1,2.739,0" fill="#FF4B33" stroke-width="2" opacity="1"/><path aria-label="Number of parameters: 257.424k; Dormant neuron ratio (%): 0.625000023842; Number of tasks: 50" role="graphics-symbol" aria-roledescription="point" transform="translate(66.06583124505711,394.99999980926515)" d="M2.739,0A2.739,2.739,0,1,1,-2.739,0A2.739,2.739,0,1,1,2.739,0" fill="#3D494C" stroke-width="2" opacity="1"/><path aria-label="Number of parameters: 776.592k; Dormant neuron ratio (%): 0.442708355188; Number of tasks: 50" role="graphics-symbol" aria-roledescription="point" transform="translate(229.95312743803294,396.458333158493)" d="M2.739,0A2.739,2.739,0,1,1,-2.739,0A2.739,2.739,0,1,1,2.739,0" fill="#3D494C" stroke-width="2" opacity="1"/><path aria-label="Number of parameters: 2.60136M; Dormant neuron ratio (%): 0.472005212307; Number of tasks: 50" role="graphics-symbol" aria-roledescription="point" transform="translate(409.3779331152857,396.2239583015442)" d="M2.739,0A2.739,2.739,0,1,1,-2.739,0A2.739,2.739,0,1,1,2.739,0" fill="#3D494C" stroke-width="2" opacity="1"/><path aria-label="Number of parameters: 9.39662M; Dormant neuron ratio (%): 1.90266931057; Number of tasks: 50" role="graphics-symbol" aria-roledescription="point" transform="translate(600,384.7786455154419)" d="M2.739,0A2.739,2.739,0,1,1,-2.739,0A2.739,2.739,0,1,1,2.739,0" fill="#3D494C" stroke-width="2" opacity="1"/><path aria-label="Number of parameters: 199.624k; Dormant neuron ratio (%): 2.3003472752; Number of tasks: 25" role="graphics-symbol" aria-roledescription="point" transform="translate(28.32350091361938,381.59722179836695)" d="M2.739,0A2.739,2.739,0,1,1,-2.739,0A2.739,2.739,0,1,1,2.739,0" fill="#7A1F18" stroke-width="2" opacity="1"/><path aria-label="Number of parameters: 661.192k; Dormant neuron ratio (%): 2.16796882153; Number of tasks: 25" role="graphics-symbol" aria-roledescription="point" transform="translate(206.0761909010747,382.6562494277954)" d="M2.739,0A2.739,2.739,0,1,1,-2.739,0A2.739,2.739,0,1,1,2.739,0" fill="#7A1F18" stroke-width="2" opacity="1"/><path aria-label="Number of parameters: 2.37076M; Dormant neuron ratio (%): 8.20963573456; Number of tasks: 25" role="graphics-symbol" aria-roledescription="point" transform="translate(395.6007438775124,334.32291412353516)" d="M2.739,0A2.739,2.739,0,1,1,-2.739,0A2.739,2.739,0,1,1,2.739,0" fill="#7A1F18" stroke-width="2" opacity="1"/><path aria-label="Number of parameters: 8.93562M; Dormant neuron ratio (%): 10.5034726461; Number of tasks: 25" role="graphics-symbol" aria-roledescription="point" transform="translate(592.5336556185632,315.97221883138025)" d="M2.739,0A2.739,2.739,0,1,1,-2.739,0A2.739,2.739,0,1,1,2.739,0" fill="#7A1F18" stroke-width="2" opacity="1"/></g><g class="mark-group role-legend" role="graphics-symbol" aria-roledescription="legend" aria-label="Symbol legend titled 'Number of tasks' for fill color and stroke color with 3 values: 10, 25, 50"><g transform="translate(618,0)"><path class="background" aria-hidden="true" d="M0,0h113v67h-113Z" pointer-events="none"/><g><g class="mark-group role-legend-entry"><g transform="translate(0,21)"><path class="background" aria-hidden="true" d="M0,0h0v0h0Z" pointer-events="none"/><g><g class="mark-group role-scope" role="graphics-object" aria-roledescription="group mark container"><g transform="translate(0,0)"><path class="background" aria-hidden="true" d="M0,0h32v14h-32Z" pointer-events="none" opacity="1"/><g><g class="mark-symbol role-legend-symbol" pointer-events="none"><path transform="translate(7,7)" d="M5,0A5,5,0,1,1,-5,0A5,5,0,1,1,5,0" fill="#FF4B33" stroke="#FF4B33" stroke-width="1.5" opacity="0.3"/></g><g class="mark-text role-legend-label" pointer-events="none"><text text-anchor="start" transform="translate(18,11)" font-family="Times New Roman" font-size="14px" fill="#000" opacity="1">10</text></g></g><path class="foreground" aria-hidden="true" d="" pointer-events="none" display="none"/></g><g transform="translate(0,16)"><path class="background" aria-hidden="true" d="M0,0h32v14h-32Z" pointer-events="none" opacity="1"/><g><g class="mark-symbol role-legend-symbol" pointer-events="none"><path transform="translate(7,7)" d="M5,0A5,5,0,1,1,-5,0A5,5,0,1,1,5,0" fill="#7A1F18" stroke="#7A1F18" stroke-width="1.5" opacity="0.3"/></g><g class="mark-text role-legend-label" pointer-events="none"><text text-anchor="start" transform="translate(18,11)" font-family="Times New Roman" font-size="14px" fill="#000" opacity="1">25</text></g></g><path class="foreground" aria-hidden="true" d="" pointer-events="none" display="none"/></g><g transform="translate(0,32)"><path class="background" aria-hidden="true" d="M0,0h32v14h-32Z" pointer-events="none" opacity="1"/><g><g class="mark-symbol role-legend-symbol" pointer-events="none"><path transform="translate(7,7)" d="M5,0A5,5,0,1,1,-5,0A5,5,0,1,1,5,0" fill="#3D494C" stroke="#3D494C" stroke-width="1.5" opacity="0.3"/></g><g class="mark-text role-legend-label" pointer-events="none"><text text-anchor="start" transform="translate(18,11)" font-family="Times New Roman" font-size="14px" fill="#000" opacity="1">50</text></g></g><path class="foreground" aria-hidden="true" d="" pointer-events="none" display="none"/></g></g></g><path class="foreground" aria-hidden="true" d="" pointer-events="none" display="none"/></g></g><g class="mark-text role-legend-title" pointer-events="none"><text text-anchor="start" transform="translate(0,13)" font-family="Times New Roman" font-size="16px" font-weight="bold" fill="#000" opacity="1">Number of tasks</text></g></g><path class="foreground" aria-hidden="true" d="" pointer-events="none" display="none"/></g></g></g><path class="foreground" aria-hidden="true" d="" display="none"/></g></g></g><defs><clipPath id="clip1"><rect x="0" y="0" width="600" height="400"/></clipPath><clipPath id="clip2"><rect x="0" y="0" width="600" height="400"/></clipPath><clipPath id="clip3"><rect x="0" y="0" width="600" height="400"/></clipPath><clipPath id="clip4"><rect x="0" y="0" width="600" height="400"/></clipPath></defs></svg>