<svg xmlns="http://www.w3.org/2000/svg" xmlns:xlink="http://www.w3.org/1999/xlink" version="1.1" class="marks" width="658" height="465" viewBox="0 0 658 465"><rect width="658" height="465" fill="white"/><g fill="none" stroke-miterlimit="10" transform="translate(52,13)"><g class="mark-group role-frame root" role="graphics-object" aria-roledescription="group mark container"><g transform="translate(0,0)"><path class="background" aria-hidden="true" d="M0.5,0.5h600v400h-600Z" stroke="#ddd"/><g><g class="mark-group role-axis" aria-hidden="true"><g transform="translate(0.5,400.5)"><path class="background" aria-hidden="true" d="M0,0h0v0h0Z" pointer-events="none"/><g><g class="mark-rule role-axis-grid" pointer-events="none"><line transform="translate(0,-400)" x2="0" y2="400" stroke="#ddd" stroke-width="1" opacity="1"/><line transform="translate(30,-400)" x2="0" y2="400" stroke="#ddd" stroke-width="1" opacity="1"/><line transform="translate(60,-400)" x2="0" y2="400" stroke="#ddd" stroke-width="1" opacity="1"/><line transform="translate(90,-400)" x2="0" y2="400" stroke="#ddd" stroke-width="1" opacity="1"/><line transform="translate(120,-400)" x2="0" y2="400" stroke="#ddd" stroke-width="1" opacity="1"/><line transform="translate(150,-400)" x2="0" y2="400" stroke="#ddd" stroke-width="1" opacity="1"/><line transform="translate(180,-400)" x2="0" y2="400" stroke="#ddd" stroke-width="1" opacity="1"/><line transform="translate(210,-400)" x2="0" y2="400" stroke="#ddd" stroke-width="1" opacity="1"/><line transform="translate(240,-400)" x2="0" y2="400" stroke="#ddd" stroke-width="1" opacity="1"/><line transform="translate(270,-400)" x2="0" y2="400" stroke="#ddd" stroke-width="1" opacity="1"/><line transform="translate(300,-400)" x2="0" y2="400" stroke="#ddd" stroke-width="1" opacity="1"/><line transform="translate(330,-400)" x2="0" y2="400" stroke="#ddd" stroke-width="1" opacity="1"/><line transform="translate(360,-400)" x2="0" y2="400" stroke="#ddd" stroke-width="1" opacity="1"/><line transform="translate(390,-400)" x2="0" y2="400" stroke="#ddd" stroke-width="1" opacity="1"/><line transform="translate(420,-400)" x2="0" y2="400" stroke="#ddd" stroke-width="1" opacity="1"/><line transform="translate(450,-400)" x2="0" y2="400" stroke="#ddd" stroke-width="1" opacity="1"/><line transform="translate(480,-400)" x2="0" y2="400" stroke="#ddd" stroke-width="1" opacity="1"/><line transform="translate(510,-400)" x2="0" y2="400" stroke="#ddd" stroke-width="1" opacity="1"/><line transform="translate(540,-400)" x2="0" y2="400" stroke="#ddd" stroke-width="1" opacity="1"/><line transform="translate(570,-400)" x2="0" y2="400" stroke="#ddd" stroke-width="1" opacity="1"/><line transform="translate(600,-400)" x2="0" y2="400" stroke="#ddd" stroke-width="1" opacity="1"/></g></g><path class="foreground" aria-hidden="true" d="" pointer-events="none" display="none"/></g></g><g class="mark-group role-axis" aria-hidden="true"><g transform="translate(0.5,0.5)"><path class="background" aria-hidden="true" d="M0,0h0v0h0Z" pointer-events="none"/><g><g class="mark-rule role-axis-grid" pointer-events="none"><line transform="translate(0,400)" x2="600" y2="0" stroke="#ddd" stroke-width="1" opacity="1"/><line transform="translate(0,360)" x2="600" y2="0" stroke="#ddd" stroke-width="1" opacity="1"/><line transform="translate(0,320)" x2="600" y2="0" stroke="#ddd" stroke-width="1" opacity="1"/><line transform="translate(0,280)" x2="600" y2="0" stroke="#ddd" stroke-width="1" opacity="1"/><line transform="translate(0,240)" x2="600" y2="0" stroke="#ddd" stroke-width="1" opacity="1"/><line transform="translate(0,200)" x2="600" y2="0" stroke="#ddd" stroke-width="1" opacity="1"/><line transform="translate(0,160)" x2="600" y2="0" stroke="#ddd" stroke-width="1" opacity="1"/><line transform="translate(0,120)" x2="600" y2="0" stroke="#ddd" stroke-width="1" opacity="1"/><line transform="translate(0,80)" x2="600" y2="0" stroke="#ddd" stroke-width="1" opacity="1"/><line transform="translate(0,40)" x2="600" y2="0" stroke="#ddd" stroke-width="1" opacity="1"/><line transform="translate(0,0)" x2="600" y2="0" stroke="#ddd" stroke-width="1" opacity="1"/></g></g><path class="foreground" aria-hidden="true" d="" pointer-events="none" display="none"/></g></g><g class="mark-group role-axis" role="graphics-symbol" aria-roledescription="axis" aria-label="X-axis titled 'Number of environment steps' for a linear scale with values from 0M to 20M"><g transform="translate(0.5,400.5)"><path class="background" aria-hidden="true" d="M0,0h0v0h0Z" pointer-events="none"/><g><g class="mark-rule role-axis-tick" pointer-events="none"><line transform="translate(0,0)" x2="0" y2="5" stroke="#888" stroke-width="1" opacity="1"/><line transform="translate(30,0)" x2="0" y2="5" stroke="#888" stroke-width="1" opacity="1"/><line transform="translate(60,0)" x2="0" y2="5" stroke="#888" stroke-width="1" opacity="1"/><line transform="translate(90,0)" x2="0" y2="5" stroke="#888" stroke-width="1" opacity="1"/><line transform="translate(120,0)" x2="0" y2="5" stroke="#888" stroke-width="1" opacity="1"/><line transform="translate(150,0)" x2="0" y2="5" stroke="#888" stroke-width="1" opacity="1"/><line transform="translate(180,0)" x2="0" y2="5" stroke="#888" stroke-width="1" opacity="1"/><line transform="translate(210,0)" x2="0" y2="5" stroke="#888" stroke-width="1" opacity="1"/><line transform="translate(240,0)" x2="0" y2="5" stroke="#888" stroke-width="1" opacity="1"/><line transform="translate(270,0)" x2="0" y2="5" stroke="#888" stroke-width="1" opacity="1"/><line transform="translate(300,0)" x2="0" y2="5" stroke="#888" stroke-width="1" opacity="1"/><line transform="translate(330,0)" x2="0" y2="5" stroke="#888" stroke-width="1" opacity="1"/><line transform="translate(360,0)" x2="0" y2="5" stroke="#888" stroke-width="1" opacity="1"/><line transform="translate(390,0)" x2="0" y2="5" stroke="#888" stroke-width="1" opacity="1"/><line transform="translate(420,0)" x2="0" y2="5" stroke="#888" stroke-width="1" opacity="1"/><line transform="translate(450,0)" x2="0" y2="5" stroke="#888" stroke-width="1" opacity="1"/><line transform="translate(480,0)" x2="0" y2="5" stroke="#888" stroke-width="1" opacity="1"/><line transform="translate(510,0)" x2="0" y2="5" stroke="#888" stroke-width="1" opacity="1"/><line transform="translate(540,0)" x2="0" y2="5" stroke="#888" stroke-width="1" opacity="1"/><line transform="translate(570,0)" x2="0" y2="5" stroke="#888" stroke-width="1" opacity="1"/><line transform="translate(600,0)" x2="0" y2="5" stroke="#888" stroke-width="1" opacity="1"/></g><g class="mark-text role-axis-label" pointer-events="none"><text text-anchor="start" transform="translate(0,20)" font-family="Times New Roman" font-size="16px" fill="#000" opacity="1">0</text><text text-anchor="middle" transform="translate(30,20)" font-family="Times New Roman" font-size="16px" fill="#000" opacity="0">1M</text><text text-anchor="middle" transform="translate(60,20)" font-family="Times New Roman" font-size="16px" fill="#000" opacity="1">2M</text><text text-anchor="middle" transform="translate(90,20)" font-family="Times New Roman" font-size="16px" fill="#000" opacity="0">3M</text><text text-anchor="middle" transform="translate(120,20)" font-family="Times New Roman" font-size="16px" fill="#000" opacity="1">4M</text><text text-anchor="middle" transform="translate(150,20)" font-family="Times New Roman" font-size="16px" fill="#000" opacity="0">5M</text><text text-anchor="middle" transform="translate(180,20)" font-family="Times New Roman" font-size="16px" fill="#000" opacity="1">6M</text><text text-anchor="middle" transform="translate(210,20)" font-family="Times New Roman" font-size="16px" fill="#000" opacity="0">7M</text><text text-anchor="middle" transform="translate(240,20)" font-family="Times New Roman" font-size="16px" fill="#000" opacity="1">8M</text><text text-anchor="middle" transform="translate(270,20)" font-family="Times New Roman" font-size="16px" fill="#000" opacity="0">9M</text><text text-anchor="middle" transform="translate(300,20)" font-family="Times New Roman" font-size="16px" fill="#000" opacity="1">10M</text><text text-anchor="middle" transform="translate(330,20)" font-family="Times New Roman" font-size="16px" fill="#000" opacity="0">11M</text><text text-anchor="middle" transform="translate(360,20)" font-family="Times New Roman" font-size="16px" fill="#000" opacity="1">12M</text><text text-anchor="middle" transform="translate(390,20)" font-family="Times New Roman" font-size="16px" fill="#000" opacity="0">13M</text><text text-anchor="middle" transform="translate(420,20)" font-family="Times New Roman" font-size="16px" fill="#000" opacity="1">14M</text><text text-anchor="middle" transform="translate(450,20)" font-family="Times New Roman" font-size="16px" fill="#000" opacity="0">15M</text><text text-anchor="middle" transform="translate(480,20)" font-family="Times New Roman" font-size="16px" fill="#000" opacity="1">16M</text><text text-anchor="middle" transform="translate(510,20)" font-family="Times New Roman" font-size="16px" fill="#000" opacity="0">17M</text><text text-anchor="middle" transform="translate(540,20)" font-family="Times New Roman" font-size="16px" fill="#000" opacity="1">18M</text><text text-anchor="middle" transform="translate(570,20)" font-family="Times New Roman" font-size="16px" fill="#000" opacity="0">19M</text><text text-anchor="end" transform="translate(600,20)" font-family="Times New Roman" font-size="16px" fill="#000" opacity="1">20M</text></g><g class="mark-rule role-axis-domain" pointer-events="none"><line transform="translate(0,0)" x2="600" y2="0" stroke="#888" stroke-width="1" opacity="1"/></g><g class="mark-text role-axis-title" pointer-events="none"><text text-anchor="middle" transform="translate(300,43)" font-family="Times New Roman" font-size="20px" font-weight="bold" fill="#000" opacity="1">Number of environment steps</text></g></g><path class="foreground" aria-hidden="true" d="" pointer-events="none" display="none"/></g></g><g class="mark-group role-axis" role="graphics-symbol" aria-roledescription="axis" aria-label="Y-axis titled 'Dormant neuron ratio (%)' for a linear scale with values from 0 to 50"><g transform="translate(0.5,0.5)"><path class="background" aria-hidden="true" d="M0,0h0v0h0Z" pointer-events="none"/><g><g class="mark-rule role-axis-tick" pointer-events="none"><line transform="translate(0,400)" x2="-5" y2="0" stroke="#888" stroke-width="1" opacity="1"/><line transform="translate(0,360)" x2="-5" y2="0" stroke="#888" stroke-width="1" opacity="1"/><line transform="translate(0,320)" x2="-5" y2="0" stroke="#888" stroke-width="1" opacity="1"/><line transform="translate(0,280)" x2="-5" y2="0" stroke="#888" stroke-width="1" opacity="1"/><line transform="translate(0,240)" x2="-5" y2="0" stroke="#888" stroke-width="1" opacity="1"/><line transform="translate(0,200)" x2="-5" y2="0" stroke="#888" stroke-width="1" opacity="1"/><line transform="translate(0,160)" x2="-5" y2="0" stroke="#888" stroke-width="1" opacity="1"/><line transform="translate(0,120)" x2="-5" y2="0" stroke="#888" stroke-width="1" opacity="1"/><line transform="translate(0,80)" x2="-5" y2="0" stroke="#888" stroke-width="1" opacity="1"/><line transform="translate(0,40)" x2="-5" y2="0" stroke="#888" stroke-width="1" opacity="1"/><line transform="translate(0,0)" x2="-5" y2="0" stroke="#888" stroke-width="1" opacity="1"/></g><g class="mark-text role-axis-label" pointer-events="none"><text text-anchor="end" transform="translate(-7,405)" font-family="Times New Roman" font-size="16px" fill="#000" opacity="1">0</text><text text-anchor="end" transform="translate(-7,365)" font-family="Times New Roman" font-size="16px" fill="#000" opacity="1">5</text><text text-anchor="end" transform="translate(-7,325)" font-family="Times New Roman" font-size="16px" fill="#000" opacity="1">10</text><text text-anchor="end" transform="translate(-7,285)" font-family="Times New Roman" font-size="16px" fill="#000" opacity="1">15</text><text text-anchor="end" transform="translate(-7,245)" font-family="Times New Roman" font-size="16px" fill="#000" opacity="1">20</text><text text-anchor="end" transform="translate(-7,205)" font-family="Times New Roman" font-size="16px" fill="#000" opacity="1">25</text><text text-anchor="end" transform="translate(-7,165)" font-family="Times New Roman" font-size="16px" fill="#000" opacity="1">30</text><text text-anchor="end" transform="translate(-7,125.00000000000001)" font-family="Times New Roman" font-size="16px" fill="#000" opacity="1">35</text><text text-anchor="end" transform="translate(-7,84.99999999999999)" font-family="Times New Roman" font-size="16px" fill="#000" opacity="1">40</text><text text-anchor="end" transform="translate(-7,44.99999999999999)" font-family="Times New Roman" font-size="16px" fill="#000" opacity="1">45</text><text text-anchor="end" transform="translate(-7,5)" font-family="Times New Roman" font-size="16px" fill="#000" opacity="1">50</text></g><g class="mark-rule role-axis-domain" pointer-events="none"><line transform="translate(0,400)" x2="0" y2="-400" stroke="#888" stroke-width="1" opacity="1"/></g><g class="mark-text role-axis-title" pointer-events="none"><text text-anchor="middle" transform="translate(-27,200) rotate(-90) translate(0,-4)" font-family="Times New Roman" font-size="20px" font-weight="bold" fill="#000" opacity="1">Dormant neuron ratio (%)</text></g></g><path class="foreground" aria-hidden="true" d="" pointer-events="none" display="none"/></g></g><g class="mark-group role-scope layer_0_layer_0_pathgroup" role="graphics-object" aria-roledescription="group mark container"><g transform="translate(0,0)"><path class="background" aria-hidden="true" d="M0,0h600v400h-600Z"/><g><g class="mark-area role-mark layer_0_layer_0_marks" clip-path="url(#clip1)" role="graphics-object" aria-roledescription="area mark container"><path aria-label="Number of environment steps: 200.38k; Dormant neuron ratio (%): 8.86686216831; upper_Dormant neuron ratio: 10.5211591983; Width: 256; Ci1 of Dormant neuron ratio: 10.5211591983; Ci0 of Dormant neuron ratio: 8.86686216831; Mean of Dormant neuron ratio: 9.6875002861" role="graphics-symbol" aria-roledescription="errorband" d="M12.023,339.707C14.027,342.78,16.031,345.141,18.035,347.242C20.039,349.342,22.043,351.181,24.047,352.535C26.05,353.889,28.054,354.757,30.058,355.556C32.062,356.354,34.066,357.083,36.07,357.778C38.074,358.472,40.078,359.132,42.082,360.226C44.086,361.319,46.089,362.847,48.093,363.681C50.097,364.514,52.101,364.653,54.105,365.434C56.109,366.215,58.113,367.639,60.117,368.681C62.121,369.723,64.125,370.384,66.128,370.679C68.132,370.975,70.136,370.905,72.14,370.836C74.144,370.766,76.148,370.697,78.152,370.957C80.156,371.218,82.16,371.808,84.164,372.502C86.167,373.196,88.171,373.994,90.175,374.323C92.179,374.653,94.183,374.514,96.187,374.722C98.191,374.931,100.195,375.486,102.199,375.885C104.203,376.285,106.206,376.528,108.21,376.719C110.214,376.91,112.218,377.049,114.222,377.257C116.226,377.465,118.23,377.743,120.234,377.813C122.238,377.883,124.242,377.745,126.245,377.763C128.249,377.78,130.253,377.954,132.257,377.988C134.261,378.023,136.265,377.918,138.269,377.952C140.273,377.986,142.277,378.16,144.281,378.264C146.284,378.368,148.288,378.403,150.292,378.385C152.296,378.368,154.3,378.299,156.304,378.75C158.308,379.202,160.312,380.175,162.316,380.644C164.319,381.113,166.323,381.077,168.327,380.851C170.331,380.625,172.335,380.208,174.339,380.105C176.343,380.001,178.347,380.21,180.351,380.193C182.355,380.175,184.359,379.931,186.362,379.966C188.366,380.001,190.37,380.314,192.374,380.748C194.378,381.182,196.382,381.737,198.386,382.293C200.39,382.848,202.394,383.405,204.398,383.561C206.401,383.717,208.405,383.473,210.409,383.559C212.413,383.646,214.417,384.062,216.421,384.271C218.425,384.479,220.429,384.479,222.433,384.48C224.437,384.48,226.44,384.481,228.444,384.689C230.448,384.898,232.452,385.313,234.456,385.4C236.46,385.486,238.464,385.243,240.468,385.052C242.472,384.861,244.476,384.722,246.479,384.549C248.483,384.376,250.487,384.168,252.491,384.308C254.495,384.447,256.499,384.933,258.503,385.107C260.507,385.28,262.511,385.141,264.515,384.933C266.518,384.724,268.522,384.445,270.526,384.323C272.53,384.201,274.534,384.236,276.538,384.236C278.542,384.236,280.546,384.201,282.55,383.993C284.554,383.785,286.557,383.403,288.561,383.09C290.565,382.778,292.569,382.535,294.573,382.535C296.577,382.535,298.581,382.778,300.585,382.743C302.589,382.708,304.593,382.396,306.596,382.205C308.6,382.014,310.604,381.944,312.608,381.858C314.612,381.771,316.616,381.667,318.62,381.667C320.624,381.667,322.628,381.771,324.632,381.615C326.635,381.458,328.639,381.042,330.643,380.903C332.647,380.764,334.651,380.903,336.655,380.938C338.659,380.973,340.663,380.905,342.667,381.269C344.671,381.634,346.674,382.431,348.678,382.518C350.682,382.604,352.686,381.979,354.69,381.945C356.694,381.911,358.698,382.469,360.702,382.677C362.706,382.885,364.71,382.745,366.713,382.605C368.717,382.465,370.721,382.326,372.725,382.465C374.729,382.604,376.733,383.021,378.737,383.281C380.741,383.542,382.745,383.646,384.749,383.525C386.752,383.404,388.756,383.057,390.76,382.658C392.764,382.259,394.768,381.806,396.772,381.737C398.776,381.667,400.78,381.979,402.784,382.135C404.787,382.292,406.791,382.292,407.793,382.427C408.795,382.562,408.795,382.832,409.797,383.005C410.799,383.179,412.803,383.256,413.805,383.321C414.807,383.385,414.807,383.437,415.809,383.09C416.811,382.743,418.815,381.997,419.817,381.772C420.819,381.548,420.819,381.845,421.821,382.54C422.823,383.234,424.826,384.325,425.828,384.276C426.83,384.226,426.83,383.036,427.832,382.515C428.834,381.994,430.838,382.143,431.84,382.217C432.842,382.292,432.842,382.292,433.844,382.639C434.846,382.986,436.85,383.681,437.852,383.879C438.854,384.077,438.854,383.78,439.856,384.127C440.858,384.474,442.861,385.466,443.863,385.342C444.865,385.218,444.865,383.978,445.867,383.457C446.869,382.937,448.873,383.135,449.875,382.986C450.877,382.837,450.877,382.341,451.879,382.515C452.881,382.688,454.885,383.532,455.887,383.26C456.889,382.987,456.889,381.6,457.891,381.252C458.893,380.905,460.897,381.598,461.898,381.92C462.9,382.242,462.901,382.192,463.902,382.192C464.904,382.192,466.908,382.242,467.91,382.019C468.912,381.796,468.912,381.3,469.914,381.647C470.916,381.994,472.92,383.185,473.922,383.284C474.924,383.383,474.924,382.391,475.926,382.738C476.928,383.085,478.932,384.772,479.934,384.995C480.936,385.218,480.936,383.978,481.938,383.11C482.939,382.242,484.943,381.746,485.945,381.771C486.947,381.796,486.947,382.341,487.949,382.168C488.951,381.994,490.955,381.101,491.957,380.73C492.959,380.358,492.959,380.508,493.961,380.856C494.963,381.203,496.967,381.747,497.969,381.895C498.971,382.044,498.971,381.796,499.973,381.622C500.975,381.448,502.978,381.349,503.98,381.3C504.982,381.25,504.982,381.25,505.984,381.25C506.986,381.25,508.99,381.25,509.992,381.448C510.994,381.647,510.994,382.044,511.996,382.391C512.998,382.738,515.002,383.036,516.004,382.912C517.006,382.788,517.006,382.242,518.008,382.242C519.01,382.242,521.014,382.788,522.015,382.589C523.017,382.391,523.018,381.448,524.019,382.316C525.021,383.185,527.025,385.863,528.027,385.611C529.029,385.359,529.029,382.176,530.031,381.829C531.033,381.481,533.037,383.97,534.039,383.863C535.041,383.757,535.041,381.056,536.043,380.882C537.045,380.708,539.049,383.062,540.051,383.58C541.052,384.097,541.053,382.778,542.055,382.639C543.057,382.5,545.06,383.542,546.062,383.264C547.064,382.986,547.064,381.389,548.066,381.528C549.068,381.667,551.072,383.542,552.074,383.37C553.076,383.198,553.076,380.979,554.078,380.562C555.08,380.146,557.084,381.531,558.086,381.773C559.088,382.014,559.088,381.111,560.09,380.972C561.092,380.833,563.095,381.458,564.097,381.632C565.099,381.806,565.099,381.528,566.101,381.25C567.103,380.972,569.107,380.694,570.109,380.521C571.111,380.347,571.111,380.278,572.113,380.175C573.115,380.073,575.119,379.937,576.121,380.251C577.123,380.564,577.123,381.326,578.125,382.06C579.127,382.794,581.13,383.5,582.132,381.798C583.134,380.095,583.135,375.985,584.136,376.071C585.138,376.157,587.142,380.44,588.144,380.179C589.146,379.919,589.146,375.116,590.148,375.058C591.15,375,593.154,379.687,594.156,379.601L594.156,369.589C593.154,369.329,591.15,367.998,590.148,368.432C589.146,368.866,589.146,371.065,588.144,370.761C587.142,370.457,585.138,367.65,584.136,367.274C583.135,366.898,583.134,368.953,582.132,369.36C581.13,369.767,579.127,368.527,578.125,367.907C577.123,367.288,577.123,367.29,576.121,367.569C575.119,367.847,573.115,368.403,572.113,368.507C571.111,368.611,571.111,368.264,570.109,367.986C569.107,367.708,567.103,367.5,566.101,367.743C565.099,367.986,565.099,368.681,564.097,368.125C563.095,367.569,561.092,365.764,560.09,365.486C559.088,365.208,559.088,366.458,558.086,366.493C557.084,366.528,555.08,365.347,554.078,365.451C553.076,365.556,553.076,366.944,552.074,367.014C551.072,367.083,549.068,365.833,548.066,365.417C547.064,365,547.064,365.417,546.062,366.076C545.06,366.736,543.057,367.639,542.055,367.778C541.053,367.917,541.052,367.292,540.051,367.049C539.049,366.806,537.045,366.944,536.043,367.431C535.041,367.917,535.041,368.75,534.039,368.391C533.037,368.032,531.033,366.481,530.031,366.907C529.029,367.332,529.029,369.734,528.027,369.85C527.025,369.965,525.021,367.795,524.019,367.578C523.018,367.361,523.017,369.097,522.015,369.418C521.014,369.738,519.01,368.643,518.008,368.991C517.006,369.338,517.006,371.127,516.004,370.856C515.002,370.585,512.998,368.254,511.996,367.733C510.994,367.212,510.994,368.502,509.992,368.651C508.99,368.8,506.986,367.808,505.984,367.46C504.982,367.113,504.982,367.411,503.98,367.312C502.978,367.212,500.975,366.716,499.973,367.237C498.971,367.758,498.971,369.296,497.969,368.924C496.967,368.552,494.963,366.27,493.961,365.923C492.959,365.575,492.959,367.163,491.957,367.386C490.955,367.609,488.951,366.468,487.949,366.295C486.947,366.121,486.947,366.915,485.945,366.989C484.943,367.063,482.939,366.419,481.938,366.592C480.936,366.766,480.936,367.758,479.934,367.708C478.932,367.657,476.928,366.565,475.926,367.259C474.924,367.954,474.924,370.435,473.922,370.262C472.92,370.089,470.916,367.262,469.914,367.783C468.912,368.304,468.912,372.173,467.91,372.594C466.908,373.015,464.904,369.988,463.902,369.64C462.901,369.293,462.9,371.626,461.898,371.478C460.897,371.329,458.893,368.7,457.891,369.395C456.889,370.089,456.889,374.107,455.887,373.785C454.885,373.462,452.881,368.8,451.879,369.32C450.877,369.841,450.877,375.546,449.875,375.595C448.873,375.644,446.869,370.037,445.867,368.996C444.865,367.954,444.865,371.477,443.863,371.626C442.861,371.775,440.858,368.549,439.856,368.375C438.854,368.202,438.854,371.08,437.852,370.932C436.85,370.784,434.846,367.609,433.844,367.609C432.842,367.609,432.842,370.784,431.84,370.932C430.838,371.08,428.834,368.202,427.832,367.681C426.83,367.16,426.83,368.997,425.828,369.196C424.826,369.395,422.823,367.956,421.821,367.609C420.819,367.262,420.819,368.006,419.817,367.956C418.815,367.906,416.811,367.061,415.809,366.887C414.807,366.714,414.807,367.211,413.805,367.845C412.803,368.48,410.799,369.252,409.797,371.682C408.795,374.113,408.795,378.202,407.793,378.388C406.791,378.575,404.787,374.858,402.784,372.895C400.78,370.933,398.776,370.726,396.772,370.727C394.768,370.727,392.764,370.937,390.76,370.902C388.756,370.867,386.752,370.589,384.749,370.71C382.745,370.832,380.741,371.353,378.737,371.493C376.733,371.632,374.729,371.389,372.725,371.424C370.721,371.458,368.717,371.771,366.713,371.823C364.71,371.875,362.706,371.667,360.702,371.458C358.698,371.25,356.694,371.042,354.69,371.336C352.686,371.631,350.682,372.429,348.678,372.393C346.674,372.358,344.671,371.489,342.667,371.402C340.663,371.316,338.659,372.012,336.655,372.204C334.651,372.396,332.647,372.083,330.643,372.205C328.639,372.326,326.635,372.882,324.632,372.864C322.628,372.846,320.624,372.255,318.62,371.891C316.616,371.526,314.612,371.388,312.608,371.492C310.604,371.596,308.6,371.943,306.596,372.273C304.593,372.602,302.589,372.916,300.585,373.003C298.581,373.089,296.577,372.95,294.573,373.054C292.569,373.158,290.565,373.506,288.561,373.975C286.557,374.444,284.554,375.035,282.55,375.191C280.546,375.347,278.542,375.069,276.538,374.826C274.534,374.583,272.53,374.375,270.526,374.461C268.522,374.546,266.518,374.925,264.515,375.116C262.511,375.306,260.507,375.308,258.503,375.152C256.499,374.997,254.495,374.683,252.491,374.527C250.487,374.371,248.483,374.372,246.479,374.598C244.476,374.825,242.472,375.277,240.468,375.416C238.464,375.556,236.46,375.382,234.456,375.208C232.452,375.035,230.448,374.861,228.444,374.704C226.44,374.548,224.437,374.408,222.433,374.391C220.429,374.373,218.425,374.478,216.421,374.409C214.417,374.34,212.413,374.097,210.409,373.923C208.405,373.749,206.401,373.644,204.398,373.54C202.394,373.436,200.39,373.332,198.386,373.159C196.382,372.985,194.378,372.741,192.374,372.498C190.37,372.254,188.366,372.011,186.362,371.664C184.359,371.318,182.355,370.867,180.351,370.59C178.347,370.312,176.343,370.208,174.339,370.139C172.335,370.069,170.331,370.035,168.327,369.983C166.323,369.931,164.319,369.861,162.316,369.566C160.312,369.271,158.308,368.75,156.304,368.385C154.3,368.02,152.296,367.811,150.292,367.776C148.288,367.741,146.284,367.881,144.281,367.881C142.277,367.881,140.273,367.741,138.269,367.776C136.265,367.81,134.261,368.018,132.257,368.001C130.253,367.984,128.249,367.742,126.245,367.743C124.242,367.743,122.238,367.986,120.234,367.899C118.23,367.812,116.226,367.396,114.222,367.344C112.218,367.292,110.214,367.604,108.21,367.726C106.206,367.847,104.203,367.778,102.199,367.569C100.195,367.36,98.191,367.012,96.187,366.526C94.183,366.04,92.179,365.416,90.175,364.982C88.171,364.549,86.167,364.306,84.164,364.045C82.16,363.785,80.156,363.507,78.152,363.351C76.148,363.194,74.144,363.16,72.14,362.934C70.136,362.708,68.132,362.292,66.128,361.597C64.125,360.903,62.121,359.931,60.117,359.115C58.113,358.299,56.109,357.639,54.105,356.84C52.101,356.042,50.097,355.104,48.093,353.923C46.089,352.742,44.086,351.318,42.082,350.276C40.078,349.234,38.074,348.576,36.07,347.968C34.066,347.361,32.062,346.806,30.058,345.764C28.054,344.722,26.05,343.194,24.047,341.372C22.043,339.549,20.039,337.431,18.035,334.809C16.031,332.187,14.027,329.062,12.023,325.816Z" fill="#FF5F33" opacity="0.3"/></g></g><path class="foreground" aria-hidden="true" d="" display="none"/></g><g transform="translate(0,0)"><path class="background" aria-hidden="true" d="M0,0h600v400h-600Z"/><g><g class="mark-area role-mark layer_0_layer_0_marks" clip-path="url(#clip2)" role="graphics-object" aria-roledescription="area mark container"><path aria-label="Number of environment steps: 200.38k; Dormant neuron ratio (%): 10.3841149306; upper_Dormant neuron ratio: 11.6407881355; Width: 512; Ci1 of Dormant neuron ratio: 11.6407881355; Ci0 of Dormant neuron ratio: 10.3841149306; Mean of Dormant neuron ratio: 11.0221357346" role="graphics-symbol" aria-roledescription="errorband" d="M12.023,333.413C14.027,338.336,16.031,342.399,18.035,345.585C20.039,348.77,22.043,351.079,24.047,352.849C26.05,354.619,28.054,355.851,30.058,357.188C32.062,358.524,34.066,359.965,36.07,361.424C38.074,362.882,40.078,364.358,42.082,365.773C44.086,367.187,46.089,368.542,48.093,369.8C50.097,371.059,52.101,372.222,54.105,373.09C56.109,373.958,58.113,374.531,60.117,375.243C62.121,375.955,64.125,376.806,66.128,377.484C68.132,378.161,70.136,378.664,72.14,379.054C74.144,379.445,76.148,379.723,78.152,380.027C80.156,380.331,82.16,380.66,84.164,380.99C86.167,381.32,88.171,381.65,90.175,381.728C92.179,381.806,94.183,381.632,96.187,381.823C98.191,382.014,100.195,382.569,102.199,382.76C104.203,382.951,106.206,382.778,108.21,382.96C110.214,383.142,112.218,383.681,114.222,384.175C116.226,384.67,118.23,385.122,120.234,385.286C122.238,385.451,124.242,385.33,126.245,385.252C128.249,385.174,130.253,385.139,132.257,385.313C134.261,385.487,136.265,385.869,138.269,386.034C140.273,386.199,142.277,386.146,144.281,386.268C146.284,386.389,148.288,386.684,150.292,386.701C152.296,386.719,154.3,386.458,156.304,386.268C158.308,386.077,160.312,385.956,162.316,386.008C164.319,386.06,166.323,386.286,168.327,386.321C170.331,386.355,172.335,386.198,174.339,385.955C176.343,385.712,178.347,385.383,180.351,385.409C182.355,385.435,184.359,385.816,186.362,385.808C188.366,385.799,190.37,385.399,192.374,385.286C194.378,385.174,196.382,385.347,198.386,385.182C200.39,385.017,202.394,384.514,204.398,384.262C206.401,384.01,208.405,384.01,210.409,384.019C212.413,384.028,214.417,384.045,216.421,383.915C218.425,383.785,220.429,383.507,222.433,383.438C224.437,383.369,226.44,383.509,228.444,383.5C230.448,383.492,232.452,383.335,234.456,383.074C236.46,382.813,238.464,382.448,240.468,382.275C242.472,382.101,244.476,382.119,246.479,382.171C248.483,382.224,250.487,382.31,252.491,382.241C254.495,382.171,256.499,381.946,258.503,381.711C260.507,381.477,262.511,381.233,264.515,381.112C266.518,380.99,268.522,380.991,270.526,380.913C272.53,380.835,274.534,380.678,276.538,380.513C278.542,380.348,280.546,380.174,282.55,380.175C284.554,380.175,286.557,380.349,288.561,380.644C290.565,380.939,292.569,381.355,294.573,381.39C296.577,381.424,298.581,381.077,300.585,380.991C302.589,380.904,304.593,381.078,306.596,380.93C308.6,380.782,310.604,380.313,312.608,379.905C314.612,379.497,316.616,379.15,318.62,378.924C320.624,378.699,322.628,378.594,324.632,378.265C326.635,377.935,328.639,377.38,330.643,377.241C332.647,377.102,334.651,377.379,336.655,377.457C338.659,377.535,340.663,377.413,342.667,377.223C344.671,377.032,346.674,376.773,348.678,376.304C350.682,375.836,352.686,375.158,354.69,374.402C356.694,373.647,358.698,372.813,360.702,372.622C362.706,372.431,364.71,372.882,366.713,373.238C368.717,373.595,370.721,373.856,372.725,374.082C374.729,374.308,376.733,374.498,378.737,374.446C380.741,374.393,382.745,374.098,384.749,373.889C386.752,373.681,388.756,373.56,390.76,373.308C392.764,373.056,394.768,372.674,396.772,372.466C398.776,372.257,400.78,372.223,402.784,372.163C404.787,372.102,406.791,372.015,408.795,371.894C410.799,371.772,412.803,371.616,414.807,371.13C416.811,370.643,418.815,369.827,420.819,369.584C422.823,369.34,424.826,369.67,426.83,369.835C428.834,370,430.838,370,432.842,370.295C434.846,370.591,436.85,371.181,438.854,371.234C440.858,371.286,442.862,370.801,444.865,370.645C446.869,370.488,448.873,370.661,450.877,370.462C452.881,370.262,454.885,369.689,456.889,369.429C458.893,369.169,460.897,369.222,462.901,368.979C464.904,368.736,466.908,368.197,468.912,367.832C470.916,367.467,472.92,367.276,474.924,367.197C476.928,367.119,478.932,367.154,480.936,367.085C482.94,367.015,484.944,366.842,486.947,366.494C488.951,366.147,490.955,365.625,492.959,365.304C494.963,364.983,496.967,364.862,498.971,364.801C500.975,364.74,502.979,364.74,504.983,364.48C506.986,364.219,508.99,363.699,510.994,363.595C512.998,363.492,515.002,363.805,517.006,363.961C519.01,364.117,521.014,364.116,523.018,364.029C525.022,363.941,527.025,363.768,529.029,363.647C531.033,363.526,533.037,363.456,535.041,363.361C537.045,363.265,539.049,363.144,541.053,362.944C543.057,362.745,545.06,362.467,547.064,362.077C549.068,361.686,551.072,361.182,553.076,360.957C555.08,360.731,557.084,360.783,559.088,360.601C561.092,360.418,563.096,360.001,565.099,359.792C567.103,359.584,569.107,359.584,571.111,359.359C573.115,359.133,575.119,358.681,577.123,358.577C579.127,358.472,581.131,358.715,583.135,359.106C585.139,359.497,587.142,360.036,589.146,359.915L589.146,347.829C587.142,348.072,585.139,348.593,583.135,348.585C581.131,348.576,579.127,348.038,577.123,347.561C575.119,347.083,573.115,346.667,571.111,346.771C569.107,346.875,567.103,347.5,565.099,348.377C563.096,349.253,561.092,350.381,559.088,350.771C557.084,351.161,555.08,350.813,553.076,350.883C551.072,350.952,549.068,351.44,547.064,351.605C545.06,351.771,543.057,351.615,541.053,351.84C539.049,352.066,537.045,352.673,535.041,352.881C533.037,353.089,531.033,352.898,529.029,352.672C527.025,352.446,525.022,352.185,523.018,352.089C521.014,351.993,519.01,352.062,517.006,352.349C515.002,352.636,512.998,353.14,510.994,353.419C508.99,353.697,506.986,353.75,504.983,353.967C502.979,354.184,500.975,354.565,498.971,355.016C496.967,355.467,494.963,355.987,492.959,356.335C490.955,356.682,488.951,356.857,486.947,357.126C484.944,357.395,482.94,357.76,480.936,357.916C478.932,358.072,476.928,358.02,474.924,358.081C472.92,358.141,470.916,358.316,468.912,358.611C466.908,358.906,464.904,359.322,462.901,359.452C460.897,359.582,458.893,359.425,456.889,359.503C454.885,359.582,452.881,359.895,450.877,359.939C448.873,359.982,446.869,359.756,444.865,359.504C442.862,359.252,440.858,358.974,438.854,359.009C436.85,359.044,434.846,359.391,432.842,359.903C430.838,360.416,428.834,361.093,426.83,361.102C424.826,361.111,422.823,360.451,420.819,360.424C418.815,360.398,416.811,361.007,414.807,361.597C412.803,362.187,410.799,362.76,408.795,362.708C406.791,362.656,404.787,361.978,402.784,361.882C400.78,361.786,398.776,362.272,396.772,362.585C394.768,362.897,392.764,363.036,390.76,363.384C388.756,363.732,386.752,364.288,384.749,364.748C382.745,365.208,380.741,365.572,378.737,365.867C376.733,366.161,374.729,366.387,372.725,366.326C370.721,366.265,368.717,365.918,366.713,365.797C364.71,365.676,362.706,365.78,360.702,366.084C358.698,366.388,356.694,366.891,354.69,367.308C352.686,367.725,350.682,368.055,348.678,368.307C346.674,368.559,344.671,368.732,342.667,368.844C340.663,368.956,338.659,369.007,336.655,369.041C334.651,369.076,332.647,369.095,330.643,369.477C328.639,369.86,326.635,370.607,324.632,370.902C322.628,371.197,320.624,371.04,318.62,371.135C316.616,371.23,314.612,371.578,312.608,372.012C310.604,372.446,308.6,372.967,306.596,373.21C304.593,373.453,302.589,373.418,300.585,373.645C298.581,373.871,296.577,374.357,294.573,374.453C292.569,374.549,290.565,374.253,288.561,374.331C286.557,374.409,284.554,374.859,282.55,375.024C280.546,375.189,278.542,375.069,276.538,375.164C274.534,375.26,272.53,375.573,270.526,375.651C268.522,375.729,266.518,375.572,264.515,375.607C262.511,375.641,260.507,375.868,258.503,376.094C256.499,376.319,254.495,376.545,252.491,376.658C250.487,376.77,248.483,376.77,246.479,376.952C244.476,377.134,242.472,377.499,240.468,377.612C238.464,377.725,236.46,377.586,234.456,377.708C232.452,377.83,230.448,378.212,228.444,378.42C226.44,378.628,224.437,378.663,222.433,378.819C220.429,378.975,218.425,379.252,216.421,379.165C214.417,379.078,212.413,378.628,210.409,378.602C208.405,378.576,206.401,378.976,204.398,379.349C202.394,379.722,200.39,380.069,198.386,380.182C196.382,380.295,194.378,380.174,192.374,380.286C190.37,380.399,188.366,380.747,186.362,380.99C184.359,381.233,182.355,381.372,180.351,381.64C178.347,381.909,176.343,382.308,174.339,382.395C172.335,382.482,170.331,382.257,168.327,382.092C166.323,381.927,164.319,381.822,162.316,381.787C160.312,381.753,158.308,381.788,156.304,381.927C154.3,382.066,152.296,382.308,150.292,382.317C148.288,382.326,146.284,382.1,144.281,382.04C142.277,381.979,140.273,382.083,138.269,381.927C136.265,381.771,134.261,381.354,132.257,381.267C130.253,381.181,128.249,381.424,126.245,381.632C124.242,381.84,122.238,382.014,120.234,382.023C118.23,382.031,116.226,381.875,114.222,381.476C112.218,381.076,110.214,380.434,108.21,380.217C106.206,380,104.203,380.208,102.199,379.905C100.195,379.601,98.191,378.785,96.187,378.368C94.183,377.951,92.179,377.934,90.175,377.665C88.171,377.396,86.167,376.875,84.164,376.354C82.16,375.833,80.156,375.312,78.152,374.722C76.148,374.132,74.144,373.472,72.14,372.873C70.136,372.274,68.132,371.736,66.128,370.903C64.125,370.069,62.121,368.941,60.117,367.891C58.113,366.84,56.109,365.868,54.105,364.792C52.101,363.715,50.097,362.535,48.093,361.267C46.089,360,44.086,358.646,42.082,357.317C40.078,355.989,38.074,354.687,36.07,353.298C34.066,351.908,32.062,350.433,30.058,348.896C28.054,347.359,26.05,345.762,24.047,343.808C22.043,341.855,20.039,339.545,18.035,336.003C16.031,332.461,14.027,327.686,12.023,322.626Z" fill="#FF4B33" opacity="0.3"/></g></g><path class="foreground" aria-hidden="true" d="" display="none"/></g><g transform="translate(0,0)"><path class="background" aria-hidden="true" d="M0,0h600v400h-600Z"/><g><g class="mark-area role-mark layer_0_layer_0_marks" clip-path="url(#clip3)" role="graphics-object" aria-roledescription="area mark container"><path aria-label="Number of environment steps: 200.38k; Dormant neuron ratio (%): 12.5195317245; upper_Dormant neuron ratio: 14.5508629155; Width: 1024; Ci1 of Dormant neuron ratio: 14.5508629155; Ci0 of Dormant neuron ratio: 12.5195317245; Mean of Dormant neuron ratio: 13.684896183" role="graphics-symbol" aria-roledescription="errorband" d="M12.023,318.486C14.027,323.69,16.031,327.379,18.035,331.121C20.039,334.862,22.043,338.656,24.047,341.946C26.05,345.236,28.054,348.023,30.058,350.87C32.062,353.717,34.066,356.624,36.07,358.681C38.074,360.738,40.078,361.946,42.082,363.252C44.086,364.559,46.089,365.964,48.093,367.236C50.097,368.507,52.101,369.644,54.105,370.504C56.109,371.364,58.113,371.946,60.117,372.524C62.121,373.101,64.125,373.673,66.128,374.051C68.132,374.428,70.136,374.61,72.14,374.745C74.144,374.88,76.148,374.966,78.152,375.122C80.156,375.278,82.16,375.504,84.164,375.491C86.167,375.478,88.171,375.226,90.175,375.209C92.179,375.191,94.183,375.408,96.187,375.586C98.191,375.765,100.195,375.904,102.199,375.9C104.203,375.895,106.206,375.747,108.21,375.938C110.214,376.129,112.218,376.658,114.222,376.771C116.226,376.884,118.23,376.581,120.234,376.211C122.238,375.842,124.242,375.408,126.245,375.231C128.249,375.053,130.253,375.133,132.257,375.203C134.261,375.272,136.265,375.332,138.269,375.441C140.273,375.549,142.277,375.706,144.281,375.368C146.284,375.029,148.288,374.194,150.292,374.016C152.296,373.837,154.3,374.315,156.304,374.276C158.308,374.237,160.312,373.681,162.316,373.46C164.319,373.238,166.323,373.351,168.327,373.143C170.331,372.935,172.335,372.407,174.339,372.321C176.343,372.236,178.347,372.592,180.351,372.501C182.355,372.41,184.359,371.871,186.362,371.362C188.366,370.853,190.37,370.375,192.374,370.123C194.378,369.871,196.382,369.844,198.386,369.371C200.39,368.899,202.394,367.98,204.398,367.355C206.401,366.73,208.405,366.399,210.409,366.381C212.413,366.363,214.417,366.658,216.421,366.415C218.425,366.172,220.429,365.391,222.433,364.65C224.437,363.909,226.44,363.208,228.444,362.609C230.448,362.011,232.452,361.514,234.456,361.018C236.46,360.522,238.464,360.027,240.468,359.754C242.472,359.48,244.476,359.429,246.479,359.142C248.483,358.855,250.487,358.334,252.491,357.804C254.495,357.275,256.499,356.737,258.503,356.537C260.507,356.337,262.511,356.476,264.515,355.995C266.518,355.513,268.522,354.411,270.526,353.634C272.53,352.857,274.534,352.405,276.538,351.837C278.542,351.268,280.546,350.582,282.55,350.396C284.554,350.209,286.557,350.521,288.561,350.617C290.565,350.714,292.569,350.594,294.573,350.051C296.577,349.509,298.581,348.544,300.585,347.797C302.589,347.049,304.593,346.52,306.596,345.991C308.6,345.461,310.604,344.931,312.608,344.515C314.612,344.098,316.616,343.794,318.62,343.434C320.624,343.073,322.628,342.656,324.632,342.314C326.635,341.972,328.639,341.705,330.643,341.102C332.647,340.498,334.651,339.559,336.655,339.346C338.659,339.133,340.663,339.646,342.667,339.477C344.671,339.308,346.674,338.457,348.678,338.145C350.682,337.832,352.686,338.058,354.69,337.741C356.694,337.424,358.698,336.564,360.702,335.774C362.706,334.985,364.71,334.265,366.713,333.983C368.717,333.701,370.721,333.857,372.725,333.691C374.729,333.526,376.733,333.04,378.737,332.857C380.741,332.675,382.745,332.796,384.749,332.084C386.752,331.372,388.756,329.826,390.76,328.729C392.764,327.632,394.768,326.983,396.772,326.41C398.776,325.837,400.78,325.341,402.784,324.663C404.787,323.985,406.791,323.127,408.795,322.719C410.799,322.311,412.803,322.354,414.807,322.292C416.811,322.231,418.815,322.066,420.819,321.55C422.823,321.034,424.826,320.166,426.83,320.015C428.834,319.863,430.838,320.428,432.842,320.111C434.846,319.794,436.85,318.595,438.854,317.861C440.858,317.127,442.862,316.859,444.865,316.811C446.869,316.764,448.873,316.937,450.877,316.438C452.881,315.938,454.885,314.767,456.889,314.346C458.893,313.925,460.897,314.255,462.901,314.398C464.904,314.541,466.908,314.497,468.912,313.838C470.916,313.178,472.92,311.902,474.924,311.038C476.928,310.174,478.932,309.723,480.936,309.389C482.94,309.055,484.944,308.838,486.947,308.565C488.951,308.293,490.955,307.963,492.959,307.611C494.963,307.26,496.967,306.885,498.971,306.655C500.975,306.426,502.979,306.341,504.983,305.968C506.986,305.595,508.99,304.934,510.994,304.079C512.998,303.224,515.002,302.174,517.006,301.596C519.01,301.019,521.014,300.914,523.018,301.158C525.022,301.401,527.025,301.993,529.029,301.733C531.033,301.472,533.037,300.36,535.041,299.664C537.045,298.969,539.049,298.691,541.053,298.018C543.057,297.345,545.06,296.278,547.064,295.97C549.068,295.662,551.072,296.112,553.076,296.169C555.08,296.225,557.084,295.886,559.088,295.192C561.092,294.497,563.096,293.447,565.099,293.061C567.103,292.675,569.107,292.954,571.111,293.124C573.115,293.293,575.119,293.354,577.123,292.954C579.127,292.554,581.131,291.694,583.135,291.264C585.139,290.834,587.142,290.835,589.146,291.052L589.146,268.209C587.142,268.193,585.139,268.497,583.135,269.027C581.131,269.557,579.127,270.312,577.123,270.768C575.119,271.224,573.115,271.379,571.111,270.884C569.107,270.389,567.103,269.243,565.099,269.152C563.096,269.061,561.092,270.024,559.088,270.731C557.084,271.439,555.08,271.89,553.076,271.86C551.072,271.83,549.068,271.317,547.064,271.604C545.06,271.891,543.057,272.976,541.053,274.269C539.049,275.562,537.045,277.063,535.041,278.009C533.037,278.954,531.033,279.346,529.029,279.472C527.025,279.598,525.022,279.459,523.018,279.568C521.014,279.676,519.01,280.033,517.006,280.35C515.002,280.667,512.998,280.945,510.994,281.816C508.99,282.688,506.986,284.154,504.983,284.848C502.979,285.542,500.975,285.464,498.971,285.685C496.967,285.907,494.963,286.429,492.959,286.508C490.955,286.587,488.951,286.223,486.947,286.518C484.944,286.812,482.94,287.766,480.936,288.344C478.932,288.921,476.928,289.122,474.924,289.634C472.92,290.147,470.916,290.971,468.912,291.726C466.908,292.481,464.904,293.166,462.901,293.679C460.897,294.191,458.893,294.53,456.889,295.094C454.885,295.658,452.881,296.447,450.877,296.594C448.873,296.742,446.869,296.249,444.865,296.362C442.862,296.475,440.858,297.195,438.854,297.95C436.85,298.706,434.846,299.496,432.842,299.756C430.838,300.017,428.834,299.748,426.83,300.117C424.826,300.486,422.823,301.492,420.819,302.03C418.815,302.568,416.811,302.638,414.807,302.615C412.803,302.592,410.799,302.477,408.795,302.858C406.791,303.239,404.787,304.117,402.784,304.812C400.78,305.507,398.776,306.021,396.772,306.382C394.768,306.742,392.764,306.951,390.76,307.819C388.756,308.687,386.752,310.215,384.749,310.641C382.745,311.067,380.741,310.39,378.737,310.111C376.733,309.832,374.729,309.951,372.725,310.432C370.721,310.912,368.717,311.755,366.713,312.169C364.71,312.582,362.706,312.566,360.702,312.776C358.698,312.985,356.694,313.419,354.69,314.044C352.686,314.669,350.682,315.486,348.678,315.993C346.674,316.501,344.671,316.701,342.667,316.83C340.663,316.96,338.659,317.02,336.655,317.428C334.651,317.836,332.647,318.591,330.643,319.19C328.639,319.789,326.635,320.231,324.632,320.222C322.628,320.213,320.624,319.752,318.62,319.783C316.616,319.814,314.612,320.336,312.608,320.718C310.604,321.1,308.6,321.342,306.596,321.692C304.593,322.043,302.589,322.502,300.585,323.063C298.581,323.624,296.577,324.286,294.573,324.789C292.569,325.291,290.565,325.635,288.561,325.491C286.557,325.347,284.554,324.715,282.55,324.681C280.546,324.647,278.542,325.212,276.538,325.769C274.534,326.325,272.53,326.873,270.526,327.382C268.522,327.89,266.518,328.358,264.515,328.584C262.511,328.809,260.507,328.792,258.503,328.909C256.499,329.026,254.495,329.278,252.491,329.207C250.487,329.136,248.483,328.743,246.479,328.83C244.476,328.917,242.472,329.484,240.468,329.202C238.464,328.92,236.46,327.789,234.456,327.589C232.452,327.389,230.448,328.121,228.444,328.825C226.44,329.529,224.437,330.206,222.433,330.579C220.429,330.952,218.425,331.021,216.421,330.323C214.417,329.624,212.413,328.156,210.409,327.484C208.405,326.811,206.401,326.934,204.398,327.32C202.394,327.706,200.39,328.355,198.386,328.446C196.382,328.538,194.378,328.071,192.374,327.746C190.37,327.421,188.366,327.238,186.362,327.277C184.359,327.316,182.355,327.576,180.351,327.702C178.347,327.827,176.343,327.817,174.339,327.8C172.335,327.783,170.331,327.758,168.327,327.403C166.323,327.048,164.319,326.362,162.316,326.101C160.312,325.84,158.308,326.004,156.304,326.237C154.3,326.47,152.296,326.771,150.292,326.537C148.288,326.303,146.284,325.532,144.281,324.769C142.277,324.005,140.273,323.248,138.269,322.336C136.265,321.424,134.261,320.357,132.257,319.897C130.253,319.438,128.249,319.586,126.245,319.845C124.242,320.104,122.238,320.472,120.234,321.256C118.23,322.041,116.226,323.241,114.222,324.88C112.218,326.519,110.214,328.596,108.21,331.224C106.206,333.852,104.203,337.03,102.199,339.014C100.195,340.998,98.191,341.788,96.187,342.912C94.183,344.036,92.179,345.493,90.175,347.108C88.171,348.722,86.167,350.494,84.164,352.252C82.16,354.01,80.156,355.755,78.152,356.783C76.148,357.811,74.144,358.122,72.14,358.53C70.136,358.938,68.132,359.442,66.128,359.599C64.125,359.756,62.121,359.565,60.117,358.818C58.113,358.071,56.109,356.769,54.105,354.734C52.101,352.698,50.097,349.929,48.093,349.039C46.089,348.149,44.086,349.138,42.082,348.608C40.078,348.079,38.074,346.032,36.07,343.354C34.066,340.676,32.062,337.368,30.058,334.273C28.054,331.177,26.05,328.294,24.047,325.408C22.043,322.523,20.039,319.634,18.035,315.928C16.031,312.222,14.027,307.698,12.023,302.173Z" fill="#E0392D" opacity="0.3"/></g></g><path class="foreground" aria-hidden="true" d="" display="none"/></g><g transform="translate(0,0)"><path class="background" aria-hidden="true" d="M0,0h600v400h-600Z"/><g><g class="mark-area role-mark layer_0_layer_0_marks" clip-path="url(#clip4)" role="graphics-object" aria-roledescription="area mark container"><path aria-label="Number of environment steps: 200.38k; Dormant neuron ratio (%): 18.0094406128; upper_Dormant neuron ratio: 19.7591150284; Width: 2048; Ci1 of Dormant neuron ratio: 19.7591150284; Ci0 of Dormant neuron ratio: 18.0094406128; Mean of Dormant neuron ratio: 18.8183597565" role="graphics-symbol" aria-roledescription="errorband" d="M12.023,283.484C14.027,290.999,16.031,296.008,18.035,300.646C20.039,305.285,22.043,309.552,24.047,313.463C26.05,317.373,28.054,320.927,30.058,323.409C32.062,325.891,34.066,327.302,36.07,328.415C38.074,329.528,40.078,330.344,42.082,331.11C44.086,331.876,46.089,332.592,48.093,333.143C50.097,333.695,52.101,334.081,54.105,334.384C56.109,334.686,58.113,334.904,60.117,335.082C62.121,335.26,64.125,335.399,66.128,335.192C68.132,334.985,70.136,334.433,72.14,333.83C74.144,333.226,76.148,332.572,78.152,331.677C80.156,330.783,82.16,329.65,84.164,328.718C86.167,327.787,88.171,327.058,90.175,326.442C92.179,325.826,94.183,325.323,96.187,324.657C98.191,323.991,100.195,323.162,102.199,322.537C104.203,321.912,106.206,321.491,108.21,321.411C110.214,321.331,112.218,321.591,114.222,321.244C116.226,320.898,118.23,319.944,120.234,319.211C122.238,318.477,124.242,317.963,126.245,317.628C128.249,317.293,130.253,317.137,132.257,316.818C134.261,316.499,136.265,316.017,138.269,315.694C140.273,315.371,142.277,315.207,144.281,314.754C146.284,314.3,148.288,313.558,150.292,312.902C152.296,312.247,154.3,311.677,156.304,310.876C158.308,310.075,160.312,309.043,162.316,307.924C164.319,306.805,166.323,305.599,168.327,304.306C170.331,303.012,172.335,301.631,174.339,300.582C176.343,299.533,178.347,298.816,180.351,298.117C182.355,297.419,184.359,296.738,186.362,295.705C188.366,294.672,190.37,293.287,192.374,292.035C194.378,290.784,196.382,289.665,198.386,289.007C200.39,288.349,202.394,288.153,204.398,287.862C206.401,287.571,208.405,287.185,210.409,286.027C212.413,284.868,214.417,282.936,216.421,281.51C218.425,280.084,220.429,279.164,222.433,278.498C224.437,277.832,226.44,277.421,228.444,276.806C230.448,276.192,232.452,275.375,234.456,274.699C236.46,274.024,238.464,273.49,240.468,272.323C242.472,271.157,244.476,269.357,246.479,268.2C248.483,267.044,250.487,266.531,252.491,265.658C254.495,264.785,256.499,263.552,258.503,262.474C260.507,261.396,262.511,260.474,264.515,259.197C266.518,257.921,268.522,256.291,270.526,255.329C272.53,254.366,274.534,254.071,276.538,253.445C278.542,252.818,280.546,251.861,282.55,251.121C284.554,250.381,286.557,249.859,288.561,249.262C290.565,248.665,292.569,247.993,294.573,247.005C296.577,246.018,298.581,244.715,300.585,243.428C302.589,242.141,304.593,240.87,306.596,239.94C308.6,239.009,310.604,238.419,312.608,237.333C314.612,236.247,316.616,234.664,318.62,233.8C320.624,232.936,322.628,232.79,324.632,231.884C326.635,230.979,328.639,229.315,330.643,228.308C332.647,227.302,334.651,226.953,336.655,226.67C338.659,226.387,340.663,226.169,342.667,225.484C344.671,224.798,346.674,223.644,348.678,222.789C350.682,221.934,352.686,221.377,354.69,220.663C356.694,219.949,358.698,219.078,360.702,217.776C362.706,216.474,364.71,214.742,366.713,213.989C368.717,213.235,370.721,213.461,372.725,212.49C374.729,211.52,376.733,209.354,378.737,208.842C380.741,208.329,382.745,209.471,384.749,210.134C386.752,210.797,388.756,210.982,390.76,210.702C392.764,210.422,394.768,209.677,396.772,208.674C398.776,207.67,400.78,206.408,402.784,205.491C404.787,204.575,406.791,204.005,408.795,203.425C410.799,202.846,412.803,202.257,414.807,201.424C416.811,200.592,418.815,199.515,420.819,198.547C422.823,197.579,424.826,196.72,426.83,195.585C428.834,194.45,430.838,193.039,432.842,192.239C434.846,191.438,436.85,191.247,438.854,191.289C440.858,191.331,442.862,191.605,444.865,191.746C446.869,191.887,448.873,191.895,450.877,191.445C452.881,190.996,454.885,190.088,456.889,189.509C458.893,188.931,460.897,188.682,462.901,188.316C464.904,187.949,466.908,187.464,468.912,187.007C470.916,186.55,472.92,186.12,474.924,185.202C476.928,184.284,478.932,182.878,480.936,181.565C482.94,180.252,484.944,179.033,486.947,178.033C488.951,177.034,490.955,176.253,492.959,175.249C494.963,174.244,496.967,173.014,498.971,172.515C500.975,172.015,502.979,172.245,504.983,171.909C506.986,171.572,508.99,170.669,510.994,169.843C512.998,169.016,515.002,168.265,517.006,167.701C519.01,167.136,521.014,166.759,523.018,166.854C525.022,166.95,527.025,167.518,529.029,168.26C531.033,169.002,533.037,169.918,535.041,170.085C537.045,170.252,539.049,169.671,541.053,169.501C543.057,169.332,545.06,169.575,547.064,168.942C549.068,168.308,551.072,166.798,553.076,166.184C555.08,165.57,557.084,165.852,559.088,165.465C561.092,165.078,563.096,164.021,565.099,163.494C567.103,162.966,569.107,162.967,571.111,163.24C573.115,163.512,575.119,164.055,577.123,163.936C579.127,163.817,581.131,163.036,583.135,162.201C585.139,161.365,587.142,160.474,589.146,159.598L589.146,135.994C587.142,136.743,585.139,137.675,583.135,138.251C581.131,138.827,579.127,139.049,577.123,139.099C575.119,139.148,573.115,139.025,571.111,139.138C569.107,139.25,567.103,139.599,565.099,140.267C563.096,140.936,561.092,141.925,559.088,142.52C557.084,143.114,555.08,143.314,553.076,143.779C551.072,144.243,549.068,144.971,547.064,145.286C545.06,145.6,543.057,145.501,541.053,145.286C539.049,145.072,537.045,144.743,535.041,145.016C533.037,145.29,531.033,146.166,529.029,146.817C527.025,147.467,525.022,147.893,523.018,148.274C521.014,148.656,519.01,148.994,517.006,149.668C515.002,150.341,512.998,151.349,510.994,152.432C508.99,153.515,506.986,154.673,504.983,155.077C502.979,155.48,500.975,155.129,498.971,155.267C496.967,155.404,494.963,156.03,492.959,156.726C490.955,157.423,488.951,158.19,486.947,158.94C484.944,159.69,482.94,160.423,480.936,161.377C478.932,162.332,476.928,163.509,474.924,164.303C472.92,165.098,470.916,165.51,468.912,165.948C466.908,166.387,464.904,166.852,462.901,166.874C460.897,166.896,458.893,166.475,456.889,166.787C454.885,167.098,452.881,168.143,450.877,168.958C448.873,169.774,446.869,170.361,444.865,170.819C442.862,171.278,440.858,171.609,438.854,171.916C436.85,172.224,434.846,172.509,432.842,172.584C430.838,172.66,428.834,172.526,426.83,173.319C424.826,174.112,422.823,175.832,420.819,176.577C418.815,177.321,416.811,177.09,414.807,177.385C412.803,177.68,410.799,178.501,408.795,179.458C406.791,180.415,404.787,181.509,402.784,182.297C400.78,183.084,398.776,183.565,396.772,183.928C394.768,184.29,392.764,184.534,390.76,185.194C388.756,185.854,386.752,186.931,384.749,187.167C382.745,187.403,380.741,186.799,378.737,186.966C376.733,187.133,374.729,188.071,372.725,188.959C370.721,189.847,368.717,190.685,366.713,191.429C364.71,192.173,362.706,192.822,360.702,194C358.698,195.178,356.694,196.886,354.69,198.058C352.686,199.231,350.682,199.869,348.678,200.375C346.674,200.881,344.671,201.254,342.667,202.267C340.663,203.281,338.659,204.934,336.655,205.748C334.651,206.562,332.647,206.535,330.643,207.119C328.639,207.703,326.635,208.897,324.632,209.75C322.628,210.602,320.624,211.113,318.62,211.723C316.616,212.333,314.612,213.041,312.608,213.347C310.604,213.653,308.6,213.556,306.596,214.261C304.593,214.967,302.589,216.473,300.585,217.884C298.581,219.295,296.577,220.611,294.573,221.865C292.569,223.12,290.565,224.313,288.561,225.233C286.557,226.153,284.554,226.8,282.55,227.178C280.546,227.555,278.542,227.664,276.538,228.31C274.534,228.957,272.53,230.142,270.526,231.281C268.522,232.421,266.518,233.515,264.515,234.914C262.511,236.314,260.507,238.019,258.503,239.141C256.499,240.263,254.495,240.803,252.491,241.797C250.487,242.79,248.483,244.239,246.479,245.38C244.476,246.522,242.472,247.355,240.468,248.046C238.464,248.736,236.46,249.283,234.456,249.834C232.452,250.386,230.448,250.942,228.444,251.879C226.44,252.816,224.437,254.135,222.433,255.014C220.429,255.893,218.425,256.332,216.421,257.179C214.417,258.025,212.413,259.279,210.409,260.775C208.405,262.271,206.401,264.007,204.398,264.812C202.394,265.618,200.39,265.491,198.386,266.215C196.382,266.939,194.378,268.514,192.374,269.493C190.37,270.472,188.366,270.854,186.362,271.631C184.359,272.408,182.355,273.58,180.351,274.748C178.347,275.915,176.343,277.078,174.339,278.454C172.335,279.83,170.331,281.419,168.327,283.005C166.323,284.591,164.319,286.174,162.316,287.461C160.312,288.748,158.308,289.738,156.304,290.414C154.3,291.09,152.296,291.453,150.292,291.848C148.288,292.243,146.284,292.671,144.281,293.153C142.277,293.636,140.273,294.173,138.269,295.166C136.265,296.159,134.261,297.608,132.257,298.216C130.253,298.824,128.249,298.591,126.245,298.932C124.242,299.273,122.238,300.188,120.234,300.956C118.23,301.725,116.226,302.346,114.222,302.746C112.218,303.146,110.214,303.324,108.21,304.009C106.206,304.694,104.203,305.886,102.199,306.906C100.195,307.926,98.191,308.774,96.187,309.896C94.183,311.019,92.179,312.417,90.175,313.655C88.171,314.894,86.167,315.975,84.164,317.164C82.16,318.353,80.156,319.651,78.152,320.943C76.148,322.234,74.144,323.519,72.14,324.333C70.136,325.147,68.132,325.49,66.128,325.46C64.125,325.429,62.121,325.025,60.117,324.745C58.113,324.464,56.109,324.307,54.105,324.153C52.101,323.999,50.097,323.847,48.093,323.097C46.089,322.347,44.086,320.997,42.082,320.392C40.078,319.787,38.074,319.926,36.07,318.95C34.066,317.973,32.062,315.881,30.058,312.875C28.054,309.87,26.05,305.95,24.047,301.575C22.043,297.2,20.039,292.369,18.035,286.956C16.031,281.543,14.027,275.548,12.023,267.947Z" fill="#B22B24" opacity="0.3"/></g></g><path class="foreground" aria-hidden="true" d="" display="none"/></g><g transform="translate(0,0)"><path class="background" aria-hidden="true" d="M0,0h600v400h-600Z"/><g><g class="mark-area role-mark layer_0_layer_0_marks" clip-path="url(#clip5)" role="graphics-object" aria-roledescription="area mark container"><path aria-label="Number of environment steps: 200.38k; Dormant neuron ratio (%): 25.6490978665; upper_Dormant neuron ratio: 26.5906216621; Width: 4096; Ci1 of Dormant neuron ratio: 26.5906216621; Ci0 of Dormant neuron ratio: 25.6490978665; Mean of Dormant neuron ratio: 26.1348020766" role="graphics-symbol" aria-roledescription="errorband" d="M12.023,217.457C14.027,224.376,16.031,230.349,18.035,234.864C20.039,239.379,22.043,242.436,24.047,244.851C26.05,247.266,28.054,249.038,30.058,249.903C32.062,250.768,34.066,250.725,36.07,249.815C38.074,248.904,40.078,247.127,42.082,245.286C44.086,243.444,46.089,241.539,48.093,239.18C50.097,236.821,52.101,234.008,54.105,231.76C56.109,229.512,58.113,227.829,60.117,225.697C62.121,223.565,64.125,220.985,66.128,218.491C68.132,215.997,70.136,213.59,72.14,211.409C74.144,209.229,76.148,207.274,78.152,205.762C80.156,204.25,82.16,203.181,84.164,202.205C86.167,201.228,88.171,200.345,90.175,199.783C92.179,199.221,94.183,198.981,96.187,198.622C98.191,198.264,100.195,197.786,102.199,196.851C104.203,195.915,106.206,194.522,108.21,192.942C110.214,191.362,112.218,189.595,114.222,188.138C116.226,186.682,118.23,185.536,120.234,184.875C122.238,184.214,124.242,184.038,126.245,183.297C128.249,182.556,130.253,181.25,132.257,179.928C134.261,178.605,136.265,177.266,138.269,176.109C140.273,174.952,142.277,173.979,144.281,172.996C146.284,172.013,148.288,171.022,150.292,170.127C152.296,169.231,154.3,168.432,156.304,167.657C158.308,166.882,160.312,166.131,162.316,165.171C164.319,164.21,166.323,163.041,168.327,162.075C170.331,161.109,172.335,160.346,174.339,159.451C176.343,158.555,178.347,157.526,180.351,156.575C182.355,155.624,184.359,154.751,186.362,153.517C188.366,152.284,190.37,150.69,192.374,149.099C194.378,147.509,196.382,145.923,198.386,144.567C200.39,143.211,202.394,142.085,204.398,141.266C206.401,140.447,208.405,139.934,210.409,138.603C212.413,137.272,214.417,135.122,216.421,133.011C218.425,130.899,220.429,128.825,222.433,127.228C224.437,125.63,226.44,124.509,228.444,123.453C230.448,122.397,232.452,121.407,234.456,119.964C236.46,118.52,238.464,116.624,240.468,115.176C242.472,113.728,244.476,112.727,246.479,111.645C248.483,110.562,250.487,109.397,252.491,108.841C254.495,108.285,256.499,108.338,258.503,107.84C260.507,107.342,262.511,106.294,264.515,105.516C266.518,104.738,268.522,104.232,270.526,103.037C272.53,101.843,274.534,99.959,276.538,98.616C278.542,97.272,280.546,96.467,282.55,95.295C284.554,94.123,286.557,92.584,288.561,91.49C290.565,90.396,292.569,89.748,294.573,89.208C296.577,88.668,298.581,88.236,300.585,87.475C302.589,86.714,304.593,85.625,306.596,84.887C308.6,84.149,310.604,83.764,312.608,83.527C314.612,83.291,316.616,83.204,318.62,83.245C320.624,83.286,322.628,83.455,324.632,82.554C326.635,81.653,328.639,79.683,330.643,78.25C332.647,76.817,334.651,75.92,336.655,74.829C338.659,73.738,340.663,72.452,342.667,72.002C344.671,71.552,346.674,71.938,348.678,72.311C350.682,72.684,352.686,73.044,354.69,73.469C356.694,73.893,358.698,74.383,360.702,74.039C362.706,73.696,364.71,72.519,366.713,70.984C368.717,69.448,370.721,67.555,372.725,67.085C374.729,66.615,376.733,67.568,378.737,67.442C380.741,67.315,382.745,66.11,384.749,64.657C386.752,63.204,388.756,61.505,390.76,59.476C392.764,57.446,394.768,55.087,396.772,53.101C398.776,51.114,400.78,49.501,402.784,48.992C404.787,48.483,406.791,49.079,408.795,49.575C410.799,50.07,412.803,50.466,414.807,50.73C416.811,50.994,418.815,51.127,420.819,51.155C422.823,51.182,424.826,51.105,426.83,50.189C428.834,49.273,430.838,47.518,432.842,47.061C434.846,46.604,436.85,47.445,438.854,48.351C440.858,49.258,442.862,50.23,444.865,50.328C446.869,50.426,448.873,49.649,450.877,48.739C452.881,47.828,454.885,46.784,456.889,46.144C458.893,45.504,460.897,45.268,462.901,45.481C464.904,45.695,466.908,46.357,468.912,45.626C470.916,44.894,472.92,42.769,474.924,41.075C476.928,39.382,478.932,38.121,480.936,37.02C482.94,35.919,484.944,34.977,486.947,34.709C488.951,34.441,490.955,34.846,492.959,34.709C494.963,34.571,496.967,33.891,498.971,32.762C500.975,31.632,502.979,30.052,504.983,28.946C506.986,27.839,508.99,27.205,510.994,25.917C512.998,24.628,515.002,22.684,517.006,21.896C519.01,21.109,521.014,21.477,523.018,21.309C525.022,21.141,527.025,20.436,529.029,19.96C531.033,19.484,533.037,19.237,535.041,18.546C537.045,17.856,539.049,16.722,541.053,16.064C543.057,15.406,545.06,15.222,547.064,15.009C549.068,14.796,551.072,14.552,553.076,14.183C555.08,13.815,557.084,13.32,559.088,13.012C561.092,12.703,563.096,12.58,565.099,12.883C567.103,13.185,569.107,13.914,571.111,14.173C573.115,14.432,575.119,14.222,577.123,14.373C579.127,14.523,581.131,15.035,583.135,14.578C585.139,14.121,587.142,12.696,589.146,12.216L589.146,5.953C587.142,6.252,585.139,6.247,583.135,6.456C581.131,6.666,579.127,7.09,577.123,7.159C575.119,7.227,573.115,6.941,571.111,6.702C569.107,6.464,567.103,6.274,565.099,5.961C563.096,5.649,561.092,5.215,559.088,5.629C557.084,6.042,555.08,7.303,553.076,7.631C551.072,7.959,549.068,7.354,547.064,7.174C545.06,6.995,543.057,7.241,541.053,7.729C539.049,8.217,537.045,8.948,535.041,9.512C533.037,10.077,531.033,10.475,529.029,11.311C527.025,12.148,525.022,13.423,523.018,14.054C521.014,14.684,519.01,14.67,517.006,14.717C515.002,14.763,512.998,14.871,510.994,15.194C508.99,15.517,506.986,16.056,504.983,16.923C502.979,17.79,500.975,18.986,498.971,19.455C496.967,19.925,494.963,19.668,492.959,20.064C490.955,20.459,488.951,21.507,486.947,22.146C484.944,22.784,482.94,23.013,480.936,23.341C478.932,23.669,476.928,24.096,474.924,24.735C472.92,25.374,470.916,26.225,468.912,26.784C466.908,27.343,464.904,27.611,462.901,27.909C460.897,28.208,458.893,28.539,456.889,28.843C454.885,29.148,452.881,29.427,450.877,29.789C448.873,30.151,446.869,30.596,444.865,31.159C442.862,31.722,440.858,32.405,438.854,32.838C436.85,33.272,434.846,33.457,432.842,34.3C430.838,35.143,428.834,36.643,426.83,37.241C424.826,37.839,422.823,37.534,420.819,37.904C418.815,38.274,416.811,39.319,414.807,40.092C412.803,40.865,410.799,41.367,408.795,41.634C406.791,41.9,404.787,41.932,402.784,42.055C400.78,42.178,398.776,42.392,396.772,42.9C394.768,43.408,392.764,44.208,390.76,45.169C388.756,46.13,386.752,47.251,384.749,48.062C382.745,48.873,380.741,49.374,378.737,49.791C376.733,50.208,374.729,50.541,372.725,50.977C370.721,51.414,368.717,51.955,366.713,52.945C364.71,53.935,362.706,55.374,360.702,55.962C358.698,56.549,356.694,56.283,354.69,56.005C352.686,55.726,350.682,55.435,348.678,55.837C346.674,56.24,344.671,57.337,342.667,58.622C340.663,59.908,338.659,61.381,336.655,62.733C334.651,64.085,332.647,65.317,330.643,66.643C328.639,67.97,326.635,69.391,324.632,70.32C322.628,71.249,320.624,71.687,318.62,72.295C316.616,72.902,314.612,73.68,312.608,74.314C310.604,74.949,308.6,75.44,306.596,76.101C304.593,76.762,302.589,77.592,300.585,78.341C298.581,79.089,296.577,79.757,294.573,79.744C292.569,79.731,290.565,79.036,288.561,79.17C286.557,79.304,284.554,80.266,282.55,81.382C280.546,82.498,278.542,83.769,276.538,84.845C274.534,85.92,272.53,86.8,270.526,87.889C268.522,88.977,266.518,90.274,264.515,91.234C262.511,92.193,260.507,92.815,258.503,93.743C256.499,94.672,254.495,95.907,252.491,96.943C250.487,97.979,248.483,98.816,246.479,99.799C244.476,100.783,242.472,101.913,240.468,102.904C238.464,103.894,236.46,104.745,234.456,105.604C232.452,106.462,230.448,107.327,228.444,108.523C226.44,109.719,224.437,111.244,222.433,112.503C220.429,113.762,218.425,114.755,216.421,116.236C214.417,117.717,212.413,119.687,210.409,120.984C208.405,122.281,206.401,122.904,204.398,123.759C202.394,124.613,200.39,125.698,198.386,126.297C196.382,126.896,194.378,127.007,192.374,128.063C190.37,129.118,188.366,131.116,186.362,132.45C184.359,133.783,182.355,134.451,180.351,135.481C178.347,136.511,176.343,137.902,174.339,139.097C172.335,140.292,170.331,141.29,168.327,142.307C166.323,143.325,164.319,144.362,162.316,145.198C160.312,146.035,158.308,146.672,156.304,147.763C154.3,148.854,152.296,150.398,150.292,151.753C148.288,153.108,146.284,154.272,144.281,155.349C142.277,156.426,140.273,157.416,138.269,158.426C136.265,159.437,134.261,160.468,132.257,161.378C130.253,162.288,128.249,163.076,126.245,163.464C124.242,163.852,122.238,163.84,120.234,163.976C118.23,164.113,116.226,164.399,114.222,165.346C112.218,166.293,110.214,167.901,108.21,169.246C106.206,170.591,104.203,171.672,102.199,172.382C100.195,173.092,98.191,173.431,96.187,174.529C94.183,175.627,92.179,177.486,90.175,179.012C88.171,180.539,86.167,181.733,84.164,182.948C82.16,184.164,80.156,185.402,78.152,187.054C76.148,188.707,74.144,190.775,72.14,193.189C70.136,195.604,68.132,198.366,66.128,200.961C64.125,203.556,62.121,205.985,60.117,207.87C58.113,209.755,56.109,211.098,54.105,212.852C52.101,214.606,50.097,216.772,48.093,218.601C46.089,220.429,44.086,221.922,42.082,224.04C40.078,226.158,38.074,228.901,36.07,230.532C34.066,232.163,32.062,232.682,30.058,232.501C28.054,232.321,26.05,231.441,24.047,229.482C22.043,227.523,20.039,224.485,18.035,220.777C16.031,217.07,14.027,212.692,12.023,206.997Z" fill="#7A1F18" opacity="0.3"/></g></g><path class="foreground" aria-hidden="true" d="" display="none"/></g></g><g class="mark-group role-scope layer_1_pathgroup" role="graphics-object" aria-roledescription="group mark container"><g transform="translate(0,0)"><path class="background" aria-hidden="true" d="M0,0h600v400h-600Z"/><g><g class="mark-line role-mark layer_1_marks" clip-path="url(#clip6)" role="graphics-object" aria-roledescription="line mark container"><path aria-label="Number of environment steps: 200.38k; Dormant neuron ratio (%): 9.6875002861; Width: 256" role="graphics-symbol" aria-roledescription="line mark" d="M12.023,333.073C14.027,336.215,16.031,338.785,18.035,341.094C20.039,343.403,22.043,345.451,24.047,347.049C26.05,348.646,28.054,349.792,30.058,350.712C32.062,351.632,34.066,352.326,36.07,353.003C38.074,353.681,40.078,354.34,42.082,355.434C44.086,356.528,46.089,358.056,48.093,359.062C50.097,360.069,52.101,360.556,54.105,361.25C56.109,361.944,58.113,362.847,60.117,363.698C62.121,364.549,64.125,365.347,66.128,365.92C68.132,366.493,70.136,366.84,72.14,366.962C74.144,367.083,76.148,366.979,78.152,367.135C80.156,367.292,82.16,367.708,84.164,368.194C86.167,368.681,88.171,369.236,90.175,369.601C92.179,369.965,94.183,370.139,96.187,370.503C98.191,370.868,100.195,371.424,102.199,371.771C104.203,372.118,106.206,372.257,108.21,372.326C110.214,372.396,112.218,372.396,114.222,372.5C116.226,372.604,118.23,372.812,120.234,372.847C122.238,372.882,124.242,372.743,126.245,372.743C128.249,372.743,130.253,372.882,132.257,372.899C134.261,372.917,136.265,372.812,138.269,372.812C140.273,372.812,142.277,372.917,144.281,372.951C146.284,372.986,148.288,372.951,150.292,373.003C152.296,373.056,154.3,373.194,156.304,373.507C158.308,373.819,160.312,374.306,162.316,374.635C164.319,374.965,166.323,375.139,168.327,375.174C170.331,375.208,172.335,375.104,174.339,375.122C176.343,375.139,178.347,375.278,180.351,375.399C182.355,375.521,184.359,375.625,186.362,375.799C188.366,375.972,190.37,376.215,192.374,376.51C194.378,376.806,196.382,377.153,198.386,377.587C200.39,378.021,202.394,378.542,204.398,378.75C206.401,378.958,208.405,378.854,210.409,378.924C212.413,378.993,214.417,379.236,216.421,379.306C218.425,379.375,220.429,379.271,222.433,379.323C224.437,379.375,226.44,379.583,228.444,379.774C230.448,379.965,232.452,380.139,234.456,380.226C236.46,380.312,238.464,380.312,240.468,380.191C242.472,380.069,244.476,379.826,246.479,379.601C248.483,379.375,250.487,379.167,252.491,379.288C254.495,379.41,256.499,379.861,258.503,380.017C260.507,380.174,262.511,380.035,264.515,379.826C266.518,379.618,268.522,379.34,270.526,379.201C272.53,379.062,274.534,379.062,276.538,379.184C278.542,379.306,280.546,379.549,282.55,379.462C284.554,379.375,286.557,378.958,288.561,378.594C290.565,378.229,292.569,377.917,294.573,377.847C296.577,377.778,298.581,377.951,300.585,377.882C302.589,377.812,304.593,377.5,306.596,377.257C308.6,377.014,310.604,376.84,312.608,376.719C314.612,376.597,316.616,376.528,318.62,376.649C320.624,376.771,322.628,377.083,324.632,377.049C326.635,377.014,328.639,376.632,330.643,376.562C332.647,376.493,334.651,376.736,336.655,376.649C338.659,376.562,340.663,376.146,342.667,376.354C344.671,376.562,346.674,377.396,348.678,377.448C350.682,377.5,352.686,376.771,354.69,376.667C356.694,376.562,358.698,377.083,360.702,377.309C362.706,377.535,364.71,377.465,366.713,377.361C368.717,377.257,370.721,377.118,372.725,377.153C374.729,377.187,376.733,377.396,378.737,377.448C380.741,377.5,382.745,377.396,384.749,377.24C386.752,377.083,388.756,376.875,390.76,376.667C392.764,376.458,394.768,376.25,396.772,376.267C398.776,376.285,400.78,376.528,402.784,377.569C404.787,378.611,406.791,380.451,407.793,380.388C408.795,380.324,408.795,378.356,409.797,377.662C410.799,376.968,412.803,377.546,413.805,377.24C414.807,376.935,414.807,375.744,415.809,375.455C416.811,375.165,418.815,375.777,419.817,375.728C420.819,375.678,420.819,374.967,421.821,375.488C422.823,376.009,424.826,377.761,425.828,377.662C426.83,377.563,426.83,375.612,427.832,375.554C428.834,375.496,430.838,377.331,431.84,377.406C432.842,377.48,432.842,375.794,433.844,376.025C434.846,376.257,436.85,378.406,437.852,378.431C438.854,378.456,438.854,376.356,439.856,376.529C440.858,376.703,442.861,379.15,443.863,379.001C444.865,378.853,444.865,376.108,445.867,376.224C446.869,376.339,448.873,379.315,449.875,379.241C450.877,379.167,450.877,376.042,451.879,375.868C452.881,375.694,454.885,378.472,455.887,378.423C456.889,378.373,456.889,375.496,457.891,375.149C458.893,374.802,460.897,376.984,461.898,377.207C462.9,377.431,462.901,375.694,463.902,375.81C464.904,375.926,466.908,377.894,467.91,377.596C468.912,377.298,468.912,374.735,469.914,374.678C470.916,374.62,472.92,377.067,473.922,377.191C474.924,377.315,474.924,375.116,475.926,375C476.928,374.884,478.932,376.852,479.934,376.951C480.936,377.05,480.936,375.281,481.938,374.818C482.939,374.355,484.943,375.198,485.945,375.248C486.947,375.298,486.947,374.554,487.949,374.611C488.951,374.669,490.955,375.529,491.957,375.231C492.959,374.934,492.959,373.479,493.961,373.768C494.963,374.058,496.967,376.091,497.969,376.389C498.971,376.687,498.971,375.248,499.973,374.959C500.975,374.669,502.978,375.529,503.98,375.43C504.982,375.331,504.982,374.272,505.984,374.33C506.986,374.388,508.99,375.562,509.992,375.562C510.994,375.562,510.994,374.388,511.996,374.909C512.998,375.43,515.002,377.646,516.004,377.745C517.006,377.844,517.006,375.827,518.008,375.537C519.01,375.248,521.014,376.687,522.015,376.538C523.017,376.389,523.018,374.653,524.019,375.174C525.021,375.694,527.025,378.472,528.027,378.241C529.029,378.009,529.029,374.769,530.031,374.213C531.033,373.657,533.037,375.787,534.039,375.949C535.041,376.111,535.041,374.306,536.043,374.097C537.045,373.889,539.049,375.278,540.051,375.486C541.052,375.694,541.053,374.722,542.055,374.479C543.057,374.236,545.06,374.722,546.062,374.375C547.064,374.028,547.064,372.847,548.066,373.16C549.068,373.472,551.072,375.278,552.074,375.104C553.076,374.931,553.076,372.778,554.078,372.604C555.08,372.431,557.084,374.236,558.086,374.271C559.088,374.306,559.088,372.569,560.09,372.674C561.092,372.778,563.095,374.722,564.097,375C565.099,375.278,565.099,373.889,566.101,373.646C567.103,373.403,569.107,374.306,570.109,374.444C571.111,374.583,571.111,373.958,572.113,373.681C573.115,373.403,575.119,373.472,576.121,373.472C577.123,373.472,577.123,373.403,578.125,374.109C579.127,374.815,581.13,376.296,582.132,375.663C583.134,375.029,583.135,372.28,584.136,372.454C585.138,372.627,587.142,375.723,588.144,375.593C589.146,375.463,589.146,372.106,590.148,371.933C591.15,371.759,593.154,374.769,594.156,374.855" stroke="#FF5F33" stroke-width="2"/></g></g><path class="foreground" aria-hidden="true" d="" display="none"/></g><g transform="translate(0,0)"><path class="background" aria-hidden="true" d="M0,0h600v400h-600Z"/><g><g class="mark-line role-mark layer_1_marks" clip-path="url(#clip7)" role="graphics-object" aria-roledescription="line mark container"><path aria-label="Number of environment steps: 200.38k; Dormant neuron ratio (%): 11.0221357346; Width: 512" role="graphics-symbol" aria-roledescription="line mark" d="M12.023,327.552C14.027,332.448,16.031,336.823,18.035,340.139C20.039,343.455,22.043,345.712,24.047,347.613C26.05,349.514,28.054,351.059,30.058,352.578C32.062,354.097,34.066,355.59,36.07,357.04C38.074,358.49,40.078,359.896,42.082,361.285C44.086,362.674,46.089,364.045,48.093,365.373C50.097,366.701,52.101,367.986,54.105,369.036C56.109,370.087,58.113,370.903,60.117,371.745C62.121,372.587,64.125,373.455,66.128,374.193C68.132,374.931,70.136,375.538,72.14,376.05C74.144,376.562,76.148,376.979,78.152,377.387C80.156,377.795,82.16,378.194,84.164,378.611C86.167,379.028,88.171,379.462,90.175,379.67C92.179,379.878,94.183,379.861,96.187,380.165C98.191,380.469,100.195,381.094,102.199,381.328C104.203,381.562,106.206,381.406,108.21,381.606C110.214,381.806,112.218,382.361,114.222,382.795C116.226,383.229,118.23,383.542,120.234,383.646C122.238,383.75,124.242,383.646,126.245,383.568C128.249,383.49,130.253,383.437,132.257,383.594C134.261,383.75,136.265,384.115,138.269,384.245C140.273,384.375,142.277,384.271,144.281,384.34C146.284,384.41,148.288,384.653,150.292,384.661C152.296,384.67,154.3,384.444,156.304,384.262C158.308,384.08,160.312,383.941,162.316,383.95C164.319,383.958,166.323,384.115,168.327,384.21C170.331,384.306,172.335,384.34,174.339,384.175C176.343,384.01,178.347,383.646,180.351,383.559C182.355,383.472,184.359,383.663,186.362,383.542C188.366,383.42,190.37,382.986,192.374,382.83C194.378,382.674,196.382,382.795,198.386,382.656C200.39,382.517,202.394,382.118,204.398,381.806C206.401,381.493,208.405,381.267,210.409,381.259C212.413,381.25,214.417,381.458,216.421,381.415C218.425,381.372,220.429,381.076,222.433,380.981C224.437,380.885,226.44,380.99,228.444,380.885C230.448,380.781,232.452,380.469,234.456,380.286C236.46,380.104,238.464,380.052,240.468,379.957C242.472,379.861,244.476,379.722,246.479,379.661C248.483,379.601,250.487,379.618,252.491,379.523C254.495,379.427,256.499,379.219,258.503,379.002C260.507,378.785,262.511,378.559,264.515,378.446C266.518,378.333,268.522,378.333,270.526,378.22C272.53,378.108,274.534,377.882,276.538,377.778C278.542,377.674,280.546,377.691,282.55,377.622C284.554,377.552,286.557,377.396,288.561,377.448C290.565,377.5,292.569,377.76,294.573,377.717C296.577,377.674,298.581,377.326,300.585,377.248C302.589,377.17,304.593,377.361,306.596,377.231C308.6,377.101,310.604,376.649,312.608,376.233C314.612,375.816,316.616,375.434,318.62,375.243C320.624,375.052,322.628,375.052,324.632,374.722C326.635,374.392,328.639,373.733,330.643,373.481C332.647,373.229,334.651,373.385,336.655,373.394C338.659,373.403,340.663,373.264,342.667,373.056C344.671,372.847,346.674,372.569,348.678,372.214C350.682,371.858,352.686,371.424,354.69,370.877C356.694,370.33,358.698,369.67,360.702,369.444C362.706,369.219,364.71,369.427,366.713,369.653C368.717,369.878,370.721,370.122,372.725,370.243C374.729,370.365,376.733,370.365,378.737,370.191C380.741,370.017,382.745,369.67,384.749,369.34C386.752,369.01,388.756,368.698,390.76,368.446C392.764,368.194,394.768,368.003,396.772,367.821C398.776,367.639,400.78,367.465,402.784,367.448C404.787,367.431,406.791,367.569,408.795,367.526C410.799,367.483,412.803,367.257,414.807,366.727C416.811,366.198,418.815,365.365,420.819,365.182C422.823,365,424.826,365.469,426.83,365.59C428.834,365.712,430.838,365.486,432.842,365.408C434.846,365.33,436.85,365.399,438.854,365.391C440.858,365.382,442.862,365.295,444.865,365.321C446.869,365.347,448.873,365.486,450.877,365.295C452.881,365.104,454.885,364.583,456.889,364.41C458.893,364.236,460.897,364.41,462.901,364.245C464.904,364.08,466.908,363.576,468.912,363.247C470.916,362.917,472.92,362.76,474.924,362.648C476.928,362.535,478.932,362.465,480.936,362.344C482.94,362.222,484.944,362.049,486.947,361.806C488.951,361.562,490.955,361.25,492.959,360.955C494.963,360.66,496.967,360.382,498.971,360.087C500.975,359.792,502.979,359.479,504.983,359.253C506.986,359.028,508.99,358.889,510.994,358.733C512.998,358.576,515.002,358.403,517.006,358.307C519.01,358.212,521.014,358.194,523.018,358.151C525.022,358.108,527.025,358.038,529.029,358.056C531.033,358.073,533.037,358.177,535.041,358.038C537.045,357.899,539.049,357.517,541.053,357.3C543.057,357.083,545.06,357.031,547.064,356.788C549.068,356.545,551.072,356.111,553.076,355.981C555.08,355.851,557.084,356.024,559.088,355.738C561.092,355.451,563.096,354.705,565.099,354.193C567.103,353.681,569.107,353.403,571.111,353.247C573.115,353.09,575.119,353.056,577.123,353.22C579.127,353.385,581.131,353.75,583.135,353.906C585.139,354.062,587.142,354.01,589.146,353.811" stroke="#FF4B33" stroke-width="2"/></g></g><path class="foreground" aria-hidden="true" d="" display="none"/></g><g transform="translate(0,0)"><path class="background" aria-hidden="true" d="M0,0h600v400h-600Z"/><g><g class="mark-line role-mark layer_1_marks" clip-path="url(#clip8)" role="graphics-object" aria-roledescription="line mark container"><path aria-label="Number of environment steps: 200.38k; Dormant neuron ratio (%): 13.684896183; Width: 1024" role="graphics-symbol" aria-roledescription="line mark" d="M12.023,310.148C14.027,315.816,16.031,320.174,18.035,324.149C20.039,328.125,22.043,331.719,24.047,334.974C26.05,338.229,28.054,341.146,30.058,344.054C32.062,346.962,34.066,349.861,36.07,352.127C38.074,354.392,40.078,356.024,42.082,356.962C44.086,357.899,46.089,358.142,48.093,359.149C50.097,360.156,52.101,361.927,54.105,363.286C56.109,364.644,58.113,365.59,60.117,366.319C62.121,367.049,64.125,367.561,66.128,367.743C68.132,367.925,70.136,367.778,72.14,367.708C74.144,367.639,76.148,367.648,78.152,367.452C80.156,367.257,82.16,366.858,84.164,366.267C86.167,365.677,88.171,364.896,90.175,364.384C92.179,363.872,94.183,363.628,96.187,363.451C98.191,363.273,100.195,363.16,102.199,362.496C104.203,361.832,106.206,360.616,108.21,359.709C110.214,358.802,112.218,358.203,114.222,357.626C116.226,357.049,118.23,356.493,120.234,355.981C122.238,355.469,124.242,355,126.245,354.792C128.249,354.583,130.253,354.635,132.257,354.848C134.261,355.061,136.265,355.434,138.269,355.725C140.273,356.016,142.277,356.224,144.281,356.155C146.284,356.085,148.288,355.738,150.292,355.677C152.296,355.616,154.3,355.842,156.304,355.768C158.308,355.694,160.312,355.321,162.316,355.308C164.319,355.295,166.323,355.642,168.327,355.694C170.331,355.747,172.335,355.503,174.339,355.499C176.343,355.495,178.347,355.729,180.351,355.599C182.355,355.469,184.359,354.974,186.362,354.579C188.366,354.184,190.37,353.889,192.374,353.75C194.378,353.611,196.382,353.628,198.386,353.312C200.39,352.995,202.394,352.344,204.398,351.858C206.401,351.372,208.405,351.05,210.409,351.246C212.413,351.441,214.417,352.153,216.421,352.279C218.425,352.405,220.429,351.944,222.433,351.45C224.437,350.955,226.44,350.425,228.444,349.952C230.448,349.479,232.452,349.062,234.456,348.806C236.46,348.55,238.464,348.455,240.468,348.355C242.472,348.255,244.476,348.151,246.479,347.891C248.483,347.63,250.487,347.214,252.491,346.784C254.495,346.354,256.499,345.911,258.503,345.699C260.507,345.486,262.511,345.503,264.515,345.035C266.518,344.566,268.522,343.611,270.526,342.882C272.53,342.153,274.534,341.649,276.538,341.102C278.542,340.556,280.546,339.965,282.55,339.709C284.554,339.453,286.557,339.531,288.561,339.484C290.565,339.436,292.569,339.262,294.573,338.859C296.577,338.455,298.581,337.821,300.585,337.24C302.589,336.658,304.593,336.128,306.596,335.66C308.6,335.191,310.604,334.783,312.608,334.293C314.612,333.802,316.616,333.229,318.62,332.904C320.624,332.578,322.628,332.5,324.632,332.283C326.635,332.066,328.639,331.71,330.643,331.215C332.647,330.72,334.651,330.087,336.655,329.792C338.659,329.497,340.663,329.54,342.667,329.297C344.671,329.054,346.674,328.524,348.678,328.147C350.682,327.769,352.686,327.543,354.69,327.109C356.694,326.675,358.698,326.033,360.702,325.434C362.706,324.835,364.71,324.28,366.713,323.932C368.717,323.585,370.721,323.446,372.725,323.177C374.729,322.908,376.733,322.509,378.737,322.539C380.741,322.569,382.745,323.03,384.749,322.483C386.752,321.936,388.756,320.382,390.76,319.327C392.764,318.273,394.768,317.717,396.772,317.183C398.776,316.649,400.78,316.137,402.784,315.499C404.787,314.861,406.791,314.097,408.795,313.711C410.799,313.325,412.803,313.316,414.807,313.234C416.811,313.151,418.815,312.995,420.819,312.439C422.823,311.884,424.826,310.929,426.83,310.595C428.834,310.26,430.838,310.547,432.842,310.178C434.846,309.809,436.85,308.785,438.854,308.134C440.858,307.483,442.862,307.205,444.865,307.227C446.869,307.248,448.873,307.569,450.877,307.118C452.881,306.667,454.885,305.443,456.889,304.913C458.893,304.384,460.897,304.549,462.901,304.327C464.904,304.106,466.908,303.498,468.912,302.873C470.916,302.248,472.92,301.606,474.924,300.959C476.928,300.312,478.932,299.661,480.936,299.128C482.94,298.594,484.944,298.177,486.947,297.917C488.951,297.656,490.955,297.552,492.959,297.253C494.963,296.953,496.967,296.458,498.971,296.306C500.975,296.155,502.979,296.345,504.983,295.894C506.986,295.443,508.99,294.349,510.994,293.446C512.998,292.543,515.002,291.832,517.006,291.328C519.01,290.825,521.014,290.53,523.018,290.49C525.022,290.451,527.025,290.668,529.029,290.425C531.033,290.182,533.037,289.479,535.041,288.694C537.045,287.908,539.049,287.04,541.053,286.111C543.057,285.182,545.06,284.193,547.064,283.841C549.068,283.49,551.072,283.776,553.076,283.741C555.08,283.707,557.084,283.351,559.088,282.756C561.092,282.161,563.096,281.328,565.099,281.102C567.103,280.877,569.107,281.259,571.111,281.506C573.115,281.753,575.119,281.866,577.123,281.536C579.127,281.207,581.131,280.434,583.135,280.065C585.139,279.696,587.142,279.731,589.146,279.766" stroke="#E0392D" stroke-width="2"/></g></g><path class="foreground" aria-hidden="true" d="" display="none"/></g><g transform="translate(0,0)"><path class="background" aria-hidden="true" d="M0,0h600v400h-600Z"/><g><g class="mark-line role-mark layer_1_marks" clip-path="url(#clip9)" role="graphics-object" aria-roledescription="line mark container"><path aria-label="Number of environment steps: 200.38k; Dormant neuron ratio (%): 18.8183597565; Width: 2048" role="graphics-symbol" aria-roledescription="line mark" d="M12.023,275.935C14.027,283.424,16.031,288.906,18.035,293.917C20.039,298.928,22.043,303.468,24.047,307.587C26.05,311.706,28.054,315.404,30.058,318.184C32.062,320.964,34.066,322.826,36.07,324.052C38.074,325.278,40.078,325.868,42.082,326.586C44.086,327.305,46.089,328.151,48.093,328.711C50.097,329.271,52.101,329.544,54.105,329.768C56.109,329.991,58.113,330.165,60.117,330.339C62.121,330.512,64.125,330.686,66.128,330.538C68.132,330.391,70.136,329.922,72.14,329.219C74.144,328.516,76.148,327.578,78.152,326.493C80.156,325.408,82.16,324.175,84.164,323.049C86.167,321.923,88.171,320.903,90.175,319.998C92.179,319.093,94.183,318.303,96.187,317.539C98.191,316.775,100.195,316.037,102.199,315.286C104.203,314.536,106.206,313.772,108.21,313.429C110.214,313.086,112.218,313.164,114.222,312.756C116.226,312.348,118.23,311.454,120.234,310.72C122.238,309.987,124.242,309.414,126.245,309.026C128.249,308.637,130.253,308.433,132.257,307.925C134.261,307.418,136.265,306.606,138.269,306.072C140.273,305.538,142.277,305.282,144.281,304.8C146.284,304.319,148.288,303.611,150.292,302.984C152.296,302.357,154.3,301.81,156.304,301.098C158.308,300.386,160.312,299.51,162.316,298.357C164.319,297.205,166.323,295.777,168.327,294.286C170.331,292.795,172.335,291.241,174.339,289.933C176.343,288.624,178.347,287.561,180.351,286.595C182.355,285.629,184.359,284.761,186.362,283.783C188.366,282.804,190.37,281.714,192.374,280.642C194.378,279.57,196.382,278.516,198.386,277.83C200.39,277.144,202.394,276.827,204.398,276.118C206.401,275.408,208.405,274.306,210.409,273.006C212.413,271.706,214.417,270.208,216.421,269.058C218.425,267.908,220.429,267.105,222.433,266.374C224.437,265.642,226.44,264.983,228.444,264.312C230.448,263.641,232.452,262.96,234.456,262.376C236.46,261.793,238.464,261.306,240.468,260.347C242.472,259.388,244.476,257.956,246.479,256.684C248.483,255.412,250.487,254.301,252.491,253.303C254.495,252.305,256.499,251.419,258.503,250.508C260.507,249.596,262.511,248.659,264.515,247.407C266.518,246.155,268.522,244.588,270.526,243.498C272.53,242.409,274.534,241.797,276.538,241.246C278.542,240.694,280.546,240.204,282.55,239.64C284.554,239.076,286.557,238.437,288.561,237.611C290.565,236.784,292.569,235.768,294.573,234.657C296.577,233.546,298.581,232.339,300.585,230.957C302.589,229.575,304.593,228.016,306.596,227.101C308.6,226.185,310.604,225.911,312.608,225.284C314.612,224.657,316.616,223.676,318.62,222.869C320.624,222.062,322.628,221.428,324.632,220.647C326.635,219.865,328.639,218.937,330.643,218.362C332.647,217.786,334.651,217.565,336.655,216.78C338.659,215.994,340.663,214.644,342.667,213.626C344.671,212.609,346.674,211.923,348.678,211.263C350.682,210.603,352.686,209.97,354.69,209.188C356.694,208.407,358.698,207.478,360.702,206.302C362.706,205.126,364.71,203.702,366.713,202.843C368.717,201.984,370.721,201.688,372.725,200.788C374.729,199.887,376.733,198.381,378.737,197.958C380.741,197.535,382.745,198.194,384.749,198.327C386.752,198.459,388.756,198.064,390.76,197.5C392.764,196.936,394.768,196.202,396.772,195.523C398.776,194.844,400.78,194.219,402.784,193.461C404.787,192.704,406.791,191.814,408.795,191.126C410.799,190.438,412.803,189.952,414.807,189.434C416.811,188.915,418.815,188.364,420.819,187.48C422.823,186.597,424.826,185.382,426.83,184.403C428.834,183.424,430.838,182.682,432.842,182.316C434.846,181.949,436.85,181.957,438.854,181.938C440.858,181.918,442.862,181.871,444.865,181.643C446.869,181.415,448.873,181.007,450.877,180.321C452.881,179.635,454.885,178.672,456.889,178.22C458.893,177.769,460.897,177.83,462.901,177.695C464.904,177.561,466.908,177.231,468.912,176.678C470.916,176.124,472.92,175.347,474.924,174.531C476.928,173.715,478.932,172.86,480.936,171.842C482.94,170.825,484.944,169.644,486.947,168.652C488.951,167.661,490.955,166.858,492.959,166.059C494.963,165.26,496.967,164.466,498.971,164.199C500.975,163.932,502.979,164.193,504.983,163.806C506.986,163.42,508.99,162.387,510.994,161.424C512.998,160.46,515.002,159.566,517.006,158.859C519.01,158.151,521.014,157.63,523.018,157.465C525.022,157.3,527.025,157.491,529.029,157.431C531.033,157.37,533.037,157.057,535.041,156.895C537.045,156.732,539.049,156.719,541.053,156.775C543.057,156.832,545.06,156.957,547.064,156.504C549.068,156.05,551.072,155.017,553.076,154.444C555.08,153.872,557.084,153.759,559.088,153.294C561.092,152.83,563.096,152.014,565.099,151.595C567.103,151.176,569.107,151.155,571.111,151.089C573.115,151.024,575.119,150.916,577.123,150.755C579.127,150.595,581.131,150.382,583.135,149.789C585.139,149.197,587.142,148.225,589.146,147.563" stroke="#B22B24" stroke-width="2"/></g></g><path class="foreground" aria-hidden="true" d="" display="none"/></g><g transform="translate(0,0)"><path class="background" aria-hidden="true" d="M0,0h600v400h-600Z"/><g><g class="mark-line role-mark layer_1_marks" clip-path="url(#clip10)" role="graphics-object" aria-roledescription="line mark container"><path aria-label="Number of environment steps: 200.38k; Dormant neuron ratio (%): 26.1348020766; Width: 4096" role="graphics-symbol" aria-roledescription="line mark" d="M12.023,212.199C14.027,218.526,16.031,223.705,18.035,227.752C20.039,231.8,22.043,234.715,24.047,236.939C26.05,239.164,28.054,240.697,30.058,241.276C32.062,241.855,34.066,241.479,36.07,240.183C38.074,238.886,40.078,236.671,42.082,234.773C44.086,232.875,46.089,231.296,48.093,229.282C50.097,227.269,52.101,224.822,54.105,222.83C56.109,220.838,58.113,219.302,60.117,217.314C62.121,215.326,64.125,212.886,66.128,210.485C68.132,208.085,70.136,205.724,72.14,203.47C74.144,201.215,76.148,199.067,78.152,197.413C80.156,195.759,82.16,194.599,84.164,193.521C86.167,192.443,88.171,191.447,90.175,190.449C92.179,189.451,94.183,188.45,96.187,187.554C98.191,186.658,100.195,185.868,102.199,184.948C104.203,184.028,106.206,182.979,108.21,181.707C110.214,180.435,112.218,178.94,114.222,177.873C116.226,176.806,118.23,176.167,120.234,175.731C122.238,175.294,124.242,175.06,126.245,174.513C128.249,173.966,130.253,173.105,132.257,171.945C134.261,170.785,136.265,169.326,138.269,168.164C140.273,167.002,142.277,166.136,144.281,165.168C146.284,164.2,148.288,163.129,150.292,162.048C152.296,160.966,154.3,159.874,156.304,159.066C158.308,158.259,160.312,157.735,162.316,156.94C164.319,156.144,166.323,155.076,168.327,154.051C170.331,153.026,172.335,152.045,174.339,151.014C176.343,149.983,178.347,148.903,180.351,147.905C182.355,146.906,184.359,145.99,186.362,144.683C188.366,143.376,190.37,141.679,192.374,140.292C194.378,138.906,196.382,137.83,198.386,136.841C200.39,135.851,202.394,134.946,204.398,134.053C206.401,133.16,208.405,132.277,210.409,130.947C212.413,129.618,214.417,127.84,216.421,126.124C218.425,124.407,220.429,122.75,222.433,121.265C224.437,119.78,226.44,118.465,228.444,117.339C230.448,116.213,232.452,115.275,234.456,114.069C236.46,112.862,238.464,111.386,240.468,110.168C242.472,108.951,244.476,107.991,246.479,106.864C248.483,105.736,250.487,104.442,252.491,103.587C254.495,102.732,256.499,102.317,258.503,101.739C260.507,101.16,262.511,100.417,264.515,99.589C266.518,98.761,268.522,97.847,270.526,96.622C272.53,95.397,274.534,93.861,276.538,92.603C278.542,91.346,280.546,90.367,282.55,89.278C284.554,88.19,286.557,86.991,288.561,86.216C290.565,85.441,292.569,85.089,294.573,84.638C296.577,84.187,298.581,83.637,300.585,82.89C302.589,82.142,304.593,81.197,306.596,80.496C308.6,79.796,310.604,79.34,312.608,78.787C314.612,78.233,316.616,77.582,318.62,77.215C320.624,76.847,322.628,76.763,324.632,75.968C326.635,75.174,328.639,73.669,330.643,72.424C332.647,71.178,334.651,70.192,336.655,69.047C338.659,67.901,340.663,66.597,342.667,65.707C344.671,64.817,346.674,64.342,348.678,64.277C350.682,64.212,352.686,64.557,354.69,64.745C356.694,64.933,358.698,64.964,360.702,64.357C362.706,63.749,364.71,62.502,366.713,61.29C368.717,60.077,370.721,58.898,372.725,58.462C374.729,58.027,376.733,58.336,378.737,57.946C380.741,57.557,382.745,56.469,384.749,55.333C386.752,54.196,388.756,53.009,390.76,51.798C392.764,50.586,394.768,49.349,396.772,48.24C398.776,47.131,400.78,46.149,402.784,45.756C404.787,45.363,406.791,45.558,408.795,45.675C410.799,45.792,412.803,45.831,414.807,45.481C416.811,45.132,418.815,44.394,420.819,44.106C422.823,43.818,424.826,43.979,426.83,43.345C428.834,42.711,430.838,41.281,432.842,40.633C434.846,39.986,436.85,40.121,438.854,40.116C440.858,40.111,442.862,39.967,444.865,39.541C446.869,39.116,448.873,38.409,450.877,37.671C452.881,36.933,454.885,36.164,456.889,35.597C458.893,35.031,460.897,34.667,462.901,34.639C464.904,34.611,466.908,34.92,468.912,34.45C470.916,33.98,472.92,32.731,474.924,31.777C476.928,30.823,478.932,30.165,480.936,29.496C482.94,28.827,484.944,28.147,486.947,27.792C488.951,27.438,490.955,27.409,492.959,27.201C494.963,26.994,496.967,26.608,498.971,25.832C500.975,25.055,502.979,23.888,504.983,23.017C506.986,22.145,508.99,21.569,510.994,20.796C512.998,20.023,515.002,19.054,517.006,18.638C519.01,18.222,521.014,18.359,523.018,17.881C525.022,17.402,527.025,16.307,529.029,15.636C531.033,14.964,533.037,14.716,535.041,14.078C537.045,13.44,539.049,12.413,541.053,11.832C543.057,11.251,545.06,11.116,547.064,11.123C549.068,11.13,551.072,11.28,553.076,10.906C555.08,10.532,557.084,9.635,559.088,9.244C561.092,8.852,563.096,8.965,565.099,9.277C567.103,9.59,569.107,10.101,571.111,10.362C573.115,10.624,575.119,10.636,577.123,10.575C579.127,10.513,581.131,10.378,583.135,10.067C585.139,9.756,587.142,9.269,589.146,8.963" stroke="#7A1F18" stroke-width="2"/></g></g><path class="foreground" aria-hidden="true" d="" display="none"/></g></g><g class="mark-group role-legend" role="graphics-symbol" aria-roledescription="legend" aria-label="Symbol legend titled 'Width' for fill color and stroke color with 5 values: 256, 512, 1024, 2048, 4096"><g transform="translate(18,18)"><path class="background" aria-hidden="true" d="M0,0h55v113h-55Z" pointer-events="none"/><g><g class="mark-group role-legend-entry"><g transform="translate(0,25)"><path class="background" aria-hidden="true" d="M0,0h0v0h0Z" pointer-events="none"/><g><g class="mark-group role-scope" role="graphics-object" aria-roledescription="group mark container"><g transform="translate(0,0)"><path class="background" aria-hidden="true" d="M0,0h52v16h-52Z" pointer-events="none" opacity="1"/><g><g class="mark-symbol role-legend-symbol" pointer-events="none"><path transform="translate(8,8)" d="M3.536,0A3.536,3.536,0,1,1,-3.536,0A3.536,3.536,0,1,1,3.536,0" fill="#FF5F33" stroke="#FF5F33" stroke-width="1.5" opacity="1"/></g><g class="mark-text role-legend-label" pointer-events="none"><text text-anchor="start" transform="translate(20,13)" font-family="Times New Roman" font-size="16px" fill="#000" opacity="1">256</text></g></g><path class="foreground" aria-hidden="true" d="" pointer-events="none" display="none"/></g><g transform="translate(0,18)"><path class="background" aria-hidden="true" d="M0,0h52v16h-52Z" pointer-events="none" opacity="1"/><g><g class="mark-symbol role-legend-symbol" pointer-events="none"><path transform="translate(8,8)" d="M3.536,0A3.536,3.536,0,1,1,-3.536,0A3.536,3.536,0,1,1,3.536,0" fill="#FF4B33" stroke="#FF4B33" stroke-width="1.5" opacity="1"/></g><g class="mark-text role-legend-label" pointer-events="none"><text text-anchor="start" transform="translate(20,13)" font-family="Times New Roman" font-size="16px" fill="#000" opacity="1">512</text></g></g><path class="foreground" aria-hidden="true" d="" pointer-events="none" display="none"/></g><g transform="translate(0,36)"><path class="background" aria-hidden="true" d="M0,0h52v16h-52Z" pointer-events="none" opacity="1"/><g><g class="mark-symbol role-legend-symbol" pointer-events="none"><path transform="translate(8,8)" d="M3.536,0A3.536,3.536,0,1,1,-3.536,0A3.536,3.536,0,1,1,3.536,0" fill="#E0392D" stroke="#E0392D" stroke-width="1.5" opacity="1"/></g><g class="mark-text role-legend-label" pointer-events="none"><text text-anchor="start" transform="translate(20,13)" font-family="Times New Roman" font-size="16px" fill="#000" opacity="1">1024</text></g></g><path class="foreground" aria-hidden="true" d="" pointer-events="none" display="none"/></g><g transform="translate(0,54)"><path class="background" aria-hidden="true" d="M0,0h52v16h-52Z" pointer-events="none" opacity="1"/><g><g class="mark-symbol role-legend-symbol" pointer-events="none"><path transform="translate(8,8)" d="M3.536,0A3.536,3.536,0,1,1,-3.536,0A3.536,3.536,0,1,1,3.536,0" fill="#B22B24" stroke="#B22B24" stroke-width="1.5" opacity="1"/></g><g class="mark-text role-legend-label" pointer-events="none"><text text-anchor="start" transform="translate(20,13)" font-family="Times New Roman" font-size="16px" fill="#000" opacity="1">2048</text></g></g><path class="foreground" aria-hidden="true" d="" pointer-events="none" display="none"/></g><g transform="translate(0,72)"><path class="background" aria-hidden="true" d="M0,0h52v16h-52Z" pointer-events="none" opacity="1"/><g><g class="mark-symbol role-legend-symbol" pointer-events="none"><path transform="translate(8,8)" d="M3.536,0A3.536,3.536,0,1,1,-3.536,0A3.536,3.536,0,1,1,3.536,0" fill="#7A1F18" stroke="#7A1F18" stroke-width="1.5" opacity="1"/></g><g class="mark-text role-legend-label" pointer-events="none"><text text-anchor="start" transform="translate(20,13)" font-family="Times New Roman" font-size="16px" fill="#000" opacity="1">4096</text></g></g><path class="foreground" aria-hidden="true" d="" pointer-events="none" display="none"/></g></g></g><path class="foreground" aria-hidden="true" d="" pointer-events="none" display="none"/></g></g><g class="mark-text role-legend-title" pointer-events="none"><text text-anchor="start" transform="translate(0,16)" font-family="Times New Roman" font-size="20px" font-weight="bold" fill="#000" opacity="1">Width</text></g></g><path class="foreground" aria-hidden="true" d="" pointer-events="none" display="none"/></g></g></g><path class="foreground" aria-hidden="true" d="" display="none"/></g></g></g><defs><clipPath id="clip1"><rect x="0" y="0" width="600" height="400"/></clipPath><clipPath id="clip2"><rect x="0" y="0" width="600" height="400"/></clipPath><clipPath id="clip3"><rect x="0" y="0" width="600" height="400"/></clipPath><clipPath id="clip4"><rect x="0" y="0" width="600" height="400"/></clipPath><clipPath id="clip5"><rect x="0" y="0" width="600" height="400"/></clipPath><clipPath id="clip6"><rect x="0" y="0" width="600" height="400"/></clipPath><clipPath id="clip7"><rect x="0" y="0" width="600" height="400"/></clipPath><clipPath id="clip8"><rect x="0" y="0" width="600" height="400"/></clipPath><clipPath id="clip9"><rect x="0" y="0" width="600" height="400"/></clipPath><clipPath id="clip10"><rect x="0" y="0" width="600" height="400"/></clipPath></defs></svg>