<svg xmlns="http://www.w3.org/2000/svg" xmlns:xlink="http://www.w3.org/1999/xlink" version="1.1" class="marks" width="715" height="458" viewBox="0 0 715 458"><rect width="715" height="458" fill="white"/><g fill="none" stroke-miterlimit="10" transform="translate(46,12)"><g class="mark-group role-frame root" role="graphics-object" aria-roledescription="group mark container"><g transform="translate(0,0)"><path class="background" aria-hidden="true" d="M0.5,0.5h600v400h-600Z" stroke="#ddd"/><g><g class="mark-group role-axis" aria-hidden="true"><g transform="translate(0.5,400.5)"><path class="background" aria-hidden="true" d="M0,0h0v0h0Z" pointer-events="none"/><g><g class="mark-rule role-axis-grid" pointer-events="none"><line transform="translate(0,-400)" x2="0" y2="400" stroke="#ddd" stroke-width="1" opacity="1"/><line transform="translate(30,-400)" x2="0" y2="400" stroke="#ddd" stroke-width="1" opacity="1"/><line transform="translate(60,-400)" x2="0" y2="400" stroke="#ddd" stroke-width="1" opacity="1"/><line transform="translate(90,-400)" x2="0" y2="400" stroke="#ddd" stroke-width="1" opacity="1"/><line transform="translate(120,-400)" x2="0" y2="400" stroke="#ddd" stroke-width="1" opacity="1"/><line transform="translate(150,-400)" x2="0" y2="400" stroke="#ddd" stroke-width="1" opacity="1"/><line transform="translate(180,-400)" x2="0" y2="400" stroke="#ddd" stroke-width="1" opacity="1"/><line transform="translate(210,-400)" x2="0" y2="400" stroke="#ddd" stroke-width="1" opacity="1"/><line transform="translate(240,-400)" x2="0" y2="400" stroke="#ddd" stroke-width="1" opacity="1"/><line transform="translate(270,-400)" x2="0" y2="400" stroke="#ddd" stroke-width="1" opacity="1"/><line transform="translate(300,-400)" x2="0" y2="400" stroke="#ddd" stroke-width="1" opacity="1"/><line transform="translate(330,-400)" x2="0" y2="400" stroke="#ddd" stroke-width="1" opacity="1"/><line transform="translate(360,-400)" x2="0" y2="400" stroke="#ddd" stroke-width="1" opacity="1"/><line transform="translate(390,-400)" x2="0" y2="400" stroke="#ddd" stroke-width="1" opacity="1"/><line transform="translate(420,-400)" x2="0" y2="400" stroke="#ddd" stroke-width="1" opacity="1"/><line transform="translate(450,-400)" x2="0" y2="400" stroke="#ddd" stroke-width="1" opacity="1"/><line transform="translate(480,-400)" x2="0" y2="400" stroke="#ddd" stroke-width="1" opacity="1"/><line transform="translate(510,-400)" x2="0" y2="400" stroke="#ddd" stroke-width="1" opacity="1"/><line transform="translate(540,-400)" x2="0" y2="400" stroke="#ddd" stroke-width="1" opacity="1"/><line transform="translate(570,-400)" x2="0" y2="400" stroke="#ddd" stroke-width="1" opacity="1"/><line transform="translate(600,-400)" x2="0" y2="400" stroke="#ddd" stroke-width="1" opacity="1"/></g></g><path class="foreground" aria-hidden="true" d="" pointer-events="none" display="none"/></g></g><g class="mark-group role-axis" aria-hidden="true"><g transform="translate(0.5,0.5)"><path class="background" aria-hidden="true" d="M0,0h0v0h0Z" pointer-events="none"/><g><g class="mark-rule role-axis-grid" pointer-events="none"><line transform="translate(0,400)" x2="600" y2="0" stroke="#ddd" stroke-width="1" opacity="1"/><line transform="translate(0,360)" x2="600" y2="0" stroke="#ddd" stroke-width="1" opacity="1"/><line transform="translate(0,320)" x2="600" y2="0" stroke="#ddd" stroke-width="1" opacity="1"/><line transform="translate(0,280)" x2="600" y2="0" stroke="#ddd" stroke-width="1" opacity="1"/><line transform="translate(0,240)" x2="600" y2="0" stroke="#ddd" stroke-width="1" opacity="1"/><line transform="translate(0,200)" x2="600" y2="0" stroke="#ddd" stroke-width="1" opacity="1"/><line transform="translate(0,160)" x2="600" y2="0" stroke="#ddd" stroke-width="1" opacity="1"/><line transform="translate(0,120)" x2="600" y2="0" stroke="#ddd" stroke-width="1" opacity="1"/><line transform="translate(0,80)" x2="600" y2="0" stroke="#ddd" stroke-width="1" opacity="1"/><line transform="translate(0,40)" x2="600" y2="0" stroke="#ddd" stroke-width="1" opacity="1"/><line transform="translate(0,0)" x2="600" y2="0" stroke="#ddd" stroke-width="1" opacity="1"/></g></g><path class="foreground" aria-hidden="true" d="" pointer-events="none" display="none"/></g></g><g class="mark-group role-axis" role="graphics-symbol" aria-roledescription="axis" aria-label="X-axis titled 'Timestep' for a linear scale with values from 0M to 20M"><g transform="translate(0.5,400.5)"><path class="background" aria-hidden="true" d="M0,0h0v0h0Z" pointer-events="none"/><g><g class="mark-rule role-axis-tick" pointer-events="none"><line transform="translate(0,0)" x2="0" y2="5" stroke="#888" stroke-width="1" opacity="1"/><line transform="translate(30,0)" x2="0" y2="5" stroke="#888" stroke-width="1" opacity="1"/><line transform="translate(60,0)" x2="0" y2="5" stroke="#888" stroke-width="1" opacity="1"/><line transform="translate(90,0)" x2="0" y2="5" stroke="#888" stroke-width="1" opacity="1"/><line transform="translate(120,0)" x2="0" y2="5" stroke="#888" stroke-width="1" opacity="1"/><line transform="translate(150,0)" x2="0" y2="5" stroke="#888" stroke-width="1" opacity="1"/><line transform="translate(180,0)" x2="0" y2="5" stroke="#888" stroke-width="1" opacity="1"/><line transform="translate(210,0)" x2="0" y2="5" stroke="#888" stroke-width="1" opacity="1"/><line transform="translate(240,0)" x2="0" y2="5" stroke="#888" stroke-width="1" opacity="1"/><line transform="translate(270,0)" x2="0" y2="5" stroke="#888" stroke-width="1" opacity="1"/><line transform="translate(300,0)" x2="0" y2="5" stroke="#888" stroke-width="1" opacity="1"/><line transform="translate(330,0)" x2="0" y2="5" stroke="#888" stroke-width="1" opacity="1"/><line transform="translate(360,0)" x2="0" y2="5" stroke="#888" stroke-width="1" opacity="1"/><line transform="translate(390,0)" x2="0" y2="5" stroke="#888" stroke-width="1" opacity="1"/><line transform="translate(420,0)" x2="0" y2="5" stroke="#888" stroke-width="1" opacity="1"/><line transform="translate(450,0)" x2="0" y2="5" stroke="#888" stroke-width="1" opacity="1"/><line transform="translate(480,0)" x2="0" y2="5" stroke="#888" stroke-width="1" opacity="1"/><line transform="translate(510,0)" x2="0" y2="5" stroke="#888" stroke-width="1" opacity="1"/><line transform="translate(540,0)" x2="0" y2="5" stroke="#888" stroke-width="1" opacity="1"/><line transform="translate(570,0)" x2="0" y2="5" stroke="#888" stroke-width="1" opacity="1"/><line transform="translate(600,0)" x2="0" y2="5" stroke="#888" stroke-width="1" opacity="1"/></g><g class="mark-text role-axis-label" pointer-events="none"><text text-anchor="start" transform="translate(0,18)" font-family="Times New Roman" font-size="14px" fill="#000" opacity="1">0</text><text text-anchor="middle" transform="translate(30,18)" font-family="Times New Roman" font-size="14px" fill="#000" opacity="0">1M</text><text text-anchor="middle" transform="translate(60,18)" font-family="Times New Roman" font-size="14px" fill="#000" opacity="1">2M</text><text text-anchor="middle" transform="translate(90,18)" font-family="Times New Roman" font-size="14px" fill="#000" opacity="0">3M</text><text text-anchor="middle" transform="translate(120,18)" font-family="Times New Roman" font-size="14px" fill="#000" opacity="1">4M</text><text text-anchor="middle" transform="translate(150,18)" font-family="Times New Roman" font-size="14px" fill="#000" opacity="0">5M</text><text text-anchor="middle" transform="translate(180,18)" font-family="Times New Roman" font-size="14px" fill="#000" opacity="1">6M</text><text text-anchor="middle" transform="translate(210,18)" font-family="Times New Roman" font-size="14px" fill="#000" opacity="0">7M</text><text text-anchor="middle" transform="translate(240,18)" font-family="Times New Roman" font-size="14px" fill="#000" opacity="1">8M</text><text text-anchor="middle" transform="translate(270,18)" font-family="Times New Roman" font-size="14px" fill="#000" opacity="0">9M</text><text text-anchor="middle" transform="translate(300,18)" font-family="Times New Roman" font-size="14px" fill="#000" opacity="1">10M</text><text text-anchor="middle" transform="translate(330,18)" font-family="Times New Roman" font-size="14px" fill="#000" opacity="0">11M</text><text text-anchor="middle" transform="translate(360,18)" font-family="Times New Roman" font-size="14px" fill="#000" opacity="1">12M</text><text text-anchor="middle" transform="translate(390,18)" font-family="Times New Roman" font-size="14px" fill="#000" opacity="0">13M</text><text text-anchor="middle" transform="translate(420,18)" font-family="Times New Roman" font-size="14px" fill="#000" opacity="1">14M</text><text text-anchor="middle" transform="translate(450,18)" font-family="Times New Roman" font-size="14px" fill="#000" opacity="0">15M</text><text text-anchor="middle" transform="translate(480,18)" font-family="Times New Roman" font-size="14px" fill="#000" opacity="1">16M</text><text text-anchor="middle" transform="translate(510,18)" font-family="Times New Roman" font-size="14px" fill="#000" opacity="0">17M</text><text text-anchor="middle" transform="translate(540,18)" font-family="Times New Roman" font-size="14px" fill="#000" opacity="1">18M</text><text text-anchor="middle" transform="translate(570,18)" font-family="Times New Roman" font-size="14px" fill="#000" opacity="0">19M</text><text text-anchor="end" transform="translate(600,18)" font-family="Times New Roman" font-size="14px" fill="#000" opacity="1">20M</text></g><g class="mark-rule role-axis-domain" pointer-events="none"><line transform="translate(0,0)" x2="600" y2="0" stroke="#888" stroke-width="1" opacity="1"/></g><g class="mark-text role-axis-title" pointer-events="none"><text text-anchor="middle" transform="translate(300,38)" font-family="Times New Roman" font-size="16px" font-weight="bold" fill="#000" opacity="1">Timestep</text></g></g><path class="foreground" aria-hidden="true" d="" pointer-events="none" display="none"/></g></g><g class="mark-group role-axis" role="graphics-symbol" aria-roledescription="axis" aria-label="Y-axis titled 'Dormant neuron ratio (%)' for a linear scale with values from 0 to 50"><g transform="translate(0.5,0.5)"><path class="background" aria-hidden="true" d="M0,0h0v0h0Z" pointer-events="none"/><g><g class="mark-rule role-axis-tick" pointer-events="none"><line transform="translate(0,400)" x2="-5" y2="0" stroke="#888" stroke-width="1" opacity="1"/><line transform="translate(0,360)" x2="-5" y2="0" stroke="#888" stroke-width="1" opacity="1"/><line transform="translate(0,320)" x2="-5" y2="0" stroke="#888" stroke-width="1" opacity="1"/><line transform="translate(0,280)" x2="-5" y2="0" stroke="#888" stroke-width="1" opacity="1"/><line transform="translate(0,240)" x2="-5" y2="0" stroke="#888" stroke-width="1" opacity="1"/><line transform="translate(0,200)" x2="-5" y2="0" stroke="#888" stroke-width="1" opacity="1"/><line transform="translate(0,160)" x2="-5" y2="0" stroke="#888" stroke-width="1" opacity="1"/><line transform="translate(0,120)" x2="-5" y2="0" stroke="#888" stroke-width="1" opacity="1"/><line transform="translate(0,80)" x2="-5" y2="0" stroke="#888" stroke-width="1" opacity="1"/><line transform="translate(0,40)" x2="-5" y2="0" stroke="#888" stroke-width="1" opacity="1"/><line transform="translate(0,0)" x2="-5" y2="0" stroke="#888" stroke-width="1" opacity="1"/></g><g class="mark-text role-axis-label" pointer-events="none"><text text-anchor="end" transform="translate(-7,404)" font-family="Times New Roman" font-size="14px" fill="#000" opacity="1">0</text><text text-anchor="end" transform="translate(-7,364)" font-family="Times New Roman" font-size="14px" fill="#000" opacity="1">5</text><text text-anchor="end" transform="translate(-7,324)" font-family="Times New Roman" font-size="14px" fill="#000" opacity="1">10</text><text text-anchor="end" transform="translate(-7,284)" font-family="Times New Roman" font-size="14px" fill="#000" opacity="1">15</text><text text-anchor="end" transform="translate(-7,244)" font-family="Times New Roman" font-size="14px" fill="#000" opacity="1">20</text><text text-anchor="end" transform="translate(-7,204)" font-family="Times New Roman" font-size="14px" fill="#000" opacity="1">25</text><text text-anchor="end" transform="translate(-7,164)" font-family="Times New Roman" font-size="14px" fill="#000" opacity="1">30</text><text text-anchor="end" transform="translate(-7,124.00000000000001)" font-family="Times New Roman" font-size="14px" fill="#000" opacity="1">35</text><text text-anchor="end" transform="translate(-7,83.99999999999999)" font-family="Times New Roman" font-size="14px" fill="#000" opacity="1">40</text><text text-anchor="end" transform="translate(-7,43.99999999999999)" font-family="Times New Roman" font-size="14px" fill="#000" opacity="1">45</text><text text-anchor="end" transform="translate(-7,4)" font-family="Times New Roman" font-size="14px" fill="#000" opacity="1">50</text></g><g class="mark-rule role-axis-domain" pointer-events="none"><line transform="translate(0,400)" x2="0" y2="-400" stroke="#888" stroke-width="1" opacity="1"/></g><g class="mark-text role-axis-title" pointer-events="none"><text text-anchor="middle" transform="translate(-25,200) rotate(-90) translate(0,-3)" font-family="Times New Roman" font-size="16px" font-weight="bold" fill="#000" opacity="1">Dormant neuron ratio (%)</text></g></g><path class="foreground" aria-hidden="true" d="" pointer-events="none" display="none"/></g></g><g class="mark-group role-scope layer_0_layer_0_pathgroup" role="graphics-object" aria-roledescription="group mark container"><g transform="translate(0,0)"><path class="background" aria-hidden="true" d="M0,0h600v400h-600Z"/><g><g class="mark-area role-mark layer_0_layer_0_marks" clip-path="url(#clip1)" role="graphics-object" aria-roledescription="area mark container"><path aria-label="Timestep: 200.38k; Dormant neuron ratio (%): 8.87988297224; upper_Dormant neuron ratio: 10.481771183; Width: 256; Ci1 of Dormant neuron ratio: 10.481771183; Ci0 of Dormant neuron ratio: 8.87988297224; Mean of Dormant neuron ratio: 9.6875002861" role="graphics-symbol" aria-roledescription="errorband" d="M12.023,339.657C14.027,342.712,16.031,345.002,18.035,346.98C20.039,348.958,22.043,350.625,24.047,351.979C26.05,353.333,28.054,354.375,30.058,355.33C32.062,356.285,34.066,357.153,36.07,357.847C38.074,358.542,40.078,359.062,42.082,360.174C44.086,361.286,46.089,362.988,48.093,363.891C50.097,364.793,52.101,364.897,54.105,365.591C56.109,366.286,58.113,367.571,60.117,368.561C62.121,369.55,64.125,370.244,66.128,370.608C68.132,370.972,70.136,371.007,72.14,371.007C74.144,371.007,76.148,370.972,78.152,371.198C80.156,371.424,82.16,371.911,84.164,372.624C86.167,373.336,88.171,374.273,90.175,374.655C92.179,375.036,94.183,374.862,96.187,374.983C98.191,375.104,100.195,375.521,102.199,375.834C104.203,376.147,106.206,376.356,108.21,376.668C110.214,376.981,112.218,377.397,114.222,377.605C116.226,377.812,118.23,377.812,120.234,377.76C122.238,377.708,124.242,377.604,126.245,377.622C128.249,377.64,130.253,377.78,132.257,377.849C134.261,377.919,136.265,377.919,138.269,377.937C140.273,377.954,142.277,377.989,144.281,378.092C146.284,378.196,148.288,378.369,150.292,378.386C152.296,378.403,154.3,378.264,156.304,378.612C158.308,378.959,160.312,379.793,162.316,380.263C164.319,380.732,166.323,380.836,168.327,380.801C170.331,380.766,172.335,380.591,174.339,380.539C176.343,380.487,178.347,380.557,180.351,380.436C182.355,380.314,184.359,380.001,186.362,380.018C188.366,380.035,190.37,380.382,192.374,380.73C194.378,381.077,196.382,381.425,198.386,382.068C200.39,382.71,202.394,383.647,204.398,383.837C206.401,384.028,208.405,383.472,210.409,383.455C212.413,383.437,214.417,383.958,216.421,384.167C218.425,384.375,220.429,384.271,222.433,384.288C224.437,384.306,226.44,384.444,228.444,384.687C230.448,384.931,232.452,385.278,234.456,385.348C236.46,385.418,238.464,385.21,240.468,385.106C242.472,385.002,244.476,385.001,246.479,384.809C248.483,384.618,250.487,384.236,252.491,384.289C254.495,384.341,256.499,384.828,258.503,385.002C260.507,385.176,262.511,385.037,264.515,384.829C266.518,384.621,268.522,384.343,270.526,384.221C272.53,384.099,274.534,384.133,276.538,384.15C278.542,384.167,280.546,384.167,282.55,383.993C284.554,383.819,286.557,383.472,288.561,383.108C290.565,382.744,292.569,382.363,294.573,382.345C296.577,382.328,298.581,382.674,300.585,382.709C302.589,382.744,304.593,382.467,306.596,382.328C308.6,382.189,310.604,382.188,312.608,382.101C314.612,382.014,316.616,381.84,318.62,381.789C320.624,381.737,322.628,381.807,324.632,381.669C326.635,381.53,328.639,381.183,330.643,381.044C332.647,380.905,334.651,380.975,336.655,381.026C338.659,381.078,340.663,381.112,342.667,381.459C344.671,381.806,346.674,382.465,348.678,382.483C350.682,382.501,352.686,381.877,354.69,381.912C356.694,381.948,358.698,382.643,360.702,382.904C362.706,383.164,364.71,382.99,366.713,382.885C368.717,382.78,370.721,382.746,372.725,382.815C374.729,382.884,376.733,383.056,378.737,383.195C380.741,383.334,382.745,383.439,384.749,383.336C386.752,383.232,388.756,382.919,390.76,382.572C392.764,382.224,394.768,381.841,396.772,381.65C398.776,381.458,400.78,381.458,402.784,381.597C404.787,381.736,406.791,382.014,407.793,382.249C408.795,382.485,408.795,382.677,409.797,382.851C410.799,383.025,412.803,383.179,413.805,383.207C414.807,383.235,414.807,383.137,415.809,382.79C416.811,382.443,418.815,381.846,419.817,381.598C420.819,381.349,420.819,381.448,421.821,382.143C422.823,382.837,424.826,384.127,425.828,384.177C426.83,384.226,426.83,383.036,427.832,382.515C428.834,381.994,430.838,382.143,431.84,382.267C432.842,382.391,432.842,382.49,433.844,382.837C434.846,383.185,436.85,383.78,437.852,383.829C438.854,383.879,438.854,383.383,439.856,383.73C440.858,384.077,442.861,385.268,443.863,385.243C444.865,385.218,444.865,383.978,445.867,383.457C446.869,382.937,448.873,383.135,449.875,383.011C450.877,382.887,450.877,382.44,451.879,382.614C452.881,382.788,454.885,383.581,455.887,383.235C456.889,382.888,456.889,381.401,457.891,381.054C458.893,380.707,460.897,381.499,461.898,381.846C462.9,382.192,462.901,382.093,463.902,382.093C464.904,382.093,466.908,382.192,467.91,382.019C468.912,381.846,468.912,381.401,469.914,381.749C470.916,382.096,472.92,383.235,473.922,383.483C474.924,383.73,474.924,383.085,475.926,383.433C476.928,383.78,478.932,385.119,479.934,385.095C480.936,385.071,480.936,383.683,481.938,382.815C482.939,381.947,484.943,381.598,485.945,381.623C486.947,381.648,486.947,382.046,487.949,381.873C488.951,381.699,490.955,380.954,491.957,380.631C492.959,380.309,492.959,380.409,493.961,380.756C494.963,381.104,496.967,381.698,497.969,382.094C498.971,382.49,498.971,382.688,499.973,382.515C500.975,382.341,502.978,381.796,503.98,381.473C504.982,381.151,504.982,381.052,505.984,381.052C506.986,381.052,508.99,381.151,509.992,381.176C510.994,381.2,510.994,381.151,511.996,381.498C512.998,381.845,515.002,382.589,516.004,382.639C517.006,382.688,517.006,382.044,518.008,382.044C519.01,382.044,521.014,382.688,522.015,382.516C523.017,382.343,523.018,381.352,524.019,382.22C525.021,383.088,527.025,385.815,528.027,385.587C529.029,385.359,529.029,382.176,530.031,381.794C531.033,381.412,533.037,383.831,534.039,383.721C535.041,383.611,535.041,380.972,536.043,380.833C537.045,380.694,539.049,383.056,540.051,383.576C541.052,384.097,541.053,382.778,542.055,382.465C543.057,382.153,545.06,382.847,546.062,382.569C547.064,382.292,547.064,381.042,548.066,381.354C549.068,381.667,551.072,383.542,552.074,383.368C553.076,383.194,553.076,380.972,554.078,380.626C555.08,380.28,557.084,381.809,558.086,382.052C559.088,382.295,559.088,381.252,560.09,381.043C561.092,380.833,563.095,381.458,564.097,381.632C565.099,381.806,565.099,381.528,566.101,381.25C567.103,380.972,569.107,380.694,570.109,380.521C571.111,380.347,571.111,380.278,572.113,380.174C573.115,380.069,575.119,379.931,576.121,380.244C577.123,380.557,577.123,381.323,578.125,382.087C579.127,382.851,581.13,383.613,582.132,381.911C583.134,380.208,583.135,376.042,584.136,376.042C585.138,376.042,587.142,380.208,588.144,379.948C589.146,379.687,589.146,375,590.148,375C591.15,375,593.154,379.687,594.156,379.601L594.156,369.589C593.154,369.329,591.15,367.998,590.148,368.432C589.146,368.866,589.146,371.065,588.144,370.761C587.142,370.457,585.138,367.65,584.136,367.274C583.135,366.898,583.134,368.953,582.132,369.326C581.13,369.699,579.127,368.391,578.125,367.772C577.123,367.153,577.123,367.222,576.121,367.535C575.119,367.847,573.115,368.403,572.113,368.611C571.111,368.819,571.111,368.681,570.109,368.403C569.107,368.125,567.103,367.708,566.101,367.915C565.099,368.122,565.099,368.951,564.097,368.396C563.095,367.84,561.092,365.899,560.09,365.554C559.088,365.208,559.088,366.458,558.086,366.424C557.084,366.389,555.08,365.069,554.078,365.168C553.076,365.267,553.076,366.785,552.074,366.924C551.072,367.062,549.068,365.823,548.066,365.168C547.064,364.514,547.064,364.444,546.062,365.139C545.06,365.833,543.057,367.292,542.055,367.674C541.053,368.056,541.052,367.361,540.051,367.083C539.049,366.806,537.045,366.944,536.043,367.431C535.041,367.917,535.041,368.75,534.039,368.449C533.037,368.148,531.033,366.713,530.031,367.182C529.029,367.65,529.029,370.023,528.027,370.106C527.025,370.188,525.021,367.981,524.019,367.721C523.018,367.46,523.017,369.147,522.015,369.369C521.014,369.592,519.01,368.351,518.008,368.698C517.006,369.045,517.006,370.981,516.004,370.758C515.002,370.536,512.998,368.155,511.996,367.634C510.994,367.113,510.994,368.452,509.992,368.626C508.99,368.8,506.986,367.808,505.984,367.46C504.982,367.113,504.982,367.411,503.98,367.312C502.978,367.212,500.975,366.716,499.973,367.237C498.971,367.758,498.971,369.296,497.969,368.924C496.967,368.552,494.963,366.27,493.961,365.923C492.959,365.575,492.959,367.163,491.957,367.411C490.955,367.659,488.951,366.567,487.949,366.394C486.947,366.22,486.947,366.964,485.945,366.939C484.943,366.913,482.939,366.119,481.938,366.292C480.936,366.466,480.936,367.608,479.934,367.609C478.932,367.609,476.928,366.468,475.926,367.163C474.924,367.857,474.924,370.387,473.922,370.312C472.92,370.238,470.916,367.56,469.914,368.08C468.912,368.601,468.912,372.321,467.91,372.669C466.908,373.016,464.904,369.99,463.902,369.643C462.901,369.296,462.9,371.627,461.898,371.429C460.897,371.23,458.893,368.502,457.891,369.196C456.889,369.891,456.889,374.008,455.887,373.76C454.885,373.512,452.881,368.899,451.879,369.42C450.877,369.94,450.877,375.595,449.875,375.546C448.873,375.496,446.869,369.742,445.867,368.7C444.865,367.659,444.865,371.329,443.863,371.577C442.861,371.824,440.858,368.648,439.856,368.475C438.854,368.301,438.854,371.13,437.852,371.081C436.85,371.032,434.846,368.105,433.844,368.105C432.842,368.105,432.842,371.032,431.84,371.032C430.838,371.032,428.834,368.105,427.832,367.584C426.83,367.063,426.83,368.948,425.828,369.146C424.826,369.343,422.823,367.852,421.821,367.505C420.819,367.158,420.819,367.954,419.817,367.881C418.815,367.808,416.811,366.865,415.809,366.691C414.807,366.518,414.807,367.113,413.805,367.796C412.803,368.479,410.799,369.25,409.797,371.68C408.795,374.111,408.795,378.201,407.793,378.406C406.791,378.611,404.787,374.931,402.784,373.003C400.78,371.076,398.776,370.903,396.772,370.851C394.768,370.799,392.764,370.868,390.76,370.833C388.756,370.798,386.752,370.658,384.749,370.796C382.745,370.935,380.741,371.352,378.737,371.438C376.733,371.525,374.729,371.282,372.725,371.248C370.721,371.214,368.717,371.388,366.713,371.545C364.71,371.701,362.706,371.84,360.702,371.788C358.698,371.735,356.694,371.491,354.69,371.612C352.686,371.734,350.682,372.22,348.678,372.012C346.674,371.804,344.671,370.902,342.667,370.954C340.663,371.006,338.659,372.012,336.655,372.342C334.651,372.672,332.647,372.326,330.643,372.378C328.639,372.43,326.635,372.88,324.632,372.793C322.628,372.707,320.624,372.082,318.62,371.788C316.616,371.493,314.612,371.528,312.608,371.649C310.604,371.77,308.6,371.977,306.596,372.203C304.593,372.429,302.589,372.673,300.585,372.76C298.581,372.847,296.577,372.778,294.573,372.969C292.569,373.16,290.565,373.611,288.561,374.097C286.557,374.583,284.554,375.104,282.55,375.174C280.546,375.243,278.542,374.861,276.538,374.635C274.534,374.41,272.53,374.34,270.526,374.41C268.522,374.479,266.518,374.687,264.515,374.861C262.511,375.035,260.507,375.174,258.503,375.035C256.499,374.896,254.495,374.479,252.491,374.306C250.487,374.132,248.483,374.201,246.479,374.41C244.476,374.618,242.472,374.965,240.468,375.052C238.464,375.139,236.46,374.965,234.456,374.896C232.452,374.826,230.448,374.861,228.444,374.722C226.44,374.582,224.437,374.269,222.433,374.252C220.429,374.234,218.425,374.513,216.421,374.583C214.417,374.653,212.413,374.514,210.409,374.392C208.405,374.271,206.401,374.167,204.398,373.889C202.394,373.611,200.39,373.16,198.386,372.882C196.382,372.603,194.378,372.498,192.374,372.359C190.37,372.22,188.366,372.048,186.362,371.753C184.359,371.458,182.355,371.042,180.351,370.729C178.347,370.416,176.343,370.207,174.339,370.207C172.335,370.207,170.331,370.416,168.327,370.26C166.323,370.104,164.319,369.583,162.316,369.219C160.312,368.854,158.308,368.646,156.304,368.402C154.3,368.159,152.296,367.88,150.292,367.793C148.288,367.707,146.284,367.812,144.281,367.829C142.277,367.847,140.273,367.778,138.269,367.812C136.265,367.846,134.261,367.984,132.257,367.984C130.253,367.984,128.249,367.845,126.245,367.828C124.242,367.811,122.238,367.916,120.234,367.673C118.23,367.43,116.226,366.839,114.222,366.804C112.218,366.769,110.214,367.291,108.21,367.569C106.206,367.846,104.203,367.88,102.199,367.655C100.195,367.429,98.191,366.944,96.187,366.406C94.183,365.868,92.179,365.278,90.175,364.826C88.171,364.374,86.167,364.061,84.164,363.817C82.16,363.574,80.156,363.4,78.152,363.349C76.148,363.297,74.144,363.367,72.14,363.159C70.136,362.951,68.132,362.465,66.128,361.736C64.125,361.007,62.121,360.035,60.117,359.167C58.113,358.299,56.109,357.535,54.105,356.666C52.101,355.797,50.097,354.823,48.093,353.763C46.089,352.704,44.086,351.559,42.082,350.622C40.078,349.686,38.074,348.957,36.07,348.263C34.066,347.569,32.062,346.91,30.058,345.868C28.054,344.826,26.05,343.403,24.047,341.545C22.043,339.687,20.039,337.396,18.035,334.843C16.031,332.291,14.027,329.477,12.023,326.318Z" fill="#FF5F33" opacity="0.3"/></g></g><path class="foreground" aria-hidden="true" d="" display="none"/></g><g transform="translate(0,0)"><path class="background" aria-hidden="true" d="M0,0h600v400h-600Z"/><g><g class="mark-area role-mark layer_0_layer_0_marks" clip-path="url(#clip2)" role="graphics-object" aria-roledescription="area mark container"><path aria-label="Timestep: 200.38k; Dormant neuron ratio (%): 10.3774416327; upper_Dormant neuron ratio: 11.6341150284; Width: 512; Ci1 of Dormant neuron ratio: 11.6341150284; Ci0 of Dormant neuron ratio: 10.3774416327; Mean of Dormant neuron ratio: 11.0221357346" role="graphics-symbol" aria-roledescription="errorband" d="M12.023,333.318C14.027,338.162,16.031,342.102,18.035,345.236C20.039,348.369,22.043,350.695,24.047,352.5C26.05,354.306,28.054,355.591,30.058,356.98C32.062,358.37,34.066,359.863,36.07,361.27C38.074,362.676,40.078,363.995,42.082,365.366C44.086,366.737,46.089,368.161,48.093,369.532C50.097,370.904,52.101,372.223,54.105,373.195C56.109,374.167,58.113,374.792,60.117,375.443C62.121,376.094,64.125,376.771,66.128,377.457C68.132,378.142,70.136,378.837,72.14,379.28C74.144,379.723,76.148,379.914,78.152,380.131C80.156,380.348,82.16,380.591,84.164,380.912C86.167,381.233,88.171,381.632,90.175,381.753C92.179,381.875,94.183,381.719,96.187,381.901C98.191,382.083,100.195,382.604,102.199,382.804C104.203,383.003,106.206,382.882,108.21,383.047C110.214,383.212,112.218,383.663,114.222,384.106C116.226,384.549,118.23,384.984,120.234,385.166C122.238,385.348,124.242,385.278,126.245,385.235C128.249,385.191,130.253,385.174,132.257,385.373C134.261,385.573,136.265,385.99,138.269,386.137C140.273,386.285,142.277,386.163,144.281,386.25C146.284,386.337,148.288,386.633,150.292,386.685C152.296,386.737,154.3,386.546,156.304,386.354C158.308,386.163,160.312,385.972,162.316,385.981C164.319,385.99,166.323,386.198,168.327,386.215C170.331,386.233,172.335,386.059,174.339,385.833C176.343,385.608,178.347,385.33,180.351,385.417C182.355,385.503,184.359,385.955,186.362,385.937C188.366,385.92,190.37,385.434,192.374,385.304C194.378,385.174,196.382,385.4,198.386,385.27C200.39,385.14,202.394,384.653,204.398,384.384C206.401,384.115,208.405,384.062,210.409,384.028C212.413,383.993,214.417,383.977,216.421,383.847C218.425,383.717,220.429,383.474,222.433,383.395C224.437,383.317,226.44,383.403,228.444,383.395C230.448,383.386,232.452,383.282,234.456,383.074C236.46,382.865,238.464,382.553,240.468,382.396C242.472,382.24,244.476,382.24,246.479,382.257C248.483,382.275,250.487,382.31,252.491,382.249C254.495,382.188,256.499,382.032,258.503,381.84C260.507,381.649,262.511,381.424,264.515,381.276C266.518,381.128,268.522,381.059,270.526,380.973C272.53,380.886,274.534,380.783,276.538,380.662C278.542,380.54,280.546,380.401,282.55,380.331C284.554,380.261,286.557,380.261,288.561,380.478C290.565,380.694,292.569,381.128,294.573,381.242C296.577,381.355,298.581,381.147,300.585,381.077C302.589,381.008,304.593,381.077,306.596,380.877C308.6,380.678,310.604,380.209,312.608,379.819C314.612,379.428,316.616,379.115,318.62,378.88C320.624,378.646,322.628,378.49,324.632,378.194C326.635,377.899,328.639,377.465,330.643,377.344C332.647,377.223,334.651,377.414,336.655,377.484C338.659,377.553,340.663,377.501,342.667,377.284C344.671,377.067,346.674,376.684,348.678,376.216C350.682,375.747,352.686,375.192,354.69,374.463C356.694,373.734,358.698,372.83,360.702,372.587C362.706,372.344,364.71,372.76,366.713,373.056C368.717,373.351,370.721,373.525,372.725,373.69C374.729,373.855,376.733,374.012,378.737,374.02C380.741,374.029,382.745,373.89,384.749,373.751C386.752,373.612,388.756,373.473,390.76,373.255C392.764,373.038,394.768,372.743,396.772,372.587C398.776,372.431,400.78,372.414,402.784,372.319C404.787,372.224,406.791,372.051,408.795,371.938C410.799,371.825,412.803,371.773,414.807,371.199C416.811,370.626,418.815,369.533,420.819,369.263C422.823,368.994,424.826,369.549,426.83,369.792C428.834,370.035,430.838,369.966,432.842,370.201C434.846,370.435,436.85,370.973,438.854,371.112C440.858,371.251,442.862,370.991,444.865,370.974C446.869,370.957,448.873,371.181,450.877,370.904C452.881,370.626,454.885,369.845,456.889,369.524C458.893,369.203,460.897,369.341,462.901,369.107C464.904,368.872,466.908,368.265,468.912,367.918C470.916,367.571,472.92,367.484,474.924,367.327C476.928,367.171,478.932,366.945,480.936,366.867C482.94,366.788,484.944,366.858,486.947,366.693C488.951,366.528,490.955,366.129,492.959,365.774C494.963,365.418,496.967,365.105,498.971,364.871C500.975,364.637,502.979,364.48,504.983,364.246C506.986,364.011,508.99,363.698,510.994,363.689C512.998,363.681,515.002,363.976,517.006,364.037C519.01,364.098,521.014,363.924,523.018,363.787C525.022,363.649,527.025,363.546,529.029,363.468C531.033,363.39,533.037,363.336,535.041,363.222C537.045,363.108,539.049,362.935,541.053,362.787C543.057,362.64,545.06,362.518,547.064,362.188C549.068,361.858,551.072,361.319,553.076,361.146C555.08,360.973,557.084,361.164,559.088,361.016C561.092,360.869,563.096,360.382,565.099,360.07C567.103,359.758,569.107,359.62,571.111,359.308C573.115,358.995,575.119,358.509,577.123,358.5C579.127,358.492,581.131,358.961,583.135,359.326C585.139,359.691,587.142,359.95,589.146,359.732L589.146,347.829C587.142,348.177,585.139,348.801,583.135,348.784C581.131,348.766,579.127,348.106,577.123,347.664C575.119,347.221,573.115,346.995,571.111,347.108C569.107,347.221,567.103,347.673,565.099,348.377C563.096,349.08,561.092,350.035,559.088,350.382C557.084,350.729,555.08,350.468,553.076,350.589C551.072,350.709,549.068,351.211,547.064,351.411C545.06,351.611,543.057,351.508,541.053,351.734C539.049,351.961,537.045,352.516,535.041,352.751C533.037,352.985,531.033,352.899,529.029,352.673C527.025,352.448,525.022,352.083,523.018,351.927C521.014,351.77,519.01,351.822,517.006,352.091C515.002,352.36,512.998,352.847,510.994,353.116C508.99,353.385,506.986,353.437,504.983,353.75C502.979,354.062,500.975,354.635,498.971,355.19C496.967,355.746,494.963,356.284,492.959,356.588C490.955,356.892,488.951,356.961,486.947,357.169C484.944,357.378,482.94,357.725,480.936,357.89C478.932,358.055,476.928,358.037,474.924,358.124C472.92,358.211,470.916,358.401,468.912,358.749C466.908,359.096,464.904,359.599,462.901,359.712C460.897,359.826,458.893,359.548,456.889,359.539C454.885,359.531,452.881,359.791,450.877,359.886C448.873,359.981,446.869,359.912,444.865,359.764C442.862,359.617,440.858,359.391,438.854,359.408C436.85,359.425,434.846,359.684,432.842,360.075C430.838,360.466,428.834,360.988,426.83,361.015C424.826,361.042,422.823,360.573,420.819,360.599C418.815,360.625,416.811,361.145,414.807,361.64C412.803,362.135,410.799,362.604,408.795,362.621C406.791,362.638,404.787,362.203,402.784,362.099C400.78,361.995,398.776,362.221,396.772,362.43C394.768,362.638,392.764,362.829,390.76,363.202C388.756,363.576,386.752,364.132,384.749,364.626C382.745,365.121,380.741,365.555,378.737,365.876C376.733,366.197,374.729,366.405,372.725,366.396C370.721,366.388,368.717,366.163,366.713,366.059C364.71,365.955,362.706,365.972,360.702,366.224C358.698,366.475,356.694,366.961,354.69,367.36C352.686,367.759,350.682,368.072,348.678,368.263C346.674,368.454,344.671,368.524,342.667,368.637C340.663,368.75,338.659,368.906,336.655,368.932C334.651,368.958,332.647,368.853,330.643,369.235C328.639,369.617,326.635,370.486,324.632,370.842C322.628,371.198,320.624,371.042,318.62,371.224C316.616,371.406,314.612,371.927,312.608,372.405C310.604,372.882,308.6,373.316,306.596,373.463C304.593,373.611,302.589,373.471,300.585,373.584C298.581,373.697,296.577,374.061,294.573,374.183C292.569,374.304,290.565,374.183,288.561,374.357C286.557,374.53,284.554,375,282.55,375.104C280.546,375.207,278.542,374.946,276.538,374.998C274.534,375.05,272.53,375.415,270.526,375.519C268.522,375.624,266.518,375.467,264.515,375.554C262.511,375.641,260.507,375.972,258.503,376.232C256.499,376.493,254.495,376.684,252.491,376.805C250.487,376.927,248.483,376.978,246.479,377.152C244.476,377.325,242.472,377.62,240.468,377.681C238.464,377.742,236.46,377.569,234.456,377.682C232.452,377.795,230.448,378.194,228.444,378.376C226.44,378.558,224.437,378.523,222.433,378.679C220.429,378.836,218.425,379.184,216.421,379.114C214.417,379.045,212.413,378.558,210.409,378.54C208.405,378.523,206.401,378.974,204.398,379.356C202.394,379.738,200.39,380.051,198.386,380.164C196.382,380.278,194.378,380.191,192.374,380.364C190.37,380.538,188.366,380.971,186.362,381.197C184.359,381.422,182.355,381.44,180.351,381.648C178.347,381.857,176.343,382.257,174.339,382.352C172.335,382.448,170.331,382.24,168.327,382.101C166.323,381.962,164.319,381.892,162.316,381.831C160.312,381.77,158.308,381.718,156.304,381.865C154.3,382.013,152.296,382.36,150.292,382.421C148.288,382.482,146.284,382.257,144.281,382.118C142.277,381.979,140.273,381.927,138.269,381.745C136.265,381.562,134.261,381.25,132.257,381.206C130.253,381.162,128.249,381.387,126.245,381.63C124.242,381.873,122.238,382.135,120.234,382.152C118.23,382.17,116.226,381.944,114.222,381.493C112.218,381.042,110.214,380.365,108.21,380.156C106.206,379.948,104.203,380.208,102.199,379.939C100.195,379.67,98.191,378.872,96.187,378.437C94.183,378.003,92.179,377.934,90.175,377.665C88.171,377.395,86.167,376.926,84.164,376.457C82.16,375.989,80.156,375.52,78.152,374.965C76.148,374.409,74.144,373.766,72.14,373.133C70.136,372.499,68.132,371.875,66.128,370.998C64.125,370.122,62.121,368.993,60.117,368.03C58.113,367.066,56.109,366.267,54.105,365.191C52.101,364.114,50.097,362.76,48.093,361.379C46.089,359.999,44.086,358.592,42.082,357.256C40.078,355.919,38.074,354.651,36.07,353.332C34.066,352.013,32.062,350.642,30.058,349.071C28.054,347.5,26.05,345.729,24.047,343.663C22.043,341.597,20.039,339.236,18.035,335.694C16.031,332.153,14.027,327.431,12.023,322.439Z" fill="#FF4B33" opacity="0.3"/></g></g><path class="foreground" aria-hidden="true" d="" display="none"/></g><g transform="translate(0,0)"><path class="background" aria-hidden="true" d="M0,0h600v400h-600Z"/><g><g class="mark-area role-mark layer_0_layer_0_marks" clip-path="url(#clip3)" role="graphics-object" aria-roledescription="area mark container"><path aria-label="Timestep: 200.38k; Dormant neuron ratio (%): 12.6038416505; upper_Dormant neuron ratio: 14.6029462194; Width: 1024; Ci1 of Dormant neuron ratio: 14.6029462194; Ci0 of Dormant neuron ratio: 12.6038416505; Mean of Dormant neuron ratio: 13.684896183" role="graphics-symbol" aria-roledescription="errorband" d="M12.023,318.468C14.027,323.72,16.031,327.199,18.035,330.922C20.039,334.645,22.043,338.612,24.047,341.984C26.05,345.357,28.054,348.135,30.058,350.947C32.062,353.76,34.066,356.606,36.07,358.668C38.074,360.729,40.078,362.005,42.082,363.316C44.086,364.627,46.089,365.973,48.093,367.184C50.097,368.395,52.101,369.471,54.105,370.296C56.109,371.12,58.113,371.694,60.117,372.366C62.121,373.039,64.125,373.812,66.128,374.141C68.132,374.471,70.136,374.358,72.14,374.471C74.144,374.584,76.148,374.923,78.152,375.152C80.156,375.382,82.16,375.504,84.164,375.487C86.167,375.47,88.171,375.314,90.175,375.379C92.179,375.445,94.183,375.73,96.187,375.922C98.191,376.113,100.195,376.209,102.199,376.192C104.203,376.175,106.206,376.044,108.21,376.126C110.214,376.208,112.218,376.503,114.222,376.529C116.226,376.554,118.23,376.311,120.234,375.99C122.238,375.669,124.242,375.269,126.245,375.161C128.249,375.052,130.253,375.234,132.257,375.438C134.261,375.642,136.265,375.868,138.269,375.881C140.273,375.894,142.277,375.695,144.281,375.278C146.284,374.862,148.288,374.228,150.292,373.972C152.296,373.716,154.3,373.837,156.304,373.785C158.308,373.733,160.312,373.507,162.316,373.429C164.319,373.351,166.323,373.42,168.327,373.195C170.331,372.969,172.335,372.448,174.339,372.323C176.343,372.197,178.347,372.467,180.351,372.389C182.355,372.312,184.359,371.887,186.362,371.296C188.366,370.706,190.37,369.95,192.374,369.663C194.378,369.376,196.382,369.559,198.386,369.216C200.39,368.873,202.394,368.005,204.398,367.397C206.401,366.789,208.405,366.442,210.409,366.468C212.413,366.494,214.417,366.893,216.421,366.642C218.425,366.391,220.429,365.488,222.433,364.724C224.437,363.96,226.44,363.335,228.444,362.797C230.448,362.258,232.452,361.808,234.456,361.274C236.46,360.741,238.464,360.124,240.468,359.781C242.472,359.437,244.476,359.367,246.479,359.025C248.483,358.682,250.487,358.067,252.491,357.576C254.495,357.086,256.499,356.72,258.503,356.55C260.507,356.38,262.511,356.406,264.515,355.899C266.518,355.392,268.522,354.351,270.526,353.683C272.53,353.015,274.534,352.719,276.538,352.163C278.542,351.608,280.546,350.792,282.55,350.501C284.554,350.211,286.557,350.445,288.561,350.444C290.565,350.444,292.569,350.209,294.573,349.646C296.577,349.082,298.581,348.191,300.585,347.466C302.589,346.741,304.593,346.183,306.596,345.688C308.6,345.194,310.604,344.763,312.608,344.398C314.612,344.034,316.616,343.736,318.62,343.405C320.624,343.075,322.628,342.711,324.632,342.424C326.635,342.137,328.639,341.928,330.643,341.355C332.647,340.783,334.651,339.846,336.655,339.542C338.659,339.238,340.663,339.568,342.667,339.451C344.671,339.333,346.674,338.768,348.678,338.469C350.682,338.169,352.686,338.134,354.69,337.8C356.694,337.465,358.698,336.832,360.702,336.099C362.706,335.365,364.71,334.532,366.713,334.271C368.717,334.011,370.721,334.324,372.725,334.164C374.729,334.005,376.733,333.374,378.737,333.2C380.741,333.026,382.745,333.31,384.749,332.511C386.752,331.711,388.756,329.828,390.76,328.513C392.764,327.199,394.768,326.452,396.772,325.892C398.776,325.332,400.78,324.958,402.784,324.342C404.787,323.725,406.791,322.867,408.795,322.481C410.799,322.094,412.803,322.18,414.807,322.084C416.811,321.988,418.815,321.711,420.819,321.191C422.823,320.67,424.826,319.905,426.83,319.822C428.834,319.74,430.838,320.339,432.842,320.135C434.846,319.931,436.85,318.924,438.854,318.269C440.858,317.615,442.862,317.312,444.865,317.26C446.869,317.208,448.873,317.406,450.877,316.798C452.881,316.189,454.885,314.774,456.889,314.258C458.893,313.742,460.897,314.125,462.901,314.23C464.904,314.334,466.908,314.161,468.912,313.657C470.916,313.153,472.92,312.319,474.924,311.499C476.928,310.679,478.932,309.873,480.936,309.514C482.94,309.154,484.944,309.241,486.947,309.028C488.951,308.815,490.955,308.303,492.959,307.986C494.963,307.668,496.967,307.546,498.971,307.424C500.975,307.301,502.979,307.18,504.983,306.564C506.986,305.949,508.99,304.839,510.994,304.049C512.998,303.259,515.002,302.789,517.006,302.363C519.01,301.937,521.014,301.557,523.018,301.6C525.022,301.644,527.025,302.112,529.029,301.699C531.033,301.286,533.037,299.992,535.041,299.445C537.045,298.898,539.049,299.098,541.053,298.469C543.057,297.84,545.06,296.383,547.064,295.945C549.068,295.506,551.072,296.087,553.076,296.344C555.08,296.6,557.084,296.532,559.088,295.946C561.092,295.36,563.096,294.257,565.099,293.783C567.103,293.309,569.107,293.465,571.111,293.352C573.115,293.239,575.119,292.858,577.123,292.468C579.127,292.079,581.131,291.68,583.135,291.61C585.139,291.54,587.142,291.799,589.146,291.711L589.146,268.332C587.142,268.327,585.139,268.613,583.135,269.043C581.131,269.474,579.127,270.048,577.123,270.371C575.119,270.693,573.115,270.763,571.111,270.503C569.107,270.243,567.103,269.652,565.099,269.552C563.096,269.452,561.092,269.842,559.088,270.428C557.084,271.014,555.08,271.795,553.076,272.169C551.072,272.542,549.068,272.507,547.064,272.797C545.06,273.087,543.057,273.702,541.053,274.853C539.049,276.003,537.045,277.689,535.041,278.479C533.037,279.27,531.033,279.164,529.029,278.9C527.025,278.635,525.022,278.21,523.018,278.358C521.014,278.506,519.01,279.227,517.006,279.674C515.002,280.122,512.998,280.298,510.994,281.1C508.99,281.902,506.986,283.332,504.983,283.974C502.979,284.615,500.975,284.469,498.971,284.934C496.967,285.399,494.963,286.475,492.959,286.77C490.955,287.065,488.951,286.579,486.947,286.852C484.944,287.125,482.94,288.159,480.936,288.732C478.932,289.305,476.928,289.418,474.924,289.955C472.92,290.492,470.916,291.452,468.912,292.175C466.908,292.899,464.904,293.385,462.901,293.829C460.897,294.274,458.893,294.676,456.889,295.263C454.885,295.85,452.881,296.623,450.877,296.788C448.873,296.953,446.869,296.51,444.865,296.544C442.862,296.579,440.858,297.089,438.854,297.905C436.85,298.72,434.846,299.84,432.842,300.184C430.838,300.527,428.834,300.094,426.83,300.189C424.826,300.284,422.823,300.908,420.819,301.597C418.815,302.286,416.811,303.04,414.807,303.335C412.803,303.63,410.799,303.466,408.795,303.776C406.791,304.085,404.787,304.868,402.784,305.554C400.78,306.24,398.776,306.829,396.772,307.236C394.768,307.644,392.764,307.871,390.76,308.561C388.756,309.251,386.752,310.405,384.749,310.514C382.745,310.622,380.741,309.686,378.737,309.629C376.733,309.571,374.729,310.393,372.725,310.848C370.721,311.304,368.717,311.393,366.713,311.764C364.71,312.134,362.706,312.786,360.702,313.054C358.698,313.323,356.694,313.21,354.69,313.713C352.686,314.215,350.682,315.335,348.678,315.996C346.674,316.657,344.671,316.86,342.667,316.834C340.663,316.809,338.659,316.554,336.655,316.744C334.651,316.934,332.647,317.568,330.643,318.171C328.639,318.775,326.635,319.347,324.632,319.386C322.628,319.425,320.624,318.93,318.62,319.195C316.616,319.459,314.612,320.484,312.608,321.099C310.604,321.715,308.6,321.922,306.596,322.391C304.593,322.86,302.589,323.591,300.585,324.12C298.581,324.65,296.577,324.977,294.573,325.196C292.569,325.416,290.565,325.526,288.561,325.232C286.557,324.937,284.554,324.237,282.55,324.324C280.546,324.412,278.542,325.288,276.538,325.722C274.534,326.157,272.53,326.151,270.526,326.603C268.522,327.055,266.518,327.965,264.515,328.369C262.511,328.772,260.507,328.67,258.503,328.827C256.499,328.984,254.495,329.401,252.491,329.817C250.487,330.233,248.483,330.649,246.479,330.562C244.476,330.475,242.472,329.885,240.468,329.598C238.464,329.312,236.46,329.329,234.456,329.425C232.452,329.52,230.448,329.694,228.444,329.729C226.44,329.763,224.437,329.66,222.433,329.608C220.429,329.556,218.425,329.556,216.421,329.055C214.417,328.555,212.413,327.555,210.409,326.978C208.405,326.401,206.401,326.246,204.398,326.668C202.394,327.09,200.39,328.089,198.386,328.466C196.382,328.843,194.378,328.597,192.374,328.227C190.37,327.857,188.366,327.363,186.362,327.394C184.359,327.426,182.355,327.984,180.351,328.098C178.347,328.212,176.343,327.882,174.339,327.522C172.335,327.163,170.331,326.775,168.327,326.662C166.323,326.549,164.319,326.712,162.316,326.845C160.312,326.977,158.308,327.081,156.304,326.998C154.3,326.916,152.296,326.648,150.292,326.304C148.288,325.961,146.284,325.543,144.281,324.698C142.277,323.854,140.273,322.584,138.269,321.629C136.265,320.674,134.261,320.035,132.257,319.694C130.253,319.353,128.249,319.31,126.245,319.701C124.242,320.092,122.238,320.916,120.234,321.624C118.23,322.332,116.226,322.923,114.222,324.426C112.218,325.928,110.214,328.341,108.21,331.145C106.206,333.949,104.203,337.143,102.199,339.082C100.195,341.022,98.191,341.708,96.187,342.763C94.183,343.817,92.179,345.24,90.175,346.907C88.171,348.574,86.167,350.485,84.164,352.364C82.16,354.244,80.156,356.093,78.152,357.169C76.148,358.244,74.144,358.546,72.14,358.906C70.136,359.267,68.132,359.685,66.128,359.842C64.125,359.999,62.121,359.895,60.117,359.122C58.113,358.349,56.109,356.908,54.105,354.929C52.101,352.949,50.097,350.431,48.093,349.459C46.089,348.487,44.086,349.061,42.082,348.419C40.078,347.777,38.074,345.919,36.07,343.379C34.066,340.839,32.062,337.618,30.058,334.483C28.054,331.349,26.05,328.303,24.047,325.365C22.043,322.427,20.039,319.599,18.035,315.936C16.031,312.273,14.027,307.776,12.023,302.177Z" fill="#E0392D" opacity="0.3"/></g></g><path class="foreground" aria-hidden="true" d="" display="none"/></g><g transform="translate(0,0)"><path class="background" aria-hidden="true" d="M0,0h600v400h-600Z"/><g><g class="mark-area role-mark layer_0_layer_0_marks" clip-path="url(#clip4)" role="graphics-object" aria-roledescription="area mark container"><path aria-label="Timestep: 200.38k; Dormant neuron ratio (%): 18.0124515486; upper_Dormant neuron ratio: 19.6731776524; Width: 2048; Ci1 of Dormant neuron ratio: 19.6731776524; Ci0 of Dormant neuron ratio: 18.0124515486; Mean of Dormant neuron ratio: 18.8183597565" role="graphics-symbol" aria-roledescription="errorband" d="M12.023,283.467C14.027,290.861,16.031,295.561,18.035,300.287C20.039,305.013,22.043,309.766,24.047,313.757C26.05,317.748,28.054,320.977,30.058,323.364C32.062,325.751,34.066,327.296,36.07,328.468C38.074,329.64,40.078,330.439,42.082,331.145C44.086,331.85,46.089,332.462,48.093,333.069C50.097,333.677,52.101,334.28,54.105,334.578C56.109,334.875,58.113,334.866,60.117,335.037C62.121,335.209,64.125,335.56,66.128,335.476C68.132,335.391,70.136,334.87,72.14,334.261C74.144,333.651,76.148,332.952,78.152,332.062C80.156,331.172,82.16,330.092,84.164,329.033C86.167,327.974,88.171,326.936,90.175,326.305C92.179,325.674,94.183,325.449,96.187,324.889C98.191,324.329,100.195,323.434,102.199,322.683C104.203,321.933,106.206,321.325,108.21,321.213C110.214,321.1,112.218,321.482,114.222,321.156C116.226,320.831,118.23,319.797,120.234,318.954C122.238,318.112,124.242,317.461,126.245,317.155C128.249,316.85,130.253,316.889,132.257,316.685C134.261,316.481,136.265,316.034,138.269,315.615C140.273,315.196,142.277,314.806,144.281,314.27C146.284,313.734,148.288,313.052,150.292,312.488C152.296,311.923,154.3,311.477,156.304,310.696C158.308,309.916,160.312,308.802,162.316,307.804C164.319,306.806,166.323,305.923,168.327,304.722C170.331,303.521,172.335,302.002,174.339,300.793C176.343,299.585,178.347,298.687,180.351,297.88C182.355,297.073,184.359,296.356,186.362,295.295C188.366,294.233,190.37,292.827,192.374,291.801C194.378,290.774,196.382,290.127,198.386,289.409C200.39,288.691,202.394,287.901,204.398,287.229C206.401,286.557,208.405,286.003,210.409,284.94C212.413,283.876,214.417,282.304,216.421,281.249C218.425,280.193,220.429,279.655,222.433,278.908C224.437,278.162,226.44,277.207,228.444,276.43C230.448,275.653,232.452,275.053,234.456,274.617C236.46,274.18,238.464,273.907,240.468,272.704C242.472,271.5,244.476,269.365,246.479,268.105C248.483,266.845,250.487,266.459,252.491,265.634C254.495,264.809,256.499,263.544,258.503,262.661C260.507,261.777,262.511,261.274,264.515,260.02C266.518,258.765,268.522,256.759,270.526,255.57C272.53,254.381,274.534,254.008,276.538,253.69C278.542,253.371,280.546,253.106,282.55,252.685C284.554,252.263,286.557,251.685,288.561,250.85C290.565,250.015,292.569,248.923,294.573,247.591C296.577,246.259,298.581,244.687,300.585,243.204C302.589,241.721,304.593,240.327,306.596,239.637C308.6,238.947,310.604,238.961,312.608,237.985C314.612,237.008,316.616,235.041,318.62,233.766C320.624,232.492,322.628,231.91,324.632,231.133C326.635,230.357,328.639,229.385,330.643,228.856C332.647,228.327,334.651,228.241,336.655,227.841C338.659,227.442,340.663,226.73,342.667,225.904C344.671,225.079,346.674,224.141,348.678,223.184C350.682,222.227,352.686,221.251,354.69,220.536C356.694,219.821,358.698,219.366,360.702,218.203C362.706,217.04,364.71,215.168,366.713,214.2C368.717,213.232,370.721,213.169,372.725,212.353C374.729,211.537,376.733,209.968,378.737,209.547C380.741,209.126,382.745,209.853,384.749,210.375C386.752,210.896,388.756,211.212,390.76,210.823C392.764,210.434,394.768,209.34,396.772,208.328C398.776,207.316,400.78,206.387,402.784,205.499C404.787,204.611,406.791,203.764,408.795,203.05C410.799,202.335,412.803,201.754,414.807,201.045C416.811,200.336,418.815,199.5,420.819,198.567C422.823,197.633,424.826,196.603,426.83,195.288C428.834,193.972,430.838,192.37,432.842,191.509C434.846,190.647,436.85,190.526,438.854,190.769C440.858,191.013,442.862,191.621,444.865,192.014C446.869,192.407,448.873,192.585,450.877,192.166C452.881,191.747,454.885,190.733,456.889,190.025C458.893,189.318,460.897,188.918,462.901,188.408C464.904,187.898,466.908,187.278,468.912,186.743C470.916,186.209,472.92,185.761,474.924,184.799C476.928,183.838,478.932,182.362,480.936,181.23C482.94,180.097,484.944,179.307,486.947,178.363C488.951,177.419,490.955,176.32,492.959,175.296C494.963,174.272,496.967,173.321,498.971,172.943C500.975,172.566,502.979,172.761,504.983,172.42C506.986,172.079,508.99,171.203,510.994,170.337C512.998,169.472,515.002,168.617,517.006,167.933C519.01,167.249,521.014,166.737,523.018,166.903C525.022,167.069,527.025,167.913,529.029,168.486C531.033,169.059,533.037,169.361,535.041,169.436C537.045,169.511,539.049,169.359,541.053,169.363C543.057,169.367,545.06,169.528,547.064,168.887C549.068,168.247,551.072,166.806,553.076,166.166C555.08,165.526,557.084,165.687,559.088,165.124C561.092,164.561,563.096,163.274,565.099,162.768C567.103,162.262,569.107,162.537,571.111,162.742C573.115,162.947,575.119,163.082,577.123,163.162C579.127,163.242,581.131,163.267,583.135,162.659C585.139,162.052,587.142,160.813,589.146,160.033L589.146,136.201C587.142,137.012,585.139,137.816,583.135,138.471C581.131,139.127,579.127,139.635,577.123,139.806C575.119,139.977,573.115,139.811,571.111,139.724C569.107,139.637,567.103,139.629,565.099,140.126C563.096,140.624,561.092,141.627,559.088,142.163C557.084,142.699,555.08,142.769,553.076,143.337C551.072,143.905,549.068,144.973,547.064,145.379C545.06,145.785,543.057,145.529,541.053,145.346C539.049,145.163,537.045,145.054,535.041,145.337C533.037,145.619,531.033,146.292,529.029,146.64C527.025,146.987,525.022,147.008,523.018,147.253C521.014,147.498,519.01,147.966,517.006,148.89C515.002,149.814,512.998,151.194,510.994,152.458C508.99,153.721,506.986,154.868,504.983,155.22C502.979,155.572,500.975,155.13,498.971,155.266C496.967,155.401,494.963,156.116,492.959,156.717C490.955,157.317,488.951,157.804,486.947,158.662C484.944,159.521,482.94,160.749,480.936,161.848C478.932,162.946,476.928,163.914,474.924,164.762C472.92,165.61,470.916,166.337,468.912,166.725C466.908,167.113,464.904,167.161,462.901,166.893C460.897,166.624,458.893,166.039,456.889,166.456C454.885,166.873,452.881,168.293,450.877,169.218C448.873,170.142,446.869,170.572,444.865,171.012C442.862,171.453,440.858,171.905,438.854,172.171C436.85,172.438,434.846,172.52,432.842,172.526C430.838,172.533,428.834,172.464,426.83,173.17C424.826,173.875,422.823,175.354,420.819,176.273C418.815,177.191,416.811,177.547,414.807,177.944C412.803,178.341,410.799,178.779,408.795,179.3C406.791,179.82,404.787,180.424,402.784,181.016C400.78,181.609,398.776,182.19,396.772,182.8C394.768,183.41,392.764,184.049,390.76,184.802C388.756,185.554,386.752,186.422,384.749,186.747C382.745,187.072,380.741,186.856,378.737,187.242C376.733,187.627,374.729,188.616,372.725,189.402C370.721,190.187,368.717,190.77,366.713,191.521C364.71,192.273,362.706,193.194,360.702,194.266C358.698,195.338,356.694,196.562,354.69,197.644C352.686,198.727,350.682,199.669,348.678,200.369C346.674,201.069,344.671,201.528,342.667,202.572C340.663,203.617,338.659,205.247,336.655,206.22C334.651,207.193,332.647,207.509,330.643,207.981C328.639,208.454,326.635,209.083,324.632,209.691C322.628,210.298,320.624,210.884,318.62,211.715C316.616,212.546,314.612,213.623,312.608,213.926C310.604,214.229,308.6,213.759,306.596,214.343C304.593,214.926,302.589,216.563,300.585,217.989C298.581,219.415,296.577,220.631,294.573,221.796C292.569,222.96,290.565,224.075,288.561,224.937C286.557,225.799,284.554,226.408,282.55,226.945C280.546,227.483,278.542,227.949,276.538,228.639C274.534,229.328,272.53,230.242,270.526,231.363C268.522,232.485,266.518,233.814,264.515,235.046C262.511,236.279,260.507,237.415,258.503,238.415C256.499,239.415,254.495,240.279,252.491,241.508C250.487,242.737,248.483,244.33,246.479,245.516C244.476,246.702,242.472,247.482,240.468,248.092C238.464,248.702,236.46,249.143,234.456,249.907C232.452,250.671,230.448,251.759,228.444,252.311C226.44,252.864,224.437,252.882,222.433,253.5C220.429,254.118,218.425,255.335,216.421,256.631C214.417,257.927,212.413,259.3,210.409,260.723C208.405,262.146,206.401,263.618,204.398,264.219C202.394,264.821,200.39,264.55,198.386,265.397C196.382,266.243,194.378,268.206,192.374,269.359C190.37,270.512,188.366,270.854,186.362,271.499C184.359,272.143,182.355,273.088,180.351,274.322C178.347,275.557,176.343,277.081,174.339,278.542C172.335,280.003,170.331,281.401,168.327,283.059C166.323,284.717,164.319,286.635,162.316,287.935C160.312,289.235,158.308,289.917,156.304,290.501C154.3,291.085,152.296,291.571,150.292,292.191C148.288,292.812,146.284,293.567,144.281,294.097C142.277,294.626,140.273,294.93,138.269,295.724C136.265,296.518,134.261,297.802,132.257,298.412C130.253,299.022,128.249,298.957,126.245,299.226C124.242,299.495,122.238,300.098,120.234,300.784C118.23,301.47,116.226,302.238,114.222,302.762C112.218,303.285,110.214,303.562,108.21,304.287C106.206,305.011,104.203,306.181,102.199,307.105C100.195,308.029,98.191,308.707,96.187,309.736C94.183,310.765,92.179,312.147,90.175,313.358C88.171,314.57,86.167,315.611,84.164,316.837C82.16,318.063,80.156,319.474,78.152,320.822C76.148,322.169,74.144,323.455,72.14,324.271C70.136,325.087,68.132,325.434,66.128,325.481C64.125,325.529,62.121,325.277,60.117,324.993C58.113,324.709,56.109,324.392,54.105,324.27C52.101,324.149,50.097,324.222,48.093,323.509C46.089,322.795,44.086,321.293,42.082,320.607C40.078,319.921,38.074,320.051,36.07,319.059C34.066,318.067,32.062,315.953,30.058,313.009C28.054,310.064,26.05,306.288,24.047,301.948C22.043,297.607,20.039,292.702,18.035,287.235C16.031,281.769,14.027,275.74,12.023,268.21Z" fill="#B22B24" opacity="0.3"/></g></g><path class="foreground" aria-hidden="true" d="" display="none"/></g><g transform="translate(0,0)"><path class="background" aria-hidden="true" d="M0,0h600v400h-600Z"/><g><g class="mark-area role-mark layer_0_layer_0_marks" clip-path="url(#clip5)" role="graphics-object" aria-roledescription="area mark container"><path aria-label="Timestep: 200.38k; Dormant neuron ratio (%): 25.6481709692; upper_Dormant neuron ratio: 26.613249747; Width: 4096; Ci1 of Dormant neuron ratio: 26.613249747; Ci0 of Dormant neuron ratio: 25.6481709692; Mean of Dormant neuron ratio: 26.1348020766" role="graphics-symbol" aria-roledescription="errorband" d="M12.023,217.678C14.027,224.68,16.031,230.755,18.035,235.059C20.039,239.363,22.043,241.898,24.047,244.384C26.05,246.87,28.054,249.307,30.058,250.268C32.062,251.228,34.066,250.712,36.07,249.663C38.074,248.615,40.078,247.033,42.082,245.246C44.086,243.459,46.089,241.467,48.093,239.051C50.097,236.635,52.101,233.796,54.105,231.617C56.109,229.437,58.113,227.918,60.117,225.998C62.121,224.079,64.125,221.759,66.128,219.281C68.132,216.802,70.136,214.164,72.14,211.97C74.144,209.775,76.148,208.024,78.152,206.457C80.156,204.891,82.16,203.509,84.164,202.297C86.167,201.086,88.171,200.044,90.175,199.224C92.179,198.404,94.183,197.806,96.187,197.456C98.191,197.107,100.195,197.005,102.199,196.411C104.203,195.817,106.206,194.73,108.21,193.171C110.214,191.613,112.218,189.583,114.222,188.05C116.226,186.518,118.23,185.483,120.234,184.814C122.238,184.144,124.242,183.84,126.245,183.237C128.249,182.634,130.253,181.731,132.257,180.412C134.261,179.093,136.265,177.357,138.269,176.008C140.273,174.658,142.277,173.694,144.281,172.789C146.284,171.883,148.288,171.037,150.292,170.188C152.296,169.34,154.3,168.489,156.304,167.774C158.308,167.06,160.312,166.481,162.316,165.449C164.319,164.417,166.323,162.931,168.327,161.839C170.331,160.746,172.335,160.047,174.339,159.178C176.343,158.309,178.347,157.269,180.351,156.309C182.355,155.349,184.359,154.469,186.362,153.224C188.366,151.979,190.37,150.369,192.374,148.823C194.378,147.277,196.382,145.796,198.386,144.573C200.39,143.35,202.394,142.386,204.398,141.6C206.401,140.814,208.405,140.206,210.409,138.803C212.413,137.4,214.417,135.201,216.421,133.14C218.425,131.08,220.429,129.158,222.433,127.599C224.437,126.04,226.44,124.844,228.444,123.8C230.448,122.756,232.452,121.864,234.456,120.356C236.46,118.847,238.464,116.723,240.468,115.196C242.472,113.67,244.476,112.742,246.479,111.696C248.483,110.651,250.487,109.489,252.491,108.88C254.495,108.271,256.499,108.215,258.503,107.666C260.507,107.116,262.511,106.072,264.515,105.332C266.518,104.592,268.522,104.155,270.526,102.973C272.53,101.79,274.534,99.861,276.538,98.425C278.542,96.989,280.546,96.046,282.55,94.922C284.554,93.798,286.557,92.494,288.561,91.494C290.565,90.493,292.569,89.796,294.573,89.256C296.577,88.716,298.581,88.332,300.585,87.61C302.589,86.888,304.593,85.828,306.596,85.077C308.6,84.326,310.604,83.884,312.608,83.503C314.612,83.122,316.616,82.802,318.62,82.762C320.624,82.721,322.628,82.958,324.632,82.219C326.635,81.48,328.639,79.764,330.643,78.47C332.647,77.177,334.651,76.306,336.655,75.124C338.659,73.942,340.663,72.449,342.667,71.856C344.671,71.263,346.674,71.569,348.678,72.26C350.682,72.951,352.686,74.027,354.69,74.618C356.694,75.209,358.698,75.317,360.702,74.735C362.706,74.153,364.71,72.882,366.713,71.236C368.717,69.59,370.721,67.569,372.725,67.231C374.729,66.893,376.733,68.24,378.737,68.042C380.741,67.844,382.745,66.103,384.749,64.446C386.752,62.789,388.756,61.216,390.76,59.35C392.764,57.485,394.768,55.327,396.772,53.381C398.776,51.435,400.78,49.701,402.784,49.114C404.787,48.527,406.791,49.087,408.795,49.637C410.799,50.186,412.803,50.726,414.807,50.941C416.811,51.156,418.815,51.045,420.819,51.049C422.823,51.052,424.826,51.17,426.83,50.34C428.834,49.511,430.838,47.733,432.842,47.217C434.846,46.702,436.85,47.447,438.854,48.306C440.858,49.166,442.862,50.14,444.865,50.285C446.869,50.43,448.873,49.745,450.877,48.868C452.881,47.99,454.885,46.92,456.889,46.188C458.893,45.456,460.897,45.063,462.901,45.489C464.904,45.916,466.908,47.162,468.912,46.56C470.916,45.957,472.92,43.505,474.924,41.543C476.928,39.582,478.932,38.111,480.936,36.905C482.94,35.7,484.944,34.76,486.947,34.671C488.951,34.581,490.955,35.343,492.959,35.133C494.963,34.922,496.967,33.739,498.971,32.483C500.975,31.226,502.979,29.896,504.983,28.921C506.986,27.946,508.99,27.325,510.994,26.024C512.998,24.723,515.002,22.742,517.006,21.909C519.01,21.075,521.014,21.388,523.018,21.188C525.022,20.988,527.025,20.275,529.029,19.87C531.033,19.465,533.037,19.369,535.041,18.662C537.045,17.956,539.049,16.64,541.053,15.925C543.057,15.21,545.06,15.096,547.064,14.9C549.068,14.705,551.072,14.427,553.076,13.989C555.08,13.55,557.084,12.95,559.088,12.676C561.092,12.402,563.096,12.455,565.099,12.875C567.103,13.295,569.107,14.081,571.111,14.34C573.115,14.599,575.119,14.331,577.123,14.467C579.127,14.603,581.131,15.144,583.135,14.685C585.139,14.227,587.142,12.771,589.146,12.202L589.146,6.049C587.142,6.266,585.139,6.196,583.135,6.36C581.131,6.524,579.127,6.922,577.123,6.995C575.119,7.069,573.115,6.817,571.111,6.558C569.107,6.299,567.103,6.032,565.099,5.759C563.096,5.485,561.092,5.205,559.088,5.656C557.084,6.107,555.08,7.288,553.076,7.607C551.072,7.925,549.068,7.381,547.064,7.189C545.06,6.997,543.057,7.159,541.053,7.723C539.049,8.287,537.045,9.254,535.041,9.859C533.037,10.465,531.033,10.708,529.029,11.42C527.025,12.131,525.022,13.31,523.018,13.946C521.014,14.583,519.01,14.677,517.006,14.785C515.002,14.894,512.998,15.017,510.994,15.429C508.99,15.842,506.986,16.543,504.983,17.363C502.979,18.182,500.975,19.12,498.971,19.634C496.967,20.147,494.963,20.236,492.959,20.565C490.955,20.894,488.951,21.464,486.947,21.978C484.944,22.491,482.94,22.949,480.936,23.405C478.932,23.86,476.928,24.314,474.924,24.948C472.92,25.582,470.916,26.397,468.912,26.875C466.908,27.354,464.904,27.496,462.901,27.743C460.897,27.989,458.893,28.339,456.889,28.698C454.885,29.058,452.881,29.426,450.877,29.792C448.873,30.158,446.869,30.521,444.865,31.111C442.862,31.7,440.858,32.516,438.854,33.031C436.85,33.546,434.846,33.762,432.842,34.484C430.838,35.207,428.834,36.436,426.83,36.846C424.826,37.256,422.823,36.845,420.819,37.32C418.815,37.795,416.811,39.155,414.807,40.007C412.803,40.86,410.799,41.205,408.795,41.486C406.791,41.767,404.787,41.984,402.784,42.182C400.78,42.38,398.776,42.559,396.772,43.103C394.768,43.648,392.764,44.559,390.76,45.373C388.756,46.187,386.752,46.903,384.749,47.744C382.745,48.584,380.741,49.548,378.737,50.026C376.733,50.503,374.729,50.493,372.725,50.878C370.721,51.262,368.717,52.041,366.713,53.052C364.71,54.062,362.706,55.304,360.702,56.009C358.698,56.714,356.694,56.883,354.69,56.9C352.686,56.917,350.682,56.782,348.678,56.925C346.674,57.068,344.671,57.489,342.667,58.519C340.663,59.549,338.659,61.187,336.655,62.587C334.651,63.987,332.647,65.149,330.643,66.461C328.639,67.773,326.635,69.233,324.632,70.028C322.628,70.822,320.624,70.95,318.62,71.602C316.616,72.253,314.612,73.427,312.608,74.23C310.604,75.033,308.6,75.464,306.596,76.128C304.593,76.791,302.589,77.686,300.585,78.484C298.581,79.282,296.577,79.984,294.573,80.083C292.569,80.181,290.565,79.677,288.561,79.824C286.557,79.971,284.554,80.769,282.55,81.785C280.546,82.802,278.542,84.037,276.538,85.151C274.534,86.265,272.53,87.258,270.526,88.334C268.522,89.409,266.518,90.567,264.515,91.602C262.511,92.638,260.507,93.551,258.503,94.449C256.499,95.347,254.495,96.23,252.491,97.16C250.487,98.089,248.483,99.066,246.479,100.13C244.476,101.195,242.472,102.348,240.468,103.367C238.464,104.386,236.46,105.271,234.456,105.948C232.452,106.624,230.448,107.093,228.444,108.252C226.44,109.411,224.437,111.26,222.433,112.653C220.429,114.045,218.425,114.979,216.421,116.288C214.417,117.596,212.413,119.278,210.409,120.566C208.405,121.854,206.401,122.746,204.398,123.723C202.394,124.699,200.39,125.76,198.386,126.451C196.382,127.142,194.378,127.463,192.374,128.559C190.37,129.655,188.366,131.526,186.362,133.082C184.359,134.639,182.355,135.881,180.351,136.784C178.347,137.687,176.343,138.25,174.339,139.369C172.335,140.487,170.331,142.161,168.327,143.482C166.323,144.804,164.319,145.774,162.316,146.347C160.312,146.919,158.308,147.095,156.304,147.904C154.3,148.713,152.296,150.155,150.292,151.47C148.288,152.784,146.284,153.97,144.281,155.054C142.277,156.138,140.273,157.119,138.269,158.255C136.265,159.391,134.261,160.681,132.257,161.502C130.253,162.323,128.249,162.675,126.245,163.143C124.242,163.611,122.238,164.195,120.234,164.56C118.23,164.925,116.226,165.072,114.222,165.711C112.218,166.35,110.214,167.481,108.21,168.706C106.206,169.931,104.203,171.249,102.199,172.292C100.195,173.334,98.191,174.1,96.187,174.918C94.183,175.737,92.179,176.608,90.175,178.098C88.171,179.589,86.167,181.7,84.164,182.963C82.16,184.226,80.156,184.642,78.152,186.083C76.148,187.525,74.144,189.993,72.14,192.571C70.136,195.149,68.132,197.836,66.128,200.668C64.125,203.5,62.121,206.477,60.117,208.666C58.113,210.854,56.109,212.255,54.105,213.81C52.101,215.364,50.097,217.073,48.093,218.645C46.089,220.218,44.086,221.655,42.082,223.758C40.078,225.861,38.074,228.63,36.07,230.197C34.066,231.764,32.062,232.128,30.058,231.869C28.054,231.61,26.05,230.728,24.047,228.891C22.043,227.054,20.039,224.262,18.035,220.632C16.031,217.002,14.027,212.533,12.023,206.804Z" fill="#7A1F18" opacity="0.3"/></g></g><path class="foreground" aria-hidden="true" d="" display="none"/></g></g><g class="mark-group role-scope layer_1_pathgroup" role="graphics-object" aria-roledescription="group mark container"><g transform="translate(0,0)"><path class="background" aria-hidden="true" d="M0,0h600v400h-600Z"/><g><g class="mark-line role-mark layer_1_marks" clip-path="url(#clip6)" role="graphics-object" aria-roledescription="line mark container"><path aria-label="Timestep: 200.38k; Dormant neuron ratio (%): 9.6875002861; Width: 256" role="graphics-symbol" aria-roledescription="line mark" d="M12.023,333.073C14.027,336.215,16.031,338.785,18.035,341.094C20.039,343.403,22.043,345.451,24.047,347.049C26.05,348.646,28.054,349.792,30.058,350.712C32.062,351.632,34.066,352.326,36.07,353.003C38.074,353.681,40.078,354.34,42.082,355.434C44.086,356.528,46.089,358.056,48.093,359.062C50.097,360.069,52.101,360.556,54.105,361.25C56.109,361.944,58.113,362.847,60.117,363.698C62.121,364.549,64.125,365.347,66.128,365.92C68.132,366.493,70.136,366.84,72.14,366.962C74.144,367.083,76.148,366.979,78.152,367.135C80.156,367.292,82.16,367.708,84.164,368.194C86.167,368.681,88.171,369.236,90.175,369.601C92.179,369.965,94.183,370.139,96.187,370.503C98.191,370.868,100.195,371.424,102.199,371.771C104.203,372.118,106.206,372.257,108.21,372.326C110.214,372.396,112.218,372.396,114.222,372.5C116.226,372.604,118.23,372.812,120.234,372.847C122.238,372.882,124.242,372.743,126.245,372.743C128.249,372.743,130.253,372.882,132.257,372.899C134.261,372.917,136.265,372.812,138.269,372.812C140.273,372.812,142.277,372.917,144.281,372.951C146.284,372.986,148.288,372.951,150.292,373.003C152.296,373.056,154.3,373.194,156.304,373.507C158.308,373.819,160.312,374.306,162.316,374.635C164.319,374.965,166.323,375.139,168.327,375.174C170.331,375.208,172.335,375.104,174.339,375.122C176.343,375.139,178.347,375.278,180.351,375.399C182.355,375.521,184.359,375.625,186.362,375.799C188.366,375.972,190.37,376.215,192.374,376.51C194.378,376.806,196.382,377.153,198.386,377.587C200.39,378.021,202.394,378.542,204.398,378.75C206.401,378.958,208.405,378.854,210.409,378.924C212.413,378.993,214.417,379.236,216.421,379.306C218.425,379.375,220.429,379.271,222.433,379.323C224.437,379.375,226.44,379.583,228.444,379.774C230.448,379.965,232.452,380.139,234.456,380.226C236.46,380.312,238.464,380.312,240.468,380.191C242.472,380.069,244.476,379.826,246.479,379.601C248.483,379.375,250.487,379.167,252.491,379.288C254.495,379.41,256.499,379.861,258.503,380.017C260.507,380.174,262.511,380.035,264.515,379.826C266.518,379.618,268.522,379.34,270.526,379.201C272.53,379.062,274.534,379.062,276.538,379.184C278.542,379.306,280.546,379.549,282.55,379.462C284.554,379.375,286.557,378.958,288.561,378.594C290.565,378.229,292.569,377.917,294.573,377.847C296.577,377.778,298.581,377.951,300.585,377.882C302.589,377.812,304.593,377.5,306.596,377.257C308.6,377.014,310.604,376.84,312.608,376.719C314.612,376.597,316.616,376.528,318.62,376.649C320.624,376.771,322.628,377.083,324.632,377.049C326.635,377.014,328.639,376.632,330.643,376.562C332.647,376.493,334.651,376.736,336.655,376.649C338.659,376.562,340.663,376.146,342.667,376.354C344.671,376.562,346.674,377.396,348.678,377.448C350.682,377.5,352.686,376.771,354.69,376.667C356.694,376.562,358.698,377.083,360.702,377.309C362.706,377.535,364.71,377.465,366.713,377.361C368.717,377.257,370.721,377.118,372.725,377.153C374.729,377.187,376.733,377.396,378.737,377.448C380.741,377.5,382.745,377.396,384.749,377.24C386.752,377.083,388.756,376.875,390.76,376.667C392.764,376.458,394.768,376.25,396.772,376.267C398.776,376.285,400.78,376.528,402.784,377.569C404.787,378.611,406.791,380.451,407.793,380.388C408.795,380.324,408.795,378.356,409.797,377.662C410.799,376.968,412.803,377.546,413.805,377.24C414.807,376.935,414.807,375.744,415.809,375.455C416.811,375.165,418.815,375.777,419.817,375.728C420.819,375.678,420.819,374.967,421.821,375.488C422.823,376.009,424.826,377.761,425.828,377.662C426.83,377.563,426.83,375.612,427.832,375.554C428.834,375.496,430.838,377.331,431.84,377.406C432.842,377.48,432.842,375.794,433.844,376.025C434.846,376.257,436.85,378.406,437.852,378.431C438.854,378.456,438.854,376.356,439.856,376.529C440.858,376.703,442.861,379.15,443.863,379.001C444.865,378.853,444.865,376.108,445.867,376.224C446.869,376.339,448.873,379.315,449.875,379.241C450.877,379.167,450.877,376.042,451.879,375.868C452.881,375.694,454.885,378.472,455.887,378.423C456.889,378.373,456.889,375.496,457.891,375.149C458.893,374.802,460.897,376.984,461.898,377.207C462.9,377.431,462.901,375.694,463.902,375.81C464.904,375.926,466.908,377.894,467.91,377.596C468.912,377.298,468.912,374.735,469.914,374.678C470.916,374.62,472.92,377.067,473.922,377.191C474.924,377.315,474.924,375.116,475.926,375C476.928,374.884,478.932,376.852,479.934,376.951C480.936,377.05,480.936,375.281,481.938,374.818C482.939,374.355,484.943,375.198,485.945,375.248C486.947,375.298,486.947,374.554,487.949,374.611C488.951,374.669,490.955,375.529,491.957,375.231C492.959,374.934,492.959,373.479,493.961,373.768C494.963,374.058,496.967,376.091,497.969,376.389C498.971,376.687,498.971,375.248,499.973,374.959C500.975,374.669,502.978,375.529,503.98,375.43C504.982,375.331,504.982,374.272,505.984,374.33C506.986,374.388,508.99,375.562,509.992,375.562C510.994,375.562,510.994,374.388,511.996,374.909C512.998,375.43,515.002,377.646,516.004,377.745C517.006,377.844,517.006,375.827,518.008,375.537C519.01,375.248,521.014,376.687,522.015,376.538C523.017,376.389,523.018,374.653,524.019,375.174C525.021,375.694,527.025,378.472,528.027,378.241C529.029,378.009,529.029,374.769,530.031,374.213C531.033,373.657,533.037,375.787,534.039,375.949C535.041,376.111,535.041,374.306,536.043,374.097C537.045,373.889,539.049,375.278,540.051,375.486C541.052,375.694,541.053,374.722,542.055,374.479C543.057,374.236,545.06,374.722,546.062,374.375C547.064,374.028,547.064,372.847,548.066,373.16C549.068,373.472,551.072,375.278,552.074,375.104C553.076,374.931,553.076,372.778,554.078,372.604C555.08,372.431,557.084,374.236,558.086,374.271C559.088,374.306,559.088,372.569,560.09,372.674C561.092,372.778,563.095,374.722,564.097,375C565.099,375.278,565.099,373.889,566.101,373.646C567.103,373.403,569.107,374.306,570.109,374.444C571.111,374.583,571.111,373.958,572.113,373.681C573.115,373.403,575.119,373.472,576.121,373.472C577.123,373.472,577.123,373.403,578.125,374.109C579.127,374.815,581.13,376.296,582.132,375.663C583.134,375.029,583.135,372.28,584.136,372.454C585.138,372.627,587.142,375.723,588.144,375.593C589.146,375.463,589.146,372.106,590.148,371.933C591.15,371.759,593.154,374.769,594.156,374.855" stroke="#FF5F33" stroke-width="2"/></g></g><path class="foreground" aria-hidden="true" d="" display="none"/></g><g transform="translate(0,0)"><path class="background" aria-hidden="true" d="M0,0h600v400h-600Z"/><g><g class="mark-line role-mark layer_1_marks" clip-path="url(#clip7)" role="graphics-object" aria-roledescription="line mark container"><path aria-label="Timestep: 200.38k; Dormant neuron ratio (%): 11.0221357346; Width: 512" role="graphics-symbol" aria-roledescription="line mark" d="M12.023,327.552C14.027,332.448,16.031,336.823,18.035,340.139C20.039,343.455,22.043,345.712,24.047,347.613C26.05,349.514,28.054,351.059,30.058,352.578C32.062,354.097,34.066,355.59,36.07,357.04C38.074,358.49,40.078,359.896,42.082,361.285C44.086,362.674,46.089,364.045,48.093,365.373C50.097,366.701,52.101,367.986,54.105,369.036C56.109,370.087,58.113,370.903,60.117,371.745C62.121,372.587,64.125,373.455,66.128,374.193C68.132,374.931,70.136,375.538,72.14,376.05C74.144,376.562,76.148,376.979,78.152,377.387C80.156,377.795,82.16,378.194,84.164,378.611C86.167,379.028,88.171,379.462,90.175,379.67C92.179,379.878,94.183,379.861,96.187,380.165C98.191,380.469,100.195,381.094,102.199,381.328C104.203,381.562,106.206,381.406,108.21,381.606C110.214,381.806,112.218,382.361,114.222,382.795C116.226,383.229,118.23,383.542,120.234,383.646C122.238,383.75,124.242,383.646,126.245,383.568C128.249,383.49,130.253,383.437,132.257,383.594C134.261,383.75,136.265,384.115,138.269,384.245C140.273,384.375,142.277,384.271,144.281,384.34C146.284,384.41,148.288,384.653,150.292,384.661C152.296,384.67,154.3,384.444,156.304,384.262C158.308,384.08,160.312,383.941,162.316,383.95C164.319,383.958,166.323,384.115,168.327,384.21C170.331,384.306,172.335,384.34,174.339,384.175C176.343,384.01,178.347,383.646,180.351,383.559C182.355,383.472,184.359,383.663,186.362,383.542C188.366,383.42,190.37,382.986,192.374,382.83C194.378,382.674,196.382,382.795,198.386,382.656C200.39,382.517,202.394,382.118,204.398,381.806C206.401,381.493,208.405,381.267,210.409,381.259C212.413,381.25,214.417,381.458,216.421,381.415C218.425,381.372,220.429,381.076,222.433,380.981C224.437,380.885,226.44,380.99,228.444,380.885C230.448,380.781,232.452,380.469,234.456,380.286C236.46,380.104,238.464,380.052,240.468,379.957C242.472,379.861,244.476,379.722,246.479,379.661C248.483,379.601,250.487,379.618,252.491,379.523C254.495,379.427,256.499,379.219,258.503,379.002C260.507,378.785,262.511,378.559,264.515,378.446C266.518,378.333,268.522,378.333,270.526,378.22C272.53,378.108,274.534,377.882,276.538,377.778C278.542,377.674,280.546,377.691,282.55,377.622C284.554,377.552,286.557,377.396,288.561,377.448C290.565,377.5,292.569,377.76,294.573,377.717C296.577,377.674,298.581,377.326,300.585,377.248C302.589,377.17,304.593,377.361,306.596,377.231C308.6,377.101,310.604,376.649,312.608,376.233C314.612,375.816,316.616,375.434,318.62,375.243C320.624,375.052,322.628,375.052,324.632,374.722C326.635,374.392,328.639,373.733,330.643,373.481C332.647,373.229,334.651,373.385,336.655,373.394C338.659,373.403,340.663,373.264,342.667,373.056C344.671,372.847,346.674,372.569,348.678,372.214C350.682,371.858,352.686,371.424,354.69,370.877C356.694,370.33,358.698,369.67,360.702,369.444C362.706,369.219,364.71,369.427,366.713,369.653C368.717,369.878,370.721,370.122,372.725,370.243C374.729,370.365,376.733,370.365,378.737,370.191C380.741,370.017,382.745,369.67,384.749,369.34C386.752,369.01,388.756,368.698,390.76,368.446C392.764,368.194,394.768,368.003,396.772,367.821C398.776,367.639,400.78,367.465,402.784,367.448C404.787,367.431,406.791,367.569,408.795,367.526C410.799,367.483,412.803,367.257,414.807,366.727C416.811,366.198,418.815,365.365,420.819,365.182C422.823,365,424.826,365.469,426.83,365.59C428.834,365.712,430.838,365.486,432.842,365.408C434.846,365.33,436.85,365.399,438.854,365.391C440.858,365.382,442.862,365.295,444.865,365.321C446.869,365.347,448.873,365.486,450.877,365.295C452.881,365.104,454.885,364.583,456.889,364.41C458.893,364.236,460.897,364.41,462.901,364.245C464.904,364.08,466.908,363.576,468.912,363.247C470.916,362.917,472.92,362.76,474.924,362.648C476.928,362.535,478.932,362.465,480.936,362.344C482.94,362.222,484.944,362.049,486.947,361.806C488.951,361.562,490.955,361.25,492.959,360.955C494.963,360.66,496.967,360.382,498.971,360.087C500.975,359.792,502.979,359.479,504.983,359.253C506.986,359.028,508.99,358.889,510.994,358.733C512.998,358.576,515.002,358.403,517.006,358.307C519.01,358.212,521.014,358.194,523.018,358.151C525.022,358.108,527.025,358.038,529.029,358.056C531.033,358.073,533.037,358.177,535.041,358.038C537.045,357.899,539.049,357.517,541.053,357.3C543.057,357.083,545.06,357.031,547.064,356.788C549.068,356.545,551.072,356.111,553.076,355.981C555.08,355.851,557.084,356.024,559.088,355.738C561.092,355.451,563.096,354.705,565.099,354.193C567.103,353.681,569.107,353.403,571.111,353.247C573.115,353.09,575.119,353.056,577.123,353.22C579.127,353.385,581.131,353.75,583.135,353.906C585.139,354.062,587.142,354.01,589.146,353.811" stroke="#FF4B33" stroke-width="2"/></g></g><path class="foreground" aria-hidden="true" d="" display="none"/></g><g transform="translate(0,0)"><path class="background" aria-hidden="true" d="M0,0h600v400h-600Z"/><g><g class="mark-line role-mark layer_1_marks" clip-path="url(#clip8)" role="graphics-object" aria-roledescription="line mark container"><path aria-label="Timestep: 200.38k; Dormant neuron ratio (%): 13.684896183; Width: 1024" role="graphics-symbol" aria-roledescription="line mark" d="M12.023,310.148C14.027,315.816,16.031,320.174,18.035,324.149C20.039,328.125,22.043,331.719,24.047,334.974C26.05,338.229,28.054,341.146,30.058,344.054C32.062,346.962,34.066,349.861,36.07,352.127C38.074,354.392,40.078,356.024,42.082,356.962C44.086,357.899,46.089,358.142,48.093,359.149C50.097,360.156,52.101,361.927,54.105,363.286C56.109,364.644,58.113,365.59,60.117,366.319C62.121,367.049,64.125,367.561,66.128,367.743C68.132,367.925,70.136,367.778,72.14,367.708C74.144,367.639,76.148,367.648,78.152,367.452C80.156,367.257,82.16,366.858,84.164,366.267C86.167,365.677,88.171,364.896,90.175,364.384C92.179,363.872,94.183,363.628,96.187,363.451C98.191,363.273,100.195,363.16,102.199,362.496C104.203,361.832,106.206,360.616,108.21,359.709C110.214,358.802,112.218,358.203,114.222,357.626C116.226,357.049,118.23,356.493,120.234,355.981C122.238,355.469,124.242,355,126.245,354.792C128.249,354.583,130.253,354.635,132.257,354.848C134.261,355.061,136.265,355.434,138.269,355.725C140.273,356.016,142.277,356.224,144.281,356.155C146.284,356.085,148.288,355.738,150.292,355.677C152.296,355.616,154.3,355.842,156.304,355.768C158.308,355.694,160.312,355.321,162.316,355.308C164.319,355.295,166.323,355.642,168.327,355.694C170.331,355.747,172.335,355.503,174.339,355.499C176.343,355.495,178.347,355.729,180.351,355.599C182.355,355.469,184.359,354.974,186.362,354.579C188.366,354.184,190.37,353.889,192.374,353.75C194.378,353.611,196.382,353.628,198.386,353.312C200.39,352.995,202.394,352.344,204.398,351.858C206.401,351.372,208.405,351.05,210.409,351.246C212.413,351.441,214.417,352.153,216.421,352.279C218.425,352.405,220.429,351.944,222.433,351.45C224.437,350.955,226.44,350.425,228.444,349.952C230.448,349.479,232.452,349.062,234.456,348.806C236.46,348.55,238.464,348.455,240.468,348.355C242.472,348.255,244.476,348.151,246.479,347.891C248.483,347.63,250.487,347.214,252.491,346.784C254.495,346.354,256.499,345.911,258.503,345.699C260.507,345.486,262.511,345.503,264.515,345.035C266.518,344.566,268.522,343.611,270.526,342.882C272.53,342.153,274.534,341.649,276.538,341.102C278.542,340.556,280.546,339.965,282.55,339.709C284.554,339.453,286.557,339.531,288.561,339.484C290.565,339.436,292.569,339.262,294.573,338.859C296.577,338.455,298.581,337.821,300.585,337.24C302.589,336.658,304.593,336.128,306.596,335.66C308.6,335.191,310.604,334.783,312.608,334.293C314.612,333.802,316.616,333.229,318.62,332.904C320.624,332.578,322.628,332.5,324.632,332.283C326.635,332.066,328.639,331.71,330.643,331.215C332.647,330.72,334.651,330.087,336.655,329.792C338.659,329.497,340.663,329.54,342.667,329.297C344.671,329.054,346.674,328.524,348.678,328.147C350.682,327.769,352.686,327.543,354.69,327.109C356.694,326.675,358.698,326.033,360.702,325.434C362.706,324.835,364.71,324.28,366.713,323.932C368.717,323.585,370.721,323.446,372.725,323.177C374.729,322.908,376.733,322.509,378.737,322.539C380.741,322.569,382.745,323.03,384.749,322.483C386.752,321.936,388.756,320.382,390.76,319.327C392.764,318.273,394.768,317.717,396.772,317.183C398.776,316.649,400.78,316.137,402.784,315.499C404.787,314.861,406.791,314.097,408.795,313.711C410.799,313.325,412.803,313.316,414.807,313.234C416.811,313.151,418.815,312.995,420.819,312.439C422.823,311.884,424.826,310.929,426.83,310.595C428.834,310.26,430.838,310.547,432.842,310.178C434.846,309.809,436.85,308.785,438.854,308.134C440.858,307.483,442.862,307.205,444.865,307.227C446.869,307.248,448.873,307.569,450.877,307.118C452.881,306.667,454.885,305.443,456.889,304.913C458.893,304.384,460.897,304.549,462.901,304.327C464.904,304.106,466.908,303.498,468.912,302.873C470.916,302.248,472.92,301.606,474.924,300.959C476.928,300.312,478.932,299.661,480.936,299.128C482.94,298.594,484.944,298.177,486.947,297.917C488.951,297.656,490.955,297.552,492.959,297.253C494.963,296.953,496.967,296.458,498.971,296.306C500.975,296.155,502.979,296.345,504.983,295.894C506.986,295.443,508.99,294.349,510.994,293.446C512.998,292.543,515.002,291.832,517.006,291.328C519.01,290.825,521.014,290.53,523.018,290.49C525.022,290.451,527.025,290.668,529.029,290.425C531.033,290.182,533.037,289.479,535.041,288.694C537.045,287.908,539.049,287.04,541.053,286.111C543.057,285.182,545.06,284.193,547.064,283.841C549.068,283.49,551.072,283.776,553.076,283.741C555.08,283.707,557.084,283.351,559.088,282.756C561.092,282.161,563.096,281.328,565.099,281.102C567.103,280.877,569.107,281.259,571.111,281.506C573.115,281.753,575.119,281.866,577.123,281.536C579.127,281.207,581.131,280.434,583.135,280.065C585.139,279.696,587.142,279.731,589.146,279.766" stroke="#E0392D" stroke-width="2"/></g></g><path class="foreground" aria-hidden="true" d="" display="none"/></g><g transform="translate(0,0)"><path class="background" aria-hidden="true" d="M0,0h600v400h-600Z"/><g><g class="mark-line role-mark layer_1_marks" clip-path="url(#clip9)" role="graphics-object" aria-roledescription="line mark container"><path aria-label="Timestep: 200.38k; Dormant neuron ratio (%): 18.8183597565; Width: 2048" role="graphics-symbol" aria-roledescription="line mark" d="M12.023,275.935C14.027,283.424,16.031,288.906,18.035,293.917C20.039,298.928,22.043,303.468,24.047,307.587C26.05,311.706,28.054,315.404,30.058,318.184C32.062,320.964,34.066,322.826,36.07,324.052C38.074,325.278,40.078,325.868,42.082,326.586C44.086,327.305,46.089,328.151,48.093,328.711C50.097,329.271,52.101,329.544,54.105,329.768C56.109,329.991,58.113,330.165,60.117,330.339C62.121,330.512,64.125,330.686,66.128,330.538C68.132,330.391,70.136,329.922,72.14,329.219C74.144,328.516,76.148,327.578,78.152,326.493C80.156,325.408,82.16,324.175,84.164,323.049C86.167,321.923,88.171,320.903,90.175,319.998C92.179,319.093,94.183,318.303,96.187,317.539C98.191,316.775,100.195,316.037,102.199,315.286C104.203,314.536,106.206,313.772,108.21,313.429C110.214,313.086,112.218,313.164,114.222,312.756C116.226,312.348,118.23,311.454,120.234,310.72C122.238,309.987,124.242,309.414,126.245,309.026C128.249,308.637,130.253,308.433,132.257,307.925C134.261,307.418,136.265,306.606,138.269,306.072C140.273,305.538,142.277,305.282,144.281,304.8C146.284,304.319,148.288,303.611,150.292,302.984C152.296,302.357,154.3,301.81,156.304,301.098C158.308,300.386,160.312,299.51,162.316,298.357C164.319,297.205,166.323,295.777,168.327,294.286C170.331,292.795,172.335,291.241,174.339,289.933C176.343,288.624,178.347,287.561,180.351,286.595C182.355,285.629,184.359,284.761,186.362,283.783C188.366,282.804,190.37,281.714,192.374,280.642C194.378,279.57,196.382,278.516,198.386,277.83C200.39,277.144,202.394,276.827,204.398,276.118C206.401,275.408,208.405,274.306,210.409,273.006C212.413,271.706,214.417,270.208,216.421,269.058C218.425,267.908,220.429,267.105,222.433,266.374C224.437,265.642,226.44,264.983,228.444,264.312C230.448,263.641,232.452,262.96,234.456,262.376C236.46,261.793,238.464,261.306,240.468,260.347C242.472,259.388,244.476,257.956,246.479,256.684C248.483,255.412,250.487,254.301,252.491,253.303C254.495,252.305,256.499,251.419,258.503,250.508C260.507,249.596,262.511,248.659,264.515,247.407C266.518,246.155,268.522,244.588,270.526,243.498C272.53,242.409,274.534,241.797,276.538,241.246C278.542,240.694,280.546,240.204,282.55,239.64C284.554,239.076,286.557,238.437,288.561,237.611C290.565,236.784,292.569,235.768,294.573,234.657C296.577,233.546,298.581,232.339,300.585,230.957C302.589,229.575,304.593,228.016,306.596,227.101C308.6,226.185,310.604,225.911,312.608,225.284C314.612,224.657,316.616,223.676,318.62,222.869C320.624,222.062,322.628,221.428,324.632,220.647C326.635,219.865,328.639,218.937,330.643,218.362C332.647,217.786,334.651,217.565,336.655,216.78C338.659,215.994,340.663,214.644,342.667,213.626C344.671,212.609,346.674,211.923,348.678,211.263C350.682,210.603,352.686,209.97,354.69,209.188C356.694,208.407,358.698,207.478,360.702,206.302C362.706,205.126,364.71,203.702,366.713,202.843C368.717,201.984,370.721,201.688,372.725,200.788C374.729,199.887,376.733,198.381,378.737,197.958C380.741,197.535,382.745,198.194,384.749,198.327C386.752,198.459,388.756,198.064,390.76,197.5C392.764,196.936,394.768,196.202,396.772,195.523C398.776,194.844,400.78,194.219,402.784,193.461C404.787,192.704,406.791,191.814,408.795,191.126C410.799,190.438,412.803,189.952,414.807,189.434C416.811,188.915,418.815,188.364,420.819,187.48C422.823,186.597,424.826,185.382,426.83,184.403C428.834,183.424,430.838,182.682,432.842,182.316C434.846,181.949,436.85,181.957,438.854,181.938C440.858,181.918,442.862,181.871,444.865,181.643C446.869,181.415,448.873,181.007,450.877,180.321C452.881,179.635,454.885,178.672,456.889,178.22C458.893,177.769,460.897,177.83,462.901,177.695C464.904,177.561,466.908,177.231,468.912,176.678C470.916,176.124,472.92,175.347,474.924,174.531C476.928,173.715,478.932,172.86,480.936,171.842C482.94,170.825,484.944,169.644,486.947,168.652C488.951,167.661,490.955,166.858,492.959,166.059C494.963,165.26,496.967,164.466,498.971,164.199C500.975,163.932,502.979,164.193,504.983,163.806C506.986,163.42,508.99,162.387,510.994,161.424C512.998,160.46,515.002,159.566,517.006,158.859C519.01,158.151,521.014,157.63,523.018,157.465C525.022,157.3,527.025,157.491,529.029,157.431C531.033,157.37,533.037,157.057,535.041,156.895C537.045,156.732,539.049,156.719,541.053,156.775C543.057,156.832,545.06,156.957,547.064,156.504C549.068,156.05,551.072,155.017,553.076,154.444C555.08,153.872,557.084,153.759,559.088,153.294C561.092,152.83,563.096,152.014,565.099,151.595C567.103,151.176,569.107,151.155,571.111,151.089C573.115,151.024,575.119,150.916,577.123,150.755C579.127,150.595,581.131,150.382,583.135,149.789C585.139,149.197,587.142,148.225,589.146,147.563" stroke="#B22B24" stroke-width="2"/></g></g><path class="foreground" aria-hidden="true" d="" display="none"/></g><g transform="translate(0,0)"><path class="background" aria-hidden="true" d="M0,0h600v400h-600Z"/><g><g class="mark-line role-mark layer_1_marks" clip-path="url(#clip10)" role="graphics-object" aria-roledescription="line mark container"><path aria-label="Timestep: 200.38k; Dormant neuron ratio (%): 26.1348020766; Width: 4096" role="graphics-symbol" aria-roledescription="line mark" d="M12.023,212.199C14.027,218.526,16.031,223.705,18.035,227.752C20.039,231.8,22.043,234.715,24.047,236.939C26.05,239.164,28.054,240.697,30.058,241.276C32.062,241.855,34.066,241.479,36.07,240.183C38.074,238.886,40.078,236.671,42.082,234.773C44.086,232.875,46.089,231.296,48.093,229.282C50.097,227.269,52.101,224.822,54.105,222.83C56.109,220.838,58.113,219.302,60.117,217.314C62.121,215.326,64.125,212.886,66.128,210.485C68.132,208.085,70.136,205.724,72.14,203.47C74.144,201.215,76.148,199.067,78.152,197.413C80.156,195.759,82.16,194.599,84.164,193.521C86.167,192.443,88.171,191.447,90.175,190.449C92.179,189.451,94.183,188.45,96.187,187.554C98.191,186.658,100.195,185.868,102.199,184.948C104.203,184.028,106.206,182.979,108.21,181.707C110.214,180.435,112.218,178.94,114.222,177.873C116.226,176.806,118.23,176.167,120.234,175.731C122.238,175.294,124.242,175.06,126.245,174.513C128.249,173.966,130.253,173.105,132.257,171.945C134.261,170.785,136.265,169.326,138.269,168.164C140.273,167.002,142.277,166.136,144.281,165.168C146.284,164.2,148.288,163.129,150.292,162.048C152.296,160.966,154.3,159.874,156.304,159.066C158.308,158.259,160.312,157.735,162.316,156.94C164.319,156.144,166.323,155.076,168.327,154.051C170.331,153.026,172.335,152.045,174.339,151.014C176.343,149.983,178.347,148.903,180.351,147.905C182.355,146.906,184.359,145.99,186.362,144.683C188.366,143.376,190.37,141.679,192.374,140.292C194.378,138.906,196.382,137.83,198.386,136.841C200.39,135.851,202.394,134.946,204.398,134.053C206.401,133.16,208.405,132.277,210.409,130.947C212.413,129.618,214.417,127.84,216.421,126.124C218.425,124.407,220.429,122.75,222.433,121.265C224.437,119.78,226.44,118.465,228.444,117.339C230.448,116.213,232.452,115.275,234.456,114.069C236.46,112.862,238.464,111.386,240.468,110.168C242.472,108.951,244.476,107.991,246.479,106.864C248.483,105.736,250.487,104.442,252.491,103.587C254.495,102.732,256.499,102.317,258.503,101.739C260.507,101.16,262.511,100.417,264.515,99.589C266.518,98.761,268.522,97.847,270.526,96.622C272.53,95.397,274.534,93.861,276.538,92.603C278.542,91.346,280.546,90.367,282.55,89.278C284.554,88.19,286.557,86.991,288.561,86.216C290.565,85.441,292.569,85.089,294.573,84.638C296.577,84.187,298.581,83.637,300.585,82.89C302.589,82.142,304.593,81.197,306.596,80.496C308.6,79.796,310.604,79.34,312.608,78.787C314.612,78.233,316.616,77.582,318.62,77.215C320.624,76.847,322.628,76.763,324.632,75.968C326.635,75.174,328.639,73.669,330.643,72.424C332.647,71.178,334.651,70.192,336.655,69.047C338.659,67.901,340.663,66.597,342.667,65.707C344.671,64.817,346.674,64.342,348.678,64.277C350.682,64.212,352.686,64.557,354.69,64.745C356.694,64.933,358.698,64.964,360.702,64.357C362.706,63.749,364.71,62.502,366.713,61.29C368.717,60.077,370.721,58.898,372.725,58.462C374.729,58.027,376.733,58.336,378.737,57.946C380.741,57.557,382.745,56.469,384.749,55.333C386.752,54.196,388.756,53.009,390.76,51.798C392.764,50.586,394.768,49.349,396.772,48.24C398.776,47.131,400.78,46.149,402.784,45.756C404.787,45.363,406.791,45.558,408.795,45.675C410.799,45.792,412.803,45.831,414.807,45.481C416.811,45.132,418.815,44.394,420.819,44.106C422.823,43.818,424.826,43.979,426.83,43.345C428.834,42.711,430.838,41.281,432.842,40.633C434.846,39.986,436.85,40.121,438.854,40.116C440.858,40.111,442.862,39.967,444.865,39.541C446.869,39.116,448.873,38.409,450.877,37.671C452.881,36.933,454.885,36.164,456.889,35.597C458.893,35.031,460.897,34.667,462.901,34.639C464.904,34.611,466.908,34.92,468.912,34.45C470.916,33.98,472.92,32.731,474.924,31.777C476.928,30.823,478.932,30.165,480.936,29.496C482.94,28.827,484.944,28.147,486.947,27.792C488.951,27.438,490.955,27.409,492.959,27.201C494.963,26.994,496.967,26.608,498.971,25.832C500.975,25.055,502.979,23.888,504.983,23.017C506.986,22.145,508.99,21.569,510.994,20.796C512.998,20.023,515.002,19.054,517.006,18.638C519.01,18.222,521.014,18.359,523.018,17.881C525.022,17.402,527.025,16.307,529.029,15.636C531.033,14.964,533.037,14.716,535.041,14.078C537.045,13.44,539.049,12.413,541.053,11.832C543.057,11.251,545.06,11.116,547.064,11.123C549.068,11.13,551.072,11.28,553.076,10.906C555.08,10.532,557.084,9.635,559.088,9.244C561.092,8.852,563.096,8.965,565.099,9.277C567.103,9.59,569.107,10.101,571.111,10.362C573.115,10.624,575.119,10.636,577.123,10.575C579.127,10.513,581.131,10.378,583.135,10.067C585.139,9.756,587.142,9.269,589.146,8.963" stroke="#7A1F18" stroke-width="2"/></g></g><path class="foreground" aria-hidden="true" d="" display="none"/></g></g><g class="mark-group role-legend" role="graphics-symbol" aria-roledescription="legend" aria-label="Symbol legend titled 'Width' for fill color and stroke color with 5 values: 256, 512, 1024, 2048, 4096"><g transform="translate(618,0)"><path class="background" aria-hidden="true" d="M0,0h46v99h-46Z" pointer-events="none"/><g><g class="mark-group role-legend-entry"><g transform="translate(0,21)"><path class="background" aria-hidden="true" d="M0,0h0v0h0Z" pointer-events="none"/><g><g class="mark-group role-scope" role="graphics-object" aria-roledescription="group mark container"><g transform="translate(0,0)"><path class="background" aria-hidden="true" d="M0,0h46v14h-46Z" pointer-events="none" opacity="1"/><g><g class="mark-symbol role-legend-symbol" pointer-events="none"><path transform="translate(7,7)" d="M5,0A5,5,0,1,1,-5,0A5,5,0,1,1,5,0" fill="#FF5F33" stroke="#FF5F33" stroke-width="1.5" opacity="0.3"/></g><g class="mark-text role-legend-label" pointer-events="none"><text text-anchor="start" transform="translate(18,11)" font-family="Times New Roman" font-size="14px" fill="#000" opacity="1">256</text></g></g><path class="foreground" aria-hidden="true" d="" pointer-events="none" display="none"/></g><g transform="translate(0,16)"><path class="background" aria-hidden="true" d="M0,0h46v14h-46Z" pointer-events="none" opacity="1"/><g><g class="mark-symbol role-legend-symbol" pointer-events="none"><path transform="translate(7,7)" d="M5,0A5,5,0,1,1,-5,0A5,5,0,1,1,5,0" fill="#FF4B33" stroke="#FF4B33" stroke-width="1.5" opacity="0.3"/></g><g class="mark-text role-legend-label" pointer-events="none"><text text-anchor="start" transform="translate(18,11)" font-family="Times New Roman" font-size="14px" fill="#000" opacity="1">512</text></g></g><path class="foreground" aria-hidden="true" d="" pointer-events="none" display="none"/></g><g transform="translate(0,32)"><path class="background" aria-hidden="true" d="M0,0h46v14h-46Z" pointer-events="none" opacity="1"/><g><g class="mark-symbol role-legend-symbol" pointer-events="none"><path transform="translate(7,7)" d="M5,0A5,5,0,1,1,-5,0A5,5,0,1,1,5,0" fill="#E0392D" stroke="#E0392D" stroke-width="1.5" opacity="0.3"/></g><g class="mark-text role-legend-label" pointer-events="none"><text text-anchor="start" transform="translate(18,11)" font-family="Times New Roman" font-size="14px" fill="#000" opacity="1">1024</text></g></g><path class="foreground" aria-hidden="true" d="" pointer-events="none" display="none"/></g><g transform="translate(0,48)"><path class="background" aria-hidden="true" d="M0,0h46v14h-46Z" pointer-events="none" opacity="1"/><g><g class="mark-symbol role-legend-symbol" pointer-events="none"><path transform="translate(7,7)" d="M5,0A5,5,0,1,1,-5,0A5,5,0,1,1,5,0" fill="#B22B24" stroke="#B22B24" stroke-width="1.5" opacity="0.3"/></g><g class="mark-text role-legend-label" pointer-events="none"><text text-anchor="start" transform="translate(18,11)" font-family="Times New Roman" font-size="14px" fill="#000" opacity="1">2048</text></g></g><path class="foreground" aria-hidden="true" d="" pointer-events="none" display="none"/></g><g transform="translate(0,64)"><path class="background" aria-hidden="true" d="M0,0h46v14h-46Z" pointer-events="none" opacity="1"/><g><g class="mark-symbol role-legend-symbol" pointer-events="none"><path transform="translate(7,7)" d="M5,0A5,5,0,1,1,-5,0A5,5,0,1,1,5,0" fill="#7A1F18" stroke="#7A1F18" stroke-width="1.5" opacity="0.3"/></g><g class="mark-text role-legend-label" pointer-events="none"><text text-anchor="start" transform="translate(18,11)" font-family="Times New Roman" font-size="14px" fill="#000" opacity="1">4096</text></g></g><path class="foreground" aria-hidden="true" d="" pointer-events="none" display="none"/></g></g></g><path class="foreground" aria-hidden="true" d="" pointer-events="none" display="none"/></g></g><g class="mark-text role-legend-title" pointer-events="none"><text text-anchor="start" transform="translate(0,13)" font-family="Times New Roman" font-size="16px" font-weight="bold" fill="#000" opacity="1">Width</text></g></g><path class="foreground" aria-hidden="true" d="" pointer-events="none" display="none"/></g></g></g><path class="foreground" aria-hidden="true" d="" display="none"/></g></g></g><defs><clipPath id="clip1"><rect x="0" y="0" width="600" height="400"/></clipPath><clipPath id="clip2"><rect x="0" y="0" width="600" height="400"/></clipPath><clipPath id="clip3"><rect x="0" y="0" width="600" height="400"/></clipPath><clipPath id="clip4"><rect x="0" y="0" width="600" height="400"/></clipPath><clipPath id="clip5"><rect x="0" y="0" width="600" height="400"/></clipPath><clipPath id="clip6"><rect x="0" y="0" width="600" height="400"/></clipPath><clipPath id="clip7"><rect x="0" y="0" width="600" height="400"/></clipPath><clipPath id="clip8"><rect x="0" y="0" width="600" height="400"/></clipPath><clipPath id="clip9"><rect x="0" y="0" width="600" height="400"/></clipPath><clipPath id="clip10"><rect x="0" y="0" width="600" height="400"/></clipPath></defs></svg>