<svg xmlns="http://www.w3.org/2000/svg" xmlns:xlink="http://www.w3.org/1999/xlink" version="1.1" class="marks" width="652" height="458" viewBox="0 0 652 458"><rect width="652" height="458" fill="white"/><g fill="none" stroke-miterlimit="10" transform="translate(46,12)"><g class="mark-group role-frame root" role="graphics-object" aria-roledescription="group mark container"><g transform="translate(0,0)"><path class="background" aria-hidden="true" d="M0.5,0.5h600v400h-600Z" stroke="#ddd"/><g><g class="mark-group role-axis" aria-hidden="true"><g transform="translate(0.5,400.5)"><path class="background" aria-hidden="true" d="M0,0h0v0h0Z" pointer-events="none"/><g><g class="mark-rule role-axis-grid" pointer-events="none"><line transform="translate(0,-400)" x2="0" y2="400" stroke="#ddd" stroke-width="1" opacity="1"/><line transform="translate(30,-400)" x2="0" y2="400" stroke="#ddd" stroke-width="1" opacity="1"/><line transform="translate(60,-400)" x2="0" y2="400" stroke="#ddd" stroke-width="1" opacity="1"/><line transform="translate(90,-400)" x2="0" y2="400" stroke="#ddd" stroke-width="1" opacity="1"/><line transform="translate(120,-400)" x2="0" y2="400" stroke="#ddd" stroke-width="1" opacity="1"/><line transform="translate(150,-400)" x2="0" y2="400" stroke="#ddd" stroke-width="1" opacity="1"/><line transform="translate(180,-400)" x2="0" y2="400" stroke="#ddd" stroke-width="1" opacity="1"/><line transform="translate(210,-400)" x2="0" y2="400" stroke="#ddd" stroke-width="1" opacity="1"/><line transform="translate(240,-400)" x2="0" y2="400" stroke="#ddd" stroke-width="1" opacity="1"/><line transform="translate(270,-400)" x2="0" y2="400" stroke="#ddd" stroke-width="1" opacity="1"/><line transform="translate(300,-400)" x2="0" y2="400" stroke="#ddd" stroke-width="1" opacity="1"/><line transform="translate(330,-400)" x2="0" y2="400" stroke="#ddd" stroke-width="1" opacity="1"/><line transform="translate(360,-400)" x2="0" y2="400" stroke="#ddd" stroke-width="1" opacity="1"/><line transform="translate(390,-400)" x2="0" y2="400" stroke="#ddd" stroke-width="1" opacity="1"/><line transform="translate(420,-400)" x2="0" y2="400" stroke="#ddd" stroke-width="1" opacity="1"/><line transform="translate(450,-400)" x2="0" y2="400" stroke="#ddd" stroke-width="1" opacity="1"/><line transform="translate(480,-400)" x2="0" y2="400" stroke="#ddd" stroke-width="1" opacity="1"/><line transform="translate(510,-400)" x2="0" y2="400" stroke="#ddd" stroke-width="1" opacity="1"/><line transform="translate(540,-400)" x2="0" y2="400" stroke="#ddd" stroke-width="1" opacity="1"/><line transform="translate(570,-400)" x2="0" y2="400" stroke="#ddd" stroke-width="1" opacity="1"/><line transform="translate(600,-400)" x2="0" y2="400" stroke="#ddd" stroke-width="1" opacity="1"/></g></g><path class="foreground" aria-hidden="true" d="" pointer-events="none" display="none"/></g></g><g class="mark-group role-axis" aria-hidden="true"><g transform="translate(0.5,0.5)"><path class="background" aria-hidden="true" d="M0,0h0v0h0Z" pointer-events="none"/><g><g class="mark-rule role-axis-grid" pointer-events="none"><line transform="translate(0,400)" x2="600" y2="0" stroke="#ddd" stroke-width="1" opacity="1"/><line transform="translate(0,360)" x2="600" y2="0" stroke="#ddd" stroke-width="1" opacity="1"/><line transform="translate(0,320)" x2="600" y2="0" stroke="#ddd" stroke-width="1" opacity="1"/><line transform="translate(0,280)" x2="600" y2="0" stroke="#ddd" stroke-width="1" opacity="1"/><line transform="translate(0,240)" x2="600" y2="0" stroke="#ddd" stroke-width="1" opacity="1"/><line transform="translate(0,200)" x2="600" y2="0" stroke="#ddd" stroke-width="1" opacity="1"/><line transform="translate(0,160)" x2="600" y2="0" stroke="#ddd" stroke-width="1" opacity="1"/><line transform="translate(0,120)" x2="600" y2="0" stroke="#ddd" stroke-width="1" opacity="1"/><line transform="translate(0,80)" x2="600" y2="0" stroke="#ddd" stroke-width="1" opacity="1"/><line transform="translate(0,40)" x2="600" y2="0" stroke="#ddd" stroke-width="1" opacity="1"/><line transform="translate(0,0)" x2="600" y2="0" stroke="#ddd" stroke-width="1" opacity="1"/></g></g><path class="foreground" aria-hidden="true" d="" pointer-events="none" display="none"/></g></g><g class="mark-group role-axis" role="graphics-symbol" aria-roledescription="axis" aria-label="X-axis titled 'Number of environment steps' for a linear scale with values from 0M to 20M"><g transform="translate(0.5,400.5)"><path class="background" aria-hidden="true" d="M0,0h0v0h0Z" pointer-events="none"/><g><g class="mark-rule role-axis-tick" pointer-events="none"><line transform="translate(0,0)" x2="0" y2="5" stroke="#888" stroke-width="1" opacity="1"/><line transform="translate(30,0)" x2="0" y2="5" stroke="#888" stroke-width="1" opacity="1"/><line transform="translate(60,0)" x2="0" y2="5" stroke="#888" stroke-width="1" opacity="1"/><line transform="translate(90,0)" x2="0" y2="5" stroke="#888" stroke-width="1" opacity="1"/><line transform="translate(120,0)" x2="0" y2="5" stroke="#888" stroke-width="1" opacity="1"/><line transform="translate(150,0)" x2="0" y2="5" stroke="#888" stroke-width="1" opacity="1"/><line transform="translate(180,0)" x2="0" y2="5" stroke="#888" stroke-width="1" opacity="1"/><line transform="translate(210,0)" x2="0" y2="5" stroke="#888" stroke-width="1" opacity="1"/><line transform="translate(240,0)" x2="0" y2="5" stroke="#888" stroke-width="1" opacity="1"/><line transform="translate(270,0)" x2="0" y2="5" stroke="#888" stroke-width="1" opacity="1"/><line transform="translate(300,0)" x2="0" y2="5" stroke="#888" stroke-width="1" opacity="1"/><line transform="translate(330,0)" x2="0" y2="5" stroke="#888" stroke-width="1" opacity="1"/><line transform="translate(360,0)" x2="0" y2="5" stroke="#888" stroke-width="1" opacity="1"/><line transform="translate(390,0)" x2="0" y2="5" stroke="#888" stroke-width="1" opacity="1"/><line transform="translate(420,0)" x2="0" y2="5" stroke="#888" stroke-width="1" opacity="1"/><line transform="translate(450,0)" x2="0" y2="5" stroke="#888" stroke-width="1" opacity="1"/><line transform="translate(480,0)" x2="0" y2="5" stroke="#888" stroke-width="1" opacity="1"/><line transform="translate(510,0)" x2="0" y2="5" stroke="#888" stroke-width="1" opacity="1"/><line transform="translate(540,0)" x2="0" y2="5" stroke="#888" stroke-width="1" opacity="1"/><line transform="translate(570,0)" x2="0" y2="5" stroke="#888" stroke-width="1" opacity="1"/><line transform="translate(600,0)" x2="0" y2="5" stroke="#888" stroke-width="1" opacity="1"/></g><g class="mark-text role-axis-label" pointer-events="none"><text text-anchor="start" transform="translate(0,18)" font-family="Times New Roman" font-size="14px" fill="#000" opacity="1">0</text><text text-anchor="middle" transform="translate(30,18)" font-family="Times New Roman" font-size="14px" fill="#000" opacity="0">1M</text><text text-anchor="middle" transform="translate(60,18)" font-family="Times New Roman" font-size="14px" fill="#000" opacity="1">2M</text><text text-anchor="middle" transform="translate(90,18)" font-family="Times New Roman" font-size="14px" fill="#000" opacity="0">3M</text><text text-anchor="middle" transform="translate(120,18)" font-family="Times New Roman" font-size="14px" fill="#000" opacity="1">4M</text><text text-anchor="middle" transform="translate(150,18)" font-family="Times New Roman" font-size="14px" fill="#000" opacity="0">5M</text><text text-anchor="middle" transform="translate(180,18)" font-family="Times New Roman" font-size="14px" fill="#000" opacity="1">6M</text><text text-anchor="middle" transform="translate(210,18)" font-family="Times New Roman" font-size="14px" fill="#000" opacity="0">7M</text><text text-anchor="middle" transform="translate(240,18)" font-family="Times New Roman" font-size="14px" fill="#000" opacity="1">8M</text><text text-anchor="middle" transform="translate(270,18)" font-family="Times New Roman" font-size="14px" fill="#000" opacity="0">9M</text><text text-anchor="middle" transform="translate(300,18)" font-family="Times New Roman" font-size="14px" fill="#000" opacity="1">10M</text><text text-anchor="middle" transform="translate(330,18)" font-family="Times New Roman" font-size="14px" fill="#000" opacity="0">11M</text><text text-anchor="middle" transform="translate(360,18)" font-family="Times New Roman" font-size="14px" fill="#000" opacity="1">12M</text><text text-anchor="middle" transform="translate(390,18)" font-family="Times New Roman" font-size="14px" fill="#000" opacity="0">13M</text><text text-anchor="middle" transform="translate(420,18)" font-family="Times New Roman" font-size="14px" fill="#000" opacity="1">14M</text><text text-anchor="middle" transform="translate(450,18)" font-family="Times New Roman" font-size="14px" fill="#000" opacity="0">15M</text><text text-anchor="middle" transform="translate(480,18)" font-family="Times New Roman" font-size="14px" fill="#000" opacity="1">16M</text><text text-anchor="middle" transform="translate(510,18)" font-family="Times New Roman" font-size="14px" fill="#000" opacity="0">17M</text><text text-anchor="middle" transform="translate(540,18)" font-family="Times New Roman" font-size="14px" fill="#000" opacity="1">18M</text><text text-anchor="middle" transform="translate(570,18)" font-family="Times New Roman" font-size="14px" fill="#000" opacity="0">19M</text><text text-anchor="end" transform="translate(600,18)" font-family="Times New Roman" font-size="14px" fill="#000" opacity="1">20M</text></g><g class="mark-rule role-axis-domain" pointer-events="none"><line transform="translate(0,0)" x2="600" y2="0" stroke="#888" stroke-width="1" opacity="1"/></g><g class="mark-text role-axis-title" pointer-events="none"><text text-anchor="middle" transform="translate(300,38)" font-family="Times New Roman" font-size="16px" font-weight="bold" fill="#000" opacity="1">Number of environment steps</text></g></g><path class="foreground" aria-hidden="true" d="" pointer-events="none" display="none"/></g></g><g class="mark-group role-axis" role="graphics-symbol" aria-roledescription="axis" aria-label="Y-axis titled 'Dormant neuron ratio (%)' for a linear scale with values from 0 to 50"><g transform="translate(0.5,0.5)"><path class="background" aria-hidden="true" d="M0,0h0v0h0Z" pointer-events="none"/><g><g class="mark-rule role-axis-tick" pointer-events="none"><line transform="translate(0,400)" x2="-5" y2="0" stroke="#888" stroke-width="1" opacity="1"/><line transform="translate(0,360)" x2="-5" y2="0" stroke="#888" stroke-width="1" opacity="1"/><line transform="translate(0,320)" x2="-5" y2="0" stroke="#888" stroke-width="1" opacity="1"/><line transform="translate(0,280)" x2="-5" y2="0" stroke="#888" stroke-width="1" opacity="1"/><line transform="translate(0,240)" x2="-5" y2="0" stroke="#888" stroke-width="1" opacity="1"/><line transform="translate(0,200)" x2="-5" y2="0" stroke="#888" stroke-width="1" opacity="1"/><line transform="translate(0,160)" x2="-5" y2="0" stroke="#888" stroke-width="1" opacity="1"/><line transform="translate(0,120)" x2="-5" y2="0" stroke="#888" stroke-width="1" opacity="1"/><line transform="translate(0,80)" x2="-5" y2="0" stroke="#888" stroke-width="1" opacity="1"/><line transform="translate(0,40)" x2="-5" y2="0" stroke="#888" stroke-width="1" opacity="1"/><line transform="translate(0,0)" x2="-5" y2="0" stroke="#888" stroke-width="1" opacity="1"/></g><g class="mark-text role-axis-label" pointer-events="none"><text text-anchor="end" transform="translate(-7,404)" font-family="Times New Roman" font-size="14px" fill="#000" opacity="1">0</text><text text-anchor="end" transform="translate(-7,364)" font-family="Times New Roman" font-size="14px" fill="#000" opacity="1">5</text><text text-anchor="end" transform="translate(-7,324)" font-family="Times New Roman" font-size="14px" fill="#000" opacity="1">10</text><text text-anchor="end" transform="translate(-7,284)" font-family="Times New Roman" font-size="14px" fill="#000" opacity="1">15</text><text text-anchor="end" transform="translate(-7,244)" font-family="Times New Roman" font-size="14px" fill="#000" opacity="1">20</text><text text-anchor="end" transform="translate(-7,204)" font-family="Times New Roman" font-size="14px" fill="#000" opacity="1">25</text><text text-anchor="end" transform="translate(-7,164)" font-family="Times New Roman" font-size="14px" fill="#000" opacity="1">30</text><text text-anchor="end" transform="translate(-7,124.00000000000001)" font-family="Times New Roman" font-size="14px" fill="#000" opacity="1">35</text><text text-anchor="end" transform="translate(-7,83.99999999999999)" font-family="Times New Roman" font-size="14px" fill="#000" opacity="1">40</text><text text-anchor="end" transform="translate(-7,43.99999999999999)" font-family="Times New Roman" font-size="14px" fill="#000" opacity="1">45</text><text text-anchor="end" transform="translate(-7,4)" font-family="Times New Roman" font-size="14px" fill="#000" opacity="1">50</text></g><g class="mark-rule role-axis-domain" pointer-events="none"><line transform="translate(0,400)" x2="0" y2="-400" stroke="#888" stroke-width="1" opacity="1"/></g><g class="mark-text role-axis-title" pointer-events="none"><text text-anchor="middle" transform="translate(-25,200) rotate(-90) translate(0,-3)" font-family="Times New Roman" font-size="16px" font-weight="bold" fill="#000" opacity="1">Dormant neuron ratio (%)</text></g></g><path class="foreground" aria-hidden="true" d="" pointer-events="none" display="none"/></g></g><g class="mark-group role-scope layer_0_layer_0_pathgroup" role="graphics-object" aria-roledescription="group mark container"><g transform="translate(0,0)"><path class="background" aria-hidden="true" d="M0,0h600v400h-600Z"/><g><g class="mark-area role-mark layer_0_layer_0_marks" clip-path="url(#clip1)" role="graphics-object" aria-roledescription="area mark container"><path aria-label="Number of environment steps: 200.38k; Dormant neuron ratio (%): 8.8281252861; upper_Dormant neuron ratio: 10.4687503839; Width: 256; Ci1 of Dormant neuron ratio: 10.4687503839; Ci0 of Dormant neuron ratio: 8.8281252861; Mean of Dormant neuron ratio: 9.6875002861" role="graphics-symbol" aria-roledescription="errorband" d="M12.023,340.089C14.027,343.162,16.031,345.489,18.035,347.537C20.039,349.585,22.043,351.355,24.047,352.57C26.05,353.786,28.054,354.446,30.058,355.193C32.062,355.939,34.066,356.772,36.07,357.518C38.074,358.265,40.078,358.925,42.082,360.089C44.086,361.252,46.089,362.918,48.093,363.837C50.097,364.757,52.101,364.931,54.105,365.59C56.109,366.25,58.113,367.396,60.117,368.333C62.121,369.271,64.125,370,66.128,370.469C68.132,370.937,70.136,371.146,72.14,371.181C74.144,371.216,76.148,371.078,78.152,371.269C80.156,371.46,82.16,371.98,84.164,372.674C86.167,373.368,88.171,374.236,90.175,374.514C92.179,374.792,94.183,374.479,96.187,374.757C98.191,375.036,100.195,375.905,102.199,376.339C104.203,376.773,106.206,376.773,108.21,376.912C110.214,377.05,112.218,377.327,114.222,377.518C116.226,377.708,118.23,377.812,120.234,377.848C122.238,377.883,124.242,377.849,126.245,377.867C128.249,377.885,130.253,377.954,132.257,378.058C134.261,378.161,136.265,378.299,138.269,378.368C140.273,378.437,142.277,378.437,144.281,378.438C146.284,378.438,148.288,378.439,150.292,378.388C152.296,378.336,154.3,378.232,156.304,378.526C158.308,378.821,160.312,379.515,162.316,379.897C164.319,380.279,166.323,380.349,168.327,380.298C170.331,380.247,172.335,380.074,174.339,380.091C176.343,380.109,178.347,380.316,180.351,380.281C182.355,380.246,184.359,379.968,186.362,379.967C188.366,379.967,190.37,380.244,192.374,380.643C194.378,381.042,196.382,381.562,198.386,382.136C200.39,382.709,202.394,383.335,204.398,383.474C206.401,383.614,208.405,383.266,210.409,383.336C212.413,383.405,214.417,383.89,216.421,384.133C218.425,384.376,220.429,384.377,222.433,384.429C224.437,384.481,226.44,384.584,228.444,384.862C230.448,385.139,232.452,385.59,234.456,385.608C236.46,385.625,238.464,385.208,240.468,384.966C242.472,384.723,244.476,384.655,246.479,384.533C248.483,384.412,250.487,384.239,252.491,384.412C254.495,384.586,256.499,385.107,258.503,385.211C260.507,385.315,262.511,385.003,264.515,384.777C266.518,384.551,268.522,384.412,270.526,384.342C272.53,384.273,274.534,384.272,276.538,384.323C278.542,384.375,280.546,384.479,282.55,384.288C284.554,384.097,286.557,383.611,288.561,383.194C290.565,382.778,292.569,382.431,294.573,382.362C296.577,382.293,298.581,382.502,300.585,382.467C302.589,382.433,304.593,382.155,306.596,381.999C308.6,381.843,310.604,381.808,312.608,381.721C314.612,381.635,316.616,381.496,318.62,381.461C320.624,381.425,322.628,381.494,324.632,381.407C326.635,381.32,328.639,381.078,330.643,380.94C332.647,380.801,334.651,380.766,336.655,380.731C338.659,380.696,340.663,380.661,342.667,381.06C344.671,381.459,346.674,382.293,348.678,382.38C350.682,382.467,352.686,381.806,354.69,381.754C356.694,381.702,358.698,382.259,360.702,382.52C362.706,382.78,364.71,382.746,366.713,382.624C368.717,382.503,370.721,382.294,372.725,382.346C374.729,382.398,376.733,382.709,378.737,382.969C380.741,383.229,382.745,383.437,384.749,383.385C386.752,383.333,388.756,383.021,390.76,382.656C392.764,382.292,394.768,381.875,396.772,381.701C398.776,381.528,400.78,381.597,402.784,381.736C404.787,381.875,406.791,382.083,407.793,382.284C408.795,382.485,408.795,382.677,409.797,382.851C410.799,383.025,412.803,383.179,413.805,383.232C414.807,383.285,414.807,383.237,415.809,382.889C416.811,382.542,418.815,381.896,419.817,381.672C420.819,381.448,420.819,381.647,421.821,382.341C422.823,383.036,424.826,384.226,425.828,384.276C426.83,384.325,426.83,383.234,427.832,382.713C428.834,382.192,430.838,382.242,431.84,382.292C432.842,382.343,432.842,382.393,433.844,382.741C434.846,383.088,436.85,383.731,437.852,383.855C438.854,383.979,438.854,383.584,439.856,383.931C440.858,384.278,442.861,385.368,443.863,385.318C444.865,385.268,444.865,384.077,445.867,383.557C446.869,383.036,448.873,383.185,449.875,383.012C450.877,382.839,450.877,382.344,451.879,382.517C452.881,382.691,454.885,383.533,455.887,383.186C456.889,382.839,456.889,381.302,457.891,380.955C458.893,380.608,460.897,381.45,461.898,381.846C462.9,382.242,462.901,382.192,463.902,382.192C464.904,382.192,466.908,382.242,467.91,382.019C468.912,381.796,468.912,381.3,469.914,381.647C470.916,381.994,472.92,383.185,473.922,383.408C474.924,383.632,474.924,382.889,475.926,383.237C476.928,383.584,478.932,385.021,479.934,385.046C480.936,385.071,480.936,383.683,481.938,382.815C482.939,381.947,484.943,381.598,485.945,381.698C486.947,381.797,486.947,382.344,487.949,382.17C488.951,381.997,490.955,381.102,491.957,380.706C492.959,380.309,492.959,380.409,493.961,380.756C494.963,381.104,496.967,381.698,497.969,381.871C498.971,382.044,498.971,381.796,499.973,381.622C500.975,381.448,502.978,381.349,503.98,381.251C504.982,381.153,504.982,381.057,505.984,381.057C506.986,381.057,508.99,381.153,509.992,381.128C510.994,381.104,510.994,380.957,511.996,381.305C512.998,381.652,515.002,382.493,516.004,382.739C517.006,382.986,517.006,382.639,518.008,382.639C519.01,382.639,521.014,382.986,522.015,382.639C523.017,382.292,523.018,381.25,524.019,382.118C525.021,382.986,527.025,385.764,528.027,385.59C529.029,385.417,529.029,382.292,530.031,381.875C531.033,381.458,533.037,383.75,534.039,383.542C535.041,383.333,535.041,380.625,536.043,380.521C537.045,380.417,539.049,382.917,540.051,383.473C541.052,384.03,541.053,382.642,542.055,382.503C543.057,382.365,545.06,383.474,546.062,383.162C547.064,382.851,547.064,381.118,548.066,381.257C549.068,381.396,551.072,383.406,552.074,383.3C553.076,383.194,553.076,380.972,554.078,380.556C555.08,380.139,557.084,381.528,558.086,381.771C559.088,382.014,559.088,381.111,560.09,380.972C561.092,380.833,563.095,381.458,564.097,381.632C565.099,381.806,565.099,381.528,566.101,381.25C567.103,380.972,569.107,380.694,570.109,380.521C571.111,380.347,571.111,380.278,572.113,380.174C573.115,380.069,575.119,379.931,576.121,380.28C577.123,380.628,577.123,381.465,578.125,382.258C579.127,383.051,581.13,383.8,582.132,382.062C583.134,380.324,583.135,376.1,584.136,376.071C585.138,376.043,587.142,380.211,588.144,379.951C589.146,379.69,589.146,375.001,590.148,375.001C591.15,375,593.154,379.687,594.156,379.601L594.156,369.821C593.154,369.56,591.15,368.113,590.148,368.547C589.146,368.981,589.146,371.296,588.144,370.992C587.142,370.689,585.138,367.766,584.136,367.36C583.135,366.955,583.134,369.065,582.132,369.439C581.13,369.812,579.127,368.448,578.125,367.8C577.123,367.153,577.123,367.222,576.121,367.535C575.119,367.847,573.115,368.403,572.113,368.611C571.111,368.819,571.111,368.681,570.109,368.403C569.107,368.125,567.103,367.708,566.101,367.951C565.099,368.194,565.099,369.097,564.097,368.542C563.095,367.986,561.092,365.972,560.09,365.59C559.088,365.208,559.088,366.458,558.086,366.493C557.084,366.528,555.08,365.347,554.078,365.446C553.076,365.545,553.076,366.924,552.074,366.957C551.072,366.991,549.068,365.681,548.066,365.095C547.064,364.51,547.064,364.651,546.062,365.38C545.06,366.109,543.057,367.427,542.055,367.74C541.053,368.052,541.052,367.359,540.051,367.081C539.049,366.802,537.045,366.937,536.043,367.285C535.041,367.632,535.041,368.191,534.039,367.834C533.037,367.477,531.033,366.204,530.031,366.811C529.029,367.419,529.029,369.907,528.027,370.147C527.025,370.387,525.021,368.378,524.019,368.118C523.018,367.857,523.017,369.345,522.015,369.444C521.014,369.544,519.01,368.254,518.008,368.601C517.006,368.948,517.006,370.933,516.004,370.858C515.002,370.782,512.998,368.648,511.996,368.127C510.994,367.607,510.994,368.699,509.992,368.748C508.99,368.797,506.986,367.803,505.984,367.455C504.982,367.108,504.982,367.408,503.98,367.335C502.978,367.262,500.975,366.815,499.973,367.336C498.971,367.857,498.971,369.345,497.969,368.948C496.967,368.552,494.963,366.27,493.961,365.923C492.959,365.575,492.959,367.163,491.957,367.312C490.955,367.46,488.951,366.171,487.949,365.997C486.947,365.823,486.947,366.766,485.945,366.889C484.943,367.013,482.939,366.317,481.938,366.491C480.936,366.664,480.936,367.707,479.934,367.633C478.932,367.56,476.928,366.369,475.926,367.063C474.924,367.758,474.924,370.337,473.922,370.287C472.92,370.237,470.916,367.557,469.914,368.078C468.912,368.599,468.912,372.32,467.91,372.618C466.908,372.917,464.904,369.792,463.902,369.444C462.901,369.097,462.9,371.528,461.898,371.478C460.897,371.429,458.893,368.899,457.891,369.593C456.889,370.288,456.889,374.206,455.887,373.884C454.885,373.562,452.881,368.998,451.879,369.519C450.877,370.04,450.877,375.645,449.875,375.645C448.873,375.645,446.869,370.04,445.867,368.998C444.865,367.956,444.865,371.478,443.863,371.652C442.861,371.825,440.858,368.651,439.856,368.477C438.854,368.304,438.854,371.131,437.852,370.933C436.85,370.734,434.846,367.51,433.844,367.51C432.842,367.51,432.842,370.734,431.84,370.809C430.838,370.883,428.834,367.808,427.832,367.287C426.83,366.766,426.83,368.8,425.828,369.072C424.826,369.345,422.823,367.857,421.821,367.51C420.819,367.163,420.819,367.956,419.817,367.857C418.815,367.758,416.811,366.766,415.809,366.592C414.807,366.419,414.807,367.063,413.805,367.752C412.803,368.441,410.799,369.174,409.797,371.605C408.795,374.035,408.795,378.164,407.793,378.369C406.791,378.575,404.787,374.858,402.784,372.965C400.78,371.073,398.776,371.005,396.772,370.954C394.768,370.903,392.764,370.868,390.76,370.833C388.756,370.798,386.752,370.762,384.749,370.918C382.745,371.074,380.741,371.421,378.737,371.543C376.733,371.665,374.729,371.562,372.725,371.579C370.721,371.596,368.717,371.734,366.713,371.7C364.71,371.665,362.706,371.457,360.702,371.232C358.698,371.007,356.694,370.764,354.69,371.007C352.686,371.25,350.682,371.979,348.678,371.892C346.674,371.805,344.671,370.901,342.667,370.97C340.663,371.039,338.659,372.081,336.655,372.359C334.651,372.637,332.647,372.152,330.643,372.152C328.639,372.153,326.635,372.639,324.632,372.691C322.628,372.743,320.624,372.361,318.62,372.048C316.616,371.735,314.612,371.491,312.608,371.561C310.604,371.63,308.6,372.013,306.596,372.378C304.593,372.743,302.589,373.09,300.585,373.16C298.581,373.229,296.577,373.021,294.573,373.159C292.569,373.298,290.565,373.783,288.561,374.217C286.557,374.651,284.554,375.034,282.55,375.051C280.546,375.069,278.542,374.72,276.538,374.512C274.534,374.304,272.53,374.235,270.526,374.34C268.522,374.444,266.518,374.722,264.515,374.983C262.511,375.243,260.507,375.486,258.503,375.277C256.499,375.069,254.495,374.408,252.491,374.112C250.487,373.816,248.483,373.885,246.479,374.267C244.476,374.649,242.472,375.345,240.468,375.589C238.464,375.833,236.46,375.625,234.456,375.434C232.452,375.243,230.448,375.069,228.444,374.878C226.44,374.687,224.437,374.479,222.433,374.479C220.429,374.479,218.425,374.687,216.421,374.704C214.417,374.721,212.413,374.547,210.409,374.355C208.405,374.163,206.401,373.954,204.398,373.625C202.394,373.295,200.39,372.845,198.386,372.586C196.382,372.326,194.378,372.257,192.374,372.153C190.37,372.049,188.366,371.91,186.362,371.614C184.359,371.319,182.355,370.866,180.351,370.605C178.347,370.345,176.343,370.275,174.339,370.24C172.335,370.205,170.331,370.204,168.327,370.066C166.323,369.927,164.319,369.651,162.316,369.322C160.312,368.993,158.308,368.611,156.304,368.316C154.3,368.021,152.296,367.812,150.292,367.812C148.288,367.812,146.284,368.019,144.281,367.984C142.277,367.949,140.273,367.671,138.269,367.602C136.265,367.533,134.261,367.673,132.257,367.691C130.253,367.708,128.249,367.604,126.245,367.622C124.242,367.639,122.238,367.778,120.234,367.656C118.23,367.534,116.226,367.151,114.222,367.116C112.218,367.082,110.214,367.395,108.21,367.552C106.206,367.708,104.203,367.708,102.199,367.5C100.195,367.292,98.191,366.875,96.187,366.372C94.183,365.868,92.179,365.278,90.175,364.844C88.171,364.41,86.167,364.132,84.164,363.889C82.16,363.646,80.156,363.437,78.152,363.35C76.148,363.263,74.144,363.297,72.14,363.036C70.136,362.776,68.132,362.221,66.128,361.527C64.125,360.833,62.121,360,60.117,359.253C58.113,358.507,56.109,357.847,54.105,357.031C52.101,356.214,50.097,355.241,48.093,354.026C46.089,352.811,44.086,351.353,42.082,350.277C40.078,349.201,38.074,348.507,36.07,347.916C34.066,347.326,32.062,346.839,30.058,345.832C28.054,344.825,26.05,343.298,24.047,341.457C22.043,339.617,20.039,337.464,18.035,334.981C16.031,332.498,14.027,329.687,12.023,326.51Z" fill="#FF5F33" opacity="0.3"/></g></g><path class="foreground" aria-hidden="true" d="" display="none"/></g><g transform="translate(0,0)"><path class="background" aria-hidden="true" d="M0,0h600v400h-600Z"/><g><g class="mark-area role-mark layer_0_layer_0_marks" clip-path="url(#clip2)" role="graphics-object" aria-roledescription="area mark container"><path aria-label="Number of environment steps: 200.38k; Dormant neuron ratio (%): 10.338379128; upper_Dormant neuron ratio: 11.6472987723; Width: 512; Ci1 of Dormant neuron ratio: 11.6472987723; Ci0 of Dormant neuron ratio: 10.338379128; Mean of Dormant neuron ratio: 11.0221357346" role="graphics-symbol" aria-roledescription="errorband" d="M12.023,333.093C14.027,337.989,16.031,342.329,18.035,345.601C20.039,348.873,22.043,351.078,24.047,352.727C26.05,354.376,28.054,355.47,30.058,356.816C32.062,358.161,34.066,359.758,36.07,361.225C38.074,362.692,40.078,364.028,42.082,365.391C44.086,366.754,46.089,368.143,48.093,369.48C50.097,370.817,52.101,372.101,54.105,373.125C56.109,374.149,58.113,374.913,60.117,375.608C62.121,376.302,64.125,376.927,66.128,377.5C68.132,378.073,70.136,378.594,72.14,379.028C74.144,379.462,76.148,379.81,78.152,380.079C80.156,380.349,82.16,380.539,84.164,380.852C86.167,381.164,88.171,381.598,90.175,381.754C92.179,381.91,94.183,381.788,96.187,381.953C98.191,382.118,100.195,382.569,102.199,382.734C104.203,382.899,106.206,382.778,108.21,382.951C110.214,383.125,112.218,383.594,114.222,384.054C116.226,384.514,118.23,384.965,120.234,385.156C122.238,385.347,124.242,385.278,126.245,385.226C128.249,385.174,130.253,385.139,132.257,385.321C134.261,385.503,136.265,385.903,138.269,386.059C140.273,386.216,142.277,386.129,144.281,386.234C146.284,386.338,148.288,386.632,150.292,386.676C152.296,386.719,154.3,386.51,156.304,386.345C158.308,386.181,160.312,386.059,162.316,386.103C164.319,386.146,166.323,386.355,168.327,386.364C170.331,386.373,172.335,386.182,174.339,385.956C176.343,385.73,178.347,385.469,180.351,385.513C182.355,385.556,184.359,385.904,186.362,385.869C188.366,385.834,190.37,385.417,192.374,385.304C194.378,385.191,196.382,385.382,198.386,385.217C200.39,385.052,202.394,384.531,204.398,384.271C206.401,384.01,208.405,384.01,210.409,384.011C212.413,384.011,214.417,384.011,216.421,383.855C218.425,383.699,220.429,383.387,222.433,383.274C224.437,383.161,226.44,383.247,228.444,383.273C230.448,383.299,232.452,383.265,234.456,383.083C236.46,382.901,238.464,382.571,240.468,382.406C242.472,382.24,244.476,382.24,246.479,382.257C248.483,382.275,250.487,382.31,252.491,382.214C254.495,382.119,256.499,381.893,258.503,381.71C260.507,381.528,262.511,381.389,264.515,381.25C266.518,381.111,268.522,380.972,270.526,380.885C272.53,380.799,274.534,380.764,276.538,380.66C278.542,380.556,280.546,380.383,282.55,380.331C284.554,380.279,286.557,380.348,288.561,380.565C290.565,380.782,292.569,381.147,294.573,381.182C296.577,381.217,298.581,380.921,300.585,380.913C302.589,380.904,304.593,381.181,306.596,381.077C308.6,380.973,310.604,380.487,312.608,380.027C314.612,379.567,316.616,379.133,318.62,378.873C320.624,378.612,322.628,378.525,324.632,378.238C326.635,377.951,328.639,377.465,330.643,377.292C332.647,377.119,334.651,377.259,336.655,377.294C338.659,377.329,340.663,377.259,342.667,377.067C344.671,376.876,346.674,376.563,348.678,376.094C350.682,375.625,352.686,375.001,354.69,374.306C356.694,373.612,358.698,372.848,360.702,372.63C362.706,372.413,364.71,372.743,366.713,373.021C368.717,373.299,370.721,373.524,372.725,373.724C374.729,373.924,376.733,374.098,378.737,374.098C380.741,374.099,382.745,373.925,384.749,373.751C386.752,373.578,388.756,373.404,390.76,373.178C392.764,372.953,394.768,372.675,396.772,372.528C398.776,372.381,400.78,372.364,402.784,372.294C404.787,372.225,406.791,372.102,408.795,371.989C410.799,371.875,412.803,371.772,414.807,371.225C416.811,370.678,418.815,369.688,420.819,369.384C422.823,369.081,424.826,369.464,426.83,369.698C428.834,369.932,430.838,370.018,432.842,370.33C434.846,370.642,436.85,371.181,438.854,371.224C440.858,371.267,442.862,370.816,444.865,370.669C446.869,370.521,448.873,370.678,450.877,370.444C452.881,370.209,454.885,369.584,456.889,369.306C458.893,369.028,460.897,369.097,462.901,368.915C464.904,368.734,466.908,368.3,468.912,367.962C470.916,367.624,472.92,367.38,474.924,367.232C476.928,367.085,478.932,367.033,480.936,366.92C482.94,366.807,484.944,366.633,486.947,366.364C488.951,366.095,490.955,365.73,492.959,365.461C494.963,365.191,496.967,365.018,498.971,364.897C500.975,364.776,502.979,364.706,504.983,364.454C506.986,364.202,508.99,363.768,510.994,363.707C512.998,363.647,515.002,363.961,517.006,364.065C519.01,364.169,521.014,364.064,523.018,363.881C525.022,363.698,527.025,363.437,529.029,363.351C531.033,363.264,533.037,363.352,535.041,363.283C537.045,363.214,539.049,362.989,541.053,362.833C543.057,362.677,545.06,362.589,547.064,362.189C549.068,361.789,551.072,361.078,553.076,360.809C555.08,360.539,557.084,360.713,559.088,360.6C561.092,360.487,563.096,360.087,565.099,359.939C567.103,359.792,569.107,359.896,571.111,359.592C573.115,359.289,575.119,358.577,577.123,358.343C579.127,358.109,581.131,358.351,583.135,358.733C585.139,359.115,587.142,359.636,589.146,359.506L589.146,347.967C587.142,348.227,585.139,348.801,583.135,348.749C581.131,348.697,579.127,348.018,577.123,347.48C575.119,346.941,573.115,346.542,571.111,346.69C569.107,346.839,567.103,347.534,565.099,348.411C563.096,349.288,561.092,350.347,559.088,350.712C557.084,351.076,555.08,350.747,553.076,350.773C551.072,350.799,549.068,351.181,547.064,351.285C545.06,351.389,543.057,351.215,541.053,351.502C539.049,351.788,537.045,352.535,535.041,352.821C533.037,353.108,531.033,352.934,529.029,352.699C527.025,352.465,525.022,352.169,523.018,352.021C521.014,351.873,519.01,351.872,517.006,352.176C515.002,352.48,512.998,353.088,510.994,353.384C508.99,353.68,506.986,353.663,504.983,353.88C502.979,354.096,500.975,354.547,498.971,355.05C496.967,355.553,494.963,356.109,492.959,356.456C490.955,356.804,488.951,356.944,486.947,357.161C484.944,357.378,482.94,357.672,480.936,357.785C478.932,357.898,476.928,357.829,474.924,357.89C472.92,357.951,470.916,358.142,468.912,358.481C466.908,358.819,464.904,359.305,462.901,359.452C460.897,359.599,458.893,359.408,456.889,359.408C454.885,359.408,452.881,359.599,450.877,359.617C448.873,359.634,446.869,359.478,444.865,359.331C442.862,359.183,440.858,359.045,438.854,359.166C436.85,359.287,434.846,359.668,432.842,360.102C430.838,360.536,428.834,361.022,426.83,360.961C424.826,360.901,422.823,360.293,420.819,360.328C418.815,360.363,416.811,361.04,414.807,361.639C412.803,362.238,410.799,362.758,408.795,362.741C406.791,362.724,404.787,362.168,402.784,362.125C400.78,362.082,398.776,362.551,396.772,362.829C394.768,363.107,392.764,363.194,390.76,363.515C388.756,363.837,386.752,364.392,384.749,364.895C382.745,365.398,380.741,365.848,378.737,366.1C376.733,366.352,374.729,366.405,372.725,366.31C370.721,366.215,368.717,365.972,366.713,365.894C364.71,365.816,362.706,365.903,360.702,366.137C358.698,366.372,356.694,366.753,354.69,367.153C352.686,367.552,350.682,367.969,348.678,368.246C346.674,368.524,344.671,368.662,342.667,368.636C340.663,368.61,338.659,368.42,336.655,368.411C334.651,368.403,332.647,368.576,330.643,369.097C328.639,369.618,326.635,370.486,324.632,370.85C322.628,371.215,320.624,371.076,318.62,371.223C316.616,371.37,314.612,371.803,312.608,372.186C310.604,372.568,308.6,372.898,306.596,373.072C304.593,373.246,302.589,373.263,300.585,373.515C298.581,373.766,296.577,374.253,294.573,374.392C292.569,374.531,290.565,374.323,288.561,374.418C286.557,374.513,284.554,374.912,282.55,375.025C280.546,375.138,278.542,374.965,276.538,375.095C274.534,375.225,272.53,375.659,270.526,375.754C268.522,375.849,266.518,375.606,264.515,375.65C262.511,375.693,260.507,376.023,258.503,376.275C256.499,376.527,254.495,376.701,252.491,376.814C250.487,376.927,248.483,376.979,246.479,377.153C244.476,377.326,242.472,377.622,240.468,377.691C238.464,377.76,236.46,377.604,234.456,377.743C232.452,377.882,230.448,378.316,228.444,378.49C226.44,378.663,224.437,378.576,222.433,378.698C220.429,378.819,218.425,379.149,216.421,379.054C214.417,378.958,212.413,378.437,210.409,378.429C208.405,378.42,206.401,378.923,204.398,379.348C202.394,379.773,200.39,380.121,198.386,380.243C196.382,380.365,194.378,380.26,192.374,380.399C190.37,380.538,188.366,380.919,186.362,381.145C184.359,381.371,182.355,381.441,180.351,381.675C178.347,381.91,176.343,382.309,174.339,382.361C172.335,382.413,170.331,382.118,168.327,381.953C166.323,381.788,164.319,381.753,162.316,381.771C160.312,381.788,158.308,381.857,156.304,382.022C154.3,382.187,152.296,382.447,150.292,382.456C148.288,382.465,146.284,382.222,144.281,382.1C142.277,381.979,140.273,381.978,138.269,381.848C136.265,381.717,134.261,381.457,132.257,381.396C130.253,381.336,128.249,381.475,126.245,381.632C124.242,381.788,122.238,381.962,120.234,381.979C118.23,381.997,116.226,381.858,114.222,381.458C112.218,381.059,110.214,380.399,108.21,380.191C106.206,379.983,104.203,380.226,102.199,379.931C100.195,379.635,98.191,378.802,96.187,378.377C94.183,377.951,92.179,377.933,90.175,377.664C88.171,377.395,86.167,376.875,84.164,376.388C82.16,375.902,80.156,375.451,78.152,374.878C76.148,374.305,74.144,373.611,72.14,372.934C70.136,372.257,68.132,371.597,66.128,370.773C64.125,369.948,62.121,368.958,60.117,367.977C58.113,366.997,56.109,366.024,54.105,364.905C52.101,363.785,50.097,362.517,48.093,361.224C46.089,359.93,44.086,358.61,42.082,357.221C40.078,355.832,38.074,354.375,36.07,352.994C34.066,351.614,32.062,350.312,30.058,348.845C28.054,347.378,26.05,345.746,24.047,343.785C22.043,341.823,20.039,339.531,18.035,335.92C16.031,332.309,14.027,327.378,12.023,322.309Z" fill="#FF4B33" opacity="0.3"/></g></g><path class="foreground" aria-hidden="true" d="" display="none"/></g><g transform="translate(0,0)"><path class="background" aria-hidden="true" d="M0,0h600v400h-600Z"/><g><g class="mark-area role-mark layer_0_layer_0_marks" clip-path="url(#clip3)" role="graphics-object" aria-roledescription="area mark container"><path aria-label="Number of environment steps: 200.38k; Dormant neuron ratio (%): 12.5450851417; upper_Dormant neuron ratio: 14.6127118421; Width: 1024; Ci1 of Dormant neuron ratio: 14.6127118421; Ci0 of Dormant neuron ratio: 12.5450851417; Mean of Dormant neuron ratio: 13.684896183" role="graphics-symbol" aria-roledescription="errorband" d="M12.023,318.564C14.027,323.789,16.031,327.39,18.035,331.173C20.039,334.957,22.043,338.924,24.047,342.219C26.05,345.513,28.054,348.134,30.058,350.856C32.062,353.577,34.066,356.398,36.07,358.521C38.074,360.643,40.078,362.067,42.082,363.36C44.086,364.654,46.089,365.817,48.093,366.975C50.097,368.134,52.101,369.288,54.105,370.191C56.109,371.094,58.113,371.745,60.117,372.409C62.121,373.073,64.125,373.75,66.128,374.106C68.132,374.462,70.136,374.497,72.14,374.627C74.144,374.757,76.148,374.983,78.152,375.144C80.156,375.304,82.16,375.4,84.164,375.34C86.167,375.279,88.171,375.062,90.175,375.088C92.179,375.114,94.183,375.382,96.187,375.595C98.191,375.808,100.195,375.964,102.199,375.995C104.203,376.025,106.206,375.93,108.21,376.069C110.214,376.208,112.218,376.581,114.222,376.663C116.226,376.746,118.23,376.538,120.234,376.278C122.238,376.018,124.242,375.704,126.245,375.461C128.249,375.217,130.253,375.044,132.257,375.122C134.261,375.2,136.265,375.53,138.269,375.604C140.273,375.678,142.277,375.495,144.281,375.149C146.284,374.803,148.288,374.293,150.292,374.067C152.296,373.842,154.3,373.901,156.304,373.774C158.308,373.648,160.312,373.335,162.316,373.175C164.319,373.014,166.323,373.005,168.327,372.862C170.331,372.719,172.335,372.44,174.339,372.562C176.343,372.684,178.347,373.205,180.351,373.066C182.355,372.927,184.359,372.128,186.362,371.516C188.366,370.904,190.37,370.48,192.374,370.16C194.378,369.839,196.382,369.623,198.386,369.141C200.39,368.658,202.394,367.91,204.398,367.38C206.401,366.849,208.405,366.537,210.409,366.472C212.413,366.407,214.417,366.589,216.421,366.32C218.425,366.051,220.429,365.33,222.433,364.701C224.437,364.072,226.44,363.534,228.444,362.984C230.448,362.433,232.452,361.869,234.456,361.313C236.46,360.757,238.464,360.209,240.468,359.805C242.472,359.401,244.476,359.141,246.479,358.837C248.483,358.534,250.487,358.187,252.491,357.783C254.495,357.38,256.499,356.919,258.503,356.633C260.507,356.347,262.511,356.235,264.515,355.736C266.518,355.237,268.522,354.35,270.526,353.773C272.53,353.195,274.534,352.927,276.538,352.406C278.542,351.885,280.546,351.112,282.55,350.734C284.554,350.357,286.557,350.374,288.561,350.357C290.565,350.339,292.569,350.287,294.573,349.731C296.577,349.176,298.581,348.117,300.585,347.453C302.589,346.789,304.593,346.52,306.596,346.09C308.6,345.66,310.604,345.07,312.608,344.614C314.612,344.159,316.616,343.838,318.62,343.444C320.624,343.05,322.628,342.583,324.632,342.222C326.635,341.862,328.639,341.608,330.643,341.126C332.647,340.643,334.651,339.932,336.655,339.646C338.659,339.359,340.663,339.498,342.667,339.259C344.671,339.021,346.674,338.405,348.678,338.153C350.682,337.901,352.686,338.014,354.69,337.754C356.694,337.493,358.698,336.859,360.702,336.143C362.706,335.426,364.71,334.628,366.713,334.254C368.717,333.881,370.721,333.933,372.725,333.885C374.729,333.837,376.733,333.69,378.737,333.669C380.741,333.647,382.745,333.752,384.749,332.876C386.752,331.999,388.756,330.14,390.76,328.682C392.764,327.223,394.768,326.164,396.772,325.7C398.776,325.235,400.78,325.365,402.784,324.965C404.787,324.566,406.791,323.637,408.795,323.082C410.799,322.526,412.803,322.345,414.807,322.268C416.811,322.192,418.815,322.221,420.819,321.783C422.823,321.345,424.826,320.439,426.83,320.256C428.834,320.072,430.838,320.611,432.842,320.306C434.846,320.002,436.85,318.855,438.854,318.039C440.858,317.222,442.862,316.737,444.865,316.833C446.869,316.929,448.873,317.607,450.877,317.13C452.881,316.652,454.885,315.019,456.889,314.511C458.893,314.003,460.897,314.62,462.901,314.759C464.904,314.898,466.908,314.559,468.912,313.921C470.916,313.283,472.92,312.345,474.924,311.529C476.928,310.713,478.932,310.019,480.936,309.554C482.94,309.09,484.944,308.855,486.947,308.647C488.951,308.438,490.955,308.257,492.959,308.053C494.963,307.849,496.967,307.623,498.971,307.349C500.975,307.076,502.979,306.755,504.983,306.251C506.986,305.747,508.99,305.061,510.994,304.229C512.998,303.396,515.002,302.417,517.006,301.987C519.01,301.558,521.014,301.678,523.018,301.868C525.022,302.059,527.025,302.319,529.029,301.772C531.033,301.225,533.037,299.87,535.041,299.336C537.045,298.802,539.049,299.089,541.053,298.294C543.057,297.5,545.06,295.625,547.064,295.191C549.068,294.758,551.072,295.765,553.076,296.031C555.08,296.297,557.084,295.821,559.088,295.218C561.092,294.615,563.096,293.885,565.099,293.581C567.103,293.276,569.107,293.398,571.111,293.48C573.115,293.562,575.119,293.605,577.123,293.17C579.127,292.736,581.131,291.824,583.135,291.438C585.139,291.053,587.142,291.193,589.146,291.202L589.146,268.553C587.142,268.696,585.139,268.957,583.135,269.426C581.131,269.895,579.127,270.572,577.123,270.805C575.119,271.039,573.115,270.83,571.111,270.386C569.107,269.942,567.103,269.264,565.099,269.269C563.096,269.274,561.092,269.961,559.088,270.605C557.084,271.248,555.08,271.847,553.076,271.925C551.072,272.003,549.068,271.561,547.064,271.934C545.06,272.308,543.057,273.496,541.053,274.751C539.049,276.005,537.045,277.325,535.041,277.894C533.037,278.462,531.033,278.279,529.029,278.344C527.025,278.41,525.022,278.723,523.018,278.957C521.014,279.192,519.01,279.348,517.006,279.802C515.002,280.257,512.998,281.01,510.994,281.995C508.99,282.98,506.986,284.198,504.983,284.668C502.979,285.138,500.975,284.86,498.971,285.155C496.967,285.45,494.963,286.317,492.959,286.473C490.955,286.629,488.951,286.075,486.947,286.457C484.944,286.839,482.94,288.159,480.936,288.853C478.932,289.548,476.928,289.618,474.924,289.943C472.92,290.268,470.916,290.849,468.912,291.517C466.908,292.185,464.904,292.94,462.901,293.486C460.897,294.033,458.893,294.372,456.889,294.988C454.885,295.604,452.881,296.498,450.877,296.732C448.873,296.966,446.869,296.54,444.865,296.484C442.862,296.428,440.858,296.742,438.854,297.546C436.85,298.349,434.846,299.641,432.842,300.11C430.838,300.579,428.834,300.224,426.83,300.542C424.826,300.859,422.823,301.848,420.819,302.364C418.815,302.88,416.811,302.924,414.807,303.094C412.803,303.263,410.799,303.558,408.795,304.026C406.791,304.495,404.787,305.137,402.784,305.613C400.78,306.09,398.776,306.401,396.772,306.848C394.768,307.295,392.764,307.879,390.76,308.787C388.756,309.695,386.752,310.928,384.749,311.101C382.745,311.273,380.741,310.387,378.737,310.031C376.733,309.675,374.729,309.85,372.725,310.032C370.721,310.214,368.717,310.403,366.713,310.859C364.71,311.314,362.706,312.036,360.702,312.719C358.698,313.401,356.694,314.044,354.69,314.716C352.686,315.387,350.682,316.087,348.678,316.499C346.674,316.912,344.671,317.036,342.667,317.137C340.663,317.238,338.659,317.316,336.655,317.538C334.651,317.759,332.647,318.124,330.643,318.597C328.639,319.07,326.635,319.651,324.632,319.868C322.628,320.085,320.624,319.938,318.62,320.017C316.616,320.095,314.612,320.398,312.608,320.459C310.604,320.519,308.6,320.336,306.596,320.887C304.593,321.438,302.589,322.724,300.585,323.54C298.581,324.356,296.577,324.703,294.573,324.767C292.569,324.83,290.565,324.61,288.561,324.441C286.557,324.271,284.554,324.153,282.55,324.393C280.546,324.634,278.542,325.233,276.538,325.694C274.534,326.154,272.53,326.475,270.526,327.018C268.522,327.56,266.518,328.323,264.515,328.414C262.511,328.505,260.507,327.923,258.503,328.097C256.499,328.271,254.495,329.2,252.491,329.682C250.487,330.164,248.483,330.198,246.479,330.158C244.476,330.118,242.472,330.003,240.468,329.73C238.464,329.457,236.46,329.025,234.456,328.9C232.452,328.775,230.448,328.957,228.444,329.273C226.44,329.59,224.437,330.041,222.433,330.241C220.429,330.441,218.425,330.389,216.421,329.669C214.417,328.949,212.413,327.56,210.409,326.965C208.405,326.371,206.401,326.57,204.398,326.665C202.394,326.76,200.39,326.751,198.386,327.041C196.382,327.331,194.378,327.921,192.374,327.804C190.37,327.687,188.366,326.863,186.362,326.845C184.359,326.826,182.355,327.612,180.351,328.016C178.347,328.42,176.343,328.442,174.339,328.14C172.335,327.837,170.331,327.211,168.327,326.829C166.323,326.446,164.319,326.307,162.316,326.394C160.312,326.481,158.308,326.794,156.304,326.849C154.3,326.905,152.296,326.702,150.292,326.282C148.288,325.861,146.284,325.222,144.281,324.633C142.277,324.044,140.273,323.506,138.269,322.984C136.265,322.463,134.261,321.958,132.257,321.472C130.253,320.986,128.249,320.519,126.245,320.29C124.242,320.06,122.238,320.069,120.234,320.451C118.23,320.832,116.226,321.586,114.222,323.317C112.218,325.048,110.214,327.757,108.21,330.808C106.206,333.859,104.203,337.252,102.199,339.448C100.195,341.644,98.191,342.643,96.187,343.546C94.183,344.45,92.179,345.258,90.175,346.66C88.171,348.061,86.167,350.055,84.164,351.896C82.16,353.736,80.156,355.422,78.152,356.561C76.148,357.699,74.144,358.289,72.14,358.818C70.136,359.347,68.132,359.815,66.128,360.028C64.125,360.24,62.121,360.198,60.117,359.4C58.113,358.601,56.109,357.048,54.105,354.969C52.101,352.89,50.097,350.285,48.093,349.413C46.089,348.54,44.086,349.4,42.082,348.806C40.078,348.211,38.074,346.163,36.07,343.445C34.066,340.728,32.062,337.342,30.058,334.22C28.054,331.099,26.05,328.243,24.047,325.378C22.043,322.514,20.039,319.642,18.035,316.083C16.031,312.525,14.027,308.28,12.023,302.669Z" fill="#E0392D" opacity="0.3"/></g></g><path class="foreground" aria-hidden="true" d="" display="none"/></g><g transform="translate(0,0)"><path class="background" aria-hidden="true" d="M0,0h600v400h-600Z"/><g><g class="mark-area role-mark layer_0_layer_0_marks" clip-path="url(#clip4)" role="graphics-object" aria-roledescription="area mark container"><path aria-label="Number of environment steps: 200.38k; Dormant neuron ratio (%): 18.0689701653; upper_Dormant neuron ratio: 19.6696373606; Width: 2048; Ci1 of Dormant neuron ratio: 19.6696373606; Ci0 of Dormant neuron ratio: 18.0689701653; Mean of Dormant neuron ratio: 18.8183597565" role="graphics-symbol" aria-roledescription="errorband" d="M12.023,283.653C14.027,291.172,16.031,295.867,18.035,300.433C20.039,304.998,22.043,309.434,24.047,313.42C26.05,317.407,28.054,320.944,30.058,323.394C32.062,325.844,34.066,327.206,36.07,328.317C38.074,329.428,40.078,330.287,42.082,331.055C44.086,331.823,46.089,332.501,48.093,333.117C50.097,333.733,52.101,334.289,54.105,334.645C56.109,335,58.113,335.156,60.117,335.326C62.121,335.495,64.125,335.677,66.128,335.456C68.132,335.235,70.136,334.611,72.14,333.963C74.144,333.314,76.148,332.642,78.152,331.765C80.156,330.887,82.16,329.806,84.164,328.862C86.167,327.919,88.171,327.113,90.175,326.49C92.179,325.867,94.183,325.427,96.187,324.799C98.191,324.172,100.195,323.356,102.199,322.708C104.203,322.059,106.206,321.577,108.21,321.49C110.214,321.403,112.218,321.711,114.222,321.37C116.226,321.029,118.23,320.039,120.234,319.245C122.238,318.451,124.242,317.852,126.245,317.505C128.249,317.158,130.253,317.063,132.257,316.707C134.261,316.351,136.265,315.734,138.269,315.281C140.273,314.827,142.277,314.537,144.281,314.101C146.284,313.665,148.288,313.083,150.292,312.453C152.296,311.824,154.3,311.146,156.304,310.431C158.308,309.716,160.312,308.962,162.316,307.927C164.319,306.892,166.323,305.575,168.327,304.309C170.331,303.043,172.335,301.828,174.339,300.793C176.343,299.758,178.347,298.903,180.351,298.157C182.355,297.411,184.359,296.774,186.362,295.7C188.366,294.627,190.37,293.118,192.374,291.915C194.378,290.712,196.382,289.816,198.386,289.175C200.39,288.534,202.394,288.148,204.398,287.654C206.401,287.159,208.405,286.555,210.409,285.338C212.413,284.121,214.417,282.292,216.421,281.22C218.425,280.149,220.429,279.836,222.433,279.178C224.437,278.519,226.44,277.516,228.444,276.783C230.448,276.051,232.452,275.59,234.456,274.967C236.46,274.344,238.464,273.559,240.468,272.312C242.472,271.066,244.476,269.359,246.479,268.202C248.483,267.046,250.487,266.44,252.491,265.456C254.495,264.472,256.499,263.109,258.503,262.189C260.507,261.269,262.511,260.792,264.515,259.751C266.518,258.71,268.522,257.105,270.526,255.991C272.53,254.878,274.534,254.256,276.538,253.706C278.542,253.157,280.546,252.68,282.55,252.196C284.554,251.713,286.557,251.222,288.561,250.425C290.565,249.628,292.569,248.525,294.573,247.332C296.577,246.138,298.581,244.853,300.585,243.468C302.589,242.082,304.593,240.597,306.596,239.536C308.6,238.475,310.604,237.838,312.608,236.767C314.612,235.695,316.616,234.189,318.62,233.341C320.624,232.492,322.628,232.301,324.632,231.49C326.635,230.679,328.639,229.247,330.643,228.621C332.647,227.994,334.651,228.172,336.655,227.785C338.659,227.398,340.663,226.447,342.667,225.581C344.671,224.716,346.674,223.936,348.678,223.089C350.682,222.242,352.686,221.326,354.69,220.583C356.694,219.84,358.698,219.269,360.702,217.921C362.706,216.574,364.71,214.449,366.713,213.36C368.717,212.272,370.721,212.219,372.725,211.433C374.729,210.646,376.733,209.125,378.737,208.882C380.741,208.639,382.745,209.674,384.749,210.234C386.752,210.795,388.756,210.88,390.76,210.311C392.764,209.742,394.768,208.519,396.772,207.566C398.776,206.613,400.78,205.931,402.784,205.288C404.787,204.645,406.791,204.041,408.795,203.466C410.799,202.891,412.803,202.344,414.807,201.639C416.811,200.935,418.815,200.071,420.819,198.967C422.823,197.862,424.826,196.516,426.83,195.048C428.834,193.581,430.838,191.992,432.842,191.374C434.846,190.756,436.85,191.108,438.854,191.381C440.858,191.655,442.862,191.85,444.865,191.842C446.869,191.833,448.873,191.62,450.877,191.045C452.881,190.47,454.885,189.533,456.889,189.042C458.893,188.552,460.897,188.509,462.901,188.359C464.904,188.209,466.908,187.952,468.912,187.353C470.916,186.754,472.92,185.812,474.924,184.707C476.928,183.603,478.932,182.335,480.936,181.154C482.94,179.972,484.944,178.877,486.947,177.911C488.951,176.946,490.955,176.11,492.959,175.154C494.963,174.197,496.967,173.121,498.971,172.6C500.975,172.079,502.979,172.114,504.983,171.804C506.986,171.494,508.99,170.84,510.994,170.015C512.998,169.191,515.002,168.197,517.006,167.459C519.01,166.721,521.014,166.238,523.018,166.559C525.022,166.88,527.025,168.005,529.029,168.758C531.033,169.511,533.037,169.893,535.041,169.818C537.045,169.742,539.049,169.209,541.053,168.987C543.057,168.764,545.06,168.853,547.064,168.258C549.068,167.664,551.072,166.387,553.076,165.843C555.08,165.3,557.084,165.488,559.088,165.205C561.092,164.922,563.096,164.167,565.099,163.571C567.103,162.974,569.107,162.536,571.111,162.799C573.115,163.062,575.119,164.025,577.123,164.138C579.127,164.251,581.131,163.513,583.135,162.509C585.139,161.504,587.142,160.232,589.146,159.455L589.146,135.439C587.142,136.295,585.139,137.502,583.135,138.036C581.131,138.571,579.127,138.431,577.123,138.511C575.119,138.592,573.115,138.892,571.111,139.267C569.107,139.643,567.103,140.094,565.099,140.647C563.096,141.2,561.092,141.854,559.088,142.377C557.084,142.9,555.08,143.292,553.076,143.889C551.072,144.487,549.068,145.29,547.064,145.557C545.06,145.824,543.057,145.555,541.053,145.345C539.049,145.134,537.045,144.982,535.041,145.306C533.037,145.629,531.033,146.427,529.029,146.882C527.025,147.336,525.022,147.446,523.018,147.822C521.014,148.197,519.01,148.837,517.006,149.691C515.002,150.545,512.998,151.613,510.994,152.792C508.99,153.97,506.986,155.259,504.983,155.602C502.979,155.945,500.975,155.341,498.971,155.4C496.967,155.458,494.963,156.179,492.959,156.808C490.955,157.437,488.951,157.975,486.947,158.778C484.944,159.581,482.94,160.648,480.936,161.7C478.932,162.753,476.928,163.79,474.924,164.56C472.92,165.331,470.916,165.835,468.912,166.261C466.908,166.687,464.904,167.034,462.901,166.949C460.897,166.864,458.893,166.346,456.889,166.687C454.885,167.028,452.881,168.227,450.877,169.057C448.873,169.886,446.869,170.347,444.865,170.97C442.862,171.593,440.858,172.378,438.854,172.643C436.85,172.907,434.846,172.651,432.842,172.533C430.838,172.416,428.834,172.437,426.83,173.148C424.826,173.86,422.823,175.262,420.819,176.122C418.815,176.982,416.811,177.298,414.807,177.602C412.803,177.906,410.799,178.198,408.795,178.96C406.791,179.722,404.787,180.954,402.784,181.886C400.78,182.817,398.776,183.448,396.772,184.066C394.768,184.685,392.764,185.291,390.76,185.897C388.756,186.504,386.752,187.111,384.749,187.135C382.745,187.159,380.741,186.6,378.737,186.748C376.733,186.896,374.729,187.751,372.725,188.643C370.721,189.535,368.717,190.463,366.713,191.42C364.71,192.377,362.706,193.362,360.702,194.46C358.698,195.558,356.694,196.769,354.69,197.711C352.686,198.653,350.682,199.326,348.678,199.907C346.674,200.489,344.671,200.979,342.667,202.177C340.663,203.375,338.659,205.281,336.655,206.254C334.651,207.226,332.647,207.265,330.643,207.613C328.639,207.96,326.635,208.615,324.632,209.426C322.628,210.236,320.624,211.202,318.62,211.953C316.616,212.704,314.612,213.24,312.608,213.395C310.604,213.55,308.6,213.324,306.596,214.189C304.593,215.055,302.589,217.011,300.585,218.311C298.581,219.61,296.577,220.253,294.573,221.152C292.569,222.051,290.565,223.206,288.561,224.161C286.557,225.116,284.554,225.87,282.55,226.436C280.546,227.003,278.542,227.381,276.538,228.176C274.534,228.97,272.53,230.181,270.526,231.42C268.522,232.66,266.518,233.927,264.515,235.168C262.511,236.409,260.507,237.622,258.503,238.514C256.499,239.406,254.495,239.976,252.491,241.069C250.487,242.161,248.483,243.776,246.479,245.184C244.476,246.592,242.472,247.794,240.468,248.64C238.464,249.486,236.46,249.977,234.456,250.617C232.452,251.257,230.448,252.047,228.444,252.613C226.44,253.179,224.437,253.523,222.433,254.094C220.429,254.665,218.425,255.463,216.421,256.648C214.417,257.833,212.413,259.404,210.409,260.917C208.405,262.429,206.401,263.883,204.398,264.558C202.394,265.232,200.39,265.127,198.386,265.901C196.382,266.675,194.378,268.329,192.374,269.527C190.37,270.726,188.366,271.469,186.362,272.251C184.359,273.032,182.355,273.852,180.351,274.679C178.347,275.506,176.343,276.34,174.339,277.963C172.335,279.586,170.331,281.998,168.327,283.787C166.323,285.575,164.319,286.739,162.316,287.451C160.312,288.163,158.308,288.423,156.304,289.074C154.3,289.724,152.296,290.765,150.292,291.502C148.288,292.24,146.284,292.675,144.281,293.261C142.277,293.848,140.273,294.586,138.269,295.487C136.265,296.387,134.261,297.449,132.257,298.13C130.253,298.811,128.249,299.11,126.245,299.531C124.242,299.953,122.238,300.497,120.234,300.914C118.23,301.332,116.226,301.623,114.222,302.176C112.218,302.73,110.214,303.546,108.21,304.468C106.206,305.39,104.203,306.419,102.199,307.38C100.195,308.341,98.191,309.235,96.187,310.231C94.183,311.226,92.179,312.322,90.175,313.399C88.171,314.475,86.167,315.532,84.164,316.774C82.16,318.016,80.156,319.444,78.152,320.824C76.148,322.204,74.144,323.536,72.14,324.365C70.136,325.194,68.132,325.52,66.128,325.485C64.125,325.451,62.121,325.056,60.117,324.75C58.113,324.443,56.109,324.226,54.105,324.081C52.101,323.936,50.097,323.862,48.093,323.131C46.089,322.4,44.086,321.011,42.082,320.406C40.078,319.8,38.074,319.978,36.07,318.994C34.066,318.011,32.062,315.865,30.058,312.868C28.054,309.871,26.05,306.022,24.047,301.795C22.043,297.567,20.039,292.962,18.035,287.341C16.031,281.721,14.027,275.086,12.023,267.467Z" fill="#B22B24" opacity="0.3"/></g></g><path class="foreground" aria-hidden="true" d="" display="none"/></g><g transform="translate(0,0)"><path class="background" aria-hidden="true" d="M0,0h600v400h-600Z"/><g><g class="mark-area role-mark layer_0_layer_0_marks" clip-path="url(#clip5)" role="graphics-object" aria-roledescription="area mark container"><path aria-label="Number of environment steps: 200.38k; Dormant neuron ratio (%): 25.6201173306; upper_Dormant neuron ratio: 26.5916161749; Width: 4096; Ci1 of Dormant neuron ratio: 26.5916161749; Ci0 of Dormant neuron ratio: 25.6201173306; Mean of Dormant neuron ratio: 26.1348020766" role="graphics-symbol" aria-roledescription="errorband" d="M12.023,217.345C14.027,224.157,16.031,230.034,18.035,234.645C20.039,239.257,22.043,242.603,24.047,245.21C26.05,247.817,28.054,249.683,30.058,250.472C32.062,251.26,34.066,250.971,36.07,249.886C38.074,248.801,40.078,246.921,42.082,245.107C44.086,243.293,46.089,241.547,48.093,239.137C50.097,236.727,52.101,233.653,54.105,231.433C56.109,229.214,58.113,227.848,60.117,226.069C62.121,224.289,64.125,222.096,66.128,219.648C68.132,217.201,70.136,214.5,72.14,212.194C74.144,209.887,76.148,207.975,78.152,206.336C80.156,204.696,82.16,203.328,84.164,202.27C86.167,201.211,88.171,200.462,90.175,199.685C92.179,198.909,94.183,198.105,96.187,197.597C98.191,197.09,100.195,196.878,102.199,196.321C104.203,195.764,106.206,194.862,108.21,193.449C110.214,192.036,112.218,190.112,114.222,188.564C116.226,187.016,118.23,185.844,120.234,185.105C122.238,184.366,124.242,184.06,126.245,183.372C128.249,182.683,130.253,181.613,132.257,180.245C134.261,178.876,136.265,177.21,138.269,175.935C140.273,174.661,142.277,173.779,144.281,172.859C146.284,171.939,148.288,170.981,150.292,170.114C152.296,169.247,154.3,168.471,156.304,167.681C158.308,166.89,160.312,166.085,162.316,165.099C164.319,164.112,166.323,162.945,168.327,162.033C170.331,161.121,172.335,160.465,174.339,159.587C176.343,158.71,178.347,157.61,180.351,156.684C182.355,155.758,184.359,155.006,186.362,153.735C188.366,152.463,190.37,150.672,192.374,149.048C194.378,147.424,196.382,145.967,198.386,144.688C200.39,143.41,202.394,142.311,204.398,141.436C206.401,140.561,208.405,139.911,210.409,138.576C212.413,137.241,214.417,135.222,216.421,133.152C218.425,131.082,220.429,128.96,222.433,127.349C224.437,125.738,226.44,124.639,228.444,123.576C230.448,122.513,232.452,121.486,234.456,120.018C236.46,118.549,238.464,116.639,240.468,115.178C242.472,113.718,244.476,112.707,246.479,111.632C248.483,110.557,250.487,109.417,252.491,108.843C254.495,108.269,256.499,108.262,258.503,107.755C260.507,107.249,262.511,106.243,264.515,105.453C266.518,104.664,268.522,104.09,270.526,102.895C272.53,101.7,274.534,99.885,276.538,98.558C278.542,97.23,280.546,96.391,282.55,95.241C284.554,94.09,286.557,92.629,288.561,91.541C290.565,90.452,292.569,89.736,294.573,89.196C296.577,88.656,298.581,88.292,300.585,87.551C302.589,86.809,304.593,85.69,306.596,84.938C308.6,84.185,310.604,83.799,312.608,83.551C314.612,83.303,316.616,83.193,318.62,83.239C320.624,83.285,322.628,83.487,324.632,82.642C326.635,81.796,328.639,79.903,330.643,78.462C332.647,77.021,334.651,76.033,336.655,74.842C338.659,73.651,340.663,72.257,342.667,71.63C344.671,71.003,346.674,71.144,348.678,71.665C350.682,72.187,352.686,73.088,354.69,73.636C356.694,74.184,358.698,74.379,360.702,73.942C362.706,73.505,364.71,72.437,366.713,70.993C368.717,69.549,370.721,67.729,372.725,67.411C374.729,67.092,376.733,68.276,378.737,67.999C380.741,67.723,382.745,65.987,384.749,64.366C386.752,62.745,388.756,61.238,390.76,59.353C392.764,57.467,394.768,55.203,396.772,53.205C398.776,51.207,400.78,49.475,402.784,48.909C404.787,48.344,406.791,48.944,408.795,49.589C410.799,50.234,412.803,50.924,414.807,51.267C416.811,51.611,418.815,51.609,420.819,51.556C422.823,51.503,424.826,51.399,426.83,50.456C428.834,49.513,430.838,47.731,432.842,47.04C434.846,46.349,436.85,46.748,438.854,47.559C440.858,48.371,442.862,49.594,444.865,49.872C446.869,50.149,448.873,49.48,450.877,48.526C452.881,47.572,454.885,46.334,456.889,45.686C458.893,45.039,460.897,44.982,462.901,45.477C464.904,45.973,466.908,47.021,468.912,46.433C470.916,45.846,472.92,43.622,474.924,41.778C476.928,39.934,478.932,38.469,480.936,37.258C482.94,36.048,484.944,35.093,486.947,34.795C488.951,34.497,490.955,34.856,492.959,34.563C494.963,34.27,496.967,33.325,498.971,32.213C500.975,31.101,502.979,29.823,504.983,28.916C506.986,28.01,508.99,27.476,510.994,26.182C512.998,24.888,515.002,22.836,517.006,21.96C519.01,21.085,521.014,21.386,523.018,21.238C525.022,21.089,527.025,20.492,529.029,20.051C531.033,19.61,533.037,19.325,535.041,18.563C537.045,17.8,539.049,16.561,541.053,15.897C543.057,15.232,545.06,15.144,547.064,14.96C549.068,14.777,551.072,14.5,553.076,14.109C555.08,13.718,557.084,13.214,559.088,12.918C561.092,12.621,563.096,12.533,565.099,12.971C567.103,13.408,569.107,14.372,571.111,14.638C573.115,14.905,575.119,14.473,577.123,14.387C579.127,14.3,581.131,14.557,583.135,14.118C585.139,13.679,587.142,12.544,589.146,12.105L589.146,5.983C587.142,6.283,585.139,6.28,583.135,6.498C581.131,6.716,579.127,7.156,577.123,7.191C575.119,7.226,573.115,6.857,571.111,6.612C569.107,6.368,567.103,6.247,565.099,5.944C563.096,5.64,561.092,5.153,559.088,5.525C557.084,5.898,555.08,7.13,553.076,7.51C551.072,7.89,549.068,7.418,547.064,7.267C545.06,7.116,543.057,7.287,541.053,7.831C539.049,8.376,537.045,9.295,535.041,9.889C533.037,10.484,531.033,10.753,529.029,11.524C527.025,12.294,525.022,13.565,523.018,14.139C521.014,14.713,519.01,14.59,517.006,14.648C515.002,14.706,512.998,14.944,510.994,15.436C508.99,15.927,506.986,16.671,504.983,17.485C502.979,18.299,500.975,19.183,498.971,19.51C496.967,19.837,494.963,19.608,492.959,19.986C490.955,20.364,488.951,21.35,486.947,22.022C484.944,22.695,482.94,23.055,480.936,23.441C478.932,23.828,476.928,24.24,474.924,24.886C472.92,25.533,470.916,26.413,468.912,26.931C466.908,27.45,464.904,27.606,462.901,27.853C460.897,28.1,458.893,28.438,456.889,28.775C454.885,29.112,452.881,29.45,450.877,29.807C448.873,30.164,446.869,30.541,444.865,31.125C442.862,31.71,440.858,32.503,438.854,33.002C436.85,33.501,434.846,33.706,432.842,34.434C430.838,35.162,428.834,36.414,426.83,36.842C424.826,37.27,422.823,36.874,420.819,37.318C418.815,37.762,416.811,39.045,414.807,39.888C412.803,40.731,410.799,41.133,408.795,41.422C406.791,41.712,404.787,41.888,402.784,42.102C400.78,42.315,398.776,42.566,396.772,43.101C394.768,43.637,392.764,44.456,390.76,45.308C388.756,46.16,386.752,47.044,384.749,47.916C382.745,48.787,380.741,49.647,378.737,50.111C376.733,50.575,374.729,50.645,372.725,50.931C370.721,51.216,368.717,51.719,366.713,52.641C364.71,53.564,362.706,54.907,360.702,55.739C358.698,56.572,356.694,56.895,354.69,56.754C352.686,56.614,350.682,56.012,348.678,56.177C346.674,56.343,344.671,57.276,342.667,58.456C340.663,59.635,338.659,61.06,336.655,62.489C334.651,63.917,332.647,65.349,330.643,66.727C328.639,68.105,326.635,69.429,324.632,70.097C322.628,70.765,320.624,70.777,318.62,71.429C316.616,72.082,314.612,73.374,312.608,74.195C310.604,75.017,308.6,75.366,306.596,75.996C304.593,76.627,302.589,77.538,300.585,78.27C298.581,79.003,296.577,79.557,294.573,79.737C292.569,79.916,290.565,79.721,288.561,79.962C286.557,80.203,284.554,80.88,282.55,81.752C280.546,82.624,278.542,83.691,276.538,84.686C274.534,85.681,272.53,86.605,270.526,87.749C268.522,88.893,266.518,90.258,264.515,91.215C262.511,92.171,260.507,92.718,258.503,93.616C256.499,94.514,254.495,95.763,252.491,96.911C250.487,98.06,248.483,99.11,246.479,100.163C244.476,101.217,242.472,102.276,240.468,103.152C238.464,104.029,236.46,104.723,234.456,105.588C232.452,106.452,230.448,107.487,228.444,108.68C226.44,109.873,224.437,111.224,222.433,112.377C220.429,113.531,218.425,114.486,216.421,115.808C214.417,117.129,212.413,118.817,210.409,120.039C208.405,121.262,206.401,122.021,204.398,123.067C202.394,124.114,200.39,125.449,198.386,126.432C196.382,127.416,194.378,128.047,192.374,128.991C190.37,129.935,188.366,131.19,186.362,132.64C184.359,134.09,182.355,135.735,180.351,136.829C178.347,137.923,176.343,138.467,174.339,139.44C172.335,140.414,170.331,141.816,168.327,143.024C166.323,144.232,164.319,145.246,162.316,145.956C160.312,146.666,158.308,147.074,156.304,147.817C154.3,148.561,152.296,149.642,150.292,150.886C148.288,152.131,146.284,153.539,144.281,154.64C142.277,155.741,140.273,156.534,138.269,157.7C136.265,158.866,134.261,160.404,132.257,161.619C130.253,162.834,128.249,163.726,126.245,164.273C124.242,164.82,122.238,165.023,120.234,165.071C118.23,165.12,116.226,165.014,114.222,165.647C112.218,166.279,110.214,167.65,108.21,168.905C106.206,170.16,104.203,171.299,102.199,172.34C100.195,173.381,98.191,174.324,96.187,175.477C94.183,176.63,92.179,177.992,90.175,179.305C88.171,180.618,86.167,181.882,84.164,182.998C82.16,184.114,80.156,185.082,78.152,186.672C76.148,188.262,74.144,190.474,72.14,192.978C70.136,195.482,68.132,198.279,66.128,200.984C64.125,203.688,62.121,206.3,60.117,208.404C58.113,210.508,56.109,212.103,54.105,213.725C52.101,215.346,50.097,216.992,48.093,218.553C46.089,220.115,44.086,221.591,42.082,223.872C40.078,226.154,38.074,229.241,36.07,230.862C34.066,232.484,32.062,232.641,30.058,232.36C28.054,232.079,26.05,231.361,24.047,229.519C22.043,227.678,20.039,224.714,18.035,220.989C16.031,217.263,14.027,212.776,12.023,207.029Z" fill="#7A1F18" opacity="0.3"/></g></g><path class="foreground" aria-hidden="true" d="" display="none"/></g></g><g class="mark-group role-scope layer_1_pathgroup" role="graphics-object" aria-roledescription="group mark container"><g transform="translate(0,0)"><path class="background" aria-hidden="true" d="M0,0h600v400h-600Z"/><g><g class="mark-line role-mark layer_1_marks" clip-path="url(#clip6)" role="graphics-object" aria-roledescription="line mark container"><path aria-label="Number of environment steps: 200.38k; Dormant neuron ratio (%): 9.6875002861; Width: 256" role="graphics-symbol" aria-roledescription="line mark" d="M12.023,333.073C14.027,336.215,16.031,338.785,18.035,341.094C20.039,343.403,22.043,345.451,24.047,347.049C26.05,348.646,28.054,349.792,30.058,350.712C32.062,351.632,34.066,352.326,36.07,353.003C38.074,353.681,40.078,354.34,42.082,355.434C44.086,356.528,46.089,358.056,48.093,359.062C50.097,360.069,52.101,360.556,54.105,361.25C56.109,361.944,58.113,362.847,60.117,363.698C62.121,364.549,64.125,365.347,66.128,365.92C68.132,366.493,70.136,366.84,72.14,366.962C74.144,367.083,76.148,366.979,78.152,367.135C80.156,367.292,82.16,367.708,84.164,368.194C86.167,368.681,88.171,369.236,90.175,369.601C92.179,369.965,94.183,370.139,96.187,370.503C98.191,370.868,100.195,371.424,102.199,371.771C104.203,372.118,106.206,372.257,108.21,372.326C110.214,372.396,112.218,372.396,114.222,372.5C116.226,372.604,118.23,372.812,120.234,372.847C122.238,372.882,124.242,372.743,126.245,372.743C128.249,372.743,130.253,372.882,132.257,372.899C134.261,372.917,136.265,372.812,138.269,372.812C140.273,372.812,142.277,372.917,144.281,372.951C146.284,372.986,148.288,372.951,150.292,373.003C152.296,373.056,154.3,373.194,156.304,373.507C158.308,373.819,160.312,374.306,162.316,374.635C164.319,374.965,166.323,375.139,168.327,375.174C170.331,375.208,172.335,375.104,174.339,375.122C176.343,375.139,178.347,375.278,180.351,375.399C182.355,375.521,184.359,375.625,186.362,375.799C188.366,375.972,190.37,376.215,192.374,376.51C194.378,376.806,196.382,377.153,198.386,377.587C200.39,378.021,202.394,378.542,204.398,378.75C206.401,378.958,208.405,378.854,210.409,378.924C212.413,378.993,214.417,379.236,216.421,379.306C218.425,379.375,220.429,379.271,222.433,379.323C224.437,379.375,226.44,379.583,228.444,379.774C230.448,379.965,232.452,380.139,234.456,380.226C236.46,380.312,238.464,380.312,240.468,380.191C242.472,380.069,244.476,379.826,246.479,379.601C248.483,379.375,250.487,379.167,252.491,379.288C254.495,379.41,256.499,379.861,258.503,380.017C260.507,380.174,262.511,380.035,264.515,379.826C266.518,379.618,268.522,379.34,270.526,379.201C272.53,379.062,274.534,379.062,276.538,379.184C278.542,379.306,280.546,379.549,282.55,379.462C284.554,379.375,286.557,378.958,288.561,378.594C290.565,378.229,292.569,377.917,294.573,377.847C296.577,377.778,298.581,377.951,300.585,377.882C302.589,377.812,304.593,377.5,306.596,377.257C308.6,377.014,310.604,376.84,312.608,376.719C314.612,376.597,316.616,376.528,318.62,376.649C320.624,376.771,322.628,377.083,324.632,377.049C326.635,377.014,328.639,376.632,330.643,376.562C332.647,376.493,334.651,376.736,336.655,376.649C338.659,376.562,340.663,376.146,342.667,376.354C344.671,376.562,346.674,377.396,348.678,377.448C350.682,377.5,352.686,376.771,354.69,376.667C356.694,376.562,358.698,377.083,360.702,377.309C362.706,377.535,364.71,377.465,366.713,377.361C368.717,377.257,370.721,377.118,372.725,377.153C374.729,377.187,376.733,377.396,378.737,377.448C380.741,377.5,382.745,377.396,384.749,377.24C386.752,377.083,388.756,376.875,390.76,376.667C392.764,376.458,394.768,376.25,396.772,376.267C398.776,376.285,400.78,376.528,402.784,377.569C404.787,378.611,406.791,380.451,407.793,380.388C408.795,380.324,408.795,378.356,409.797,377.662C410.799,376.968,412.803,377.546,413.805,377.24C414.807,376.935,414.807,375.744,415.809,375.455C416.811,375.165,418.815,375.777,419.817,375.728C420.819,375.678,420.819,374.967,421.821,375.488C422.823,376.009,424.826,377.761,425.828,377.662C426.83,377.563,426.83,375.612,427.832,375.554C428.834,375.496,430.838,377.331,431.84,377.406C432.842,377.48,432.842,375.794,433.844,376.025C434.846,376.257,436.85,378.406,437.852,378.431C438.854,378.456,438.854,376.356,439.856,376.529C440.858,376.703,442.861,379.15,443.863,379.001C444.865,378.853,444.865,376.108,445.867,376.224C446.869,376.339,448.873,379.315,449.875,379.241C450.877,379.167,450.877,376.042,451.879,375.868C452.881,375.694,454.885,378.472,455.887,378.423C456.889,378.373,456.889,375.496,457.891,375.149C458.893,374.802,460.897,376.984,461.898,377.207C462.9,377.431,462.901,375.694,463.902,375.81C464.904,375.926,466.908,377.894,467.91,377.596C468.912,377.298,468.912,374.735,469.914,374.678C470.916,374.62,472.92,377.067,473.922,377.191C474.924,377.315,474.924,375.116,475.926,375C476.928,374.884,478.932,376.852,479.934,376.951C480.936,377.05,480.936,375.281,481.938,374.818C482.939,374.355,484.943,375.198,485.945,375.248C486.947,375.298,486.947,374.554,487.949,374.611C488.951,374.669,490.955,375.529,491.957,375.231C492.959,374.934,492.959,373.479,493.961,373.768C494.963,374.058,496.967,376.091,497.969,376.389C498.971,376.687,498.971,375.248,499.973,374.959C500.975,374.669,502.978,375.529,503.98,375.43C504.982,375.331,504.982,374.272,505.984,374.33C506.986,374.388,508.99,375.562,509.992,375.562C510.994,375.562,510.994,374.388,511.996,374.909C512.998,375.43,515.002,377.646,516.004,377.745C517.006,377.844,517.006,375.827,518.008,375.537C519.01,375.248,521.014,376.687,522.015,376.538C523.017,376.389,523.018,374.653,524.019,375.174C525.021,375.694,527.025,378.472,528.027,378.241C529.029,378.009,529.029,374.769,530.031,374.213C531.033,373.657,533.037,375.787,534.039,375.949C535.041,376.111,535.041,374.306,536.043,374.097C537.045,373.889,539.049,375.278,540.051,375.486C541.052,375.694,541.053,374.722,542.055,374.479C543.057,374.236,545.06,374.722,546.062,374.375C547.064,374.028,547.064,372.847,548.066,373.16C549.068,373.472,551.072,375.278,552.074,375.104C553.076,374.931,553.076,372.778,554.078,372.604C555.08,372.431,557.084,374.236,558.086,374.271C559.088,374.306,559.088,372.569,560.09,372.674C561.092,372.778,563.095,374.722,564.097,375C565.099,375.278,565.099,373.889,566.101,373.646C567.103,373.403,569.107,374.306,570.109,374.444C571.111,374.583,571.111,373.958,572.113,373.681C573.115,373.403,575.119,373.472,576.121,373.472C577.123,373.472,577.123,373.403,578.125,374.109C579.127,374.815,581.13,376.296,582.132,375.663C583.134,375.029,583.135,372.28,584.136,372.454C585.138,372.627,587.142,375.723,588.144,375.593C589.146,375.463,589.146,372.106,590.148,371.933C591.15,371.759,593.154,374.769,594.156,374.855" stroke="#FF5F33" stroke-width="2"/></g></g><path class="foreground" aria-hidden="true" d="" display="none"/></g><g transform="translate(0,0)"><path class="background" aria-hidden="true" d="M0,0h600v400h-600Z"/><g><g class="mark-line role-mark layer_1_marks" clip-path="url(#clip7)" role="graphics-object" aria-roledescription="line mark container"><path aria-label="Number of environment steps: 200.38k; Dormant neuron ratio (%): 11.0221357346; Width: 512" role="graphics-symbol" aria-roledescription="line mark" d="M12.023,327.552C14.027,332.448,16.031,336.823,18.035,340.139C20.039,343.455,22.043,345.712,24.047,347.613C26.05,349.514,28.054,351.059,30.058,352.578C32.062,354.097,34.066,355.59,36.07,357.04C38.074,358.49,40.078,359.896,42.082,361.285C44.086,362.674,46.089,364.045,48.093,365.373C50.097,366.701,52.101,367.986,54.105,369.036C56.109,370.087,58.113,370.903,60.117,371.745C62.121,372.587,64.125,373.455,66.128,374.193C68.132,374.931,70.136,375.538,72.14,376.05C74.144,376.562,76.148,376.979,78.152,377.387C80.156,377.795,82.16,378.194,84.164,378.611C86.167,379.028,88.171,379.462,90.175,379.67C92.179,379.878,94.183,379.861,96.187,380.165C98.191,380.469,100.195,381.094,102.199,381.328C104.203,381.562,106.206,381.406,108.21,381.606C110.214,381.806,112.218,382.361,114.222,382.795C116.226,383.229,118.23,383.542,120.234,383.646C122.238,383.75,124.242,383.646,126.245,383.568C128.249,383.49,130.253,383.437,132.257,383.594C134.261,383.75,136.265,384.115,138.269,384.245C140.273,384.375,142.277,384.271,144.281,384.34C146.284,384.41,148.288,384.653,150.292,384.661C152.296,384.67,154.3,384.444,156.304,384.262C158.308,384.08,160.312,383.941,162.316,383.95C164.319,383.958,166.323,384.115,168.327,384.21C170.331,384.306,172.335,384.34,174.339,384.175C176.343,384.01,178.347,383.646,180.351,383.559C182.355,383.472,184.359,383.663,186.362,383.542C188.366,383.42,190.37,382.986,192.374,382.83C194.378,382.674,196.382,382.795,198.386,382.656C200.39,382.517,202.394,382.118,204.398,381.806C206.401,381.493,208.405,381.267,210.409,381.259C212.413,381.25,214.417,381.458,216.421,381.415C218.425,381.372,220.429,381.076,222.433,380.981C224.437,380.885,226.44,380.99,228.444,380.885C230.448,380.781,232.452,380.469,234.456,380.286C236.46,380.104,238.464,380.052,240.468,379.957C242.472,379.861,244.476,379.722,246.479,379.661C248.483,379.601,250.487,379.618,252.491,379.523C254.495,379.427,256.499,379.219,258.503,379.002C260.507,378.785,262.511,378.559,264.515,378.446C266.518,378.333,268.522,378.333,270.526,378.22C272.53,378.108,274.534,377.882,276.538,377.778C278.542,377.674,280.546,377.691,282.55,377.622C284.554,377.552,286.557,377.396,288.561,377.448C290.565,377.5,292.569,377.76,294.573,377.717C296.577,377.674,298.581,377.326,300.585,377.248C302.589,377.17,304.593,377.361,306.596,377.231C308.6,377.101,310.604,376.649,312.608,376.233C314.612,375.816,316.616,375.434,318.62,375.243C320.624,375.052,322.628,375.052,324.632,374.722C326.635,374.392,328.639,373.733,330.643,373.481C332.647,373.229,334.651,373.385,336.655,373.394C338.659,373.403,340.663,373.264,342.667,373.056C344.671,372.847,346.674,372.569,348.678,372.214C350.682,371.858,352.686,371.424,354.69,370.877C356.694,370.33,358.698,369.67,360.702,369.444C362.706,369.219,364.71,369.427,366.713,369.653C368.717,369.878,370.721,370.122,372.725,370.243C374.729,370.365,376.733,370.365,378.737,370.191C380.741,370.017,382.745,369.67,384.749,369.34C386.752,369.01,388.756,368.698,390.76,368.446C392.764,368.194,394.768,368.003,396.772,367.821C398.776,367.639,400.78,367.465,402.784,367.448C404.787,367.431,406.791,367.569,408.795,367.526C410.799,367.483,412.803,367.257,414.807,366.727C416.811,366.198,418.815,365.365,420.819,365.182C422.823,365,424.826,365.469,426.83,365.59C428.834,365.712,430.838,365.486,432.842,365.408C434.846,365.33,436.85,365.399,438.854,365.391C440.858,365.382,442.862,365.295,444.865,365.321C446.869,365.347,448.873,365.486,450.877,365.295C452.881,365.104,454.885,364.583,456.889,364.41C458.893,364.236,460.897,364.41,462.901,364.245C464.904,364.08,466.908,363.576,468.912,363.247C470.916,362.917,472.92,362.76,474.924,362.648C476.928,362.535,478.932,362.465,480.936,362.344C482.94,362.222,484.944,362.049,486.947,361.806C488.951,361.562,490.955,361.25,492.959,360.955C494.963,360.66,496.967,360.382,498.971,360.087C500.975,359.792,502.979,359.479,504.983,359.253C506.986,359.028,508.99,358.889,510.994,358.733C512.998,358.576,515.002,358.403,517.006,358.307C519.01,358.212,521.014,358.194,523.018,358.151C525.022,358.108,527.025,358.038,529.029,358.056C531.033,358.073,533.037,358.177,535.041,358.038C537.045,357.899,539.049,357.517,541.053,357.3C543.057,357.083,545.06,357.031,547.064,356.788C549.068,356.545,551.072,356.111,553.076,355.981C555.08,355.851,557.084,356.024,559.088,355.738C561.092,355.451,563.096,354.705,565.099,354.193C567.103,353.681,569.107,353.403,571.111,353.247C573.115,353.09,575.119,353.056,577.123,353.22C579.127,353.385,581.131,353.75,583.135,353.906C585.139,354.062,587.142,354.01,589.146,353.811" stroke="#FF4B33" stroke-width="2"/></g></g><path class="foreground" aria-hidden="true" d="" display="none"/></g><g transform="translate(0,0)"><path class="background" aria-hidden="true" d="M0,0h600v400h-600Z"/><g><g class="mark-line role-mark layer_1_marks" clip-path="url(#clip8)" role="graphics-object" aria-roledescription="line mark container"><path aria-label="Number of environment steps: 200.38k; Dormant neuron ratio (%): 13.684896183; Width: 1024" role="graphics-symbol" aria-roledescription="line mark" d="M12.023,310.148C14.027,315.816,16.031,320.174,18.035,324.149C20.039,328.125,22.043,331.719,24.047,334.974C26.05,338.229,28.054,341.146,30.058,344.054C32.062,346.962,34.066,349.861,36.07,352.127C38.074,354.392,40.078,356.024,42.082,356.962C44.086,357.899,46.089,358.142,48.093,359.149C50.097,360.156,52.101,361.927,54.105,363.286C56.109,364.644,58.113,365.59,60.117,366.319C62.121,367.049,64.125,367.561,66.128,367.743C68.132,367.925,70.136,367.778,72.14,367.708C74.144,367.639,76.148,367.648,78.152,367.452C80.156,367.257,82.16,366.858,84.164,366.267C86.167,365.677,88.171,364.896,90.175,364.384C92.179,363.872,94.183,363.628,96.187,363.451C98.191,363.273,100.195,363.16,102.199,362.496C104.203,361.832,106.206,360.616,108.21,359.709C110.214,358.802,112.218,358.203,114.222,357.626C116.226,357.049,118.23,356.493,120.234,355.981C122.238,355.469,124.242,355,126.245,354.792C128.249,354.583,130.253,354.635,132.257,354.848C134.261,355.061,136.265,355.434,138.269,355.725C140.273,356.016,142.277,356.224,144.281,356.155C146.284,356.085,148.288,355.738,150.292,355.677C152.296,355.616,154.3,355.842,156.304,355.768C158.308,355.694,160.312,355.321,162.316,355.308C164.319,355.295,166.323,355.642,168.327,355.694C170.331,355.747,172.335,355.503,174.339,355.499C176.343,355.495,178.347,355.729,180.351,355.599C182.355,355.469,184.359,354.974,186.362,354.579C188.366,354.184,190.37,353.889,192.374,353.75C194.378,353.611,196.382,353.628,198.386,353.312C200.39,352.995,202.394,352.344,204.398,351.858C206.401,351.372,208.405,351.05,210.409,351.246C212.413,351.441,214.417,352.153,216.421,352.279C218.425,352.405,220.429,351.944,222.433,351.45C224.437,350.955,226.44,350.425,228.444,349.952C230.448,349.479,232.452,349.062,234.456,348.806C236.46,348.55,238.464,348.455,240.468,348.355C242.472,348.255,244.476,348.151,246.479,347.891C248.483,347.63,250.487,347.214,252.491,346.784C254.495,346.354,256.499,345.911,258.503,345.699C260.507,345.486,262.511,345.503,264.515,345.035C266.518,344.566,268.522,343.611,270.526,342.882C272.53,342.153,274.534,341.649,276.538,341.102C278.542,340.556,280.546,339.965,282.55,339.709C284.554,339.453,286.557,339.531,288.561,339.484C290.565,339.436,292.569,339.262,294.573,338.859C296.577,338.455,298.581,337.821,300.585,337.24C302.589,336.658,304.593,336.128,306.596,335.66C308.6,335.191,310.604,334.783,312.608,334.293C314.612,333.802,316.616,333.229,318.62,332.904C320.624,332.578,322.628,332.5,324.632,332.283C326.635,332.066,328.639,331.71,330.643,331.215C332.647,330.72,334.651,330.087,336.655,329.792C338.659,329.497,340.663,329.54,342.667,329.297C344.671,329.054,346.674,328.524,348.678,328.147C350.682,327.769,352.686,327.543,354.69,327.109C356.694,326.675,358.698,326.033,360.702,325.434C362.706,324.835,364.71,324.28,366.713,323.932C368.717,323.585,370.721,323.446,372.725,323.177C374.729,322.908,376.733,322.509,378.737,322.539C380.741,322.569,382.745,323.03,384.749,322.483C386.752,321.936,388.756,320.382,390.76,319.327C392.764,318.273,394.768,317.717,396.772,317.183C398.776,316.649,400.78,316.137,402.784,315.499C404.787,314.861,406.791,314.097,408.795,313.711C410.799,313.325,412.803,313.316,414.807,313.234C416.811,313.151,418.815,312.995,420.819,312.439C422.823,311.884,424.826,310.929,426.83,310.595C428.834,310.26,430.838,310.547,432.842,310.178C434.846,309.809,436.85,308.785,438.854,308.134C440.858,307.483,442.862,307.205,444.865,307.227C446.869,307.248,448.873,307.569,450.877,307.118C452.881,306.667,454.885,305.443,456.889,304.913C458.893,304.384,460.897,304.549,462.901,304.327C464.904,304.106,466.908,303.498,468.912,302.873C470.916,302.248,472.92,301.606,474.924,300.959C476.928,300.312,478.932,299.661,480.936,299.128C482.94,298.594,484.944,298.177,486.947,297.917C488.951,297.656,490.955,297.552,492.959,297.253C494.963,296.953,496.967,296.458,498.971,296.306C500.975,296.155,502.979,296.345,504.983,295.894C506.986,295.443,508.99,294.349,510.994,293.446C512.998,292.543,515.002,291.832,517.006,291.328C519.01,290.825,521.014,290.53,523.018,290.49C525.022,290.451,527.025,290.668,529.029,290.425C531.033,290.182,533.037,289.479,535.041,288.694C537.045,287.908,539.049,287.04,541.053,286.111C543.057,285.182,545.06,284.193,547.064,283.841C549.068,283.49,551.072,283.776,553.076,283.741C555.08,283.707,557.084,283.351,559.088,282.756C561.092,282.161,563.096,281.328,565.099,281.102C567.103,280.877,569.107,281.259,571.111,281.506C573.115,281.753,575.119,281.866,577.123,281.536C579.127,281.207,581.131,280.434,583.135,280.065C585.139,279.696,587.142,279.731,589.146,279.766" stroke="#E0392D" stroke-width="2"/></g></g><path class="foreground" aria-hidden="true" d="" display="none"/></g><g transform="translate(0,0)"><path class="background" aria-hidden="true" d="M0,0h600v400h-600Z"/><g><g class="mark-line role-mark layer_1_marks" clip-path="url(#clip9)" role="graphics-object" aria-roledescription="line mark container"><path aria-label="Number of environment steps: 200.38k; Dormant neuron ratio (%): 18.8183597565; Width: 2048" role="graphics-symbol" aria-roledescription="line mark" d="M12.023,275.935C14.027,283.424,16.031,288.906,18.035,293.917C20.039,298.928,22.043,303.468,24.047,307.587C26.05,311.706,28.054,315.404,30.058,318.184C32.062,320.964,34.066,322.826,36.07,324.052C38.074,325.278,40.078,325.868,42.082,326.586C44.086,327.305,46.089,328.151,48.093,328.711C50.097,329.271,52.101,329.544,54.105,329.768C56.109,329.991,58.113,330.165,60.117,330.339C62.121,330.512,64.125,330.686,66.128,330.538C68.132,330.391,70.136,329.922,72.14,329.219C74.144,328.516,76.148,327.578,78.152,326.493C80.156,325.408,82.16,324.175,84.164,323.049C86.167,321.923,88.171,320.903,90.175,319.998C92.179,319.093,94.183,318.303,96.187,317.539C98.191,316.775,100.195,316.037,102.199,315.286C104.203,314.536,106.206,313.772,108.21,313.429C110.214,313.086,112.218,313.164,114.222,312.756C116.226,312.348,118.23,311.454,120.234,310.72C122.238,309.987,124.242,309.414,126.245,309.026C128.249,308.637,130.253,308.433,132.257,307.925C134.261,307.418,136.265,306.606,138.269,306.072C140.273,305.538,142.277,305.282,144.281,304.8C146.284,304.319,148.288,303.611,150.292,302.984C152.296,302.357,154.3,301.81,156.304,301.098C158.308,300.386,160.312,299.51,162.316,298.357C164.319,297.205,166.323,295.777,168.327,294.286C170.331,292.795,172.335,291.241,174.339,289.933C176.343,288.624,178.347,287.561,180.351,286.595C182.355,285.629,184.359,284.761,186.362,283.783C188.366,282.804,190.37,281.714,192.374,280.642C194.378,279.57,196.382,278.516,198.386,277.83C200.39,277.144,202.394,276.827,204.398,276.118C206.401,275.408,208.405,274.306,210.409,273.006C212.413,271.706,214.417,270.208,216.421,269.058C218.425,267.908,220.429,267.105,222.433,266.374C224.437,265.642,226.44,264.983,228.444,264.312C230.448,263.641,232.452,262.96,234.456,262.376C236.46,261.793,238.464,261.306,240.468,260.347C242.472,259.388,244.476,257.956,246.479,256.684C248.483,255.412,250.487,254.301,252.491,253.303C254.495,252.305,256.499,251.419,258.503,250.508C260.507,249.596,262.511,248.659,264.515,247.407C266.518,246.155,268.522,244.588,270.526,243.498C272.53,242.409,274.534,241.797,276.538,241.246C278.542,240.694,280.546,240.204,282.55,239.64C284.554,239.076,286.557,238.437,288.561,237.611C290.565,236.784,292.569,235.768,294.573,234.657C296.577,233.546,298.581,232.339,300.585,230.957C302.589,229.575,304.593,228.016,306.596,227.101C308.6,226.185,310.604,225.911,312.608,225.284C314.612,224.657,316.616,223.676,318.62,222.869C320.624,222.062,322.628,221.428,324.632,220.647C326.635,219.865,328.639,218.937,330.643,218.362C332.647,217.786,334.651,217.565,336.655,216.78C338.659,215.994,340.663,214.644,342.667,213.626C344.671,212.609,346.674,211.923,348.678,211.263C350.682,210.603,352.686,209.97,354.69,209.188C356.694,208.407,358.698,207.478,360.702,206.302C362.706,205.126,364.71,203.702,366.713,202.843C368.717,201.984,370.721,201.688,372.725,200.788C374.729,199.887,376.733,198.381,378.737,197.958C380.741,197.535,382.745,198.194,384.749,198.327C386.752,198.459,388.756,198.064,390.76,197.5C392.764,196.936,394.768,196.202,396.772,195.523C398.776,194.844,400.78,194.219,402.784,193.461C404.787,192.704,406.791,191.814,408.795,191.126C410.799,190.438,412.803,189.952,414.807,189.434C416.811,188.915,418.815,188.364,420.819,187.48C422.823,186.597,424.826,185.382,426.83,184.403C428.834,183.424,430.838,182.682,432.842,182.316C434.846,181.949,436.85,181.957,438.854,181.938C440.858,181.918,442.862,181.871,444.865,181.643C446.869,181.415,448.873,181.007,450.877,180.321C452.881,179.635,454.885,178.672,456.889,178.22C458.893,177.769,460.897,177.83,462.901,177.695C464.904,177.561,466.908,177.231,468.912,176.678C470.916,176.124,472.92,175.347,474.924,174.531C476.928,173.715,478.932,172.86,480.936,171.842C482.94,170.825,484.944,169.644,486.947,168.652C488.951,167.661,490.955,166.858,492.959,166.059C494.963,165.26,496.967,164.466,498.971,164.199C500.975,163.932,502.979,164.193,504.983,163.806C506.986,163.42,508.99,162.387,510.994,161.424C512.998,160.46,515.002,159.566,517.006,158.859C519.01,158.151,521.014,157.63,523.018,157.465C525.022,157.3,527.025,157.491,529.029,157.431C531.033,157.37,533.037,157.057,535.041,156.895C537.045,156.732,539.049,156.719,541.053,156.775C543.057,156.832,545.06,156.957,547.064,156.504C549.068,156.05,551.072,155.017,553.076,154.444C555.08,153.872,557.084,153.759,559.088,153.294C561.092,152.83,563.096,152.014,565.099,151.595C567.103,151.176,569.107,151.155,571.111,151.089C573.115,151.024,575.119,150.916,577.123,150.755C579.127,150.595,581.131,150.382,583.135,149.789C585.139,149.197,587.142,148.225,589.146,147.563" stroke="#B22B24" stroke-width="2"/></g></g><path class="foreground" aria-hidden="true" d="" display="none"/></g><g transform="translate(0,0)"><path class="background" aria-hidden="true" d="M0,0h600v400h-600Z"/><g><g class="mark-line role-mark layer_1_marks" clip-path="url(#clip10)" role="graphics-object" aria-roledescription="line mark container"><path aria-label="Number of environment steps: 200.38k; Dormant neuron ratio (%): 26.1348020766; Width: 4096" role="graphics-symbol" aria-roledescription="line mark" d="M12.023,212.199C14.027,218.526,16.031,223.705,18.035,227.752C20.039,231.8,22.043,234.715,24.047,236.939C26.05,239.164,28.054,240.697,30.058,241.276C32.062,241.855,34.066,241.479,36.07,240.183C38.074,238.886,40.078,236.671,42.082,234.773C44.086,232.875,46.089,231.296,48.093,229.282C50.097,227.269,52.101,224.822,54.105,222.83C56.109,220.838,58.113,219.302,60.117,217.314C62.121,215.326,64.125,212.886,66.128,210.485C68.132,208.085,70.136,205.724,72.14,203.47C74.144,201.215,76.148,199.067,78.152,197.413C80.156,195.759,82.16,194.599,84.164,193.521C86.167,192.443,88.171,191.447,90.175,190.449C92.179,189.451,94.183,188.45,96.187,187.554C98.191,186.658,100.195,185.868,102.199,184.948C104.203,184.028,106.206,182.979,108.21,181.707C110.214,180.435,112.218,178.94,114.222,177.873C116.226,176.806,118.23,176.167,120.234,175.731C122.238,175.294,124.242,175.06,126.245,174.513C128.249,173.966,130.253,173.105,132.257,171.945C134.261,170.785,136.265,169.326,138.269,168.164C140.273,167.002,142.277,166.136,144.281,165.168C146.284,164.2,148.288,163.129,150.292,162.048C152.296,160.966,154.3,159.874,156.304,159.066C158.308,158.259,160.312,157.735,162.316,156.94C164.319,156.144,166.323,155.076,168.327,154.051C170.331,153.026,172.335,152.045,174.339,151.014C176.343,149.983,178.347,148.903,180.351,147.905C182.355,146.906,184.359,145.99,186.362,144.683C188.366,143.376,190.37,141.679,192.374,140.292C194.378,138.906,196.382,137.83,198.386,136.841C200.39,135.851,202.394,134.946,204.398,134.053C206.401,133.16,208.405,132.277,210.409,130.947C212.413,129.618,214.417,127.84,216.421,126.124C218.425,124.407,220.429,122.75,222.433,121.265C224.437,119.78,226.44,118.465,228.444,117.339C230.448,116.213,232.452,115.275,234.456,114.069C236.46,112.862,238.464,111.386,240.468,110.168C242.472,108.951,244.476,107.991,246.479,106.864C248.483,105.736,250.487,104.442,252.491,103.587C254.495,102.732,256.499,102.317,258.503,101.739C260.507,101.16,262.511,100.417,264.515,99.589C266.518,98.761,268.522,97.847,270.526,96.622C272.53,95.397,274.534,93.861,276.538,92.603C278.542,91.346,280.546,90.367,282.55,89.278C284.554,88.19,286.557,86.991,288.561,86.216C290.565,85.441,292.569,85.089,294.573,84.638C296.577,84.187,298.581,83.637,300.585,82.89C302.589,82.142,304.593,81.197,306.596,80.496C308.6,79.796,310.604,79.34,312.608,78.787C314.612,78.233,316.616,77.582,318.62,77.215C320.624,76.847,322.628,76.763,324.632,75.968C326.635,75.174,328.639,73.669,330.643,72.424C332.647,71.178,334.651,70.192,336.655,69.047C338.659,67.901,340.663,66.597,342.667,65.707C344.671,64.817,346.674,64.342,348.678,64.277C350.682,64.212,352.686,64.557,354.69,64.745C356.694,64.933,358.698,64.964,360.702,64.357C362.706,63.749,364.71,62.502,366.713,61.29C368.717,60.077,370.721,58.898,372.725,58.462C374.729,58.027,376.733,58.336,378.737,57.946C380.741,57.557,382.745,56.469,384.749,55.333C386.752,54.196,388.756,53.009,390.76,51.798C392.764,50.586,394.768,49.349,396.772,48.24C398.776,47.131,400.78,46.149,402.784,45.756C404.787,45.363,406.791,45.558,408.795,45.675C410.799,45.792,412.803,45.831,414.807,45.481C416.811,45.132,418.815,44.394,420.819,44.106C422.823,43.818,424.826,43.979,426.83,43.345C428.834,42.711,430.838,41.281,432.842,40.633C434.846,39.986,436.85,40.121,438.854,40.116C440.858,40.111,442.862,39.967,444.865,39.541C446.869,39.116,448.873,38.409,450.877,37.671C452.881,36.933,454.885,36.164,456.889,35.597C458.893,35.031,460.897,34.667,462.901,34.639C464.904,34.611,466.908,34.92,468.912,34.45C470.916,33.98,472.92,32.731,474.924,31.777C476.928,30.823,478.932,30.165,480.936,29.496C482.94,28.827,484.944,28.147,486.947,27.792C488.951,27.438,490.955,27.409,492.959,27.201C494.963,26.994,496.967,26.608,498.971,25.832C500.975,25.055,502.979,23.888,504.983,23.017C506.986,22.145,508.99,21.569,510.994,20.796C512.998,20.023,515.002,19.054,517.006,18.638C519.01,18.222,521.014,18.359,523.018,17.881C525.022,17.402,527.025,16.307,529.029,15.636C531.033,14.964,533.037,14.716,535.041,14.078C537.045,13.44,539.049,12.413,541.053,11.832C543.057,11.251,545.06,11.116,547.064,11.123C549.068,11.13,551.072,11.28,553.076,10.906C555.08,10.532,557.084,9.635,559.088,9.244C561.092,8.852,563.096,8.965,565.099,9.277C567.103,9.59,569.107,10.101,571.111,10.362C573.115,10.624,575.119,10.636,577.123,10.575C579.127,10.513,581.131,10.378,583.135,10.067C585.139,9.756,587.142,9.269,589.146,8.963" stroke="#7A1F18" stroke-width="2"/></g></g><path class="foreground" aria-hidden="true" d="" display="none"/></g></g><g class="mark-group role-legend" role="graphics-symbol" aria-roledescription="legend" aria-label="Symbol legend titled 'Width' for fill color and stroke color with 5 values: 256, 512, 1024, 2048, 4096"><g transform="translate(18,18)"><path class="background" aria-hidden="true" d="M0,0h46v99h-46Z" pointer-events="none"/><g><g class="mark-group role-legend-entry"><g transform="translate(0,21)"><path class="background" aria-hidden="true" d="M0,0h0v0h0Z" pointer-events="none"/><g><g class="mark-group role-scope" role="graphics-object" aria-roledescription="group mark container"><g transform="translate(0,0)"><path class="background" aria-hidden="true" d="M0,0h46v14h-46Z" pointer-events="none" opacity="1"/><g><g class="mark-symbol role-legend-symbol" pointer-events="none"><path transform="translate(7,7)" d="M3.536,0A3.536,3.536,0,1,1,-3.536,0A3.536,3.536,0,1,1,3.536,0" fill="#FF5F33" stroke="#FF5F33" stroke-width="1.5" opacity="1"/></g><g class="mark-text role-legend-label" pointer-events="none"><text text-anchor="start" transform="translate(18,11)" font-family="Times New Roman" font-size="14px" fill="#000" opacity="1">256</text></g></g><path class="foreground" aria-hidden="true" d="" pointer-events="none" display="none"/></g><g transform="translate(0,16)"><path class="background" aria-hidden="true" d="M0,0h46v14h-46Z" pointer-events="none" opacity="1"/><g><g class="mark-symbol role-legend-symbol" pointer-events="none"><path transform="translate(7,7)" d="M3.536,0A3.536,3.536,0,1,1,-3.536,0A3.536,3.536,0,1,1,3.536,0" fill="#FF4B33" stroke="#FF4B33" stroke-width="1.5" opacity="1"/></g><g class="mark-text role-legend-label" pointer-events="none"><text text-anchor="start" transform="translate(18,11)" font-family="Times New Roman" font-size="14px" fill="#000" opacity="1">512</text></g></g><path class="foreground" aria-hidden="true" d="" pointer-events="none" display="none"/></g><g transform="translate(0,32)"><path class="background" aria-hidden="true" d="M0,0h46v14h-46Z" pointer-events="none" opacity="1"/><g><g class="mark-symbol role-legend-symbol" pointer-events="none"><path transform="translate(7,7)" d="M3.536,0A3.536,3.536,0,1,1,-3.536,0A3.536,3.536,0,1,1,3.536,0" fill="#E0392D" stroke="#E0392D" stroke-width="1.5" opacity="1"/></g><g class="mark-text role-legend-label" pointer-events="none"><text text-anchor="start" transform="translate(18,11)" font-family="Times New Roman" font-size="14px" fill="#000" opacity="1">1024</text></g></g><path class="foreground" aria-hidden="true" d="" pointer-events="none" display="none"/></g><g transform="translate(0,48)"><path class="background" aria-hidden="true" d="M0,0h46v14h-46Z" pointer-events="none" opacity="1"/><g><g class="mark-symbol role-legend-symbol" pointer-events="none"><path transform="translate(7,7)" d="M3.536,0A3.536,3.536,0,1,1,-3.536,0A3.536,3.536,0,1,1,3.536,0" fill="#B22B24" stroke="#B22B24" stroke-width="1.5" opacity="1"/></g><g class="mark-text role-legend-label" pointer-events="none"><text text-anchor="start" transform="translate(18,11)" font-family="Times New Roman" font-size="14px" fill="#000" opacity="1">2048</text></g></g><path class="foreground" aria-hidden="true" d="" pointer-events="none" display="none"/></g><g transform="translate(0,64)"><path class="background" aria-hidden="true" d="M0,0h46v14h-46Z" pointer-events="none" opacity="1"/><g><g class="mark-symbol role-legend-symbol" pointer-events="none"><path transform="translate(7,7)" d="M3.536,0A3.536,3.536,0,1,1,-3.536,0A3.536,3.536,0,1,1,3.536,0" fill="#7A1F18" stroke="#7A1F18" stroke-width="1.5" opacity="1"/></g><g class="mark-text role-legend-label" pointer-events="none"><text text-anchor="start" transform="translate(18,11)" font-family="Times New Roman" font-size="14px" fill="#000" opacity="1">4096</text></g></g><path class="foreground" aria-hidden="true" d="" pointer-events="none" display="none"/></g></g></g><path class="foreground" aria-hidden="true" d="" pointer-events="none" display="none"/></g></g><g class="mark-text role-legend-title" pointer-events="none"><text text-anchor="start" transform="translate(0,13)" font-family="Times New Roman" font-size="16px" font-weight="bold" fill="#000" opacity="1">Width</text></g></g><path class="foreground" aria-hidden="true" d="" pointer-events="none" display="none"/></g></g></g><path class="foreground" aria-hidden="true" d="" display="none"/></g></g></g><defs><clipPath id="clip1"><rect x="0" y="0" width="600" height="400"/></clipPath><clipPath id="clip2"><rect x="0" y="0" width="600" height="400"/></clipPath><clipPath id="clip3"><rect x="0" y="0" width="600" height="400"/></clipPath><clipPath id="clip4"><rect x="0" y="0" width="600" height="400"/></clipPath><clipPath id="clip5"><rect x="0" y="0" width="600" height="400"/></clipPath><clipPath id="clip6"><rect x="0" y="0" width="600" height="400"/></clipPath><clipPath id="clip7"><rect x="0" y="0" width="600" height="400"/></clipPath><clipPath id="clip8"><rect x="0" y="0" width="600" height="400"/></clipPath><clipPath id="clip9"><rect x="0" y="0" width="600" height="400"/></clipPath><clipPath id="clip10"><rect x="0" y="0" width="600" height="400"/></clipPath></defs></svg>