<svg xmlns="http://www.w3.org/2000/svg" xmlns:xlink="http://www.w3.org/1999/xlink" version="1.1" class="marks" width="715" height="482" viewBox="0 0 715 482"><rect width="715" height="482" fill="white"/><g fill="none" stroke-miterlimit="10" transform="translate(46,36)"><g class="mark-group role-frame root" role="graphics-object" aria-roledescription="group mark container"><g transform="translate(0,0)"><path class="background" aria-hidden="true" d="M0.5,0.5h600v400h-600Z" stroke="#ddd"/><g><g class="mark-group role-axis" aria-hidden="true"><g transform="translate(0.5,400.5)"><path class="background" aria-hidden="true" d="M0,0h0v0h0Z" pointer-events="none"/><g><g class="mark-rule role-axis-grid" pointer-events="none"><line transform="translate(0,-400)" x2="0" y2="400" stroke="#ddd" stroke-width="1" opacity="1"/><line transform="translate(30,-400)" x2="0" y2="400" stroke="#ddd" stroke-width="1" opacity="1"/><line transform="translate(60,-400)" x2="0" y2="400" stroke="#ddd" stroke-width="1" opacity="1"/><line transform="translate(90,-400)" x2="0" y2="400" stroke="#ddd" stroke-width="1" opacity="1"/><line transform="translate(120,-400)" x2="0" y2="400" stroke="#ddd" stroke-width="1" opacity="1"/><line transform="translate(150,-400)" x2="0" y2="400" stroke="#ddd" stroke-width="1" opacity="1"/><line transform="translate(180,-400)" x2="0" y2="400" stroke="#ddd" stroke-width="1" opacity="1"/><line transform="translate(210,-400)" x2="0" y2="400" stroke="#ddd" stroke-width="1" opacity="1"/><line transform="translate(240,-400)" x2="0" y2="400" stroke="#ddd" stroke-width="1" opacity="1"/><line transform="translate(270,-400)" x2="0" y2="400" stroke="#ddd" stroke-width="1" opacity="1"/><line transform="translate(300,-400)" x2="0" y2="400" stroke="#ddd" stroke-width="1" opacity="1"/><line transform="translate(330,-400)" x2="0" y2="400" stroke="#ddd" stroke-width="1" opacity="1"/><line transform="translate(360,-400)" x2="0" y2="400" stroke="#ddd" stroke-width="1" opacity="1"/><line transform="translate(390,-400)" x2="0" y2="400" stroke="#ddd" stroke-width="1" opacity="1"/><line transform="translate(420,-400)" x2="0" y2="400" stroke="#ddd" stroke-width="1" opacity="1"/><line transform="translate(450,-400)" x2="0" y2="400" stroke="#ddd" stroke-width="1" opacity="1"/><line transform="translate(480,-400)" x2="0" y2="400" stroke="#ddd" stroke-width="1" opacity="1"/><line transform="translate(510,-400)" x2="0" y2="400" stroke="#ddd" stroke-width="1" opacity="1"/><line transform="translate(540,-400)" x2="0" y2="400" stroke="#ddd" stroke-width="1" opacity="1"/><line transform="translate(570,-400)" x2="0" y2="400" stroke="#ddd" stroke-width="1" opacity="1"/><line transform="translate(600,-400)" x2="0" y2="400" stroke="#ddd" stroke-width="1" opacity="1"/></g></g><path class="foreground" aria-hidden="true" d="" pointer-events="none" display="none"/></g></g><g class="mark-group role-axis" aria-hidden="true"><g transform="translate(0.5,0.5)"><path class="background" aria-hidden="true" d="M0,0h0v0h0Z" pointer-events="none"/><g><g class="mark-rule role-axis-grid" pointer-events="none"><line transform="translate(0,400)" x2="600" y2="0" stroke="#ddd" stroke-width="1" opacity="1"/><line transform="translate(0,360)" x2="600" y2="0" stroke="#ddd" stroke-width="1" opacity="1"/><line transform="translate(0,320)" x2="600" y2="0" stroke="#ddd" stroke-width="1" opacity="1"/><line transform="translate(0,280)" x2="600" y2="0" stroke="#ddd" stroke-width="1" opacity="1"/><line transform="translate(0,240)" x2="600" y2="0" stroke="#ddd" stroke-width="1" opacity="1"/><line transform="translate(0,200)" x2="600" y2="0" stroke="#ddd" stroke-width="1" opacity="1"/><line transform="translate(0,160)" x2="600" y2="0" stroke="#ddd" stroke-width="1" opacity="1"/><line transform="translate(0,120)" x2="600" y2="0" stroke="#ddd" stroke-width="1" opacity="1"/><line transform="translate(0,80)" x2="600" y2="0" stroke="#ddd" stroke-width="1" opacity="1"/><line transform="translate(0,40)" x2="600" y2="0" stroke="#ddd" stroke-width="1" opacity="1"/><line transform="translate(0,0)" x2="600" y2="0" stroke="#ddd" stroke-width="1" opacity="1"/></g></g><path class="foreground" aria-hidden="true" d="" pointer-events="none" display="none"/></g></g><g class="mark-group role-axis" role="graphics-symbol" aria-roledescription="axis" aria-label="X-axis titled 'Timestep' for a linear scale with values from 0M to 20M"><g transform="translate(0.5,400.5)"><path class="background" aria-hidden="true" d="M0,0h0v0h0Z" pointer-events="none"/><g><g class="mark-rule role-axis-tick" pointer-events="none"><line transform="translate(0,0)" x2="0" y2="5" stroke="#888" stroke-width="1" opacity="1"/><line transform="translate(30,0)" x2="0" y2="5" stroke="#888" stroke-width="1" opacity="1"/><line transform="translate(60,0)" x2="0" y2="5" stroke="#888" stroke-width="1" opacity="1"/><line transform="translate(90,0)" x2="0" y2="5" stroke="#888" stroke-width="1" opacity="1"/><line transform="translate(120,0)" x2="0" y2="5" stroke="#888" stroke-width="1" opacity="1"/><line transform="translate(150,0)" x2="0" y2="5" stroke="#888" stroke-width="1" opacity="1"/><line transform="translate(180,0)" x2="0" y2="5" stroke="#888" stroke-width="1" opacity="1"/><line transform="translate(210,0)" x2="0" y2="5" stroke="#888" stroke-width="1" opacity="1"/><line transform="translate(240,0)" x2="0" y2="5" stroke="#888" stroke-width="1" opacity="1"/><line transform="translate(270,0)" x2="0" y2="5" stroke="#888" stroke-width="1" opacity="1"/><line transform="translate(300,0)" x2="0" y2="5" stroke="#888" stroke-width="1" opacity="1"/><line transform="translate(330,0)" x2="0" y2="5" stroke="#888" stroke-width="1" opacity="1"/><line transform="translate(360,0)" x2="0" y2="5" stroke="#888" stroke-width="1" opacity="1"/><line transform="translate(390,0)" x2="0" y2="5" stroke="#888" stroke-width="1" opacity="1"/><line transform="translate(420,0)" x2="0" y2="5" stroke="#888" stroke-width="1" opacity="1"/><line transform="translate(450,0)" x2="0" y2="5" stroke="#888" stroke-width="1" opacity="1"/><line transform="translate(480,0)" x2="0" y2="5" stroke="#888" stroke-width="1" opacity="1"/><line transform="translate(510,0)" x2="0" y2="5" stroke="#888" stroke-width="1" opacity="1"/><line transform="translate(540,0)" x2="0" y2="5" stroke="#888" stroke-width="1" opacity="1"/><line transform="translate(570,0)" x2="0" y2="5" stroke="#888" stroke-width="1" opacity="1"/><line transform="translate(600,0)" x2="0" y2="5" stroke="#888" stroke-width="1" opacity="1"/></g><g class="mark-text role-axis-label" pointer-events="none"><text text-anchor="start" transform="translate(0,18)" font-family="Times New Roman" font-size="14px" fill="#000" opacity="1">0</text><text text-anchor="middle" transform="translate(30,18)" font-family="Times New Roman" font-size="14px" fill="#000" opacity="0">1M</text><text text-anchor="middle" transform="translate(60,18)" font-family="Times New Roman" font-size="14px" fill="#000" opacity="1">2M</text><text text-anchor="middle" transform="translate(90,18)" font-family="Times New Roman" font-size="14px" fill="#000" opacity="0">3M</text><text text-anchor="middle" transform="translate(120,18)" font-family="Times New Roman" font-size="14px" fill="#000" opacity="1">4M</text><text text-anchor="middle" transform="translate(150,18)" font-family="Times New Roman" font-size="14px" fill="#000" opacity="0">5M</text><text text-anchor="middle" transform="translate(180,18)" font-family="Times New Roman" font-size="14px" fill="#000" opacity="1">6M</text><text text-anchor="middle" transform="translate(210,18)" font-family="Times New Roman" font-size="14px" fill="#000" opacity="0">7M</text><text text-anchor="middle" transform="translate(240,18)" font-family="Times New Roman" font-size="14px" fill="#000" opacity="1">8M</text><text text-anchor="middle" transform="translate(270,18)" font-family="Times New Roman" font-size="14px" fill="#000" opacity="0">9M</text><text text-anchor="middle" transform="translate(300,18)" font-family="Times New Roman" font-size="14px" fill="#000" opacity="1">10M</text><text text-anchor="middle" transform="translate(330,18)" font-family="Times New Roman" font-size="14px" fill="#000" opacity="0">11M</text><text text-anchor="middle" transform="translate(360,18)" font-family="Times New Roman" font-size="14px" fill="#000" opacity="1">12M</text><text text-anchor="middle" transform="translate(390,18)" font-family="Times New Roman" font-size="14px" fill="#000" opacity="0">13M</text><text text-anchor="middle" transform="translate(420,18)" font-family="Times New Roman" font-size="14px" fill="#000" opacity="1">14M</text><text text-anchor="middle" transform="translate(450,18)" font-family="Times New Roman" font-size="14px" fill="#000" opacity="0">15M</text><text text-anchor="middle" transform="translate(480,18)" font-family="Times New Roman" font-size="14px" fill="#000" opacity="1">16M</text><text text-anchor="middle" transform="translate(510,18)" font-family="Times New Roman" font-size="14px" fill="#000" opacity="0">17M</text><text text-anchor="middle" transform="translate(540,18)" font-family="Times New Roman" font-size="14px" fill="#000" opacity="1">18M</text><text text-anchor="middle" transform="translate(570,18)" font-family="Times New Roman" font-size="14px" fill="#000" opacity="0">19M</text><text text-anchor="end" transform="translate(600,18)" font-family="Times New Roman" font-size="14px" fill="#000" opacity="1">20M</text></g><g class="mark-rule role-axis-domain" pointer-events="none"><line transform="translate(0,0)" x2="600" y2="0" stroke="#888" stroke-width="1" opacity="1"/></g><g class="mark-text role-axis-title" pointer-events="none"><text text-anchor="middle" transform="translate(300,38)" font-family="Times New Roman" font-size="16px" font-weight="bold" fill="#000" opacity="1">Timestep</text></g></g><path class="foreground" aria-hidden="true" d="" pointer-events="none" display="none"/></g></g><g class="mark-group role-axis" role="graphics-symbol" aria-roledescription="axis" aria-label="Y-axis titled 'Dormant neuron ratio (%)' for a linear scale with values from 0 to 50"><g transform="translate(0.5,0.5)"><path class="background" aria-hidden="true" d="M0,0h0v0h0Z" pointer-events="none"/><g><g class="mark-rule role-axis-tick" pointer-events="none"><line transform="translate(0,400)" x2="-5" y2="0" stroke="#888" stroke-width="1" opacity="1"/><line transform="translate(0,360)" x2="-5" y2="0" stroke="#888" stroke-width="1" opacity="1"/><line transform="translate(0,320)" x2="-5" y2="0" stroke="#888" stroke-width="1" opacity="1"/><line transform="translate(0,280)" x2="-5" y2="0" stroke="#888" stroke-width="1" opacity="1"/><line transform="translate(0,240)" x2="-5" y2="0" stroke="#888" stroke-width="1" opacity="1"/><line transform="translate(0,200)" x2="-5" y2="0" stroke="#888" stroke-width="1" opacity="1"/><line transform="translate(0,160)" x2="-5" y2="0" stroke="#888" stroke-width="1" opacity="1"/><line transform="translate(0,120)" x2="-5" y2="0" stroke="#888" stroke-width="1" opacity="1"/><line transform="translate(0,80)" x2="-5" y2="0" stroke="#888" stroke-width="1" opacity="1"/><line transform="translate(0,40)" x2="-5" y2="0" stroke="#888" stroke-width="1" opacity="1"/><line transform="translate(0,0)" x2="-5" y2="0" stroke="#888" stroke-width="1" opacity="1"/></g><g class="mark-text role-axis-label" pointer-events="none"><text text-anchor="end" transform="translate(-7,404)" font-family="Times New Roman" font-size="14px" fill="#000" opacity="1">0</text><text text-anchor="end" transform="translate(-7,364)" font-family="Times New Roman" font-size="14px" fill="#000" opacity="1">5</text><text text-anchor="end" transform="translate(-7,324)" font-family="Times New Roman" font-size="14px" fill="#000" opacity="1">10</text><text text-anchor="end" transform="translate(-7,284)" font-family="Times New Roman" font-size="14px" fill="#000" opacity="1">15</text><text text-anchor="end" transform="translate(-7,244)" font-family="Times New Roman" font-size="14px" fill="#000" opacity="1">20</text><text text-anchor="end" transform="translate(-7,204)" font-family="Times New Roman" font-size="14px" fill="#000" opacity="1">25</text><text text-anchor="end" transform="translate(-7,164)" font-family="Times New Roman" font-size="14px" fill="#000" opacity="1">30</text><text text-anchor="end" transform="translate(-7,124.00000000000001)" font-family="Times New Roman" font-size="14px" fill="#000" opacity="1">35</text><text text-anchor="end" transform="translate(-7,83.99999999999999)" font-family="Times New Roman" font-size="14px" fill="#000" opacity="1">40</text><text text-anchor="end" transform="translate(-7,43.99999999999999)" font-family="Times New Roman" font-size="14px" fill="#000" opacity="1">45</text><text text-anchor="end" transform="translate(-7,4)" font-family="Times New Roman" font-size="14px" fill="#000" opacity="1">50</text></g><g class="mark-rule role-axis-domain" pointer-events="none"><line transform="translate(0,400)" x2="0" y2="-400" stroke="#888" stroke-width="1" opacity="1"/></g><g class="mark-text role-axis-title" pointer-events="none"><text text-anchor="middle" transform="translate(-25,200) rotate(-90) translate(0,-3)" font-family="Times New Roman" font-size="16px" font-weight="bold" fill="#000" opacity="1">Dormant neuron ratio (%)</text></g></g><path class="foreground" aria-hidden="true" d="" pointer-events="none" display="none"/></g></g><g class="mark-group role-scope layer_0_layer_0_pathgroup" role="graphics-object" aria-roledescription="group mark container"><g transform="translate(0,0)"><path class="background" aria-hidden="true" d="M0,0h600v400h-600Z"/><g><g class="mark-area role-mark layer_0_layer_0_marks" clip-path="url(#clip1)" role="graphics-object" aria-roledescription="area mark container"><path aria-label="Timestep: 200.38k; Dormant neuron ratio (%): 8.8281252861; upper_Dormant neuron ratio: 10.5208334994; Width: 256; Ci1 of Dormant neuron ratio: 10.5208334994; Ci0 of Dormant neuron ratio: 8.8281252861; Mean of Dormant neuron ratio: 9.6875002861" role="graphics-symbol" aria-roledescription="errorband" d="M12.023,340.056C14.027,342.955,16.031,344.863,18.035,346.824C20.039,348.786,22.043,350.8,24.047,352.224C26.05,353.648,28.054,354.48,30.058,355.33C32.062,356.181,34.066,357.049,36.07,357.812C38.074,358.576,40.078,359.236,42.082,360.347C44.086,361.458,46.089,363.021,48.093,363.941C50.097,364.862,52.101,365.141,54.105,365.852C56.109,366.564,58.113,367.709,60.117,368.559C62.121,369.41,64.125,369.965,66.128,370.365C68.132,370.764,70.136,371.007,72.14,371.059C74.144,371.111,76.148,370.972,78.152,371.164C80.156,371.355,82.16,371.877,84.164,372.519C86.167,373.161,88.171,373.924,90.175,374.289C92.179,374.654,94.183,374.62,96.187,374.915C98.191,375.21,100.195,375.834,102.199,376.216C104.203,376.598,106.206,376.738,108.21,376.929C110.214,377.121,112.218,377.364,114.222,377.537C116.226,377.71,118.23,377.813,120.234,377.83C122.238,377.847,124.242,377.778,126.245,377.76C128.249,377.743,130.253,377.778,132.257,377.796C134.261,377.813,136.265,377.814,138.269,377.884C140.273,377.953,142.277,378.091,144.281,378.23C146.284,378.369,148.288,378.509,150.292,378.526C152.296,378.543,154.3,378.438,156.304,378.646C158.308,378.854,160.312,379.375,162.316,379.74C164.319,380.104,166.323,380.312,168.327,380.365C170.331,380.417,172.335,380.312,174.339,380.226C176.343,380.14,178.347,380.071,180.351,380.019C182.355,379.967,184.359,379.931,186.362,380.035C188.366,380.139,190.37,380.382,192.374,380.712C194.378,381.042,196.382,381.458,198.386,381.998C200.39,382.537,202.394,383.2,204.398,383.373C206.401,383.547,208.405,383.232,210.409,383.283C212.413,383.333,214.417,383.75,216.421,383.959C218.425,384.168,220.429,384.168,222.433,384.307C224.437,384.446,226.44,384.723,228.444,384.931C230.448,385.139,232.452,385.278,234.456,385.209C236.46,385.14,238.464,384.863,240.468,384.811C242.472,384.759,244.476,384.931,246.479,384.844C248.483,384.757,250.487,384.41,252.491,384.497C254.495,384.583,256.499,385.104,258.503,385.209C260.507,385.314,262.511,385.003,264.515,384.76C266.518,384.517,268.522,384.342,270.526,384.202C272.53,384.062,274.534,383.958,276.538,384.01C278.542,384.062,280.546,384.271,282.55,384.149C284.554,384.028,286.557,383.576,288.561,383.264C290.565,382.951,292.569,382.778,294.573,382.726C296.577,382.674,298.581,382.745,300.585,382.693C302.589,382.641,304.593,382.468,306.596,382.311C308.6,382.155,310.604,382.015,312.608,381.841C314.612,381.668,316.616,381.46,318.62,381.512C320.624,381.564,322.628,381.876,324.632,381.876C326.635,381.876,328.639,381.564,330.643,381.408C332.647,381.252,334.651,381.251,336.655,381.198C338.659,381.146,340.663,381.042,342.667,381.372C344.671,381.701,346.674,382.465,348.678,382.5C350.682,382.536,352.686,381.842,354.69,381.807C356.694,381.773,358.698,382.397,360.702,382.639C362.706,382.882,364.71,382.743,366.713,382.639C368.717,382.535,370.721,382.465,372.725,382.604C374.729,382.743,376.733,383.09,378.737,383.229C380.741,383.368,382.745,383.299,384.749,383.194C386.752,383.09,388.756,382.951,390.76,382.639C392.764,382.327,394.768,381.842,396.772,381.686C398.776,381.53,400.78,381.704,402.784,381.86C404.787,382.016,406.791,382.154,407.793,382.339C408.795,382.524,408.795,382.757,409.797,382.93C410.799,383.104,412.803,383.219,413.805,383.202C414.807,383.185,414.807,383.036,415.809,382.688C416.811,382.341,418.815,381.796,419.817,381.622C420.819,381.448,420.819,381.647,421.821,382.341C422.823,383.036,424.826,384.226,425.828,384.276C426.83,384.325,426.83,383.234,427.832,382.713C428.834,382.192,430.838,382.242,431.84,382.465C432.842,382.688,432.842,383.085,433.844,383.433C434.846,383.78,436.85,384.077,437.852,383.979C438.854,383.88,438.854,383.385,439.856,383.733C440.858,384.08,442.861,385.269,443.863,385.344C444.865,385.418,444.865,384.377,445.867,383.857C446.869,383.336,448.873,383.335,449.875,383.086C450.877,382.837,450.877,382.341,451.879,382.515C452.881,382.688,454.885,383.532,455.887,383.284C456.889,383.037,456.889,381.699,457.891,381.295C458.893,380.892,460.897,381.422,461.898,381.695C462.9,381.967,462.901,381.98,463.902,382.037C464.904,382.093,466.908,382.192,467.91,381.994C468.912,381.796,468.912,381.3,469.914,381.647C470.916,381.994,472.92,383.185,473.922,383.284C474.924,383.383,474.924,382.391,475.926,382.738C476.928,383.085,478.932,384.772,479.934,384.847C480.936,384.922,480.936,383.385,481.938,382.517C482.939,381.649,484.943,381.45,485.945,381.523C486.947,381.597,486.947,381.944,487.949,381.771C488.951,381.597,490.955,380.903,491.957,380.755C492.959,380.608,492.959,381.007,493.961,381.298C494.963,381.589,496.967,381.771,497.969,381.795C498.971,381.819,498.971,381.685,499.973,381.568C500.975,381.451,502.978,381.35,503.98,381.251C504.982,381.152,504.982,381.054,505.984,381.054C506.986,381.054,508.99,381.152,509.992,381.127C510.994,381.101,510.994,380.952,511.996,381.3C512.998,381.647,515.002,382.49,516.004,382.639C517.006,382.788,517.006,382.242,518.008,382.242C519.01,382.242,521.014,382.788,522.015,382.44C523.017,382.093,523.018,380.853,524.019,381.721C525.021,382.589,527.025,385.565,528.027,385.406C529.029,385.246,529.029,381.95,530.031,381.568C531.033,381.186,533.037,383.718,534.039,383.665C535.041,383.611,535.041,380.972,536.043,380.833C537.045,380.694,539.049,383.056,540.051,383.508C541.052,383.96,541.053,382.503,542.055,382.368C543.057,382.233,545.06,383.418,546.062,383.244C547.064,383.069,547.064,381.535,548.066,381.67C549.068,381.806,551.072,383.611,552.074,383.472C553.076,383.333,553.076,381.25,554.078,380.833C555.08,380.417,557.084,381.667,558.086,381.84C559.088,382.014,559.088,381.111,560.09,380.972C561.092,380.833,563.095,381.458,564.097,381.632C565.099,381.806,565.099,381.528,566.101,381.25C567.103,380.972,569.107,380.694,570.109,380.522C571.111,380.349,571.111,380.281,572.113,380.177C573.115,380.073,575.119,379.932,576.121,380.244C577.123,380.556,577.123,381.319,578.125,382.112C579.127,382.905,581.13,383.727,582.132,382.025C583.134,380.324,583.135,376.1,584.136,376.128C585.138,376.157,587.142,380.44,588.144,380.179C589.146,379.919,589.146,375.116,590.148,375.059C591.15,375.001,593.154,379.69,594.156,379.604L594.156,369.815C593.154,369.554,591.15,368.111,590.148,368.488C589.146,368.866,589.146,371.065,588.144,370.761C587.142,370.457,585.138,367.65,584.136,367.274C583.135,366.898,583.134,368.953,582.132,369.361C581.13,369.769,579.127,368.53,578.125,367.911C577.123,367.292,577.123,367.292,576.121,367.569C575.119,367.847,573.115,368.403,572.113,368.507C571.111,368.611,571.111,368.264,570.109,367.917C569.107,367.569,567.103,367.222,566.101,367.604C565.099,367.986,565.099,369.097,564.097,368.611C563.095,368.125,561.092,366.042,560.09,365.623C559.088,365.205,559.088,366.451,558.086,366.417C557.084,366.382,555.08,365.066,554.078,364.964C553.076,364.861,553.076,365.972,552.074,366.111C551.072,366.25,549.068,365.417,548.066,365.206C547.064,364.995,547.064,365.406,546.062,366.066C545.06,366.726,543.057,367.634,542.055,367.984C541.053,368.333,541.052,368.125,540.051,367.882C539.049,367.639,537.045,367.361,536.043,367.5C535.041,367.639,535.041,368.194,534.039,367.778C533.037,367.361,531.033,365.972,530.031,366.58C529.029,367.187,529.029,369.792,528.027,370.064C527.025,370.337,525.021,368.279,524.019,368.018C523.018,367.758,523.017,369.296,522.015,369.42C521.014,369.544,519.01,368.254,518.008,368.601C517.006,368.948,517.006,370.933,516.004,370.759C515.002,370.585,512.998,368.254,511.996,367.733C510.994,367.212,510.994,368.502,509.992,368.651C508.99,368.8,506.986,367.808,505.984,367.46C504.982,367.113,504.982,367.411,503.98,367.336C502.978,367.262,500.975,366.815,499.973,367.336C498.971,367.857,498.971,369.345,497.969,368.998C496.967,368.651,494.963,366.468,493.961,366.121C492.959,365.774,492.959,367.262,491.957,367.46C490.955,367.659,488.951,366.567,487.949,366.394C486.947,366.22,486.947,366.964,485.945,366.939C484.943,366.913,482.939,366.119,481.938,366.292C480.936,366.466,480.936,367.608,479.934,367.558C478.932,367.509,476.928,366.267,475.926,366.962C474.924,367.656,474.924,370.286,473.922,370.262C472.92,370.238,470.916,367.56,469.914,368.08C468.912,368.601,468.912,372.321,467.91,372.718C466.908,373.115,464.904,370.188,463.902,369.841C462.901,369.494,462.9,371.726,461.898,371.503C460.897,371.28,458.893,368.601,457.891,369.296C456.889,369.99,456.889,374.058,455.887,373.76C454.885,373.462,452.881,368.8,451.879,369.32C450.877,369.841,450.877,375.546,449.875,375.471C448.873,375.397,446.869,369.544,445.867,368.502C444.865,367.46,444.865,371.23,443.863,371.478C442.861,371.725,440.858,368.45,439.856,368.276C438.854,368.103,438.854,371.031,437.852,371.031C436.85,371.031,434.846,368.103,433.844,368.103C432.842,368.103,432.842,371.031,431.84,370.982C430.838,370.933,428.834,367.907,427.832,367.386C426.83,366.865,426.83,368.849,425.828,369.047C424.826,369.245,422.823,367.656,421.821,367.309C420.819,366.962,420.819,367.856,419.817,367.757C418.815,367.659,416.811,366.567,415.809,366.394C414.807,366.22,414.807,366.964,413.805,367.644C412.803,368.325,410.799,368.941,409.797,371.372C408.795,373.802,408.795,378.047,407.793,378.364C406.791,378.681,404.787,375.069,402.784,373.142C400.78,371.214,398.776,370.97,396.772,370.797C394.768,370.623,392.764,370.52,390.76,370.554C388.756,370.589,386.752,370.76,384.749,371.003C382.745,371.246,380.741,371.559,378.737,371.543C376.733,371.526,374.729,371.18,372.725,371.163C370.721,371.146,368.717,371.458,366.713,371.597C364.71,371.735,362.706,371.7,360.702,371.578C358.698,371.457,356.694,371.249,354.69,371.475C352.686,371.701,350.682,372.361,348.678,372.257C346.674,372.152,344.671,371.283,342.667,371.283C340.663,371.282,338.659,372.15,336.655,372.324C334.651,372.498,332.647,371.978,330.643,371.961C328.639,371.944,326.635,372.431,324.632,372.448C322.628,372.465,320.624,372.014,318.62,371.718C316.616,371.423,314.612,371.283,312.608,371.387C310.604,371.491,308.6,371.839,306.596,372.204C304.593,372.569,302.589,372.95,300.585,373.071C298.581,373.192,296.577,373.053,294.573,373.175C292.569,373.297,290.565,373.68,288.561,374.097C286.557,374.514,284.554,374.965,282.55,375.035C280.546,375.104,278.542,374.792,276.538,374.601C274.534,374.41,272.53,374.34,270.526,374.479C268.522,374.618,266.518,374.965,264.515,375.121C262.511,375.277,260.507,375.241,258.503,375.05C256.499,374.859,254.495,374.513,252.491,374.357C250.487,374.201,248.483,374.236,246.479,374.531C244.476,374.826,242.472,375.382,240.468,375.608C238.464,375.833,236.46,375.729,234.456,375.538C232.452,375.346,230.448,375.068,228.444,374.807C226.44,374.547,224.437,374.305,222.433,374.339C220.429,374.374,218.425,374.686,216.421,374.738C214.417,374.79,212.413,374.582,210.409,374.322C208.405,374.062,206.401,373.75,204.398,373.455C202.394,373.16,200.39,372.882,198.386,372.691C196.382,372.499,194.378,372.394,192.374,372.273C190.37,372.151,188.366,372.013,186.362,371.718C184.359,371.424,182.355,370.972,180.351,370.763C178.347,370.555,176.343,370.589,174.339,370.554C172.335,370.519,170.331,370.416,168.327,370.191C166.323,369.965,164.319,369.618,162.316,369.288C160.312,368.958,158.308,368.646,156.304,368.351C154.3,368.056,152.296,367.778,150.292,367.76C148.288,367.742,146.284,367.984,144.281,367.967C142.277,367.95,140.273,367.673,138.269,367.656C136.265,367.639,134.261,367.882,132.257,367.865C130.253,367.847,128.249,367.569,126.245,367.569C124.242,367.569,122.238,367.847,120.234,367.778C118.23,367.708,116.226,367.292,114.222,367.222C112.218,367.153,110.214,367.431,108.21,367.552C106.206,367.673,104.203,367.637,102.199,367.446C100.195,367.255,98.191,366.909,96.187,366.406C94.183,365.903,92.179,365.243,90.175,364.774C88.171,364.306,86.167,364.028,84.164,363.766C82.16,363.504,80.156,363.259,78.152,363.189C76.148,363.12,74.144,363.227,72.14,363.054C70.136,362.882,68.132,362.431,66.128,361.701C64.125,360.972,62.121,359.965,60.117,359.132C58.113,358.299,56.109,357.639,54.105,356.753C52.101,355.868,50.097,354.757,48.093,353.594C46.089,352.431,44.086,351.215,42.082,350.33C40.078,349.444,38.074,348.889,36.07,348.299C34.066,347.708,32.062,347.083,30.058,345.989C28.054,344.895,26.05,343.332,24.047,341.439C22.043,339.547,20.039,337.326,18.035,334.756C16.031,332.187,14.027,329.269,12.023,326.057Z" fill="#FF5F33" opacity="0.3"/></g></g><path class="foreground" aria-hidden="true" d="" display="none"/></g><g transform="translate(0,0)"><path class="background" aria-hidden="true" d="M0,0h600v400h-600Z"/><g><g class="mark-area role-mark layer_0_layer_0_marks" clip-path="url(#clip2)" role="graphics-object" aria-roledescription="area mark container"><path aria-label="Timestep: 200.38k; Dormant neuron ratio (%): 10.4033205628; upper_Dormant neuron ratio: 11.6210941339; Width: 512; Ci1 of Dormant neuron ratio: 11.6210941339; Ci0 of Dormant neuron ratio: 10.4033205628; Mean of Dormant neuron ratio: 11.0221357346" role="graphics-symbol" aria-roledescription="errorband" d="M12.023,333.386C14.027,338.299,16.031,342.274,18.035,345.4C20.039,348.525,22.043,350.799,24.047,352.519C26.05,354.238,28.054,355.402,30.058,356.774C32.062,358.145,34.066,359.724,36.07,361.182C38.074,362.64,40.078,363.976,42.082,365.408C44.086,366.84,46.089,368.368,48.093,369.722C50.097,371.076,52.101,372.257,54.105,373.203C56.109,374.149,58.113,374.861,60.117,375.495C62.121,376.129,64.125,376.686,66.128,377.276C68.132,377.866,70.136,378.49,72.14,378.977C74.144,379.464,76.148,379.812,78.152,380.099C80.156,380.386,82.16,380.61,84.164,380.931C86.167,381.251,88.171,381.668,90.175,381.772C92.179,381.876,94.183,381.667,96.187,381.832C98.191,381.997,100.195,382.536,102.199,382.753C104.203,382.97,106.206,382.865,108.21,383.047C110.214,383.229,112.218,383.698,114.222,384.149C116.226,384.601,118.23,385.035,120.234,385.191C122.238,385.347,124.242,385.226,126.245,385.182C128.249,385.139,130.253,385.174,132.257,385.382C134.261,385.59,136.265,385.972,138.269,386.128C140.273,386.285,142.277,386.215,144.281,386.319C146.284,386.424,148.288,386.701,150.292,386.702C152.296,386.702,154.3,386.424,156.304,386.242C158.308,386.06,160.312,385.974,162.316,386.086C164.319,386.199,166.323,386.511,168.327,386.52C170.331,386.528,172.335,386.234,174.339,385.921C176.343,385.609,178.347,385.278,180.351,385.304C182.355,385.33,184.359,385.713,186.362,385.722C188.366,385.73,190.37,385.366,192.374,385.331C194.378,385.296,196.382,385.591,198.386,385.409C200.39,385.227,202.394,384.568,204.398,384.247C206.401,383.926,208.405,383.943,210.409,383.977C212.413,384.011,214.417,384.063,216.421,383.915C218.425,383.768,220.429,383.421,222.433,383.36C224.437,383.299,226.44,383.525,228.444,383.533C230.448,383.542,232.452,383.334,234.456,383.065C236.46,382.796,238.464,382.467,240.468,382.327C242.472,382.188,244.476,382.24,246.479,382.292C248.483,382.344,250.487,382.396,252.491,382.336C254.495,382.275,256.499,382.102,258.503,381.894C260.507,381.686,262.511,381.443,264.515,381.269C266.518,381.095,268.522,380.99,270.526,380.877C272.53,380.764,274.534,380.642,276.538,380.538C278.542,380.434,280.546,380.348,282.55,380.322C284.554,380.296,286.557,380.331,288.561,380.505C290.565,380.678,292.569,380.991,294.573,381.095C296.577,381.199,298.581,381.094,300.585,381.059C302.589,381.024,304.593,381.059,306.596,380.781C308.6,380.504,310.604,379.914,312.608,379.549C314.612,379.185,316.616,379.046,318.62,378.915C320.624,378.785,322.628,378.663,324.632,378.316C326.635,377.969,328.639,377.396,330.643,377.187C332.647,376.979,334.651,377.135,336.655,377.248C338.659,377.361,340.663,377.431,342.667,377.292C344.671,377.153,346.674,376.806,348.678,376.294C350.682,375.782,352.686,375.105,354.69,374.34C356.694,373.576,358.698,372.726,360.702,372.561C362.706,372.396,364.71,372.918,366.713,373.256C368.717,373.595,370.721,373.75,372.725,373.872C374.729,373.993,376.733,374.081,378.737,374.081C380.741,374.081,382.745,373.994,384.749,373.89C386.752,373.786,388.756,373.665,390.76,373.396C392.764,373.127,394.768,372.709,396.772,372.561C398.776,372.413,400.78,372.535,402.784,372.492C404.787,372.448,406.791,372.24,408.795,372.032C410.799,371.824,412.803,371.616,414.807,371.043C416.811,370.47,418.815,369.532,420.819,369.332C422.823,369.133,424.826,369.672,426.83,369.898C428.834,370.123,430.838,370.036,432.842,370.166C434.846,370.296,436.85,370.643,438.854,370.774C440.858,370.905,442.862,370.82,444.865,370.872C446.869,370.924,448.873,371.113,450.877,370.808C452.881,370.503,454.885,369.705,456.889,369.314C458.893,368.924,460.897,368.941,462.901,368.698C464.904,368.455,466.908,367.952,468.912,367.64C470.916,367.328,472.92,367.207,474.924,367.137C476.928,367.068,478.932,367.049,480.936,366.98C482.94,366.911,484.944,366.79,486.947,366.538C488.951,366.286,490.955,365.904,492.959,365.591C494.963,365.278,496.967,365.035,498.971,364.896C500.975,364.757,502.979,364.723,504.983,364.445C506.986,364.168,508.99,363.646,510.994,363.559C512.998,363.473,515.002,363.82,517.006,363.985C519.01,364.15,521.014,364.132,523.018,363.993C525.022,363.854,527.025,363.594,529.029,363.533C531.033,363.472,533.037,363.611,535.041,363.473C537.045,363.334,539.049,362.918,541.053,362.606C543.057,362.294,545.06,362.085,547.064,361.781C549.068,361.477,551.072,361.077,553.076,360.912C555.08,360.747,557.084,360.818,559.088,360.687C561.092,360.557,563.096,360.227,565.099,359.931C567.103,359.636,569.107,359.377,571.111,359.099C573.115,358.821,575.119,358.525,577.123,358.577C579.127,358.628,581.131,359.028,583.135,359.358C585.139,359.687,587.142,359.948,589.146,359.748L589.146,347.655C587.142,347.898,585.139,348.61,583.135,348.697C581.131,348.783,579.127,348.245,577.123,347.699C575.119,347.152,573.115,346.597,571.111,346.701C569.107,346.806,567.103,347.569,565.099,348.437C563.096,349.305,561.092,350.276,559.088,350.675C557.084,351.074,555.08,350.9,553.076,351.065C551.072,351.23,549.068,351.734,547.064,351.891C545.06,352.047,543.057,351.856,541.053,352.065C539.049,352.273,537.045,352.881,535.041,353.054C533.037,353.228,531.033,352.967,529.029,352.681C527.025,352.395,525.022,352.083,523.018,351.866C521.014,351.649,519.01,351.528,517.006,351.84C515.002,352.152,512.998,352.898,510.994,353.167C508.99,353.436,506.986,353.228,504.983,353.428C502.979,353.628,500.975,354.236,498.971,354.852C496.967,355.469,494.963,356.094,492.959,356.484C490.955,356.875,488.951,357.031,486.947,357.239C484.944,357.447,482.94,357.707,480.936,357.785C478.932,357.863,476.928,357.758,474.924,357.827C472.92,357.897,470.916,358.14,468.912,358.496C466.908,358.852,464.904,359.32,462.901,359.408C460.897,359.495,458.893,359.201,456.889,359.201C454.885,359.201,452.881,359.496,450.877,359.582C448.873,359.669,446.869,359.548,444.865,359.392C442.862,359.236,440.858,359.045,438.854,359.158C436.85,359.27,434.846,359.686,432.842,360.119C430.838,360.553,428.834,361.003,426.83,360.952C424.826,360.9,422.823,360.346,420.819,360.416C418.815,360.485,416.811,361.179,414.807,361.786C412.803,362.394,410.799,362.916,408.795,362.899C406.791,362.882,404.787,362.326,402.784,362.222C400.78,362.118,398.776,362.464,396.772,362.655C394.768,362.845,392.764,362.88,390.76,363.236C388.756,363.592,386.752,364.27,384.749,364.791C382.745,365.312,380.741,365.677,378.737,365.946C376.733,366.215,374.729,366.388,372.725,366.327C370.721,366.266,368.717,365.971,366.713,365.832C364.71,365.694,362.706,365.711,360.702,366.033C358.698,366.354,356.694,366.979,354.69,367.378C352.686,367.777,350.682,367.951,348.678,368.089C346.674,368.228,344.671,368.333,342.667,368.368C340.663,368.403,338.659,368.368,336.655,368.437C334.651,368.507,332.647,368.68,330.643,369.183C328.639,369.687,326.635,370.52,324.632,370.859C322.628,371.197,320.624,371.041,318.62,371.197C316.616,371.353,314.612,371.822,312.608,372.256C310.604,372.69,308.6,373.09,306.596,373.176C304.593,373.263,302.589,373.036,300.585,373.193C298.581,373.349,296.577,373.888,294.573,374.071C292.569,374.253,290.565,374.08,288.561,374.245C286.557,374.41,284.554,374.913,282.55,375.052C280.546,375.191,278.542,374.965,276.538,375.035C274.534,375.104,272.53,375.469,270.526,375.538C268.522,375.607,266.518,375.381,264.515,375.433C262.511,375.485,260.507,375.816,258.503,376.102C256.499,376.388,254.495,376.631,252.491,376.805C250.487,376.978,248.483,377.083,246.479,377.231C244.476,377.378,242.472,377.569,240.468,377.613C238.464,377.656,236.46,377.552,234.456,377.725C232.452,377.899,230.448,378.35,228.444,378.541C226.44,378.732,224.437,378.663,222.433,378.776C220.429,378.888,218.425,379.183,216.421,379.087C214.417,378.992,212.413,378.506,210.409,378.523C208.405,378.54,206.401,379.061,204.398,379.443C202.394,379.826,200.39,380.069,198.386,380.173C196.382,380.278,194.378,380.243,192.374,380.425C190.37,380.608,188.366,381.007,186.362,381.215C184.359,381.424,182.355,381.441,180.351,381.675C178.347,381.909,176.343,382.36,174.339,382.447C172.335,382.533,170.331,382.256,168.327,382.056C166.323,381.856,164.319,381.735,162.316,381.709C160.312,381.683,158.308,381.752,156.304,381.935C154.3,382.117,152.296,382.413,150.292,382.439C148.288,382.465,146.284,382.221,144.281,382.126C142.277,382.03,140.273,382.082,138.269,381.935C136.265,381.787,134.261,381.441,132.257,381.345C130.253,381.25,128.249,381.406,126.245,381.589C124.242,381.771,122.238,381.979,120.234,382.005C118.23,382.031,116.226,381.875,114.222,381.467C112.218,381.059,110.214,380.399,108.21,380.182C106.206,379.965,104.203,380.191,102.199,379.905C100.195,379.618,98.191,378.819,96.187,378.403C94.183,377.986,92.179,377.951,90.175,377.646C88.171,377.342,86.167,376.77,84.164,376.275C82.16,375.78,80.156,375.363,78.152,374.808C76.148,374.252,74.144,373.557,72.14,372.897C70.136,372.238,68.132,371.614,66.128,370.755C64.125,369.896,62.121,368.802,60.117,367.778C58.113,366.753,56.109,365.799,54.105,364.722C52.101,363.646,50.097,362.448,48.093,361.18C46.089,359.913,44.086,358.576,42.082,357.273C40.078,355.971,38.074,354.704,36.07,353.315C34.066,351.926,32.062,350.415,30.058,348.87C28.054,347.326,26.05,345.746,24.047,343.767C22.043,341.788,20.039,339.409,18.035,335.763C16.031,332.117,14.027,327.204,12.023,322.204Z" fill="#FF4B33" opacity="0.3"/></g></g><path class="foreground" aria-hidden="true" d="" display="none"/></g><g transform="translate(0,0)"><path class="background" aria-hidden="true" d="M0,0h600v400h-600Z"/><g><g class="mark-area role-mark layer_0_layer_0_marks" clip-path="url(#clip3)" role="graphics-object" aria-roledescription="area mark container"><path aria-label="Timestep: 200.38k; Dormant neuron ratio (%): 12.6918949461; upper_Dormant neuron ratio: 14.5769045186; Width: 1024; Ci1 of Dormant neuron ratio: 14.5769045186; Ci0 of Dormant neuron ratio: 12.6918949461; Mean of Dormant neuron ratio: 13.684896183" role="graphics-symbol" aria-roledescription="errorband" d="M12.023,318.091C14.027,323.499,16.031,327.206,18.035,331.008C20.039,334.81,22.043,338.707,24.047,342.041C26.05,345.374,28.054,348.143,30.058,350.917C32.062,353.691,34.066,356.47,36.07,358.579C38.074,360.689,40.078,362.129,42.082,363.474C44.086,364.819,46.089,366.069,48.093,367.215C50.097,368.361,52.101,369.402,54.105,370.287C56.109,371.173,58.113,371.902,60.117,372.632C62.121,373.361,64.125,374.09,66.128,374.346C68.132,374.602,70.136,374.385,72.14,374.433C74.144,374.48,76.148,374.793,78.152,375.001C80.156,375.209,82.16,375.314,84.164,375.349C86.167,375.383,88.171,375.348,90.175,375.362C92.179,375.376,94.183,375.439,96.187,375.604C98.191,375.769,100.195,376.035,102.199,376.082C104.203,376.128,106.206,375.955,108.21,376.081C110.214,376.207,112.218,376.633,114.222,376.694C116.226,376.755,118.23,376.451,120.234,376.151C122.238,375.852,124.242,375.557,126.245,375.374C128.249,375.192,130.253,375.122,132.257,375.244C134.261,375.365,136.265,375.678,138.269,375.73C140.273,375.782,142.277,375.574,144.281,375.187C146.284,374.801,148.288,374.237,150.292,373.946C152.296,373.655,154.3,373.638,156.304,373.604C158.308,373.57,160.312,373.519,162.316,373.485C164.319,373.45,166.323,373.433,168.327,373.15C170.331,372.867,172.335,372.319,174.339,372.314C176.343,372.309,178.347,372.847,180.351,372.791C182.355,372.734,184.359,372.083,186.362,371.463C188.366,370.842,190.37,370.252,192.374,369.983C194.378,369.714,196.382,369.766,198.386,369.233C200.39,368.699,202.394,367.579,204.398,366.95C206.401,366.321,208.405,366.181,210.409,366.203C212.413,366.225,214.417,366.407,216.421,366.186C218.425,365.964,220.429,365.339,222.433,364.762C224.437,364.185,226.44,363.655,228.444,363.134C230.448,362.613,232.452,362.101,234.456,361.576C236.46,361.051,238.464,360.513,240.468,360.1C242.472,359.688,244.476,359.402,246.479,359.038C248.483,358.674,250.487,358.232,252.491,357.776C254.495,357.321,256.499,356.851,258.503,356.65C260.507,356.45,262.511,356.519,264.515,356.042C266.518,355.566,268.522,354.543,270.526,353.757C272.53,352.972,274.534,352.424,276.538,351.89C278.542,351.356,280.546,350.835,282.55,350.622C284.554,350.409,286.557,350.504,288.561,350.382C290.565,350.261,292.569,349.923,294.573,349.302C296.577,348.682,298.581,347.779,300.585,347.211C302.589,346.642,304.593,346.408,306.596,346.031C308.6,345.654,310.604,345.133,312.608,344.642C314.612,344.151,316.616,343.691,318.62,343.352C320.624,343.013,322.628,342.796,324.632,342.501C326.635,342.206,328.639,341.832,330.643,341.234C332.647,340.635,334.651,339.81,336.655,339.498C338.659,339.186,340.663,339.386,342.667,339.174C344.671,338.961,346.674,338.336,348.678,338.068C350.682,337.799,352.686,337.887,354.69,337.526C356.694,337.166,358.698,336.357,360.702,335.68C362.706,335.003,364.71,334.457,366.713,334.197C368.717,333.936,370.721,333.96,372.725,333.717C374.729,333.473,376.733,332.962,378.737,332.862C380.741,332.763,382.745,333.075,384.749,332.381C386.752,331.687,388.756,329.986,390.76,328.684C392.764,327.381,394.768,326.477,396.772,325.913C398.776,325.348,400.78,325.122,402.784,324.593C404.787,324.063,406.791,323.23,408.795,322.697C410.799,322.164,412.803,321.93,414.807,321.882C416.811,321.834,418.815,321.972,420.819,321.706C422.823,321.441,424.826,320.773,426.83,320.487C428.834,320.201,430.838,320.298,432.842,319.903C434.846,319.509,436.85,318.622,438.854,318.2C440.858,317.779,442.862,317.822,444.865,317.882C446.869,317.943,448.873,318.022,450.877,317.393C452.881,316.764,454.885,315.428,456.889,314.857C458.893,314.287,460.897,314.482,462.901,314.425C464.904,314.368,466.908,314.06,468.912,313.576C470.916,313.092,472.92,312.432,474.924,311.75C476.928,311.069,478.932,310.365,480.936,309.892C482.94,309.419,484.944,309.177,486.947,308.809C488.951,308.441,490.955,307.949,492.959,307.618C494.963,307.288,496.967,307.121,498.971,307.02C500.975,306.919,502.979,306.885,504.983,306.638C506.986,306.391,508.99,305.933,510.994,305.104C512.998,304.275,515.002,303.075,517.006,302.328C519.01,301.581,521.014,301.287,523.018,301.249C525.022,301.211,527.025,301.429,529.029,300.968C531.033,300.508,533.037,299.369,535.041,298.962C537.045,298.555,539.049,298.88,541.053,298.186C543.057,297.492,545.06,295.778,547.064,295.207C549.068,294.637,551.072,295.21,553.076,295.405C555.08,295.601,557.084,295.42,559.088,295.021C561.092,294.623,563.096,294.007,565.099,293.682C567.103,293.356,569.107,293.32,571.111,293.315C573.115,293.31,575.119,293.335,577.123,293.007C579.127,292.678,581.131,291.994,583.135,291.868C585.139,291.742,587.142,292.173,589.146,292.255L589.146,268.297C587.142,268.123,585.139,267.993,583.135,268.435C581.131,268.878,579.127,269.894,577.123,270.454C575.119,271.014,573.115,271.118,571.111,270.672C569.107,270.225,567.103,269.227,565.099,269.218C563.096,269.209,561.092,270.188,559.088,270.982C557.084,271.776,555.08,272.385,553.076,272.346C551.072,272.308,549.068,271.622,547.064,271.774C545.06,271.925,543.057,272.914,541.053,274.315C539.049,275.717,537.045,277.531,535.041,278.252C533.037,278.972,531.033,278.599,529.029,278.534C527.025,278.47,525.022,278.713,523.018,278.878C521.014,279.042,519.01,279.128,517.006,279.552C515.002,279.977,512.998,280.74,510.994,281.874C508.99,283.008,506.986,284.512,504.983,284.916C502.979,285.321,500.975,284.627,498.971,284.913C496.967,285.199,494.963,286.467,492.959,286.814C490.955,287.161,488.951,286.588,486.947,286.818C484.944,287.049,482.94,288.082,480.936,288.815C478.932,289.548,476.928,289.982,474.924,290.428C472.92,290.875,470.916,291.334,468.912,292.063C466.908,292.793,464.904,293.792,462.901,294.261C460.897,294.73,458.893,294.668,456.889,295.198C454.885,295.727,452.881,296.847,450.877,297.22C448.873,297.593,446.869,297.219,444.865,297.132C442.862,297.046,440.858,297.247,438.854,297.724C436.85,298.201,434.846,298.955,432.842,299.275C430.838,299.596,428.834,299.484,426.83,299.922C424.826,300.36,422.823,301.348,420.819,302.008C418.815,302.668,416.811,302.999,414.807,303.096C412.803,303.192,410.799,303.053,408.795,303.44C406.791,303.826,404.787,304.738,402.784,305.466C400.78,306.195,398.776,306.742,396.772,307.019C394.768,307.296,392.764,307.305,390.76,308.177C388.756,309.048,386.752,310.782,384.749,311.191C382.745,311.599,380.741,310.682,378.737,310.484C376.733,310.286,374.729,310.806,372.725,310.984C370.721,311.161,368.717,310.996,366.713,311.143C364.71,311.29,362.706,311.749,360.702,312.349C358.698,312.948,356.694,313.687,354.69,314.473C352.686,315.26,350.682,316.093,348.678,316.434C346.674,316.775,344.671,316.625,342.667,316.841C340.663,317.057,338.659,317.641,336.655,318.098C334.651,318.554,332.647,318.885,330.643,319.302C328.639,319.719,326.635,320.223,324.632,320.383C322.628,320.543,320.624,320.359,318.62,320.436C316.616,320.512,314.612,320.849,312.608,321.087C310.604,321.326,308.6,321.465,306.596,322.075C304.593,322.685,302.589,323.764,300.585,324.277C298.581,324.79,296.577,324.738,294.573,325.023C292.569,325.309,290.565,325.932,288.561,325.789C286.557,325.645,284.554,324.734,282.55,324.288C280.546,323.842,278.542,323.861,276.538,324.134C274.534,324.408,272.53,324.936,270.526,325.855C268.522,326.775,266.518,328.087,264.515,328.695C262.511,329.303,260.507,329.207,258.503,329.243C256.499,329.278,254.495,329.443,252.491,329.891C250.487,330.338,248.483,331.067,246.479,331.232C244.476,331.397,242.472,330.998,240.468,330.516C238.464,330.034,236.46,329.47,234.456,329.313C232.452,329.156,230.448,329.406,228.444,329.765C226.44,330.124,224.437,330.592,222.433,330.741C220.429,330.889,218.425,330.717,216.421,329.763C214.417,328.81,212.413,327.074,210.409,326.292C208.405,325.51,206.401,325.682,204.398,326.089C202.394,326.497,200.39,327.141,198.386,327.293C196.382,327.446,194.378,327.107,192.374,327.232C190.37,327.356,188.366,327.943,186.362,328.498C184.359,329.052,182.355,329.573,180.351,329.475C178.347,329.377,176.343,328.66,174.339,328.548C172.335,328.437,170.331,328.931,168.327,328.351C166.323,327.772,164.319,326.118,162.316,325.754C160.312,325.389,158.308,326.313,156.304,326.484C154.3,326.655,152.296,326.073,150.292,325.47C148.288,324.867,146.284,324.243,144.281,323.66C142.277,323.078,140.273,322.537,138.269,321.999C136.265,321.46,134.261,320.923,132.257,320.507C130.253,320.091,128.249,319.797,126.245,319.875C124.242,319.954,122.238,320.406,120.234,320.883C118.23,321.361,116.226,321.863,114.222,323.417C112.218,324.971,110.214,327.576,108.21,330.502C106.206,333.428,104.203,336.675,102.199,338.497C100.195,340.32,98.191,340.717,96.187,341.815C94.183,342.913,92.179,344.711,90.175,346.456C88.171,348.202,86.167,349.895,84.164,351.713C82.16,353.531,80.156,355.475,78.152,356.746C76.148,358.018,74.144,358.616,72.14,359.045C70.136,359.474,68.132,359.733,66.128,359.895C64.125,360.056,62.121,360.119,60.117,359.365C58.113,358.611,56.109,357.04,54.105,355.026C52.101,353.012,50.097,350.555,48.093,349.639C46.089,348.723,44.086,349.348,42.082,348.696C40.078,348.044,38.074,346.116,36.07,343.507C34.066,340.898,32.062,337.61,30.058,334.377C28.054,331.144,26.05,327.967,24.047,325.176C22.043,322.385,20.039,319.981,18.035,316.444C16.031,312.906,14.027,308.237,12.023,302.538Z" fill="#E0392D" opacity="0.3"/></g></g><path class="foreground" aria-hidden="true" d="" display="none"/></g><g transform="translate(0,0)"><path class="background" aria-hidden="true" d="M0,0h600v400h-600Z"/><g><g class="mark-area role-mark layer_0_layer_0_marks" clip-path="url(#clip4)" role="graphics-object" aria-roledescription="area mark container"><path aria-label="Timestep: 200.38k; Dormant neuron ratio (%): 18.004516921; upper_Dormant neuron ratio: 19.7428795528; Width: 2048; Ci1 of Dormant neuron ratio: 19.7428795528; Ci0 of Dormant neuron ratio: 18.004516921; Mean of Dormant neuron ratio: 18.8183597565" role="graphics-symbol" aria-roledescription="errorband" d="M12.023,283.904C14.027,291.354,16.031,296.009,18.035,300.6C20.039,305.192,22.043,309.72,24.047,313.588C26.05,317.455,28.054,320.662,30.058,323.064C32.062,325.465,34.066,327.062,36.07,328.305C38.074,329.549,40.078,330.438,42.082,331.131C44.086,331.823,46.089,332.318,48.093,332.887C50.097,333.455,52.101,334.098,54.105,334.443C56.109,334.788,58.113,334.836,60.117,335.055C62.121,335.274,64.125,335.665,66.128,335.576C68.132,335.487,70.136,334.918,72.14,334.298C74.144,333.677,76.148,333.005,78.152,332.063C80.156,331.121,82.16,329.91,84.164,328.807C86.167,327.704,88.171,326.711,90.175,326.062C92.179,325.413,94.183,325.109,96.187,324.699C98.191,324.289,100.195,323.772,102.199,323.071C104.203,322.37,106.206,321.485,108.21,321.235C110.214,320.986,112.218,321.372,114.222,321.186C116.226,320.999,118.23,320.24,120.234,319.483C122.238,318.725,124.242,317.97,126.245,317.542C128.249,317.114,130.253,317.014,132.257,316.793C134.261,316.572,136.265,316.229,138.269,315.849C140.273,315.469,142.277,315.052,144.281,314.445C146.284,313.837,148.288,313.039,150.292,312.247C152.296,311.455,154.3,310.67,156.304,309.932C158.308,309.194,160.312,308.504,162.316,307.555C164.319,306.607,166.323,305.401,168.327,304.188C170.331,302.975,172.335,301.755,174.339,300.818C176.343,299.881,178.347,299.228,180.351,298.356C182.355,297.483,184.359,296.392,186.362,295.201C188.366,294.011,190.37,292.723,192.374,291.66C194.378,290.596,196.382,289.758,198.386,289.129C200.39,288.5,202.394,288.08,204.398,287.448C206.401,286.817,208.405,285.974,210.409,284.836C212.413,283.698,214.417,282.266,216.421,281.129C218.425,279.992,220.429,279.151,222.433,278.299C224.437,277.446,226.44,276.582,228.444,275.912C230.448,275.241,232.452,274.764,234.456,274.154C236.46,273.545,238.464,272.802,240.468,271.687C242.472,270.571,244.476,269.082,246.479,267.997C248.483,266.912,250.487,266.232,252.491,265.328C254.495,264.424,256.499,263.296,258.503,262.389C260.507,261.481,262.511,260.794,264.515,259.605C266.518,258.416,268.522,256.724,270.526,255.591C272.53,254.459,274.534,253.885,276.538,253.5C278.542,253.115,280.546,252.92,282.55,252.335C284.554,251.749,286.557,250.773,288.561,250.002C290.565,249.231,292.569,248.665,294.573,247.809C296.577,246.954,298.581,245.808,300.585,244.272C302.589,242.736,304.593,240.808,306.596,239.543C308.6,238.278,310.604,237.674,312.608,236.724C314.612,235.773,316.616,234.475,318.62,233.627C320.624,232.778,322.628,232.379,324.632,231.565C326.635,230.752,328.639,229.524,330.643,228.808C332.647,228.092,334.651,227.888,336.655,227.517C338.659,227.146,340.663,226.608,342.667,225.673C344.671,224.738,346.674,223.407,348.678,222.547C350.682,221.688,352.686,221.3,354.69,220.865C356.694,220.43,358.698,219.948,360.702,218.668C362.706,217.388,364.71,215.309,366.713,214.142C368.717,212.975,370.721,212.72,372.725,211.687C374.729,210.654,376.733,208.843,378.737,208.445C380.741,208.047,382.745,209.063,384.749,209.671C386.752,210.279,388.756,210.479,390.76,210.191C392.764,209.902,394.768,209.125,396.772,208.315C398.776,207.506,400.78,206.664,402.784,205.768C404.787,204.872,406.791,203.923,408.795,203.062C410.799,202.2,412.803,201.426,414.807,200.678C416.811,199.931,418.815,199.211,420.819,198.361C422.823,197.511,424.826,196.532,426.83,195.434C428.834,194.336,430.838,193.119,432.842,192.433C434.846,191.746,436.85,191.59,438.854,191.679C440.858,191.768,442.862,192.103,444.865,192.028C446.869,191.952,448.873,191.467,450.877,191.031C452.881,190.594,454.885,190.207,456.889,190.007C458.893,189.807,460.897,189.793,462.901,189.307C464.904,188.82,466.908,187.861,468.912,187.066C470.916,186.271,472.92,185.639,474.924,184.747C476.928,183.855,478.932,182.702,480.936,181.562C482.94,180.421,484.944,179.293,486.947,178.182C488.951,177.071,490.955,175.977,492.959,174.912C494.963,173.847,496.967,172.81,498.971,172.345C500.975,171.881,502.979,171.989,504.983,171.708C506.986,171.428,508.99,170.76,510.994,170.038C512.998,169.317,515.002,168.543,517.006,167.844C519.01,167.146,521.014,166.523,523.018,166.569C525.022,166.616,527.025,167.332,529.029,167.996C531.033,168.66,533.037,169.272,535.041,169.561C537.045,169.849,539.049,169.814,541.053,169.821C543.057,169.829,545.06,169.878,547.064,168.974C549.068,168.069,551.072,166.21,553.076,165.589C555.08,164.969,557.084,165.587,559.088,165.446C561.092,165.305,563.096,164.405,565.099,163.9C567.103,163.396,569.107,163.289,571.111,163.456C573.115,163.622,575.119,164.064,577.123,164.003C579.127,163.942,581.131,163.377,583.135,162.62C585.139,161.863,587.142,160.914,589.146,160.396L589.146,135.445C587.142,136.339,585.139,137.53,583.135,138.075C581.131,138.619,579.127,138.515,577.123,138.557C575.119,138.598,573.115,138.785,571.111,139.075C569.107,139.366,567.103,139.761,565.099,140.494C563.096,141.228,561.092,142.299,559.088,142.668C557.084,143.036,555.08,142.702,553.076,143.056C551.072,143.409,549.068,144.452,547.064,144.966C545.06,145.48,543.057,145.467,541.053,145.199C539.049,144.93,537.045,144.406,535.041,144.602C533.037,144.797,531.033,145.712,529.029,146.4C527.025,147.087,525.022,147.547,523.018,147.814C521.014,148.081,519.01,148.154,517.006,148.986C515.002,149.817,512.998,151.405,510.994,152.716C508.99,154.027,506.986,155.06,504.983,155.333C502.979,155.606,500.975,155.119,498.971,155.18C496.967,155.24,494.963,155.849,492.959,156.505C490.955,157.161,488.951,157.864,486.947,158.808C484.944,159.752,482.94,160.937,480.936,161.994C478.932,163.05,476.928,163.979,474.924,164.801C472.92,165.623,470.916,166.338,468.912,166.757C466.908,167.176,464.904,167.299,462.901,167.061C460.897,166.823,458.893,166.224,456.889,166.588C454.885,166.952,452.881,168.279,450.877,169.123C448.873,169.967,446.869,170.327,444.865,170.575C442.862,170.823,440.858,170.958,438.854,171.327C436.85,171.696,434.846,172.3,432.842,172.58C430.838,172.859,428.834,172.815,426.83,173.458C424.826,174.1,422.823,175.429,420.819,176.166C418.815,176.903,416.811,177.049,414.807,177.437C412.803,177.826,410.799,178.457,408.795,179.33C406.791,180.203,404.787,181.318,402.784,182.132C400.78,182.945,398.776,183.457,396.772,184.03C394.768,184.602,392.764,185.236,390.76,185.794C388.756,186.351,386.752,186.832,384.749,186.859C382.745,186.885,380.741,186.456,378.737,186.887C376.733,187.317,374.729,188.605,372.725,189.33C370.721,190.055,368.717,190.216,366.713,190.843C364.71,191.471,362.706,192.565,360.702,193.851C358.698,195.137,356.694,196.616,354.69,197.798C352.686,198.98,350.682,199.865,348.678,200.342C346.674,200.819,344.671,200.888,342.667,202.067C340.663,203.246,338.659,205.534,336.655,206.502C334.651,207.47,332.647,207.117,330.643,207.392C328.639,207.668,326.635,208.573,324.632,209.44C322.628,210.308,320.624,211.137,318.62,211.827C316.616,212.517,314.612,213.068,312.608,213.471C310.604,213.875,308.6,214.13,306.596,214.934C304.593,215.738,302.589,217.092,300.585,218.441C298.581,219.791,296.577,221.135,294.573,222.266C292.569,223.396,290.565,224.313,288.561,225.077C286.557,225.842,284.554,226.456,282.55,227.051C280.546,227.646,278.542,228.223,276.538,228.917C274.534,229.611,272.53,230.423,270.526,231.549C268.522,232.675,266.518,234.116,264.515,235.475C262.511,236.834,260.507,238.11,258.503,239.029C256.499,239.949,254.495,240.511,252.491,241.542C250.487,242.573,248.483,244.073,246.479,245.239C244.476,246.405,242.472,247.239,240.468,248.031C238.464,248.823,236.46,249.574,234.456,250.268C232.452,250.961,230.448,251.598,228.444,252.282C226.44,252.966,224.437,253.696,222.433,254.426C220.429,255.155,218.425,255.884,216.421,256.893C214.417,257.901,212.413,259.19,210.409,260.674C208.405,262.158,206.401,263.838,204.398,264.652C202.394,265.466,200.39,265.414,198.386,266.1C196.382,266.785,194.378,268.208,192.374,269.258C190.37,270.309,188.366,270.986,186.362,271.834C184.359,272.682,182.355,273.7,180.351,274.851C178.347,276.001,176.343,277.284,174.339,278.778C172.335,280.273,170.331,281.978,168.327,283.656C166.323,285.333,164.319,286.983,162.316,288.086C160.312,289.189,158.308,289.745,156.304,290.281C154.3,290.817,152.296,291.333,150.292,291.99C148.288,292.647,146.284,293.446,144.281,293.919C142.277,294.391,140.273,294.539,138.269,295.327C136.265,296.115,134.261,297.543,132.257,298.155C130.253,298.766,128.249,298.563,126.245,298.903C124.242,299.244,122.238,300.13,120.234,300.924C118.23,301.718,116.226,302.421,114.222,302.863C112.218,303.305,110.214,303.486,108.21,304.161C106.206,304.836,104.203,306.005,102.199,306.975C100.195,307.946,98.191,308.719,96.187,309.771C94.183,310.824,92.179,312.157,90.175,313.343C88.171,314.53,86.167,315.571,84.164,316.767C82.16,317.962,80.156,319.313,78.152,320.682C76.148,322.052,74.144,323.441,72.14,324.356C70.136,325.272,68.132,325.714,66.128,325.697C64.125,325.679,62.121,325.202,60.117,324.881C58.113,324.56,56.109,324.395,54.105,324.193C52.101,323.991,50.097,323.752,48.093,323.04C46.089,322.329,44.086,321.144,42.082,320.576C40.078,320.008,38.074,320.056,36.07,318.977C34.066,317.897,32.062,315.691,30.058,312.687C28.054,309.683,26.05,305.882,24.047,301.612C22.043,297.342,20.039,292.602,18.035,287.042C16.031,281.483,14.027,275.103,12.023,267.469Z" fill="#B22B24" opacity="0.3"/></g></g><path class="foreground" aria-hidden="true" d="" display="none"/></g><g transform="translate(0,0)"><path class="background" aria-hidden="true" d="M0,0h600v400h-600Z"/><g><g class="mark-area role-mark layer_0_layer_0_marks" clip-path="url(#clip5)" role="graphics-object" aria-roledescription="area mark container"><path aria-label="Timestep: 200.38k; Dormant neuron ratio (%): 25.6653739081; upper_Dormant neuron ratio: 26.590689479; Width: 4096; Ci1 of Dormant neuron ratio: 26.590689479; Ci0 of Dormant neuron ratio: 25.6653739081; Mean of Dormant neuron ratio: 26.1348020766" role="graphics-symbol" aria-roledescription="errorband" d="M12.023,217.56C14.027,224.46,16.031,230.272,18.035,234.773C20.039,239.275,22.043,242.468,24.047,245.021C26.05,247.573,28.054,249.485,30.058,250.25C32.062,251.015,34.066,250.634,36.07,249.597C38.074,248.561,40.078,246.87,42.082,245.021C44.086,243.172,46.089,241.165,48.093,238.867C50.097,236.568,52.101,233.978,54.105,231.885C56.109,229.792,58.113,228.195,60.117,226.157C62.121,224.118,64.125,221.637,66.128,219.185C68.132,216.733,70.136,214.309,72.14,212.064C74.144,209.819,76.148,207.753,78.152,206.132C80.156,204.511,82.16,203.335,84.164,202.298C86.167,201.262,88.171,200.364,90.175,199.801C92.179,199.238,94.183,199.009,96.187,198.571C98.191,198.134,100.195,197.487,102.199,196.52C104.203,195.553,106.206,194.265,108.21,192.698C110.214,191.131,112.218,189.284,114.222,187.908C116.226,186.532,118.23,185.628,120.234,185.03C122.238,184.432,124.242,184.14,126.245,183.376C128.249,182.613,130.253,181.378,132.257,179.966C134.261,178.555,136.265,176.966,138.269,175.753C140.273,174.54,142.277,173.703,144.281,172.931C146.284,172.158,148.288,171.449,150.292,170.631C152.296,169.814,154.3,168.888,156.304,168.014C158.308,167.139,160.312,166.317,162.316,165.281C164.319,164.244,166.323,162.993,168.327,161.99C170.331,160.987,172.335,160.232,174.339,159.351C176.343,158.471,178.347,157.466,180.351,156.499C182.355,155.532,184.359,154.604,186.362,153.359C188.366,152.113,190.37,150.55,192.374,148.963C194.378,147.376,196.382,145.766,198.386,144.453C200.39,143.14,202.394,142.125,204.398,141.314C206.401,140.503,208.405,139.895,210.409,138.564C212.413,137.233,214.417,135.178,216.421,133.117C218.425,131.055,220.429,128.986,222.433,127.433C224.437,125.88,226.44,124.843,228.444,123.76C230.448,122.676,232.452,121.545,234.456,120.02C236.46,118.495,238.464,116.576,240.468,115.164C242.472,113.752,244.476,112.847,246.479,111.807C248.483,110.766,250.487,109.59,252.491,108.967C254.495,108.344,256.499,108.274,258.503,107.729C260.507,107.184,262.511,106.164,264.515,105.38C266.518,104.597,268.522,104.051,270.526,102.864C272.53,101.678,274.534,99.852,276.538,98.551C278.542,97.25,280.546,96.473,282.55,95.321C284.554,94.168,286.557,92.639,288.561,91.539C290.565,90.438,292.569,89.766,294.573,89.317C296.577,88.867,298.581,88.639,300.585,87.893C302.589,87.146,304.593,85.88,306.596,84.979C308.6,84.078,310.604,83.541,312.608,83.265C314.612,82.989,316.616,82.974,318.62,83.046C320.624,83.118,322.628,83.277,324.632,82.387C326.635,81.498,328.639,79.559,330.643,78.251C332.647,76.943,334.651,76.265,336.655,75.159C338.659,74.054,340.663,72.52,342.667,71.886C344.671,71.252,346.674,71.518,348.678,71.993C350.682,72.468,352.686,73.153,354.69,73.716C356.694,74.28,358.698,74.722,360.702,74.215C362.706,73.708,364.71,72.253,366.713,70.676C368.717,69.099,370.721,67.4,372.725,67C374.729,66.601,376.733,67.5,378.737,67.407C380.741,67.313,382.745,66.228,384.749,64.814C386.752,63.399,388.756,61.655,390.76,59.607C392.764,57.56,394.768,55.209,396.772,53.212C398.776,51.214,400.78,49.569,402.784,49.008C404.787,48.448,406.791,48.971,408.795,49.534C410.799,50.097,412.803,50.701,414.807,50.966C416.811,51.231,418.815,51.158,420.819,51.15C422.823,51.141,424.826,51.198,426.83,50.283C428.834,49.368,430.838,47.481,432.842,46.864C434.846,46.246,436.85,46.897,438.854,47.871C440.858,48.845,442.862,50.142,444.865,50.245C446.869,50.348,448.873,49.256,450.877,48.341C452.881,47.426,454.885,46.689,456.889,46.147C458.893,45.606,460.897,45.26,462.901,45.576C464.904,45.892,466.908,46.868,468.912,46.225C470.916,45.581,472.92,43.316,474.924,41.417C476.928,39.519,478.932,37.985,480.936,36.901C482.94,35.816,484.944,35.18,486.947,35.077C488.951,34.973,490.955,35.403,492.959,35.067C494.963,34.73,496.967,33.626,498.971,32.383C500.975,31.139,502.979,29.755,504.983,28.805C506.986,27.855,508.99,27.339,510.994,26.078C512.998,24.817,515.002,22.811,517.006,21.981C519.01,21.152,521.014,21.499,523.018,21.318C525.022,21.138,527.025,20.429,529.029,19.949C531.033,19.47,533.037,19.218,535.041,18.513C537.045,17.808,539.049,16.648,541.053,15.963C543.057,15.279,545.06,15.069,547.064,14.874C549.068,14.678,551.072,14.497,553.076,14.119C555.08,13.742,557.084,13.168,559.088,12.87C561.092,12.572,563.096,12.551,565.099,12.975C567.103,13.399,569.107,14.27,571.111,14.516C573.115,14.762,575.119,14.384,577.123,14.335C579.127,14.285,581.131,14.564,583.135,14.109C585.139,13.653,587.142,12.462,589.146,12.067L589.146,6.021C587.142,6.329,585.139,6.329,583.135,6.519C581.131,6.709,579.127,7.09,577.123,7.168C575.119,7.246,573.115,7.021,571.111,6.736C569.107,6.45,567.103,6.104,565.099,5.765C563.096,5.425,561.092,5.092,559.088,5.52C557.084,5.948,555.08,7.137,553.076,7.473C551.072,7.81,549.068,7.294,547.064,7.165C545.06,7.036,543.057,7.294,541.053,7.8C539.049,8.307,537.045,9.062,535.041,9.594C533.037,10.127,531.033,10.438,529.029,11.21C527.025,11.982,525.022,13.214,523.018,13.848C521.014,14.482,519.01,14.518,517.006,14.577C515.002,14.635,512.998,14.717,510.994,15.147C508.99,15.577,506.986,16.356,504.983,17.322C502.979,18.288,500.975,19.44,498.971,19.903C496.967,20.367,494.963,20.14,492.959,20.412C490.955,20.683,488.951,21.452,486.947,22.056C484.944,22.66,482.94,23.099,480.936,23.509C478.932,23.919,476.928,24.301,474.924,24.937C472.92,25.573,470.916,26.465,468.912,26.965C466.908,27.465,464.904,27.574,462.901,27.833C460.897,28.092,458.893,28.501,456.889,28.809C454.885,29.117,452.881,29.322,450.877,29.657C448.873,29.991,446.869,30.453,444.865,31.071C442.862,31.688,440.858,32.46,438.854,32.872C436.85,33.285,434.846,33.338,432.842,34.026C430.838,34.714,428.834,36.038,426.83,36.481C424.826,36.923,422.823,36.483,420.819,37.007C418.815,37.53,416.811,39.016,414.807,39.926C412.803,40.837,410.799,41.172,408.795,41.46C406.791,41.749,404.787,41.99,402.784,42.191C400.78,42.392,398.776,42.554,396.772,43.07C394.768,43.585,392.764,44.455,390.76,45.291C388.756,46.127,386.752,46.929,384.749,47.819C382.745,48.709,380.741,49.687,378.737,50.221C376.733,50.754,374.729,50.843,372.725,51.136C370.721,51.43,368.717,51.928,366.713,52.835C364.71,53.742,362.706,55.057,360.702,55.754C358.698,56.45,356.694,56.529,354.69,56.46C352.686,56.391,350.682,56.175,348.678,56.448C346.674,56.721,344.671,57.482,342.667,58.638C340.663,59.795,338.659,61.346,336.655,62.789C334.651,64.231,332.647,65.565,330.643,66.895C328.639,68.226,326.635,69.553,324.632,70.347C322.628,71.141,320.624,71.4,318.62,71.979C316.616,72.558,314.612,73.457,312.608,74.214C310.604,74.972,308.6,75.59,306.596,76.292C304.593,76.994,302.589,77.78,300.585,78.451C298.581,79.123,296.577,79.68,294.573,79.741C292.569,79.803,290.565,79.369,288.561,79.63C286.557,79.891,284.554,80.848,282.55,81.766C280.546,82.683,278.542,83.56,276.538,84.49C274.534,85.42,272.53,86.402,270.526,87.604C268.522,88.806,266.518,90.229,264.515,91.285C262.511,92.341,260.507,93.03,258.503,93.819C256.499,94.607,254.495,95.494,252.491,96.459C250.487,97.423,248.483,98.464,246.479,99.555C244.476,100.647,242.472,101.787,240.468,102.804C238.464,103.82,236.46,104.712,234.456,105.656C232.452,106.6,230.448,107.597,228.444,108.752C226.44,109.907,224.437,111.222,222.433,112.415C220.429,113.609,218.425,114.682,216.421,116.061C214.417,117.44,212.413,119.124,210.409,120.471C208.405,121.817,206.401,122.825,204.398,124.01C202.394,125.194,200.39,126.556,198.386,127.382C196.382,128.208,194.378,128.498,192.374,129.294C190.37,130.09,188.366,131.392,186.362,132.578C184.359,133.765,182.355,134.836,180.351,136.016C178.347,137.195,176.343,138.484,174.339,139.527C172.335,140.571,170.331,141.369,168.327,142.421C166.323,143.473,164.319,144.78,162.316,145.752C160.312,146.725,158.308,147.364,156.304,148.232C154.3,149.1,152.296,150.196,150.292,151.398C148.288,152.6,146.284,153.907,144.281,154.979C142.277,156.05,140.273,156.886,138.269,157.937C136.265,158.988,134.261,160.254,132.257,161.253C130.253,162.251,128.249,162.982,126.245,163.299C124.242,163.616,122.238,163.52,120.234,163.783C118.23,164.046,116.226,164.668,114.222,165.672C112.218,166.677,110.214,168.063,108.21,169.286C106.206,170.509,104.203,171.568,102.199,172.664C100.195,173.76,98.191,174.893,96.187,175.87C94.183,176.847,92.179,177.668,90.175,178.719C88.171,179.77,86.167,181.051,84.164,182.275C82.16,183.499,80.156,184.665,78.152,186.496C76.148,188.326,74.144,190.821,72.14,193.321C70.136,195.821,68.132,198.326,66.128,200.938C64.125,203.549,62.121,206.267,60.117,208.314C58.113,210.361,56.109,211.738,54.105,213.348C52.101,214.959,50.097,216.804,48.093,218.49C46.089,220.177,44.086,221.705,42.082,223.868C40.078,226.031,38.074,228.829,36.07,230.403C34.066,231.978,32.062,232.329,30.058,232.105C28.054,231.881,26.05,231.081,24.047,229.24C22.043,227.399,20.039,224.517,18.035,220.863C16.031,217.208,14.027,212.781,12.023,207.054Z" fill="#7A1F18" opacity="0.3"/></g></g><path class="foreground" aria-hidden="true" d="" display="none"/></g></g><g class="mark-group role-scope layer_1_pathgroup" role="graphics-object" aria-roledescription="group mark container"><g transform="translate(0,0)"><path class="background" aria-hidden="true" d="M0,0h600v400h-600Z"/><g><g class="mark-line role-mark layer_1_marks" clip-path="url(#clip6)" role="graphics-object" aria-roledescription="line mark container"><path aria-label="Timestep: 200.38k; Dormant neuron ratio (%): 9.6875002861; Width: 256" role="graphics-symbol" aria-roledescription="line mark" d="M12.023,333.073C14.027,336.215,16.031,338.785,18.035,341.094C20.039,343.403,22.043,345.451,24.047,347.049C26.05,348.646,28.054,349.792,30.058,350.712C32.062,351.632,34.066,352.326,36.07,353.003C38.074,353.681,40.078,354.34,42.082,355.434C44.086,356.528,46.089,358.056,48.093,359.062C50.097,360.069,52.101,360.556,54.105,361.25C56.109,361.944,58.113,362.847,60.117,363.698C62.121,364.549,64.125,365.347,66.128,365.92C68.132,366.493,70.136,366.84,72.14,366.962C74.144,367.083,76.148,366.979,78.152,367.135C80.156,367.292,82.16,367.708,84.164,368.194C86.167,368.681,88.171,369.236,90.175,369.601C92.179,369.965,94.183,370.139,96.187,370.503C98.191,370.868,100.195,371.424,102.199,371.771C104.203,372.118,106.206,372.257,108.21,372.326C110.214,372.396,112.218,372.396,114.222,372.5C116.226,372.604,118.23,372.812,120.234,372.847C122.238,372.882,124.242,372.743,126.245,372.743C128.249,372.743,130.253,372.882,132.257,372.899C134.261,372.917,136.265,372.812,138.269,372.812C140.273,372.812,142.277,372.917,144.281,372.951C146.284,372.986,148.288,372.951,150.292,373.003C152.296,373.056,154.3,373.194,156.304,373.507C158.308,373.819,160.312,374.306,162.316,374.635C164.319,374.965,166.323,375.139,168.327,375.174C170.331,375.208,172.335,375.104,174.339,375.122C176.343,375.139,178.347,375.278,180.351,375.399C182.355,375.521,184.359,375.625,186.362,375.799C188.366,375.972,190.37,376.215,192.374,376.51C194.378,376.806,196.382,377.153,198.386,377.587C200.39,378.021,202.394,378.542,204.398,378.75C206.401,378.958,208.405,378.854,210.409,378.924C212.413,378.993,214.417,379.236,216.421,379.306C218.425,379.375,220.429,379.271,222.433,379.323C224.437,379.375,226.44,379.583,228.444,379.774C230.448,379.965,232.452,380.139,234.456,380.226C236.46,380.312,238.464,380.312,240.468,380.191C242.472,380.069,244.476,379.826,246.479,379.601C248.483,379.375,250.487,379.167,252.491,379.288C254.495,379.41,256.499,379.861,258.503,380.017C260.507,380.174,262.511,380.035,264.515,379.826C266.518,379.618,268.522,379.34,270.526,379.201C272.53,379.062,274.534,379.062,276.538,379.184C278.542,379.306,280.546,379.549,282.55,379.462C284.554,379.375,286.557,378.958,288.561,378.594C290.565,378.229,292.569,377.917,294.573,377.847C296.577,377.778,298.581,377.951,300.585,377.882C302.589,377.812,304.593,377.5,306.596,377.257C308.6,377.014,310.604,376.84,312.608,376.719C314.612,376.597,316.616,376.528,318.62,376.649C320.624,376.771,322.628,377.083,324.632,377.049C326.635,377.014,328.639,376.632,330.643,376.562C332.647,376.493,334.651,376.736,336.655,376.649C338.659,376.562,340.663,376.146,342.667,376.354C344.671,376.562,346.674,377.396,348.678,377.448C350.682,377.5,352.686,376.771,354.69,376.667C356.694,376.562,358.698,377.083,360.702,377.309C362.706,377.535,364.71,377.465,366.713,377.361C368.717,377.257,370.721,377.118,372.725,377.153C374.729,377.187,376.733,377.396,378.737,377.448C380.741,377.5,382.745,377.396,384.749,377.24C386.752,377.083,388.756,376.875,390.76,376.667C392.764,376.458,394.768,376.25,396.772,376.267C398.776,376.285,400.78,376.528,402.784,377.569C404.787,378.611,406.791,380.451,407.793,380.388C408.795,380.324,408.795,378.356,409.797,377.662C410.799,376.968,412.803,377.546,413.805,377.24C414.807,376.935,414.807,375.744,415.809,375.455C416.811,375.165,418.815,375.777,419.817,375.728C420.819,375.678,420.819,374.967,421.821,375.488C422.823,376.009,424.826,377.761,425.828,377.662C426.83,377.563,426.83,375.612,427.832,375.554C428.834,375.496,430.838,377.331,431.84,377.406C432.842,377.48,432.842,375.794,433.844,376.025C434.846,376.257,436.85,378.406,437.852,378.431C438.854,378.456,438.854,376.356,439.856,376.529C440.858,376.703,442.861,379.15,443.863,379.001C444.865,378.853,444.865,376.108,445.867,376.224C446.869,376.339,448.873,379.315,449.875,379.241C450.877,379.167,450.877,376.042,451.879,375.868C452.881,375.694,454.885,378.472,455.887,378.423C456.889,378.373,456.889,375.496,457.891,375.149C458.893,374.802,460.897,376.984,461.898,377.207C462.9,377.431,462.901,375.694,463.902,375.81C464.904,375.926,466.908,377.894,467.91,377.596C468.912,377.298,468.912,374.735,469.914,374.678C470.916,374.62,472.92,377.067,473.922,377.191C474.924,377.315,474.924,375.116,475.926,375C476.928,374.884,478.932,376.852,479.934,376.951C480.936,377.05,480.936,375.281,481.938,374.818C482.939,374.355,484.943,375.198,485.945,375.248C486.947,375.298,486.947,374.554,487.949,374.611C488.951,374.669,490.955,375.529,491.957,375.231C492.959,374.934,492.959,373.479,493.961,373.768C494.963,374.058,496.967,376.091,497.969,376.389C498.971,376.687,498.971,375.248,499.973,374.959C500.975,374.669,502.978,375.529,503.98,375.43C504.982,375.331,504.982,374.272,505.984,374.33C506.986,374.388,508.99,375.562,509.992,375.562C510.994,375.562,510.994,374.388,511.996,374.909C512.998,375.43,515.002,377.646,516.004,377.745C517.006,377.844,517.006,375.827,518.008,375.537C519.01,375.248,521.014,376.687,522.015,376.538C523.017,376.389,523.018,374.653,524.019,375.174C525.021,375.694,527.025,378.472,528.027,378.241C529.029,378.009,529.029,374.769,530.031,374.213C531.033,373.657,533.037,375.787,534.039,375.949C535.041,376.111,535.041,374.306,536.043,374.097C537.045,373.889,539.049,375.278,540.051,375.486C541.052,375.694,541.053,374.722,542.055,374.479C543.057,374.236,545.06,374.722,546.062,374.375C547.064,374.028,547.064,372.847,548.066,373.16C549.068,373.472,551.072,375.278,552.074,375.104C553.076,374.931,553.076,372.778,554.078,372.604C555.08,372.431,557.084,374.236,558.086,374.271C559.088,374.306,559.088,372.569,560.09,372.674C561.092,372.778,563.095,374.722,564.097,375C565.099,375.278,565.099,373.889,566.101,373.646C567.103,373.403,569.107,374.306,570.109,374.444C571.111,374.583,571.111,373.958,572.113,373.681C573.115,373.403,575.119,373.472,576.121,373.472C577.123,373.472,577.123,373.403,578.125,374.109C579.127,374.815,581.13,376.296,582.132,375.663C583.134,375.029,583.135,372.28,584.136,372.454C585.138,372.627,587.142,375.723,588.144,375.593C589.146,375.463,589.146,372.106,590.148,371.933C591.15,371.759,593.154,374.769,594.156,374.855" stroke="#FF5F33" stroke-width="2"/></g></g><path class="foreground" aria-hidden="true" d="" display="none"/></g><g transform="translate(0,0)"><path class="background" aria-hidden="true" d="M0,0h600v400h-600Z"/><g><g class="mark-line role-mark layer_1_marks" clip-path="url(#clip7)" role="graphics-object" aria-roledescription="line mark container"><path aria-label="Timestep: 200.38k; Dormant neuron ratio (%): 11.0221357346; Width: 512" role="graphics-symbol" aria-roledescription="line mark" d="M12.023,327.552C14.027,332.448,16.031,336.823,18.035,340.139C20.039,343.455,22.043,345.712,24.047,347.613C26.05,349.514,28.054,351.059,30.058,352.578C32.062,354.097,34.066,355.59,36.07,357.04C38.074,358.49,40.078,359.896,42.082,361.285C44.086,362.674,46.089,364.045,48.093,365.373C50.097,366.701,52.101,367.986,54.105,369.036C56.109,370.087,58.113,370.903,60.117,371.745C62.121,372.587,64.125,373.455,66.128,374.193C68.132,374.931,70.136,375.538,72.14,376.05C74.144,376.562,76.148,376.979,78.152,377.387C80.156,377.795,82.16,378.194,84.164,378.611C86.167,379.028,88.171,379.462,90.175,379.67C92.179,379.878,94.183,379.861,96.187,380.165C98.191,380.469,100.195,381.094,102.199,381.328C104.203,381.562,106.206,381.406,108.21,381.606C110.214,381.806,112.218,382.361,114.222,382.795C116.226,383.229,118.23,383.542,120.234,383.646C122.238,383.75,124.242,383.646,126.245,383.568C128.249,383.49,130.253,383.437,132.257,383.594C134.261,383.75,136.265,384.115,138.269,384.245C140.273,384.375,142.277,384.271,144.281,384.34C146.284,384.41,148.288,384.653,150.292,384.661C152.296,384.67,154.3,384.444,156.304,384.262C158.308,384.08,160.312,383.941,162.316,383.95C164.319,383.958,166.323,384.115,168.327,384.21C170.331,384.306,172.335,384.34,174.339,384.175C176.343,384.01,178.347,383.646,180.351,383.559C182.355,383.472,184.359,383.663,186.362,383.542C188.366,383.42,190.37,382.986,192.374,382.83C194.378,382.674,196.382,382.795,198.386,382.656C200.39,382.517,202.394,382.118,204.398,381.806C206.401,381.493,208.405,381.267,210.409,381.259C212.413,381.25,214.417,381.458,216.421,381.415C218.425,381.372,220.429,381.076,222.433,380.981C224.437,380.885,226.44,380.99,228.444,380.885C230.448,380.781,232.452,380.469,234.456,380.286C236.46,380.104,238.464,380.052,240.468,379.957C242.472,379.861,244.476,379.722,246.479,379.661C248.483,379.601,250.487,379.618,252.491,379.523C254.495,379.427,256.499,379.219,258.503,379.002C260.507,378.785,262.511,378.559,264.515,378.446C266.518,378.333,268.522,378.333,270.526,378.22C272.53,378.108,274.534,377.882,276.538,377.778C278.542,377.674,280.546,377.691,282.55,377.622C284.554,377.552,286.557,377.396,288.561,377.448C290.565,377.5,292.569,377.76,294.573,377.717C296.577,377.674,298.581,377.326,300.585,377.248C302.589,377.17,304.593,377.361,306.596,377.231C308.6,377.101,310.604,376.649,312.608,376.233C314.612,375.816,316.616,375.434,318.62,375.243C320.624,375.052,322.628,375.052,324.632,374.722C326.635,374.392,328.639,373.733,330.643,373.481C332.647,373.229,334.651,373.385,336.655,373.394C338.659,373.403,340.663,373.264,342.667,373.056C344.671,372.847,346.674,372.569,348.678,372.214C350.682,371.858,352.686,371.424,354.69,370.877C356.694,370.33,358.698,369.67,360.702,369.444C362.706,369.219,364.71,369.427,366.713,369.653C368.717,369.878,370.721,370.122,372.725,370.243C374.729,370.365,376.733,370.365,378.737,370.191C380.741,370.017,382.745,369.67,384.749,369.34C386.752,369.01,388.756,368.698,390.76,368.446C392.764,368.194,394.768,368.003,396.772,367.821C398.776,367.639,400.78,367.465,402.784,367.448C404.787,367.431,406.791,367.569,408.795,367.526C410.799,367.483,412.803,367.257,414.807,366.727C416.811,366.198,418.815,365.365,420.819,365.182C422.823,365,424.826,365.469,426.83,365.59C428.834,365.712,430.838,365.486,432.842,365.408C434.846,365.33,436.85,365.399,438.854,365.391C440.858,365.382,442.862,365.295,444.865,365.321C446.869,365.347,448.873,365.486,450.877,365.295C452.881,365.104,454.885,364.583,456.889,364.41C458.893,364.236,460.897,364.41,462.901,364.245C464.904,364.08,466.908,363.576,468.912,363.247C470.916,362.917,472.92,362.76,474.924,362.648C476.928,362.535,478.932,362.465,480.936,362.344C482.94,362.222,484.944,362.049,486.947,361.806C488.951,361.562,490.955,361.25,492.959,360.955C494.963,360.66,496.967,360.382,498.971,360.087C500.975,359.792,502.979,359.479,504.983,359.253C506.986,359.028,508.99,358.889,510.994,358.733C512.998,358.576,515.002,358.403,517.006,358.307C519.01,358.212,521.014,358.194,523.018,358.151C525.022,358.108,527.025,358.038,529.029,358.056C531.033,358.073,533.037,358.177,535.041,358.038C537.045,357.899,539.049,357.517,541.053,357.3C543.057,357.083,545.06,357.031,547.064,356.788C549.068,356.545,551.072,356.111,553.076,355.981C555.08,355.851,557.084,356.024,559.088,355.738C561.092,355.451,563.096,354.705,565.099,354.193C567.103,353.681,569.107,353.403,571.111,353.247C573.115,353.09,575.119,353.056,577.123,353.22C579.127,353.385,581.131,353.75,583.135,353.906C585.139,354.062,587.142,354.01,589.146,353.811" stroke="#FF4B33" stroke-width="2"/></g></g><path class="foreground" aria-hidden="true" d="" display="none"/></g><g transform="translate(0,0)"><path class="background" aria-hidden="true" d="M0,0h600v400h-600Z"/><g><g class="mark-line role-mark layer_1_marks" clip-path="url(#clip8)" role="graphics-object" aria-roledescription="line mark container"><path aria-label="Timestep: 200.38k; Dormant neuron ratio (%): 13.684896183; Width: 1024" role="graphics-symbol" aria-roledescription="line mark" d="M12.023,310.148C14.027,315.816,16.031,320.174,18.035,324.149C20.039,328.125,22.043,331.719,24.047,334.974C26.05,338.229,28.054,341.146,30.058,344.054C32.062,346.962,34.066,349.861,36.07,352.127C38.074,354.392,40.078,356.024,42.082,356.962C44.086,357.899,46.089,358.142,48.093,359.149C50.097,360.156,52.101,361.927,54.105,363.286C56.109,364.644,58.113,365.59,60.117,366.319C62.121,367.049,64.125,367.561,66.128,367.743C68.132,367.925,70.136,367.778,72.14,367.708C74.144,367.639,76.148,367.648,78.152,367.452C80.156,367.257,82.16,366.858,84.164,366.267C86.167,365.677,88.171,364.896,90.175,364.384C92.179,363.872,94.183,363.628,96.187,363.451C98.191,363.273,100.195,363.16,102.199,362.496C104.203,361.832,106.206,360.616,108.21,359.709C110.214,358.802,112.218,358.203,114.222,357.626C116.226,357.049,118.23,356.493,120.234,355.981C122.238,355.469,124.242,355,126.245,354.792C128.249,354.583,130.253,354.635,132.257,354.848C134.261,355.061,136.265,355.434,138.269,355.725C140.273,356.016,142.277,356.224,144.281,356.155C146.284,356.085,148.288,355.738,150.292,355.677C152.296,355.616,154.3,355.842,156.304,355.768C158.308,355.694,160.312,355.321,162.316,355.308C164.319,355.295,166.323,355.642,168.327,355.694C170.331,355.747,172.335,355.503,174.339,355.499C176.343,355.495,178.347,355.729,180.351,355.599C182.355,355.469,184.359,354.974,186.362,354.579C188.366,354.184,190.37,353.889,192.374,353.75C194.378,353.611,196.382,353.628,198.386,353.312C200.39,352.995,202.394,352.344,204.398,351.858C206.401,351.372,208.405,351.05,210.409,351.246C212.413,351.441,214.417,352.153,216.421,352.279C218.425,352.405,220.429,351.944,222.433,351.45C224.437,350.955,226.44,350.425,228.444,349.952C230.448,349.479,232.452,349.062,234.456,348.806C236.46,348.55,238.464,348.455,240.468,348.355C242.472,348.255,244.476,348.151,246.479,347.891C248.483,347.63,250.487,347.214,252.491,346.784C254.495,346.354,256.499,345.911,258.503,345.699C260.507,345.486,262.511,345.503,264.515,345.035C266.518,344.566,268.522,343.611,270.526,342.882C272.53,342.153,274.534,341.649,276.538,341.102C278.542,340.556,280.546,339.965,282.55,339.709C284.554,339.453,286.557,339.531,288.561,339.484C290.565,339.436,292.569,339.262,294.573,338.859C296.577,338.455,298.581,337.821,300.585,337.24C302.589,336.658,304.593,336.128,306.596,335.66C308.6,335.191,310.604,334.783,312.608,334.293C314.612,333.802,316.616,333.229,318.62,332.904C320.624,332.578,322.628,332.5,324.632,332.283C326.635,332.066,328.639,331.71,330.643,331.215C332.647,330.72,334.651,330.087,336.655,329.792C338.659,329.497,340.663,329.54,342.667,329.297C344.671,329.054,346.674,328.524,348.678,328.147C350.682,327.769,352.686,327.543,354.69,327.109C356.694,326.675,358.698,326.033,360.702,325.434C362.706,324.835,364.71,324.28,366.713,323.932C368.717,323.585,370.721,323.446,372.725,323.177C374.729,322.908,376.733,322.509,378.737,322.539C380.741,322.569,382.745,323.03,384.749,322.483C386.752,321.936,388.756,320.382,390.76,319.327C392.764,318.273,394.768,317.717,396.772,317.183C398.776,316.649,400.78,316.137,402.784,315.499C404.787,314.861,406.791,314.097,408.795,313.711C410.799,313.325,412.803,313.316,414.807,313.234C416.811,313.151,418.815,312.995,420.819,312.439C422.823,311.884,424.826,310.929,426.83,310.595C428.834,310.26,430.838,310.547,432.842,310.178C434.846,309.809,436.85,308.785,438.854,308.134C440.858,307.483,442.862,307.205,444.865,307.227C446.869,307.248,448.873,307.569,450.877,307.118C452.881,306.667,454.885,305.443,456.889,304.913C458.893,304.384,460.897,304.549,462.901,304.327C464.904,304.106,466.908,303.498,468.912,302.873C470.916,302.248,472.92,301.606,474.924,300.959C476.928,300.312,478.932,299.661,480.936,299.128C482.94,298.594,484.944,298.177,486.947,297.917C488.951,297.656,490.955,297.552,492.959,297.253C494.963,296.953,496.967,296.458,498.971,296.306C500.975,296.155,502.979,296.345,504.983,295.894C506.986,295.443,508.99,294.349,510.994,293.446C512.998,292.543,515.002,291.832,517.006,291.328C519.01,290.825,521.014,290.53,523.018,290.49C525.022,290.451,527.025,290.668,529.029,290.425C531.033,290.182,533.037,289.479,535.041,288.694C537.045,287.908,539.049,287.04,541.053,286.111C543.057,285.182,545.06,284.193,547.064,283.841C549.068,283.49,551.072,283.776,553.076,283.741C555.08,283.707,557.084,283.351,559.088,282.756C561.092,282.161,563.096,281.328,565.099,281.102C567.103,280.877,569.107,281.259,571.111,281.506C573.115,281.753,575.119,281.866,577.123,281.536C579.127,281.207,581.131,280.434,583.135,280.065C585.139,279.696,587.142,279.731,589.146,279.766" stroke="#E0392D" stroke-width="2"/></g></g><path class="foreground" aria-hidden="true" d="" display="none"/></g><g transform="translate(0,0)"><path class="background" aria-hidden="true" d="M0,0h600v400h-600Z"/><g><g class="mark-line role-mark layer_1_marks" clip-path="url(#clip9)" role="graphics-object" aria-roledescription="line mark container"><path aria-label="Timestep: 200.38k; Dormant neuron ratio (%): 18.8183597565; Width: 2048" role="graphics-symbol" aria-roledescription="line mark" d="M12.023,275.935C14.027,283.424,16.031,288.906,18.035,293.917C20.039,298.928,22.043,303.468,24.047,307.587C26.05,311.706,28.054,315.404,30.058,318.184C32.062,320.964,34.066,322.826,36.07,324.052C38.074,325.278,40.078,325.868,42.082,326.586C44.086,327.305,46.089,328.151,48.093,328.711C50.097,329.271,52.101,329.544,54.105,329.768C56.109,329.991,58.113,330.165,60.117,330.339C62.121,330.512,64.125,330.686,66.128,330.538C68.132,330.391,70.136,329.922,72.14,329.219C74.144,328.516,76.148,327.578,78.152,326.493C80.156,325.408,82.16,324.175,84.164,323.049C86.167,321.923,88.171,320.903,90.175,319.998C92.179,319.093,94.183,318.303,96.187,317.539C98.191,316.775,100.195,316.037,102.199,315.286C104.203,314.536,106.206,313.772,108.21,313.429C110.214,313.086,112.218,313.164,114.222,312.756C116.226,312.348,118.23,311.454,120.234,310.72C122.238,309.987,124.242,309.414,126.245,309.026C128.249,308.637,130.253,308.433,132.257,307.925C134.261,307.418,136.265,306.606,138.269,306.072C140.273,305.538,142.277,305.282,144.281,304.8C146.284,304.319,148.288,303.611,150.292,302.984C152.296,302.357,154.3,301.81,156.304,301.098C158.308,300.386,160.312,299.51,162.316,298.357C164.319,297.205,166.323,295.777,168.327,294.286C170.331,292.795,172.335,291.241,174.339,289.933C176.343,288.624,178.347,287.561,180.351,286.595C182.355,285.629,184.359,284.761,186.362,283.783C188.366,282.804,190.37,281.714,192.374,280.642C194.378,279.57,196.382,278.516,198.386,277.83C200.39,277.144,202.394,276.827,204.398,276.118C206.401,275.408,208.405,274.306,210.409,273.006C212.413,271.706,214.417,270.208,216.421,269.058C218.425,267.908,220.429,267.105,222.433,266.374C224.437,265.642,226.44,264.983,228.444,264.312C230.448,263.641,232.452,262.96,234.456,262.376C236.46,261.793,238.464,261.306,240.468,260.347C242.472,259.388,244.476,257.956,246.479,256.684C248.483,255.412,250.487,254.301,252.491,253.303C254.495,252.305,256.499,251.419,258.503,250.508C260.507,249.596,262.511,248.659,264.515,247.407C266.518,246.155,268.522,244.588,270.526,243.498C272.53,242.409,274.534,241.797,276.538,241.246C278.542,240.694,280.546,240.204,282.55,239.64C284.554,239.076,286.557,238.437,288.561,237.611C290.565,236.784,292.569,235.768,294.573,234.657C296.577,233.546,298.581,232.339,300.585,230.957C302.589,229.575,304.593,228.016,306.596,227.101C308.6,226.185,310.604,225.911,312.608,225.284C314.612,224.657,316.616,223.676,318.62,222.869C320.624,222.062,322.628,221.428,324.632,220.647C326.635,219.865,328.639,218.937,330.643,218.362C332.647,217.786,334.651,217.565,336.655,216.78C338.659,215.994,340.663,214.644,342.667,213.626C344.671,212.609,346.674,211.923,348.678,211.263C350.682,210.603,352.686,209.97,354.69,209.188C356.694,208.407,358.698,207.478,360.702,206.302C362.706,205.126,364.71,203.702,366.713,202.843C368.717,201.984,370.721,201.688,372.725,200.788C374.729,199.887,376.733,198.381,378.737,197.958C380.741,197.535,382.745,198.194,384.749,198.327C386.752,198.459,388.756,198.064,390.76,197.5C392.764,196.936,394.768,196.202,396.772,195.523C398.776,194.844,400.78,194.219,402.784,193.461C404.787,192.704,406.791,191.814,408.795,191.126C410.799,190.438,412.803,189.952,414.807,189.434C416.811,188.915,418.815,188.364,420.819,187.48C422.823,186.597,424.826,185.382,426.83,184.403C428.834,183.424,430.838,182.682,432.842,182.316C434.846,181.949,436.85,181.957,438.854,181.938C440.858,181.918,442.862,181.871,444.865,181.643C446.869,181.415,448.873,181.007,450.877,180.321C452.881,179.635,454.885,178.672,456.889,178.22C458.893,177.769,460.897,177.83,462.901,177.695C464.904,177.561,466.908,177.231,468.912,176.678C470.916,176.124,472.92,175.347,474.924,174.531C476.928,173.715,478.932,172.86,480.936,171.842C482.94,170.825,484.944,169.644,486.947,168.652C488.951,167.661,490.955,166.858,492.959,166.059C494.963,165.26,496.967,164.466,498.971,164.199C500.975,163.932,502.979,164.193,504.983,163.806C506.986,163.42,508.99,162.387,510.994,161.424C512.998,160.46,515.002,159.566,517.006,158.859C519.01,158.151,521.014,157.63,523.018,157.465C525.022,157.3,527.025,157.491,529.029,157.431C531.033,157.37,533.037,157.057,535.041,156.895C537.045,156.732,539.049,156.719,541.053,156.775C543.057,156.832,545.06,156.957,547.064,156.504C549.068,156.05,551.072,155.017,553.076,154.444C555.08,153.872,557.084,153.759,559.088,153.294C561.092,152.83,563.096,152.014,565.099,151.595C567.103,151.176,569.107,151.155,571.111,151.089C573.115,151.024,575.119,150.916,577.123,150.755C579.127,150.595,581.131,150.382,583.135,149.789C585.139,149.197,587.142,148.225,589.146,147.563" stroke="#B22B24" stroke-width="2"/></g></g><path class="foreground" aria-hidden="true" d="" display="none"/></g><g transform="translate(0,0)"><path class="background" aria-hidden="true" d="M0,0h600v400h-600Z"/><g><g class="mark-line role-mark layer_1_marks" clip-path="url(#clip10)" role="graphics-object" aria-roledescription="line mark container"><path aria-label="Timestep: 200.38k; Dormant neuron ratio (%): 26.1348020766; Width: 4096" role="graphics-symbol" aria-roledescription="line mark" d="M12.023,212.199C14.027,218.526,16.031,223.705,18.035,227.752C20.039,231.8,22.043,234.715,24.047,236.939C26.05,239.164,28.054,240.697,30.058,241.276C32.062,241.855,34.066,241.479,36.07,240.183C38.074,238.886,40.078,236.671,42.082,234.773C44.086,232.875,46.089,231.296,48.093,229.282C50.097,227.269,52.101,224.822,54.105,222.83C56.109,220.838,58.113,219.302,60.117,217.314C62.121,215.326,64.125,212.886,66.128,210.485C68.132,208.085,70.136,205.724,72.14,203.47C74.144,201.215,76.148,199.067,78.152,197.413C80.156,195.759,82.16,194.599,84.164,193.521C86.167,192.443,88.171,191.447,90.175,190.449C92.179,189.451,94.183,188.45,96.187,187.554C98.191,186.658,100.195,185.868,102.199,184.948C104.203,184.028,106.206,182.979,108.21,181.707C110.214,180.435,112.218,178.94,114.222,177.873C116.226,176.806,118.23,176.167,120.234,175.731C122.238,175.294,124.242,175.06,126.245,174.513C128.249,173.966,130.253,173.105,132.257,171.945C134.261,170.785,136.265,169.326,138.269,168.164C140.273,167.002,142.277,166.136,144.281,165.168C146.284,164.2,148.288,163.129,150.292,162.048C152.296,160.966,154.3,159.874,156.304,159.066C158.308,158.259,160.312,157.735,162.316,156.94C164.319,156.144,166.323,155.076,168.327,154.051C170.331,153.026,172.335,152.045,174.339,151.014C176.343,149.983,178.347,148.903,180.351,147.905C182.355,146.906,184.359,145.99,186.362,144.683C188.366,143.376,190.37,141.679,192.374,140.292C194.378,138.906,196.382,137.83,198.386,136.841C200.39,135.851,202.394,134.946,204.398,134.053C206.401,133.16,208.405,132.277,210.409,130.947C212.413,129.618,214.417,127.84,216.421,126.124C218.425,124.407,220.429,122.75,222.433,121.265C224.437,119.78,226.44,118.465,228.444,117.339C230.448,116.213,232.452,115.275,234.456,114.069C236.46,112.862,238.464,111.386,240.468,110.168C242.472,108.951,244.476,107.991,246.479,106.864C248.483,105.736,250.487,104.442,252.491,103.587C254.495,102.732,256.499,102.317,258.503,101.739C260.507,101.16,262.511,100.417,264.515,99.589C266.518,98.761,268.522,97.847,270.526,96.622C272.53,95.397,274.534,93.861,276.538,92.603C278.542,91.346,280.546,90.367,282.55,89.278C284.554,88.19,286.557,86.991,288.561,86.216C290.565,85.441,292.569,85.089,294.573,84.638C296.577,84.187,298.581,83.637,300.585,82.89C302.589,82.142,304.593,81.197,306.596,80.496C308.6,79.796,310.604,79.34,312.608,78.787C314.612,78.233,316.616,77.582,318.62,77.215C320.624,76.847,322.628,76.763,324.632,75.968C326.635,75.174,328.639,73.669,330.643,72.424C332.647,71.178,334.651,70.192,336.655,69.047C338.659,67.901,340.663,66.597,342.667,65.707C344.671,64.817,346.674,64.342,348.678,64.277C350.682,64.212,352.686,64.557,354.69,64.745C356.694,64.933,358.698,64.964,360.702,64.357C362.706,63.749,364.71,62.502,366.713,61.29C368.717,60.077,370.721,58.898,372.725,58.462C374.729,58.027,376.733,58.336,378.737,57.946C380.741,57.557,382.745,56.469,384.749,55.333C386.752,54.196,388.756,53.009,390.76,51.798C392.764,50.586,394.768,49.349,396.772,48.24C398.776,47.131,400.78,46.149,402.784,45.756C404.787,45.363,406.791,45.558,408.795,45.675C410.799,45.792,412.803,45.831,414.807,45.481C416.811,45.132,418.815,44.394,420.819,44.106C422.823,43.818,424.826,43.979,426.83,43.345C428.834,42.711,430.838,41.281,432.842,40.633C434.846,39.986,436.85,40.121,438.854,40.116C440.858,40.111,442.862,39.967,444.865,39.541C446.869,39.116,448.873,38.409,450.877,37.671C452.881,36.933,454.885,36.164,456.889,35.597C458.893,35.031,460.897,34.667,462.901,34.639C464.904,34.611,466.908,34.92,468.912,34.45C470.916,33.98,472.92,32.731,474.924,31.777C476.928,30.823,478.932,30.165,480.936,29.496C482.94,28.827,484.944,28.147,486.947,27.792C488.951,27.438,490.955,27.409,492.959,27.201C494.963,26.994,496.967,26.608,498.971,25.832C500.975,25.055,502.979,23.888,504.983,23.017C506.986,22.145,508.99,21.569,510.994,20.796C512.998,20.023,515.002,19.054,517.006,18.638C519.01,18.222,521.014,18.359,523.018,17.881C525.022,17.402,527.025,16.307,529.029,15.636C531.033,14.964,533.037,14.716,535.041,14.078C537.045,13.44,539.049,12.413,541.053,11.832C543.057,11.251,545.06,11.116,547.064,11.123C549.068,11.13,551.072,11.28,553.076,10.906C555.08,10.532,557.084,9.635,559.088,9.244C561.092,8.852,563.096,8.965,565.099,9.277C567.103,9.59,569.107,10.101,571.111,10.362C573.115,10.624,575.119,10.636,577.123,10.575C579.127,10.513,581.131,10.378,583.135,10.067C585.139,9.756,587.142,9.269,589.146,8.963" stroke="#7A1F18" stroke-width="2"/></g></g><path class="foreground" aria-hidden="true" d="" display="none"/></g></g><g class="mark-group role-legend" role="graphics-symbol" aria-roledescription="legend" aria-label="Symbol legend titled 'Width' for fill color and stroke color with 5 values: 256, 512, 1024, 2048, 4096"><g transform="translate(618,0)"><path class="background" aria-hidden="true" d="M0,0h46v99h-46Z" pointer-events="none"/><g><g class="mark-group role-legend-entry"><g transform="translate(0,21)"><path class="background" aria-hidden="true" d="M0,0h0v0h0Z" pointer-events="none"/><g><g class="mark-group role-scope" role="graphics-object" aria-roledescription="group mark container"><g transform="translate(0,0)"><path class="background" aria-hidden="true" d="M0,0h46v14h-46Z" pointer-events="none" opacity="1"/><g><g class="mark-symbol role-legend-symbol" pointer-events="none"><path transform="translate(7,7)" d="M5,0A5,5,0,1,1,-5,0A5,5,0,1,1,5,0" fill="#FF5F33" stroke="#FF5F33" stroke-width="1.5" opacity="0.3"/></g><g class="mark-text role-legend-label" pointer-events="none"><text text-anchor="start" transform="translate(18,11)" font-family="Times New Roman" font-size="14px" fill="#000" opacity="1">256</text></g></g><path class="foreground" aria-hidden="true" d="" pointer-events="none" display="none"/></g><g transform="translate(0,16)"><path class="background" aria-hidden="true" d="M0,0h46v14h-46Z" pointer-events="none" opacity="1"/><g><g class="mark-symbol role-legend-symbol" pointer-events="none"><path transform="translate(7,7)" d="M5,0A5,5,0,1,1,-5,0A5,5,0,1,1,5,0" fill="#FF4B33" stroke="#FF4B33" stroke-width="1.5" opacity="0.3"/></g><g class="mark-text role-legend-label" pointer-events="none"><text text-anchor="start" transform="translate(18,11)" font-family="Times New Roman" font-size="14px" fill="#000" opacity="1">512</text></g></g><path class="foreground" aria-hidden="true" d="" pointer-events="none" display="none"/></g><g transform="translate(0,32)"><path class="background" aria-hidden="true" d="M0,0h46v14h-46Z" pointer-events="none" opacity="1"/><g><g class="mark-symbol role-legend-symbol" pointer-events="none"><path transform="translate(7,7)" d="M5,0A5,5,0,1,1,-5,0A5,5,0,1,1,5,0" fill="#E0392D" stroke="#E0392D" stroke-width="1.5" opacity="0.3"/></g><g class="mark-text role-legend-label" pointer-events="none"><text text-anchor="start" transform="translate(18,11)" font-family="Times New Roman" font-size="14px" fill="#000" opacity="1">1024</text></g></g><path class="foreground" aria-hidden="true" d="" pointer-events="none" display="none"/></g><g transform="translate(0,48)"><path class="background" aria-hidden="true" d="M0,0h46v14h-46Z" pointer-events="none" opacity="1"/><g><g class="mark-symbol role-legend-symbol" pointer-events="none"><path transform="translate(7,7)" d="M5,0A5,5,0,1,1,-5,0A5,5,0,1,1,5,0" fill="#B22B24" stroke="#B22B24" stroke-width="1.5" opacity="0.3"/></g><g class="mark-text role-legend-label" pointer-events="none"><text text-anchor="start" transform="translate(18,11)" font-family="Times New Roman" font-size="14px" fill="#000" opacity="1">2048</text></g></g><path class="foreground" aria-hidden="true" d="" pointer-events="none" display="none"/></g><g transform="translate(0,64)"><path class="background" aria-hidden="true" d="M0,0h46v14h-46Z" pointer-events="none" opacity="1"/><g><g class="mark-symbol role-legend-symbol" pointer-events="none"><path transform="translate(7,7)" d="M5,0A5,5,0,1,1,-5,0A5,5,0,1,1,5,0" fill="#7A1F18" stroke="#7A1F18" stroke-width="1.5" opacity="0.3"/></g><g class="mark-text role-legend-label" pointer-events="none"><text text-anchor="start" transform="translate(18,11)" font-family="Times New Roman" font-size="14px" fill="#000" opacity="1">4096</text></g></g><path class="foreground" aria-hidden="true" d="" pointer-events="none" display="none"/></g></g></g><path class="foreground" aria-hidden="true" d="" pointer-events="none" display="none"/></g></g><g class="mark-text role-legend-title" pointer-events="none"><text text-anchor="start" transform="translate(0,13)" font-family="Times New Roman" font-size="16px" font-weight="bold" fill="#000" opacity="1">Width</text></g></g><path class="foreground" aria-hidden="true" d="" pointer-events="none" display="none"/></g></g><g class="mark-group role-title"><g transform="translate(300,-31)"><path class="background" aria-hidden="true" d="M0,0h0v0h0Z" pointer-events="none"/><g><g class="mark-text role-title-text" role="graphics-symbol" aria-roledescription="title" aria-label="Title text 'Dormant neuron ratio throughout training across different scales for MT10'" pointer-events="none"><text text-anchor="middle" transform="translate(0,16)" font-family="Times New Roman" font-size="20px" font-weight="bold" fill="#000" opacity="1">Dormant neuron ratio throughout training across different scales for MT10</text></g></g><path class="foreground" aria-hidden="true" d="" pointer-events="none" display="none"/></g></g></g><path class="foreground" aria-hidden="true" d="" display="none"/></g></g></g><defs><clipPath id="clip1"><rect x="0" y="0" width="600" height="400"/></clipPath><clipPath id="clip2"><rect x="0" y="0" width="600" height="400"/></clipPath><clipPath id="clip3"><rect x="0" y="0" width="600" height="400"/></clipPath><clipPath id="clip4"><rect x="0" y="0" width="600" height="400"/></clipPath><clipPath id="clip5"><rect x="0" y="0" width="600" height="400"/></clipPath><clipPath id="clip6"><rect x="0" y="0" width="600" height="400"/></clipPath><clipPath id="clip7"><rect x="0" y="0" width="600" height="400"/></clipPath><clipPath id="clip8"><rect x="0" y="0" width="600" height="400"/></clipPath><clipPath id="clip9"><rect x="0" y="0" width="600" height="400"/></clipPath><clipPath id="clip10"><rect x="0" y="0" width="600" height="400"/></clipPath></defs></svg>