<svg xmlns="http://www.w3.org/2000/svg" xmlns:xlink="http://www.w3.org/1999/xlink" version="1.1" class="marks" width="715" height="458" viewBox="0 0 715 458"><rect width="715" height="458" fill="white"/><g fill="none" stroke-miterlimit="10" transform="translate(46,12)"><g class="mark-group role-frame root" role="graphics-object" aria-roledescription="group mark container"><g transform="translate(0,0)"><path class="background" aria-hidden="true" d="M0.5,0.5h600v400h-600Z" stroke="#ddd"/><g><g class="mark-group role-axis" aria-hidden="true"><g transform="translate(0.5,400.5)"><path class="background" aria-hidden="true" d="M0,0h0v0h0Z" pointer-events="none"/><g><g class="mark-rule role-axis-grid" pointer-events="none"><line transform="translate(0,-400)" x2="0" y2="400" stroke="#ddd" stroke-width="1" opacity="1"/><line transform="translate(30,-400)" x2="0" y2="400" stroke="#ddd" stroke-width="1" opacity="1"/><line transform="translate(60,-400)" x2="0" y2="400" stroke="#ddd" stroke-width="1" opacity="1"/><line transform="translate(90,-400)" x2="0" y2="400" stroke="#ddd" stroke-width="1" opacity="1"/><line transform="translate(120,-400)" x2="0" y2="400" stroke="#ddd" stroke-width="1" opacity="1"/><line transform="translate(150,-400)" x2="0" y2="400" stroke="#ddd" stroke-width="1" opacity="1"/><line transform="translate(180,-400)" x2="0" y2="400" stroke="#ddd" stroke-width="1" opacity="1"/><line transform="translate(210,-400)" x2="0" y2="400" stroke="#ddd" stroke-width="1" opacity="1"/><line transform="translate(240,-400)" x2="0" y2="400" stroke="#ddd" stroke-width="1" opacity="1"/><line transform="translate(270,-400)" x2="0" y2="400" stroke="#ddd" stroke-width="1" opacity="1"/><line transform="translate(300,-400)" x2="0" y2="400" stroke="#ddd" stroke-width="1" opacity="1"/><line transform="translate(330,-400)" x2="0" y2="400" stroke="#ddd" stroke-width="1" opacity="1"/><line transform="translate(360,-400)" x2="0" y2="400" stroke="#ddd" stroke-width="1" opacity="1"/><line transform="translate(390,-400)" x2="0" y2="400" stroke="#ddd" stroke-width="1" opacity="1"/><line transform="translate(420,-400)" x2="0" y2="400" stroke="#ddd" stroke-width="1" opacity="1"/><line transform="translate(450,-400)" x2="0" y2="400" stroke="#ddd" stroke-width="1" opacity="1"/><line transform="translate(480,-400)" x2="0" y2="400" stroke="#ddd" stroke-width="1" opacity="1"/><line transform="translate(510,-400)" x2="0" y2="400" stroke="#ddd" stroke-width="1" opacity="1"/><line transform="translate(540,-400)" x2="0" y2="400" stroke="#ddd" stroke-width="1" opacity="1"/><line transform="translate(570,-400)" x2="0" y2="400" stroke="#ddd" stroke-width="1" opacity="1"/><line transform="translate(600,-400)" x2="0" y2="400" stroke="#ddd" stroke-width="1" opacity="1"/></g></g><path class="foreground" aria-hidden="true" d="" pointer-events="none" display="none"/></g></g><g class="mark-group role-axis" aria-hidden="true"><g transform="translate(0.5,0.5)"><path class="background" aria-hidden="true" d="M0,0h0v0h0Z" pointer-events="none"/><g><g class="mark-rule role-axis-grid" pointer-events="none"><line transform="translate(0,400)" x2="600" y2="0" stroke="#ddd" stroke-width="1" opacity="1"/><line transform="translate(0,360)" x2="600" y2="0" stroke="#ddd" stroke-width="1" opacity="1"/><line transform="translate(0,320)" x2="600" y2="0" stroke="#ddd" stroke-width="1" opacity="1"/><line transform="translate(0,280)" x2="600" y2="0" stroke="#ddd" stroke-width="1" opacity="1"/><line transform="translate(0,240)" x2="600" y2="0" stroke="#ddd" stroke-width="1" opacity="1"/><line transform="translate(0,200)" x2="600" y2="0" stroke="#ddd" stroke-width="1" opacity="1"/><line transform="translate(0,160)" x2="600" y2="0" stroke="#ddd" stroke-width="1" opacity="1"/><line transform="translate(0,120)" x2="600" y2="0" stroke="#ddd" stroke-width="1" opacity="1"/><line transform="translate(0,80)" x2="600" y2="0" stroke="#ddd" stroke-width="1" opacity="1"/><line transform="translate(0,40)" x2="600" y2="0" stroke="#ddd" stroke-width="1" opacity="1"/><line transform="translate(0,0)" x2="600" y2="0" stroke="#ddd" stroke-width="1" opacity="1"/></g></g><path class="foreground" aria-hidden="true" d="" pointer-events="none" display="none"/></g></g><g class="mark-group role-axis" role="graphics-symbol" aria-roledescription="axis" aria-label="X-axis titled 'Number of environment steps' for a linear scale with values from 0M to 20M"><g transform="translate(0.5,400.5)"><path class="background" aria-hidden="true" d="M0,0h0v0h0Z" pointer-events="none"/><g><g class="mark-rule role-axis-tick" pointer-events="none"><line transform="translate(0,0)" x2="0" y2="5" stroke="#888" stroke-width="1" opacity="1"/><line transform="translate(30,0)" x2="0" y2="5" stroke="#888" stroke-width="1" opacity="1"/><line transform="translate(60,0)" x2="0" y2="5" stroke="#888" stroke-width="1" opacity="1"/><line transform="translate(90,0)" x2="0" y2="5" stroke="#888" stroke-width="1" opacity="1"/><line transform="translate(120,0)" x2="0" y2="5" stroke="#888" stroke-width="1" opacity="1"/><line transform="translate(150,0)" x2="0" y2="5" stroke="#888" stroke-width="1" opacity="1"/><line transform="translate(180,0)" x2="0" y2="5" stroke="#888" stroke-width="1" opacity="1"/><line transform="translate(210,0)" x2="0" y2="5" stroke="#888" stroke-width="1" opacity="1"/><line transform="translate(240,0)" x2="0" y2="5" stroke="#888" stroke-width="1" opacity="1"/><line transform="translate(270,0)" x2="0" y2="5" stroke="#888" stroke-width="1" opacity="1"/><line transform="translate(300,0)" x2="0" y2="5" stroke="#888" stroke-width="1" opacity="1"/><line transform="translate(330,0)" x2="0" y2="5" stroke="#888" stroke-width="1" opacity="1"/><line transform="translate(360,0)" x2="0" y2="5" stroke="#888" stroke-width="1" opacity="1"/><line transform="translate(390,0)" x2="0" y2="5" stroke="#888" stroke-width="1" opacity="1"/><line transform="translate(420,0)" x2="0" y2="5" stroke="#888" stroke-width="1" opacity="1"/><line transform="translate(450,0)" x2="0" y2="5" stroke="#888" stroke-width="1" opacity="1"/><line transform="translate(480,0)" x2="0" y2="5" stroke="#888" stroke-width="1" opacity="1"/><line transform="translate(510,0)" x2="0" y2="5" stroke="#888" stroke-width="1" opacity="1"/><line transform="translate(540,0)" x2="0" y2="5" stroke="#888" stroke-width="1" opacity="1"/><line transform="translate(570,0)" x2="0" y2="5" stroke="#888" stroke-width="1" opacity="1"/><line transform="translate(600,0)" x2="0" y2="5" stroke="#888" stroke-width="1" opacity="1"/></g><g class="mark-text role-axis-label" pointer-events="none"><text text-anchor="start" transform="translate(0,18)" font-family="Times New Roman" font-size="14px" fill="#000" opacity="1">0</text><text text-anchor="middle" transform="translate(30,18)" font-family="Times New Roman" font-size="14px" fill="#000" opacity="0">1M</text><text text-anchor="middle" transform="translate(60,18)" font-family="Times New Roman" font-size="14px" fill="#000" opacity="1">2M</text><text text-anchor="middle" transform="translate(90,18)" font-family="Times New Roman" font-size="14px" fill="#000" opacity="0">3M</text><text text-anchor="middle" transform="translate(120,18)" font-family="Times New Roman" font-size="14px" fill="#000" opacity="1">4M</text><text text-anchor="middle" transform="translate(150,18)" font-family="Times New Roman" font-size="14px" fill="#000" opacity="0">5M</text><text text-anchor="middle" transform="translate(180,18)" font-family="Times New Roman" font-size="14px" fill="#000" opacity="1">6M</text><text text-anchor="middle" transform="translate(210,18)" font-family="Times New Roman" font-size="14px" fill="#000" opacity="0">7M</text><text text-anchor="middle" transform="translate(240,18)" font-family="Times New Roman" font-size="14px" fill="#000" opacity="1">8M</text><text text-anchor="middle" transform="translate(270,18)" font-family="Times New Roman" font-size="14px" fill="#000" opacity="0">9M</text><text text-anchor="middle" transform="translate(300,18)" font-family="Times New Roman" font-size="14px" fill="#000" opacity="1">10M</text><text text-anchor="middle" transform="translate(330,18)" font-family="Times New Roman" font-size="14px" fill="#000" opacity="0">11M</text><text text-anchor="middle" transform="translate(360,18)" font-family="Times New Roman" font-size="14px" fill="#000" opacity="1">12M</text><text text-anchor="middle" transform="translate(390,18)" font-family="Times New Roman" font-size="14px" fill="#000" opacity="0">13M</text><text text-anchor="middle" transform="translate(420,18)" font-family="Times New Roman" font-size="14px" fill="#000" opacity="1">14M</text><text text-anchor="middle" transform="translate(450,18)" font-family="Times New Roman" font-size="14px" fill="#000" opacity="0">15M</text><text text-anchor="middle" transform="translate(480,18)" font-family="Times New Roman" font-size="14px" fill="#000" opacity="1">16M</text><text text-anchor="middle" transform="translate(510,18)" font-family="Times New Roman" font-size="14px" fill="#000" opacity="0">17M</text><text text-anchor="middle" transform="translate(540,18)" font-family="Times New Roman" font-size="14px" fill="#000" opacity="1">18M</text><text text-anchor="middle" transform="translate(570,18)" font-family="Times New Roman" font-size="14px" fill="#000" opacity="0">19M</text><text text-anchor="end" transform="translate(600,18)" font-family="Times New Roman" font-size="14px" fill="#000" opacity="1">20M</text></g><g class="mark-rule role-axis-domain" pointer-events="none"><line transform="translate(0,0)" x2="600" y2="0" stroke="#888" stroke-width="1" opacity="1"/></g><g class="mark-text role-axis-title" pointer-events="none"><text text-anchor="middle" transform="translate(300,38)" font-family="Times New Roman" font-size="16px" font-weight="bold" fill="#000" opacity="1">Number of environment steps</text></g></g><path class="foreground" aria-hidden="true" d="" pointer-events="none" display="none"/></g></g><g class="mark-group role-axis" role="graphics-symbol" aria-roledescription="axis" aria-label="Y-axis titled 'Dormant neuron ratio (%)' for a linear scale with values from 0 to 50"><g transform="translate(0.5,0.5)"><path class="background" aria-hidden="true" d="M0,0h0v0h0Z" pointer-events="none"/><g><g class="mark-rule role-axis-tick" pointer-events="none"><line transform="translate(0,400)" x2="-5" y2="0" stroke="#888" stroke-width="1" opacity="1"/><line transform="translate(0,360)" x2="-5" y2="0" stroke="#888" stroke-width="1" opacity="1"/><line transform="translate(0,320)" x2="-5" y2="0" stroke="#888" stroke-width="1" opacity="1"/><line transform="translate(0,280)" x2="-5" y2="0" stroke="#888" stroke-width="1" opacity="1"/><line transform="translate(0,240)" x2="-5" y2="0" stroke="#888" stroke-width="1" opacity="1"/><line transform="translate(0,200)" x2="-5" y2="0" stroke="#888" stroke-width="1" opacity="1"/><line transform="translate(0,160)" x2="-5" y2="0" stroke="#888" stroke-width="1" opacity="1"/><line transform="translate(0,120)" x2="-5" y2="0" stroke="#888" stroke-width="1" opacity="1"/><line transform="translate(0,80)" x2="-5" y2="0" stroke="#888" stroke-width="1" opacity="1"/><line transform="translate(0,40)" x2="-5" y2="0" stroke="#888" stroke-width="1" opacity="1"/><line transform="translate(0,0)" x2="-5" y2="0" stroke="#888" stroke-width="1" opacity="1"/></g><g class="mark-text role-axis-label" pointer-events="none"><text text-anchor="end" transform="translate(-7,404)" font-family="Times New Roman" font-size="14px" fill="#000" opacity="1">0</text><text text-anchor="end" transform="translate(-7,364)" font-family="Times New Roman" font-size="14px" fill="#000" opacity="1">5</text><text text-anchor="end" transform="translate(-7,324)" font-family="Times New Roman" font-size="14px" fill="#000" opacity="1">10</text><text text-anchor="end" transform="translate(-7,284)" font-family="Times New Roman" font-size="14px" fill="#000" opacity="1">15</text><text text-anchor="end" transform="translate(-7,244)" font-family="Times New Roman" font-size="14px" fill="#000" opacity="1">20</text><text text-anchor="end" transform="translate(-7,204)" font-family="Times New Roman" font-size="14px" fill="#000" opacity="1">25</text><text text-anchor="end" transform="translate(-7,164)" font-family="Times New Roman" font-size="14px" fill="#000" opacity="1">30</text><text text-anchor="end" transform="translate(-7,124.00000000000001)" font-family="Times New Roman" font-size="14px" fill="#000" opacity="1">35</text><text text-anchor="end" transform="translate(-7,83.99999999999999)" font-family="Times New Roman" font-size="14px" fill="#000" opacity="1">40</text><text text-anchor="end" transform="translate(-7,43.99999999999999)" font-family="Times New Roman" font-size="14px" fill="#000" opacity="1">45</text><text text-anchor="end" transform="translate(-7,4)" font-family="Times New Roman" font-size="14px" fill="#000" opacity="1">50</text></g><g class="mark-rule role-axis-domain" pointer-events="none"><line transform="translate(0,400)" x2="0" y2="-400" stroke="#888" stroke-width="1" opacity="1"/></g><g class="mark-text role-axis-title" pointer-events="none"><text text-anchor="middle" transform="translate(-25,200) rotate(-90) translate(0,-3)" font-family="Times New Roman" font-size="16px" font-weight="bold" fill="#000" opacity="1">Dormant neuron ratio (%)</text></g></g><path class="foreground" aria-hidden="true" d="" pointer-events="none" display="none"/></g></g><g class="mark-group role-scope layer_0_layer_0_pathgroup" role="graphics-object" aria-roledescription="group mark container"><g transform="translate(0,0)"><path class="background" aria-hidden="true" d="M0,0h600v400h-600Z"/><g><g class="mark-area role-mark layer_0_layer_0_marks" clip-path="url(#clip1)" role="graphics-object" aria-roledescription="area mark container"><path aria-label="Number of environment steps: 200.38k; Dormant neuron ratio (%): 8.93196636915; upper_Dormant neuron ratio: 10.49544312; Width: 256; Ci1 of Dormant neuron ratio: 10.49544312; Ci0 of Dormant neuron ratio: 8.93196636915; Mean of Dormant neuron ratio: 9.6875002861" role="graphics-symbol" aria-roledescription="errorband" d="M12.023,339.707C14.027,342.884,16.031,345.244,18.035,347.292C20.039,349.34,22.043,351.076,24.047,352.396C26.05,353.715,28.054,354.618,30.058,355.434C32.062,356.251,34.066,356.981,36.07,357.676C38.074,358.371,40.078,359.03,42.082,360.194C44.086,361.357,46.089,363.023,48.093,363.857C50.097,364.69,52.101,364.69,54.105,365.315C56.109,365.939,58.113,367.188,60.117,368.212C62.121,369.236,64.125,370.035,66.128,370.451C68.132,370.868,70.136,370.903,72.14,370.868C74.144,370.833,76.148,370.729,78.152,370.973C80.156,371.216,82.16,371.807,84.164,372.468C86.167,373.128,88.171,373.859,90.175,374.171C92.179,374.483,94.183,374.377,96.187,374.637C98.191,374.897,100.195,375.523,102.199,375.923C104.203,376.323,106.206,376.497,108.21,376.705C110.214,376.913,112.218,377.155,114.222,377.327C116.226,377.5,118.23,377.604,120.234,377.605C122.238,377.605,124.242,377.502,126.245,377.571C128.249,377.641,130.253,377.883,132.257,377.97C134.261,378.056,136.265,377.988,138.269,377.988C140.273,377.988,142.277,378.056,144.281,378.16C146.284,378.264,148.288,378.403,150.292,378.437C152.296,378.472,154.3,378.403,156.304,378.733C158.308,379.062,160.312,379.792,162.316,380.069C164.319,380.347,166.323,380.174,168.327,380.104C170.331,380.035,172.335,380.069,174.339,380.087C176.343,380.105,178.347,380.106,180.351,380.054C182.355,380.003,184.359,379.898,186.362,380.054C188.366,380.21,190.37,380.626,192.374,380.956C194.378,381.286,196.382,381.53,198.386,382.033C200.39,382.536,202.394,383.299,204.398,383.542C206.401,383.785,208.405,383.507,210.409,383.594C212.413,383.681,214.417,384.134,216.421,384.29C218.425,384.446,220.429,384.306,222.433,384.341C224.437,384.375,226.44,384.583,228.444,384.792C230.448,385.001,232.452,385.21,234.456,385.228C236.46,385.246,238.464,385.072,240.468,384.967C242.472,384.863,244.476,384.827,246.479,384.618C248.483,384.41,250.487,384.028,252.491,384.062C254.495,384.097,256.499,384.549,258.503,384.792C260.507,385.035,262.511,385.069,264.515,384.879C266.518,384.688,268.522,384.273,270.526,384.117C272.53,383.961,274.534,384.065,276.538,384.152C278.542,384.239,280.546,384.308,282.55,384.117C284.554,383.925,286.557,383.473,288.561,383.091C290.565,382.708,292.569,382.396,294.573,382.379C296.577,382.362,298.581,382.641,300.585,382.641C302.589,382.641,304.593,382.364,306.596,382.19C308.6,382.016,310.604,381.945,312.608,381.807C314.612,381.668,316.616,381.462,318.62,381.497C320.624,381.533,322.628,381.811,324.632,381.827C326.635,381.844,328.639,381.599,330.643,381.459C332.647,381.319,334.651,381.285,336.655,381.215C338.659,381.146,340.663,381.042,342.667,381.372C344.671,381.702,346.674,382.467,348.678,382.467C350.682,382.468,352.686,381.704,354.69,381.634C356.694,381.564,358.698,382.188,360.702,382.535C362.706,382.882,364.71,382.951,366.713,382.865C368.717,382.778,370.721,382.535,372.725,382.587C374.729,382.64,376.733,382.988,378.737,383.11C380.741,383.232,382.745,383.128,384.749,382.971C386.752,382.815,388.756,382.607,390.76,382.364C392.764,382.121,394.768,381.843,396.772,381.738C398.776,381.634,400.78,381.702,402.784,381.823C404.787,381.944,406.791,382.118,407.793,382.36C408.795,382.601,408.795,382.911,409.797,383.084C410.799,383.258,412.803,383.296,413.805,383.266C414.807,383.235,414.807,383.137,415.809,382.79C416.811,382.443,418.815,381.846,419.817,381.548C420.819,381.25,420.819,381.25,421.821,381.944C422.823,382.639,424.826,384.028,425.828,384.127C426.83,384.226,426.83,383.036,427.832,382.515C428.834,381.994,430.838,382.143,431.84,382.391C432.842,382.64,432.842,382.989,433.844,383.336C434.846,383.683,436.85,384.029,437.852,384.078C438.854,384.127,438.854,383.879,439.856,384.226C440.858,384.573,442.861,385.516,443.863,385.491C444.865,385.466,444.865,384.474,445.867,383.953C446.869,383.433,448.873,383.383,449.875,383.135C450.877,382.887,450.877,382.44,451.879,382.614C452.881,382.788,454.885,383.581,455.887,383.185C456.889,382.788,456.889,381.2,457.891,380.853C458.893,380.506,460.897,381.399,461.898,381.796C462.9,382.192,462.901,382.093,463.902,382.093C464.904,382.093,466.908,382.192,467.91,381.796C468.912,381.399,468.912,380.506,469.914,380.853C470.916,381.2,472.92,382.788,473.922,383.11C474.924,383.433,474.924,382.49,475.926,382.837C476.928,383.185,478.932,384.821,479.934,385.02C480.936,385.218,480.936,383.978,481.938,383.11C482.939,382.242,484.943,381.746,485.945,381.696C486.947,381.647,486.947,382.044,487.949,381.87C488.951,381.696,490.955,380.952,491.957,380.78C492.959,380.608,492.959,381.007,493.961,381.354C494.963,381.701,496.967,381.997,497.969,381.995C498.971,381.994,498.971,381.696,499.973,381.523C500.975,381.349,502.978,381.3,503.98,381.177C504.982,381.054,504.982,380.858,505.984,380.858C506.986,380.858,508.99,381.054,509.992,381.228C510.994,381.403,510.994,381.555,511.996,381.902C512.998,382.25,515.002,382.791,516.004,382.616C517.006,382.44,517.006,381.548,518.008,381.548C519.01,381.548,521.014,382.44,522.015,382.292C523.017,382.143,523.018,380.952,524.019,381.82C525.021,382.688,527.025,385.615,528.027,385.574C529.029,385.532,529.029,382.523,530.031,382.141C531.033,381.759,533.037,384.005,534.039,383.738C535.041,383.472,535.041,380.694,536.043,380.556C537.045,380.417,539.049,382.917,540.051,383.472C541.052,384.028,541.053,382.639,542.055,382.364C543.057,382.089,545.06,382.927,546.062,382.721C547.064,382.516,547.064,381.266,548.066,381.541C549.068,381.816,551.072,383.616,552.074,383.405C553.076,383.194,553.076,380.972,554.078,380.625C555.08,380.278,557.084,381.806,558.086,382.049C559.088,382.292,559.088,381.25,560.09,381.042C561.092,380.833,563.095,381.458,564.097,381.632C565.099,381.806,565.099,381.528,566.101,381.25C567.103,380.972,569.107,380.694,570.109,380.521C571.111,380.347,571.111,380.278,572.113,380.312C573.115,380.347,575.119,380.486,576.121,380.799C577.123,381.111,577.123,381.597,578.125,382.251C579.127,382.905,581.13,383.727,582.132,382.025C583.134,380.324,583.135,376.1,584.136,376.128C585.138,376.157,587.142,380.44,588.144,380.223C589.146,380.006,589.146,375.289,590.148,375.231C591.15,375.174,593.154,379.774,594.156,379.644L594.156,369.821C593.154,369.56,591.15,368.113,590.148,368.547C589.146,368.98,589.146,371.293,588.144,370.99C587.142,370.686,585.138,367.765,584.136,367.36C583.135,366.956,583.134,369.068,582.132,369.476C581.13,369.884,579.127,368.588,578.125,367.94C577.123,367.292,577.123,367.292,576.121,367.569C575.119,367.847,573.115,368.403,572.113,368.611C571.111,368.819,571.111,368.681,570.109,368.333C569.107,367.986,567.103,367.431,566.101,367.639C565.099,367.847,565.099,368.819,564.097,368.333C563.095,367.847,561.092,365.903,560.09,365.486C559.088,365.069,559.088,366.181,558.086,366.215C557.084,366.25,555.08,365.208,554.078,365.174C553.076,365.139,553.076,366.111,552.074,366.181C551.072,366.25,549.068,365.417,548.066,365.208C547.064,365,547.064,365.417,546.062,366.111C545.06,366.806,543.057,367.778,542.055,368.125C541.053,368.472,541.052,368.194,540.051,367.917C539.049,367.639,537.045,367.361,536.043,367.639C535.041,367.917,535.041,368.75,534.039,368.391C533.037,368.032,531.033,366.481,530.031,366.95C529.029,367.419,529.029,369.907,528.027,370.122C527.025,370.337,525.021,368.279,524.019,368.018C523.018,367.758,523.017,369.296,522.015,369.42C521.014,369.544,519.01,368.254,518.008,368.601C517.006,368.948,517.006,370.933,516.004,370.759C515.002,370.585,512.998,368.254,511.996,367.733C510.994,367.212,510.994,368.502,509.992,368.601C508.99,368.7,506.986,367.609,505.984,367.262C504.982,366.915,504.982,367.312,503.98,367.262C502.978,367.212,500.975,366.716,499.973,367.237C498.971,367.758,498.971,369.296,497.969,368.948C496.967,368.601,494.963,366.369,493.961,366.022C492.959,365.675,492.959,367.212,491.957,367.336C490.955,367.46,488.951,366.171,487.949,365.997C486.947,365.823,486.947,366.766,485.945,366.815C484.943,366.865,482.939,366.022,481.938,366.195C480.936,366.369,480.936,367.56,479.934,367.535C478.932,367.51,476.928,366.27,475.926,366.964C474.924,367.659,474.924,370.288,473.922,370.164C472.92,370.04,470.916,367.163,469.914,367.684C468.912,368.204,468.912,372.123,467.91,372.594C466.908,373.065,464.904,370.089,463.902,369.742C462.901,369.395,462.9,371.677,461.898,371.502C460.897,371.328,458.893,368.698,457.891,369.392C456.889,370.087,456.889,374.106,455.887,373.833C454.885,373.56,452.881,368.996,451.879,369.516C450.877,370.037,450.877,375.644,449.875,375.545C448.873,375.446,446.869,369.643,445.867,368.601C444.865,367.56,444.865,371.28,443.863,371.552C442.861,371.824,440.858,368.648,439.856,368.475C438.854,368.301,438.854,371.13,437.852,370.957C436.85,370.784,434.846,367.609,433.844,367.609C432.842,367.609,432.842,370.784,431.84,370.982C430.838,371.179,428.834,368.4,427.832,367.879C426.83,367.359,426.83,369.096,425.828,369.221C424.826,369.345,422.823,367.857,421.821,367.51C420.819,367.163,420.819,367.956,419.817,367.882C418.815,367.808,416.811,366.865,415.809,366.691C414.807,366.518,414.807,367.113,413.805,367.757C412.803,368.402,410.799,369.095,409.797,371.526C408.795,373.956,408.795,378.124,407.793,378.42C406.791,378.715,404.787,375.139,402.784,373.142C400.78,371.146,398.776,370.729,396.772,370.573C394.768,370.417,392.764,370.521,390.76,370.503C388.756,370.485,386.752,370.345,384.749,370.536C382.745,370.727,380.741,371.249,378.737,371.458C376.733,371.667,374.729,371.562,372.725,371.666C370.721,371.77,368.717,372.082,366.713,372.203C364.71,372.324,362.706,372.254,360.702,372.029C358.698,371.803,356.694,371.421,354.69,371.647C352.686,371.873,350.682,372.707,348.678,372.603C346.674,372.499,344.671,371.457,342.667,371.352C340.663,371.248,338.659,372.082,336.655,372.274C334.651,372.465,332.647,372.014,330.643,372.066C328.639,372.118,326.635,372.674,324.632,372.691C322.628,372.708,320.624,372.187,318.62,371.858C316.616,371.528,314.612,371.389,312.608,371.544C310.604,371.7,308.6,372.149,306.596,372.375C304.593,372.6,302.589,372.601,300.585,372.654C298.581,372.707,296.577,372.812,294.573,373.038C292.569,373.264,290.565,373.611,288.561,374.045C286.557,374.479,284.554,375,282.55,375.122C280.546,375.243,278.542,374.965,276.538,374.722C274.534,374.478,272.53,374.269,270.526,374.286C268.522,374.304,266.518,374.548,264.515,374.791C262.511,375.034,260.507,375.276,258.503,375.241C256.499,375.207,254.495,374.895,252.491,374.617C250.487,374.339,248.483,374.095,246.479,374.286C244.476,374.477,242.472,375.103,240.468,375.329C238.464,375.556,236.46,375.382,234.456,375.26C232.452,375.139,230.448,375.069,228.444,374.983C226.44,374.896,224.437,374.792,222.433,374.74C220.429,374.687,218.425,374.687,216.421,374.618C214.417,374.549,212.413,374.41,210.409,374.288C208.405,374.167,206.401,374.062,204.398,373.767C202.394,373.472,200.39,372.986,198.386,372.726C196.382,372.465,194.378,372.431,192.374,372.309C190.37,372.187,188.366,371.979,186.362,371.684C184.359,371.389,182.355,371.007,180.351,370.746C178.347,370.485,176.343,370.345,174.339,370.259C172.335,370.172,170.331,370.138,168.327,369.982C166.323,369.826,164.319,369.549,162.316,369.236C160.312,368.924,158.308,368.576,156.304,368.316C154.3,368.056,152.296,367.882,150.292,367.899C148.288,367.917,146.284,368.125,144.281,368.021C142.277,367.917,140.273,367.5,138.269,367.482C136.265,367.464,134.261,367.845,132.257,367.915C130.253,367.984,128.249,367.742,126.245,367.777C124.242,367.812,122.238,368.123,120.234,368.036C118.23,367.949,116.226,367.463,114.222,367.376C112.218,367.29,110.214,367.603,108.21,367.743C106.206,367.882,104.203,367.847,102.199,367.622C100.195,367.396,98.191,366.979,96.187,366.389C94.183,365.799,92.179,365.035,90.175,364.566C88.171,364.097,86.167,363.924,84.164,363.646C82.16,363.368,80.156,362.986,78.152,362.865C76.148,362.743,74.144,362.882,72.14,362.777C70.136,362.673,68.132,362.325,66.128,361.648C64.125,360.97,62.121,359.964,60.117,359.062C58.113,358.16,56.109,357.361,54.105,356.492C52.101,355.623,50.097,354.684,48.093,353.59C46.089,352.497,44.086,351.248,42.082,350.26C40.078,349.271,38.074,348.542,36.07,347.882C34.066,347.222,32.062,346.632,30.058,345.573C28.054,344.514,26.05,342.986,24.047,341.197C22.043,339.409,20.039,337.359,18.035,334.911C16.031,332.463,14.027,329.615,12.023,326.403Z" fill="#FF5F33" opacity="0.3"/></g></g><path class="foreground" aria-hidden="true" d="" display="none"/></g><g transform="translate(0,0)"><path class="background" aria-hidden="true" d="M0,0h600v400h-600Z"/><g><g class="mark-area role-mark layer_0_layer_0_marks" clip-path="url(#clip2)" role="graphics-object" aria-roledescription="area mark container"><path aria-label="Number of environment steps: 200.38k; Dormant neuron ratio (%): 10.3707685184; upper_Dormant neuron ratio: 11.6277673388; Width: 512; Ci1 of Dormant neuron ratio: 11.6277673388; Ci0 of Dormant neuron ratio: 10.3707685184; Mean of Dormant neuron ratio: 11.0221357346" role="graphics-symbol" aria-roledescription="errorband" d="M12.023,333.447C14.027,338.299,16.031,342.222,18.035,345.347C20.039,348.472,22.043,350.799,24.047,352.604C26.05,354.41,28.054,355.695,30.058,357.059C32.062,358.422,34.066,359.863,36.07,361.261C38.074,362.658,40.078,364.011,42.082,365.452C44.086,366.892,46.089,368.42,48.093,369.844C50.097,371.268,52.101,372.589,54.105,373.526C56.109,374.464,58.113,375.019,60.117,375.592C62.121,376.164,64.125,376.755,66.128,377.388C68.132,378.022,70.136,378.698,72.14,379.193C74.144,379.687,76.148,380,78.152,380.269C80.156,380.538,82.16,380.764,84.164,381.05C86.167,381.337,88.171,381.684,90.175,381.797C92.179,381.91,94.183,381.788,96.187,381.962C98.191,382.135,100.195,382.604,102.199,382.786C104.203,382.969,106.206,382.865,108.21,383.038C110.214,383.212,112.218,383.663,114.222,384.123C116.226,384.583,118.23,385.052,120.234,385.243C122.238,385.434,124.242,385.347,126.245,385.295C128.249,385.243,130.253,385.227,132.257,385.383C134.261,385.539,136.265,385.868,138.269,386.016C140.273,386.163,142.277,386.128,144.281,386.276C146.284,386.424,148.288,386.753,150.292,386.78C152.296,386.806,154.3,386.528,156.304,386.311C158.308,386.094,160.312,385.938,162.316,386.008C164.319,386.077,166.323,386.372,168.327,386.398C170.331,386.424,172.335,386.181,174.339,385.929C176.343,385.677,178.347,385.417,180.351,385.46C182.355,385.504,184.359,385.852,186.362,385.817C188.366,385.782,190.37,385.365,192.374,385.295C194.378,385.226,196.382,385.503,198.386,385.33C200.39,385.157,202.394,384.532,204.398,384.281C206.401,384.029,208.405,384.151,210.409,384.176C212.413,384.202,214.417,384.132,216.421,383.933C218.425,383.733,220.429,383.403,222.433,383.342C224.437,383.281,226.44,383.49,228.444,383.516C230.448,383.542,232.452,383.385,234.456,383.099C236.46,382.813,238.464,382.397,240.468,382.214C242.472,382.032,244.476,382.084,246.479,382.145C248.483,382.205,250.487,382.275,252.491,382.197C254.495,382.119,256.499,381.893,258.503,381.693C260.507,381.493,262.511,381.319,264.515,381.215C266.518,381.111,268.522,381.076,270.526,381.016C272.53,380.955,274.534,380.868,276.538,380.747C278.542,380.625,280.546,380.469,282.55,380.426C284.554,380.382,286.557,380.452,288.561,380.669C290.565,380.886,292.569,381.25,294.573,381.294C296.577,381.338,298.581,381.061,300.585,380.991C302.589,380.922,304.593,381.06,306.596,380.929C308.6,380.799,310.604,380.399,312.608,379.983C314.612,379.566,316.616,379.132,318.62,378.872C320.624,378.612,322.628,378.525,324.632,378.213C326.635,377.901,328.639,377.362,330.643,377.241C332.647,377.119,334.651,377.414,336.655,377.457C338.659,377.5,340.663,377.293,342.667,377.033C344.671,376.773,346.674,376.461,348.678,376.018C350.682,375.575,352.686,375.002,354.69,374.255C356.694,373.508,358.698,372.587,360.702,372.422C362.706,372.257,364.71,372.848,366.713,373.222C368.717,373.595,370.721,373.751,372.725,373.899C374.729,374.046,376.733,374.185,378.737,374.194C380.741,374.203,382.745,374.081,384.749,373.933C386.752,373.786,388.756,373.612,390.76,373.395C392.764,373.178,394.768,372.918,396.772,372.779C398.776,372.64,400.78,372.622,402.784,372.553C404.787,372.483,406.791,372.362,408.795,372.258C410.799,372.154,412.803,372.066,414.807,371.467C416.811,370.868,418.815,369.757,420.819,369.453C422.823,369.15,424.826,369.654,426.83,369.941C428.834,370.227,430.838,370.297,432.842,370.488C434.846,370.679,436.85,370.99,438.854,371.025C440.858,371.06,442.862,370.818,444.865,370.783C446.869,370.748,448.873,370.921,450.877,370.695C452.881,370.469,454.885,369.844,456.889,369.506C458.893,369.168,460.897,369.116,462.901,368.839C464.904,368.561,466.908,368.056,468.912,367.804C470.916,367.553,472.92,367.553,474.924,367.44C476.928,367.328,478.932,367.102,480.936,367.006C482.94,366.911,484.944,366.945,486.947,366.667C488.951,366.389,490.955,365.799,492.959,365.47C494.963,365.14,496.967,365.07,498.971,364.948C500.975,364.827,502.979,364.654,504.983,364.315C506.986,363.977,508.99,363.474,510.994,363.465C512.998,363.456,515.002,363.941,517.006,364.098C519.01,364.254,521.014,364.082,523.018,363.899C525.022,363.717,527.025,363.525,529.029,363.429C531.033,363.333,533.037,363.333,535.041,363.255C537.045,363.177,539.049,363.021,541.053,362.865C543.057,362.708,545.06,362.552,547.064,362.275C549.068,361.997,551.072,361.598,553.076,361.355C555.08,361.112,557.084,361.026,559.088,360.826C561.092,360.626,563.096,360.313,565.099,360.131C567.103,359.95,569.107,359.899,571.111,359.604C573.115,359.309,575.119,358.769,577.123,358.647C579.127,358.524,581.131,358.819,583.135,359.236C585.139,359.653,587.142,360.192,589.146,360.036L589.146,347.647C587.142,347.934,585.139,348.628,583.135,348.741C581.131,348.854,579.127,348.385,577.123,347.863C575.119,347.342,573.115,346.77,571.111,346.821C569.107,346.873,567.103,347.55,565.099,348.426C563.096,349.303,561.092,350.379,559.088,350.814C557.084,351.248,555.08,351.041,553.076,351.076C551.072,351.111,549.068,351.388,547.064,351.466C545.06,351.543,543.057,351.421,541.053,351.691C539.049,351.96,537.045,352.621,535.041,352.899C533.037,353.177,531.033,353.073,529.029,352.76C527.025,352.447,525.022,351.926,523.018,351.7C521.014,351.474,519.01,351.544,517.006,351.926C515.002,352.308,512.998,353.002,510.994,353.219C508.99,353.437,506.986,353.177,504.983,353.359C502.979,353.541,500.975,354.166,498.971,354.782C496.967,355.398,494.963,356.007,492.959,356.423C490.955,356.84,488.951,357.066,486.947,357.378C484.944,357.691,482.94,358.089,480.936,358.202C478.932,358.315,476.928,358.142,474.924,358.125C472.92,358.108,470.916,358.247,468.912,358.507C466.908,358.767,464.904,359.148,462.901,359.244C460.897,359.339,458.893,359.149,456.889,359.262C454.885,359.375,452.881,359.791,450.877,359.877C448.873,359.964,446.869,359.72,444.865,359.503C442.862,359.286,440.858,359.096,438.854,359.201C436.85,359.306,434.846,359.705,432.842,360.138C430.838,360.572,428.834,361.04,426.83,361.049C424.826,361.057,422.823,360.607,420.819,360.72C418.815,360.833,416.811,361.51,414.807,362.075C412.803,362.639,410.799,363.09,408.795,362.96C406.791,362.829,404.787,362.116,402.784,361.96C400.78,361.803,398.776,362.203,396.772,362.394C394.768,362.586,392.764,362.568,390.76,362.941C388.756,363.315,386.752,364.079,384.749,364.66C382.745,365.242,380.741,365.642,378.737,365.963C376.733,366.285,374.729,366.528,372.725,366.449C370.721,366.371,368.717,365.971,366.713,365.841C364.71,365.711,362.706,365.849,360.702,366.153C358.698,366.457,356.694,366.927,354.69,367.335C352.686,367.743,350.682,368.09,348.678,368.35C346.674,368.61,344.671,368.783,342.667,368.878C340.663,368.974,338.659,368.991,336.655,368.931C334.651,368.871,332.647,368.732,330.643,369.071C328.639,369.409,326.635,370.225,324.632,370.615C322.628,371.006,320.624,370.971,318.62,371.171C316.616,371.371,314.612,371.805,312.608,372.248C310.604,372.691,308.6,373.141,306.596,373.298C304.593,373.454,302.589,373.316,300.585,373.437C298.581,373.559,296.577,373.941,294.573,374.08C292.569,374.219,290.565,374.115,288.561,374.28C286.557,374.444,284.554,374.878,282.55,374.974C280.546,375.069,278.542,374.826,276.538,374.938C274.534,375.051,272.53,375.52,270.526,375.625C268.522,375.729,266.518,375.469,264.515,375.521C262.511,375.573,260.507,375.937,258.503,376.25C256.499,376.562,254.495,376.822,252.491,376.952C250.487,377.082,248.483,377.083,246.479,377.204C244.476,377.326,242.472,377.569,240.468,377.647C238.464,377.725,236.46,377.638,234.456,377.795C232.452,377.951,230.448,378.351,228.444,378.481C226.44,378.611,224.437,378.472,222.433,378.602C220.429,378.733,218.425,379.132,216.421,379.123C214.417,379.115,212.413,378.698,210.409,378.681C208.405,378.663,206.401,379.045,204.398,379.384C202.394,379.722,200.39,380.017,198.386,380.165C196.382,380.312,194.378,380.312,192.374,380.503C190.37,380.694,188.366,381.076,186.362,381.284C184.359,381.492,182.355,381.526,180.351,381.735C178.347,381.944,176.343,382.326,174.339,382.378C172.335,382.43,170.331,382.152,168.327,381.978C166.323,381.805,164.319,381.736,162.316,381.745C160.312,381.753,158.308,381.84,156.304,382.023C154.3,382.205,152.296,382.483,150.292,382.491C148.288,382.5,146.284,382.239,144.281,382.126C142.277,382.013,140.273,382.047,138.269,381.926C136.265,381.804,134.261,381.526,132.257,381.456C130.253,381.387,128.249,381.527,126.245,381.675C124.242,381.823,122.238,381.979,120.234,381.997C118.23,382.014,116.226,381.892,114.222,381.493C112.218,381.094,110.214,380.417,108.21,380.182C106.206,379.948,104.203,380.156,102.199,379.87C100.195,379.583,98.191,378.802,96.187,378.385C94.183,377.969,92.179,377.917,90.175,377.595C88.171,377.274,86.167,376.683,84.164,376.206C82.16,375.728,80.156,375.364,78.152,374.878C76.148,374.392,74.144,373.784,72.14,373.133C70.136,372.482,68.132,371.788,66.128,370.946C64.125,370.104,62.121,369.115,60.117,368.16C58.113,367.205,56.109,366.285,54.105,365.165C52.101,364.045,50.097,362.726,48.093,361.345C46.089,359.964,44.086,358.523,42.082,357.142C40.078,355.762,38.074,354.443,36.07,353.089C34.066,351.735,32.062,350.347,30.058,348.802C28.054,347.257,26.05,345.555,24.047,343.61C22.043,341.665,20.039,339.477,18.035,335.944C16.031,332.411,14.027,327.533,12.023,322.481Z" fill="#FF4B33" opacity="0.3"/></g></g><path class="foreground" aria-hidden="true" d="" display="none"/></g><g transform="translate(0,0)"><path class="background" aria-hidden="true" d="M0,0h600v400h-600Z"/><g><g class="mark-area role-mark layer_0_layer_0_marks" clip-path="url(#clip3)" role="graphics-object" aria-roledescription="area mark container"><path aria-label="Number of environment steps: 200.38k; Dormant neuron ratio (%): 12.4571130443; upper_Dormant neuron ratio: 14.5509442973; Width: 1024; Ci1 of Dormant neuron ratio: 14.5509442973; Ci0 of Dormant neuron ratio: 12.4571130443; Mean of Dormant neuron ratio: 13.684896183" role="graphics-symbol" aria-roledescription="errorband" d="M12.023,318.513C14.027,323.63,16.031,327.337,18.035,331.165C20.039,334.993,22.043,338.943,24.047,342.271C26.05,345.6,28.054,348.308,30.058,351.06C32.062,353.811,34.066,356.606,36.07,358.681C38.074,360.755,40.078,362.11,42.082,363.356C44.086,364.601,46.089,365.738,48.093,366.98C50.097,368.221,52.101,369.567,54.105,370.461C56.109,371.355,58.113,371.798,60.117,372.345C62.121,372.892,64.125,373.543,66.128,373.868C68.132,374.194,70.136,374.194,72.14,374.345C74.144,374.497,76.148,374.801,78.152,375.039C80.156,375.278,82.16,375.452,84.164,375.452C86.167,375.452,88.171,375.278,90.175,375.261C92.179,375.244,94.183,375.383,96.187,375.574C98.191,375.765,100.195,376.008,102.199,376.03C104.203,376.052,106.206,375.853,108.21,375.9C110.214,375.948,112.218,376.242,114.222,376.311C116.226,376.381,118.23,376.225,120.234,375.995C122.238,375.765,124.242,375.461,126.245,375.223C128.249,374.984,130.253,374.81,132.257,374.857C134.261,374.905,136.265,375.174,138.269,375.291C140.273,375.408,142.277,375.374,144.281,375.031C146.284,374.688,148.288,374.037,150.292,373.755C152.296,373.473,154.3,373.56,156.304,373.486C158.308,373.412,160.312,373.177,162.316,373.117C164.319,373.057,166.323,373.172,168.327,372.977C170.331,372.781,172.335,372.276,174.339,372.293C176.343,372.31,178.347,372.848,180.351,372.727C182.355,372.605,184.359,371.824,186.362,371.178C188.366,370.531,190.37,370.018,192.374,369.84C194.378,369.662,196.382,369.818,198.386,369.397C200.39,368.976,202.394,367.978,204.398,367.318C206.401,366.658,208.405,366.338,210.409,366.342C212.413,366.346,214.417,366.676,216.421,366.463C218.425,366.25,220.429,365.495,222.433,364.844C224.437,364.193,226.44,363.646,228.444,363.052C230.448,362.459,232.452,361.818,234.456,361.237C236.46,360.655,238.464,360.133,240.468,359.793C242.472,359.454,244.476,359.298,246.479,359.02C248.483,358.742,250.487,358.343,252.491,357.935C254.495,357.528,256.499,357.112,258.503,356.869C260.507,356.626,262.511,356.555,264.515,355.995C266.518,355.435,268.522,354.386,270.526,353.8C272.53,353.214,274.534,353.092,276.538,352.571C278.542,352.05,280.546,351.131,282.55,350.788C284.554,350.445,286.557,350.679,288.561,350.748C290.565,350.817,292.569,350.721,294.573,350.078C296.577,349.436,298.581,348.247,300.585,347.458C302.589,346.668,304.593,346.279,306.596,345.888C308.6,345.498,310.604,345.107,312.608,344.681C314.612,344.255,316.616,343.794,318.62,343.379C320.624,342.964,322.628,342.594,324.632,342.277C326.635,341.96,328.639,341.696,330.643,341.066C332.647,340.436,334.651,339.439,336.655,339.308C338.659,339.178,340.663,339.915,342.667,339.823C344.671,339.731,346.674,338.811,348.678,338.373C350.682,337.934,352.686,337.978,354.69,337.649C356.694,337.32,358.698,336.618,360.702,335.998C362.706,335.377,364.71,334.838,366.713,334.555C368.717,334.272,370.721,334.245,372.725,333.863C374.729,333.481,376.733,332.743,378.737,332.605C380.741,332.467,382.745,332.928,384.749,332.265C386.752,331.601,388.756,329.811,390.76,328.604C392.764,327.397,394.768,326.772,396.772,326.446C398.776,326.121,400.78,326.095,402.784,325.353C404.787,324.611,406.791,323.152,408.795,322.475C410.799,321.798,412.803,321.902,414.807,321.941C416.811,321.98,418.815,321.954,420.819,321.451C422.823,320.947,424.826,319.967,426.83,319.72C428.834,319.472,430.838,319.958,432.842,319.736C434.846,319.515,436.85,318.586,438.854,318.026C440.858,317.467,442.862,317.277,444.865,317.342C446.869,317.407,448.873,317.728,450.877,317.055C452.881,316.382,454.885,314.715,456.889,314.143C458.893,313.571,460.897,314.095,462.901,314.269C464.904,314.444,466.908,314.269,468.912,313.734C470.916,313.2,472.92,312.307,474.924,311.434C476.928,310.561,478.932,309.709,480.936,309.361C482.94,309.012,484.944,309.168,486.947,308.968C488.951,308.768,490.955,308.213,492.959,307.922C494.963,307.631,496.967,307.605,498.971,307.428C500.975,307.251,502.979,306.924,504.983,306.491C506.986,306.058,508.99,305.52,510.994,304.802C512.998,304.085,515.002,303.189,517.006,302.532C519.01,301.876,521.014,301.459,523.018,301.395C525.022,301.331,527.025,301.618,529.029,301.245C531.033,300.872,533.037,299.839,535.041,299.308C537.045,298.778,539.049,298.751,541.053,298.043C543.057,297.335,545.06,295.946,547.064,295.495C549.068,295.043,551.072,295.53,553.076,295.725C555.08,295.921,557.084,295.827,559.088,295.376C561.092,294.924,563.096,294.117,565.099,293.643C567.103,293.169,569.107,293.03,571.111,293.04C573.115,293.05,575.119,293.209,577.123,292.871C579.127,292.533,581.131,291.699,583.135,291.45C585.139,291.201,587.142,291.538,589.146,291.746L589.146,268.215C587.142,268.14,585.139,268.183,583.135,268.665C581.131,269.146,579.127,270.067,577.123,270.497C575.119,270.927,573.115,270.867,571.111,270.511C569.107,270.155,567.103,269.503,565.099,269.416C563.096,269.33,561.092,269.808,559.088,270.429C557.084,271.049,555.08,271.813,553.076,272.073C551.072,272.333,549.068,272.09,547.064,272.376C545.06,272.663,543.057,273.48,541.053,274.752C539.049,276.024,537.045,277.751,535.041,278.567C533.037,279.383,531.033,279.288,529.029,279.205C527.025,279.123,525.022,279.053,523.018,279.205C521.014,279.356,519.01,279.73,517.006,280.254C515.002,280.779,512.998,281.455,510.994,282.314C508.99,283.173,506.986,284.215,504.983,284.676C502.979,285.136,500.975,285.015,498.971,285.415C496.967,285.814,494.963,286.734,492.959,286.917C490.955,287.099,488.951,286.544,486.947,286.795C484.944,287.047,482.94,288.106,480.936,288.688C478.932,289.269,476.928,289.374,474.924,289.798C472.92,290.223,470.916,290.967,468.912,291.813C466.908,292.658,464.904,293.606,462.901,294.11C460.897,294.615,458.893,294.677,456.889,295.176C454.885,295.676,452.881,296.614,450.877,296.97C448.873,297.326,446.869,297.099,444.865,297.121C442.862,297.142,440.858,297.412,438.854,297.915C436.85,298.418,434.846,299.155,432.842,299.472C430.838,299.788,428.834,299.685,426.83,300.245C424.826,300.806,422.823,302.03,420.819,302.586C418.815,303.142,416.811,303.029,414.807,303.12C412.803,303.211,410.799,303.507,408.795,304.009C406.791,304.512,404.787,305.221,402.784,305.729C400.78,306.237,398.776,306.542,396.772,306.824C394.768,307.107,392.764,307.365,390.76,308.333C388.756,309.301,386.752,310.977,384.749,311.403C382.745,311.83,380.741,311.006,378.737,310.701C376.733,310.396,374.729,310.611,372.725,310.637C370.721,310.663,368.717,310.499,366.713,311.008C364.71,311.517,362.706,312.698,360.702,313.397C358.698,314.096,356.694,314.312,354.69,314.776C352.686,315.24,350.682,315.952,348.678,316.364C346.674,316.777,344.671,316.889,342.667,316.876C340.663,316.862,338.659,316.722,336.655,316.856C334.651,316.991,332.647,317.4,330.643,317.753C328.639,318.105,326.635,318.401,324.632,318.653C322.628,318.905,320.624,319.114,318.62,319.687C316.616,320.26,314.612,321.197,312.608,321.574C310.604,321.95,308.6,321.765,306.596,321.99C304.593,322.215,302.589,322.85,300.585,323.502C298.581,324.154,296.577,324.823,294.573,325.037C292.569,325.25,290.565,325.008,288.561,324.677C286.557,324.347,284.554,323.929,282.55,323.993C280.546,324.056,278.542,324.6,276.538,325.125C274.534,325.651,272.53,326.158,270.526,326.688C268.522,327.218,266.518,327.771,264.515,328.345C262.511,328.918,260.507,329.511,258.503,329.737C256.499,329.964,254.495,329.825,252.491,329.938C250.487,330.051,248.483,330.416,246.479,330.49C244.476,330.564,242.472,330.346,240.468,330.141C238.464,329.937,236.46,329.746,234.456,329.685C232.452,329.623,230.448,329.692,228.444,329.801C226.44,329.91,224.437,330.058,222.433,330.375C220.429,330.692,218.425,331.178,216.421,330.691C214.417,330.204,212.413,328.744,210.409,327.863C208.405,326.982,206.401,326.68,204.398,326.724C202.394,326.769,200.39,327.159,198.386,327.324C196.382,327.488,194.378,327.427,192.374,327.505C190.37,327.582,188.366,327.799,186.362,328.202C184.359,328.606,182.355,329.196,180.351,329.219C178.347,329.241,176.343,328.695,174.339,328.478C172.335,328.26,170.331,328.372,168.327,327.942C166.323,327.512,164.319,326.542,162.316,326.477C160.312,326.412,158.308,327.254,156.304,327.314C154.3,327.374,152.296,326.654,150.292,326.072C148.288,325.491,146.284,325.049,144.281,324.485C142.277,323.922,140.273,323.237,138.269,322.581C136.265,321.926,134.261,321.301,132.257,320.754C130.253,320.207,128.249,319.738,126.245,319.924C124.242,320.11,122.238,320.952,120.234,321.802C118.23,322.652,116.226,323.511,114.222,325.035C112.218,326.559,110.214,328.748,108.21,331.427C106.206,334.105,104.203,337.274,102.199,339.188C100.195,341.102,98.191,341.761,96.187,342.694C94.183,343.627,92.179,344.833,90.175,346.591C88.171,348.349,86.167,350.658,84.164,352.451C82.16,354.244,80.156,355.519,78.152,356.526C76.148,357.532,74.144,358.269,72.14,358.825C70.136,359.38,68.132,359.754,66.128,359.872C64.125,359.989,62.121,359.85,60.117,359.039C58.113,358.228,56.109,356.744,54.105,354.612C52.101,352.48,50.097,349.701,48.093,348.79C46.089,347.878,44.086,348.835,42.082,348.258C40.078,347.681,38.074,345.572,36.07,343.002C34.066,340.433,32.062,337.403,30.058,334.217C28.054,331.031,26.05,327.688,24.047,324.655C22.043,321.621,20.039,318.896,18.035,315.398C16.031,311.9,14.027,307.63,12.023,302.2Z" fill="#E0392D" opacity="0.3"/></g></g><path class="foreground" aria-hidden="true" d="" display="none"/></g><g transform="translate(0,0)"><path class="background" aria-hidden="true" d="M0,0h600v400h-600Z"/><g><g class="mark-area role-mark layer_0_layer_0_marks" clip-path="url(#clip4)" role="graphics-object" aria-roledescription="area mark container"><path aria-label="Number of environment steps: 200.38k; Dormant neuron ratio (%): 18.0240074778; upper_Dormant neuron ratio: 19.6842451143; Width: 2048; Ci1 of Dormant neuron ratio: 19.6842451143; Ci0 of Dormant neuron ratio: 18.0240074778; Mean of Dormant neuron ratio: 18.8183597565" role="graphics-symbol" aria-roledescription="errorband" d="M12.023,283.391C14.027,290.8,16.031,295.53,18.035,300.217C20.039,304.905,22.043,309.549,24.047,313.535C26.05,317.522,28.054,320.851,30.058,323.245C32.062,325.638,34.066,327.097,36.07,328.249C38.074,329.402,40.078,330.248,42.082,330.988C44.086,331.728,46.089,332.362,48.093,332.963C50.097,333.564,52.101,334.133,54.105,334.48C56.109,334.827,58.113,334.953,60.117,335.187C62.121,335.421,64.125,335.765,66.128,335.574C68.132,335.383,70.136,334.658,72.14,333.961C74.144,333.264,76.148,332.596,78.152,331.73C80.156,330.865,82.16,329.803,84.164,328.899C86.167,327.994,88.171,327.247,90.175,326.654C92.179,326.062,94.183,325.622,96.187,324.943C98.191,324.264,100.195,323.345,102.199,322.62C104.203,321.895,106.206,321.364,108.21,321.258C110.214,321.151,112.218,321.468,114.222,321.16C116.226,320.852,118.23,319.919,120.234,319.198C122.238,318.477,124.242,317.969,126.245,317.63C128.249,317.292,130.253,317.122,132.257,316.769C134.261,316.415,136.265,315.877,138.269,315.448C140.273,315.018,142.277,314.698,144.281,314.242C146.284,313.786,148.288,313.196,150.292,312.527C152.296,311.858,154.3,311.112,156.304,310.336C158.308,309.56,160.312,308.754,162.316,307.693C164.319,306.632,166.323,305.316,168.327,304.078C170.331,302.84,172.335,301.681,174.339,300.583C176.343,299.486,178.347,298.449,180.351,297.716C182.355,296.983,184.359,296.552,186.362,295.743C188.366,294.933,190.37,293.743,192.374,292.43C194.378,291.117,196.382,289.679,198.386,288.885C200.39,288.091,202.394,287.939,204.398,287.428C206.401,286.917,208.405,286.046,210.409,284.706C212.413,283.367,214.417,281.56,216.421,280.372C218.425,279.184,220.429,278.616,222.433,278.082C224.437,277.549,226.44,277.05,228.444,276.57C230.448,276.091,232.452,275.631,234.456,274.963C236.46,274.294,238.464,273.418,240.468,272.118C242.472,270.817,244.476,269.094,246.479,268.037C248.483,266.98,250.487,266.589,252.491,265.761C254.495,264.932,256.499,263.665,258.503,262.646C260.507,261.626,262.511,260.854,264.515,259.585C266.518,258.316,268.522,256.55,270.526,255.473C272.53,254.396,274.534,254.008,276.538,253.671C278.542,253.334,280.546,253.049,282.55,252.461C284.554,251.873,286.557,250.982,288.561,250.167C290.565,249.351,292.569,248.61,294.573,247.551C296.577,246.493,298.581,245.117,300.585,243.678C302.589,242.24,304.593,240.739,306.596,239.805C308.6,238.872,310.604,238.505,312.608,237.521C314.612,236.537,316.616,234.935,318.62,233.892C320.624,232.848,322.628,232.362,324.632,231.441C326.635,230.519,328.639,229.161,330.643,228.423C332.647,227.686,334.651,227.568,336.655,227.112C338.659,226.656,340.663,225.861,342.667,225.151C344.671,224.441,346.674,223.816,348.678,223.072C350.682,222.327,352.686,221.465,354.69,220.727C356.694,219.989,358.698,219.377,360.702,218.058C362.706,216.738,364.71,214.712,366.713,213.749C368.717,212.785,370.721,212.884,372.725,212.024C374.729,211.165,376.733,209.347,378.737,209.126C380.741,208.905,382.745,210.281,384.749,210.841C386.752,211.401,388.756,211.145,390.76,210.622C392.764,210.099,394.768,209.308,396.772,208.453C398.776,207.597,400.78,206.677,402.784,205.743C404.787,204.81,406.791,203.864,408.795,203.07C410.799,202.276,412.803,201.634,414.807,200.82C416.811,200.006,418.815,199.021,420.819,197.969C422.823,196.916,424.826,195.796,426.83,194.709C428.834,193.621,430.838,192.567,432.842,191.972C434.846,191.377,436.85,191.243,438.854,191.387C440.858,191.53,442.862,191.951,444.865,192.118C446.869,192.285,448.873,192.199,450.877,191.674C452.881,191.15,454.885,190.188,456.889,189.639C458.893,189.09,460.897,188.953,462.901,188.517C464.904,188.082,466.908,187.349,468.912,186.737C470.916,186.126,472.92,185.636,474.924,184.811C476.928,183.987,478.932,182.829,480.936,181.533C482.94,180.237,484.944,178.803,486.947,177.666C488.951,176.528,490.955,175.687,492.959,174.752C494.963,173.817,496.967,172.788,498.971,172.415C500.975,172.043,502.979,172.326,504.983,171.995C506.986,171.663,508.99,170.716,510.994,169.906C512.998,169.096,515.002,168.422,517.006,167.653C519.01,166.885,521.014,166.022,523.018,166.196C525.022,166.369,527.025,167.58,529.029,168.324C531.033,169.068,533.037,169.347,535.041,169.386C537.045,169.425,539.049,169.226,541.053,169.13C543.057,169.034,545.06,169.042,547.064,168.285C549.068,167.528,551.072,166.006,553.076,165.533C555.08,165.06,557.084,165.637,559.088,165.326C561.092,165.015,563.096,163.817,565.099,163.315C567.103,162.814,569.107,163.01,571.111,163.272C573.115,163.535,575.119,163.864,577.123,163.712C579.127,163.559,581.131,162.926,583.135,162.178C585.139,161.429,587.142,160.566,589.146,159.951L589.146,135.713C587.142,136.336,585.139,136.982,583.135,137.575C581.131,138.167,579.127,138.706,577.123,139.136C575.119,139.566,573.115,139.887,571.111,140.049C569.107,140.212,567.103,140.216,565.099,140.565C563.096,140.914,561.092,141.608,559.088,142.062C557.084,142.515,555.08,142.729,553.076,143.248C551.072,143.767,549.068,144.592,547.064,144.945C545.06,145.299,543.057,145.182,541.053,144.993C539.049,144.804,537.045,144.543,535.041,144.84C533.037,145.137,531.033,145.992,529.029,146.598C527.025,147.203,525.022,147.56,523.018,147.796C521.014,148.033,519.01,148.151,517.006,148.926C515.002,149.702,512.998,151.136,510.994,152.417C508.99,153.697,506.986,154.824,504.983,155.128C502.979,155.433,500.975,154.915,498.971,155.107C496.967,155.298,494.963,156.198,492.959,156.879C490.955,157.56,488.951,158.022,486.947,158.791C484.944,159.559,482.94,160.636,480.936,161.524C478.932,162.412,476.928,163.112,474.924,163.949C472.92,164.785,470.916,165.758,468.912,166.424C466.908,167.09,464.904,167.449,462.901,167.349C460.897,167.249,458.893,166.688,456.889,166.94C454.885,167.192,452.881,168.256,450.877,169.064C448.873,169.872,446.869,170.424,444.865,170.964C442.862,171.504,440.858,172.033,438.854,172.191C436.85,172.35,434.846,172.138,432.842,172.152C430.838,172.166,428.834,172.405,426.83,173.271C424.826,174.136,422.823,175.628,420.819,176.567C418.815,177.507,416.811,177.893,414.807,178.13C412.803,178.367,410.799,178.453,408.795,179.097C406.791,179.742,404.787,180.943,402.784,182.11C400.78,183.278,398.776,184.411,396.772,184.779C394.768,185.146,392.764,184.747,390.76,185.092C388.756,185.438,386.752,186.527,384.749,186.92C382.745,187.313,380.741,187.009,378.737,187.378C376.733,187.747,374.729,188.789,372.725,189.602C370.721,190.416,368.717,191,366.713,191.701C364.71,192.402,362.706,193.219,360.702,194.22C358.698,195.221,356.694,196.406,354.69,197.532C352.686,198.659,350.682,199.726,348.678,200.349C346.674,200.972,344.671,201.149,342.667,202.163C340.663,203.176,338.659,205.025,336.655,206.121C334.651,207.217,332.647,207.56,330.643,208.087C328.639,208.614,326.635,209.326,324.632,210.09C322.628,210.854,320.624,211.67,318.62,212.325C316.616,212.981,314.612,213.476,312.608,213.714C310.604,213.953,308.6,213.936,306.596,214.717C304.593,215.498,302.589,217.078,300.585,218.256C298.581,219.435,296.577,220.212,294.573,221.44C292.569,222.669,290.565,224.348,288.561,225.326C286.557,226.304,284.554,226.58,282.55,227.012C280.546,227.443,278.542,228.03,276.538,228.749C274.534,229.468,272.53,230.319,270.526,231.339C268.522,232.359,266.518,233.548,264.515,234.691C262.511,235.834,260.507,236.931,258.503,238.012C256.499,239.093,254.495,240.158,252.491,241.539C250.487,242.92,248.483,244.617,246.479,245.8C244.476,246.983,242.472,247.651,240.468,248.109C238.464,248.566,236.46,248.813,234.456,249.472C232.452,250.131,230.448,251.203,228.444,251.952C226.44,252.701,224.437,253.127,222.433,253.994C220.429,254.86,218.425,256.166,216.421,257.247C214.417,258.328,212.413,259.183,210.409,260.394C208.405,261.605,206.401,263.172,204.398,263.879C202.394,264.586,200.39,264.434,198.386,265.039C196.382,265.644,194.378,267.008,192.374,268.219C190.37,269.43,188.366,270.49,186.362,271.488C184.359,272.487,182.355,273.424,180.351,274.47C178.347,275.515,176.343,276.669,174.339,278.151C172.335,279.634,170.331,281.444,168.327,283.08C166.323,284.716,164.319,286.178,162.316,287.31C160.312,288.442,158.308,289.244,156.304,289.977C154.3,290.71,152.296,291.375,150.292,292.006C148.288,292.636,146.284,293.232,144.281,293.703C142.277,294.175,140.273,294.522,138.269,295.379C136.265,296.236,134.261,297.604,132.257,298.336C130.253,299.069,128.249,299.168,126.245,299.499C124.242,299.831,122.238,300.395,120.234,301.038C118.23,301.68,116.226,302.402,114.222,302.94C112.218,303.479,110.214,303.835,108.21,304.493C106.206,305.15,104.203,306.11,102.199,306.991C100.195,307.871,98.191,308.674,96.187,309.727C94.183,310.779,92.179,312.082,90.175,313.263C88.171,314.443,86.167,315.503,84.164,316.749C82.16,317.995,80.156,319.427,78.152,320.818C76.148,322.209,74.144,323.559,72.14,324.422C70.136,325.286,68.132,325.663,66.128,325.687C64.125,325.711,62.121,325.381,60.117,325.11C58.113,324.839,56.109,324.626,54.105,324.459C52.101,324.292,50.097,324.171,48.093,323.403C46.089,322.635,44.086,321.22,42.082,320.614C40.078,320.008,38.074,320.212,36.07,319.146C34.066,318.08,32.062,315.745,30.058,312.651C28.054,309.556,26.05,305.702,24.047,301.377C22.043,297.052,20.039,292.255,18.035,286.89C16.031,281.526,14.027,275.593,12.023,268.104Z" fill="#B22B24" opacity="0.3"/></g></g><path class="foreground" aria-hidden="true" d="" display="none"/></g><g transform="translate(0,0)"><path class="background" aria-hidden="true" d="M0,0h600v400h-600Z"/><g><g class="mark-area role-mark layer_0_layer_0_marks" clip-path="url(#clip5)" role="graphics-object" aria-roledescription="area mark container"><path aria-label="Number of environment steps: 200.38k; Dormant neuron ratio (%): 25.6399651262; upper_Dormant neuron ratio: 26.6313795831; Width: 4096; Ci1 of Dormant neuron ratio: 26.6313795831; Ci0 of Dormant neuron ratio: 25.6399651262; Mean of Dormant neuron ratio: 26.1348020766" role="graphics-symbol" aria-roledescription="errorband" d="M12.023,217.159C14.027,224.015,16.031,230.013,18.035,234.538C20.039,239.064,22.043,242.116,24.047,244.654C26.05,247.192,28.054,249.216,30.058,250.106C32.062,250.996,34.066,250.752,36.07,249.683C38.074,248.614,40.078,246.721,42.082,244.73C44.086,242.74,46.089,240.652,48.093,238.312C50.097,235.971,52.101,233.379,54.105,231.306C56.109,229.232,58.113,227.678,60.117,225.801C62.121,223.924,64.125,221.726,66.128,219.264C68.132,216.802,70.136,214.076,72.14,211.744C74.144,209.413,76.148,207.475,78.152,206.027C80.156,204.58,82.16,203.622,84.164,202.541C86.167,201.46,88.171,200.256,90.175,199.577C92.179,198.898,94.183,198.744,96.187,198.345C98.191,197.947,100.195,197.304,102.199,196.446C104.203,195.588,106.206,194.513,108.21,193.026C110.214,191.54,112.218,189.64,114.222,188.135C116.226,186.631,118.23,185.521,120.234,184.795C122.238,184.069,124.242,183.726,126.245,182.992C128.249,182.258,130.253,181.133,132.257,179.851C134.261,178.57,136.265,177.132,138.269,175.904C140.273,174.677,142.277,173.659,144.281,172.79C146.284,171.921,148.288,171.2,150.292,170.318C152.296,169.435,154.3,168.392,156.304,167.597C158.308,166.803,160.312,166.257,162.316,165.299C164.319,164.34,166.323,162.968,168.327,161.893C170.331,160.818,172.335,160.039,174.339,159.14C176.343,158.24,178.347,157.22,180.351,156.291C182.355,155.363,184.359,154.527,186.362,153.281C188.366,152.036,190.37,150.382,192.374,148.864C194.378,147.346,196.382,145.965,198.386,144.687C200.39,143.41,202.394,142.235,204.398,141.359C206.401,140.484,208.405,139.907,210.409,138.557C212.413,137.207,214.417,135.083,216.421,132.991C218.425,130.899,220.429,128.839,222.433,127.294C224.437,125.748,226.44,124.717,228.444,123.718C230.448,122.718,232.452,121.751,234.456,120.206C236.46,118.661,238.464,116.539,240.468,115.013C242.472,113.487,244.476,112.556,246.479,111.557C248.483,110.557,250.487,109.49,252.491,108.977C254.495,108.465,256.499,108.508,258.503,107.98C260.507,107.451,262.511,106.352,264.515,105.515C266.518,104.679,268.522,104.105,270.526,102.928C272.53,101.751,274.534,99.971,276.538,98.679C278.542,97.386,280.546,96.581,282.55,95.495C284.554,94.408,286.557,93.041,288.561,91.963C290.565,90.886,292.569,90.097,294.573,89.462C296.577,88.827,298.581,88.345,300.585,87.563C302.589,86.781,304.593,85.698,306.596,85C308.6,84.301,310.604,83.988,312.608,83.646C314.612,83.305,316.616,82.936,318.62,82.837C320.624,82.738,322.628,82.91,324.632,82.093C326.635,81.275,328.639,79.47,330.643,78.159C332.647,76.848,334.651,76.033,336.655,74.909C338.659,73.785,340.663,72.353,342.667,71.824C344.671,71.294,346.674,71.668,348.678,72.093C350.682,72.517,352.686,72.993,354.69,73.487C356.694,73.98,358.698,74.491,360.702,74.022C362.706,73.553,364.71,72.103,366.713,70.553C368.717,69.002,370.721,67.351,372.725,67.028C374.729,66.705,376.733,67.709,378.737,67.515C380.741,67.32,382.745,65.927,384.749,64.455C386.752,62.983,388.756,61.433,390.76,59.536C392.764,57.64,394.768,55.398,396.772,53.396C398.776,51.394,400.78,49.634,402.784,49.044C404.787,48.455,406.791,49.036,408.795,49.568C410.799,50.1,412.803,50.582,414.807,50.81C416.811,51.037,418.815,51.011,420.819,51.1C422.823,51.19,424.826,51.395,426.83,50.55C428.834,49.705,430.838,47.809,432.842,47.278C434.846,46.747,436.85,47.58,438.854,48.526C440.858,49.473,442.862,50.533,444.865,50.567C446.869,50.601,448.873,49.61,450.877,48.585C452.881,47.56,454.885,46.501,456.889,45.893C458.893,45.284,460.897,45.125,462.901,45.324C464.904,45.523,466.908,46.08,468.912,45.42C470.916,44.761,472.92,42.885,474.924,41.257C476.928,39.629,478.932,38.248,480.936,37.05C482.94,35.852,484.944,34.837,486.947,34.57C488.951,34.303,490.955,34.784,492.959,34.574C494.963,34.363,496.967,33.462,498.971,32.356C500.975,31.251,502.979,29.942,504.983,28.959C506.986,27.976,508.99,27.318,510.994,25.997C512.998,24.677,515.002,22.694,517.006,21.899C519.01,21.104,521.014,21.497,523.018,21.345C525.022,21.193,527.025,20.496,529.029,20.034C531.033,19.571,533.037,19.342,535.041,18.634C537.045,17.927,539.049,16.74,541.053,16.159C543.057,15.579,545.06,15.606,547.064,15.412C549.068,15.218,551.072,14.803,553.076,14.29C555.08,13.776,557.084,13.163,559.088,12.884C561.092,12.604,563.096,12.657,565.099,12.952C567.103,13.248,569.107,13.785,571.111,14.018C573.115,14.251,575.119,14.179,577.123,14.318C579.127,14.457,581.131,14.807,583.135,14.347C585.139,13.888,587.142,12.619,589.146,12.164L589.146,6.073C587.142,6.37,585.139,6.339,583.135,6.54C581.131,6.742,579.127,7.176,577.123,7.265C575.119,7.354,573.115,7.098,571.111,6.823C569.107,6.548,567.103,6.254,565.099,5.914C563.096,5.574,561.092,5.189,559.088,5.599C557.084,6.009,555.08,7.214,553.076,7.556C551.072,7.897,549.068,7.373,547.064,7.246C545.06,7.118,543.057,7.386,541.053,7.922C539.049,8.459,537.045,9.264,535.041,9.776C533.037,10.289,531.033,10.508,529.029,11.279C527.025,12.051,525.022,13.374,523.018,13.999C521.014,14.623,519.01,14.549,517.006,14.645C515.002,14.742,512.998,15.01,510.994,15.442C508.99,15.875,506.986,16.473,504.983,17.274C502.979,18.075,500.975,19.079,498.971,19.489C496.967,19.899,494.963,19.714,492.959,20.08C490.955,20.446,488.951,21.362,486.947,21.932C484.944,22.501,482.94,22.723,480.936,23.133C478.932,23.543,476.928,24.141,474.924,24.828C472.92,25.515,470.916,26.29,468.912,26.786C466.908,27.282,464.904,27.497,462.901,27.758C460.897,28.019,458.893,28.325,456.889,28.599C454.885,28.874,452.881,29.117,450.877,29.57C448.873,30.024,446.869,30.687,444.865,31.361C442.862,32.035,440.858,32.72,438.854,33.141C436.85,33.562,434.846,33.718,432.842,34.452C430.838,35.186,428.834,36.498,426.83,36.942C424.826,37.387,422.823,36.965,420.819,37.396C418.815,37.826,416.811,39.11,414.807,39.973C412.803,40.836,410.799,41.279,408.795,41.575C406.791,41.87,404.787,42.018,402.784,42.157C400.78,42.297,398.776,42.43,396.772,43.002C394.768,43.575,392.764,44.588,390.76,45.435C388.756,46.283,386.752,46.965,384.749,47.699C382.745,48.434,380.741,49.22,378.737,49.72C376.733,50.219,374.729,50.431,372.725,50.881C370.721,51.331,368.717,52.018,366.713,53.016C364.71,54.015,362.706,55.324,360.702,56.046C358.698,56.768,356.694,56.903,354.69,56.817C352.686,56.731,350.682,56.425,348.678,56.645C346.674,56.864,344.671,57.609,342.667,58.727C340.663,59.845,338.659,61.335,336.655,62.636C334.651,63.937,332.647,65.049,330.643,66.389C328.639,67.73,326.635,69.299,324.632,70.132C322.628,70.965,320.624,71.061,318.62,71.611C316.616,72.16,314.612,73.164,312.608,73.923C310.604,74.683,308.6,75.199,306.596,75.981C304.593,76.764,302.589,77.813,300.585,78.616C298.581,79.419,296.577,79.976,294.573,80.069C292.569,80.162,290.565,79.791,288.561,80.04C286.557,80.29,284.554,81.16,282.55,82.067C280.546,82.975,278.542,83.919,276.538,84.803C274.534,85.687,272.53,86.51,270.526,87.647C268.522,88.784,266.518,90.236,264.515,91.421C262.511,92.607,260.507,93.528,258.503,94.247C256.499,94.966,254.495,95.482,252.491,96.333C250.487,97.183,248.483,98.367,246.479,99.634C244.476,100.901,242.472,102.252,240.468,103.222C238.464,104.192,236.46,104.783,234.456,105.511C232.452,106.239,230.448,107.103,228.444,108.37C226.44,109.637,224.437,111.305,222.433,112.555C220.429,113.805,218.425,114.635,216.421,115.96C214.417,117.286,212.413,119.106,210.409,120.422C208.405,121.739,206.401,122.552,204.398,123.711C202.394,124.87,200.39,126.375,198.386,127.285C196.382,128.195,194.378,128.51,192.374,129.45C190.37,130.389,188.366,131.954,186.362,133.538C184.359,135.122,182.355,136.725,180.351,137.681C178.347,138.636,176.343,138.944,174.339,139.92C172.335,140.896,170.331,142.54,168.327,143.692C166.323,144.844,164.319,145.504,162.316,145.978C160.312,146.451,158.308,146.738,156.304,147.596C154.3,148.453,152.296,149.88,150.292,151.014C148.288,152.147,146.284,152.986,144.281,153.841C142.277,154.696,140.273,155.566,138.269,156.986C136.265,158.406,134.261,160.377,132.257,161.664C130.253,162.951,128.249,163.553,126.245,163.959C124.242,164.365,122.238,164.575,120.234,164.707C118.23,164.839,116.226,164.894,114.222,165.622C112.218,166.351,110.214,167.752,108.21,169.042C106.206,170.333,104.203,171.513,102.199,172.254C100.195,172.996,98.191,173.3,96.187,174.345C94.183,175.39,92.179,177.176,90.175,178.628C88.171,180.081,86.167,181.199,84.164,182.29C82.16,183.381,80.156,184.444,78.152,186.014C76.148,187.585,74.144,189.661,72.14,192.099C70.136,194.537,68.132,197.336,66.128,200.132C64.125,202.928,62.121,205.721,60.117,207.912C58.113,210.104,56.109,211.693,54.105,213.314C52.101,214.935,50.097,216.587,48.093,218.187C46.089,219.786,44.086,221.333,42.082,223.539C40.078,225.744,38.074,228.609,36.07,230.311C34.066,232.013,32.062,232.552,30.058,232.386C28.054,232.22,26.05,231.348,24.047,229.508C22.043,227.669,20.039,224.861,18.035,221.116C16.031,217.371,14.027,212.688,12.023,206.837Z" fill="#7A1F18" opacity="0.3"/></g></g><path class="foreground" aria-hidden="true" d="" display="none"/></g></g><g class="mark-group role-scope layer_1_pathgroup" role="graphics-object" aria-roledescription="group mark container"><g transform="translate(0,0)"><path class="background" aria-hidden="true" d="M0,0h600v400h-600Z"/><g><g class="mark-line role-mark layer_1_marks" clip-path="url(#clip6)" role="graphics-object" aria-roledescription="line mark container"><path aria-label="Number of environment steps: 200.38k; Dormant neuron ratio (%): 9.6875002861; Width: 256" role="graphics-symbol" aria-roledescription="line mark" d="M12.023,333.073C14.027,336.215,16.031,338.785,18.035,341.094C20.039,343.403,22.043,345.451,24.047,347.049C26.05,348.646,28.054,349.792,30.058,350.712C32.062,351.632,34.066,352.326,36.07,353.003C38.074,353.681,40.078,354.34,42.082,355.434C44.086,356.528,46.089,358.056,48.093,359.062C50.097,360.069,52.101,360.556,54.105,361.25C56.109,361.944,58.113,362.847,60.117,363.698C62.121,364.549,64.125,365.347,66.128,365.92C68.132,366.493,70.136,366.84,72.14,366.962C74.144,367.083,76.148,366.979,78.152,367.135C80.156,367.292,82.16,367.708,84.164,368.194C86.167,368.681,88.171,369.236,90.175,369.601C92.179,369.965,94.183,370.139,96.187,370.503C98.191,370.868,100.195,371.424,102.199,371.771C104.203,372.118,106.206,372.257,108.21,372.326C110.214,372.396,112.218,372.396,114.222,372.5C116.226,372.604,118.23,372.812,120.234,372.847C122.238,372.882,124.242,372.743,126.245,372.743C128.249,372.743,130.253,372.882,132.257,372.899C134.261,372.917,136.265,372.812,138.269,372.812C140.273,372.812,142.277,372.917,144.281,372.951C146.284,372.986,148.288,372.951,150.292,373.003C152.296,373.056,154.3,373.194,156.304,373.507C158.308,373.819,160.312,374.306,162.316,374.635C164.319,374.965,166.323,375.139,168.327,375.174C170.331,375.208,172.335,375.104,174.339,375.122C176.343,375.139,178.347,375.278,180.351,375.399C182.355,375.521,184.359,375.625,186.362,375.799C188.366,375.972,190.37,376.215,192.374,376.51C194.378,376.806,196.382,377.153,198.386,377.587C200.39,378.021,202.394,378.542,204.398,378.75C206.401,378.958,208.405,378.854,210.409,378.924C212.413,378.993,214.417,379.236,216.421,379.306C218.425,379.375,220.429,379.271,222.433,379.323C224.437,379.375,226.44,379.583,228.444,379.774C230.448,379.965,232.452,380.139,234.456,380.226C236.46,380.312,238.464,380.312,240.468,380.191C242.472,380.069,244.476,379.826,246.479,379.601C248.483,379.375,250.487,379.167,252.491,379.288C254.495,379.41,256.499,379.861,258.503,380.017C260.507,380.174,262.511,380.035,264.515,379.826C266.518,379.618,268.522,379.34,270.526,379.201C272.53,379.062,274.534,379.062,276.538,379.184C278.542,379.306,280.546,379.549,282.55,379.462C284.554,379.375,286.557,378.958,288.561,378.594C290.565,378.229,292.569,377.917,294.573,377.847C296.577,377.778,298.581,377.951,300.585,377.882C302.589,377.812,304.593,377.5,306.596,377.257C308.6,377.014,310.604,376.84,312.608,376.719C314.612,376.597,316.616,376.528,318.62,376.649C320.624,376.771,322.628,377.083,324.632,377.049C326.635,377.014,328.639,376.632,330.643,376.562C332.647,376.493,334.651,376.736,336.655,376.649C338.659,376.562,340.663,376.146,342.667,376.354C344.671,376.562,346.674,377.396,348.678,377.448C350.682,377.5,352.686,376.771,354.69,376.667C356.694,376.562,358.698,377.083,360.702,377.309C362.706,377.535,364.71,377.465,366.713,377.361C368.717,377.257,370.721,377.118,372.725,377.153C374.729,377.187,376.733,377.396,378.737,377.448C380.741,377.5,382.745,377.396,384.749,377.24C386.752,377.083,388.756,376.875,390.76,376.667C392.764,376.458,394.768,376.25,396.772,376.267C398.776,376.285,400.78,376.528,402.784,377.569C404.787,378.611,406.791,380.451,407.793,380.388C408.795,380.324,408.795,378.356,409.797,377.662C410.799,376.968,412.803,377.546,413.805,377.24C414.807,376.935,414.807,375.744,415.809,375.455C416.811,375.165,418.815,375.777,419.817,375.728C420.819,375.678,420.819,374.967,421.821,375.488C422.823,376.009,424.826,377.761,425.828,377.662C426.83,377.563,426.83,375.612,427.832,375.554C428.834,375.496,430.838,377.331,431.84,377.406C432.842,377.48,432.842,375.794,433.844,376.025C434.846,376.257,436.85,378.406,437.852,378.431C438.854,378.456,438.854,376.356,439.856,376.529C440.858,376.703,442.861,379.15,443.863,379.001C444.865,378.853,444.865,376.108,445.867,376.224C446.869,376.339,448.873,379.315,449.875,379.241C450.877,379.167,450.877,376.042,451.879,375.868C452.881,375.694,454.885,378.472,455.887,378.423C456.889,378.373,456.889,375.496,457.891,375.149C458.893,374.802,460.897,376.984,461.898,377.207C462.9,377.431,462.901,375.694,463.902,375.81C464.904,375.926,466.908,377.894,467.91,377.596C468.912,377.298,468.912,374.735,469.914,374.678C470.916,374.62,472.92,377.067,473.922,377.191C474.924,377.315,474.924,375.116,475.926,375C476.928,374.884,478.932,376.852,479.934,376.951C480.936,377.05,480.936,375.281,481.938,374.818C482.939,374.355,484.943,375.198,485.945,375.248C486.947,375.298,486.947,374.554,487.949,374.611C488.951,374.669,490.955,375.529,491.957,375.231C492.959,374.934,492.959,373.479,493.961,373.768C494.963,374.058,496.967,376.091,497.969,376.389C498.971,376.687,498.971,375.248,499.973,374.959C500.975,374.669,502.978,375.529,503.98,375.43C504.982,375.331,504.982,374.272,505.984,374.33C506.986,374.388,508.99,375.562,509.992,375.562C510.994,375.562,510.994,374.388,511.996,374.909C512.998,375.43,515.002,377.646,516.004,377.745C517.006,377.844,517.006,375.827,518.008,375.537C519.01,375.248,521.014,376.687,522.015,376.538C523.017,376.389,523.018,374.653,524.019,375.174C525.021,375.694,527.025,378.472,528.027,378.241C529.029,378.009,529.029,374.769,530.031,374.213C531.033,373.657,533.037,375.787,534.039,375.949C535.041,376.111,535.041,374.306,536.043,374.097C537.045,373.889,539.049,375.278,540.051,375.486C541.052,375.694,541.053,374.722,542.055,374.479C543.057,374.236,545.06,374.722,546.062,374.375C547.064,374.028,547.064,372.847,548.066,373.16C549.068,373.472,551.072,375.278,552.074,375.104C553.076,374.931,553.076,372.778,554.078,372.604C555.08,372.431,557.084,374.236,558.086,374.271C559.088,374.306,559.088,372.569,560.09,372.674C561.092,372.778,563.095,374.722,564.097,375C565.099,375.278,565.099,373.889,566.101,373.646C567.103,373.403,569.107,374.306,570.109,374.444C571.111,374.583,571.111,373.958,572.113,373.681C573.115,373.403,575.119,373.472,576.121,373.472C577.123,373.472,577.123,373.403,578.125,374.109C579.127,374.815,581.13,376.296,582.132,375.663C583.134,375.029,583.135,372.28,584.136,372.454C585.138,372.627,587.142,375.723,588.144,375.593C589.146,375.463,589.146,372.106,590.148,371.933C591.15,371.759,593.154,374.769,594.156,374.855" stroke="#FF5F33" stroke-width="2"/></g></g><path class="foreground" aria-hidden="true" d="" display="none"/></g><g transform="translate(0,0)"><path class="background" aria-hidden="true" d="M0,0h600v400h-600Z"/><g><g class="mark-line role-mark layer_1_marks" clip-path="url(#clip7)" role="graphics-object" aria-roledescription="line mark container"><path aria-label="Number of environment steps: 200.38k; Dormant neuron ratio (%): 11.0221357346; Width: 512" role="graphics-symbol" aria-roledescription="line mark" d="M12.023,327.552C14.027,332.448,16.031,336.823,18.035,340.139C20.039,343.455,22.043,345.712,24.047,347.613C26.05,349.514,28.054,351.059,30.058,352.578C32.062,354.097,34.066,355.59,36.07,357.04C38.074,358.49,40.078,359.896,42.082,361.285C44.086,362.674,46.089,364.045,48.093,365.373C50.097,366.701,52.101,367.986,54.105,369.036C56.109,370.087,58.113,370.903,60.117,371.745C62.121,372.587,64.125,373.455,66.128,374.193C68.132,374.931,70.136,375.538,72.14,376.05C74.144,376.562,76.148,376.979,78.152,377.387C80.156,377.795,82.16,378.194,84.164,378.611C86.167,379.028,88.171,379.462,90.175,379.67C92.179,379.878,94.183,379.861,96.187,380.165C98.191,380.469,100.195,381.094,102.199,381.328C104.203,381.562,106.206,381.406,108.21,381.606C110.214,381.806,112.218,382.361,114.222,382.795C116.226,383.229,118.23,383.542,120.234,383.646C122.238,383.75,124.242,383.646,126.245,383.568C128.249,383.49,130.253,383.437,132.257,383.594C134.261,383.75,136.265,384.115,138.269,384.245C140.273,384.375,142.277,384.271,144.281,384.34C146.284,384.41,148.288,384.653,150.292,384.661C152.296,384.67,154.3,384.444,156.304,384.262C158.308,384.08,160.312,383.941,162.316,383.95C164.319,383.958,166.323,384.115,168.327,384.21C170.331,384.306,172.335,384.34,174.339,384.175C176.343,384.01,178.347,383.646,180.351,383.559C182.355,383.472,184.359,383.663,186.362,383.542C188.366,383.42,190.37,382.986,192.374,382.83C194.378,382.674,196.382,382.795,198.386,382.656C200.39,382.517,202.394,382.118,204.398,381.806C206.401,381.493,208.405,381.267,210.409,381.259C212.413,381.25,214.417,381.458,216.421,381.415C218.425,381.372,220.429,381.076,222.433,380.981C224.437,380.885,226.44,380.99,228.444,380.885C230.448,380.781,232.452,380.469,234.456,380.286C236.46,380.104,238.464,380.052,240.468,379.957C242.472,379.861,244.476,379.722,246.479,379.661C248.483,379.601,250.487,379.618,252.491,379.523C254.495,379.427,256.499,379.219,258.503,379.002C260.507,378.785,262.511,378.559,264.515,378.446C266.518,378.333,268.522,378.333,270.526,378.22C272.53,378.108,274.534,377.882,276.538,377.778C278.542,377.674,280.546,377.691,282.55,377.622C284.554,377.552,286.557,377.396,288.561,377.448C290.565,377.5,292.569,377.76,294.573,377.717C296.577,377.674,298.581,377.326,300.585,377.248C302.589,377.17,304.593,377.361,306.596,377.231C308.6,377.101,310.604,376.649,312.608,376.233C314.612,375.816,316.616,375.434,318.62,375.243C320.624,375.052,322.628,375.052,324.632,374.722C326.635,374.392,328.639,373.733,330.643,373.481C332.647,373.229,334.651,373.385,336.655,373.394C338.659,373.403,340.663,373.264,342.667,373.056C344.671,372.847,346.674,372.569,348.678,372.214C350.682,371.858,352.686,371.424,354.69,370.877C356.694,370.33,358.698,369.67,360.702,369.444C362.706,369.219,364.71,369.427,366.713,369.653C368.717,369.878,370.721,370.122,372.725,370.243C374.729,370.365,376.733,370.365,378.737,370.191C380.741,370.017,382.745,369.67,384.749,369.34C386.752,369.01,388.756,368.698,390.76,368.446C392.764,368.194,394.768,368.003,396.772,367.821C398.776,367.639,400.78,367.465,402.784,367.448C404.787,367.431,406.791,367.569,408.795,367.526C410.799,367.483,412.803,367.257,414.807,366.727C416.811,366.198,418.815,365.365,420.819,365.182C422.823,365,424.826,365.469,426.83,365.59C428.834,365.712,430.838,365.486,432.842,365.408C434.846,365.33,436.85,365.399,438.854,365.391C440.858,365.382,442.862,365.295,444.865,365.321C446.869,365.347,448.873,365.486,450.877,365.295C452.881,365.104,454.885,364.583,456.889,364.41C458.893,364.236,460.897,364.41,462.901,364.245C464.904,364.08,466.908,363.576,468.912,363.247C470.916,362.917,472.92,362.76,474.924,362.648C476.928,362.535,478.932,362.465,480.936,362.344C482.94,362.222,484.944,362.049,486.947,361.806C488.951,361.562,490.955,361.25,492.959,360.955C494.963,360.66,496.967,360.382,498.971,360.087C500.975,359.792,502.979,359.479,504.983,359.253C506.986,359.028,508.99,358.889,510.994,358.733C512.998,358.576,515.002,358.403,517.006,358.307C519.01,358.212,521.014,358.194,523.018,358.151C525.022,358.108,527.025,358.038,529.029,358.056C531.033,358.073,533.037,358.177,535.041,358.038C537.045,357.899,539.049,357.517,541.053,357.3C543.057,357.083,545.06,357.031,547.064,356.788C549.068,356.545,551.072,356.111,553.076,355.981C555.08,355.851,557.084,356.024,559.088,355.738C561.092,355.451,563.096,354.705,565.099,354.193C567.103,353.681,569.107,353.403,571.111,353.247C573.115,353.09,575.119,353.056,577.123,353.22C579.127,353.385,581.131,353.75,583.135,353.906C585.139,354.062,587.142,354.01,589.146,353.811" stroke="#FF4B33" stroke-width="2"/></g></g><path class="foreground" aria-hidden="true" d="" display="none"/></g><g transform="translate(0,0)"><path class="background" aria-hidden="true" d="M0,0h600v400h-600Z"/><g><g class="mark-line role-mark layer_1_marks" clip-path="url(#clip8)" role="graphics-object" aria-roledescription="line mark container"><path aria-label="Number of environment steps: 200.38k; Dormant neuron ratio (%): 13.684896183; Width: 1024" role="graphics-symbol" aria-roledescription="line mark" d="M12.023,310.148C14.027,315.816,16.031,320.174,18.035,324.149C20.039,328.125,22.043,331.719,24.047,334.974C26.05,338.229,28.054,341.146,30.058,344.054C32.062,346.962,34.066,349.861,36.07,352.127C38.074,354.392,40.078,356.024,42.082,356.962C44.086,357.899,46.089,358.142,48.093,359.149C50.097,360.156,52.101,361.927,54.105,363.286C56.109,364.644,58.113,365.59,60.117,366.319C62.121,367.049,64.125,367.561,66.128,367.743C68.132,367.925,70.136,367.778,72.14,367.708C74.144,367.639,76.148,367.648,78.152,367.452C80.156,367.257,82.16,366.858,84.164,366.267C86.167,365.677,88.171,364.896,90.175,364.384C92.179,363.872,94.183,363.628,96.187,363.451C98.191,363.273,100.195,363.16,102.199,362.496C104.203,361.832,106.206,360.616,108.21,359.709C110.214,358.802,112.218,358.203,114.222,357.626C116.226,357.049,118.23,356.493,120.234,355.981C122.238,355.469,124.242,355,126.245,354.792C128.249,354.583,130.253,354.635,132.257,354.848C134.261,355.061,136.265,355.434,138.269,355.725C140.273,356.016,142.277,356.224,144.281,356.155C146.284,356.085,148.288,355.738,150.292,355.677C152.296,355.616,154.3,355.842,156.304,355.768C158.308,355.694,160.312,355.321,162.316,355.308C164.319,355.295,166.323,355.642,168.327,355.694C170.331,355.747,172.335,355.503,174.339,355.499C176.343,355.495,178.347,355.729,180.351,355.599C182.355,355.469,184.359,354.974,186.362,354.579C188.366,354.184,190.37,353.889,192.374,353.75C194.378,353.611,196.382,353.628,198.386,353.312C200.39,352.995,202.394,352.344,204.398,351.858C206.401,351.372,208.405,351.05,210.409,351.246C212.413,351.441,214.417,352.153,216.421,352.279C218.425,352.405,220.429,351.944,222.433,351.45C224.437,350.955,226.44,350.425,228.444,349.952C230.448,349.479,232.452,349.062,234.456,348.806C236.46,348.55,238.464,348.455,240.468,348.355C242.472,348.255,244.476,348.151,246.479,347.891C248.483,347.63,250.487,347.214,252.491,346.784C254.495,346.354,256.499,345.911,258.503,345.699C260.507,345.486,262.511,345.503,264.515,345.035C266.518,344.566,268.522,343.611,270.526,342.882C272.53,342.153,274.534,341.649,276.538,341.102C278.542,340.556,280.546,339.965,282.55,339.709C284.554,339.453,286.557,339.531,288.561,339.484C290.565,339.436,292.569,339.262,294.573,338.859C296.577,338.455,298.581,337.821,300.585,337.24C302.589,336.658,304.593,336.128,306.596,335.66C308.6,335.191,310.604,334.783,312.608,334.293C314.612,333.802,316.616,333.229,318.62,332.904C320.624,332.578,322.628,332.5,324.632,332.283C326.635,332.066,328.639,331.71,330.643,331.215C332.647,330.72,334.651,330.087,336.655,329.792C338.659,329.497,340.663,329.54,342.667,329.297C344.671,329.054,346.674,328.524,348.678,328.147C350.682,327.769,352.686,327.543,354.69,327.109C356.694,326.675,358.698,326.033,360.702,325.434C362.706,324.835,364.71,324.28,366.713,323.932C368.717,323.585,370.721,323.446,372.725,323.177C374.729,322.908,376.733,322.509,378.737,322.539C380.741,322.569,382.745,323.03,384.749,322.483C386.752,321.936,388.756,320.382,390.76,319.327C392.764,318.273,394.768,317.717,396.772,317.183C398.776,316.649,400.78,316.137,402.784,315.499C404.787,314.861,406.791,314.097,408.795,313.711C410.799,313.325,412.803,313.316,414.807,313.234C416.811,313.151,418.815,312.995,420.819,312.439C422.823,311.884,424.826,310.929,426.83,310.595C428.834,310.26,430.838,310.547,432.842,310.178C434.846,309.809,436.85,308.785,438.854,308.134C440.858,307.483,442.862,307.205,444.865,307.227C446.869,307.248,448.873,307.569,450.877,307.118C452.881,306.667,454.885,305.443,456.889,304.913C458.893,304.384,460.897,304.549,462.901,304.327C464.904,304.106,466.908,303.498,468.912,302.873C470.916,302.248,472.92,301.606,474.924,300.959C476.928,300.312,478.932,299.661,480.936,299.128C482.94,298.594,484.944,298.177,486.947,297.917C488.951,297.656,490.955,297.552,492.959,297.253C494.963,296.953,496.967,296.458,498.971,296.306C500.975,296.155,502.979,296.345,504.983,295.894C506.986,295.443,508.99,294.349,510.994,293.446C512.998,292.543,515.002,291.832,517.006,291.328C519.01,290.825,521.014,290.53,523.018,290.49C525.022,290.451,527.025,290.668,529.029,290.425C531.033,290.182,533.037,289.479,535.041,288.694C537.045,287.908,539.049,287.04,541.053,286.111C543.057,285.182,545.06,284.193,547.064,283.841C549.068,283.49,551.072,283.776,553.076,283.741C555.08,283.707,557.084,283.351,559.088,282.756C561.092,282.161,563.096,281.328,565.099,281.102C567.103,280.877,569.107,281.259,571.111,281.506C573.115,281.753,575.119,281.866,577.123,281.536C579.127,281.207,581.131,280.434,583.135,280.065C585.139,279.696,587.142,279.731,589.146,279.766" stroke="#E0392D" stroke-width="2"/></g></g><path class="foreground" aria-hidden="true" d="" display="none"/></g><g transform="translate(0,0)"><path class="background" aria-hidden="true" d="M0,0h600v400h-600Z"/><g><g class="mark-line role-mark layer_1_marks" clip-path="url(#clip9)" role="graphics-object" aria-roledescription="line mark container"><path aria-label="Number of environment steps: 200.38k; Dormant neuron ratio (%): 18.8183597565; Width: 2048" role="graphics-symbol" aria-roledescription="line mark" d="M12.023,275.935C14.027,283.424,16.031,288.906,18.035,293.917C20.039,298.928,22.043,303.468,24.047,307.587C26.05,311.706,28.054,315.404,30.058,318.184C32.062,320.964,34.066,322.826,36.07,324.052C38.074,325.278,40.078,325.868,42.082,326.586C44.086,327.305,46.089,328.151,48.093,328.711C50.097,329.271,52.101,329.544,54.105,329.768C56.109,329.991,58.113,330.165,60.117,330.339C62.121,330.512,64.125,330.686,66.128,330.538C68.132,330.391,70.136,329.922,72.14,329.219C74.144,328.516,76.148,327.578,78.152,326.493C80.156,325.408,82.16,324.175,84.164,323.049C86.167,321.923,88.171,320.903,90.175,319.998C92.179,319.093,94.183,318.303,96.187,317.539C98.191,316.775,100.195,316.037,102.199,315.286C104.203,314.536,106.206,313.772,108.21,313.429C110.214,313.086,112.218,313.164,114.222,312.756C116.226,312.348,118.23,311.454,120.234,310.72C122.238,309.987,124.242,309.414,126.245,309.026C128.249,308.637,130.253,308.433,132.257,307.925C134.261,307.418,136.265,306.606,138.269,306.072C140.273,305.538,142.277,305.282,144.281,304.8C146.284,304.319,148.288,303.611,150.292,302.984C152.296,302.357,154.3,301.81,156.304,301.098C158.308,300.386,160.312,299.51,162.316,298.357C164.319,297.205,166.323,295.777,168.327,294.286C170.331,292.795,172.335,291.241,174.339,289.933C176.343,288.624,178.347,287.561,180.351,286.595C182.355,285.629,184.359,284.761,186.362,283.783C188.366,282.804,190.37,281.714,192.374,280.642C194.378,279.57,196.382,278.516,198.386,277.83C200.39,277.144,202.394,276.827,204.398,276.118C206.401,275.408,208.405,274.306,210.409,273.006C212.413,271.706,214.417,270.208,216.421,269.058C218.425,267.908,220.429,267.105,222.433,266.374C224.437,265.642,226.44,264.983,228.444,264.312C230.448,263.641,232.452,262.96,234.456,262.376C236.46,261.793,238.464,261.306,240.468,260.347C242.472,259.388,244.476,257.956,246.479,256.684C248.483,255.412,250.487,254.301,252.491,253.303C254.495,252.305,256.499,251.419,258.503,250.508C260.507,249.596,262.511,248.659,264.515,247.407C266.518,246.155,268.522,244.588,270.526,243.498C272.53,242.409,274.534,241.797,276.538,241.246C278.542,240.694,280.546,240.204,282.55,239.64C284.554,239.076,286.557,238.437,288.561,237.611C290.565,236.784,292.569,235.768,294.573,234.657C296.577,233.546,298.581,232.339,300.585,230.957C302.589,229.575,304.593,228.016,306.596,227.101C308.6,226.185,310.604,225.911,312.608,225.284C314.612,224.657,316.616,223.676,318.62,222.869C320.624,222.062,322.628,221.428,324.632,220.647C326.635,219.865,328.639,218.937,330.643,218.362C332.647,217.786,334.651,217.565,336.655,216.78C338.659,215.994,340.663,214.644,342.667,213.626C344.671,212.609,346.674,211.923,348.678,211.263C350.682,210.603,352.686,209.97,354.69,209.188C356.694,208.407,358.698,207.478,360.702,206.302C362.706,205.126,364.71,203.702,366.713,202.843C368.717,201.984,370.721,201.688,372.725,200.788C374.729,199.887,376.733,198.381,378.737,197.958C380.741,197.535,382.745,198.194,384.749,198.327C386.752,198.459,388.756,198.064,390.76,197.5C392.764,196.936,394.768,196.202,396.772,195.523C398.776,194.844,400.78,194.219,402.784,193.461C404.787,192.704,406.791,191.814,408.795,191.126C410.799,190.438,412.803,189.952,414.807,189.434C416.811,188.915,418.815,188.364,420.819,187.48C422.823,186.597,424.826,185.382,426.83,184.403C428.834,183.424,430.838,182.682,432.842,182.316C434.846,181.949,436.85,181.957,438.854,181.938C440.858,181.918,442.862,181.871,444.865,181.643C446.869,181.415,448.873,181.007,450.877,180.321C452.881,179.635,454.885,178.672,456.889,178.22C458.893,177.769,460.897,177.83,462.901,177.695C464.904,177.561,466.908,177.231,468.912,176.678C470.916,176.124,472.92,175.347,474.924,174.531C476.928,173.715,478.932,172.86,480.936,171.842C482.94,170.825,484.944,169.644,486.947,168.652C488.951,167.661,490.955,166.858,492.959,166.059C494.963,165.26,496.967,164.466,498.971,164.199C500.975,163.932,502.979,164.193,504.983,163.806C506.986,163.42,508.99,162.387,510.994,161.424C512.998,160.46,515.002,159.566,517.006,158.859C519.01,158.151,521.014,157.63,523.018,157.465C525.022,157.3,527.025,157.491,529.029,157.431C531.033,157.37,533.037,157.057,535.041,156.895C537.045,156.732,539.049,156.719,541.053,156.775C543.057,156.832,545.06,156.957,547.064,156.504C549.068,156.05,551.072,155.017,553.076,154.444C555.08,153.872,557.084,153.759,559.088,153.294C561.092,152.83,563.096,152.014,565.099,151.595C567.103,151.176,569.107,151.155,571.111,151.089C573.115,151.024,575.119,150.916,577.123,150.755C579.127,150.595,581.131,150.382,583.135,149.789C585.139,149.197,587.142,148.225,589.146,147.563" stroke="#B22B24" stroke-width="2"/></g></g><path class="foreground" aria-hidden="true" d="" display="none"/></g><g transform="translate(0,0)"><path class="background" aria-hidden="true" d="M0,0h600v400h-600Z"/><g><g class="mark-line role-mark layer_1_marks" clip-path="url(#clip10)" role="graphics-object" aria-roledescription="line mark container"><path aria-label="Number of environment steps: 200.38k; Dormant neuron ratio (%): 26.1348020766; Width: 4096" role="graphics-symbol" aria-roledescription="line mark" d="M12.023,212.199C14.027,218.526,16.031,223.705,18.035,227.752C20.039,231.8,22.043,234.715,24.047,236.939C26.05,239.164,28.054,240.697,30.058,241.276C32.062,241.855,34.066,241.479,36.07,240.183C38.074,238.886,40.078,236.671,42.082,234.773C44.086,232.875,46.089,231.296,48.093,229.282C50.097,227.269,52.101,224.822,54.105,222.83C56.109,220.838,58.113,219.302,60.117,217.314C62.121,215.326,64.125,212.886,66.128,210.485C68.132,208.085,70.136,205.724,72.14,203.47C74.144,201.215,76.148,199.067,78.152,197.413C80.156,195.759,82.16,194.599,84.164,193.521C86.167,192.443,88.171,191.447,90.175,190.449C92.179,189.451,94.183,188.45,96.187,187.554C98.191,186.658,100.195,185.868,102.199,184.948C104.203,184.028,106.206,182.979,108.21,181.707C110.214,180.435,112.218,178.94,114.222,177.873C116.226,176.806,118.23,176.167,120.234,175.731C122.238,175.294,124.242,175.06,126.245,174.513C128.249,173.966,130.253,173.105,132.257,171.945C134.261,170.785,136.265,169.326,138.269,168.164C140.273,167.002,142.277,166.136,144.281,165.168C146.284,164.2,148.288,163.129,150.292,162.048C152.296,160.966,154.3,159.874,156.304,159.066C158.308,158.259,160.312,157.735,162.316,156.94C164.319,156.144,166.323,155.076,168.327,154.051C170.331,153.026,172.335,152.045,174.339,151.014C176.343,149.983,178.347,148.903,180.351,147.905C182.355,146.906,184.359,145.99,186.362,144.683C188.366,143.376,190.37,141.679,192.374,140.292C194.378,138.906,196.382,137.83,198.386,136.841C200.39,135.851,202.394,134.946,204.398,134.053C206.401,133.16,208.405,132.277,210.409,130.947C212.413,129.618,214.417,127.84,216.421,126.124C218.425,124.407,220.429,122.75,222.433,121.265C224.437,119.78,226.44,118.465,228.444,117.339C230.448,116.213,232.452,115.275,234.456,114.069C236.46,112.862,238.464,111.386,240.468,110.168C242.472,108.951,244.476,107.991,246.479,106.864C248.483,105.736,250.487,104.442,252.491,103.587C254.495,102.732,256.499,102.317,258.503,101.739C260.507,101.16,262.511,100.417,264.515,99.589C266.518,98.761,268.522,97.847,270.526,96.622C272.53,95.397,274.534,93.861,276.538,92.603C278.542,91.346,280.546,90.367,282.55,89.278C284.554,88.19,286.557,86.991,288.561,86.216C290.565,85.441,292.569,85.089,294.573,84.638C296.577,84.187,298.581,83.637,300.585,82.89C302.589,82.142,304.593,81.197,306.596,80.496C308.6,79.796,310.604,79.34,312.608,78.787C314.612,78.233,316.616,77.582,318.62,77.215C320.624,76.847,322.628,76.763,324.632,75.968C326.635,75.174,328.639,73.669,330.643,72.424C332.647,71.178,334.651,70.192,336.655,69.047C338.659,67.901,340.663,66.597,342.667,65.707C344.671,64.817,346.674,64.342,348.678,64.277C350.682,64.212,352.686,64.557,354.69,64.745C356.694,64.933,358.698,64.964,360.702,64.357C362.706,63.749,364.71,62.502,366.713,61.29C368.717,60.077,370.721,58.898,372.725,58.462C374.729,58.027,376.733,58.336,378.737,57.946C380.741,57.557,382.745,56.469,384.749,55.333C386.752,54.196,388.756,53.009,390.76,51.798C392.764,50.586,394.768,49.349,396.772,48.24C398.776,47.131,400.78,46.149,402.784,45.756C404.787,45.363,406.791,45.558,408.795,45.675C410.799,45.792,412.803,45.831,414.807,45.481C416.811,45.132,418.815,44.394,420.819,44.106C422.823,43.818,424.826,43.979,426.83,43.345C428.834,42.711,430.838,41.281,432.842,40.633C434.846,39.986,436.85,40.121,438.854,40.116C440.858,40.111,442.862,39.967,444.865,39.541C446.869,39.116,448.873,38.409,450.877,37.671C452.881,36.933,454.885,36.164,456.889,35.597C458.893,35.031,460.897,34.667,462.901,34.639C464.904,34.611,466.908,34.92,468.912,34.45C470.916,33.98,472.92,32.731,474.924,31.777C476.928,30.823,478.932,30.165,480.936,29.496C482.94,28.827,484.944,28.147,486.947,27.792C488.951,27.438,490.955,27.409,492.959,27.201C494.963,26.994,496.967,26.608,498.971,25.832C500.975,25.055,502.979,23.888,504.983,23.017C506.986,22.145,508.99,21.569,510.994,20.796C512.998,20.023,515.002,19.054,517.006,18.638C519.01,18.222,521.014,18.359,523.018,17.881C525.022,17.402,527.025,16.307,529.029,15.636C531.033,14.964,533.037,14.716,535.041,14.078C537.045,13.44,539.049,12.413,541.053,11.832C543.057,11.251,545.06,11.116,547.064,11.123C549.068,11.13,551.072,11.28,553.076,10.906C555.08,10.532,557.084,9.635,559.088,9.244C561.092,8.852,563.096,8.965,565.099,9.277C567.103,9.59,569.107,10.101,571.111,10.362C573.115,10.624,575.119,10.636,577.123,10.575C579.127,10.513,581.131,10.378,583.135,10.067C585.139,9.756,587.142,9.269,589.146,8.963" stroke="#7A1F18" stroke-width="2"/></g></g><path class="foreground" aria-hidden="true" d="" display="none"/></g></g><g class="mark-group role-legend" role="graphics-symbol" aria-roledescription="legend" aria-label="Symbol legend titled 'Width' for fill color and stroke color with 5 values: 256, 512, 1024, 2048, 4096"><g transform="translate(618,0)"><path class="background" aria-hidden="true" d="M0,0h46v99h-46Z" pointer-events="none"/><g><g class="mark-group role-legend-entry"><g transform="translate(0,21)"><path class="background" aria-hidden="true" d="M0,0h0v0h0Z" pointer-events="none"/><g><g class="mark-group role-scope" role="graphics-object" aria-roledescription="group mark container"><g transform="translate(0,0)"><path class="background" aria-hidden="true" d="M0,0h46v14h-46Z" pointer-events="none" opacity="1"/><g><g class="mark-symbol role-legend-symbol" pointer-events="none"><path transform="translate(7,7)" d="M5,0A5,5,0,1,1,-5,0A5,5,0,1,1,5,0" fill="#FF5F33" stroke="#FF5F33" stroke-width="1.5" opacity="0.3"/></g><g class="mark-text role-legend-label" pointer-events="none"><text text-anchor="start" transform="translate(18,11)" font-family="Times New Roman" font-size="14px" fill="#000" opacity="1">256</text></g></g><path class="foreground" aria-hidden="true" d="" pointer-events="none" display="none"/></g><g transform="translate(0,16)"><path class="background" aria-hidden="true" d="M0,0h46v14h-46Z" pointer-events="none" opacity="1"/><g><g class="mark-symbol role-legend-symbol" pointer-events="none"><path transform="translate(7,7)" d="M5,0A5,5,0,1,1,-5,0A5,5,0,1,1,5,0" fill="#FF4B33" stroke="#FF4B33" stroke-width="1.5" opacity="0.3"/></g><g class="mark-text role-legend-label" pointer-events="none"><text text-anchor="start" transform="translate(18,11)" font-family="Times New Roman" font-size="14px" fill="#000" opacity="1">512</text></g></g><path class="foreground" aria-hidden="true" d="" pointer-events="none" display="none"/></g><g transform="translate(0,32)"><path class="background" aria-hidden="true" d="M0,0h46v14h-46Z" pointer-events="none" opacity="1"/><g><g class="mark-symbol role-legend-symbol" pointer-events="none"><path transform="translate(7,7)" d="M5,0A5,5,0,1,1,-5,0A5,5,0,1,1,5,0" fill="#E0392D" stroke="#E0392D" stroke-width="1.5" opacity="0.3"/></g><g class="mark-text role-legend-label" pointer-events="none"><text text-anchor="start" transform="translate(18,11)" font-family="Times New Roman" font-size="14px" fill="#000" opacity="1">1024</text></g></g><path class="foreground" aria-hidden="true" d="" pointer-events="none" display="none"/></g><g transform="translate(0,48)"><path class="background" aria-hidden="true" d="M0,0h46v14h-46Z" pointer-events="none" opacity="1"/><g><g class="mark-symbol role-legend-symbol" pointer-events="none"><path transform="translate(7,7)" d="M5,0A5,5,0,1,1,-5,0A5,5,0,1,1,5,0" fill="#B22B24" stroke="#B22B24" stroke-width="1.5" opacity="0.3"/></g><g class="mark-text role-legend-label" pointer-events="none"><text text-anchor="start" transform="translate(18,11)" font-family="Times New Roman" font-size="14px" fill="#000" opacity="1">2048</text></g></g><path class="foreground" aria-hidden="true" d="" pointer-events="none" display="none"/></g><g transform="translate(0,64)"><path class="background" aria-hidden="true" d="M0,0h46v14h-46Z" pointer-events="none" opacity="1"/><g><g class="mark-symbol role-legend-symbol" pointer-events="none"><path transform="translate(7,7)" d="M5,0A5,5,0,1,1,-5,0A5,5,0,1,1,5,0" fill="#7A1F18" stroke="#7A1F18" stroke-width="1.5" opacity="0.3"/></g><g class="mark-text role-legend-label" pointer-events="none"><text text-anchor="start" transform="translate(18,11)" font-family="Times New Roman" font-size="14px" fill="#000" opacity="1">4096</text></g></g><path class="foreground" aria-hidden="true" d="" pointer-events="none" display="none"/></g></g></g><path class="foreground" aria-hidden="true" d="" pointer-events="none" display="none"/></g></g><g class="mark-text role-legend-title" pointer-events="none"><text text-anchor="start" transform="translate(0,13)" font-family="Times New Roman" font-size="16px" font-weight="bold" fill="#000" opacity="1">Width</text></g></g><path class="foreground" aria-hidden="true" d="" pointer-events="none" display="none"/></g></g></g><path class="foreground" aria-hidden="true" d="" display="none"/></g></g></g><defs><clipPath id="clip1"><rect x="0" y="0" width="600" height="400"/></clipPath><clipPath id="clip2"><rect x="0" y="0" width="600" height="400"/></clipPath><clipPath id="clip3"><rect x="0" y="0" width="600" height="400"/></clipPath><clipPath id="clip4"><rect x="0" y="0" width="600" height="400"/></clipPath><clipPath id="clip5"><rect x="0" y="0" width="600" height="400"/></clipPath><clipPath id="clip6"><rect x="0" y="0" width="600" height="400"/></clipPath><clipPath id="clip7"><rect x="0" y="0" width="600" height="400"/></clipPath><clipPath id="clip8"><rect x="0" y="0" width="600" height="400"/></clipPath><clipPath id="clip9"><rect x="0" y="0" width="600" height="400"/></clipPath><clipPath id="clip10"><rect x="0" y="0" width="600" height="400"/></clipPath></defs></svg>