<svg xmlns="http://www.w3.org/2000/svg" xmlns:xlink="http://www.w3.org/1999/xlink" version="1.1" class="marks" width="842" height="458" viewBox="0 0 842 458"><rect width="842" height="458" fill="white"/><g fill="none" stroke-miterlimit="10" transform="translate(50,12)"><g class="mark-group role-frame root" role="graphics-object" aria-roledescription="group mark container"><g transform="translate(0,0)"><path class="background" aria-hidden="true" d="M0.5,0.5h600v400h-600Z" stroke="#ddd"/><g><g class="mark-group role-axis" aria-hidden="true"><g transform="translate(0.5,400.5)"><path class="background" aria-hidden="true" d="M0,0h0v0h0Z" pointer-events="none"/><g><g class="mark-rule role-axis-grid" pointer-events="none"><line transform="translate(21,-400)" x2="0" y2="400" stroke="#ddd" stroke-width="1" opacity="1"/><line transform="translate(52,-400)" x2="0" y2="400" stroke="#ddd" stroke-width="1" opacity="1"/><line transform="translate(82,-400)" x2="0" y2="400" stroke="#ddd" stroke-width="1" opacity="1"/><line transform="translate(113,-400)" x2="0" y2="400" stroke="#ddd" stroke-width="1" opacity="1"/><line transform="translate(143,-400)" x2="0" y2="400" stroke="#ddd" stroke-width="1" opacity="1"/><line transform="translate(174,-400)" x2="0" y2="400" stroke="#ddd" stroke-width="1" opacity="1"/><line transform="translate(204,-400)" x2="0" y2="400" stroke="#ddd" stroke-width="1" opacity="1"/><line transform="translate(235,-400)" x2="0" y2="400" stroke="#ddd" stroke-width="1" opacity="1"/><line transform="translate(265,-400)" x2="0" y2="400" stroke="#ddd" stroke-width="1" opacity="1"/><line transform="translate(295,-400)" x2="0" y2="400" stroke="#ddd" stroke-width="1" opacity="1"/><line transform="translate(326,-400)" x2="0" y2="400" stroke="#ddd" stroke-width="1" opacity="1"/><line transform="translate(356,-400)" x2="0" y2="400" stroke="#ddd" stroke-width="1" opacity="1"/><line transform="translate(387,-400)" x2="0" y2="400" stroke="#ddd" stroke-width="1" opacity="1"/><line transform="translate(417,-400)" x2="0" y2="400" stroke="#ddd" stroke-width="1" opacity="1"/><line transform="translate(448,-400)" x2="0" y2="400" stroke="#ddd" stroke-width="1" opacity="1"/><line transform="translate(478,-400)" x2="0" y2="400" stroke="#ddd" stroke-width="1" opacity="1"/><line transform="translate(509,-400)" x2="0" y2="400" stroke="#ddd" stroke-width="1" opacity="1"/><line transform="translate(539,-400)" x2="0" y2="400" stroke="#ddd" stroke-width="1" opacity="1"/><line transform="translate(570,-400)" x2="0" y2="400" stroke="#ddd" stroke-width="1" opacity="1"/><line transform="translate(600,-400)" x2="0" y2="400" stroke="#ddd" stroke-width="1" opacity="1"/></g></g><path class="foreground" aria-hidden="true" d="" pointer-events="none" display="none"/></g></g><g class="mark-group role-axis" aria-hidden="true"><g transform="translate(0.5,0.5)"><path class="background" aria-hidden="true" d="M0,0h0v0h0Z" pointer-events="none"/><g><g class="mark-rule role-axis-grid" pointer-events="none"><line transform="translate(0,400)" x2="600" y2="0" stroke="#ddd" stroke-width="1" opacity="1"/><line transform="translate(0,350)" x2="600" y2="0" stroke="#ddd" stroke-width="1" opacity="1"/><line transform="translate(0,300)" x2="600" y2="0" stroke="#ddd" stroke-width="1" opacity="1"/><line transform="translate(0,250)" x2="600" y2="0" stroke="#ddd" stroke-width="1" opacity="1"/><line transform="translate(0,200)" x2="600" y2="0" stroke="#ddd" stroke-width="1" opacity="1"/><line transform="translate(0,150)" x2="600" y2="0" stroke="#ddd" stroke-width="1" opacity="1"/><line transform="translate(0,100)" x2="600" y2="0" stroke="#ddd" stroke-width="1" opacity="1"/><line transform="translate(0,50)" x2="600" y2="0" stroke="#ddd" stroke-width="1" opacity="1"/><line transform="translate(0,0)" x2="600" y2="0" stroke="#ddd" stroke-width="1" opacity="1"/></g></g><path class="foreground" aria-hidden="true" d="" pointer-events="none" display="none"/></g></g><g class="mark-group role-axis" role="graphics-symbol" aria-roledescription="axis" aria-label="X-axis titled 'Number of environment steps' for a linear scale with values from 0M to 20M"><g transform="translate(0.5,400.5)"><path class="background" aria-hidden="true" d="M0,0h0v0h0Z" pointer-events="none"/><g><g class="mark-rule role-axis-tick" pointer-events="none"><line transform="translate(21,0)" x2="0" y2="5" stroke="#888" stroke-width="1" opacity="1"/><line transform="translate(52,0)" x2="0" y2="5" stroke="#888" stroke-width="1" opacity="1"/><line transform="translate(82,0)" x2="0" y2="5" stroke="#888" stroke-width="1" opacity="1"/><line transform="translate(113,0)" x2="0" y2="5" stroke="#888" stroke-width="1" opacity="1"/><line transform="translate(143,0)" x2="0" y2="5" stroke="#888" stroke-width="1" opacity="1"/><line transform="translate(174,0)" x2="0" y2="5" stroke="#888" stroke-width="1" opacity="1"/><line transform="translate(204,0)" x2="0" y2="5" stroke="#888" stroke-width="1" opacity="1"/><line transform="translate(235,0)" x2="0" y2="5" stroke="#888" stroke-width="1" opacity="1"/><line transform="translate(265,0)" x2="0" y2="5" stroke="#888" stroke-width="1" opacity="1"/><line transform="translate(295,0)" x2="0" y2="5" stroke="#888" stroke-width="1" opacity="1"/><line transform="translate(326,0)" x2="0" y2="5" stroke="#888" stroke-width="1" opacity="1"/><line transform="translate(356,0)" x2="0" y2="5" stroke="#888" stroke-width="1" opacity="1"/><line transform="translate(387,0)" x2="0" y2="5" stroke="#888" stroke-width="1" opacity="1"/><line transform="translate(417,0)" x2="0" y2="5" stroke="#888" stroke-width="1" opacity="1"/><line transform="translate(448,0)" x2="0" y2="5" stroke="#888" stroke-width="1" opacity="1"/><line transform="translate(478,0)" x2="0" y2="5" stroke="#888" stroke-width="1" opacity="1"/><line transform="translate(509,0)" x2="0" y2="5" stroke="#888" stroke-width="1" opacity="1"/><line transform="translate(539,0)" x2="0" y2="5" stroke="#888" stroke-width="1" opacity="1"/><line transform="translate(570,0)" x2="0" y2="5" stroke="#888" stroke-width="1" opacity="1"/><line transform="translate(600,0)" x2="0" y2="5" stroke="#888" stroke-width="1" opacity="1"/></g><g class="mark-text role-axis-label" pointer-events="none"><text text-anchor="middle" transform="translate(21.31979695431472,18)" font-family="Times New Roman" font-size="14px" fill="#000" opacity="1">1M</text><text text-anchor="middle" transform="translate(51.77664974619289,18)" font-family="Times New Roman" font-size="14px" fill="#000" opacity="0">2M</text><text text-anchor="middle" transform="translate(82.23350253807106,18)" font-family="Times New Roman" font-size="14px" fill="#000" opacity="1">3M</text><text text-anchor="middle" transform="translate(112.69035532994924,18)" font-family="Times New Roman" font-size="14px" fill="#000" opacity="0">4M</text><text text-anchor="middle" transform="translate(143.14720812182742,18)" font-family="Times New Roman" font-size="14px" fill="#000" opacity="1">5M</text><text text-anchor="middle" transform="translate(173.60406091370558,18)" font-family="Times New Roman" font-size="14px" fill="#000" opacity="0">6M</text><text text-anchor="middle" transform="translate(204.06091370558377,18)" font-family="Times New Roman" font-size="14px" fill="#000" opacity="1">7M</text><text text-anchor="middle" transform="translate(234.51776649746193,18)" font-family="Times New Roman" font-size="14px" fill="#000" opacity="0">8M</text><text text-anchor="middle" transform="translate(264.97461928934007,18)" font-family="Times New Roman" font-size="14px" fill="#000" opacity="1">9M</text><text text-anchor="middle" transform="translate(295.43147208121826,18)" font-family="Times New Roman" font-size="14px" fill="#000" opacity="0">10M</text><text text-anchor="middle" transform="translate(325.88832487309645,18)" font-family="Times New Roman" font-size="14px" fill="#000" opacity="1">11M</text><text text-anchor="middle" transform="translate(356.34517766497464,18)" font-family="Times New Roman" font-size="14px" fill="#000" opacity="0">12M</text><text text-anchor="middle" transform="translate(386.80203045685283,18)" font-family="Times New Roman" font-size="14px" fill="#000" opacity="1">13M</text><text text-anchor="middle" transform="translate(417.25888324873097,18)" font-family="Times New Roman" font-size="14px" fill="#000" opacity="0">14M</text><text text-anchor="middle" transform="translate(447.71573604060916,18)" font-family="Times New Roman" font-size="14px" fill="#000" opacity="1">15M</text><text text-anchor="middle" transform="translate(478.1725888324873,18)" font-family="Times New Roman" font-size="14px" fill="#000" opacity="0">16M</text><text text-anchor="middle" transform="translate(508.6294416243655,18)" font-family="Times New Roman" font-size="14px" fill="#000" opacity="1">17M</text><text text-anchor="middle" transform="translate(539.0862944162436,18)" font-family="Times New Roman" font-size="14px" fill="#000" opacity="0">18M</text><text text-anchor="middle" transform="translate(569.5431472081218,18)" font-family="Times New Roman" font-size="14px" fill="#000" opacity="1">19M</text><text text-anchor="end" transform="translate(600,18)" font-family="Times New Roman" font-size="14px" fill="#000" opacity="0">20M</text></g><g class="mark-rule role-axis-domain" pointer-events="none"><line transform="translate(0,0)" x2="600" y2="0" stroke="#888" stroke-width="1" opacity="1"/></g><g class="mark-text role-axis-title" pointer-events="none"><text text-anchor="middle" transform="translate(300,38)" font-family="Times New Roman" font-size="16px" font-weight="bold" fill="#000" opacity="1">Number of environment steps</text></g></g><path class="foreground" aria-hidden="true" d="" pointer-events="none" display="none"/></g></g><g class="mark-group role-axis" role="graphics-symbol" aria-roledescription="axis" aria-label="Y-axis titled 'Success rate' for a linear scale with values from 0.2 to 1.0"><g transform="translate(0.5,0.5)"><path class="background" aria-hidden="true" d="M0,0h0v0h0Z" pointer-events="none"/><g><g class="mark-rule role-axis-tick" pointer-events="none"><line transform="translate(0,400)" x2="-5" y2="0" stroke="#888" stroke-width="1" opacity="1"/><line transform="translate(0,350)" x2="-5" y2="0" stroke="#888" stroke-width="1" opacity="1"/><line transform="translate(0,300)" x2="-5" y2="0" stroke="#888" stroke-width="1" opacity="1"/><line transform="translate(0,250)" x2="-5" y2="0" stroke="#888" stroke-width="1" opacity="1"/><line transform="translate(0,200)" x2="-5" y2="0" stroke="#888" stroke-width="1" opacity="1"/><line transform="translate(0,150)" x2="-5" y2="0" stroke="#888" stroke-width="1" opacity="1"/><line transform="translate(0,100)" x2="-5" y2="0" stroke="#888" stroke-width="1" opacity="1"/><line transform="translate(0,50)" x2="-5" y2="0" stroke="#888" stroke-width="1" opacity="1"/><line transform="translate(0,0)" x2="-5" y2="0" stroke="#888" stroke-width="1" opacity="1"/></g><g class="mark-text role-axis-label" pointer-events="none"><text text-anchor="end" transform="translate(-7,404)" font-family="Times New Roman" font-size="14px" fill="#000" opacity="1">0.2</text><text text-anchor="end" transform="translate(-7,354)" font-family="Times New Roman" font-size="14px" fill="#000" opacity="1">0.3</text><text text-anchor="end" transform="translate(-7,304)" font-family="Times New Roman" font-size="14px" fill="#000" opacity="1">0.4</text><text text-anchor="end" transform="translate(-7,254)" font-family="Times New Roman" font-size="14px" fill="#000" opacity="1">0.5</text><text text-anchor="end" transform="translate(-7,204)" font-family="Times New Roman" font-size="14px" fill="#000" opacity="1">0.6</text><text text-anchor="end" transform="translate(-7,154.00000000000006)" font-family="Times New Roman" font-size="14px" fill="#000" opacity="1">0.7</text><text text-anchor="end" transform="translate(-7,103.99999999999996)" font-family="Times New Roman" font-size="14px" fill="#000" opacity="1">0.8</text><text text-anchor="end" transform="translate(-7,54.00000000000004)" font-family="Times New Roman" font-size="14px" fill="#000" opacity="1">0.9</text><text text-anchor="end" transform="translate(-7,4)" font-family="Times New Roman" font-size="14px" fill="#000" opacity="1">1.0</text></g><g class="mark-rule role-axis-domain" pointer-events="none"><line transform="translate(0,400)" x2="0" y2="-400" stroke="#888" stroke-width="1" opacity="1"/></g><g class="mark-text role-axis-title" pointer-events="none"><text text-anchor="middle" transform="translate(-28.5,200) rotate(-90) translate(0,-3)" font-family="Times New Roman" font-size="16px" font-weight="bold" fill="#000" opacity="1">Success rate</text></g></g><path class="foreground" aria-hidden="true" d="" pointer-events="none" display="none"/></g></g><g class="mark-group role-scope layer_0_layer_0_pathgroup" role="graphics-object" aria-roledescription="group mark container"><g transform="translate(0,0)"><path class="background" aria-hidden="true" d="M0,0h600v400h-600Z"/><g><g class="mark-area role-mark layer_0_layer_0_marks" clip-path="url(#clip1)" role="graphics-object" aria-roledescription="area mark container"><path aria-label="Number of environment steps: 200.38k; Success rate: 0.0772; upper_Success rate: 0.12141; Network widths: Actor - 1024, Critic - 1024; Ci1 of Success rate: 0.12141; Ci0 of Success rate: 0.0772; Mean of Success rate: 0.1004" role="graphics-symbol" aria-roledescription="errorband" d="M3.069,417.67C5.104,402.203,7.138,385.402,9.172,373.802C11.207,362.203,13.241,355.805,15.276,346.989C17.31,338.173,19.344,326.938,21.379,316.271C23.413,305.604,25.448,295.506,27.482,290.109C29.517,284.713,31.551,284.018,33.585,285.335C35.62,286.653,37.654,289.984,39.689,287.847C41.723,285.71,43.757,278.105,45.792,271.738C47.826,265.37,49.861,260.24,51.895,258.844C53.93,257.448,55.964,259.785,57.998,261.567C60.033,263.348,62.067,264.574,64.102,262.487C66.136,260.4,68.17,255,70.205,249.517C72.239,244.034,74.274,238.468,76.308,236.569C78.343,234.669,80.377,236.436,82.411,235.152C84.446,233.868,86.48,229.534,88.515,226.1C90.549,222.667,92.583,220.133,94.618,219.618C96.652,219.103,98.687,220.607,100.721,218.642C102.756,216.677,104.79,211.245,106.824,209.096C108.859,206.947,110.893,208.082,112.928,206.58C114.962,205.078,116.996,200.939,119.031,196.77C121.065,192.601,123.1,188.402,125.134,185.936C127.169,183.471,129.203,182.739,131.237,179.706C133.272,176.673,135.306,171.339,137.341,165.672C139.375,160.005,141.409,154.005,143.444,151.705C145.478,149.405,147.513,150.805,149.547,149.421C151.582,148.038,153.616,143.87,155.65,140.955C157.685,138.039,159.719,136.376,161.754,132.442C163.788,128.508,165.822,122.304,167.857,118.269C169.891,114.233,171.926,112.367,173.96,111.535C175.995,110.702,178.029,110.905,180.063,111.472C182.098,112.039,184.132,112.971,186.167,113.97C188.201,114.97,190.235,116.038,192.27,114.721C194.304,113.404,196.339,109.703,198.373,108.303C200.408,106.902,202.442,107.801,204.476,108.302C206.511,108.803,208.545,108.905,210.58,106.688C212.614,104.472,214.648,99.936,216.683,98.318C218.717,96.7,220.752,98,222.786,96.733C224.821,95.467,226.855,91.633,228.889,90.45C230.924,89.268,232.958,90.735,234.993,91.585C237.027,92.436,239.061,92.669,241.096,92.386C243.13,92.103,245.165,91.304,247.199,90.154C249.234,89.004,251.268,87.503,253.302,87.307C255.337,87.11,257.371,88.217,259.406,88.4C261.44,88.583,263.474,87.842,265.509,86.987C267.543,86.133,269.578,85.167,271.612,82.783C273.646,80.4,275.681,76.6,277.715,74.817C279.75,73.034,281.784,73.268,283.819,72.402C285.853,71.535,287.887,69.567,289.922,69.767C291.956,69.967,293.991,72.333,296.025,73C298.059,73.667,300.094,72.633,302.128,72.617C304.163,72.6,306.197,73.6,308.232,74.017C310.266,74.434,312.3,74.268,314.335,74.002C316.369,73.735,318.404,73.368,320.438,74.817C322.472,76.267,324.507,79.533,326.541,80.467C328.576,81.401,330.61,80.002,332.645,79.454C334.679,78.906,336.713,79.209,338.748,77.659C340.782,76.109,342.817,72.706,344.851,71.22C346.885,69.735,348.92,70.168,350.954,70.351C352.989,70.534,355.023,70.468,357.058,70.235C359.092,70.002,361.126,69.601,363.161,69.417C365.195,69.233,367.23,69.267,369.264,69.517C371.298,69.768,373.333,70.235,375.367,70.102C377.402,69.969,379.436,69.236,381.471,69.553C383.505,69.869,385.539,71.236,387.574,71.085C389.608,70.935,391.643,69.268,393.677,68.851C395.711,68.434,397.746,69.268,399.78,70.535C401.815,71.803,403.849,73.503,405.884,73.952C407.918,74.402,409.952,73.601,411.987,73.584C414.021,73.567,416.056,74.335,418.09,74.385C420.124,74.435,422.159,73.768,424.193,72.868C426.228,71.968,428.262,70.835,430.297,70.818C432.331,70.802,434.365,71.901,436.4,71.984C438.434,72.068,440.469,71.135,442.503,70.818C444.537,70.502,446.572,70.801,448.606,71.7C450.641,72.6,452.675,74.1,454.71,73.85C456.744,73.6,458.778,71.6,460.813,70.017C462.847,68.433,464.882,67.267,466.916,66.917C468.95,66.568,470.985,67.035,473.019,67.652C475.054,68.268,477.088,69.034,479.123,69.634C481.157,70.233,483.191,70.667,485.226,71.1C487.26,71.533,489.295,71.967,491.329,72.017C493.363,72.067,495.398,71.733,497.432,71.117C499.467,70.501,501.501,69.602,503.536,69.502C505.57,69.403,507.604,70.103,509.639,70.603C511.673,71.103,513.708,71.403,515.742,70.985C517.776,70.568,519.811,69.434,521.845,69.251C523.88,69.068,525.914,69.835,527.949,69.718C529.983,69.602,532.017,68.601,534.052,68.434C536.086,68.267,538.121,68.933,540.155,69.034C542.189,69.134,544.224,68.668,546.258,69.052C548.293,69.435,550.327,70.668,552.362,71.234C554.396,71.801,556.43,71.702,558.465,71.652C560.499,71.602,562.534,71.601,564.568,71.65C566.602,71.7,568.637,71.8,570.671,71.634C572.706,71.468,574.74,71.035,576.775,71.552C578.809,72.069,580.843,73.536,582.878,73.703C584.912,73.869,586.947,72.736,588.981,71.969L588.981,54.646C586.947,54.896,584.912,54.797,582.878,54.964C580.843,55.131,578.809,55.564,576.775,56.165C574.74,56.765,572.706,57.532,570.671,57.233C568.637,56.933,566.602,55.567,564.568,55.017C562.534,54.467,560.499,54.733,558.465,55.016C556.43,55.299,554.396,55.598,552.362,55.148C550.327,54.698,548.293,53.499,546.258,53.582C544.224,53.664,542.189,55.028,540.155,55.495C538.121,55.961,536.086,55.529,534.052,54.897C532.017,54.264,529.983,53.431,527.949,53.165C525.914,52.898,523.88,53.199,521.845,53.349C519.811,53.499,517.776,53.498,515.742,53.131C513.708,52.763,511.673,52.029,509.639,52.163C507.604,52.297,505.57,53.298,503.536,53.716C501.501,54.133,499.467,53.967,497.432,54.683C495.398,55.4,493.363,57,491.329,57.583C489.295,58.167,487.26,57.733,485.226,57.517C483.191,57.3,481.157,57.3,479.123,56.667C477.088,56.033,475.054,54.767,473.019,53.783C470.985,52.799,468.95,52.098,466.916,51.815C464.882,51.532,462.847,51.666,460.813,52.966C458.778,54.266,456.744,56.732,454.71,57.665C452.675,58.598,450.641,57.998,448.606,56.58C446.572,55.162,444.537,52.926,442.503,52.726C440.469,52.527,438.434,54.363,436.4,54.581C434.365,54.798,432.331,53.397,430.297,52.763C428.262,52.128,426.228,52.262,424.193,52.812C422.159,53.363,420.124,54.332,418.09,54.016C416.056,53.7,414.021,52.1,411.987,52.183C409.952,52.266,407.918,54.032,405.884,54.715C403.849,55.398,401.815,54.999,399.78,54.333C397.746,53.666,395.711,52.732,393.677,52.515C391.643,52.297,389.608,52.797,387.574,53.115C385.539,53.432,383.505,53.566,381.471,53.683C379.436,53.8,377.402,53.9,375.367,54.366C373.333,54.833,371.298,55.665,369.264,56.048C367.23,56.432,365.195,56.366,363.161,56.483C361.126,56.6,359.092,56.9,357.058,56.683C355.023,56.466,352.989,55.732,350.954,55.248C348.92,54.765,346.885,54.533,344.851,53.866C342.817,53.199,340.782,52.098,338.748,51.915C336.713,51.731,334.679,52.464,332.645,52.864C330.61,53.264,328.576,53.331,326.541,53.081C324.507,52.832,322.472,52.266,320.438,52.816C318.404,53.367,316.369,55.033,314.335,55.383C312.3,55.733,310.266,54.767,308.232,54.783C306.197,54.799,304.163,55.798,302.128,57.065C300.094,58.331,298.059,59.864,296.025,60.098C293.991,60.332,291.956,59.266,289.922,59.2C287.887,59.133,285.853,60.067,283.819,59.883C281.784,59.7,279.75,58.4,277.715,58.133C275.681,57.867,273.646,58.633,271.612,58.7C269.578,58.766,267.543,58.132,265.509,58.198C263.474,58.264,261.44,59.031,259.406,59.498C257.371,59.965,255.337,60.133,253.302,60.333C251.268,60.533,249.234,60.765,247.199,60.882C245.165,60.998,243.13,60.999,241.096,61.766C239.061,62.533,237.027,64.067,234.993,64.917C232.958,65.767,230.924,65.933,228.889,66.833C226.855,67.733,224.821,69.367,222.786,68.95C220.752,68.533,218.717,66.067,216.683,65.8C214.648,65.532,212.614,67.465,210.58,68.73C208.545,69.996,206.511,70.594,204.476,70.778C202.442,70.961,200.408,70.729,198.373,72.513C196.339,74.297,194.304,78.097,192.27,79.597C190.235,81.097,188.201,80.297,186.167,78.996C184.132,77.695,182.098,75.893,180.063,75.609C178.029,75.325,175.995,76.56,173.96,77.645C171.926,78.729,169.891,79.663,167.857,81.781C165.822,83.898,163.788,87.199,161.754,88.565C159.719,89.931,157.685,89.362,155.65,91.162C153.616,92.962,151.582,97.131,149.547,98.882C147.513,100.633,145.478,99.967,143.444,100.417C141.409,100.867,139.375,102.433,137.341,103.017C135.306,103.6,133.272,103.2,131.237,103.983C129.203,104.767,127.169,106.733,125.134,107.35C123.1,107.966,121.065,107.232,119.031,108.181C116.996,109.131,114.962,111.764,112.928,113.165C110.893,114.565,108.859,114.733,106.824,116.433C104.79,118.133,102.756,121.367,100.721,122.532C98.687,123.698,96.652,122.795,94.618,123.095C92.583,123.395,90.549,124.898,88.515,125.615C86.48,126.333,84.446,126.267,82.411,128.2C80.377,130.133,78.343,134.067,76.308,137.166C74.274,140.266,72.239,142.532,70.205,144.848C68.17,147.165,66.136,149.533,64.102,149.565C62.067,149.598,60.033,147.297,57.998,149.597C55.964,151.897,53.93,158.798,51.895,166.032C49.861,173.265,47.826,180.83,45.792,186.347C43.757,191.863,41.723,195.332,39.689,200.148C37.654,204.965,35.62,211.13,33.585,217.196C31.551,223.262,29.517,229.228,27.482,237.096C25.448,244.963,23.413,254.732,21.379,265.316C19.344,275.9,17.31,287.3,15.276,297.867C13.241,308.433,11.207,318.167,9.172,332.883C7.138,347.6,5.104,367.3,3.069,385.866Z" fill="#FF4B33" opacity="0.3"/></g></g><path class="foreground" aria-hidden="true" d="" display="none"/></g><g transform="translate(0,0)"><path class="background" aria-hidden="true" d="M0,0h600v400h-600Z"/><g><g class="mark-area role-mark layer_0_layer_0_marks" clip-path="url(#clip2)" role="graphics-object" aria-roledescription="area mark container"><path aria-label="Number of environment steps: 200.38k; Success rate: 0.0811428571429; upper_Success rate: 0.168285714286; Network widths: Critic - 1024; Ci1 of Success rate: 0.168285714286; Ci0 of Success rate: 0.0811428571429; Mean of Success rate: 0.125714285714" role="graphics-symbol" aria-roledescription="errorband" d="M3.069,406.836C5.104,388.336,7.138,368.382,9.172,355.145C11.207,341.907,13.241,335.386,15.276,325.862C17.31,316.338,19.344,303.812,21.379,293.169C23.413,282.526,25.448,273.767,27.482,263.076C29.517,252.386,31.551,239.764,33.585,234.549C35.62,229.333,37.654,231.524,39.689,229.167C41.723,226.81,43.757,219.905,45.792,212.214C47.826,204.524,49.861,196.048,51.895,188.953C53.93,181.858,55.964,176.145,57.998,172.455C60.033,168.764,62.067,167.096,64.102,166.667C66.136,166.238,68.17,167.048,70.205,167.885C72.239,168.721,74.274,169.586,76.308,169.943C78.343,170.301,80.377,170.152,82.411,167.054C84.446,163.955,86.48,157.906,88.515,154.668C90.549,151.43,92.583,151.002,94.618,149.672C96.652,148.342,98.687,146.108,100.721,144.536C102.756,142.964,104.79,142.054,106.824,142.17C108.859,142.286,110.893,143.429,112.928,143.405C114.962,143.381,116.996,142.19,119.031,141C121.065,139.81,123.1,138.619,125.134,136.31C127.169,134,129.203,130.571,131.237,128.977C133.272,127.382,135.306,127.621,137.341,128.218C139.375,128.815,141.409,129.77,143.444,128.818C145.478,127.867,147.513,125.008,149.547,125.102C151.582,125.195,153.616,128.24,155.65,127.121C157.685,126.002,159.719,120.719,161.754,117.933C163.788,115.148,165.822,114.86,167.857,114.644C169.891,114.429,171.926,114.286,173.96,113.952C175.995,113.619,178.029,113.095,180.063,112.429C182.098,111.763,184.132,110.955,186.167,109.408C188.201,107.861,190.235,105.575,192.27,104.671C194.304,103.768,196.339,104.246,198.373,105.509C200.408,106.771,202.442,108.818,204.476,108.721C206.511,108.625,208.545,106.386,210.58,104.409C212.614,102.432,214.648,100.718,216.683,99.932C218.717,99.146,220.752,99.289,222.786,99.266C224.821,99.243,226.855,99.054,228.889,97.672C230.924,96.29,232.958,93.717,234.993,92.739C237.027,91.762,239.061,92.381,241.096,92.714C243.13,93.048,245.165,93.095,247.199,92.572C249.234,92.049,251.268,90.955,253.302,90.121C255.337,89.288,257.371,88.715,259.406,87.429C261.44,86.143,263.474,84.143,265.509,84.215C267.543,84.287,269.578,86.431,271.612,86.908C273.646,87.386,275.681,86.196,277.715,85.601C279.75,85.005,281.784,85.002,283.819,85.525C285.853,86.048,287.887,87.095,289.922,88.214C291.956,89.333,293.991,90.524,296.025,90.429C298.059,90.333,300.094,88.952,302.128,88.667C304.163,88.381,306.197,89.19,308.232,89.881C310.266,90.571,312.3,91.143,314.335,90.857C316.369,90.571,318.404,89.429,320.438,88C322.472,86.571,324.507,84.857,326.541,83C328.576,81.143,330.61,79.143,332.645,76.882C334.679,74.62,336.713,72.098,338.748,71.455C340.782,70.813,342.817,72.051,344.851,71.384C346.885,70.717,348.92,68.144,350.954,66.977C352.989,65.81,355.023,66.048,357.058,65.715C359.092,65.382,361.126,64.479,363.161,64.884C365.195,65.289,367.23,67.004,369.264,67.693C371.298,68.383,373.333,68.049,375.367,67.763C377.402,67.476,379.436,67.238,381.471,66.905C383.505,66.573,385.539,66.145,387.574,66.288C389.608,66.431,391.643,67.144,393.677,66.454C395.711,65.763,397.746,63.669,399.78,63.432C401.815,63.194,403.849,64.813,405.884,66.146C407.918,67.479,409.952,68.525,411.987,68.215C414.021,67.905,416.056,66.238,418.09,65.5C420.124,64.762,422.159,64.952,424.193,65.262C426.228,65.571,428.262,66,430.297,65.786C432.331,65.573,434.365,64.717,436.4,64.002C438.434,63.288,440.469,62.715,442.503,63.286C444.537,63.857,446.572,65.571,448.606,66.19C450.641,66.81,452.675,66.333,454.71,65.286C456.744,64.238,458.778,62.619,460.813,62.905C462.847,63.19,464.882,65.381,466.916,66C468.95,66.619,470.985,65.667,473.019,64.905C475.054,64.144,477.088,63.574,479.123,63.431C481.157,63.288,483.191,63.573,485.226,62.93C487.26,62.287,489.295,60.717,491.329,60.931C493.363,61.145,495.398,63.144,497.432,64.572C499.467,66,501.501,66.857,503.536,67.214C505.57,67.571,507.604,67.429,509.639,66.738C511.673,66.048,513.708,64.81,515.742,64.071C517.776,63.333,519.811,63.095,521.845,63.548C523.88,64.001,525.914,65.145,527.949,65.169C529.983,65.193,532.017,64.096,534.052,63.525C536.086,62.954,538.121,62.907,540.155,63.717C542.189,64.527,544.224,66.194,546.258,68.217C548.293,70.24,550.327,72.62,552.362,72.429C554.396,72.238,556.43,69.476,558.465,67.976C560.499,66.476,562.534,66.238,564.568,66.381C566.602,66.524,568.637,67.048,570.671,66.929C572.706,66.811,574.74,66.05,576.775,65.502C578.809,64.955,580.843,64.62,582.878,64.834C584.912,65.048,586.947,65.81,588.981,65.573L588.981,44.233C586.947,42.9,584.912,41.664,582.878,41.975C580.843,42.286,578.809,44.143,576.775,45.833C574.74,47.524,572.706,49.048,570.671,49.738C568.637,50.429,566.602,50.286,564.568,49.238C562.534,48.189,560.499,46.236,558.465,46.093C556.43,45.95,554.396,47.618,552.362,47.451C550.327,47.283,548.293,45.281,546.258,44.352C544.224,43.424,542.189,43.569,540.155,44.38C538.121,45.19,536.086,46.667,534.052,47.238C532.017,47.81,529.983,47.476,527.949,46.714C525.914,45.952,523.88,44.762,521.845,45.31C519.811,45.857,517.776,48.143,515.742,48.81C513.708,49.476,511.673,48.524,509.639,48.142C507.604,47.761,505.57,47.95,503.536,48.307C501.501,48.664,499.467,49.189,497.432,48.476C495.398,47.762,493.363,45.81,491.329,46.857C489.295,47.904,487.26,51.95,485.226,51.735C483.191,51.52,481.157,47.044,479.123,45.926C477.088,44.807,475.054,47.046,473.019,47.452C470.985,47.857,468.95,46.429,466.916,45.524C464.882,44.619,462.847,44.238,460.813,44.38C458.778,44.523,456.744,45.188,454.71,45.474C452.675,45.76,450.641,45.665,448.606,44.88C446.572,44.094,444.537,42.617,442.503,42.711C440.469,42.806,438.434,44.473,436.4,46.377C434.365,48.282,432.331,50.425,430.297,50.807C428.262,51.188,426.228,49.808,424.193,48.618C422.159,47.429,420.124,46.429,418.09,46.881C416.056,47.333,414.021,49.238,411.987,50.429C409.952,51.619,407.918,52.095,405.884,51.833C403.849,51.57,401.815,50.569,399.78,50.664C397.746,50.76,395.711,51.951,393.677,51.285C391.643,50.618,389.608,48.093,387.574,47.64C385.539,47.188,383.505,48.808,381.471,48.928C379.436,49.048,377.402,47.667,375.367,47.762C373.333,47.857,371.298,49.429,369.264,50.905C367.23,52.381,365.195,53.762,363.161,55.476C361.126,57.19,359.092,59.238,357.058,59C355.023,58.762,352.989,56.238,350.954,55.452C348.92,54.665,346.885,55.617,344.851,56.521C342.817,57.426,340.782,58.285,338.748,58.142C336.713,58,334.679,56.857,332.645,55.167C330.61,53.476,328.576,51.238,326.541,51.595C324.507,51.952,322.472,54.905,320.438,56.905C318.404,58.905,316.369,59.952,314.335,59.809C312.3,59.665,310.266,58.331,308.232,57.879C306.197,57.426,304.163,57.856,302.128,57.689C300.094,57.523,298.059,56.76,296.025,56.736C293.991,56.712,291.956,57.427,289.922,57.856C287.887,58.285,285.853,58.426,283.819,58.688C281.784,58.95,279.75,59.332,277.715,59.999C275.681,60.665,273.646,61.617,271.612,61.736C269.578,61.855,267.543,61.142,265.509,60.88C263.474,60.619,261.44,60.81,259.406,60.047C257.371,59.285,255.337,57.569,253.302,57.116C251.268,56.663,249.234,57.473,247.199,58.187C245.165,58.902,243.13,59.523,241.096,61.071C239.061,62.619,237.027,65.095,234.993,64.761C232.958,64.427,230.924,61.283,228.889,60.902C226.855,60.521,224.821,62.904,222.786,64.355C220.752,65.807,218.717,66.329,216.683,66.09C214.648,65.851,212.614,64.852,210.58,64.735C208.545,64.617,206.511,65.38,204.476,66.571C202.442,67.762,200.408,69.381,198.373,70.167C196.339,70.952,194.304,70.905,192.27,70.356C190.235,69.807,188.201,68.757,186.167,68.376C184.132,67.994,182.098,68.281,180.063,69.448C178.029,70.615,175.995,72.663,173.96,72.902C171.926,73.14,169.891,71.57,167.857,70.904C165.822,70.237,163.788,70.474,161.754,72.116C159.719,73.758,157.685,76.806,155.65,78.139C153.616,79.473,151.582,79.092,149.547,80.259C147.513,81.426,145.478,84.142,143.444,86.474C141.409,88.807,139.375,90.757,137.341,91.852C135.306,92.948,133.272,93.188,131.237,96.046C129.203,98.905,127.169,104.381,125.134,108.714C123.1,113.048,121.065,116.238,119.031,117.999C116.996,119.761,114.962,120.093,112.928,121.283C110.893,122.474,108.859,124.523,106.824,125.141C104.79,125.76,102.756,124.948,100.721,125.352C98.687,125.756,96.652,127.376,94.618,127.877C92.583,128.379,90.549,127.761,88.515,128.261C86.48,128.762,84.446,130.381,82.411,132.881C80.377,135.381,78.343,138.762,76.308,140.357C74.274,141.952,72.239,141.762,70.205,141.31C68.17,140.857,66.136,140.143,64.102,140.262C62.067,140.381,60.033,141.333,57.998,144.476C55.964,147.618,53.93,152.95,51.895,156.688C49.861,160.425,47.826,162.568,45.792,169.044C43.757,175.52,41.723,186.33,39.689,193.067C37.654,199.805,35.62,202.47,33.585,207.899C31.551,213.327,29.517,221.519,27.482,229.306C25.448,237.093,23.413,244.475,21.379,254.095C19.344,263.714,17.31,275.571,15.276,285.187C13.241,294.802,11.207,302.176,9.172,315.867C7.138,329.557,5.104,349.564,3.069,367.282Z" fill="#B22B24" opacity="0.3"/></g></g><path class="foreground" aria-hidden="true" d="" display="none"/></g><g transform="translate(0,0)"><path class="background" aria-hidden="true" d="M0,0h600v400h-600Z"/><g><g class="mark-area role-mark layer_0_layer_0_marks" clip-path="url(#clip3)" role="graphics-object" aria-roledescription="area mark container"><path aria-label="Number of environment steps: 200.38k; Success rate: 0.0452; upper_Success rate: 0.104; Network widths: Actor - 200, Critic - 1024; Ci1 of Success rate: 0.104; Ci0 of Success rate: 0.0452; Mean of Success rate: 0.0736" role="graphics-symbol" aria-roledescription="errorband" d="M3.069,431.351C5.104,419.303,7.138,412.205,9.172,401.272C11.207,390.339,13.241,375.571,15.276,361.253C17.31,346.936,19.344,333.069,21.379,323.02C23.413,312.97,25.448,306.738,27.482,300.037C29.517,293.338,31.551,286.17,33.585,278.236C35.62,270.303,37.654,261.602,39.689,252.087C41.723,242.573,43.757,232.242,45.792,222.809C47.826,213.375,49.861,204.838,51.895,197.986C53.93,191.134,55.964,185.968,57.998,183.488C60.033,181.007,62.067,181.211,64.102,179.212C66.136,177.213,68.17,173.01,70.205,171.008C72.239,169.006,74.274,169.204,76.308,166.987C78.343,164.77,80.377,160.138,82.411,155.604C84.446,151.07,86.48,146.635,88.515,144.051C90.549,141.467,92.583,140.733,94.618,140.567C96.652,140.4,98.687,140.8,100.721,141.85C102.756,142.901,104.79,144.602,106.824,144.702C108.859,144.803,110.893,143.303,112.928,141.086C114.962,138.869,116.996,135.936,119.031,133.569C121.065,131.202,123.1,129.401,125.134,128.669C127.169,127.937,129.203,128.273,131.237,127.657C133.272,127.04,135.306,125.47,137.341,125.452C139.375,125.434,141.409,126.968,143.444,127.568C145.478,128.168,147.513,127.834,149.547,126.334C151.582,124.834,153.616,122.168,155.65,120.935C157.685,119.703,159.719,119.903,161.754,119.903C163.788,119.903,165.822,119.703,167.857,119.853C169.891,120.003,171.926,120.503,173.96,120.303C175.995,120.103,178.029,119.203,180.063,118.619C182.098,118.035,184.132,117.768,186.167,117.868C188.201,117.968,190.235,118.437,192.27,117.987C194.304,117.537,196.339,116.168,198.373,115.334C200.408,114.5,202.442,114.2,204.476,113.217C206.511,112.235,208.545,110.57,210.58,110.021C212.614,109.472,214.648,110.038,216.683,109.755C218.717,109.471,220.752,108.337,222.786,107.686C224.821,107.036,226.855,106.869,228.889,107.136C230.924,107.403,232.958,108.103,234.993,107.953C237.027,107.803,239.061,106.803,241.096,106.586C243.13,106.369,245.165,106.936,247.199,106.553C249.234,106.169,251.268,104.836,253.302,104.203C255.337,103.571,257.371,103.639,259.406,103.139C261.44,102.639,263.474,101.571,265.509,100.853C267.543,100.136,269.578,99.769,271.612,98.854C273.646,97.938,275.681,96.474,277.715,95.924C279.75,95.374,281.784,95.738,283.819,94.97C285.853,94.202,287.887,92.301,289.922,92.185C291.956,92.069,293.991,93.738,296.025,93.155C298.059,92.573,300.094,89.738,302.128,86.37C304.163,83.002,306.197,79.101,308.232,76.618C310.266,74.134,312.3,73.068,314.335,74.102C316.369,75.135,318.404,78.268,320.438,80.017C322.472,81.767,324.507,82.133,326.541,82.034C328.576,81.934,330.61,81.368,332.645,80.302C334.679,79.235,336.713,77.668,338.748,75.917C340.782,74.167,342.817,72.233,344.851,71.517C346.885,70.801,348.92,71.302,350.954,70.835C352.989,70.368,355.023,68.934,357.058,68.95C359.092,68.967,361.126,70.433,363.161,71.867C365.195,73.301,367.23,74.702,369.264,74.485C371.298,74.268,373.333,72.434,375.367,71.201C377.402,69.968,379.436,69.335,381.471,69.002C383.505,68.669,385.539,68.636,387.574,68.535C389.608,68.435,391.643,68.268,393.677,68.284C395.711,68.3,397.746,68.5,399.78,68.083C401.815,67.667,403.849,66.633,405.884,66.201C407.918,65.768,409.952,65.937,411.987,66.037C414.021,66.138,416.056,66.17,418.09,66.086C420.124,66.003,422.159,65.803,424.193,66.602C426.228,67.402,428.262,69.201,430.297,69.068C432.331,68.934,434.365,66.868,436.4,66.185C438.434,65.503,440.469,66.203,442.503,66.152C444.537,66.102,446.572,65.301,448.606,65.584C450.641,65.867,452.675,67.233,454.71,68.183C456.744,69.133,458.778,69.667,460.813,69.783C462.847,69.9,464.882,69.6,466.916,69.383C468.95,69.167,470.985,69.033,473.019,69.567C475.054,70.1,477.088,71.3,479.123,71.768C481.157,72.235,483.191,71.97,485.226,71.087C487.26,70.204,489.295,68.703,491.329,68.42C493.363,68.136,495.398,69.069,497.432,69.219C499.467,69.369,501.501,68.736,503.536,68.269C505.57,67.802,507.604,67.501,509.639,67.667C511.673,67.833,513.708,68.467,515.742,69.834C517.776,71.201,519.811,73.302,521.845,73.302C523.88,73.302,525.914,71.201,527.949,70.551C529.983,69.901,532.017,70.702,534.052,70.835C536.086,70.969,538.121,70.436,540.155,70.019C542.189,69.603,544.224,69.303,546.258,68.72C548.293,68.137,550.327,67.271,552.362,67.555C554.396,67.838,556.43,69.272,558.465,69.555C560.499,69.838,562.534,68.97,564.568,68.97C566.602,68.969,568.637,69.836,570.671,69.385C572.706,68.935,574.74,67.167,576.775,66.534C578.809,65.901,580.843,66.402,582.878,66.785C584.912,67.168,586.947,67.434,588.981,67.417L588.981,50.067C586.947,50.133,584.912,51.167,582.878,51.883C580.843,52.6,578.809,53,576.775,53.283C574.74,53.567,572.706,53.733,570.671,53.816C568.637,53.899,566.602,53.898,564.568,53.132C562.534,52.365,560.499,50.833,558.465,49.732C556.43,48.632,554.396,47.963,552.362,47.813C550.327,47.663,548.293,48.03,546.258,48.864C544.224,49.698,542.189,50.999,540.155,51.433C538.121,51.866,536.086,51.432,534.052,51.348C532.017,51.263,529.983,51.529,527.949,51.763C525.914,51.996,523.88,52.197,521.845,53.314C519.811,54.432,517.776,56.466,515.742,56.233C513.708,55.999,511.673,53.498,509.639,52.732C507.604,51.965,505.57,52.933,503.536,53.599C501.501,54.266,499.467,54.632,497.432,54.365C495.398,54.098,493.363,53.198,491.329,52.748C489.295,52.298,487.26,52.298,485.226,53.348C483.191,54.398,481.157,56.498,479.123,56.898C477.088,57.298,475.054,55.997,473.019,55.164C470.985,54.331,468.95,53.964,466.916,53.131C464.882,52.297,462.847,50.997,460.813,52.031C458.778,53.065,456.744,56.432,454.71,57.266C452.675,58.1,450.641,56.4,448.606,55.333C446.572,54.266,444.537,53.832,442.503,54.248C440.469,54.665,438.434,55.933,436.4,56.099C434.365,56.266,432.331,55.332,430.297,54.181C428.262,53.031,426.228,51.664,424.193,50.798C422.159,49.932,420.124,49.566,418.09,49.682C416.056,49.797,414.021,50.395,411.987,50.995C409.952,51.595,407.918,52.198,405.884,53.115C403.849,54.033,401.815,55.267,399.78,55.333C397.746,55.4,395.711,54.3,393.677,54.917C391.643,55.533,389.608,57.867,387.574,59.233C385.539,60.6,383.505,61,381.471,61.15C379.436,61.3,377.402,61.2,375.367,61.533C373.333,61.867,371.298,62.633,369.264,62.717C367.23,62.8,365.195,62.2,363.161,61.417C361.126,60.633,359.092,59.667,357.058,59.633C355.023,59.6,352.989,60.5,350.954,61.217C348.92,61.933,346.885,62.467,344.851,62.666C342.817,62.866,340.782,62.732,338.748,62.915C336.713,63.098,334.679,63.599,332.645,63.783C330.61,63.966,328.576,63.832,326.541,63.798C324.507,63.765,322.472,63.833,320.438,63.55C318.404,63.267,316.369,62.633,314.335,62.3C312.3,61.966,310.266,61.932,308.232,62.498C306.197,63.064,304.163,64.231,302.128,64.898C300.094,65.565,298.059,65.732,296.025,66.083C293.991,66.433,291.956,66.967,289.922,68.583C287.887,70.2,285.853,72.9,283.819,72.95C281.784,72.999,279.75,70.398,277.715,69.848C275.681,69.298,273.646,70.798,271.612,70.814C269.578,70.83,267.543,69.363,265.509,68.795C263.474,68.228,261.44,68.562,259.406,69.145C257.371,69.727,255.337,70.56,253.302,71.627C251.268,72.695,249.234,73.998,247.199,74.832C245.165,75.666,243.13,76.032,241.096,75.898C239.061,75.764,237.027,75.131,234.993,75.298C232.958,75.465,230.924,76.433,228.889,75.799C226.855,75.165,224.821,72.93,222.786,72.513C220.752,72.095,218.717,73.495,216.683,74.462C214.648,75.429,212.614,75.963,210.58,76.864C208.545,77.765,206.511,79.033,204.476,79.982C202.442,80.932,200.408,81.563,198.373,82.33C196.339,83.096,194.304,83.997,192.27,83.78C190.235,83.564,188.201,82.231,186.167,82.565C184.132,82.898,182.098,84.899,180.063,86.366C178.029,87.832,175.995,88.765,173.96,88.415C171.926,88.064,169.891,86.431,167.857,86.398C165.822,86.364,163.788,87.931,161.754,89.83C159.719,91.73,157.685,93.963,155.65,95.46C153.616,96.957,151.582,97.718,149.547,98.619C147.513,99.519,145.478,100.558,143.444,102.128C141.409,103.697,139.375,105.798,137.341,106.931C135.306,108.064,133.272,108.231,131.237,110.098C129.203,111.965,127.169,115.533,125.134,117.531C123.1,119.53,121.065,119.96,119.031,121.243C116.996,122.526,114.962,124.662,112.928,125.796C110.893,126.931,108.859,127.064,106.824,127.381C104.79,127.698,102.756,128.199,100.721,128.8C98.687,129.4,96.652,130.1,94.618,130.2C92.583,130.3,90.549,129.8,88.515,130.833C86.48,131.866,84.446,134.432,82.411,136.498C80.377,138.564,78.343,140.131,76.308,141.815C74.274,143.498,72.239,145.299,70.205,146.398C68.17,147.498,66.136,147.895,64.102,149.795C62.067,151.694,60.033,155.096,57.998,156.613C55.964,158.131,53.93,157.764,51.895,161.63C49.861,165.495,47.826,173.593,45.792,181.393C43.757,189.193,41.723,196.695,39.689,204.629C37.654,212.563,35.62,220.929,33.585,231.062C31.551,241.195,29.517,253.095,27.482,262.342C25.448,271.589,23.413,278.183,21.379,290.868C19.344,303.552,17.31,322.326,15.276,334.777C13.241,347.228,11.207,353.357,9.172,361.14C7.138,368.923,5.104,378.362,3.069,393.114Z" fill="#4D130F" opacity="0.3"/></g></g><path class="foreground" aria-hidden="true" d="" display="none"/></g><g transform="translate(0,0)"><path class="background" aria-hidden="true" d="M0,0h600v400h-600Z"/><g><g class="mark-area role-mark layer_0_layer_0_marks" clip-path="url(#clip4)" role="graphics-object" aria-roledescription="area mark container"><path aria-label="Number of environment steps: 200.38k; Success rate: 0.0826666666667; upper_Success rate: 0.140333333333; Network widths: Actor - 1024; Ci1 of Success rate: 0.140333333333; Ci0 of Success rate: 0.0826666666667; Mean of Success rate: 0.109" role="graphics-symbol" aria-roledescription="errorband" d="M3.069,434.231C5.104,424.897,7.138,413.782,9.172,405.642C11.207,397.501,13.241,392.336,15.276,383.864C17.31,375.392,19.344,363.613,21.379,352.667C23.413,341.722,25.448,331.611,27.482,323.194C29.517,314.778,31.551,308.056,33.585,303.528C35.62,299,37.654,296.667,39.689,292.139C41.723,287.611,43.757,280.889,45.792,275.224C47.826,269.558,49.861,264.95,51.895,261.089C53.93,257.228,55.964,254.114,57.998,249.808C60.033,245.501,62.067,240.003,64.102,236.003C66.136,232.003,68.17,229.501,70.205,227.251C72.239,225,74.274,223,76.308,218.028C78.343,213.056,80.377,205.111,82.411,200.917C84.446,196.724,86.48,196.281,88.515,195.559C90.549,194.838,92.583,193.838,94.618,191.448C96.652,189.058,98.687,185.279,100.721,183.085C102.756,180.892,104.79,180.283,106.824,179.589C108.859,178.894,110.893,178.114,112.928,178.39C114.962,178.667,116.996,180,119.031,180.639C121.065,181.278,123.1,181.222,125.134,180.696C127.169,180.169,129.203,179.172,131.237,177.367C133.272,175.561,135.306,172.947,137.341,171.256C139.375,169.564,141.409,168.794,143.444,168.295C145.478,167.796,147.513,167.567,149.547,168.147C151.582,168.728,153.616,170.118,155.65,169.812C157.685,169.506,159.719,167.503,161.754,164.864C163.788,162.225,165.822,158.95,167.857,158.479C169.891,158.008,171.926,160.342,173.96,159.174C175.995,158.007,178.029,153.339,180.063,148.56C182.098,143.781,184.132,138.89,186.167,136.528C188.201,134.167,190.235,134.333,192.27,135.446C194.304,136.558,196.339,138.617,198.373,138.617C200.408,138.617,202.442,136.558,204.476,136.141C206.511,135.724,208.545,136.947,210.58,138.753C212.614,140.558,214.648,142.946,216.683,142.056C218.717,141.167,220.752,137,222.786,134.639C224.821,132.278,226.855,131.722,228.889,131.389C230.924,131.056,232.958,130.944,234.993,130.25C237.027,129.556,239.061,128.278,241.096,128.333C243.13,128.389,245.165,129.778,247.199,129.556C249.234,129.335,251.268,127.503,253.302,127.198C255.337,126.893,257.371,128.115,259.406,128.17C261.44,128.225,263.474,127.113,265.509,126.612C267.543,126.111,269.578,126.222,271.612,127.389C273.646,128.556,275.681,130.778,277.715,131.167C279.75,131.556,281.784,130.111,283.819,130.028C285.853,129.946,287.887,131.225,289.922,131.782C291.956,132.339,293.991,132.174,296.025,130.84C298.059,129.506,300.094,127.003,302.128,126.751C304.163,126.5,306.197,128.5,308.232,128.222C310.266,127.944,312.3,125.389,314.335,124.667C316.369,123.944,318.404,125.056,320.438,125.056C322.472,125.056,324.507,123.944,326.541,123.778C328.576,123.611,330.61,124.389,332.645,124.833C334.679,125.278,336.713,125.389,338.748,125.222C340.782,125.056,342.817,124.611,344.851,125.167C346.885,125.722,348.92,127.278,350.954,127.194C352.989,127.111,355.023,125.389,357.058,123.639C359.092,121.889,361.126,120.111,363.161,119.722C365.195,119.333,367.23,120.333,369.264,121.139C371.298,121.944,373.333,122.556,375.367,123.974C377.402,125.392,379.436,127.617,381.471,128.311C383.505,129.006,385.539,128.169,387.574,127.752C389.608,127.335,391.643,127.336,393.677,126.864C395.711,126.392,397.746,125.446,399.78,125.084C401.815,124.722,403.849,124.944,405.884,125.25C407.918,125.556,409.952,125.944,411.987,125.278C414.021,124.611,416.056,122.889,418.09,122.169C420.124,121.449,422.159,121.731,424.193,120.564C426.228,119.397,428.262,116.782,430.297,115.724C432.331,114.667,434.365,115.167,436.4,115.167C438.434,115.167,440.469,114.667,442.503,112.366C444.537,110.065,446.572,105.964,448.606,105.325C450.641,104.686,452.675,107.51,454.71,108.812C456.744,110.114,458.778,109.894,460.813,109.089C462.847,108.283,464.882,106.892,466.916,105.835C468.95,104.778,470.985,104.056,473.019,103.556C475.054,103.056,477.088,102.778,479.123,101.944C481.157,101.111,483.191,99.722,485.226,100.417C487.26,101.112,489.295,103.892,491.329,104.919C493.363,105.947,495.398,105.224,497.432,103.894C499.467,102.565,501.501,100.631,503.536,99.492C505.57,98.353,507.604,98.01,509.639,98.366C511.673,98.722,513.708,99.778,515.742,100.889C517.776,102,519.811,103.167,521.845,104C523.88,104.833,525.914,105.333,527.949,105.75C529.983,106.167,532.017,106.5,534.052,106.556C536.086,106.613,538.121,106.392,540.155,107.281C542.189,108.169,544.224,110.168,546.258,110.362C548.293,110.556,550.327,108.944,552.362,108.861C554.396,108.778,556.43,110.222,558.465,109.556C560.499,108.889,562.534,106.111,564.568,105.528C566.602,104.944,568.637,106.556,570.671,105.889C572.706,105.222,574.74,102.278,576.775,100.92C578.809,99.563,580.843,99.792,582.878,99.653C584.912,99.515,586.947,99.01,588.981,100.145L588.981,68.333C586.947,67.111,584.912,68.222,582.878,67.805C580.843,67.388,578.809,65.442,576.775,64.247C574.74,63.053,572.706,62.61,570.671,62.694C568.637,62.778,566.602,63.389,564.568,64.582C562.534,65.775,560.499,67.55,558.465,67.133C556.43,66.717,554.396,64.108,552.362,64.442C550.327,64.776,548.293,68.053,546.258,69.664C544.224,71.275,542.189,71.221,540.155,70.222C538.121,69.222,536.086,67.278,534.052,65.916C532.017,64.554,529.983,63.775,527.949,63.775C525.914,63.775,523.88,64.554,521.845,64.138C519.811,63.722,517.776,62.111,515.742,61.583C513.708,61.056,511.673,61.611,509.639,62.222C507.604,62.833,505.57,63.5,503.536,63.917C501.501,64.333,499.467,64.5,497.432,64.5C495.398,64.5,493.363,64.333,491.329,63.222C489.295,62.111,487.26,60.056,485.226,59.861C483.191,59.667,481.157,61.333,479.123,62.389C477.088,63.444,475.054,63.889,473.019,63.888C470.985,63.886,468.95,63.439,466.916,64.106C464.882,64.772,462.847,66.553,460.813,67.721C458.778,68.889,456.744,69.444,454.71,69.833C452.675,70.221,450.641,70.442,448.606,71.024C446.572,71.607,444.537,72.551,442.503,73.469C440.469,74.386,438.434,75.276,436.4,74.277C434.365,73.278,432.331,70.389,430.297,70.778C428.262,71.167,426.228,74.833,424.193,76.305C422.159,77.776,420.124,77.053,418.09,77.775C416.056,78.497,414.021,80.665,411.987,81.555C409.952,82.444,407.918,82.056,405.884,81.194C403.849,80.332,401.815,78.997,399.78,80.775C397.746,82.553,395.711,87.443,393.677,88.497C391.643,89.551,389.608,86.769,387.574,85.908C385.539,85.047,383.505,86.107,381.471,86.359C379.436,86.611,377.402,86.056,375.367,86.471C373.333,86.886,371.298,88.272,369.264,88.632C367.23,88.992,365.195,88.325,363.161,88.075C361.126,87.825,359.092,87.992,357.058,89.104C355.023,90.217,352.989,92.275,350.954,94.832C348.92,97.389,346.885,100.444,344.851,101.137C342.817,101.829,340.782,100.158,338.748,99.319C336.713,98.481,334.679,98.474,332.645,100.892C330.61,103.311,328.576,108.156,326.541,110.605C324.507,113.054,322.472,113.108,320.438,112.163C318.404,111.218,316.369,109.274,314.335,109.134C312.3,108.994,310.266,110.66,308.232,111.66C306.197,112.661,304.163,112.997,302.128,113.997C300.094,114.997,298.059,116.661,296.025,118.217C293.991,119.772,291.956,121.219,289.922,119.999C287.887,118.778,285.853,114.889,283.819,115.722C281.784,116.556,279.75,122.111,277.715,122.888C275.681,123.665,273.646,119.664,271.612,118.024C269.578,116.383,267.543,117.104,265.509,117.521C263.474,117.937,261.44,118.05,259.406,118.19C257.371,118.331,255.337,118.499,253.302,118.944C251.268,119.389,249.234,120.111,247.199,119.055C245.165,117.999,243.13,115.164,241.096,114.635C239.061,114.107,237.027,115.885,234.993,117.44C232.958,118.996,230.924,120.329,228.889,120.052C226.855,119.775,224.821,117.888,222.786,117.277C220.752,116.667,218.717,117.333,216.683,118.528C214.648,119.722,212.614,121.444,210.58,122.639C208.545,123.833,206.511,124.5,204.476,125.722C202.442,126.944,200.408,128.722,198.373,128.611C196.339,128.5,194.304,126.5,192.27,125.528C190.235,124.556,188.201,124.611,186.167,124.583C184.132,124.554,182.098,124.442,180.063,125.053C178.029,125.664,175.995,126.999,173.96,127.944C171.926,128.889,169.891,129.444,167.857,130.667C165.822,131.889,163.788,133.778,161.754,135.139C159.719,136.5,157.685,137.333,155.65,137.806C153.616,138.278,151.582,138.389,149.547,137.472C147.513,136.556,145.478,134.611,143.444,134.75C141.409,134.889,139.375,137.111,137.341,137.944C135.306,138.778,133.272,138.222,131.237,138.833C129.203,139.444,127.169,141.222,125.134,141.444C123.1,141.667,121.065,140.333,119.031,139.028C116.996,137.722,114.962,136.444,112.928,137.499C110.893,138.553,108.859,141.939,106.824,144.16C104.79,146.382,102.756,147.439,100.721,148.663C98.687,149.886,96.652,151.276,94.618,154.193C92.583,157.11,90.549,161.553,88.515,165.802C86.48,170.051,84.446,174.107,82.411,179.052C80.377,183.997,78.343,189.832,76.308,192.803C74.274,195.775,72.239,195.883,70.205,197.883C68.17,199.882,66.136,203.772,64.102,205.857C62.067,207.942,60.033,208.221,57.998,208.72C55.964,209.219,53.93,209.939,51.895,212.578C49.861,215.217,47.826,219.775,45.792,223.221C43.757,226.667,41.723,229,39.689,234.722C37.654,240.444,35.62,249.556,33.585,257.472C31.551,265.388,29.517,272.108,27.482,278.022C25.448,283.935,23.413,289.04,21.379,299.847C19.344,310.653,17.31,327.16,15.276,338.523C13.241,349.886,11.207,356.106,9.172,367.661C7.138,379.217,5.104,396.108,3.069,407.36Z" fill="#546569" opacity="0.3"/></g></g><path class="foreground" aria-hidden="true" d="" display="none"/></g><g transform="translate(0,0)"><path class="background" aria-hidden="true" d="M0,0h600v400h-600Z"/><g><g class="mark-area role-mark layer_0_layer_0_marks" clip-path="url(#clip5)" role="graphics-object" aria-roledescription="area mark container"><path aria-label="Number of environment steps: 200.38k; Success rate: 0.05999; upper_Success rate: 0.121405; Network widths: Actor - 1024, Critic - 200; Ci1 of Success rate: 0.121405; Ci0 of Success rate: 0.05999; Mean of Success rate: 0.0898" role="graphics-symbol" aria-roledescription="errorband" d="M3.069,430.94C5.104,418.273,7.138,406.139,9.172,398.255C11.207,390.371,13.241,386.737,15.276,382.753C17.31,378.77,19.344,374.438,21.379,369.387C23.413,364.337,25.448,358.568,27.482,352.485C29.517,346.401,31.551,340.002,33.585,334.252C35.62,328.502,37.654,323.401,39.689,317.618C41.723,311.834,43.757,305.368,45.792,299.002C47.826,292.635,49.861,286.368,51.895,282.4C53.93,278.433,55.964,276.767,57.998,275.917C60.033,275.067,62.067,275.035,64.102,272.735C66.136,270.436,68.17,265.869,70.205,260.92C72.239,255.97,74.274,250.637,76.308,248.087C78.343,245.538,80.377,245.77,82.411,245.17C84.446,244.569,86.48,243.136,88.515,241.336C90.549,239.536,92.583,237.369,94.618,236.42C96.652,235.471,98.687,235.739,100.721,234.024C102.756,232.309,104.79,228.611,106.824,225.71C108.859,222.809,110.893,220.706,112.928,216.654C114.962,212.602,116.996,206.601,119.031,202.752C121.065,198.903,123.1,197.205,125.134,195.555C127.169,193.906,129.203,192.304,131.237,190.72C133.272,189.136,135.306,187.569,137.341,186.62C139.375,185.67,141.409,185.337,143.444,184.788C145.478,184.238,147.513,183.472,149.547,182.571C151.582,181.671,153.616,180.637,155.65,180.353C157.685,180.068,159.719,180.534,161.754,180.018C163.788,179.501,165.822,178.002,167.857,177.569C169.891,177.136,171.926,177.769,173.96,176.786C175.995,175.803,178.029,173.203,180.063,171.852C182.098,170.502,184.132,170.401,186.167,169.518C188.201,168.634,190.235,166.968,192.27,165.452C194.304,163.935,196.339,162.568,198.373,161.434C200.408,160.301,202.442,159.402,204.476,158.802C206.511,158.203,208.545,157.903,210.58,158.052C212.614,158.202,214.648,158.801,216.683,158.517C218.717,158.233,220.752,157.067,222.786,156.533C224.821,156,226.855,156.1,228.889,156.367C230.924,156.634,232.958,157.068,234.993,156.918C237.027,156.768,239.061,156.034,241.096,155.517C243.13,155,245.165,154.7,247.199,155.017C249.234,155.333,251.268,156.267,253.302,157.684C255.337,159.101,257.371,161.002,259.406,160.652C261.44,160.302,263.474,157.701,265.509,157.568C267.543,157.434,269.578,159.768,271.612,159.985C273.646,160.202,275.681,158.301,277.715,157.967C279.75,157.633,281.784,158.867,283.819,158.833C285.853,158.8,287.887,157.5,289.922,156.317C291.956,155.133,293.991,154.067,296.025,153.833C298.059,153.6,300.094,154.2,302.128,154.217C304.163,154.233,306.197,153.667,308.232,153.533C310.266,153.4,312.3,153.7,314.335,153.917C316.369,154.133,318.404,154.267,320.438,154.217C322.472,154.168,324.507,153.935,326.541,154.352C328.576,154.768,330.61,155.834,332.645,156.117C334.679,156.4,336.713,155.9,338.748,155.25C340.782,154.6,342.817,153.8,344.851,153.417C346.885,153.033,348.92,153.067,350.954,153.167C352.989,153.267,355.023,153.433,357.058,153.817C359.092,154.2,361.126,154.8,363.161,154.684C365.195,154.567,367.23,153.735,369.264,153.668C371.298,153.602,373.333,154.301,375.367,154.384C377.402,154.467,379.436,153.933,381.471,154.3C383.505,154.668,385.539,155.935,387.574,156.669C389.608,157.403,391.643,157.603,393.677,157.152C395.711,156.702,397.746,155.601,399.78,154.567C401.815,153.533,403.849,152.567,405.884,152.284C407.918,152.001,409.952,152.402,411.987,154.902C414.021,157.403,416.056,162.003,418.09,162.853C420.124,163.703,422.159,160.803,424.193,158.369C426.228,155.935,428.262,153.968,430.297,153.117C432.331,152.267,434.365,152.533,436.4,153.317C438.434,154.101,440.469,155.402,442.503,156.285C444.537,157.168,446.572,157.634,448.606,156.617C450.641,155.6,452.675,153.1,454.71,152.567C456.744,152.034,458.778,153.468,460.813,154.535C462.847,155.602,464.882,156.301,466.916,156.117C468.95,155.933,470.985,154.867,473.019,154.501C475.054,154.135,477.088,154.47,479.123,154.637C481.157,154.803,483.191,154.802,485.226,154.284C487.26,153.767,489.295,152.733,491.329,152.067C493.363,151.4,495.398,151.1,497.432,152.417C499.467,153.733,501.501,156.667,503.536,157.384C505.57,158.102,507.604,156.603,509.639,157.303C511.673,158.003,513.708,160.902,515.742,161.218C517.776,161.534,519.811,159.268,521.845,157.618C523.88,155.968,525.914,154.934,527.949,154.05C529.983,153.167,532.017,152.433,534.052,152.483C536.086,152.533,538.121,153.367,540.155,153.45C542.189,153.533,544.224,152.867,546.258,152.884C548.293,152.901,550.327,153.602,552.362,154.385C554.396,155.169,556.43,156.036,558.465,155.702C560.499,155.368,562.534,153.834,564.568,152.984C566.602,152.133,568.637,151.967,570.671,152.283C572.706,152.6,574.74,153.4,576.775,153.283C578.809,153.167,580.843,152.133,582.878,151.65C584.912,151.167,586.947,151.233,588.981,150.967L588.981,133.214C586.947,134.163,584.912,135.029,582.878,136.263C580.843,137.496,578.809,139.097,576.775,138.797C574.74,138.497,572.706,136.296,570.671,135.43C568.637,134.563,566.602,135.032,564.568,135.583C562.534,136.133,560.499,136.767,558.465,137.3C556.43,137.833,554.396,138.267,552.362,137.617C550.327,136.967,548.293,135.233,546.258,134.7C544.224,134.167,542.189,134.833,540.155,135.317C538.121,135.8,536.086,136.1,534.052,136.466C532.017,136.833,529.983,137.265,527.949,137.565C525.914,137.864,523.88,138.031,521.845,138.127C519.811,138.224,517.776,138.251,515.742,138.501C513.708,138.751,511.673,139.224,509.639,139.628C507.604,140.031,505.57,140.364,503.536,140.415C501.501,140.465,499.467,140.233,497.432,140.649C495.398,141.066,493.363,142.132,491.329,142.831C489.295,143.531,487.26,143.864,485.226,143.881C483.191,143.897,481.157,143.597,479.123,143.681C477.088,143.765,475.054,144.232,473.019,143.45C470.985,142.667,468.95,140.633,466.916,140.85C464.882,141.067,462.847,143.533,460.813,144.517C458.778,145.5,456.744,145,454.71,145.933C452.675,146.866,450.641,149.232,448.606,150.232C446.572,151.232,444.537,150.866,442.503,150.216C440.469,149.567,438.434,148.633,436.4,147.433C434.365,146.233,432.331,144.767,430.297,145.317C428.262,145.867,426.228,148.433,424.193,149.533C422.159,150.633,420.124,150.267,418.09,150.066C416.056,149.866,414.021,149.832,411.987,149.565C409.952,149.298,407.918,148.799,405.884,148.316C403.849,147.832,401.815,147.365,399.78,147.815C397.746,148.265,395.711,149.633,393.677,149.95C391.643,150.267,389.608,149.533,387.574,148.549C385.539,147.565,383.505,146.33,381.471,146.43C379.436,146.53,377.402,147.965,375.367,148.216C373.333,148.467,371.298,147.533,369.264,147.316C367.23,147.099,365.195,147.598,363.161,148.015C361.126,148.431,359.092,148.764,357.058,148.815C355.023,148.865,352.989,148.632,350.954,148.549C348.92,148.466,346.885,148.532,344.851,148.765C342.817,148.998,340.782,149.399,338.748,149.015C336.713,148.632,334.679,147.463,332.645,147.013C330.61,146.563,328.576,146.832,326.541,147.549C324.507,148.267,322.472,149.433,320.438,149.916C318.404,150.399,316.369,150.198,314.335,150.098C312.3,149.998,310.266,149.999,308.232,150.016C306.197,150.033,304.163,150.067,302.128,149.6C300.094,149.133,298.059,148.167,296.025,147.95C293.991,147.733,291.956,148.267,289.922,148.75C287.887,149.233,285.853,149.667,283.819,150.017C281.784,150.367,279.75,150.633,277.715,151.283C275.681,151.933,273.646,152.967,271.612,153.067C269.578,153.167,267.543,152.333,265.509,152.05C263.474,151.767,261.44,152.033,259.406,152.017C257.371,152,255.337,151.7,253.302,151.3C251.268,150.9,249.234,150.4,247.199,150.367C245.165,150.333,243.13,150.767,241.096,151.167C239.061,151.567,237.027,151.933,234.993,151.916C232.958,151.899,230.924,151.498,228.889,151.348C226.855,151.198,224.821,151.299,222.786,151.8C220.752,152.3,218.717,153.2,216.683,153.266C214.648,153.332,212.614,152.565,210.58,152.082C208.545,151.598,206.511,151.399,204.476,151.666C202.442,151.933,200.408,152.667,198.373,152.866C196.339,153.066,194.304,152.732,192.27,153.031C190.235,153.331,188.201,154.264,186.167,154.314C184.132,154.364,182.098,153.531,180.063,153.447C178.029,153.364,175.995,154.031,173.96,154.731C171.926,155.431,169.891,156.164,167.857,156.514C165.822,156.864,163.788,156.831,161.754,156.815C159.719,156.798,157.685,156.799,155.65,157.1C153.616,157.4,151.582,158,149.547,158.083C147.513,158.167,145.478,157.733,143.444,158.483C141.409,159.232,139.375,161.163,137.341,161.863C135.306,162.562,133.272,162.028,131.237,162.845C129.203,163.663,127.169,165.83,125.134,166.547C123.1,167.264,121.065,166.531,119.031,168.181C116.996,169.831,114.962,173.864,112.928,176.047C110.893,178.23,108.859,178.563,106.824,182.446C104.79,186.33,102.756,193.765,100.721,197.316C98.687,200.867,96.652,200.533,94.618,202.733C92.583,204.933,90.549,209.667,88.515,213.033C86.48,216.4,84.446,218.4,82.411,220.7C80.377,223,78.343,225.6,76.308,228.483C74.274,231.367,72.239,234.533,70.205,237.55C68.17,240.567,66.136,243.433,64.102,245.433C62.067,247.433,60.033,248.567,57.998,249.549C55.964,250.531,53.93,251.362,51.895,254.461C49.861,257.561,47.826,262.929,45.792,269.296C43.757,275.663,41.723,283.029,39.689,288.863C37.654,294.697,35.62,298.998,33.585,304.049C31.551,309.1,29.517,314.9,27.482,319.85C25.448,324.799,23.413,328.898,21.379,334.848C19.344,340.798,17.31,348.598,15.276,355.131C13.241,361.664,11.207,366.931,9.172,375.564C7.138,384.198,5.104,396.198,3.069,407.381Z" fill="#3D494C" opacity="0.3"/></g></g><path class="foreground" aria-hidden="true" d="" display="none"/></g></g><g class="mark-group role-scope layer_1_pathgroup" role="graphics-object" aria-roledescription="group mark container"><g transform="translate(0,0)"><path class="background" aria-hidden="true" d="M0,0h600v400h-600Z"/><g><g class="mark-line role-mark layer_1_marks" clip-path="url(#clip6)" role="graphics-object" aria-roledescription="line mark container"><path aria-label="Number of environment steps: 200.38k; Success rate: 0.1004; Network widths: Actor - 1024, Critic - 1024" role="graphics-symbol" aria-roledescription="line mark" d="M3.069,402.083C5.104,385.367,7.138,367.433,9.172,353.467C11.207,339.5,13.241,329.5,15.276,319.95C17.31,310.4,19.344,301.3,21.379,291.167C23.413,281.033,25.448,269.867,27.482,262.217C29.517,254.567,31.551,250.433,33.585,246.7C35.62,242.967,37.654,239.633,39.689,235.817C41.723,232,43.757,227.7,45.792,221.617C47.826,215.533,49.861,207.667,51.895,201.967C53.93,196.267,55.964,192.733,57.998,191.917C60.033,191.1,62.067,193,64.102,192.05C66.136,191.1,68.17,187.3,70.205,183.417C72.239,179.533,74.274,175.567,76.308,172.483C78.343,169.4,80.377,167.2,82.411,165.483C84.446,163.767,86.48,162.533,88.515,161.25C90.549,159.967,92.583,158.633,94.618,158.233C96.652,157.833,98.687,158.367,100.721,156.75C102.756,155.133,104.79,151.367,106.824,149.467C108.859,147.567,110.893,147.533,112.928,146.467C114.962,145.4,116.996,143.3,119.031,141.8C121.065,140.3,123.1,139.4,125.134,138.333C127.169,137.267,129.203,136.033,131.237,134.567C133.272,133.1,135.306,131.4,137.341,129.1C139.375,126.8,141.409,123.9,143.444,122.883C145.478,121.867,147.513,122.733,149.547,120.983C151.582,119.233,153.616,114.867,155.65,112.567C157.685,110.267,159.719,110.033,161.754,107.833C163.788,105.633,165.822,101.467,167.857,98.617C169.891,95.767,171.926,94.233,173.96,93.167C175.995,92.1,178.029,91.5,180.063,92.067C182.098,92.633,184.132,94.367,186.167,95.55C188.201,96.733,190.235,97.367,192.27,95.933C194.304,94.5,196.339,91,198.373,89.383C200.408,87.767,202.442,88.033,204.476,87.933C206.511,87.833,208.545,87.367,210.58,85.867C212.614,84.367,214.648,81.833,216.683,81.217C218.717,80.6,220.752,81.9,222.786,81.267C224.821,80.633,226.855,78.067,228.889,76.9C230.924,75.733,232.958,75.967,234.993,75.833C237.027,75.7,239.061,75.2,241.096,74.783C243.13,74.367,245.165,74.033,247.199,73.567C249.234,73.1,251.268,72.5,253.302,72.317C255.337,72.133,257.371,72.367,259.406,72.183C261.44,72,263.474,71.4,265.509,70.967C267.543,70.533,269.578,70.267,271.612,69.2C273.646,68.133,275.681,66.267,277.715,65.833C279.75,65.4,281.784,66.4,283.819,66.2C285.853,66,287.887,64.6,289.922,64.65C291.956,64.7,293.991,66.2,296.025,66.433C298.059,66.667,300.094,65.633,302.128,65.1C304.163,64.567,306.197,64.533,308.232,64.8C310.266,65.067,312.3,65.633,314.335,65.617C316.369,65.6,318.404,65,320.438,65.1C322.472,65.2,324.507,66,326.541,66.183C328.576,66.367,330.61,65.933,332.645,65.533C334.679,65.133,336.713,64.767,338.748,64.367C340.782,63.967,342.817,63.533,344.851,63.317C346.885,63.1,348.92,63.1,350.954,63.283C352.989,63.467,355.023,63.833,357.058,63.85C359.092,63.867,361.126,63.533,363.161,63.483C365.195,63.433,367.23,63.667,369.264,63.767C371.298,63.867,373.333,63.833,375.367,63.633C377.402,63.433,379.436,63.067,381.471,63.217C383.505,63.367,385.539,64.033,387.574,63.733C389.608,63.433,391.643,62.167,393.677,61.883C395.711,61.6,397.746,62.3,399.78,63.333C401.815,64.367,403.849,65.733,405.884,65.783C407.918,65.833,409.952,64.567,411.987,64.317C414.021,64.067,416.056,64.833,418.09,64.95C420.124,65.067,422.159,64.533,424.193,63.817C426.228,63.1,428.262,62.2,430.297,62.417C432.331,62.633,434.365,63.967,436.4,64C438.434,64.033,440.469,62.767,442.503,62.717C444.537,62.667,446.572,63.833,448.606,64.833C450.641,65.833,452.675,66.667,454.71,66.067C456.744,65.467,458.778,63.433,460.813,62.217C462.847,61,464.882,60.6,466.916,60.483C468.95,60.367,470.985,60.533,473.019,61.033C475.054,61.533,477.088,62.367,479.123,62.9C481.157,63.433,483.191,63.667,485.226,64.2C487.26,64.733,489.295,65.567,491.329,65.65C493.363,65.733,495.398,65.067,497.432,64.467C499.467,63.867,501.501,63.333,503.536,63C505.57,62.667,507.604,62.533,509.639,62.567C511.673,62.6,513.708,62.8,515.742,62.767C517.776,62.733,519.811,62.467,521.845,62.467C523.88,62.467,525.914,62.733,527.949,62.8C529.983,62.867,532.017,62.733,534.052,62.8C536.086,62.867,538.121,63.133,540.155,62.85C542.189,62.567,544.224,61.733,546.258,61.867C548.293,62,550.327,63.1,552.362,63.583C554.396,64.067,556.43,63.933,558.465,63.817C560.499,63.7,562.534,63.6,564.568,63.883C566.602,64.167,568.637,64.833,570.671,64.95C572.706,65.067,574.74,64.633,576.775,64.717C578.809,64.8,580.843,65.4,582.878,65.367C584.912,65.333,586.947,64.667,588.981,64.133" stroke="#FF4B33" stroke-width="2"/></g></g><path class="foreground" aria-hidden="true" d="" display="none"/></g><g transform="translate(0,0)"><path class="background" aria-hidden="true" d="M0,0h600v400h-600Z"/><g><g class="mark-line role-mark layer_1_marks" clip-path="url(#clip7)" role="graphics-object" aria-roledescription="line mark container"><path aria-label="Number of environment steps: 200.38k; Success rate: 0.125714285714; Network widths: Critic - 1024" role="graphics-symbol" aria-roledescription="line mark" d="M3.069,386.405C5.104,368.333,7.138,348.524,9.172,335.31C11.207,322.095,13.241,315.476,15.276,305.833C17.31,296.19,19.344,283.524,21.379,273.19C23.413,262.857,25.448,254.857,27.482,245.881C29.517,236.905,31.551,226.952,33.585,221.667C35.62,216.381,37.654,215.762,39.689,210.857C41.723,205.952,43.757,196.762,45.792,189.738C47.826,182.714,49.861,177.857,51.895,172.405C53.93,166.952,55.964,160.905,57.998,157.214C60.033,153.524,62.067,152.19,64.102,151.833C66.136,151.476,68.17,152.095,70.205,152.833C72.239,153.571,74.274,154.429,76.308,153.786C78.343,153.143,80.377,151,82.411,148.19C84.446,145.381,86.48,141.905,88.515,140.143C90.549,138.381,92.583,138.333,94.618,137.452C96.652,136.571,98.687,134.857,100.721,133.976C102.756,133.095,104.79,133.048,106.824,132.952C108.859,132.857,110.893,132.714,112.928,132.048C114.962,131.381,116.996,130.19,119.031,128.571C121.065,126.952,123.1,124.905,125.134,121.762C127.169,118.619,129.203,114.381,131.237,112.119C133.272,109.857,135.306,109.571,137.341,109.381C139.375,109.19,141.409,109.095,143.444,107.381C145.478,105.667,147.513,102.333,149.547,101.429C151.582,100.524,153.616,102.048,155.65,100.714C157.685,99.381,159.719,95.19,161.754,93.476C163.788,91.762,165.822,92.524,167.857,93C169.891,93.476,171.926,93.667,173.96,92.881C175.995,92.095,178.029,90.333,180.063,89.476C182.098,88.619,184.132,88.667,186.167,88.333C188.201,88,190.235,87.286,192.27,86.952C194.304,86.619,196.339,86.667,198.373,86.738C200.408,86.81,202.442,86.905,204.476,86.333C206.511,85.762,208.545,84.524,210.58,83.81C212.614,83.095,214.648,82.905,216.683,82.452C218.717,82,220.752,81.286,222.786,80.095C224.821,78.905,226.855,77.238,228.889,76.595C230.924,75.952,232.958,76.333,234.993,75.833C237.027,75.333,239.061,73.952,241.096,73.238C243.13,72.524,245.165,72.476,247.199,71.857C249.234,71.238,251.268,70.048,253.302,69.905C255.337,69.762,257.371,70.667,259.406,70.571C261.44,70.476,263.474,69.381,265.509,69.667C267.543,69.952,269.578,71.619,271.612,71.857C273.646,72.095,275.681,70.905,277.715,70.167C279.75,69.429,281.784,69.143,283.819,69.071C285.853,69,287.887,69.143,289.922,69.31C291.956,69.476,293.991,69.667,296.025,69.762C298.059,69.857,300.094,69.857,302.128,70.024C304.163,70.19,306.197,70.524,308.232,71.024C310.266,71.524,312.3,72.19,314.335,71.952C316.369,71.714,318.404,70.571,320.438,69.333C322.472,68.095,324.507,66.762,326.541,65.952C328.576,65.143,330.61,64.857,332.645,64.69C334.679,64.524,336.713,64.476,338.748,64.595C340.782,64.714,342.817,65,344.851,64.095C346.885,63.19,348.92,61.095,350.954,60.81C352.989,60.524,355.023,62.048,357.058,62.095C359.092,62.143,361.126,60.714,363.161,60.31C365.195,59.905,367.23,60.524,369.264,60.571C371.298,60.619,373.333,60.095,375.367,59.786C377.402,59.476,379.436,59.381,381.471,59.024C383.505,58.667,385.539,58.048,387.574,58.333C389.608,58.619,391.643,59.81,393.677,59.595C395.711,59.381,397.746,57.762,399.78,57.429C401.815,57.095,403.849,58.048,405.884,58.762C407.918,59.476,409.952,59.952,411.987,59.595C414.021,59.238,416.056,58.048,418.09,57.643C420.124,57.238,422.159,57.619,424.193,58.214C426.228,58.81,428.262,59.619,430.297,59.357C432.331,59.095,434.365,57.762,436.4,56.738C438.434,55.714,440.469,55,442.503,55.214C444.537,55.429,446.572,56.571,448.606,57.167C450.641,57.762,452.675,57.81,454.71,57.286C456.744,56.762,458.778,55.667,460.813,55.786C462.847,55.905,464.882,57.238,466.916,57.738C468.95,58.238,470.985,57.905,473.019,57.214C475.054,56.524,477.088,55.476,479.123,55.833C481.157,56.19,483.191,57.952,485.226,57.69C487.26,57.429,489.295,55.143,491.329,54.857C493.363,54.571,495.398,56.286,497.432,57.333C499.467,58.381,501.501,58.762,503.536,58.857C505.57,58.952,507.604,58.762,509.639,58.5C511.673,58.238,513.708,57.905,515.742,57.405C517.776,56.905,519.811,56.238,521.845,56.333C523.88,56.429,525.914,57.286,527.949,57.548C529.983,57.81,532.017,57.476,534.052,56.976C536.086,56.476,538.121,55.81,540.155,55.667C542.189,55.524,544.224,55.905,546.258,57.19C548.293,58.476,550.327,60.667,552.362,60.786C554.396,60.905,556.43,58.952,558.465,58.31C560.499,57.667,562.534,58.333,564.568,58.762C566.602,59.19,568.637,59.381,570.671,59.214C572.706,59.048,574.74,58.524,576.775,57.81C578.809,57.095,580.843,56.19,582.878,56.024C584.912,55.857,586.947,56.429,588.981,56.595" stroke="#B22B24" stroke-width="2"/></g></g><path class="foreground" aria-hidden="true" d="" display="none"/></g><g transform="translate(0,0)"><path class="background" aria-hidden="true" d="M0,0h600v400h-600Z"/><g><g class="mark-line role-mark layer_1_marks" clip-path="url(#clip8)" role="graphics-object" aria-roledescription="line mark container"><path aria-label="Number of environment steps: 200.38k; Success rate: 0.0736; Network widths: Actor - 200, Critic - 1024" role="graphics-symbol" aria-roledescription="line mark" d="M3.069,412.567C5.104,399,7.138,390.4,9.172,380.783C11.207,371.167,13.241,360.533,15.276,347.45C17.31,334.367,19.344,318.833,21.379,307.733C23.413,296.633,25.448,289.967,27.482,281.45C29.517,272.933,31.551,262.567,33.585,253.683C35.62,244.8,37.654,237.4,39.689,228.8C41.723,220.2,43.757,210.4,45.792,201.517C47.826,192.633,49.861,184.667,51.895,179.383C53.93,174.1,55.964,171.5,57.998,169.317C60.033,167.133,62.067,165.367,64.102,163.317C66.136,161.267,68.17,158.933,70.205,157.267C72.239,155.6,74.274,154.6,76.308,152.683C78.343,150.767,80.377,147.933,82.411,145.05C84.446,142.167,86.48,139.233,88.515,137.617C90.549,136,92.583,135.7,94.618,135.533C96.652,135.367,98.687,135.333,100.721,135.45C102.756,135.567,104.79,135.833,106.824,135.633C108.859,135.433,110.893,134.767,112.928,133.217C114.962,131.667,116.996,129.233,119.031,127.5C121.065,125.767,123.1,124.733,125.134,123.517C127.169,122.3,129.203,120.9,131.237,119.6C133.272,118.3,135.306,117.1,137.341,116.533C139.375,115.967,141.409,116.033,143.444,115.633C145.478,115.233,147.513,114.367,149.547,113.017C151.582,111.667,153.616,109.833,155.65,108.4C157.685,106.967,159.719,105.933,161.754,105.05C163.788,104.167,165.822,103.433,167.857,103.65C169.891,103.867,171.926,105.033,173.96,105.05C175.995,105.067,178.029,103.933,180.063,102.85C182.098,101.767,184.132,100.733,186.167,100.767C188.201,100.8,190.235,101.9,192.27,101.75C194.304,101.6,196.339,100.2,198.373,99.15C200.408,98.1,202.442,97.4,204.476,96.333C206.511,95.267,208.545,93.833,210.58,93.217C212.614,92.6,214.648,92.8,216.683,92.233C218.717,91.667,220.752,90.333,222.786,90.217C224.821,90.1,226.855,91.2,228.889,91.667C230.924,92.133,232.958,91.967,234.993,91.817C237.027,91.667,239.061,91.533,241.096,91.35C243.13,91.167,245.165,90.933,247.199,90.233C249.234,89.533,251.268,88.367,253.302,87.7C255.337,87.033,257.371,86.867,259.406,86.383C261.44,85.9,263.474,85.1,265.509,84.95C267.543,84.8,269.578,85.3,271.612,84.65C273.646,84,275.681,82.2,277.715,82.133C279.75,82.067,281.784,83.733,283.819,83.483C285.853,83.233,287.887,81.067,289.922,80.167C291.956,79.267,293.991,79.633,296.025,79.033C298.059,78.433,300.094,76.867,302.128,74.967C304.163,73.067,306.197,70.833,308.232,69.417C310.266,68,312.3,67.4,314.335,68.017C316.369,68.633,318.404,70.467,320.438,71.483C322.472,72.5,324.507,72.7,326.541,72.583C328.576,72.467,330.61,72.033,332.645,71.45C334.679,70.867,336.713,70.133,338.748,69.3C340.782,68.467,342.817,67.533,344.851,67.067C346.885,66.6,348.92,66.6,350.954,65.967C352.989,65.333,355.023,64.067,357.058,64.067C359.092,64.067,361.126,65.333,363.161,66.467C365.195,67.6,367.23,68.6,369.264,68.45C371.298,68.3,373.333,67,375.367,66.267C377.402,65.533,379.436,65.367,381.471,65.133C383.505,64.9,385.539,64.6,387.574,63.95C389.608,63.3,391.643,62.3,393.677,62.05C395.711,61.8,397.746,62.3,399.78,62.033C401.815,61.767,403.849,60.733,405.884,60.217C407.918,59.7,409.952,59.7,411.987,59.4C414.021,59.1,416.056,58.5,418.09,58.367C420.124,58.233,422.159,58.567,424.193,59.4C426.228,60.233,428.262,61.567,430.297,61.933C432.331,62.3,434.365,61.7,436.4,61.383C438.434,61.067,440.469,61.033,442.503,60.783C444.537,60.533,446.572,60.067,448.606,60.583C450.641,61.1,452.675,62.6,454.71,62.95C456.744,63.3,458.778,62.5,460.813,62.267C462.847,62.033,464.882,62.367,466.916,62.55C468.95,62.733,470.985,62.767,473.019,63.15C475.054,63.533,477.088,64.267,479.123,64.267C481.157,64.267,483.191,63.533,485.226,62.817C487.26,62.1,489.295,61.4,491.329,61.433C493.363,61.467,495.398,62.233,497.432,62.483C499.467,62.733,501.501,62.467,503.536,62.033C505.57,61.6,507.604,61,509.639,61.367C511.673,61.733,513.708,63.067,515.742,63.883C517.776,64.7,519.811,65,521.845,64.517C523.88,64.033,525.914,62.767,527.949,62.333C529.983,61.9,532.017,62.3,534.052,62.383C536.086,62.467,538.121,62.233,540.155,61.833C542.189,61.433,544.224,60.867,546.258,60.267C548.293,59.667,550.327,59.033,552.362,59.317C554.396,59.6,556.43,60.8,558.465,61.3C560.499,61.8,562.534,61.6,564.568,61.85C566.602,62.1,568.637,62.8,570.671,62.717C572.706,62.633,574.74,61.767,576.775,61.3C578.809,60.833,580.843,60.767,582.878,60.65C584.912,60.533,586.947,60.367,588.981,60.3" stroke="#4D130F" stroke-width="2"/></g></g><path class="foreground" aria-hidden="true" d="" display="none"/></g><g transform="translate(0,0)"><path class="background" aria-hidden="true" d="M0,0h600v400h-600Z"/><g><g class="mark-line role-mark layer_1_marks" clip-path="url(#clip9)" role="graphics-object" aria-roledescription="line mark container"><path aria-label="Number of environment steps: 200.38k; Success rate: 0.109; Network widths: Actor - 1024" role="graphics-symbol" aria-roledescription="line mark" d="M3.069,420.75C5.104,410.556,7.138,397.444,9.172,387.361C11.207,377.278,13.241,370.222,15.276,359.972C17.31,349.722,19.344,336.278,21.379,325.611C23.413,314.944,25.448,307.056,27.482,299.806C29.517,292.556,31.551,285.944,33.585,280.083C35.62,274.222,37.654,269.111,39.689,263.917C41.723,258.722,43.757,253.444,45.792,248.722C47.826,244,49.861,239.833,51.895,236.444C53.93,233.056,55.964,230.444,57.998,228.056C60.033,225.667,62.067,223.5,64.102,220.639C66.136,217.778,68.17,214.222,70.205,211.917C72.239,209.611,74.274,208.556,76.308,204.806C78.343,201.056,80.377,194.611,82.411,190.278C84.446,185.944,86.48,183.722,88.515,181.444C90.549,179.167,92.583,176.833,94.618,174C96.652,171.167,98.687,167.833,100.721,165.806C102.756,163.778,104.79,163.056,106.824,161.778C108.859,160.5,110.893,158.667,112.928,158.194C114.962,157.722,116.996,158.611,119.031,159.278C121.065,159.944,123.1,160.389,125.134,160.028C127.169,159.667,129.203,158.5,131.237,157.5C133.272,156.5,135.306,155.667,137.341,154.417C139.375,153.167,141.409,151.5,143.444,150.944C145.478,150.389,147.513,150.944,149.547,151.75C151.582,152.556,153.616,153.611,155.65,152.861C157.685,152.111,159.719,149.556,161.754,147.306C163.788,145.056,165.822,143.111,167.857,142.528C169.891,141.944,171.926,142.722,173.96,141.806C175.995,140.889,178.029,138.278,180.063,135.917C182.098,133.556,184.132,131.444,186.167,130.333C188.201,129.222,190.235,129.111,192.27,130.139C194.304,131.167,196.339,133.333,198.373,133.472C200.408,133.611,202.442,131.722,204.476,130.972C206.511,130.222,208.545,130.611,210.58,130.583C212.614,130.556,214.648,130.111,216.683,129.056C218.717,128,220.752,126.333,222.786,125.75C224.821,125.167,226.855,125.667,228.889,125.611C230.924,125.556,232.958,124.944,234.993,123.889C237.027,122.833,239.061,121.333,241.096,121.694C243.13,122.056,245.165,124.278,247.199,124.722C249.234,125.167,251.268,123.833,253.302,123.444C255.337,123.056,257.371,123.611,259.406,123.556C261.44,123.5,263.474,122.833,265.509,122.306C267.543,121.778,269.578,121.389,271.612,122.806C273.646,124.222,275.681,127.444,277.715,127.333C279.75,127.222,281.784,123.778,283.819,123.25C285.853,122.722,287.887,125.111,289.922,125.833C291.956,126.556,293.991,125.611,296.025,124.139C298.059,122.667,300.094,120.667,302.128,119.972C304.163,119.278,306.197,119.889,308.232,119.306C310.266,118.722,312.3,116.944,314.335,116.694C316.369,116.444,318.404,117.722,320.438,118.333C322.472,118.944,324.507,118.889,326.541,117.722C328.576,116.556,330.61,114.278,332.645,113.222C334.679,112.167,336.713,112.333,338.748,113.056C340.782,113.778,342.817,115.056,344.851,114.917C346.885,114.778,348.92,113.222,350.954,111.556C352.989,109.889,355.023,108.111,357.058,106.806C359.092,105.5,361.126,104.667,363.161,104.583C365.195,104.5,367.23,105.167,369.264,105.444C371.298,105.722,373.333,105.611,375.367,106.167C377.402,106.722,379.436,107.944,381.471,108.167C383.505,108.389,385.539,107.611,387.574,107.722C389.608,107.833,391.643,108.833,393.677,108.417C395.711,108,397.746,106.167,399.78,105.167C401.815,104.167,403.849,104,405.884,104.111C407.918,104.222,409.952,104.611,411.987,103.806C414.021,103,416.056,101,418.09,100.194C420.124,99.389,422.159,99.778,424.193,98.25C426.228,96.722,428.262,93.278,430.297,92.917C432.331,92.556,434.365,95.278,436.4,95.694C438.434,96.111,440.469,94.222,442.503,92.167C444.537,90.111,446.572,87.889,448.606,87.5C450.641,87.111,452.675,88.556,454.71,88.861C456.744,89.167,458.778,88.333,460.813,86.972C462.847,85.611,464.882,83.722,466.916,82.972C468.95,82.222,470.985,82.611,473.019,82.722C475.054,82.833,477.088,82.667,479.123,81.833C481.157,81,483.191,79.5,485.226,80C487.26,80.5,489.295,83,491.329,84.056C493.363,85.111,495.398,84.722,497.432,84.028C499.467,83.333,501.501,82.333,503.536,81.528C505.57,80.722,507.604,80.111,509.639,79.806C511.673,79.5,513.708,79.5,515.742,80.333C517.776,81.167,519.811,82.833,521.845,83.583C523.88,84.333,525.914,84.167,527.949,84.417C529.983,84.667,532.017,85.333,534.052,85.861C536.086,86.389,538.121,86.778,540.155,87.472C542.189,88.167,544.224,89.167,546.258,88.806C548.293,88.444,550.327,86.722,552.362,86.639C554.396,86.556,556.43,88.111,558.465,87.806C560.499,87.5,562.534,85.333,564.568,84.25C566.602,83.167,568.637,83.167,570.671,82.889C572.706,82.611,574.74,82.056,576.775,82.056C578.809,82.056,580.843,82.611,582.878,82.528C584.912,82.444,586.947,81.722,588.981,83.083" stroke="#546569" stroke-width="2"/></g></g><path class="foreground" aria-hidden="true" d="" display="none"/></g><g transform="translate(0,0)"><path class="background" aria-hidden="true" d="M0,0h600v400h-600Z"/><g><g class="mark-line role-mark layer_1_marks" clip-path="url(#clip10)" role="graphics-object" aria-roledescription="line mark container"><path aria-label="Number of environment steps: 200.38k; Success rate: 0.0898; Network widths: Actor - 1024, Critic - 200" role="graphics-symbol" aria-roledescription="line mark" d="M3.069,419.033C5.104,406.967,7.138,394.833,9.172,386.417C11.207,378,13.241,373.3,15.276,368.267C17.31,363.233,19.344,357.867,21.379,352.55C23.413,347.233,25.448,341.967,27.482,336.183C29.517,330.4,31.551,324.1,33.585,318.833C35.62,313.567,37.654,309.333,39.689,303.667C41.723,298,43.757,290.9,45.792,284.45C47.826,278,49.861,272.2,51.895,268.75C53.93,265.3,55.964,264.2,57.998,263.283C60.033,262.367,62.067,261.633,64.102,259.35C66.136,257.067,68.17,253.233,70.205,249.283C72.239,245.333,74.274,241.267,76.308,238.6C78.343,235.933,80.377,234.667,82.411,233.183C84.446,231.7,86.48,230,88.515,227.333C90.549,224.667,92.583,221.033,94.618,219.517C96.652,218,98.687,218.6,100.721,216.117C102.756,213.633,104.79,208.067,106.824,204.533C108.859,201,110.893,199.5,112.928,196.25C114.962,193,116.996,188,119.031,185.083C121.065,182.167,123.1,181.333,125.134,179.967C127.169,178.6,129.203,176.7,131.237,175.55C133.272,174.4,135.306,174,137.341,173.167C139.375,172.333,141.409,171.067,143.444,170.433C145.478,169.8,147.513,169.8,149.547,169.333C151.582,168.867,153.616,167.933,155.65,167.533C157.685,167.133,159.719,167.267,161.754,167.15C163.788,167.033,165.822,166.667,167.857,166.367C169.891,166.067,171.926,165.833,173.96,164.85C175.995,163.867,178.029,162.133,180.063,161.533C182.098,160.933,184.132,161.467,186.167,160.983C188.201,160.5,190.235,159,192.27,158.167C194.304,157.333,196.339,157.167,198.373,156.717C200.408,156.267,202.442,155.533,204.476,155.05C206.511,154.567,208.545,154.333,210.58,154.633C212.614,154.933,214.648,155.767,216.683,155.683C218.717,155.6,220.752,154.6,222.786,154.05C224.821,153.5,226.855,153.4,228.889,153.617C230.924,153.833,232.958,154.367,234.993,154.35C237.027,154.333,239.061,153.767,241.096,153.283C243.13,152.8,245.165,152.4,247.199,152.533C249.234,152.667,251.268,153.333,253.302,154.117C255.337,154.9,257.371,155.8,259.406,155.683C261.44,155.567,263.474,154.433,265.509,154.633C267.543,154.833,269.578,156.367,271.612,156.4C273.646,156.433,275.681,154.967,277.715,154.383C279.75,153.8,281.784,154.1,283.819,153.917C285.853,153.733,287.887,153.067,289.922,152.367C291.956,151.667,293.991,150.933,296.025,150.933C298.059,150.933,300.094,151.667,302.128,151.85C304.163,152.033,306.197,151.667,308.232,151.617C310.266,151.567,312.3,151.833,314.335,152.017C316.369,152.2,318.404,152.3,320.438,152.083C322.472,151.867,324.507,151.333,326.541,151.217C328.576,151.1,330.61,151.4,332.645,151.717C334.679,152.033,336.713,152.367,338.748,152.283C340.782,152.2,342.817,151.7,344.851,151.383C346.885,151.067,348.92,150.933,350.954,150.967C352.989,151,355.023,151.2,357.058,151.367C359.092,151.533,361.126,151.667,363.161,151.467C365.195,151.267,367.23,150.733,369.264,150.817C371.298,150.9,373.333,151.6,375.367,151.483C377.402,151.367,379.436,150.433,381.471,150.6C383.505,150.767,385.539,152.033,387.574,152.817C389.608,153.6,391.643,153.9,393.677,153.5C395.711,153.1,397.746,152,399.78,151.333C401.815,150.667,403.849,150.433,405.884,150.5C407.918,150.567,409.952,150.933,411.987,152.033C414.021,153.133,416.056,154.967,418.09,155.45C420.124,155.933,422.159,155.067,424.193,153.667C426.228,152.267,428.262,150.333,430.297,149.717C432.331,149.1,434.365,149.8,436.4,150.633C438.434,151.467,440.469,152.433,442.503,153.1C444.537,153.767,446.572,154.133,448.606,153.233C450.641,152.333,452.675,150.167,454.71,149.533C456.744,148.9,458.778,149.8,460.813,149.767C462.847,149.733,464.882,148.767,466.916,148.583C468.95,148.4,470.985,149,473.019,149.267C475.054,149.533,477.088,149.467,479.123,149.533C481.157,149.6,483.191,149.8,485.226,149.6C487.26,149.4,489.295,148.8,491.329,148.15C493.363,147.5,495.398,146.8,497.432,147.017C499.467,147.233,501.501,148.367,503.536,148.65C505.57,148.933,507.604,148.367,509.639,148.467C511.673,148.567,513.708,149.333,515.742,149.583C517.776,149.833,519.811,149.567,521.845,149.067C523.88,148.567,525.914,147.833,527.949,147.25C529.983,146.667,532.017,146.233,534.052,146.083C536.086,145.933,538.121,146.067,540.155,145.833C542.189,145.6,544.224,145,546.258,145.167C548.293,145.333,550.327,146.267,552.362,146.95C554.396,147.633,556.43,148.067,558.465,147.817C560.499,147.567,562.534,146.633,564.568,146.067C566.602,145.5,568.637,145.3,570.671,145.633C572.706,145.967,574.74,146.833,576.775,146.65C578.809,146.467,580.843,145.233,582.878,144.6C584.912,143.967,586.947,143.933,588.981,143.4" stroke="#3D494C" stroke-width="2"/></g></g><path class="foreground" aria-hidden="true" d="" display="none"/></g></g><g class="mark-group role-legend" role="graphics-symbol" aria-roledescription="legend" aria-label="Symbol legend titled 'Network widths' for fill color and stroke color with 5 values: Actor - 1024, Critic - 1024, Critic - 1024, Actor - 200, Critic - 1024, Actor - 1024, Actor - 1024, Critic - 200"><g transform="translate(618,0)"><path class="background" aria-hidden="true" d="M0,0h169v99h-169Z" pointer-events="none"/><g><g class="mark-group role-legend-entry"><g transform="translate(0,21)"><path class="background" aria-hidden="true" d="M0,0h0v0h0Z" pointer-events="none"/><g><g class="mark-group role-scope" role="graphics-object" aria-roledescription="group mark container"><g transform="translate(0,0)"><path class="background" aria-hidden="true" d="M0,0h168.0830078125v14h-168.0830078125Z" pointer-events="none" opacity="1"/><g><g class="mark-symbol role-legend-symbol" pointer-events="none"><path transform="translate(7,7)" d="M5,0A5,5,0,1,1,-5,0A5,5,0,1,1,5,0" fill="#FF4B33" stroke="#FF4B33" stroke-width="1.5" opacity="0.3"/></g><g class="mark-text role-legend-label" pointer-events="none"><text text-anchor="start" transform="translate(18,11)" font-family="Times New Roman" font-size="14px" fill="#000" opacity="1">Actor - 1024, Critic - 1024</text></g></g><path class="foreground" aria-hidden="true" d="" pointer-events="none" display="none"/></g><g transform="translate(0,16)"><path class="background" aria-hidden="true" d="M0,0h168.0830078125v14h-168.0830078125Z" pointer-events="none" opacity="1"/><g><g class="mark-symbol role-legend-symbol" pointer-events="none"><path transform="translate(7,7)" d="M5,0A5,5,0,1,1,-5,0A5,5,0,1,1,5,0" fill="#B22B24" stroke="#B22B24" stroke-width="1.5" opacity="0.3"/></g><g class="mark-text role-legend-label" pointer-events="none"><text text-anchor="start" transform="translate(18,11)" font-family="Times New Roman" font-size="14px" fill="#000" opacity="1">Critic - 1024</text></g></g><path class="foreground" aria-hidden="true" d="" pointer-events="none" display="none"/></g><g transform="translate(0,32)"><path class="background" aria-hidden="true" d="M0,0h168.0830078125v14h-168.0830078125Z" pointer-events="none" opacity="1"/><g><g class="mark-symbol role-legend-symbol" pointer-events="none"><path transform="translate(7,7)" d="M5,0A5,5,0,1,1,-5,0A5,5,0,1,1,5,0" fill="#4D130F" stroke="#4D130F" stroke-width="1.5" opacity="0.3"/></g><g class="mark-text role-legend-label" pointer-events="none"><text text-anchor="start" transform="translate(18,11)" font-family="Times New Roman" font-size="14px" fill="#000" opacity="1">Actor - 200, Critic - 1024</text></g></g><path class="foreground" aria-hidden="true" d="" pointer-events="none" display="none"/></g><g transform="translate(0,48)"><path class="background" aria-hidden="true" d="M0,0h168.0830078125v14h-168.0830078125Z" pointer-events="none" opacity="1"/><g><g class="mark-symbol role-legend-symbol" pointer-events="none"><path transform="translate(7,7)" d="M5,0A5,5,0,1,1,-5,0A5,5,0,1,1,5,0" fill="#546569" stroke="#546569" stroke-width="1.5" opacity="0.3"/></g><g class="mark-text role-legend-label" pointer-events="none"><text text-anchor="start" transform="translate(18,11)" font-family="Times New Roman" font-size="14px" fill="#000" opacity="1">Actor - 1024</text></g></g><path class="foreground" aria-hidden="true" d="" pointer-events="none" display="none"/></g><g transform="translate(0,64)"><path class="background" aria-hidden="true" d="M0,0h168.0830078125v14h-168.0830078125Z" pointer-events="none" opacity="1"/><g><g class="mark-symbol role-legend-symbol" pointer-events="none"><path transform="translate(7,7)" d="M5,0A5,5,0,1,1,-5,0A5,5,0,1,1,5,0" fill="#3D494C" stroke="#3D494C" stroke-width="1.5" opacity="0.3"/></g><g class="mark-text role-legend-label" pointer-events="none"><text text-anchor="start" transform="translate(18,11)" font-family="Times New Roman" font-size="14px" fill="#000" opacity="1">Actor - 1024, Critic - 200</text></g></g><path class="foreground" aria-hidden="true" d="" pointer-events="none" display="none"/></g></g></g><path class="foreground" aria-hidden="true" d="" pointer-events="none" display="none"/></g></g><g class="mark-text role-legend-title" pointer-events="none"><text text-anchor="start" transform="translate(0,13)" font-family="Times New Roman" font-size="16px" font-weight="bold" fill="#000" opacity="1">Network widths</text></g></g><path class="foreground" aria-hidden="true" d="" pointer-events="none" display="none"/></g></g></g><path class="foreground" aria-hidden="true" d="" display="none"/></g></g></g><defs><clipPath id="clip1"><rect x="0" y="0" width="600" height="400"/></clipPath><clipPath id="clip2"><rect x="0" y="0" width="600" height="400"/></clipPath><clipPath id="clip3"><rect x="0" y="0" width="600" height="400"/></clipPath><clipPath id="clip4"><rect x="0" y="0" width="600" height="400"/></clipPath><clipPath id="clip5"><rect x="0" y="0" width="600" height="400"/></clipPath><clipPath id="clip6"><rect x="0" y="0" width="600" height="400"/></clipPath><clipPath id="clip7"><rect x="0" y="0" width="600" height="400"/></clipPath><clipPath id="clip8"><rect x="0" y="0" width="600" height="400"/></clipPath><clipPath id="clip9"><rect x="0" y="0" width="600" height="400"/></clipPath><clipPath id="clip10"><rect x="0" y="0" width="600" height="400"/></clipPath></defs></svg>