<svg xmlns="http://www.w3.org/2000/svg" xmlns:xlink="http://www.w3.org/1999/xlink" version="1.1" class="marks" width="842" height="458" viewBox="0 0 842 458"><rect width="842" height="458" fill="white"/><g fill="none" stroke-miterlimit="10" transform="translate(50,12)"><g class="mark-group role-frame root" role="graphics-object" aria-roledescription="group mark container"><g transform="translate(0,0)"><path class="background" aria-hidden="true" d="M0.5,0.5h600v400h-600Z" stroke="#ddd"/><g><g class="mark-group role-axis" aria-hidden="true"><g transform="translate(0.5,400.5)"><path class="background" aria-hidden="true" d="M0,0h0v0h0Z" pointer-events="none"/><g><g class="mark-rule role-axis-grid" pointer-events="none"><line transform="translate(21,-400)" x2="0" y2="400" stroke="#ddd" stroke-width="1" opacity="1"/><line transform="translate(52,-400)" x2="0" y2="400" stroke="#ddd" stroke-width="1" opacity="1"/><line transform="translate(82,-400)" x2="0" y2="400" stroke="#ddd" stroke-width="1" opacity="1"/><line transform="translate(113,-400)" x2="0" y2="400" stroke="#ddd" stroke-width="1" opacity="1"/><line transform="translate(143,-400)" x2="0" y2="400" stroke="#ddd" stroke-width="1" opacity="1"/><line transform="translate(174,-400)" x2="0" y2="400" stroke="#ddd" stroke-width="1" opacity="1"/><line transform="translate(204,-400)" x2="0" y2="400" stroke="#ddd" stroke-width="1" opacity="1"/><line transform="translate(235,-400)" x2="0" y2="400" stroke="#ddd" stroke-width="1" opacity="1"/><line transform="translate(265,-400)" x2="0" y2="400" stroke="#ddd" stroke-width="1" opacity="1"/><line transform="translate(295,-400)" x2="0" y2="400" stroke="#ddd" stroke-width="1" opacity="1"/><line transform="translate(326,-400)" x2="0" y2="400" stroke="#ddd" stroke-width="1" opacity="1"/><line transform="translate(356,-400)" x2="0" y2="400" stroke="#ddd" stroke-width="1" opacity="1"/><line transform="translate(387,-400)" x2="0" y2="400" stroke="#ddd" stroke-width="1" opacity="1"/><line transform="translate(417,-400)" x2="0" y2="400" stroke="#ddd" stroke-width="1" opacity="1"/><line transform="translate(448,-400)" x2="0" y2="400" stroke="#ddd" stroke-width="1" opacity="1"/><line transform="translate(478,-400)" x2="0" y2="400" stroke="#ddd" stroke-width="1" opacity="1"/><line transform="translate(509,-400)" x2="0" y2="400" stroke="#ddd" stroke-width="1" opacity="1"/><line transform="translate(539,-400)" x2="0" y2="400" stroke="#ddd" stroke-width="1" opacity="1"/><line transform="translate(570,-400)" x2="0" y2="400" stroke="#ddd" stroke-width="1" opacity="1"/><line transform="translate(600,-400)" x2="0" y2="400" stroke="#ddd" stroke-width="1" opacity="1"/></g></g><path class="foreground" aria-hidden="true" d="" pointer-events="none" display="none"/></g></g><g class="mark-group role-axis" aria-hidden="true"><g transform="translate(0.5,0.5)"><path class="background" aria-hidden="true" d="M0,0h0v0h0Z" pointer-events="none"/><g><g class="mark-rule role-axis-grid" pointer-events="none"><line transform="translate(0,400)" x2="600" y2="0" stroke="#ddd" stroke-width="1" opacity="1"/><line transform="translate(0,350)" x2="600" y2="0" stroke="#ddd" stroke-width="1" opacity="1"/><line transform="translate(0,300)" x2="600" y2="0" stroke="#ddd" stroke-width="1" opacity="1"/><line transform="translate(0,250)" x2="600" y2="0" stroke="#ddd" stroke-width="1" opacity="1"/><line transform="translate(0,200)" x2="600" y2="0" stroke="#ddd" stroke-width="1" opacity="1"/><line transform="translate(0,150)" x2="600" y2="0" stroke="#ddd" stroke-width="1" opacity="1"/><line transform="translate(0,100)" x2="600" y2="0" stroke="#ddd" stroke-width="1" opacity="1"/><line transform="translate(0,50)" x2="600" y2="0" stroke="#ddd" stroke-width="1" opacity="1"/><line transform="translate(0,0)" x2="600" y2="0" stroke="#ddd" stroke-width="1" opacity="1"/></g></g><path class="foreground" aria-hidden="true" d="" pointer-events="none" display="none"/></g></g><g class="mark-group role-axis" role="graphics-symbol" aria-roledescription="axis" aria-label="X-axis titled 'Timestep' for a linear scale with values from 0M to 20M"><g transform="translate(0.5,400.5)"><path class="background" aria-hidden="true" d="M0,0h0v0h0Z" pointer-events="none"/><g><g class="mark-rule role-axis-tick" pointer-events="none"><line transform="translate(21,0)" x2="0" y2="5" stroke="#888" stroke-width="1" opacity="1"/><line transform="translate(52,0)" x2="0" y2="5" stroke="#888" stroke-width="1" opacity="1"/><line transform="translate(82,0)" x2="0" y2="5" stroke="#888" stroke-width="1" opacity="1"/><line transform="translate(113,0)" x2="0" y2="5" stroke="#888" stroke-width="1" opacity="1"/><line transform="translate(143,0)" x2="0" y2="5" stroke="#888" stroke-width="1" opacity="1"/><line transform="translate(174,0)" x2="0" y2="5" stroke="#888" stroke-width="1" opacity="1"/><line transform="translate(204,0)" x2="0" y2="5" stroke="#888" stroke-width="1" opacity="1"/><line transform="translate(235,0)" x2="0" y2="5" stroke="#888" stroke-width="1" opacity="1"/><line transform="translate(265,0)" x2="0" y2="5" stroke="#888" stroke-width="1" opacity="1"/><line transform="translate(295,0)" x2="0" y2="5" stroke="#888" stroke-width="1" opacity="1"/><line transform="translate(326,0)" x2="0" y2="5" stroke="#888" stroke-width="1" opacity="1"/><line transform="translate(356,0)" x2="0" y2="5" stroke="#888" stroke-width="1" opacity="1"/><line transform="translate(387,0)" x2="0" y2="5" stroke="#888" stroke-width="1" opacity="1"/><line transform="translate(417,0)" x2="0" y2="5" stroke="#888" stroke-width="1" opacity="1"/><line transform="translate(448,0)" x2="0" y2="5" stroke="#888" stroke-width="1" opacity="1"/><line transform="translate(478,0)" x2="0" y2="5" stroke="#888" stroke-width="1" opacity="1"/><line transform="translate(509,0)" x2="0" y2="5" stroke="#888" stroke-width="1" opacity="1"/><line transform="translate(539,0)" x2="0" y2="5" stroke="#888" stroke-width="1" opacity="1"/><line transform="translate(570,0)" x2="0" y2="5" stroke="#888" stroke-width="1" opacity="1"/><line transform="translate(600,0)" x2="0" y2="5" stroke="#888" stroke-width="1" opacity="1"/></g><g class="mark-text role-axis-label" pointer-events="none"><text text-anchor="middle" transform="translate(21.31979695431472,18)" font-family="Times New Roman" font-size="14px" fill="#000" opacity="1">1M</text><text text-anchor="middle" transform="translate(51.77664974619289,18)" font-family="Times New Roman" font-size="14px" fill="#000" opacity="0">2M</text><text text-anchor="middle" transform="translate(82.23350253807106,18)" font-family="Times New Roman" font-size="14px" fill="#000" opacity="1">3M</text><text text-anchor="middle" transform="translate(112.69035532994924,18)" font-family="Times New Roman" font-size="14px" fill="#000" opacity="0">4M</text><text text-anchor="middle" transform="translate(143.14720812182742,18)" font-family="Times New Roman" font-size="14px" fill="#000" opacity="1">5M</text><text text-anchor="middle" transform="translate(173.60406091370558,18)" font-family="Times New Roman" font-size="14px" fill="#000" opacity="0">6M</text><text text-anchor="middle" transform="translate(204.06091370558377,18)" font-family="Times New Roman" font-size="14px" fill="#000" opacity="1">7M</text><text text-anchor="middle" transform="translate(234.51776649746193,18)" font-family="Times New Roman" font-size="14px" fill="#000" opacity="0">8M</text><text text-anchor="middle" transform="translate(264.97461928934007,18)" font-family="Times New Roman" font-size="14px" fill="#000" opacity="1">9M</text><text text-anchor="middle" transform="translate(295.43147208121826,18)" font-family="Times New Roman" font-size="14px" fill="#000" opacity="0">10M</text><text text-anchor="middle" transform="translate(325.88832487309645,18)" font-family="Times New Roman" font-size="14px" fill="#000" opacity="1">11M</text><text text-anchor="middle" transform="translate(356.34517766497464,18)" font-family="Times New Roman" font-size="14px" fill="#000" opacity="0">12M</text><text text-anchor="middle" transform="translate(386.80203045685283,18)" font-family="Times New Roman" font-size="14px" fill="#000" opacity="1">13M</text><text text-anchor="middle" transform="translate(417.25888324873097,18)" font-family="Times New Roman" font-size="14px" fill="#000" opacity="0">14M</text><text text-anchor="middle" transform="translate(447.71573604060916,18)" font-family="Times New Roman" font-size="14px" fill="#000" opacity="1">15M</text><text text-anchor="middle" transform="translate(478.1725888324873,18)" font-family="Times New Roman" font-size="14px" fill="#000" opacity="0">16M</text><text text-anchor="middle" transform="translate(508.6294416243655,18)" font-family="Times New Roman" font-size="14px" fill="#000" opacity="1">17M</text><text text-anchor="middle" transform="translate(539.0862944162436,18)" font-family="Times New Roman" font-size="14px" fill="#000" opacity="0">18M</text><text text-anchor="middle" transform="translate(569.5431472081218,18)" font-family="Times New Roman" font-size="14px" fill="#000" opacity="1">19M</text><text text-anchor="end" transform="translate(600,18)" font-family="Times New Roman" font-size="14px" fill="#000" opacity="0">20M</text></g><g class="mark-rule role-axis-domain" pointer-events="none"><line transform="translate(0,0)" x2="600" y2="0" stroke="#888" stroke-width="1" opacity="1"/></g><g class="mark-text role-axis-title" pointer-events="none"><text text-anchor="middle" transform="translate(300,38)" font-family="Times New Roman" font-size="16px" font-weight="bold" fill="#000" opacity="1">Timestep</text></g></g><path class="foreground" aria-hidden="true" d="" pointer-events="none" display="none"/></g></g><g class="mark-group role-axis" role="graphics-symbol" aria-roledescription="axis" aria-label="Y-axis titled 'Success rate' for a linear scale with values from 0.2 to 1.0"><g transform="translate(0.5,0.5)"><path class="background" aria-hidden="true" d="M0,0h0v0h0Z" pointer-events="none"/><g><g class="mark-rule role-axis-tick" pointer-events="none"><line transform="translate(0,400)" x2="-5" y2="0" stroke="#888" stroke-width="1" opacity="1"/><line transform="translate(0,350)" x2="-5" y2="0" stroke="#888" stroke-width="1" opacity="1"/><line transform="translate(0,300)" x2="-5" y2="0" stroke="#888" stroke-width="1" opacity="1"/><line transform="translate(0,250)" x2="-5" y2="0" stroke="#888" stroke-width="1" opacity="1"/><line transform="translate(0,200)" x2="-5" y2="0" stroke="#888" stroke-width="1" opacity="1"/><line transform="translate(0,150)" x2="-5" y2="0" stroke="#888" stroke-width="1" opacity="1"/><line transform="translate(0,100)" x2="-5" y2="0" stroke="#888" stroke-width="1" opacity="1"/><line transform="translate(0,50)" x2="-5" y2="0" stroke="#888" stroke-width="1" opacity="1"/><line transform="translate(0,0)" x2="-5" y2="0" stroke="#888" stroke-width="1" opacity="1"/></g><g class="mark-text role-axis-label" pointer-events="none"><text text-anchor="end" transform="translate(-7,404)" font-family="Times New Roman" font-size="14px" fill="#000" opacity="1">0.2</text><text text-anchor="end" transform="translate(-7,354)" font-family="Times New Roman" font-size="14px" fill="#000" opacity="1">0.3</text><text text-anchor="end" transform="translate(-7,304)" font-family="Times New Roman" font-size="14px" fill="#000" opacity="1">0.4</text><text text-anchor="end" transform="translate(-7,254)" font-family="Times New Roman" font-size="14px" fill="#000" opacity="1">0.5</text><text text-anchor="end" transform="translate(-7,204)" font-family="Times New Roman" font-size="14px" fill="#000" opacity="1">0.6</text><text text-anchor="end" transform="translate(-7,154.00000000000006)" font-family="Times New Roman" font-size="14px" fill="#000" opacity="1">0.7</text><text text-anchor="end" transform="translate(-7,103.99999999999996)" font-family="Times New Roman" font-size="14px" fill="#000" opacity="1">0.8</text><text text-anchor="end" transform="translate(-7,54.00000000000004)" font-family="Times New Roman" font-size="14px" fill="#000" opacity="1">0.9</text><text text-anchor="end" transform="translate(-7,4)" font-family="Times New Roman" font-size="14px" fill="#000" opacity="1">1.0</text></g><g class="mark-rule role-axis-domain" pointer-events="none"><line transform="translate(0,400)" x2="0" y2="-400" stroke="#888" stroke-width="1" opacity="1"/></g><g class="mark-text role-axis-title" pointer-events="none"><text text-anchor="middle" transform="translate(-28.5,200) rotate(-90) translate(0,-3)" font-family="Times New Roman" font-size="16px" font-weight="bold" fill="#000" opacity="1">Success rate</text></g></g><path class="foreground" aria-hidden="true" d="" pointer-events="none" display="none"/></g></g><g class="mark-group role-scope layer_0_layer_0_pathgroup" role="graphics-object" aria-roledescription="group mark container"><g transform="translate(0,0)"><path class="background" aria-hidden="true" d="M0,0h600v400h-600Z"/><g><g class="mark-area role-mark layer_0_layer_0_marks" clip-path="url(#clip1)" role="graphics-object" aria-roledescription="area mark container"><path aria-label="Timestep: 200.38k; Success rate: 0.0772; upper_Success rate: 0.123005; Network widths: Actor - 1024, Critic - 1024; Ci1 of Success rate: 0.123005; Ci0 of Success rate: 0.0772; Mean of Success rate: 0.1004" role="graphics-symbol" aria-roledescription="errorband" d="M3.069,416.954C5.104,401.571,7.138,385.337,9.172,373.47C11.207,361.604,13.241,354.106,15.276,345.39C17.31,336.673,19.344,326.739,21.379,316.005C23.413,305.271,25.448,293.737,27.482,287.987C29.517,282.237,31.551,282.271,33.585,284.007C35.62,285.743,37.654,289.182,39.689,287.699C41.723,286.216,43.757,279.812,45.792,273.776C47.826,267.741,49.861,262.074,51.895,259.974C53.93,257.874,55.964,259.341,57.998,260.574C60.033,261.808,62.067,262.808,64.102,261.29C66.136,259.773,68.17,255.737,70.205,250.437C72.239,245.136,74.274,238.569,76.308,235.987C78.343,233.405,80.377,234.808,82.411,233.674C84.446,232.54,86.48,228.87,88.515,225.969C90.549,223.068,92.583,220.937,94.618,220.105C96.652,219.273,98.687,219.742,100.721,217.175C102.756,214.608,104.79,209.007,106.824,207.174C108.859,205.342,110.893,207.278,112.928,205.595C114.962,203.911,116.996,198.607,119.031,194.405C121.065,190.203,123.1,187.103,125.134,185.537C127.169,183.971,129.203,183.939,131.237,181.023C133.272,178.106,135.306,172.304,137.341,166.92C139.375,161.537,141.409,156.571,143.444,154.77C145.478,152.97,147.513,154.335,149.547,152.218C151.582,150.101,153.616,144.502,155.65,141.118C157.685,137.735,159.719,136.568,161.754,132.918C163.788,129.268,165.822,123.137,167.857,118.605C169.891,114.073,171.926,111.142,173.96,109.925C175.995,108.709,178.029,109.208,180.063,110.19C182.098,111.172,184.132,112.637,186.167,113.521C188.201,114.404,190.235,114.706,192.27,113.373C194.304,112.04,196.339,109.072,198.373,107.939C200.408,106.805,202.442,107.505,204.476,107.889C206.511,108.272,208.545,108.34,210.58,106.156C212.614,103.972,214.648,99.537,216.683,98.003C218.717,96.469,220.752,97.836,222.786,96.885C224.821,95.935,226.855,92.668,228.889,91.468C230.924,90.268,232.958,91.135,234.993,91.718C237.027,92.302,239.061,92.601,241.096,92.2C243.13,91.8,245.165,90.7,247.199,89.733C249.234,88.767,251.268,87.933,253.302,87.817C255.337,87.7,257.371,88.3,259.406,88.5C261.44,88.7,263.474,88.5,265.509,88.018C267.543,87.537,269.578,86.773,271.612,84.19C273.646,81.608,275.681,77.205,277.715,75.07C279.75,72.936,281.784,73.069,283.819,72.203C285.853,71.336,287.887,69.469,289.922,69.686C291.956,69.903,293.991,72.203,296.025,72.886C298.059,73.569,300.094,72.636,302.128,72.586C304.163,72.537,306.197,73.371,308.232,73.704C310.266,74.037,312.3,73.87,314.335,73.819C316.369,73.768,318.404,73.834,320.438,75.317C322.472,76.8,324.507,79.7,326.541,80.4C328.576,81.101,330.61,79.602,332.645,79.003C334.679,78.404,336.713,78.706,338.748,77.289C340.782,75.872,342.817,72.736,344.851,71.335C346.885,69.933,348.92,70.267,350.954,70.484C352.989,70.701,355.023,70.802,357.058,70.486C359.092,70.17,361.126,69.438,363.161,69.204C365.195,68.97,367.23,69.235,369.264,69.617C371.298,70,373.333,70.5,375.367,70.35C377.402,70.2,379.436,69.4,381.471,69.683C383.505,69.967,385.539,71.333,387.574,71.117C389.608,70.901,391.643,69.102,393.677,68.602C395.711,68.103,397.746,68.903,399.78,70.269C401.815,71.635,403.849,73.568,405.884,73.984C407.918,74.4,409.952,73.3,411.987,73.117C414.021,72.934,416.056,73.668,418.09,73.785C420.124,73.903,422.159,73.403,424.193,72.619C426.228,71.835,428.262,70.768,430.297,70.785C432.331,70.802,434.365,71.903,436.4,72.053C438.434,72.203,440.469,71.402,442.503,71.085C444.537,70.768,446.572,70.935,448.606,71.802C450.641,72.669,452.675,74.236,454.71,74.019C456.744,73.802,458.778,71.801,460.813,70.184C462.847,68.567,464.882,67.333,466.916,66.9C468.95,66.467,470.985,66.833,473.019,67.368C475.054,67.902,477.088,68.603,479.123,69.253C481.157,69.903,483.191,70.502,485.226,71.068C487.26,71.633,489.295,72.167,491.329,72.167C493.363,72.167,495.398,71.633,497.432,70.967C499.467,70.3,501.501,69.5,503.536,69.5C505.57,69.5,507.604,70.3,509.639,70.684C511.673,71.068,513.708,71.035,515.742,70.518C517.776,70.002,519.811,69.001,521.845,68.885C523.88,68.769,525.914,69.538,527.949,69.472C529.983,69.405,532.017,68.502,534.052,68.352C536.086,68.201,538.121,68.802,540.155,68.969C542.189,69.136,544.224,68.869,546.258,69.185C548.293,69.502,550.327,70.401,552.362,70.834C554.396,71.268,556.43,71.235,558.465,71.285C560.499,71.335,562.534,71.468,564.568,71.534C566.602,71.6,568.637,71.6,570.671,71.467C572.706,71.334,574.74,71.068,576.775,71.568C578.809,72.068,580.843,73.334,582.878,73.434C584.912,73.533,586.947,72.467,588.981,71.784L588.981,54.564C586.947,55.064,584.912,55.631,582.878,55.781C580.843,55.932,578.809,55.666,576.775,56.016C574.74,56.366,572.706,57.332,570.671,57.265C568.637,57.197,566.602,56.097,564.568,55.547C562.534,54.997,560.499,54.997,558.465,55.148C556.43,55.298,554.396,55.599,552.362,55.083C550.327,54.567,548.293,53.233,546.258,53.366C544.224,53.498,542.189,55.097,540.155,55.63C538.121,56.163,536.086,55.632,534.052,54.916C532.017,54.2,529.983,53.3,527.949,53.133C525.914,52.967,523.88,53.533,521.845,53.817C519.811,54.1,517.776,54.1,515.742,53.666C513.708,53.233,511.673,52.365,509.639,52.515C507.604,52.665,505.57,53.833,503.536,54.2C501.501,54.567,499.467,54.133,497.432,54.582C495.398,55.032,493.363,56.363,491.329,56.946C489.295,57.529,487.26,57.363,485.226,57.197C483.191,57.032,481.157,56.866,479.123,56.066C477.088,55.266,475.054,53.832,473.019,52.965C470.985,52.098,468.95,51.798,466.916,51.696C464.882,51.595,462.847,51.693,460.813,52.843C458.778,53.992,456.744,56.195,454.71,57.13C452.675,58.064,450.641,57.731,448.606,56.481C446.572,55.231,444.537,53.064,442.503,52.847C440.469,52.631,438.434,54.364,436.4,54.581C434.365,54.797,432.331,53.497,430.297,52.947C428.262,52.397,426.228,52.597,424.193,53.097C422.159,53.597,420.124,54.397,418.09,54.214C416.056,54.031,414.021,52.864,411.987,52.947C409.952,53.031,407.918,54.364,405.884,54.731C403.849,55.098,401.815,54.499,399.78,53.733C397.746,52.966,395.711,52.032,393.677,52.115C391.643,52.197,389.608,53.298,387.574,53.648C385.539,53.998,383.505,53.598,381.471,53.698C379.436,53.798,377.402,54.399,375.367,54.833C373.333,55.266,371.298,55.532,369.264,55.732C367.23,55.932,365.195,56.066,363.161,56.366C361.126,56.667,359.092,57.133,357.058,56.982C355.023,56.832,352.989,56.063,350.954,55.547C348.92,55.03,346.885,54.765,344.851,54.033C342.817,53.3,340.782,52.1,338.748,51.633C336.713,51.165,334.679,51.43,332.645,51.763C330.61,52.096,328.576,52.497,326.541,52.53C324.507,52.564,322.472,52.231,320.438,52.764C318.404,53.298,316.369,54.698,314.335,55.281C312.3,55.865,310.266,55.632,308.232,55.75C306.197,55.867,304.163,56.333,302.128,57.283C300.094,58.233,298.059,59.667,296.025,59.916C293.991,60.166,291.956,59.232,289.922,59.182C287.887,59.132,285.853,59.966,283.819,59.666C281.784,59.367,279.75,57.933,277.715,57.65C275.681,57.366,273.646,58.232,271.612,58.515C269.578,58.798,267.543,58.499,265.509,58.716C263.474,58.933,261.44,59.667,259.406,59.95C257.371,60.233,255.337,60.065,253.302,60.215C251.268,60.364,249.234,60.831,247.199,61.064C245.165,61.298,243.13,61.298,241.096,61.981C239.061,62.665,237.027,64.033,234.993,64.8C232.958,65.567,230.924,65.733,228.889,66.617C226.855,67.5,224.821,69.1,222.786,68.85C220.752,68.6,218.717,66.5,216.683,66.249C214.648,65.998,212.614,67.597,210.58,68.647C208.545,69.697,206.511,70.198,204.476,70.399C202.442,70.6,200.408,70.5,198.373,72.35C196.339,74.199,194.304,77.998,192.27,79.698C190.235,81.398,188.201,80.998,186.167,79.847C184.132,78.697,182.098,76.797,180.063,76.364C178.029,75.931,175.995,76.964,173.96,77.664C171.926,78.363,169.891,78.729,167.857,80.663C165.822,82.596,163.788,86.097,161.754,87.597C159.719,89.097,157.685,88.596,155.65,90.613C153.616,92.629,151.582,97.163,149.547,99.181C147.513,101.198,145.478,100.699,143.444,101.216C141.409,101.732,139.375,103.265,137.341,103.865C135.306,104.464,133.272,104.131,131.237,104.864C129.203,105.597,127.169,107.396,125.134,107.695C123.1,107.994,121.065,106.793,119.031,107.694C116.996,108.594,114.962,111.596,112.928,113.163C110.893,114.731,108.859,114.864,106.824,116.531C104.79,118.197,102.756,121.398,100.721,122.615C98.687,123.832,96.652,123.066,94.618,123.3C92.583,123.533,90.549,124.767,88.515,125.383C86.48,125.999,84.446,125.998,82.411,128.015C80.377,130.032,78.343,134.066,76.308,137.216C74.274,140.367,72.239,142.633,70.205,144.815C68.17,146.998,66.136,149.095,64.102,149.26C62.067,149.426,60.033,147.659,57.998,149.96C55.964,152.261,53.93,158.629,51.895,165.48C49.861,172.33,47.826,179.663,45.792,184.996C43.757,190.33,41.723,193.665,39.689,198.411C37.654,203.157,35.62,209.313,33.585,215.713C31.551,222.113,29.517,228.757,27.482,236.844C25.448,244.932,23.413,254.463,21.379,264.763C19.344,275.063,17.31,286.13,15.276,296.897C13.241,307.664,11.207,318.131,9.172,333.031C7.138,347.931,5.104,367.264,3.069,385.581Z" fill="#FF4B33" opacity="0.3"/></g></g><path class="foreground" aria-hidden="true" d="" display="none"/></g><g transform="translate(0,0)"><path class="background" aria-hidden="true" d="M0,0h600v400h-600Z"/><g><g class="mark-area role-mark layer_0_layer_0_marks" clip-path="url(#clip2)" role="graphics-object" aria-roledescription="area mark container"><path aria-label="Timestep: 200.38k; Success rate: 0.0794285714286; upper_Success rate: 0.169457142857; Network widths: Critic - 1024; Ci1 of Success rate: 0.169457142857; Ci0 of Success rate: 0.0794285714286; Mean of Success rate: 0.125714285714" role="graphics-symbol" aria-roledescription="errorband" d="M3.069,407.129C5.104,388.344,7.138,367.96,9.172,354.386C11.207,340.812,13.241,334.049,15.276,324.692C17.31,315.336,19.344,303.386,21.379,293.006C23.413,282.626,25.448,273.817,27.482,263.149C29.517,252.481,31.551,239.955,33.585,234.739C35.62,229.524,37.654,231.619,39.689,229.312C41.723,227.005,43.757,220.295,45.792,212.534C47.826,204.773,49.861,195.96,51.895,188.816C53.93,181.673,55.964,176.199,57.998,172.605C60.033,169.011,62.067,167.296,64.102,166.914C66.136,166.532,68.17,167.482,70.205,168.34C72.239,169.199,74.274,169.965,76.308,169.826C78.343,169.686,80.377,168.639,82.411,165.351C84.446,162.062,86.48,156.531,88.515,153.599C90.549,150.667,92.583,150.333,94.618,149.191C96.652,148.049,98.687,146.098,100.721,144.598C102.756,143.099,104.79,142.051,106.824,142.074C108.859,142.098,110.893,143.192,112.928,143.192C114.962,143.192,116.996,142.098,119.031,141.003C121.065,139.908,123.1,138.813,125.134,136.504C127.169,134.194,129.203,130.67,131.237,129.027C133.272,127.383,135.306,127.62,137.341,128.025C139.375,128.43,141.409,129.002,143.444,127.717C145.478,126.431,147.513,123.287,149.547,123.766C151.582,124.245,153.616,128.348,155.65,127.611C157.685,126.874,159.719,121.298,161.754,118.32C163.788,115.342,165.822,114.962,167.857,114.842C169.891,114.721,171.926,114.861,173.96,114.432C175.995,114.004,178.029,113.007,180.063,112.413C182.098,111.818,184.132,111.625,186.167,110.101C188.201,108.576,190.235,105.72,192.27,104.577C194.304,103.435,196.339,104.005,198.373,104.909C200.408,105.813,202.442,107.051,204.476,107.051C206.511,107.05,208.545,105.811,210.58,104.501C212.614,103.192,214.648,101.812,216.683,100.669C218.717,99.526,220.752,98.62,222.786,98.096C224.821,97.571,226.855,97.429,228.889,96.429C230.924,95.429,232.958,93.571,234.993,92.833C237.027,92.095,239.061,92.476,241.096,92.667C243.13,92.857,245.165,92.857,247.199,92.262C249.234,91.667,251.268,90.476,253.302,89.69C255.337,88.905,257.371,88.524,259.406,87.333C261.44,86.143,263.474,84.143,265.509,84.31C267.543,84.477,269.578,86.812,271.612,87.431C273.646,88.05,275.681,86.954,277.715,86.286C279.75,85.619,281.784,85.381,283.819,85.69C285.853,86,287.887,86.857,289.922,87.643C291.956,88.429,293.991,89.143,296.025,89.095C298.059,89.048,300.094,88.238,302.128,88.575C304.163,88.912,306.197,90.395,308.232,90.968C310.266,91.54,312.3,91.202,314.335,90.604C316.369,90.005,318.404,89.145,320.438,87.835C322.472,86.524,324.507,84.762,326.541,82.905C328.576,81.048,330.61,79.095,332.645,76.857C334.679,74.619,336.713,72.095,338.748,71.572C340.782,71.049,342.817,72.526,344.851,71.812C346.885,71.098,348.92,68.192,350.954,66.929C352.989,65.667,355.023,66.048,357.058,65.763C359.092,65.477,361.126,64.526,363.161,64.932C365.195,65.337,367.23,67.099,369.264,67.741C371.298,68.383,373.333,67.906,375.367,67.596C377.402,67.286,379.436,67.143,381.471,66.857C383.505,66.571,385.539,66.143,387.574,66.215C389.608,66.287,391.643,66.86,393.677,66.098C395.711,65.336,397.746,63.239,399.78,62.977C401.815,62.714,403.849,64.286,405.884,65.69C407.918,67.095,409.952,68.333,411.987,68.143C414.021,67.952,416.056,66.333,418.09,65.643C420.124,64.952,422.159,65.19,424.193,65.524C426.228,65.858,428.262,66.288,430.297,66.098C432.331,65.907,434.365,65.096,436.4,64.358C438.434,63.62,440.469,62.955,442.503,63.431C444.537,63.907,446.572,65.525,448.606,66.239C450.641,66.954,452.675,66.764,454.71,65.788C456.744,64.812,458.778,63.049,460.813,63.286C462.847,63.524,464.882,65.762,466.916,66.263C468.95,66.763,470.985,65.526,473.019,64.645C475.054,63.764,477.088,63.239,479.123,63.191C481.157,63.143,483.191,63.571,485.226,63C487.26,62.429,489.295,60.857,491.329,61.071C493.363,61.286,495.398,63.286,497.432,64.548C499.467,65.81,501.501,66.333,503.536,66.643C505.57,66.952,507.604,67.048,509.639,66.5C511.673,65.952,513.708,64.762,515.742,64.024C517.776,63.286,519.811,63,521.845,63.452C523.88,63.905,525.914,65.095,527.949,65.143C529.983,65.19,532.017,64.095,534.052,63.524C536.086,62.954,538.121,62.907,540.155,63.526C542.189,64.145,544.224,65.43,546.258,67.454C548.293,69.479,550.327,72.243,552.362,72.291C554.396,72.339,556.43,69.671,558.465,68.194C560.499,66.717,562.534,66.43,564.568,66.453C566.602,66.476,568.637,66.81,570.671,66.738C572.706,66.667,574.74,66.19,576.775,65.69C578.809,65.19,580.843,64.667,582.878,64.763C584.912,64.858,586.947,65.574,588.981,65.312L588.981,44.499C586.947,43.332,584.912,42.236,582.878,42.45C580.843,42.664,578.809,44.189,576.775,45.714C574.74,47.238,572.706,48.762,570.671,49.618C568.637,50.475,566.602,50.664,564.568,49.616C562.534,48.568,560.499,46.282,558.465,46.044C556.43,45.806,554.396,47.615,552.362,47.759C550.327,47.902,548.293,46.38,546.258,45.475C544.224,44.57,542.189,44.283,540.155,44.783C538.121,45.283,536.086,46.57,534.052,47.189C532.017,47.808,529.983,47.76,527.949,47.045C525.914,46.331,523.88,44.951,521.845,45.357C519.811,45.762,517.776,47.952,515.742,48.761C513.708,49.57,511.673,48.998,509.639,48.569C507.604,48.14,505.57,47.856,503.536,48.023C501.501,48.19,499.467,48.81,497.432,48.238C495.398,47.665,493.363,45.902,491.329,46.973C489.295,48.044,487.26,51.949,485.226,51.545C483.191,51.14,481.157,46.427,479.123,45.379C477.088,44.331,475.054,46.948,473.019,47.495C470.985,48.043,468.95,46.521,466.916,45.594C464.882,44.667,462.847,44.333,460.813,44.714C458.778,45.094,456.744,46.188,454.71,46.307C452.675,46.426,450.641,45.57,448.606,44.571C446.572,43.571,444.537,42.429,442.503,42.761C440.469,43.094,438.434,44.902,436.4,46.758C434.365,48.614,432.331,50.518,430.297,50.971C428.262,51.424,426.228,50.426,424.193,49.261C422.159,48.095,420.124,46.762,418.09,47.048C416.056,47.333,414.021,49.238,411.987,50.381C409.952,51.524,407.918,51.905,405.884,51.667C403.849,51.429,401.815,50.571,399.78,50.738C397.746,50.904,395.711,52.093,393.677,51.426C391.643,50.76,389.608,48.237,387.574,47.737C385.539,47.237,383.505,48.76,381.471,48.902C379.436,49.045,377.402,47.808,375.367,48.023C373.333,48.237,371.298,49.902,369.264,51.331C367.23,52.76,365.195,53.951,363.161,55.547C361.126,57.143,359.092,59.143,357.058,58.786C355.023,58.429,352.989,55.714,350.954,54.809C348.92,53.904,346.885,54.807,344.851,55.855C342.817,56.902,340.782,58.094,338.748,58.095C336.713,58.095,334.679,56.905,332.645,55.214C330.61,53.523,328.576,51.331,326.541,51.64C324.507,51.95,322.472,54.761,320.438,56.809C318.404,58.857,316.369,60.143,314.335,60.095C312.3,60.048,310.266,58.667,308.232,58.094C306.197,57.521,304.163,57.757,302.128,57.566C300.094,57.375,298.059,56.757,296.025,56.829C293.991,56.901,291.956,57.663,289.922,58.116C287.887,58.569,285.853,58.713,283.819,58.928C281.784,59.143,279.75,59.429,277.715,60.095C275.681,60.762,273.646,61.81,271.612,61.881C269.578,61.952,267.543,61.048,265.509,60.81C263.474,60.571,261.44,61,259.406,60.238C257.371,59.476,255.337,57.524,253.302,57C251.268,56.476,249.234,57.381,247.199,58.071C245.165,58.762,243.13,59.238,241.096,60.786C239.061,62.333,237.027,64.952,234.993,64.881C232.958,64.81,230.924,62.048,228.889,61.665C226.855,61.283,224.821,63.281,222.786,64.614C220.752,65.948,218.717,66.617,216.683,66.64C214.648,66.664,212.614,66.043,210.58,66.063C208.545,66.082,206.511,66.743,204.476,67.672C202.442,68.601,200.408,69.799,198.373,70.16C196.339,70.521,194.304,70.046,192.27,69.38C190.235,68.713,188.201,67.855,186.167,67.375C184.132,66.895,182.098,66.794,180.063,68.247C178.029,69.7,175.995,72.707,173.96,73.496C171.926,74.286,169.891,72.857,167.857,72.071C165.822,71.286,163.788,71.143,161.754,72.331C159.719,73.519,157.685,76.038,155.65,77.276C153.616,78.514,151.582,78.471,149.547,79.949C147.513,81.426,145.478,84.424,143.444,86.804C141.409,89.183,139.375,90.945,137.341,91.469C135.306,91.993,133.272,91.279,131.237,94.137C129.203,96.995,127.169,103.426,125.134,108.332C123.1,113.237,121.065,116.617,119.031,118.426C116.996,120.235,114.962,120.473,112.928,121.497C110.893,122.521,108.859,124.332,106.824,124.928C104.79,125.524,102.756,124.905,100.721,125.238C98.687,125.57,96.652,126.855,94.618,127.33C92.583,127.806,90.549,127.473,88.515,128.092C86.48,128.712,84.446,130.285,82.411,132.642C80.377,134.999,78.343,138.14,76.308,139.879C74.274,141.617,72.239,141.951,70.205,141.642C68.17,141.333,66.136,140.381,64.102,140.381C62.067,140.381,60.033,141.333,57.998,144.429C55.964,147.524,53.93,152.762,51.895,156.548C49.861,160.333,47.826,162.667,45.792,169.19C43.757,175.713,41.723,186.426,39.689,193.164C37.654,199.902,35.62,202.665,33.585,208.261C31.551,213.856,29.517,222.283,27.482,229.998C25.448,237.712,23.413,244.713,21.379,254.283C19.344,263.854,17.31,275.993,15.276,285.635C13.241,295.276,11.207,302.42,9.172,315.993C7.138,329.567,5.104,349.569,3.069,367.187Z" fill="#B22B24" opacity="0.3"/></g></g><path class="foreground" aria-hidden="true" d="" display="none"/></g><g transform="translate(0,0)"><path class="background" aria-hidden="true" d="M0,0h600v400h-600Z"/><g><g class="mark-area role-mark layer_0_layer_0_marks" clip-path="url(#clip3)" role="graphics-object" aria-roledescription="area mark container"><path aria-label="Timestep: 200.38k; Success rate: 0.047395; upper_Success rate: 0.1042; Network widths: Actor - 200, Critic - 1024; Ci1 of Success rate: 0.1042; Ci0 of Success rate: 0.047395; Mean of Success rate: 0.0736" role="graphics-symbol" aria-roledescription="errorband" d="M3.069,432.259C5.104,420.409,7.138,412.806,9.172,401.555C11.207,390.303,13.241,375.404,15.276,361.071C17.31,346.738,19.344,332.972,21.379,323.071C23.413,313.171,25.448,307.137,27.482,300.136C29.517,293.136,31.551,285.169,33.585,277.336C35.62,269.503,37.654,261.804,39.689,252.354C41.723,242.903,43.757,231.702,45.792,222.085C47.826,212.468,49.861,204.435,51.895,197.685C53.93,190.936,55.964,185.469,57.998,182.952C60.033,180.435,62.067,180.868,64.102,178.884C66.136,176.9,68.17,172.5,70.205,170.384C72.239,168.267,74.274,168.435,76.308,166.252C78.343,164.068,80.377,159.534,82.411,155.084C84.446,150.633,86.48,146.267,88.515,143.7C90.549,141.134,92.583,140.368,94.618,140.269C96.652,140.169,98.687,140.736,100.721,141.819C102.756,142.902,104.79,144.501,106.824,144.584C108.859,144.667,110.893,143.233,112.928,141.034C114.962,138.834,116.996,135.868,119.031,133.519C121.065,131.169,123.1,129.436,125.134,128.803C127.169,128.169,129.203,128.636,131.237,127.885C133.272,127.135,135.306,125.168,137.341,125.084C139.375,125.001,141.409,126.802,143.444,127.535C145.478,128.268,147.513,127.934,149.547,126.467C151.582,125,153.616,122.4,155.65,121C157.685,119.601,159.719,119.402,161.754,119.085C163.788,118.769,165.822,118.336,167.857,118.619C169.891,118.902,171.926,119.901,173.96,120.118C175.995,120.334,178.029,119.768,180.063,119.135C182.098,118.502,184.132,117.801,186.167,117.568C188.201,117.334,190.235,117.568,192.27,117.219C194.304,116.87,196.339,115.938,198.373,115.272C200.408,114.606,202.442,114.207,204.476,113.207C206.511,112.208,208.545,110.608,210.58,109.973C212.614,109.338,214.648,109.669,216.683,109.318C218.717,108.967,220.752,107.933,222.786,107.367C224.821,106.802,226.855,106.703,228.889,106.788C230.924,106.872,232.958,107.14,234.993,106.906C237.027,106.672,239.061,105.936,241.096,105.968C243.13,106,245.165,106.8,247.199,106.5C249.234,106.2,251.268,104.8,253.302,104.418C255.337,104.036,257.371,104.672,259.406,104.14C261.44,103.608,263.474,101.908,265.509,101.14C267.543,100.373,269.578,100.538,271.612,99.604C273.646,98.671,275.681,96.639,277.715,95.956C279.75,95.272,281.784,95.937,283.819,95.37C285.853,94.802,287.887,93.003,289.922,92.869C291.956,92.735,293.991,94.268,296.025,93.418C298.059,92.568,300.094,89.335,302.128,85.936C304.163,82.537,306.197,78.971,308.232,76.587C310.266,74.204,312.3,73.003,314.335,74.103C316.369,75.203,318.404,78.603,320.438,80.419C322.472,82.235,324.507,82.468,326.541,82.201C328.576,81.934,330.61,81.168,332.645,80.018C334.679,78.868,336.713,77.334,338.748,75.584C340.782,73.833,342.817,71.867,344.851,71.15C346.885,70.434,348.92,70.968,350.954,70.668C352.989,70.368,355.023,69.234,357.058,69.268C359.092,69.301,361.126,70.502,363.161,71.819C365.195,73.136,367.23,74.569,369.264,74.402C371.298,74.235,373.333,72.467,375.367,71.317C377.402,70.167,379.436,69.633,381.471,69.317C383.505,69,385.539,68.9,387.574,68.717C389.608,68.533,391.643,68.267,393.677,68.267C395.711,68.267,397.746,68.533,399.78,68.133C401.815,67.733,403.849,66.667,405.884,66.2C407.918,65.733,409.952,65.867,411.987,66C414.021,66.133,416.056,66.267,418.09,66.1C420.124,65.933,422.159,65.467,424.193,66.133C426.228,66.8,428.262,68.6,430.297,68.6C432.331,68.6,434.365,66.8,436.4,66.233C438.434,65.667,440.469,66.333,442.503,66.284C444.537,66.234,446.572,65.468,448.606,65.718C450.641,65.968,452.675,67.234,454.71,68.351C456.744,69.468,458.778,70.435,460.813,70.635C462.847,70.836,464.882,70.269,466.916,69.836C468.95,69.402,470.985,69.102,473.019,69.469C475.054,69.836,477.088,70.869,479.123,71.353C481.157,71.837,483.191,71.771,485.226,70.97C487.26,70.17,489.295,68.635,491.329,68.418C493.363,68.201,495.398,69.302,497.432,69.435C499.467,69.569,501.501,68.736,503.536,68.186C505.57,67.636,507.604,67.369,509.639,67.602C511.673,67.835,513.708,68.568,515.742,69.851C517.776,71.135,519.811,72.97,521.845,72.988C523.88,73.005,525.914,71.205,527.949,70.705C529.983,70.204,532.017,71.003,534.052,71.02C536.086,71.036,538.121,70.269,540.155,69.719C542.189,69.168,544.224,68.834,546.258,68.417C548.293,68,550.327,67.5,552.362,67.884C554.396,68.268,556.43,69.535,558.465,69.735C560.499,69.936,562.534,69.069,564.568,69.019C566.602,68.968,568.637,69.734,570.671,69.284C572.706,68.833,574.74,67.167,576.775,66.567C578.809,65.968,580.843,66.435,582.878,66.852C584.912,67.268,586.947,67.634,588.981,67.534L588.981,50.626C586.947,50.527,584.912,51.063,582.878,51.648C580.843,52.233,578.809,52.867,576.775,53.35C574.74,53.833,572.706,54.167,570.671,54.183C568.637,54.2,566.602,53.9,564.568,53.15C562.534,52.4,560.499,51.2,558.465,50.166C556.43,49.132,554.396,48.263,552.362,48.197C550.327,48.13,548.293,48.865,546.258,49.515C544.224,50.166,542.189,50.732,540.155,50.932C538.121,51.132,536.086,50.966,534.052,50.966C532.017,50.967,529.983,51.133,527.949,51.333C525.914,51.533,523.88,51.765,521.845,52.982C519.811,54.198,517.776,56.399,515.742,56.3C513.708,56.2,511.673,53.8,509.639,53.15C507.604,52.499,505.57,53.598,503.536,54.148C501.501,54.698,499.467,54.699,497.432,54.399C495.398,54.099,493.363,53.498,491.329,53.198C489.295,52.897,487.26,52.896,485.226,53.763C483.191,54.63,481.157,56.365,479.123,56.633C477.088,56.9,475.054,55.7,473.019,55.1C470.985,54.499,468.95,54.498,466.916,53.764C464.882,53.029,462.847,51.561,460.813,52.478C458.778,53.395,456.744,56.697,454.71,57.449C452.675,58.2,450.641,56.4,448.606,55.233C446.572,54.066,444.537,53.532,442.503,53.965C440.469,54.398,438.434,55.799,436.4,56.116C434.365,56.433,432.331,55.665,430.297,54.548C428.262,53.431,426.228,51.964,424.193,51.014C422.159,50.064,420.124,49.631,418.09,49.681C416.056,49.731,414.021,50.264,411.987,50.898C409.952,51.531,407.918,52.264,405.884,53.231C403.849,54.198,401.815,55.399,399.78,55.483C397.746,55.567,395.711,54.533,393.677,55.117C391.643,55.7,389.608,57.9,387.574,59.233C385.539,60.567,383.505,61.033,381.471,61.2C379.436,61.367,377.402,61.233,375.367,61.583C373.333,61.933,371.298,62.765,369.264,62.782C367.23,62.798,365.195,61.999,363.161,61.15C361.126,60.3,359.092,59.4,357.058,59.517C355.023,59.633,352.989,60.767,350.954,61.566C348.92,62.366,346.885,62.832,344.851,62.998C342.817,63.165,340.782,63.032,338.748,63.232C336.713,63.432,334.679,63.963,332.645,64.113C330.61,64.263,328.576,64.032,326.541,63.832C324.507,63.632,322.472,63.465,320.438,63.182C318.404,62.898,316.369,62.499,314.335,62.316C312.3,62.132,310.266,62.165,308.232,62.632C306.197,63.098,304.163,63.999,302.128,64.782C300.094,65.565,298.059,66.23,296.025,66.73C293.991,67.229,291.956,67.563,289.922,68.947C287.887,70.332,285.853,72.766,283.819,72.6C281.784,72.433,279.75,69.667,277.715,69.183C275.681,68.698,273.646,70.497,271.612,70.93C269.578,71.363,267.543,70.43,265.509,69.847C263.474,69.264,261.44,69.031,259.406,69.347C257.371,69.663,255.337,70.529,253.302,71.378C251.268,72.227,249.234,73.058,247.199,74.009C245.165,74.959,243.13,76.028,241.096,76.263C239.061,76.498,237.027,75.899,234.993,76.116C232.958,76.333,230.924,77.365,228.889,76.682C226.855,75.998,224.821,73.599,222.786,73.066C220.752,72.533,218.717,73.867,216.683,74.75C214.648,75.633,212.614,76.065,210.58,76.765C208.545,77.464,206.511,78.431,204.476,79.58C202.442,80.73,200.408,82.062,198.373,82.946C196.339,83.83,194.304,84.265,192.27,83.765C190.235,83.266,188.201,81.832,186.167,82.215C184.132,82.597,182.098,84.797,180.063,86.565C178.029,88.332,175.995,89.666,173.96,89.316C171.926,88.966,169.891,86.932,167.857,86.632C165.822,86.332,163.788,87.766,161.754,89.483C159.719,91.199,157.685,93.198,155.65,94.598C153.616,95.998,151.582,96.799,149.547,98.083C147.513,99.367,145.478,101.133,143.444,102.783C141.409,104.432,139.375,105.963,137.341,106.946C135.306,107.929,133.272,108.363,131.237,110.364C129.203,112.365,127.169,115.933,125.134,117.866C123.1,119.8,121.065,120.1,119.031,121.233C116.996,122.366,114.962,124.332,112.928,125.365C110.893,126.398,108.859,126.499,106.824,126.933C104.79,127.367,102.756,128.133,100.721,128.817C98.687,129.5,96.652,130.1,94.618,130.283C92.583,130.467,90.549,130.233,88.515,131.317C86.48,132.4,84.446,134.8,82.411,136.683C80.377,138.567,78.343,139.933,76.308,141.45C74.274,142.967,72.239,144.633,70.205,145.899C68.17,147.164,66.136,148.028,64.102,150.128C62.067,152.227,60.033,155.562,57.998,157.213C55.964,158.864,53.93,158.831,51.895,162.563C49.861,166.296,47.826,173.794,45.792,181.844C43.757,189.893,41.723,198.494,39.689,206.211C37.654,213.928,35.62,220.762,33.585,230.263C31.551,239.763,29.517,251.932,27.482,261.348C25.448,270.765,23.413,277.43,21.379,290.163C19.344,302.897,17.31,321.698,15.276,333.916C13.241,346.133,11.207,351.767,9.172,360.033C7.138,368.3,5.104,379.2,3.069,394.283Z" fill="#4D130F" opacity="0.3"/></g></g><path class="foreground" aria-hidden="true" d="" display="none"/></g><g transform="translate(0,0)"><path class="background" aria-hidden="true" d="M0,0h600v400h-600Z"/><g><g class="mark-area role-mark layer_0_layer_0_marks" clip-path="url(#clip4)" role="graphics-object" aria-roledescription="area mark container"><path aria-label="Timestep: 200.38k; Success rate: 0.0833333333333; upper_Success rate: 0.138666666667; Network widths: Actor - 1024; Ci1 of Success rate: 0.138666666667; Ci0 of Success rate: 0.0833333333333; Mean of Success rate: 0.109" role="graphics-symbol" aria-roledescription="errorband" d="M3.069,434.668C5.104,425.336,7.138,413.839,9.172,405.311C11.207,396.783,13.241,391.225,15.276,382.64C17.31,374.056,19.344,362.444,21.379,351.806C23.413,341.167,25.448,331.5,27.482,322.917C29.517,314.333,31.551,306.833,33.585,302C35.62,297.167,37.654,295,39.689,290.889C41.723,286.778,43.757,280.722,45.792,275.306C47.826,269.889,49.861,265.111,51.895,260.917C53.93,256.722,55.964,253.111,57.998,248.889C60.033,244.667,62.067,239.833,64.102,236.083C66.136,232.333,68.17,229.667,70.205,227.278C72.239,224.89,74.274,222.781,76.308,217.808C78.343,212.836,80.377,205.001,82.411,200.862C84.446,196.722,86.48,196.278,88.515,195.64C90.549,195.001,92.583,194.169,94.618,191.642C96.652,189.115,98.687,184.893,100.721,182.616C102.756,180.339,104.79,180.007,106.824,179.534C108.859,179.061,110.893,178.447,112.928,178.724C114.962,179,116.996,180.167,119.031,180.614C121.065,181.061,123.1,180.789,125.134,180.65C127.169,180.511,129.203,180.506,131.237,178.864C133.272,177.222,135.306,173.944,137.341,172.361C139.375,170.778,141.409,170.889,143.444,170.111C145.478,169.333,147.513,167.667,149.547,167.806C151.582,167.944,153.616,169.889,155.65,169.778C157.685,169.667,159.719,167.5,161.754,164.667C163.788,161.833,165.822,158.333,167.857,157.889C169.891,157.444,171.926,160.056,173.96,158.865C175.995,157.675,178.029,152.683,180.063,147.906C182.098,143.128,184.132,138.564,186.167,136.282C188.201,134,190.235,134,192.27,135.167C194.304,136.335,196.339,138.669,198.373,138.808C200.408,138.947,202.442,136.89,204.476,136.528C206.511,136.167,208.545,137.5,210.58,139.417C212.614,141.333,214.648,143.833,216.683,142.833C218.717,141.833,220.752,137.333,222.786,134.889C224.821,132.444,226.855,132.056,228.889,131.723C230.924,131.39,232.958,131.114,234.993,130.364C237.027,129.614,239.061,128.39,241.096,128.417C243.13,128.444,245.165,129.722,247.199,129.472C249.234,129.222,251.268,127.444,253.302,127.111C255.337,126.778,257.371,127.889,259.406,127.944C261.44,128,263.474,127,265.509,126.611C267.543,126.222,269.578,126.444,271.612,127.639C273.646,128.833,275.681,131,277.715,131.306C279.75,131.611,281.784,130.056,283.819,129.972C285.853,129.889,287.887,131.278,289.922,131.833C291.956,132.389,293.991,132.111,296.025,130.722C298.059,129.333,300.094,126.833,302.128,126.556C304.163,126.278,306.197,128.222,308.232,127.972C310.266,127.722,312.3,125.278,314.335,124.611C316.369,123.944,318.404,125.056,320.438,125.056C322.472,125.056,324.507,123.944,326.541,123.722C328.576,123.5,330.61,124.167,332.645,124.861C334.679,125.556,336.713,126.278,338.748,126.306C340.782,126.333,342.817,125.667,344.851,125.973C346.885,126.279,348.92,127.558,350.954,127.364C352.989,127.169,355.023,125.501,357.058,123.807C359.092,122.113,361.126,120.392,363.161,119.947C365.195,119.503,367.23,120.335,369.264,121.112C371.298,121.889,373.333,122.611,375.367,123.782C377.402,124.953,379.436,126.572,381.471,127.1C383.505,127.628,385.539,127.064,387.574,126.893C389.608,126.722,391.643,126.944,393.677,126.528C395.711,126.111,397.746,125.056,399.78,124.335C401.815,123.614,403.849,123.228,405.884,123.867C407.918,124.507,409.952,126.172,411.987,125.699C414.021,125.225,416.056,122.613,418.09,121.445C420.124,120.278,422.159,120.556,424.193,119.393C426.228,118.231,428.262,115.628,430.297,114.961C432.331,114.294,434.365,115.564,436.4,115.476C438.434,115.389,440.469,113.944,442.503,111.363C444.537,108.782,446.572,105.064,448.606,104.647C450.641,104.231,452.675,107.115,454.71,108.502C456.744,109.889,458.778,109.778,460.813,108.417C462.847,107.056,464.882,104.444,466.916,103.194C468.95,101.944,470.985,102.056,473.019,102.334C475.054,102.613,477.088,103.058,479.123,102.447C481.157,101.836,483.191,100.168,485.226,100.81C487.26,101.453,489.295,104.406,491.329,105.462C493.363,106.518,495.398,105.678,497.432,104.397C499.467,103.115,501.501,101.393,503.536,100.476C505.57,99.56,507.604,99.449,509.639,99.671C511.673,99.893,513.708,100.449,515.742,101.392C517.776,102.336,519.811,103.668,521.845,104.473C523.88,105.278,525.914,105.556,527.949,105.861C529.983,106.167,532.017,106.5,534.052,106.473C536.086,106.446,538.121,106.058,540.155,106.697C542.189,107.336,544.224,109.001,546.258,109.473C548.293,109.944,550.327,109.222,552.362,109.194C554.396,109.167,556.43,109.833,558.465,108.889C560.499,107.944,562.534,105.389,564.568,104.64C566.602,103.892,568.637,104.95,570.671,104.311C572.706,103.672,574.74,101.336,576.775,100.141C578.809,98.946,580.843,98.892,582.878,98.92C584.912,98.949,586.947,99.06,588.981,100.642L588.981,68.221C586.947,66.778,584.912,67.556,582.878,67.278C580.843,67,578.809,65.667,576.775,64.749C574.74,63.832,572.706,63.331,570.671,63.192C568.637,63.053,566.602,63.276,564.568,64.36C562.534,65.444,560.499,67.389,558.465,67.056C556.43,66.722,554.396,64.111,552.362,64.333C550.327,64.556,548.293,67.611,546.258,69.222C544.224,70.833,542.189,71,540.155,70.111C538.121,69.222,536.086,67.278,534.052,65.944C532.017,64.611,529.983,63.889,527.949,63.889C525.914,63.889,523.88,64.611,521.845,64.222C519.811,63.833,517.776,62.333,515.742,61.778C513.708,61.222,511.673,61.611,509.639,62.388C507.604,63.165,505.57,64.331,503.536,64.942C501.501,65.553,499.467,65.61,497.432,65.416C495.398,65.222,493.363,64.778,491.329,63.528C489.295,62.278,487.26,60.222,485.226,59.917C483.191,59.611,481.157,61.056,479.123,61.999C477.088,62.943,475.054,63.386,473.019,63.469C470.985,63.553,468.95,63.276,466.916,63.97C464.882,64.664,462.847,66.328,460.813,67.494C458.778,68.661,456.744,69.331,454.71,69.998C452.675,70.665,450.641,71.331,448.606,71.858C446.572,72.386,444.537,72.776,442.503,73.888C440.469,74.999,438.434,76.831,436.4,76.053C434.365,75.275,432.331,71.887,430.297,71.86C428.262,71.833,426.228,75.167,424.193,76.528C422.159,77.889,420.124,77.278,418.09,77.583C416.056,77.889,414.021,79.111,411.987,79.833C409.952,80.556,407.918,80.778,405.884,81.249C403.849,81.719,401.815,82.439,399.78,84.133C397.746,85.828,395.711,88.497,393.677,88.743C391.643,88.989,389.608,86.811,387.574,86.085C385.539,85.358,383.505,86.083,381.471,86.144C379.436,86.204,377.402,85.6,375.367,86.104C373.333,86.608,371.298,88.221,369.264,88.749C367.23,89.276,365.195,88.719,363.161,88.386C361.126,88.053,359.092,87.943,357.058,88.61C355.023,89.278,352.989,90.722,350.954,93.417C348.92,96.111,346.885,100.056,344.851,101.361C342.817,102.667,340.782,101.333,338.748,100.472C336.713,99.611,334.679,99.222,332.645,101.389C330.61,103.556,328.576,108.278,326.541,110.583C324.507,112.889,322.472,112.778,320.438,111.861C318.404,110.944,316.369,109.222,314.335,109.111C312.3,109,310.266,110.5,308.232,111.528C306.197,112.556,304.163,113.111,302.128,114.194C300.094,115.276,298.059,116.886,296.025,118.33C293.991,119.774,291.956,121.051,289.922,119.996C287.887,118.94,285.853,115.551,283.819,116.469C281.784,117.386,279.75,122.61,277.715,123.11C275.681,123.611,273.646,119.389,271.612,117.639C269.578,115.889,267.543,116.611,265.509,117.111C263.474,117.611,261.44,117.889,259.406,118.111C257.371,118.333,255.337,118.5,253.302,119C251.268,119.5,249.234,120.333,247.199,119.333C245.165,118.332,243.13,115.497,241.096,114.885C239.061,114.274,237.027,115.885,234.993,117.33C232.958,118.775,230.924,120.054,228.889,119.833C226.855,119.611,224.821,117.889,222.786,117.389C220.752,116.889,218.717,117.611,216.683,118.86C214.648,120.11,212.614,121.886,210.58,123.024C208.545,124.163,206.511,124.663,204.476,125.746C202.442,126.829,200.408,128.496,198.373,128.302C196.339,128.108,194.304,126.054,192.27,125.083C190.235,124.111,188.201,124.222,186.167,124.278C184.132,124.333,182.098,124.333,180.063,125.027C178.029,125.721,175.995,127.108,173.96,128.164C171.926,129.219,169.891,129.943,167.857,131.138C165.822,132.333,163.788,134,161.754,135.247C159.719,136.493,157.685,137.319,155.65,137.792C153.616,138.264,151.582,138.382,149.547,137.469C147.513,136.556,145.478,134.611,143.444,134.75C141.409,134.889,139.375,137.111,137.341,137.916C135.306,138.721,133.272,138.108,131.237,138.719C129.203,139.331,127.169,141.165,125.134,141.194C123.1,141.222,121.065,139.444,119.031,138.139C116.996,136.833,114.962,136,112.928,137.278C110.893,138.556,108.859,141.944,106.824,144.306C104.79,146.667,102.756,148,100.721,149.778C98.687,151.556,96.652,153.778,94.618,156.528C92.583,159.278,90.549,162.556,88.515,166.361C86.48,170.167,84.446,174.5,82.411,179.499C80.377,184.499,78.343,190.164,76.308,192.856C74.274,195.547,72.239,195.265,70.205,197.349C68.17,199.433,66.136,203.883,64.102,206.275C62.067,208.667,60.033,209,57.998,209.833C55.964,210.667,53.93,212,51.895,214.5C49.861,217,47.826,220.667,45.792,223.916C43.757,227.165,41.723,229.997,39.689,235.608C37.654,241.219,35.62,249.61,33.585,257.222C31.551,264.833,29.517,271.667,27.482,277.803C25.448,283.939,23.413,289.378,21.379,300.128C19.344,310.878,17.31,326.939,15.276,337.914C13.241,348.889,11.207,354.778,9.172,366.417C7.138,378.056,5.104,395.444,3.069,407.111Z" fill="#546569" opacity="0.3"/></g></g><path class="foreground" aria-hidden="true" d="" display="none"/></g><g transform="translate(0,0)"><path class="background" aria-hidden="true" d="M0,0h600v400h-600Z"/><g><g class="mark-area role-mark layer_0_layer_0_marks" clip-path="url(#clip5)" role="graphics-object" aria-roledescription="area mark container"><path aria-label="Timestep: 200.38k; Success rate: 0.06016; upper_Success rate: 0.120805; Network widths: Actor - 1024, Critic - 200; Ci1 of Success rate: 0.120805; Ci0 of Success rate: 0.06016; Mean of Success rate: 0.0898" role="graphics-symbol" aria-roledescription="errorband" d="M3.069,430.904C5.104,418.435,7.138,406.77,9.172,398.821C11.207,390.872,13.241,386.638,15.276,382.671C17.31,378.704,19.344,375.003,21.379,370.286C23.413,365.569,25.448,359.836,27.482,353.569C29.517,347.303,31.551,340.503,33.585,334.702C35.62,328.902,37.654,324.101,39.689,318.768C41.723,313.434,43.757,307.568,45.792,300.92C47.826,294.271,49.861,286.839,51.895,282.455C53.93,278.072,55.964,276.736,57.998,275.985C60.033,275.233,62.067,275.067,64.102,272.533C66.136,270,68.17,265.1,70.205,260.15C72.239,255.2,74.274,250.2,76.308,247.833C78.343,245.467,80.377,245.733,82.411,245.134C84.446,244.534,86.48,243.068,88.515,241.053C90.549,239.038,92.583,236.473,94.618,235.839C96.652,235.205,98.687,236.503,100.721,234.968C102.756,233.434,104.79,229.068,106.824,225.902C108.859,222.736,110.893,220.769,112.928,216.652C114.962,212.535,116.996,206.268,119.031,202.367C121.065,198.467,123.1,196.933,125.134,195.584C127.169,194.234,129.203,193.068,131.237,191.468C133.272,189.868,135.306,187.834,137.341,186.684C139.375,185.534,141.409,185.268,143.444,184.702C145.478,184.136,147.513,183.269,149.547,182.253C151.582,181.238,153.616,180.073,155.65,179.622C157.685,179.172,159.719,179.436,161.754,179.035C163.788,178.634,165.822,177.568,167.857,177.219C169.891,176.87,171.926,177.238,173.96,176.171C175.995,175.104,178.029,172.603,180.063,171.353C182.098,170.102,184.132,170.101,186.167,169.334C188.201,168.568,190.235,167.035,192.27,165.552C194.304,164.068,196.339,162.634,198.373,161.45C200.408,160.267,202.442,159.333,204.476,158.7C206.511,158.067,208.545,157.733,210.58,157.917C212.614,158.101,214.648,158.802,216.683,158.552C218.717,158.303,220.752,157.103,222.786,156.585C224.821,156.068,226.855,156.234,228.889,156.518C230.924,156.801,232.958,157.202,234.993,157.018C237.027,156.835,239.061,156.068,241.096,155.517C243.13,154.967,245.165,154.633,247.199,154.9C249.234,155.167,251.268,156.033,253.302,157.45C255.337,158.867,257.371,160.833,259.406,160.517C261.44,160.2,263.474,157.6,265.509,157.45C267.543,157.3,269.578,159.6,271.612,159.85C273.646,160.101,275.681,158.302,277.715,157.918C279.75,157.535,281.784,158.568,283.819,158.484C285.853,158.4,287.887,157.2,289.922,156.067C291.956,154.934,293.991,153.868,296.025,153.618C298.059,153.368,300.094,153.934,302.128,153.967C304.163,154,306.197,153.5,308.232,153.434C310.266,153.367,312.3,153.735,314.335,154.002C316.369,154.268,318.404,154.434,320.438,154.367C322.472,154.3,324.507,154,326.541,154.3C328.576,154.601,330.61,155.502,332.645,155.835C334.679,156.168,336.713,155.934,338.748,155.367C340.782,154.8,342.817,153.9,344.851,153.45C346.885,153.001,348.92,153.002,350.954,153.102C352.989,153.202,355.023,153.401,357.058,153.784C359.092,154.167,361.126,154.733,363.161,154.667C365.195,154.6,367.23,153.9,369.264,153.817C371.298,153.734,373.333,154.268,375.367,154.302C377.402,154.336,379.436,153.869,381.471,154.319C383.505,154.768,385.539,156.134,387.574,156.817C389.608,157.5,391.643,157.5,393.677,157C395.711,156.5,397.746,155.5,399.78,154.533C401.815,153.567,403.849,152.633,405.884,152.333C407.918,152.033,409.952,152.367,411.987,154.95C414.021,157.533,416.056,162.367,418.09,163.184C420.124,164.001,422.159,160.802,424.193,158.318C426.228,155.835,428.262,154.068,430.297,153.267C432.331,152.467,434.365,152.633,436.4,153.384C438.434,154.134,440.469,155.468,442.503,156.352C444.537,157.235,446.572,157.668,448.606,156.634C450.641,155.601,452.675,153.102,454.71,152.535C456.744,151.969,458.778,153.336,460.813,154.402C462.847,155.468,464.882,156.234,466.916,156.1C468.95,155.967,470.985,154.933,473.019,154.567C475.054,154.2,477.088,154.5,479.123,154.6C481.157,154.7,483.191,154.6,485.226,154.083C487.26,153.567,489.295,152.633,491.329,152.067C493.363,151.5,495.398,151.3,497.432,152.334C499.467,153.367,501.501,155.635,503.536,156.302C505.57,156.969,507.604,156.036,509.639,156.686C511.673,157.337,513.708,159.571,515.742,159.87C517.776,160.17,519.811,158.535,521.845,157.168C523.88,155.8,525.914,154.7,527.949,153.85C529.983,153,532.017,152.4,534.052,152.45C536.086,152.5,538.121,153.2,540.155,153.3C542.189,153.401,544.224,152.902,546.258,152.985C548.293,153.068,550.327,153.734,552.362,154.55C554.396,155.367,556.43,156.333,558.465,156C560.499,155.668,562.534,154.035,564.568,153.152C566.602,152.268,568.637,152.134,570.671,152.467C572.706,152.8,574.74,153.6,576.775,153.417C578.809,153.233,580.843,152.067,582.878,151.55C584.912,151.033,586.947,151.167,588.981,150.933L588.981,133.597C586.947,134.464,584.912,135.031,582.878,136.198C580.843,137.365,578.809,139.133,576.775,138.965C574.74,138.798,572.706,136.695,570.671,135.812C568.637,134.928,566.602,135.264,564.568,135.765C562.534,136.267,560.499,136.933,558.465,137.433C556.43,137.933,554.396,138.267,552.362,137.666C550.327,137.066,548.293,135.532,546.258,135.048C544.224,134.564,542.189,135.131,540.155,135.68C538.121,136.23,536.086,136.763,534.052,136.879C532.017,136.995,529.983,136.695,527.949,136.912C525.914,137.128,523.88,137.862,521.845,138.196C519.811,138.53,517.776,138.465,515.742,138.599C513.708,138.733,511.673,139.067,509.639,139.233C507.604,139.399,505.57,139.398,503.536,139.481C501.501,139.564,499.467,139.731,497.432,140.414C495.398,141.097,493.363,142.296,491.329,143.079C489.295,143.862,487.26,144.23,485.226,144.13C483.191,144.031,481.157,143.464,479.123,143.481C477.088,143.497,475.054,144.097,473.019,143.38C470.985,142.663,468.95,140.629,466.916,140.879C464.882,141.129,462.847,143.663,460.813,144.698C458.778,145.732,456.744,145.266,454.71,146.15C452.675,147.033,450.641,149.267,448.606,150.233C446.572,151.2,444.537,150.9,442.503,150.3C440.469,149.7,438.434,148.8,436.4,147.616C434.365,146.432,432.331,144.965,430.297,145.465C428.262,145.965,426.228,148.432,424.193,149.5C422.159,150.567,420.124,150.233,418.09,150.033C416.056,149.833,414.021,149.767,411.987,149.483C409.952,149.199,407.918,148.698,405.884,148.182C403.849,147.665,401.815,147.133,399.78,147.633C397.746,148.133,395.711,149.665,393.677,150.098C391.643,150.532,389.608,149.866,387.574,148.816C385.539,147.767,383.505,146.333,381.471,146.35C379.436,146.367,377.402,147.833,375.367,148.133C373.333,148.433,371.298,147.565,369.264,147.298C367.23,147.032,365.195,147.366,363.161,147.733C361.126,148.1,359.092,148.5,357.058,148.6C355.023,148.7,352.989,148.5,350.954,148.433C348.92,148.366,346.885,148.432,344.851,148.681C342.817,148.931,340.782,149.364,338.748,149.031C336.713,148.698,334.679,147.597,332.645,147.115C330.61,146.632,328.576,146.766,326.541,147.449C324.507,148.133,322.472,149.365,320.438,149.882C318.404,150.398,316.369,150.199,314.335,150.1C312.3,150,310.266,150,308.232,149.983C306.197,149.967,304.163,149.933,302.128,149.433C300.094,148.933,298.059,147.967,296.025,147.783C293.991,147.599,291.956,148.198,289.922,148.765C287.887,149.331,285.853,149.864,283.819,150.198C281.784,150.532,279.75,150.666,277.715,151.266C275.681,151.867,273.646,152.933,271.612,153.067C269.578,153.2,267.543,152.4,265.509,152.117C263.474,151.833,261.44,152.067,259.406,152C257.371,151.933,255.337,151.567,253.302,151.167C251.268,150.767,249.234,150.333,247.199,150.3C245.165,150.267,243.13,150.633,241.096,151.033C239.061,151.432,237.027,151.865,234.993,151.882C232.958,151.898,230.924,151.499,228.889,151.366C226.855,151.233,224.821,151.367,222.786,151.867C220.752,152.367,218.717,153.233,216.683,153.25C214.648,153.266,212.614,152.432,210.58,151.865C208.545,151.297,206.511,150.997,204.476,151.331C202.442,151.665,200.408,152.633,198.373,152.883C196.339,153.133,194.304,152.667,192.27,152.916C190.235,153.166,188.201,154.132,186.167,154.265C184.132,154.398,182.098,153.699,180.063,153.582C178.029,153.466,175.995,153.932,173.96,154.531C171.926,155.13,169.891,155.863,167.857,156.246C165.822,156.63,163.788,156.665,161.754,156.649C159.719,156.633,157.685,156.565,155.65,156.932C153.616,157.298,151.582,158.099,149.547,158.299C147.513,158.499,145.478,158.098,143.444,158.398C141.409,158.698,139.375,159.699,137.341,160.283C135.306,160.867,133.272,161.033,131.237,162.066C129.203,163.098,127.169,164.997,125.134,165.813C123.1,166.629,121.065,166.363,119.031,168.314C116.996,170.264,114.962,174.431,112.928,176.713C110.893,178.994,108.859,179.391,106.824,183.374C104.79,187.358,102.756,194.928,100.721,198.429C98.687,201.93,96.652,201.363,94.618,203.18C92.583,204.997,90.549,209.198,88.515,212.448C86.48,215.698,84.446,217.995,82.411,220.36C80.377,222.726,78.343,225.159,76.308,228.01C74.274,230.862,72.239,234.131,70.205,237.215C68.17,240.299,66.136,243.198,64.102,245.431C62.067,247.663,60.033,249.229,57.998,250.228C55.964,251.228,53.93,251.66,51.895,254.694C49.861,257.728,47.826,263.364,45.792,269.815C43.757,276.267,41.723,283.533,39.689,289.016C37.654,294.499,35.62,298.198,33.585,303.315C31.551,308.431,29.517,314.964,27.482,320.664C25.448,326.364,23.413,331.231,21.379,337.015C19.344,342.798,17.31,349.499,15.276,355.433C13.241,361.367,11.207,366.533,9.172,375.25C7.138,383.967,5.104,396.233,3.069,407.55Z" fill="#3D494C" opacity="0.3"/></g></g><path class="foreground" aria-hidden="true" d="" display="none"/></g></g><g class="mark-group role-scope layer_1_pathgroup" role="graphics-object" aria-roledescription="group mark container"><g transform="translate(0,0)"><path class="background" aria-hidden="true" d="M0,0h600v400h-600Z"/><g><g class="mark-line role-mark layer_1_marks" clip-path="url(#clip6)" role="graphics-object" aria-roledescription="line mark container"><path aria-label="Timestep: 200.38k; Success rate: 0.1004; Network widths: Actor - 1024, Critic - 1024" role="graphics-symbol" aria-roledescription="line mark" d="M3.069,402.083C5.104,385.367,7.138,367.433,9.172,353.467C11.207,339.5,13.241,329.5,15.276,319.95C17.31,310.4,19.344,301.3,21.379,291.167C23.413,281.033,25.448,269.867,27.482,262.217C29.517,254.567,31.551,250.433,33.585,246.7C35.62,242.967,37.654,239.633,39.689,235.817C41.723,232,43.757,227.7,45.792,221.617C47.826,215.533,49.861,207.667,51.895,201.967C53.93,196.267,55.964,192.733,57.998,191.917C60.033,191.1,62.067,193,64.102,192.05C66.136,191.1,68.17,187.3,70.205,183.417C72.239,179.533,74.274,175.567,76.308,172.483C78.343,169.4,80.377,167.2,82.411,165.483C84.446,163.767,86.48,162.533,88.515,161.25C90.549,159.967,92.583,158.633,94.618,158.233C96.652,157.833,98.687,158.367,100.721,156.75C102.756,155.133,104.79,151.367,106.824,149.467C108.859,147.567,110.893,147.533,112.928,146.467C114.962,145.4,116.996,143.3,119.031,141.8C121.065,140.3,123.1,139.4,125.134,138.333C127.169,137.267,129.203,136.033,131.237,134.567C133.272,133.1,135.306,131.4,137.341,129.1C139.375,126.8,141.409,123.9,143.444,122.883C145.478,121.867,147.513,122.733,149.547,120.983C151.582,119.233,153.616,114.867,155.65,112.567C157.685,110.267,159.719,110.033,161.754,107.833C163.788,105.633,165.822,101.467,167.857,98.617C169.891,95.767,171.926,94.233,173.96,93.167C175.995,92.1,178.029,91.5,180.063,92.067C182.098,92.633,184.132,94.367,186.167,95.55C188.201,96.733,190.235,97.367,192.27,95.933C194.304,94.5,196.339,91,198.373,89.383C200.408,87.767,202.442,88.033,204.476,87.933C206.511,87.833,208.545,87.367,210.58,85.867C212.614,84.367,214.648,81.833,216.683,81.217C218.717,80.6,220.752,81.9,222.786,81.267C224.821,80.633,226.855,78.067,228.889,76.9C230.924,75.733,232.958,75.967,234.993,75.833C237.027,75.7,239.061,75.2,241.096,74.783C243.13,74.367,245.165,74.033,247.199,73.567C249.234,73.1,251.268,72.5,253.302,72.317C255.337,72.133,257.371,72.367,259.406,72.183C261.44,72,263.474,71.4,265.509,70.967C267.543,70.533,269.578,70.267,271.612,69.2C273.646,68.133,275.681,66.267,277.715,65.833C279.75,65.4,281.784,66.4,283.819,66.2C285.853,66,287.887,64.6,289.922,64.65C291.956,64.7,293.991,66.2,296.025,66.433C298.059,66.667,300.094,65.633,302.128,65.1C304.163,64.567,306.197,64.533,308.232,64.8C310.266,65.067,312.3,65.633,314.335,65.617C316.369,65.6,318.404,65,320.438,65.1C322.472,65.2,324.507,66,326.541,66.183C328.576,66.367,330.61,65.933,332.645,65.533C334.679,65.133,336.713,64.767,338.748,64.367C340.782,63.967,342.817,63.533,344.851,63.317C346.885,63.1,348.92,63.1,350.954,63.283C352.989,63.467,355.023,63.833,357.058,63.85C359.092,63.867,361.126,63.533,363.161,63.483C365.195,63.433,367.23,63.667,369.264,63.767C371.298,63.867,373.333,63.833,375.367,63.633C377.402,63.433,379.436,63.067,381.471,63.217C383.505,63.367,385.539,64.033,387.574,63.733C389.608,63.433,391.643,62.167,393.677,61.883C395.711,61.6,397.746,62.3,399.78,63.333C401.815,64.367,403.849,65.733,405.884,65.783C407.918,65.833,409.952,64.567,411.987,64.317C414.021,64.067,416.056,64.833,418.09,64.95C420.124,65.067,422.159,64.533,424.193,63.817C426.228,63.1,428.262,62.2,430.297,62.417C432.331,62.633,434.365,63.967,436.4,64C438.434,64.033,440.469,62.767,442.503,62.717C444.537,62.667,446.572,63.833,448.606,64.833C450.641,65.833,452.675,66.667,454.71,66.067C456.744,65.467,458.778,63.433,460.813,62.217C462.847,61,464.882,60.6,466.916,60.483C468.95,60.367,470.985,60.533,473.019,61.033C475.054,61.533,477.088,62.367,479.123,62.9C481.157,63.433,483.191,63.667,485.226,64.2C487.26,64.733,489.295,65.567,491.329,65.65C493.363,65.733,495.398,65.067,497.432,64.467C499.467,63.867,501.501,63.333,503.536,63C505.57,62.667,507.604,62.533,509.639,62.567C511.673,62.6,513.708,62.8,515.742,62.767C517.776,62.733,519.811,62.467,521.845,62.467C523.88,62.467,525.914,62.733,527.949,62.8C529.983,62.867,532.017,62.733,534.052,62.8C536.086,62.867,538.121,63.133,540.155,62.85C542.189,62.567,544.224,61.733,546.258,61.867C548.293,62,550.327,63.1,552.362,63.583C554.396,64.067,556.43,63.933,558.465,63.817C560.499,63.7,562.534,63.6,564.568,63.883C566.602,64.167,568.637,64.833,570.671,64.95C572.706,65.067,574.74,64.633,576.775,64.717C578.809,64.8,580.843,65.4,582.878,65.367C584.912,65.333,586.947,64.667,588.981,64.133" stroke="#FF4B33" stroke-width="2"/></g></g><path class="foreground" aria-hidden="true" d="" display="none"/></g><g transform="translate(0,0)"><path class="background" aria-hidden="true" d="M0,0h600v400h-600Z"/><g><g class="mark-line role-mark layer_1_marks" clip-path="url(#clip7)" role="graphics-object" aria-roledescription="line mark container"><path aria-label="Timestep: 200.38k; Success rate: 0.125714285714; Network widths: Critic - 1024" role="graphics-symbol" aria-roledescription="line mark" d="M3.069,386.405C5.104,368.333,7.138,348.524,9.172,335.31C11.207,322.095,13.241,315.476,15.276,305.833C17.31,296.19,19.344,283.524,21.379,273.19C23.413,262.857,25.448,254.857,27.482,245.881C29.517,236.905,31.551,226.952,33.585,221.667C35.62,216.381,37.654,215.762,39.689,210.857C41.723,205.952,43.757,196.762,45.792,189.738C47.826,182.714,49.861,177.857,51.895,172.405C53.93,166.952,55.964,160.905,57.998,157.214C60.033,153.524,62.067,152.19,64.102,151.833C66.136,151.476,68.17,152.095,70.205,152.833C72.239,153.571,74.274,154.429,76.308,153.786C78.343,153.143,80.377,151,82.411,148.19C84.446,145.381,86.48,141.905,88.515,140.143C90.549,138.381,92.583,138.333,94.618,137.452C96.652,136.571,98.687,134.857,100.721,133.976C102.756,133.095,104.79,133.048,106.824,132.952C108.859,132.857,110.893,132.714,112.928,132.048C114.962,131.381,116.996,130.19,119.031,128.571C121.065,126.952,123.1,124.905,125.134,121.762C127.169,118.619,129.203,114.381,131.237,112.119C133.272,109.857,135.306,109.571,137.341,109.381C139.375,109.19,141.409,109.095,143.444,107.381C145.478,105.667,147.513,102.333,149.547,101.429C151.582,100.524,153.616,102.048,155.65,100.714C157.685,99.381,159.719,95.19,161.754,93.476C163.788,91.762,165.822,92.524,167.857,93C169.891,93.476,171.926,93.667,173.96,92.881C175.995,92.095,178.029,90.333,180.063,89.476C182.098,88.619,184.132,88.667,186.167,88.333C188.201,88,190.235,87.286,192.27,86.952C194.304,86.619,196.339,86.667,198.373,86.738C200.408,86.81,202.442,86.905,204.476,86.333C206.511,85.762,208.545,84.524,210.58,83.81C212.614,83.095,214.648,82.905,216.683,82.452C218.717,82,220.752,81.286,222.786,80.095C224.821,78.905,226.855,77.238,228.889,76.595C230.924,75.952,232.958,76.333,234.993,75.833C237.027,75.333,239.061,73.952,241.096,73.238C243.13,72.524,245.165,72.476,247.199,71.857C249.234,71.238,251.268,70.048,253.302,69.905C255.337,69.762,257.371,70.667,259.406,70.571C261.44,70.476,263.474,69.381,265.509,69.667C267.543,69.952,269.578,71.619,271.612,71.857C273.646,72.095,275.681,70.905,277.715,70.167C279.75,69.429,281.784,69.143,283.819,69.071C285.853,69,287.887,69.143,289.922,69.31C291.956,69.476,293.991,69.667,296.025,69.762C298.059,69.857,300.094,69.857,302.128,70.024C304.163,70.19,306.197,70.524,308.232,71.024C310.266,71.524,312.3,72.19,314.335,71.952C316.369,71.714,318.404,70.571,320.438,69.333C322.472,68.095,324.507,66.762,326.541,65.952C328.576,65.143,330.61,64.857,332.645,64.69C334.679,64.524,336.713,64.476,338.748,64.595C340.782,64.714,342.817,65,344.851,64.095C346.885,63.19,348.92,61.095,350.954,60.81C352.989,60.524,355.023,62.048,357.058,62.095C359.092,62.143,361.126,60.714,363.161,60.31C365.195,59.905,367.23,60.524,369.264,60.571C371.298,60.619,373.333,60.095,375.367,59.786C377.402,59.476,379.436,59.381,381.471,59.024C383.505,58.667,385.539,58.048,387.574,58.333C389.608,58.619,391.643,59.81,393.677,59.595C395.711,59.381,397.746,57.762,399.78,57.429C401.815,57.095,403.849,58.048,405.884,58.762C407.918,59.476,409.952,59.952,411.987,59.595C414.021,59.238,416.056,58.048,418.09,57.643C420.124,57.238,422.159,57.619,424.193,58.214C426.228,58.81,428.262,59.619,430.297,59.357C432.331,59.095,434.365,57.762,436.4,56.738C438.434,55.714,440.469,55,442.503,55.214C444.537,55.429,446.572,56.571,448.606,57.167C450.641,57.762,452.675,57.81,454.71,57.286C456.744,56.762,458.778,55.667,460.813,55.786C462.847,55.905,464.882,57.238,466.916,57.738C468.95,58.238,470.985,57.905,473.019,57.214C475.054,56.524,477.088,55.476,479.123,55.833C481.157,56.19,483.191,57.952,485.226,57.69C487.26,57.429,489.295,55.143,491.329,54.857C493.363,54.571,495.398,56.286,497.432,57.333C499.467,58.381,501.501,58.762,503.536,58.857C505.57,58.952,507.604,58.762,509.639,58.5C511.673,58.238,513.708,57.905,515.742,57.405C517.776,56.905,519.811,56.238,521.845,56.333C523.88,56.429,525.914,57.286,527.949,57.548C529.983,57.81,532.017,57.476,534.052,56.976C536.086,56.476,538.121,55.81,540.155,55.667C542.189,55.524,544.224,55.905,546.258,57.19C548.293,58.476,550.327,60.667,552.362,60.786C554.396,60.905,556.43,58.952,558.465,58.31C560.499,57.667,562.534,58.333,564.568,58.762C566.602,59.19,568.637,59.381,570.671,59.214C572.706,59.048,574.74,58.524,576.775,57.81C578.809,57.095,580.843,56.19,582.878,56.024C584.912,55.857,586.947,56.429,588.981,56.595" stroke="#B22B24" stroke-width="2"/></g></g><path class="foreground" aria-hidden="true" d="" display="none"/></g><g transform="translate(0,0)"><path class="background" aria-hidden="true" d="M0,0h600v400h-600Z"/><g><g class="mark-line role-mark layer_1_marks" clip-path="url(#clip8)" role="graphics-object" aria-roledescription="line mark container"><path aria-label="Timestep: 200.38k; Success rate: 0.0736; Network widths: Actor - 200, Critic - 1024" role="graphics-symbol" aria-roledescription="line mark" d="M3.069,412.567C5.104,399,7.138,390.4,9.172,380.783C11.207,371.167,13.241,360.533,15.276,347.45C17.31,334.367,19.344,318.833,21.379,307.733C23.413,296.633,25.448,289.967,27.482,281.45C29.517,272.933,31.551,262.567,33.585,253.683C35.62,244.8,37.654,237.4,39.689,228.8C41.723,220.2,43.757,210.4,45.792,201.517C47.826,192.633,49.861,184.667,51.895,179.383C53.93,174.1,55.964,171.5,57.998,169.317C60.033,167.133,62.067,165.367,64.102,163.317C66.136,161.267,68.17,158.933,70.205,157.267C72.239,155.6,74.274,154.6,76.308,152.683C78.343,150.767,80.377,147.933,82.411,145.05C84.446,142.167,86.48,139.233,88.515,137.617C90.549,136,92.583,135.7,94.618,135.533C96.652,135.367,98.687,135.333,100.721,135.45C102.756,135.567,104.79,135.833,106.824,135.633C108.859,135.433,110.893,134.767,112.928,133.217C114.962,131.667,116.996,129.233,119.031,127.5C121.065,125.767,123.1,124.733,125.134,123.517C127.169,122.3,129.203,120.9,131.237,119.6C133.272,118.3,135.306,117.1,137.341,116.533C139.375,115.967,141.409,116.033,143.444,115.633C145.478,115.233,147.513,114.367,149.547,113.017C151.582,111.667,153.616,109.833,155.65,108.4C157.685,106.967,159.719,105.933,161.754,105.05C163.788,104.167,165.822,103.433,167.857,103.65C169.891,103.867,171.926,105.033,173.96,105.05C175.995,105.067,178.029,103.933,180.063,102.85C182.098,101.767,184.132,100.733,186.167,100.767C188.201,100.8,190.235,101.9,192.27,101.75C194.304,101.6,196.339,100.2,198.373,99.15C200.408,98.1,202.442,97.4,204.476,96.333C206.511,95.267,208.545,93.833,210.58,93.217C212.614,92.6,214.648,92.8,216.683,92.233C218.717,91.667,220.752,90.333,222.786,90.217C224.821,90.1,226.855,91.2,228.889,91.667C230.924,92.133,232.958,91.967,234.993,91.817C237.027,91.667,239.061,91.533,241.096,91.35C243.13,91.167,245.165,90.933,247.199,90.233C249.234,89.533,251.268,88.367,253.302,87.7C255.337,87.033,257.371,86.867,259.406,86.383C261.44,85.9,263.474,85.1,265.509,84.95C267.543,84.8,269.578,85.3,271.612,84.65C273.646,84,275.681,82.2,277.715,82.133C279.75,82.067,281.784,83.733,283.819,83.483C285.853,83.233,287.887,81.067,289.922,80.167C291.956,79.267,293.991,79.633,296.025,79.033C298.059,78.433,300.094,76.867,302.128,74.967C304.163,73.067,306.197,70.833,308.232,69.417C310.266,68,312.3,67.4,314.335,68.017C316.369,68.633,318.404,70.467,320.438,71.483C322.472,72.5,324.507,72.7,326.541,72.583C328.576,72.467,330.61,72.033,332.645,71.45C334.679,70.867,336.713,70.133,338.748,69.3C340.782,68.467,342.817,67.533,344.851,67.067C346.885,66.6,348.92,66.6,350.954,65.967C352.989,65.333,355.023,64.067,357.058,64.067C359.092,64.067,361.126,65.333,363.161,66.467C365.195,67.6,367.23,68.6,369.264,68.45C371.298,68.3,373.333,67,375.367,66.267C377.402,65.533,379.436,65.367,381.471,65.133C383.505,64.9,385.539,64.6,387.574,63.95C389.608,63.3,391.643,62.3,393.677,62.05C395.711,61.8,397.746,62.3,399.78,62.033C401.815,61.767,403.849,60.733,405.884,60.217C407.918,59.7,409.952,59.7,411.987,59.4C414.021,59.1,416.056,58.5,418.09,58.367C420.124,58.233,422.159,58.567,424.193,59.4C426.228,60.233,428.262,61.567,430.297,61.933C432.331,62.3,434.365,61.7,436.4,61.383C438.434,61.067,440.469,61.033,442.503,60.783C444.537,60.533,446.572,60.067,448.606,60.583C450.641,61.1,452.675,62.6,454.71,62.95C456.744,63.3,458.778,62.5,460.813,62.267C462.847,62.033,464.882,62.367,466.916,62.55C468.95,62.733,470.985,62.767,473.019,63.15C475.054,63.533,477.088,64.267,479.123,64.267C481.157,64.267,483.191,63.533,485.226,62.817C487.26,62.1,489.295,61.4,491.329,61.433C493.363,61.467,495.398,62.233,497.432,62.483C499.467,62.733,501.501,62.467,503.536,62.033C505.57,61.6,507.604,61,509.639,61.367C511.673,61.733,513.708,63.067,515.742,63.883C517.776,64.7,519.811,65,521.845,64.517C523.88,64.033,525.914,62.767,527.949,62.333C529.983,61.9,532.017,62.3,534.052,62.383C536.086,62.467,538.121,62.233,540.155,61.833C542.189,61.433,544.224,60.867,546.258,60.267C548.293,59.667,550.327,59.033,552.362,59.317C554.396,59.6,556.43,60.8,558.465,61.3C560.499,61.8,562.534,61.6,564.568,61.85C566.602,62.1,568.637,62.8,570.671,62.717C572.706,62.633,574.74,61.767,576.775,61.3C578.809,60.833,580.843,60.767,582.878,60.65C584.912,60.533,586.947,60.367,588.981,60.3" stroke="#4D130F" stroke-width="2"/></g></g><path class="foreground" aria-hidden="true" d="" display="none"/></g><g transform="translate(0,0)"><path class="background" aria-hidden="true" d="M0,0h600v400h-600Z"/><g><g class="mark-line role-mark layer_1_marks" clip-path="url(#clip9)" role="graphics-object" aria-roledescription="line mark container"><path aria-label="Timestep: 200.38k; Success rate: 0.109; Network widths: Actor - 1024" role="graphics-symbol" aria-roledescription="line mark" d="M3.069,420.75C5.104,410.556,7.138,397.444,9.172,387.361C11.207,377.278,13.241,370.222,15.276,359.972C17.31,349.722,19.344,336.278,21.379,325.611C23.413,314.944,25.448,307.056,27.482,299.806C29.517,292.556,31.551,285.944,33.585,280.083C35.62,274.222,37.654,269.111,39.689,263.917C41.723,258.722,43.757,253.444,45.792,248.722C47.826,244,49.861,239.833,51.895,236.444C53.93,233.056,55.964,230.444,57.998,228.056C60.033,225.667,62.067,223.5,64.102,220.639C66.136,217.778,68.17,214.222,70.205,211.917C72.239,209.611,74.274,208.556,76.308,204.806C78.343,201.056,80.377,194.611,82.411,190.278C84.446,185.944,86.48,183.722,88.515,181.444C90.549,179.167,92.583,176.833,94.618,174C96.652,171.167,98.687,167.833,100.721,165.806C102.756,163.778,104.79,163.056,106.824,161.778C108.859,160.5,110.893,158.667,112.928,158.194C114.962,157.722,116.996,158.611,119.031,159.278C121.065,159.944,123.1,160.389,125.134,160.028C127.169,159.667,129.203,158.5,131.237,157.5C133.272,156.5,135.306,155.667,137.341,154.417C139.375,153.167,141.409,151.5,143.444,150.944C145.478,150.389,147.513,150.944,149.547,151.75C151.582,152.556,153.616,153.611,155.65,152.861C157.685,152.111,159.719,149.556,161.754,147.306C163.788,145.056,165.822,143.111,167.857,142.528C169.891,141.944,171.926,142.722,173.96,141.806C175.995,140.889,178.029,138.278,180.063,135.917C182.098,133.556,184.132,131.444,186.167,130.333C188.201,129.222,190.235,129.111,192.27,130.139C194.304,131.167,196.339,133.333,198.373,133.472C200.408,133.611,202.442,131.722,204.476,130.972C206.511,130.222,208.545,130.611,210.58,130.583C212.614,130.556,214.648,130.111,216.683,129.056C218.717,128,220.752,126.333,222.786,125.75C224.821,125.167,226.855,125.667,228.889,125.611C230.924,125.556,232.958,124.944,234.993,123.889C237.027,122.833,239.061,121.333,241.096,121.694C243.13,122.056,245.165,124.278,247.199,124.722C249.234,125.167,251.268,123.833,253.302,123.444C255.337,123.056,257.371,123.611,259.406,123.556C261.44,123.5,263.474,122.833,265.509,122.306C267.543,121.778,269.578,121.389,271.612,122.806C273.646,124.222,275.681,127.444,277.715,127.333C279.75,127.222,281.784,123.778,283.819,123.25C285.853,122.722,287.887,125.111,289.922,125.833C291.956,126.556,293.991,125.611,296.025,124.139C298.059,122.667,300.094,120.667,302.128,119.972C304.163,119.278,306.197,119.889,308.232,119.306C310.266,118.722,312.3,116.944,314.335,116.694C316.369,116.444,318.404,117.722,320.438,118.333C322.472,118.944,324.507,118.889,326.541,117.722C328.576,116.556,330.61,114.278,332.645,113.222C334.679,112.167,336.713,112.333,338.748,113.056C340.782,113.778,342.817,115.056,344.851,114.917C346.885,114.778,348.92,113.222,350.954,111.556C352.989,109.889,355.023,108.111,357.058,106.806C359.092,105.5,361.126,104.667,363.161,104.583C365.195,104.5,367.23,105.167,369.264,105.444C371.298,105.722,373.333,105.611,375.367,106.167C377.402,106.722,379.436,107.944,381.471,108.167C383.505,108.389,385.539,107.611,387.574,107.722C389.608,107.833,391.643,108.833,393.677,108.417C395.711,108,397.746,106.167,399.78,105.167C401.815,104.167,403.849,104,405.884,104.111C407.918,104.222,409.952,104.611,411.987,103.806C414.021,103,416.056,101,418.09,100.194C420.124,99.389,422.159,99.778,424.193,98.25C426.228,96.722,428.262,93.278,430.297,92.917C432.331,92.556,434.365,95.278,436.4,95.694C438.434,96.111,440.469,94.222,442.503,92.167C444.537,90.111,446.572,87.889,448.606,87.5C450.641,87.111,452.675,88.556,454.71,88.861C456.744,89.167,458.778,88.333,460.813,86.972C462.847,85.611,464.882,83.722,466.916,82.972C468.95,82.222,470.985,82.611,473.019,82.722C475.054,82.833,477.088,82.667,479.123,81.833C481.157,81,483.191,79.5,485.226,80C487.26,80.5,489.295,83,491.329,84.056C493.363,85.111,495.398,84.722,497.432,84.028C499.467,83.333,501.501,82.333,503.536,81.528C505.57,80.722,507.604,80.111,509.639,79.806C511.673,79.5,513.708,79.5,515.742,80.333C517.776,81.167,519.811,82.833,521.845,83.583C523.88,84.333,525.914,84.167,527.949,84.417C529.983,84.667,532.017,85.333,534.052,85.861C536.086,86.389,538.121,86.778,540.155,87.472C542.189,88.167,544.224,89.167,546.258,88.806C548.293,88.444,550.327,86.722,552.362,86.639C554.396,86.556,556.43,88.111,558.465,87.806C560.499,87.5,562.534,85.333,564.568,84.25C566.602,83.167,568.637,83.167,570.671,82.889C572.706,82.611,574.74,82.056,576.775,82.056C578.809,82.056,580.843,82.611,582.878,82.528C584.912,82.444,586.947,81.722,588.981,83.083" stroke="#546569" stroke-width="2"/></g></g><path class="foreground" aria-hidden="true" d="" display="none"/></g><g transform="translate(0,0)"><path class="background" aria-hidden="true" d="M0,0h600v400h-600Z"/><g><g class="mark-line role-mark layer_1_marks" clip-path="url(#clip10)" role="graphics-object" aria-roledescription="line mark container"><path aria-label="Timestep: 200.38k; Success rate: 0.0898; Network widths: Actor - 1024, Critic - 200" role="graphics-symbol" aria-roledescription="line mark" d="M3.069,419.033C5.104,406.967,7.138,394.833,9.172,386.417C11.207,378,13.241,373.3,15.276,368.267C17.31,363.233,19.344,357.867,21.379,352.55C23.413,347.233,25.448,341.967,27.482,336.183C29.517,330.4,31.551,324.1,33.585,318.833C35.62,313.567,37.654,309.333,39.689,303.667C41.723,298,43.757,290.9,45.792,284.45C47.826,278,49.861,272.2,51.895,268.75C53.93,265.3,55.964,264.2,57.998,263.283C60.033,262.367,62.067,261.633,64.102,259.35C66.136,257.067,68.17,253.233,70.205,249.283C72.239,245.333,74.274,241.267,76.308,238.6C78.343,235.933,80.377,234.667,82.411,233.183C84.446,231.7,86.48,230,88.515,227.333C90.549,224.667,92.583,221.033,94.618,219.517C96.652,218,98.687,218.6,100.721,216.117C102.756,213.633,104.79,208.067,106.824,204.533C108.859,201,110.893,199.5,112.928,196.25C114.962,193,116.996,188,119.031,185.083C121.065,182.167,123.1,181.333,125.134,179.967C127.169,178.6,129.203,176.7,131.237,175.55C133.272,174.4,135.306,174,137.341,173.167C139.375,172.333,141.409,171.067,143.444,170.433C145.478,169.8,147.513,169.8,149.547,169.333C151.582,168.867,153.616,167.933,155.65,167.533C157.685,167.133,159.719,167.267,161.754,167.15C163.788,167.033,165.822,166.667,167.857,166.367C169.891,166.067,171.926,165.833,173.96,164.85C175.995,163.867,178.029,162.133,180.063,161.533C182.098,160.933,184.132,161.467,186.167,160.983C188.201,160.5,190.235,159,192.27,158.167C194.304,157.333,196.339,157.167,198.373,156.717C200.408,156.267,202.442,155.533,204.476,155.05C206.511,154.567,208.545,154.333,210.58,154.633C212.614,154.933,214.648,155.767,216.683,155.683C218.717,155.6,220.752,154.6,222.786,154.05C224.821,153.5,226.855,153.4,228.889,153.617C230.924,153.833,232.958,154.367,234.993,154.35C237.027,154.333,239.061,153.767,241.096,153.283C243.13,152.8,245.165,152.4,247.199,152.533C249.234,152.667,251.268,153.333,253.302,154.117C255.337,154.9,257.371,155.8,259.406,155.683C261.44,155.567,263.474,154.433,265.509,154.633C267.543,154.833,269.578,156.367,271.612,156.4C273.646,156.433,275.681,154.967,277.715,154.383C279.75,153.8,281.784,154.1,283.819,153.917C285.853,153.733,287.887,153.067,289.922,152.367C291.956,151.667,293.991,150.933,296.025,150.933C298.059,150.933,300.094,151.667,302.128,151.85C304.163,152.033,306.197,151.667,308.232,151.617C310.266,151.567,312.3,151.833,314.335,152.017C316.369,152.2,318.404,152.3,320.438,152.083C322.472,151.867,324.507,151.333,326.541,151.217C328.576,151.1,330.61,151.4,332.645,151.717C334.679,152.033,336.713,152.367,338.748,152.283C340.782,152.2,342.817,151.7,344.851,151.383C346.885,151.067,348.92,150.933,350.954,150.967C352.989,151,355.023,151.2,357.058,151.367C359.092,151.533,361.126,151.667,363.161,151.467C365.195,151.267,367.23,150.733,369.264,150.817C371.298,150.9,373.333,151.6,375.367,151.483C377.402,151.367,379.436,150.433,381.471,150.6C383.505,150.767,385.539,152.033,387.574,152.817C389.608,153.6,391.643,153.9,393.677,153.5C395.711,153.1,397.746,152,399.78,151.333C401.815,150.667,403.849,150.433,405.884,150.5C407.918,150.567,409.952,150.933,411.987,152.033C414.021,153.133,416.056,154.967,418.09,155.45C420.124,155.933,422.159,155.067,424.193,153.667C426.228,152.267,428.262,150.333,430.297,149.717C432.331,149.1,434.365,149.8,436.4,150.633C438.434,151.467,440.469,152.433,442.503,153.1C444.537,153.767,446.572,154.133,448.606,153.233C450.641,152.333,452.675,150.167,454.71,149.533C456.744,148.9,458.778,149.8,460.813,149.767C462.847,149.733,464.882,148.767,466.916,148.583C468.95,148.4,470.985,149,473.019,149.267C475.054,149.533,477.088,149.467,479.123,149.533C481.157,149.6,483.191,149.8,485.226,149.6C487.26,149.4,489.295,148.8,491.329,148.15C493.363,147.5,495.398,146.8,497.432,147.017C499.467,147.233,501.501,148.367,503.536,148.65C505.57,148.933,507.604,148.367,509.639,148.467C511.673,148.567,513.708,149.333,515.742,149.583C517.776,149.833,519.811,149.567,521.845,149.067C523.88,148.567,525.914,147.833,527.949,147.25C529.983,146.667,532.017,146.233,534.052,146.083C536.086,145.933,538.121,146.067,540.155,145.833C542.189,145.6,544.224,145,546.258,145.167C548.293,145.333,550.327,146.267,552.362,146.95C554.396,147.633,556.43,148.067,558.465,147.817C560.499,147.567,562.534,146.633,564.568,146.067C566.602,145.5,568.637,145.3,570.671,145.633C572.706,145.967,574.74,146.833,576.775,146.65C578.809,146.467,580.843,145.233,582.878,144.6C584.912,143.967,586.947,143.933,588.981,143.4" stroke="#3D494C" stroke-width="2"/></g></g><path class="foreground" aria-hidden="true" d="" display="none"/></g></g><g class="mark-group role-legend" role="graphics-symbol" aria-roledescription="legend" aria-label="Symbol legend titled 'Network widths' for fill color and stroke color with 5 values: Actor - 1024, Critic - 1024, Critic - 1024, Actor - 200, Critic - 1024, Actor - 1024, Actor - 1024, Critic - 200"><g transform="translate(618,0)"><path class="background" aria-hidden="true" d="M0,0h169v99h-169Z" pointer-events="none"/><g><g class="mark-group role-legend-entry"><g transform="translate(0,21)"><path class="background" aria-hidden="true" d="M0,0h0v0h0Z" pointer-events="none"/><g><g class="mark-group role-scope" role="graphics-object" aria-roledescription="group mark container"><g transform="translate(0,0)"><path class="background" aria-hidden="true" d="M0,0h168.0830078125v14h-168.0830078125Z" pointer-events="none" opacity="1"/><g><g class="mark-symbol role-legend-symbol" pointer-events="none"><path transform="translate(7,7)" d="M5,0A5,5,0,1,1,-5,0A5,5,0,1,1,5,0" fill="#FF4B33" stroke="#FF4B33" stroke-width="1.5" opacity="0.3"/></g><g class="mark-text role-legend-label" pointer-events="none"><text text-anchor="start" transform="translate(18,11)" font-family="Times New Roman" font-size="14px" fill="#000" opacity="1">Actor - 1024, Critic - 1024</text></g></g><path class="foreground" aria-hidden="true" d="" pointer-events="none" display="none"/></g><g transform="translate(0,16)"><path class="background" aria-hidden="true" d="M0,0h168.0830078125v14h-168.0830078125Z" pointer-events="none" opacity="1"/><g><g class="mark-symbol role-legend-symbol" pointer-events="none"><path transform="translate(7,7)" d="M5,0A5,5,0,1,1,-5,0A5,5,0,1,1,5,0" fill="#B22B24" stroke="#B22B24" stroke-width="1.5" opacity="0.3"/></g><g class="mark-text role-legend-label" pointer-events="none"><text text-anchor="start" transform="translate(18,11)" font-family="Times New Roman" font-size="14px" fill="#000" opacity="1">Critic - 1024</text></g></g><path class="foreground" aria-hidden="true" d="" pointer-events="none" display="none"/></g><g transform="translate(0,32)"><path class="background" aria-hidden="true" d="M0,0h168.0830078125v14h-168.0830078125Z" pointer-events="none" opacity="1"/><g><g class="mark-symbol role-legend-symbol" pointer-events="none"><path transform="translate(7,7)" d="M5,0A5,5,0,1,1,-5,0A5,5,0,1,1,5,0" fill="#4D130F" stroke="#4D130F" stroke-width="1.5" opacity="0.3"/></g><g class="mark-text role-legend-label" pointer-events="none"><text text-anchor="start" transform="translate(18,11)" font-family="Times New Roman" font-size="14px" fill="#000" opacity="1">Actor - 200, Critic - 1024</text></g></g><path class="foreground" aria-hidden="true" d="" pointer-events="none" display="none"/></g><g transform="translate(0,48)"><path class="background" aria-hidden="true" d="M0,0h168.0830078125v14h-168.0830078125Z" pointer-events="none" opacity="1"/><g><g class="mark-symbol role-legend-symbol" pointer-events="none"><path transform="translate(7,7)" d="M5,0A5,5,0,1,1,-5,0A5,5,0,1,1,5,0" fill="#546569" stroke="#546569" stroke-width="1.5" opacity="0.3"/></g><g class="mark-text role-legend-label" pointer-events="none"><text text-anchor="start" transform="translate(18,11)" font-family="Times New Roman" font-size="14px" fill="#000" opacity="1">Actor - 1024</text></g></g><path class="foreground" aria-hidden="true" d="" pointer-events="none" display="none"/></g><g transform="translate(0,64)"><path class="background" aria-hidden="true" d="M0,0h168.0830078125v14h-168.0830078125Z" pointer-events="none" opacity="1"/><g><g class="mark-symbol role-legend-symbol" pointer-events="none"><path transform="translate(7,7)" d="M5,0A5,5,0,1,1,-5,0A5,5,0,1,1,5,0" fill="#3D494C" stroke="#3D494C" stroke-width="1.5" opacity="0.3"/></g><g class="mark-text role-legend-label" pointer-events="none"><text text-anchor="start" transform="translate(18,11)" font-family="Times New Roman" font-size="14px" fill="#000" opacity="1">Actor - 1024, Critic - 200</text></g></g><path class="foreground" aria-hidden="true" d="" pointer-events="none" display="none"/></g></g></g><path class="foreground" aria-hidden="true" d="" pointer-events="none" display="none"/></g></g><g class="mark-text role-legend-title" pointer-events="none"><text text-anchor="start" transform="translate(0,13)" font-family="Times New Roman" font-size="16px" font-weight="bold" fill="#000" opacity="1">Network widths</text></g></g><path class="foreground" aria-hidden="true" d="" pointer-events="none" display="none"/></g></g></g><path class="foreground" aria-hidden="true" d="" display="none"/></g></g></g><defs><clipPath id="clip1"><rect x="0" y="0" width="600" height="400"/></clipPath><clipPath id="clip2"><rect x="0" y="0" width="600" height="400"/></clipPath><clipPath id="clip3"><rect x="0" y="0" width="600" height="400"/></clipPath><clipPath id="clip4"><rect x="0" y="0" width="600" height="400"/></clipPath><clipPath id="clip5"><rect x="0" y="0" width="600" height="400"/></clipPath><clipPath id="clip6"><rect x="0" y="0" width="600" height="400"/></clipPath><clipPath id="clip7"><rect x="0" y="0" width="600" height="400"/></clipPath><clipPath id="clip8"><rect x="0" y="0" width="600" height="400"/></clipPath><clipPath id="clip9"><rect x="0" y="0" width="600" height="400"/></clipPath><clipPath id="clip10"><rect x="0" y="0" width="600" height="400"/></clipPath></defs></svg>