<svg xmlns="http://www.w3.org/2000/svg" xmlns:xlink="http://www.w3.org/1999/xlink" version="1.1" class="marks" width="662" height="465" viewBox="0 0 662 465"><rect width="662" height="465" fill="white"/><g fill="none" stroke-miterlimit="10" transform="translate(56,13)"><g class="mark-group role-frame root" role="graphics-object" aria-roledescription="group mark container"><g transform="translate(0,0)"><path class="background" aria-hidden="true" d="M0.5,0.5h600v400h-600Z" stroke="#ddd"/><g><g class="mark-group role-axis" aria-hidden="true"><g transform="translate(0.5,400.5)"><path class="background" aria-hidden="true" d="M0,0h0v0h0Z" pointer-events="none"/><g><g class="mark-rule role-axis-grid" pointer-events="none"><line transform="translate(21,-400)" x2="0" y2="400" stroke="#ddd" stroke-width="1" opacity="1"/><line transform="translate(52,-400)" x2="0" y2="400" stroke="#ddd" stroke-width="1" opacity="1"/><line transform="translate(82,-400)" x2="0" y2="400" stroke="#ddd" stroke-width="1" opacity="1"/><line transform="translate(113,-400)" x2="0" y2="400" stroke="#ddd" stroke-width="1" opacity="1"/><line transform="translate(143,-400)" x2="0" y2="400" stroke="#ddd" stroke-width="1" opacity="1"/><line transform="translate(174,-400)" x2="0" y2="400" stroke="#ddd" stroke-width="1" opacity="1"/><line transform="translate(204,-400)" x2="0" y2="400" stroke="#ddd" stroke-width="1" opacity="1"/><line transform="translate(235,-400)" x2="0" y2="400" stroke="#ddd" stroke-width="1" opacity="1"/><line transform="translate(265,-400)" x2="0" y2="400" stroke="#ddd" stroke-width="1" opacity="1"/><line transform="translate(295,-400)" x2="0" y2="400" stroke="#ddd" stroke-width="1" opacity="1"/><line transform="translate(326,-400)" x2="0" y2="400" stroke="#ddd" stroke-width="1" opacity="1"/><line transform="translate(356,-400)" x2="0" y2="400" stroke="#ddd" stroke-width="1" opacity="1"/><line transform="translate(387,-400)" x2="0" y2="400" stroke="#ddd" stroke-width="1" opacity="1"/><line transform="translate(417,-400)" x2="0" y2="400" stroke="#ddd" stroke-width="1" opacity="1"/><line transform="translate(448,-400)" x2="0" y2="400" stroke="#ddd" stroke-width="1" opacity="1"/><line transform="translate(478,-400)" x2="0" y2="400" stroke="#ddd" stroke-width="1" opacity="1"/><line transform="translate(509,-400)" x2="0" y2="400" stroke="#ddd" stroke-width="1" opacity="1"/><line transform="translate(539,-400)" x2="0" y2="400" stroke="#ddd" stroke-width="1" opacity="1"/><line transform="translate(570,-400)" x2="0" y2="400" stroke="#ddd" stroke-width="1" opacity="1"/><line transform="translate(600,-400)" x2="0" y2="400" stroke="#ddd" stroke-width="1" opacity="1"/></g></g><path class="foreground" aria-hidden="true" d="" pointer-events="none" display="none"/></g></g><g class="mark-group role-axis" aria-hidden="true"><g transform="translate(0.5,0.5)"><path class="background" aria-hidden="true" d="M0,0h0v0h0Z" pointer-events="none"/><g><g class="mark-rule role-axis-grid" pointer-events="none"><line transform="translate(0,400)" x2="600" y2="0" stroke="#ddd" stroke-width="1" opacity="1"/><line transform="translate(0,350)" x2="600" y2="0" stroke="#ddd" stroke-width="1" opacity="1"/><line transform="translate(0,300)" x2="600" y2="0" stroke="#ddd" stroke-width="1" opacity="1"/><line transform="translate(0,250)" x2="600" y2="0" stroke="#ddd" stroke-width="1" opacity="1"/><line transform="translate(0,200)" x2="600" y2="0" stroke="#ddd" stroke-width="1" opacity="1"/><line transform="translate(0,150)" x2="600" y2="0" stroke="#ddd" stroke-width="1" opacity="1"/><line transform="translate(0,100)" x2="600" y2="0" stroke="#ddd" stroke-width="1" opacity="1"/><line transform="translate(0,50)" x2="600" y2="0" stroke="#ddd" stroke-width="1" opacity="1"/><line transform="translate(0,0)" x2="600" y2="0" stroke="#ddd" stroke-width="1" opacity="1"/></g></g><path class="foreground" aria-hidden="true" d="" pointer-events="none" display="none"/></g></g><g class="mark-group role-axis" role="graphics-symbol" aria-roledescription="axis" aria-label="X-axis titled 'Number of environment steps' for a linear scale with values from 0M to 20M"><g transform="translate(0.5,400.5)"><path class="background" aria-hidden="true" d="M0,0h0v0h0Z" pointer-events="none"/><g><g class="mark-rule role-axis-tick" pointer-events="none"><line transform="translate(21,0)" x2="0" y2="5" stroke="#888" stroke-width="1" opacity="1"/><line transform="translate(52,0)" x2="0" y2="5" stroke="#888" stroke-width="1" opacity="1"/><line transform="translate(82,0)" x2="0" y2="5" stroke="#888" stroke-width="1" opacity="1"/><line transform="translate(113,0)" x2="0" y2="5" stroke="#888" stroke-width="1" opacity="1"/><line transform="translate(143,0)" x2="0" y2="5" stroke="#888" stroke-width="1" opacity="1"/><line transform="translate(174,0)" x2="0" y2="5" stroke="#888" stroke-width="1" opacity="1"/><line transform="translate(204,0)" x2="0" y2="5" stroke="#888" stroke-width="1" opacity="1"/><line transform="translate(235,0)" x2="0" y2="5" stroke="#888" stroke-width="1" opacity="1"/><line transform="translate(265,0)" x2="0" y2="5" stroke="#888" stroke-width="1" opacity="1"/><line transform="translate(295,0)" x2="0" y2="5" stroke="#888" stroke-width="1" opacity="1"/><line transform="translate(326,0)" x2="0" y2="5" stroke="#888" stroke-width="1" opacity="1"/><line transform="translate(356,0)" x2="0" y2="5" stroke="#888" stroke-width="1" opacity="1"/><line transform="translate(387,0)" x2="0" y2="5" stroke="#888" stroke-width="1" opacity="1"/><line transform="translate(417,0)" x2="0" y2="5" stroke="#888" stroke-width="1" opacity="1"/><line transform="translate(448,0)" x2="0" y2="5" stroke="#888" stroke-width="1" opacity="1"/><line transform="translate(478,0)" x2="0" y2="5" stroke="#888" stroke-width="1" opacity="1"/><line transform="translate(509,0)" x2="0" y2="5" stroke="#888" stroke-width="1" opacity="1"/><line transform="translate(539,0)" x2="0" y2="5" stroke="#888" stroke-width="1" opacity="1"/><line transform="translate(570,0)" x2="0" y2="5" stroke="#888" stroke-width="1" opacity="1"/><line transform="translate(600,0)" x2="0" y2="5" stroke="#888" stroke-width="1" opacity="1"/></g><g class="mark-text role-axis-label" pointer-events="none"><text text-anchor="middle" transform="translate(21.31979695431472,20)" font-family="Times New Roman" font-size="16px" fill="#000" opacity="1">1M</text><text text-anchor="middle" transform="translate(51.77664974619289,20)" font-family="Times New Roman" font-size="16px" fill="#000" opacity="0">2M</text><text text-anchor="middle" transform="translate(82.23350253807106,20)" font-family="Times New Roman" font-size="16px" fill="#000" opacity="1">3M</text><text text-anchor="middle" transform="translate(112.69035532994924,20)" font-family="Times New Roman" font-size="16px" fill="#000" opacity="0">4M</text><text text-anchor="middle" transform="translate(143.14720812182742,20)" font-family="Times New Roman" font-size="16px" fill="#000" opacity="1">5M</text><text text-anchor="middle" transform="translate(173.60406091370558,20)" font-family="Times New Roman" font-size="16px" fill="#000" opacity="0">6M</text><text text-anchor="middle" transform="translate(204.06091370558377,20)" font-family="Times New Roman" font-size="16px" fill="#000" opacity="1">7M</text><text text-anchor="middle" transform="translate(234.51776649746193,20)" font-family="Times New Roman" font-size="16px" fill="#000" opacity="0">8M</text><text text-anchor="middle" transform="translate(264.97461928934007,20)" font-family="Times New Roman" font-size="16px" fill="#000" opacity="1">9M</text><text text-anchor="middle" transform="translate(295.43147208121826,20)" font-family="Times New Roman" font-size="16px" fill="#000" opacity="0">10M</text><text text-anchor="middle" transform="translate(325.88832487309645,20)" font-family="Times New Roman" font-size="16px" fill="#000" opacity="1">11M</text><text text-anchor="middle" transform="translate(356.34517766497464,20)" font-family="Times New Roman" font-size="16px" fill="#000" opacity="0">12M</text><text text-anchor="middle" transform="translate(386.80203045685283,20)" font-family="Times New Roman" font-size="16px" fill="#000" opacity="1">13M</text><text text-anchor="middle" transform="translate(417.25888324873097,20)" font-family="Times New Roman" font-size="16px" fill="#000" opacity="0">14M</text><text text-anchor="middle" transform="translate(447.71573604060916,20)" font-family="Times New Roman" font-size="16px" fill="#000" opacity="1">15M</text><text text-anchor="middle" transform="translate(478.1725888324873,20)" font-family="Times New Roman" font-size="16px" fill="#000" opacity="0">16M</text><text text-anchor="middle" transform="translate(508.6294416243655,20)" font-family="Times New Roman" font-size="16px" fill="#000" opacity="1">17M</text><text text-anchor="middle" transform="translate(539.0862944162436,20)" font-family="Times New Roman" font-size="16px" fill="#000" opacity="0">18M</text><text text-anchor="middle" transform="translate(569.5431472081218,20)" font-family="Times New Roman" font-size="16px" fill="#000" opacity="1">19M</text><text text-anchor="end" transform="translate(600,20)" font-family="Times New Roman" font-size="16px" fill="#000" opacity="0">20M</text></g><g class="mark-rule role-axis-domain" pointer-events="none"><line transform="translate(0,0)" x2="600" y2="0" stroke="#888" stroke-width="1" opacity="1"/></g><g class="mark-text role-axis-title" pointer-events="none"><text text-anchor="middle" transform="translate(300,43)" font-family="Times New Roman" font-size="20px" font-weight="bold" fill="#000" opacity="1">Number of environment steps</text></g></g><path class="foreground" aria-hidden="true" d="" pointer-events="none" display="none"/></g></g><g class="mark-group role-axis" role="graphics-symbol" aria-roledescription="axis" aria-label="Y-axis titled 'Success rate' for a linear scale with values from 0.2 to 1.0"><g transform="translate(0.5,0.5)"><path class="background" aria-hidden="true" d="M0,0h0v0h0Z" pointer-events="none"/><g><g class="mark-rule role-axis-tick" pointer-events="none"><line transform="translate(0,400)" x2="-5" y2="0" stroke="#888" stroke-width="1" opacity="1"/><line transform="translate(0,350)" x2="-5" y2="0" stroke="#888" stroke-width="1" opacity="1"/><line transform="translate(0,300)" x2="-5" y2="0" stroke="#888" stroke-width="1" opacity="1"/><line transform="translate(0,250)" x2="-5" y2="0" stroke="#888" stroke-width="1" opacity="1"/><line transform="translate(0,200)" x2="-5" y2="0" stroke="#888" stroke-width="1" opacity="1"/><line transform="translate(0,150)" x2="-5" y2="0" stroke="#888" stroke-width="1" opacity="1"/><line transform="translate(0,100)" x2="-5" y2="0" stroke="#888" stroke-width="1" opacity="1"/><line transform="translate(0,50)" x2="-5" y2="0" stroke="#888" stroke-width="1" opacity="1"/><line transform="translate(0,0)" x2="-5" y2="0" stroke="#888" stroke-width="1" opacity="1"/></g><g class="mark-text role-axis-label" pointer-events="none"><text text-anchor="end" transform="translate(-7,405)" font-family="Times New Roman" font-size="16px" fill="#000" opacity="1">0.2</text><text text-anchor="end" transform="translate(-7,355)" font-family="Times New Roman" font-size="16px" fill="#000" opacity="1">0.3</text><text text-anchor="end" transform="translate(-7,305)" font-family="Times New Roman" font-size="16px" fill="#000" opacity="1">0.4</text><text text-anchor="end" transform="translate(-7,255)" font-family="Times New Roman" font-size="16px" fill="#000" opacity="1">0.5</text><text text-anchor="end" transform="translate(-7,205)" font-family="Times New Roman" font-size="16px" fill="#000" opacity="1">0.6</text><text text-anchor="end" transform="translate(-7,155.00000000000006)" font-family="Times New Roman" font-size="16px" fill="#000" opacity="1">0.7</text><text text-anchor="end" transform="translate(-7,104.99999999999996)" font-family="Times New Roman" font-size="16px" fill="#000" opacity="1">0.8</text><text text-anchor="end" transform="translate(-7,55.00000000000004)" font-family="Times New Roman" font-size="16px" fill="#000" opacity="1">0.9</text><text text-anchor="end" transform="translate(-7,5)" font-family="Times New Roman" font-size="16px" fill="#000" opacity="1">1.0</text></g><g class="mark-rule role-axis-domain" pointer-events="none"><line transform="translate(0,400)" x2="0" y2="-400" stroke="#888" stroke-width="1" opacity="1"/></g><g class="mark-text role-axis-title" pointer-events="none"><text text-anchor="middle" transform="translate(-31,200) rotate(-90) translate(0,-4)" font-family="Times New Roman" font-size="20px" font-weight="bold" fill="#000" opacity="1">Success rate</text></g></g><path class="foreground" aria-hidden="true" d="" pointer-events="none" display="none"/></g></g><g class="mark-group role-scope layer_0_layer_0_pathgroup" role="graphics-object" aria-roledescription="group mark container"><g transform="translate(0,0)"><path class="background" aria-hidden="true" d="M0,0h600v400h-600Z"/><g><g class="mark-area role-mark layer_0_layer_0_marks" clip-path="url(#clip1)" role="graphics-object" aria-roledescription="area mark container"><path aria-label="Number of environment steps: 200.38k; Success rate: 0.0796666666667; upper_Success rate: 0.120666666667; Network widths: Actor - 1024, Critic - 1024; Ci1 of Success rate: 0.120666666667; Ci0 of Success rate: 0.0796666666667; Mean of Success rate: 0.101666666667" role="graphics-symbol" aria-roledescription="errorband" d="M3.069,416.833C5.104,402.056,7.138,386.778,9.172,371.084C11.207,355.39,13.241,339.281,15.276,329.892C17.31,320.504,19.344,317.838,21.379,308.781C23.413,299.725,25.448,284.279,27.482,274.306C29.517,264.333,31.551,259.833,33.585,252.944C35.62,246.056,37.654,236.778,39.689,231.111C41.723,225.444,43.757,223.389,45.792,217.167C47.826,210.944,49.861,200.556,51.895,191.25C53.93,181.944,55.964,173.722,57.998,169.778C60.033,165.833,62.067,166.167,64.102,164.306C66.136,162.444,68.17,158.389,70.205,154.917C72.239,151.444,74.274,148.556,76.308,145.083C78.343,141.611,80.377,137.556,82.411,135.056C84.446,132.556,86.48,131.611,88.515,132.386C90.549,133.16,92.583,135.653,94.618,135.637C96.652,135.621,98.687,133.096,100.721,131.378C102.756,129.659,104.79,128.746,106.824,127.845C108.859,126.944,110.893,126.056,112.928,126.417C114.962,126.778,116.996,128.389,119.031,129.056C121.065,129.722,123.1,129.444,125.134,129.222C127.169,129,129.203,128.833,131.237,128.389C133.272,127.944,135.306,127.222,137.341,125.806C139.375,124.389,141.409,122.278,143.444,120.917C145.478,119.556,147.513,118.944,149.547,117.944C151.582,116.944,153.616,115.556,155.65,114.167C157.685,112.779,159.719,111.392,161.754,109.948C163.788,108.504,165.822,107.004,167.857,105.615C169.891,104.225,171.926,102.946,173.96,102.334C175.995,101.722,178.029,101.778,180.063,101.571C182.098,101.365,184.132,100.897,186.167,100.98C188.201,101.063,190.235,101.698,192.27,100.349C194.304,99,196.339,95.667,198.373,93.667C200.408,91.668,202.442,91.003,204.476,89.699C206.511,88.396,208.545,86.454,210.58,85.455C212.614,84.456,214.648,84.399,216.683,84.647C218.717,84.894,220.752,85.447,222.786,83.835C224.821,82.222,226.855,78.444,228.889,76.695C230.924,74.945,232.958,75.224,234.993,74.447C237.027,73.669,239.061,71.834,241.096,71.723C243.13,71.611,245.165,73.222,247.199,74C249.234,74.778,251.268,74.722,253.302,73.822C255.337,72.922,257.371,71.177,259.406,70.177C261.44,69.177,263.474,68.922,265.509,69.1C267.543,69.279,269.578,69.892,271.612,69.808C273.646,69.725,275.681,68.946,277.715,69.473C279.75,70,281.784,71.833,283.819,71.591C285.853,71.349,287.887,69.032,289.922,68.587C291.956,68.143,293.991,69.571,296.025,70.258C298.059,70.944,300.094,70.889,302.128,70.556C304.163,70.222,306.197,69.611,308.232,69.667C310.266,69.722,312.3,70.444,314.335,70.472C316.369,70.5,318.404,69.833,320.438,69.473C322.472,69.113,324.507,69.058,326.541,69.058C328.576,69.058,330.61,69.113,332.645,69.056C334.679,69,336.713,68.833,338.748,68.861C340.782,68.889,342.817,69.111,344.851,68.806C346.885,68.501,348.92,67.669,350.954,67.892C352.989,68.114,355.023,69.39,357.058,69.834C359.092,70.278,361.126,69.889,363.161,69.528C365.195,69.167,367.23,68.833,369.264,68.611C371.298,68.389,373.333,68.278,375.367,68.242C377.402,68.206,379.436,68.246,381.471,68.746C383.505,69.246,385.539,70.206,387.574,70.02C389.608,69.833,391.643,68.5,393.677,67.889C395.711,67.278,397.746,67.389,399.78,68.75C401.815,70.111,403.849,72.722,405.884,73.806C407.918,74.889,409.952,74.444,411.987,74.084C414.021,73.724,416.056,73.447,418.09,73.003C420.124,72.558,422.159,71.946,424.193,70.806C426.228,69.667,428.262,68,430.297,68.468C432.331,68.937,434.365,71.54,436.4,71.873C438.434,72.206,440.469,70.27,442.503,69.357C444.537,68.444,446.572,68.556,448.606,69.167C450.641,69.778,452.675,70.889,454.71,70.917C456.744,70.944,458.778,69.889,460.813,68.694C462.847,67.5,464.882,66.167,466.916,65.722C468.95,65.278,470.985,65.722,473.019,65.861C475.054,66,477.088,65.833,479.123,66.333C481.157,66.833,483.191,68,485.226,69.028C487.26,70.056,489.295,70.944,491.329,71.278C493.363,71.611,495.398,71.389,497.432,70.75C499.467,70.111,501.501,69.056,503.536,68.778C505.57,68.5,507.604,69,509.639,69C511.673,69,513.708,68.5,515.742,68.083C517.776,67.667,519.811,67.333,521.845,67.583C523.88,67.833,525.914,68.667,527.949,68.667C529.983,68.667,532.017,67.833,534.052,67.806C536.086,67.779,538.121,68.558,540.155,68.614C542.189,68.669,544.224,68.001,546.258,67.723C548.293,67.444,550.327,67.556,552.362,67.917C554.396,68.278,556.43,68.889,558.465,69.5C560.499,70.111,562.534,70.722,564.568,71.111C566.602,71.5,568.637,71.667,570.671,71.361C572.706,71.056,574.74,70.278,576.775,70.528C578.809,70.778,580.843,72.056,582.878,72.306C584.912,72.556,586.947,71.778,588.981,71.334L588.981,62.277C586.947,63.165,584.912,63.997,582.878,63.997C580.843,63.997,578.809,63.165,576.775,62.472C574.74,61.778,572.706,61.222,570.671,61.139C568.637,61.056,566.602,61.444,564.568,61.5C562.534,61.556,560.499,61.278,558.465,61.25C556.43,61.222,554.396,61.444,552.362,61.306C550.327,61.167,548.293,60.667,546.258,60.444C544.224,60.222,542.189,60.278,540.155,61.028C538.121,61.778,536.086,63.222,534.052,63.944C532.017,64.667,529.983,64.667,527.949,64.361C525.914,64.056,523.88,63.444,521.845,62.861C519.811,62.278,517.776,61.722,515.742,61.806C513.708,61.889,511.673,62.611,509.639,63.083C507.604,63.556,505.57,63.778,503.536,64.306C501.501,64.833,499.467,65.667,497.432,66.111C495.398,66.556,493.363,66.611,491.329,65.556C489.295,64.5,487.26,62.333,485.226,61.333C483.191,60.333,481.157,60.5,479.123,60.556C477.088,60.611,475.054,60.556,473.019,60.667C470.985,60.778,468.95,61.056,466.916,61.056C464.882,61.056,462.847,60.778,460.813,61.361C458.778,61.944,456.744,63.389,454.71,64.222C452.675,65.056,450.641,65.278,448.606,64.472C446.572,63.667,444.537,61.833,442.503,61.702C440.469,61.571,438.434,63.143,436.4,63.337C434.365,63.53,432.331,62.346,430.297,62.005C428.262,61.664,426.228,62.165,424.193,62.805C422.159,63.444,420.124,64.222,418.09,64.206C416.056,64.19,414.021,63.381,411.987,63.548C409.952,63.714,407.918,64.857,405.884,64.595C403.849,64.333,401.815,62.667,399.78,62.111C397.746,61.556,395.711,62.111,393.677,62.722C391.643,63.333,389.608,64,387.574,64.27C385.539,64.54,383.505,64.413,381.471,64.274C379.436,64.135,377.402,63.984,375.367,63.964C373.333,63.944,371.298,64.056,369.264,63.583C367.23,63.111,365.195,62.056,363.161,61.556C361.126,61.056,359.092,61.111,357.058,60.806C355.023,60.5,352.989,59.833,350.954,60.139C348.92,60.444,346.885,61.722,344.851,61.361C342.817,61,340.782,59,338.748,58.667C336.713,58.333,334.679,59.667,332.645,60.278C330.61,60.889,328.576,60.778,326.541,61.528C324.507,62.278,322.472,63.889,320.438,64.667C318.404,65.444,316.369,65.389,314.335,64.472C312.3,63.556,310.266,61.778,308.232,61.389C306.197,61,304.163,62,302.128,62.332C300.094,62.664,298.059,62.328,296.025,62.328C293.991,62.328,291.956,62.664,289.922,62.971C287.887,63.278,285.853,63.556,283.819,62.639C281.784,61.722,279.75,59.611,277.715,59.139C275.681,58.667,273.646,59.833,271.612,60.611C269.578,61.389,267.543,61.778,265.509,62.302C263.474,62.825,261.44,63.484,259.406,63.984C257.371,64.484,255.337,64.825,253.302,65.024C251.268,65.222,249.234,65.278,247.199,64.869C245.165,64.46,243.13,63.587,241.096,63.615C239.061,63.642,237.027,64.569,234.993,65.45C232.958,66.331,230.924,67.166,228.889,68.165C226.855,69.165,224.821,70.331,222.786,69.997C220.752,69.664,218.717,67.832,216.683,67.36C214.648,66.889,212.614,67.778,210.58,68.611C208.545,69.444,206.511,70.222,204.476,70.5C202.442,70.778,200.408,70.556,198.373,72.499C196.339,74.443,194.304,78.553,192.27,79.521C190.235,80.489,188.201,78.316,186.167,76.706C184.132,75.095,182.098,74.048,180.063,73.996C178.029,73.944,175.995,74.889,173.96,75.778C171.926,76.667,169.891,77.5,167.857,80.528C165.822,83.556,163.788,88.778,161.754,90.833C159.719,92.889,157.685,91.778,155.65,94.083C153.616,96.389,151.582,102.111,149.547,105.111C147.513,108.111,145.478,108.389,143.444,108.861C141.409,109.333,139.375,110,137.341,111.444C135.306,112.889,133.272,115.111,131.237,116.25C129.203,117.389,127.169,117.444,125.134,117.889C123.1,118.333,121.065,119.167,119.031,118.722C116.996,118.278,114.962,116.556,112.928,116.805C110.893,117.054,108.859,119.275,106.824,120.66C104.79,122.045,102.756,122.594,100.721,123.273C98.687,123.952,96.652,124.762,94.618,125.294C92.583,125.825,90.549,126.079,88.515,126.429C86.48,126.778,84.446,127.222,82.411,129.306C80.377,131.389,78.343,135.111,76.308,138.278C74.274,141.444,72.239,144.056,70.205,146.194C68.17,148.333,66.136,150,64.102,149.444C62.067,148.889,60.033,146.111,57.998,148.472C55.964,150.832,53.93,158.331,51.895,166.163C49.861,173.996,47.826,182.163,45.792,189.024C43.757,195.886,41.723,201.443,39.689,206.277C37.654,211.111,35.62,215.222,33.585,220.305C31.551,225.388,29.517,231.442,27.482,241.409C25.448,251.376,23.413,265.257,21.379,276.063C19.344,286.869,17.31,294.601,15.276,304.634C13.241,314.667,11.207,327,9.172,342.332C7.138,357.664,5.104,375.994,3.069,392.717Z" fill="#FF4B33" opacity="0.3"/></g></g><path class="foreground" aria-hidden="true" d="" display="none"/></g><g transform="translate(0,0)"><path class="background" aria-hidden="true" d="M0,0h600v400h-600Z"/><g><g class="mark-area role-mark layer_0_layer_0_marks" clip-path="url(#clip2)" role="graphics-object" aria-roledescription="area mark container"><path aria-label="Number of environment steps: 200.38k; Success rate: 0.103; upper_Success rate: 0.177; Network widths: Critic - 1024; Ci1 of Success rate: 0.177; Ci0 of Success rate: 0.103; Mean of Success rate: 0.141" role="graphics-symbol" aria-roledescription="errorband" d="M3.069,396.667C5.104,376.667,7.138,352.583,9.172,339.292C11.207,326,13.241,323.5,15.276,315.583C17.31,307.667,19.344,294.333,21.379,282.417C23.413,270.5,25.448,260,27.482,250.667C29.517,241.333,31.551,233.167,33.585,228.667C35.62,224.167,37.654,223.333,39.689,218.75C41.723,214.167,43.757,205.833,45.792,198.75C47.826,191.667,49.861,185.833,51.895,178.917C53.93,172,55.964,164,57.998,158.833C60.033,153.667,62.067,151.333,64.102,150.542C66.136,149.75,68.17,150.5,70.205,151.542C72.239,152.583,74.274,153.917,76.308,152.375C78.343,150.833,80.377,146.417,82.411,143.75C84.446,141.083,86.48,140.167,88.515,139.042C90.549,137.917,92.583,136.583,94.618,135.583C96.652,134.583,98.687,133.917,100.721,133.5C102.756,133.083,104.79,132.917,106.824,133.167C108.859,133.417,110.893,134.083,112.928,133.292C114.962,132.5,116.996,130.25,119.031,129.042C121.065,127.833,123.1,127.667,125.134,126.083C127.169,124.5,129.203,121.5,131.237,118.55C133.272,115.6,135.306,112.7,137.341,113.7C139.375,114.7,141.409,119.6,143.444,119.133C145.478,118.667,147.513,112.833,149.547,110.875C151.582,108.917,153.616,110.833,155.65,110.625C157.685,110.417,159.719,108.083,161.754,107.917C163.788,107.75,165.822,109.75,167.857,110.266C169.891,110.781,171.926,109.813,173.96,109.021C175.995,108.229,178.029,107.615,180.063,106.974C182.098,106.333,184.132,105.667,186.167,103.333C188.201,101,190.235,97,192.27,95.75C194.304,94.5,196.339,96,198.373,96.417C200.408,96.833,202.442,96.167,204.476,94.167C206.511,92.167,208.545,88.833,210.58,88.458C212.614,88.083,214.648,90.667,216.683,89.5C218.717,88.333,220.752,83.417,222.786,79.292C224.821,75.167,226.855,71.833,228.889,70.583C230.924,69.333,232.958,70.167,234.993,69.667C237.027,69.167,239.061,67.333,241.096,66.208C243.13,65.083,245.165,64.667,247.199,64C249.234,63.333,251.268,62.417,253.302,62.575C255.337,62.733,257.371,63.967,259.406,64.217C261.44,64.467,263.474,63.733,265.509,64.617C267.543,65.5,269.578,68,271.612,67.833C273.646,67.667,275.681,64.833,277.715,63.667C279.75,62.5,281.784,63,283.819,63.25C285.853,63.5,287.887,63.5,289.922,63.875C291.956,64.25,293.991,65,296.025,64.95C298.059,64.9,300.094,64.05,302.128,63.258C304.163,62.467,306.197,61.733,308.232,62.45C310.266,63.167,312.3,65.333,314.335,65.833C316.369,66.333,318.404,65.167,320.438,64.5C322.472,63.833,324.507,63.667,326.541,63.5C328.576,63.333,330.61,63.167,332.645,63.75C334.679,64.333,336.713,65.667,338.748,66.167C340.782,66.667,342.817,66.333,344.851,65.042C346.885,63.75,348.92,61.5,350.954,61.083C352.989,60.667,355.023,62.083,357.058,62.125C359.092,62.167,361.126,60.833,363.161,60.917C365.195,61,367.23,62.5,369.264,63.75C371.298,65,373.333,66,375.367,65.251C377.402,64.502,379.436,62.004,381.471,61.254C383.505,60.504,385.539,61.502,387.574,62.126C389.608,62.75,391.643,63,393.677,62.375C395.711,61.75,397.746,60.25,399.78,59.292C401.815,58.333,403.849,57.917,405.884,58.858C407.918,59.8,409.952,62.1,411.987,62.983C414.021,63.867,416.056,63.333,418.09,62.85C420.124,62.367,422.159,61.933,424.193,62.092C426.228,62.25,428.262,63,430.297,63C432.331,63,434.365,62.25,436.4,61.708C438.434,61.167,440.469,60.833,442.503,61.083C444.537,61.333,446.572,62.167,448.606,62.167C450.641,62.167,452.675,61.333,454.71,60.667C456.744,60,458.778,59.5,460.813,59.958C462.847,60.417,464.882,61.833,466.916,62.042C468.95,62.25,470.985,61.25,473.019,60.542C475.054,59.833,477.088,59.417,479.123,59.625C481.157,59.833,483.191,60.667,485.226,60.167C487.26,59.667,489.295,57.833,491.329,57.833C493.363,57.833,495.398,59.667,497.432,60.917C499.467,62.167,501.501,62.833,503.536,63.417C505.57,64,507.604,64.5,509.639,63.75C511.673,63,513.708,61,515.742,60.25C517.776,59.5,519.811,60,521.845,60.167C523.88,60.333,525.914,60.167,527.949,60.25C529.983,60.333,532.017,60.667,534.052,60.625C536.086,60.583,538.121,60.167,540.155,60.292C542.189,60.417,544.224,61.083,546.258,61.417C548.293,61.75,550.327,61.75,552.362,61.75C554.396,61.75,556.43,61.75,558.465,62.083C560.499,62.417,562.534,63.083,564.568,63.492C566.602,63.9,568.637,64.05,570.671,64.008C572.706,63.967,574.74,63.733,576.775,63.533C578.809,63.333,580.843,63.167,582.878,63.05C584.912,62.933,586.947,62.867,588.981,62.267L588.981,57.533C586.947,57.667,584.912,57.333,582.878,57.667C580.843,58,578.809,59,576.775,59.2C574.74,59.4,572.706,58.8,570.671,57.8C568.637,56.8,566.602,55.4,564.568,54.992C562.534,54.583,560.499,55.167,558.465,55.708C556.43,56.25,554.396,56.75,552.362,56.208C550.327,55.667,548.293,54.083,546.258,53.875C544.224,53.667,542.189,54.833,540.155,55.917C538.121,57,536.086,58,534.052,58.292C532.017,58.583,529.983,58.167,527.949,58.167C525.914,58.167,523.88,58.583,521.845,58.167C519.811,57.75,517.776,56.5,515.742,55.5C513.708,54.5,511.673,53.75,509.639,54.292C507.604,54.833,505.57,56.667,503.536,56.833C501.501,57,499.467,55.5,497.432,54.542C495.398,53.583,493.363,53.167,491.329,53.333C489.295,53.5,487.26,54.25,485.226,54.292C483.191,54.333,481.157,53.667,479.123,53.542C477.088,53.417,475.054,53.833,473.019,54.292C470.985,54.75,468.95,55.25,466.916,55.792C464.882,56.333,462.847,56.917,460.813,56.875C458.778,56.833,456.744,56.167,454.71,55.833C452.675,55.5,450.641,55.5,448.606,55.75C446.572,56,444.537,56.5,442.503,56.208C440.469,55.917,438.434,54.833,436.4,55.25C434.365,55.667,432.331,57.583,430.297,58.042C428.262,58.5,426.228,57.5,424.193,57.183C422.159,56.867,420.124,57.233,418.09,57.183C416.056,57.132,414.021,56.663,411.987,56.063C409.952,55.463,407.918,54.732,405.884,54.408C403.849,54.083,401.815,54.167,399.78,54.875C397.746,55.583,395.711,56.917,393.677,57.542C391.643,58.167,389.608,58.083,387.574,57.832C385.539,57.581,383.505,57.162,381.471,57.746C379.436,58.329,377.402,59.915,375.367,60.541C373.333,61.167,371.298,60.833,369.264,59.667C367.23,58.5,365.195,56.5,363.161,56.667C361.126,56.833,359.092,59.167,357.058,59.083C355.023,59,352.989,56.5,350.954,56.208C348.92,55.917,346.885,57.833,344.851,58.583C342.817,59.333,340.782,58.917,338.748,58.014C336.713,57.111,334.679,55.722,332.645,56.306C330.61,56.889,328.576,59.444,326.541,60.181C324.507,60.917,322.472,59.833,320.438,59.625C318.404,59.417,316.369,60.083,314.335,59.958C312.3,59.833,310.266,58.917,308.232,58.092C306.197,57.267,304.163,56.533,302.128,56.075C300.094,55.617,298.059,55.433,296.025,55.758C293.991,56.083,291.956,56.917,289.922,57.458C287.887,58,285.853,58.25,283.819,58.708C281.784,59.167,279.75,59.833,277.715,60.333C275.681,60.833,273.646,61.167,271.612,61.083C269.578,61,267.543,60.5,265.509,60.183C263.474,59.867,261.44,59.733,259.406,58.858C257.371,57.983,255.337,56.367,253.302,56.183C251.268,56,249.234,57.25,247.199,58C245.165,58.75,243.13,59,241.096,60.583C239.061,62.167,237.027,65.083,234.993,64.375C232.958,63.667,230.924,59.333,228.889,58.208C226.855,57.083,224.821,59.167,222.786,60.583C220.752,62,218.717,62.75,216.683,62.208C214.648,61.667,212.614,59.833,210.58,59.458C208.545,59.083,206.511,60.167,204.476,61.917C202.442,63.667,200.408,66.083,198.373,66.875C196.339,67.667,194.304,66.833,192.27,65.832C190.235,64.831,188.201,63.662,186.167,62.912C184.132,62.163,182.098,61.831,180.063,63.082C178.029,64.333,175.995,67.167,173.96,67.792C171.926,68.417,169.891,66.833,167.857,65.792C165.822,64.75,163.788,64.25,161.754,65.958C159.719,67.667,157.685,71.583,155.65,72.958C153.616,74.333,151.582,73.167,149.547,74.083C147.513,75,145.478,78,143.444,79.967C141.409,81.933,139.375,82.867,137.341,84.823C135.306,86.779,133.272,89.758,131.237,93.583C129.203,97.408,127.169,102.079,125.134,106.706C123.1,111.333,121.065,115.917,119.031,117.917C116.996,119.917,114.962,119.333,112.928,120.75C110.893,122.167,108.859,125.583,106.824,126.75C104.79,127.917,102.756,126.833,100.721,126.375C98.687,125.917,96.652,126.083,94.618,125.958C92.583,125.833,90.549,125.417,88.515,126.458C86.48,127.5,84.446,130,82.411,132.327C80.377,134.654,78.343,136.808,76.308,138.308C74.274,139.808,72.239,140.654,70.205,140.702C68.17,140.75,66.136,140,64.102,140C62.067,140,60.033,140.75,57.998,143.875C55.964,147,53.93,152.5,51.895,155.833C49.861,159.167,47.826,160.333,45.792,167.625C43.757,174.917,41.723,188.333,39.689,195.333C37.654,202.333,35.62,202.917,33.585,206.958C31.551,211,29.517,218.5,27.482,225.917C25.448,233.333,23.413,240.667,21.379,251.75C19.344,262.833,17.31,277.667,15.276,288.5C13.241,299.333,11.207,306.167,9.172,317.833C7.138,329.5,5.104,346,3.069,362.417Z" fill="#B22B24" opacity="0.3"/></g></g><path class="foreground" aria-hidden="true" d="" display="none"/></g><g transform="translate(0,0)"><path class="background" aria-hidden="true" d="M0,0h600v400h-600Z"/><g><g class="mark-area role-mark layer_0_layer_0_marks" clip-path="url(#clip3)" role="graphics-object" aria-roledescription="area mark container"><path aria-label="Number of environment steps: 200.38k; Success rate: 0.0446666666667; upper_Success rate: 0.0946666666667; Network widths: Actor - 200, Critic - 1024; Ci1 of Success rate: 0.0946666666667; Ci0 of Success rate: 0.0446666666667; Mean of Success rate: 0.0663333333333" role="graphics-symbol" aria-roledescription="errorband" d="M3.069,419.613C5.104,407.114,7.138,404.894,9.172,395.506C11.207,386.117,13.241,369.558,15.276,355.875C17.31,342.192,19.344,331.383,21.379,322.494C23.413,313.606,25.448,306.636,27.482,297.485C29.517,288.333,31.551,277,33.585,267.722C35.62,258.444,37.654,251.222,39.689,242.75C41.723,234.278,43.757,224.556,45.792,214.604C47.826,204.652,49.861,194.471,51.895,187.944C53.93,181.418,55.964,178.546,57.998,175.359C60.033,172.172,62.067,168.669,64.102,166.085C66.136,163.5,68.17,161.833,70.205,159.306C72.239,156.778,74.274,153.389,76.308,150.778C78.343,148.168,80.377,146.336,82.411,144.975C84.446,143.614,86.48,142.724,88.515,141.806C90.549,140.889,92.583,139.944,94.618,139.25C96.652,138.556,98.687,138.111,100.721,138.278C102.756,138.444,104.79,139.222,106.824,139.028C108.859,138.833,110.893,137.667,112.928,135.833C114.962,134,116.996,131.5,119.031,129.944C121.065,128.389,123.1,127.778,125.134,127.418C127.169,127.058,129.203,126.95,131.237,126.034C133.272,125.118,135.306,123.394,137.341,123.06C139.375,122.725,141.409,123.779,143.444,125.168C145.478,126.557,147.513,128.281,149.547,127.447C151.582,126.614,153.616,123.224,155.65,122.084C157.685,120.944,159.719,122.056,161.754,122.774C163.788,123.492,165.822,123.817,167.857,123.484C169.891,123.151,171.926,122.159,173.96,121.024C175.995,119.889,178.029,118.611,180.063,118.417C182.098,118.222,184.132,119.111,186.167,119.751C188.201,120.39,190.235,120.781,192.27,119.892C194.304,119.003,196.339,116.835,198.373,115.308C200.408,113.782,202.442,112.897,204.476,111.536C206.511,110.175,208.545,108.338,210.58,107.781C212.614,107.225,214.648,107.95,216.683,108.394C218.717,108.839,220.752,109.003,222.786,109.085C224.821,109.168,226.855,109.169,228.889,109.595C230.924,110.021,232.958,110.871,234.993,110.315C237.027,109.759,239.061,107.796,241.096,105.842C243.13,103.889,245.165,101.944,247.199,101.611C249.234,101.278,251.268,102.556,253.302,102.722C255.337,102.889,257.371,101.944,259.406,100.917C261.44,99.889,263.474,98.778,265.509,98.224C267.543,97.671,269.578,97.675,271.612,96.092C273.646,94.508,275.681,91.338,277.715,90.28C279.75,89.222,281.784,90.278,283.819,89.417C285.853,88.556,287.887,85.778,289.922,85.25C291.956,84.722,293.991,86.444,296.025,86.361C298.059,86.278,300.094,84.389,302.128,81.722C304.163,79.056,306.197,75.611,308.232,73.694C310.266,71.778,312.3,71.389,314.335,72.111C316.369,72.833,318.404,74.667,320.438,75.833C322.472,77,324.507,77.5,326.541,77.167C328.576,76.833,330.61,75.667,332.645,74.889C334.679,74.111,336.713,73.722,338.748,72.694C340.782,71.667,342.817,70,344.851,69.667C346.885,69.333,348.92,70.333,350.954,69.653C352.989,68.972,355.023,66.611,357.058,66.579C359.092,66.548,361.126,68.845,363.161,70.331C365.195,71.817,367.23,72.492,369.264,71.885C371.298,71.278,373.333,69.389,375.367,68.361C377.402,67.333,379.436,67.167,381.471,67.111C383.505,67.056,385.539,67.111,387.574,67C389.608,66.889,391.643,66.611,393.677,66.611C395.711,66.611,397.746,66.889,399.78,66.556C401.815,66.222,403.849,65.278,405.884,64.861C407.918,64.444,409.952,64.556,411.987,63.929C414.021,63.302,416.056,61.937,418.09,62.048C420.124,62.159,422.159,63.746,424.193,65.123C426.228,66.5,428.262,67.667,430.297,67.25C432.331,66.833,434.365,64.833,436.4,64.528C438.434,64.222,440.469,65.611,442.503,65.496C444.537,65.381,446.572,63.762,448.606,63.846C450.641,63.93,452.675,65.717,454.71,66.693C456.744,67.669,458.778,67.835,460.813,67.917C462.847,68,464.882,68,466.916,67.972C468.95,67.944,470.985,67.889,473.019,67.667C475.054,67.444,477.088,67.056,479.123,67.333C481.157,67.611,483.191,68.556,485.226,68.222C487.26,67.889,489.295,66.278,491.329,66.306C493.363,66.333,495.398,68,497.432,68.417C499.467,68.833,501.501,68,503.536,67.817C505.57,67.635,507.604,68.103,509.639,68.464C511.673,68.825,513.708,69.079,515.742,69.817C517.776,70.556,519.811,71.778,521.845,71.639C523.88,71.5,525.914,70,527.949,69.75C529.983,69.5,532.017,70.5,534.052,70.709C536.086,70.918,538.121,70.335,540.155,69.03C542.189,67.724,544.224,65.695,546.258,64.792C548.293,63.889,550.327,64.111,552.362,65.111C554.396,66.111,556.43,67.889,558.465,68.083C560.499,68.278,562.534,66.889,564.568,66.806C566.602,66.722,568.637,67.944,570.671,67.889C572.706,67.833,574.74,66.5,576.775,65.833C578.809,65.167,580.843,65.167,582.878,65.389C584.912,65.611,586.947,66.056,588.981,66.111L588.981,59.886C586.947,60.108,584.912,60.554,582.878,60.999C580.843,61.444,578.809,61.889,576.775,62.166C574.74,62.443,572.706,62.553,570.671,61.885C568.637,61.218,566.602,59.774,564.568,59.858C562.534,59.942,560.499,61.554,558.465,61.776C556.43,61.999,554.396,60.831,552.362,60.442C550.327,60.053,548.293,60.443,546.258,60.602C544.224,60.762,542.189,60.69,540.155,61.051C538.121,61.411,536.086,62.203,534.052,62.1C532.017,61.997,529.983,60.999,527.949,61.523C525.914,62.048,523.88,64.095,521.845,64.345C519.811,64.595,517.776,63.048,515.742,62.19C513.708,61.333,511.673,61.167,509.639,61.167C507.604,61.167,505.57,61.333,503.536,61.083C501.501,60.833,499.467,60.167,497.432,59.694C495.398,59.222,493.363,58.944,491.329,59.056C489.295,59.167,487.26,59.667,485.226,60.194C483.191,60.722,481.157,61.278,479.123,61.75C477.088,62.222,475.054,62.611,473.019,62.833C470.985,63.056,468.95,63.111,466.916,62.667C464.882,62.222,462.847,61.278,460.813,60.889C458.778,60.5,456.744,60.667,454.71,59.778C452.675,58.889,450.641,56.944,448.606,56.778C446.572,56.611,444.537,58.222,442.503,58.861C440.469,59.5,438.434,59.167,436.4,59.083C434.365,59,432.331,59.167,430.297,58.917C428.262,58.667,426.228,58,424.193,56.778C422.159,55.556,420.124,53.778,418.09,54.056C416.056,54.333,414.021,56.667,411.987,57.694C409.952,58.721,407.918,58.442,405.884,58.441C403.849,58.44,401.815,58.718,399.78,58.885C397.746,59.053,395.711,59.11,393.677,59.36C391.643,59.611,389.608,60.056,387.574,60.694C385.539,61.333,383.505,62.167,381.471,62.472C379.436,62.778,377.402,62.556,375.367,62.972C373.333,63.389,371.298,64.444,369.264,64.175C367.23,63.905,365.195,62.31,363.161,61.122C361.126,59.935,359.092,59.155,357.058,59.452C355.023,59.75,352.989,61.125,350.954,61.951C348.92,62.778,346.885,63.056,344.851,63.278C342.817,63.5,340.782,63.667,338.748,63.889C336.713,64.111,334.679,64.389,332.645,64.306C330.61,64.222,328.576,63.778,326.541,63.917C324.507,64.056,322.472,64.778,320.438,64.75C318.404,64.722,316.369,63.944,314.335,63.917C312.3,63.889,310.266,64.611,308.232,64.917C306.197,65.222,304.163,65.111,302.128,65.278C300.094,65.444,298.059,65.889,296.025,66.36C293.991,66.832,291.956,67.331,289.922,68.719C287.887,70.108,285.853,72.387,283.819,72.055C281.784,71.722,279.75,68.778,277.715,68.278C275.681,67.778,273.646,69.722,271.612,69.917C269.578,70.111,267.543,68.556,265.509,68.028C263.474,67.5,261.44,68,259.406,68.583C257.371,69.167,255.337,69.833,253.302,70.722C251.268,71.611,249.234,72.722,247.199,74.167C245.165,75.611,243.13,77.389,241.096,78.534C239.061,79.679,237.027,80.191,234.993,79.552C232.958,78.913,230.924,77.123,228.889,75.255C226.855,73.388,224.821,71.442,222.786,71.608C220.752,71.775,218.717,74.054,216.683,74.972C214.648,75.889,212.614,75.444,210.58,76.5C208.545,77.556,206.511,80.111,204.476,82.111C202.442,84.111,200.408,85.556,198.373,87.111C196.339,88.667,194.304,90.333,192.27,90.028C190.235,89.722,188.201,87.444,186.167,86.139C184.132,84.833,182.098,84.5,180.063,86.056C178.029,87.611,175.995,91.056,173.96,93.026C171.926,94.996,169.891,95.493,167.857,95.576C165.822,95.66,163.788,95.33,161.754,96.082C159.719,96.833,157.685,98.667,155.65,101.166C153.616,103.665,151.582,106.831,149.547,107.747C147.513,108.664,145.478,107.332,143.444,108.083C141.409,108.833,139.375,111.667,137.341,113.388C135.306,115.11,133.272,115.719,131.237,116.942C129.203,118.164,127.169,119.999,125.134,121.444C123.1,122.889,121.065,123.944,119.031,125.333C116.996,126.722,114.962,128.444,112.928,129.333C110.893,130.222,108.859,130.278,106.824,130.778C104.79,131.278,102.756,132.222,100.721,132.583C98.687,132.944,96.652,132.722,94.618,132.778C92.583,132.833,90.549,133.167,88.515,134.082C86.48,134.997,84.446,136.494,82.411,137.856C80.377,139.217,78.343,140.442,76.308,141.915C74.274,143.389,72.239,145.111,70.205,146.222C68.17,147.333,66.136,147.833,64.102,149.389C62.067,150.944,60.033,153.556,57.998,154.69C55.964,155.825,53.93,155.484,51.895,159.344C49.861,163.204,47.826,171.264,45.792,181.768C43.757,192.271,41.723,205.217,39.689,213.44C37.654,221.664,35.62,225.165,33.585,233.999C31.551,242.833,29.517,257,27.482,269.508C25.448,282.016,23.413,292.865,21.379,304.558C19.344,316.251,17.31,328.788,15.276,339.391C13.241,349.994,11.207,358.664,9.172,368.082C7.138,377.5,5.104,387.667,3.069,401.889Z" fill="#7A1F18" opacity="0.3"/></g></g><path class="foreground" aria-hidden="true" d="" display="none"/></g><g transform="translate(0,0)"><path class="background" aria-hidden="true" d="M0,0h600v400h-600Z"/><g><g class="mark-area role-mark layer_0_layer_0_marks" clip-path="url(#clip4)" role="graphics-object" aria-roledescription="area mark container"><path aria-label="Number of environment steps: 200.38k; Success rate: 0.089; upper_Success rate: 0.1205; Network widths: Actor - 1024; Ci1 of Success rate: 0.1205; Ci0 of Success rate: 0.089; Mean of Success rate: 0.102" role="graphics-symbol" aria-roledescription="errorband" d="M3.069,427.083C5.104,417.167,7.138,406.583,9.172,398.375C11.207,390.167,13.241,384.333,15.276,375.542C17.31,366.75,19.344,355,21.379,345.75C23.413,336.5,25.448,329.75,27.482,323.042C29.517,316.333,31.551,309.667,33.585,305.292C35.62,300.917,37.654,298.833,39.689,293.875C41.723,288.917,43.757,281.083,45.792,274.188C47.826,267.292,49.861,261.333,51.895,256.708C53.93,252.083,55.964,248.792,57.998,244.604C60.033,240.417,62.067,235.333,64.102,231.333C66.136,227.333,68.17,224.417,70.205,222.375C72.239,220.333,74.274,219.167,76.308,215.583C78.343,212,80.377,206,82.411,202.333C84.446,198.667,86.48,197.333,88.515,196.5C90.549,195.667,92.583,195.333,94.618,192.75C96.652,190.167,98.687,185.333,100.721,183.083C102.756,180.833,104.79,181.167,106.824,181.292C108.859,181.417,110.893,181.333,112.928,181.67C114.962,182.006,116.996,182.763,119.031,181.156C121.065,179.549,123.1,175.58,125.134,173.826C127.169,172.073,129.203,172.537,131.237,172.602C133.272,172.667,135.306,172.333,137.341,170.458C139.375,168.583,141.409,165.167,143.444,163.625C145.478,162.083,147.513,162.417,149.547,163.125C151.582,163.833,153.616,164.917,155.65,161.583C157.685,158.25,159.719,150.5,161.754,146.755C163.788,143.01,165.822,143.271,167.857,143.687C169.891,144.104,171.926,144.677,173.96,144.505C175.995,144.333,178.029,143.417,180.063,141.842C182.098,140.267,184.132,138.033,186.167,136.45C188.201,134.867,190.235,133.933,192.27,134.55C194.304,135.167,196.339,137.333,198.373,137.417C200.408,137.5,202.442,135.5,204.476,134.5C206.511,133.5,208.545,133.5,210.58,132.75C212.614,132,214.648,130.5,216.683,130.167C218.717,129.833,220.752,130.667,222.786,130.833C224.821,131,226.855,130.5,228.889,130.167C230.924,129.833,232.958,129.667,234.993,128.917C237.027,128.167,239.061,126.833,241.096,126.833C243.13,126.833,245.165,128.167,247.199,128.208C249.234,128.25,251.268,127,253.302,127.042C255.337,127.083,257.371,128.417,259.406,128.25C261.44,128.083,263.474,126.417,265.509,125.875C267.543,125.333,269.578,125.917,271.612,127.208C273.646,128.5,275.681,130.5,277.715,130.75C279.75,131,281.784,129.5,283.819,129.25C285.853,129,287.887,130,289.922,130C291.956,130,293.991,129,296.025,127.75C298.059,126.5,300.094,125,302.128,124.917C304.163,124.833,306.197,126.167,308.232,126.25C310.266,126.333,312.3,125.167,314.335,124.333C316.369,123.5,318.404,123,320.438,122.967C322.472,122.933,324.507,123.367,326.541,123.325C328.576,123.283,330.61,122.767,332.645,122.467C334.679,122.167,336.713,122.083,338.748,122.542C340.782,123,342.817,124,344.851,123.833C346.885,123.667,348.92,122.333,350.954,122.167C352.989,122,355.023,123,357.058,122.75C359.092,122.5,361.126,121,363.161,120.417C365.195,119.833,367.23,120.167,369.264,120.667C371.298,121.167,373.333,121.833,375.367,123.625C377.402,125.417,379.436,128.333,381.471,129.125C383.505,129.917,385.539,128.583,387.574,127.292C389.608,126,391.643,124.75,393.677,124.25C395.711,123.75,397.746,124,399.78,124.167C401.815,124.333,403.849,124.417,405.884,124.375C407.918,124.333,409.952,124.167,411.987,124C414.021,123.833,416.056,123.667,418.09,124.5C420.124,125.333,422.159,127.167,424.193,124.875C426.228,122.583,428.262,116.167,430.297,114.083C432.331,112,434.365,114.25,436.4,114.292C438.434,114.333,440.469,112.167,442.503,109.333C444.537,106.5,446.572,103,448.606,102.875C450.641,102.75,452.675,106,454.71,106.333C456.744,106.667,458.778,104.083,460.813,102.542C462.847,101,464.882,100.5,466.916,100.878C468.95,101.256,470.985,102.513,473.019,103.138C475.054,103.763,477.088,103.756,479.123,103.253C481.157,102.75,483.191,101.75,485.226,102.583C487.26,103.417,489.295,106.083,491.329,105.667C493.363,105.25,495.398,101.75,497.432,99.558C499.467,97.367,501.501,96.483,503.536,96.067C505.57,95.65,507.604,95.7,509.639,95.975C511.673,96.25,513.708,96.75,515.742,98.417C517.776,100.083,519.811,102.917,521.845,104.125C523.88,105.333,525.914,104.917,527.949,104.358C529.983,103.8,532.017,103.1,534.052,102.433C536.086,101.767,538.121,101.133,540.155,102.15C542.189,103.167,544.224,105.833,546.258,106.75C548.293,107.667,550.327,106.833,552.362,107.75C554.396,108.667,556.43,111.333,558.465,111C560.499,110.667,562.534,107.333,564.568,105.708C566.602,104.083,568.637,104.167,570.671,103.375C572.706,102.583,574.74,100.917,576.775,99.375C578.809,97.833,580.843,96.417,582.878,94.875C584.912,93.333,586.947,91.667,588.981,92.333L588.981,69.125C586.947,67.333,584.912,67.667,582.878,67.667C580.843,67.667,578.809,67.333,576.775,66.833C574.74,66.333,572.706,65.667,570.671,64.833C568.637,64,566.602,63,564.568,63.917C562.534,64.833,560.499,67.667,558.465,67.5C556.43,67.333,554.396,64.167,552.362,64.042C550.327,63.917,548.293,66.833,546.258,68.583C544.224,70.333,542.189,70.917,540.155,69.658C538.121,68.4,536.086,65.3,534.052,63.883C532.017,62.467,529.983,62.733,527.949,63.367C525.914,64,523.88,65,521.845,64.75C519.811,64.5,517.776,63,515.742,62.583C513.708,62.167,511.673,62.833,509.639,62.85C507.604,62.867,505.57,62.233,503.536,62.483C501.501,62.733,499.467,63.867,497.432,64.017C495.398,64.167,493.363,63.333,491.329,62.083C489.295,60.833,487.26,59.167,485.226,59.208C483.191,59.25,481.157,61,479.123,62.833C477.088,64.667,475.054,66.583,473.019,66.792C470.985,67,468.95,65.5,466.916,65.583C464.882,65.667,462.847,67.333,460.813,68.833C458.778,70.333,456.744,71.667,454.71,71.917C452.675,72.167,450.641,71.333,448.606,70.743C446.572,70.152,444.537,69.804,442.503,72.221C440.469,74.638,438.434,79.819,436.4,79.826C434.365,79.833,432.331,74.667,430.297,75.1C428.262,75.533,426.228,81.567,424.193,83.483C422.159,85.4,420.124,83.2,418.09,83.682C416.056,84.165,414.021,87.329,411.987,88.413C409.952,89.496,407.918,88.498,405.884,87.124C403.849,85.75,401.815,84,399.78,85.027C397.746,86.054,395.711,89.858,393.677,90.525C391.643,91.192,389.608,88.721,387.574,87.985C385.539,87.25,383.505,88.25,381.471,88.75C379.436,89.25,377.402,89.25,375.367,89.375C373.333,89.5,371.298,89.75,369.264,89.708C367.23,89.667,365.195,89.333,363.161,88.79C361.126,88.246,359.092,87.492,357.058,89.7C355.023,91.908,352.989,97.079,350.954,102.373C348.92,107.667,346.885,113.083,344.851,113.75C342.817,114.417,340.782,110.333,338.748,106.75C336.713,103.167,334.679,100.083,332.645,102.208C330.61,104.333,328.576,111.667,326.541,114.375C324.507,117.083,322.472,115.167,320.438,113.167C318.404,111.167,316.369,109.083,314.335,109.208C312.3,109.333,310.266,111.667,308.232,112.667C306.197,113.667,304.163,113.333,302.128,114.083C300.094,114.833,298.059,116.667,296.025,118.375C293.991,120.083,291.956,121.667,289.922,120.833C287.887,120,285.853,116.75,283.819,117.708C281.784,118.667,279.75,123.833,277.715,124.5C275.681,125.167,273.646,121.333,271.612,119.917C269.578,118.5,267.543,119.5,265.509,119.792C263.474,120.083,261.44,119.667,259.406,119.539C257.371,119.41,255.337,119.571,253.302,120.654C251.268,121.738,249.234,123.744,247.199,122.872C245.165,122,243.13,118.25,241.096,117.167C239.061,116.083,237.027,117.667,234.993,118.833C232.958,120,230.924,120.75,228.889,120.875C226.855,121,224.821,120.5,222.786,120.25C220.752,120,218.717,120,216.683,121.417C214.648,122.833,212.614,125.667,210.58,126.5C208.545,127.333,206.511,126.167,204.476,126.75C202.442,127.333,200.408,129.667,198.373,129.5C196.339,129.333,194.304,126.667,192.27,125.633C190.235,124.6,188.201,125.2,186.167,125.95C184.132,126.7,182.098,127.6,180.063,128.883C178.029,130.167,175.995,131.833,173.96,131.917C171.926,132,169.891,130.5,167.857,130.917C165.822,131.333,163.788,133.667,161.754,135.083C159.719,136.5,157.685,137,155.65,137.25C153.616,137.5,151.582,137.5,149.547,136.917C147.513,136.333,145.478,135.167,143.444,135.667C141.409,136.167,139.375,138.333,137.341,139.167C135.306,140,133.272,139.5,131.237,139.55C129.203,139.6,127.169,140.2,125.134,140.867C123.1,141.533,121.065,142.267,119.031,141.3C116.996,140.333,114.962,137.667,112.928,138.083C110.893,138.5,108.859,142,106.824,144.458C104.79,146.917,102.756,148.333,100.721,150.042C98.687,151.75,96.652,153.75,94.618,157.75C92.583,161.75,90.549,167.75,88.515,171.958C86.48,176.167,84.446,178.583,82.411,182.375C80.377,186.167,78.343,191.333,76.308,194.292C74.274,197.25,72.239,198,70.205,199.75C68.17,201.5,66.136,204.25,64.102,205.458C62.067,206.667,60.033,206.333,57.998,207.208C55.964,208.083,53.93,210.167,51.895,213.125C49.861,216.083,47.826,219.917,45.792,225.125C43.757,230.333,41.723,236.917,39.689,242.125C37.654,247.333,35.62,251.167,33.585,255.833C31.551,260.5,29.517,266,27.482,275.911C25.448,285.823,23.413,300.146,21.379,312.063C19.344,323.979,17.31,333.49,15.276,344.578C13.241,355.667,11.207,368.333,9.172,380.25C7.138,392.167,5.104,403.333,3.069,413.125Z" fill="#9DB4BB" opacity="0.3"/></g></g><path class="foreground" aria-hidden="true" d="" display="none"/></g><g transform="translate(0,0)"><path class="background" aria-hidden="true" d="M0,0h600v400h-600Z"/><g><g class="mark-area role-mark layer_0_layer_0_marks" clip-path="url(#clip5)" role="graphics-object" aria-roledescription="area mark container"><path aria-label="Number of environment steps: 200.38k; Success rate: 0.0673; upper_Success rate: 0.118016666667; Network widths: Actor - 1024, Critic - 200; Ci1 of Success rate: 0.118016666667; Ci0 of Success rate: 0.0673; Mean of Success rate: 0.0903333333333" role="graphics-symbol" aria-roledescription="errorband" d="M3.069,425.811C5.104,413.614,7.138,403.39,9.172,394.084C11.207,384.778,13.241,376.389,15.276,371.834C17.31,367.279,19.344,366.558,21.379,362.392C23.413,358.225,25.448,350.613,27.482,344.696C29.517,338.779,31.551,334.558,33.585,329.947C35.62,325.336,37.654,320.335,39.689,312.945C41.723,305.556,43.757,295.778,45.792,289.583C47.826,283.389,49.861,280.778,51.895,277.873C53.93,274.968,55.964,271.77,57.998,270.52C60.033,269.27,62.067,269.968,64.102,267.456C66.136,264.944,68.17,259.222,70.205,254.889C72.239,250.556,74.274,247.611,76.308,246.222C78.343,244.833,80.377,245,82.411,243.651C84.446,242.302,86.48,239.437,88.515,237.409C90.549,235.382,92.583,234.193,94.618,234.181C96.652,234.169,98.687,235.335,100.721,233.121C102.756,230.907,104.79,225.314,106.824,221.814C108.859,218.314,110.893,216.907,112.928,213.787C114.962,210.667,116.996,205.833,119.031,200.167C121.065,194.5,123.1,188,125.134,184.14C127.169,180.279,129.203,179.058,131.237,178.356C133.272,177.654,135.306,177.47,137.341,176.247C139.375,175.024,141.409,172.762,143.444,171.687C145.478,170.611,147.513,170.722,149.547,170.5C151.582,170.278,153.616,169.722,155.65,169.056C157.685,168.389,159.719,167.611,161.754,168.028C163.788,168.444,165.822,170.056,167.857,171.085C169.891,172.114,171.926,172.561,173.96,170.145C175.995,167.729,178.029,162.45,180.063,160.449C182.098,158.447,184.132,159.724,186.167,159.552C188.201,159.381,190.235,157.762,192.27,157.012C194.304,156.262,196.339,156.381,198.373,156.595C200.408,156.81,202.442,157.119,204.476,156.619C206.511,156.119,208.545,154.81,210.58,155.071C212.614,155.333,214.648,157.167,216.683,157.393C218.717,157.62,220.752,156.24,222.786,155.268C224.821,154.296,226.855,153.731,228.889,153.921C230.924,154.111,232.958,155.056,234.993,155.417C237.027,155.778,239.061,155.556,241.096,154.96C243.13,154.365,245.165,153.397,247.199,153.397C249.234,153.397,251.268,154.365,253.302,154.532C255.337,154.698,257.371,154.063,259.406,153.842C261.44,153.62,263.474,153.812,265.509,154.963C267.543,156.114,269.578,158.224,271.612,158.473C273.646,158.722,275.681,157.111,277.715,155.806C279.75,154.5,281.784,153.5,283.819,153.306C285.853,153.111,287.887,153.722,289.922,153.829C291.956,153.937,293.991,153.54,296.025,153.345C298.059,153.151,300.094,153.159,302.128,152.857C304.163,152.556,306.197,151.944,308.232,152.028C310.266,152.111,312.3,152.889,314.335,153.119C316.369,153.349,318.404,153.032,320.438,152.921C322.472,152.81,324.507,152.905,326.541,153.063C328.576,153.222,330.61,153.444,332.645,153.667C334.679,153.889,336.713,154.111,338.748,153.929C340.782,153.746,342.817,153.159,344.851,152.77C346.885,152.381,348.92,152.19,350.954,152.262C352.989,152.333,355.023,152.667,357.058,152.813C359.092,152.958,361.126,152.917,363.161,152.806C365.195,152.694,367.23,152.514,369.264,152.841C371.298,153.168,373.333,154.003,375.367,153.892C377.402,153.781,379.436,152.724,381.471,152.917C383.505,153.111,385.539,154.556,387.574,155.223C389.608,155.89,391.643,155.781,393.677,155.225C395.711,154.669,397.746,153.668,399.78,152.961C401.815,152.254,403.849,151.841,405.884,151.758C407.918,151.675,409.952,151.921,411.987,152.627C414.021,153.333,416.056,154.5,418.09,155.02C420.124,155.54,422.159,155.413,424.193,154.552C426.228,153.69,428.262,152.095,430.297,151.786C432.331,151.476,434.365,152.452,436.4,153.063C438.434,153.675,440.469,153.921,442.503,154.135C444.537,154.349,446.572,154.532,448.606,153.893C450.641,153.254,452.675,151.794,454.71,151.369C456.744,150.944,458.778,151.556,460.813,151.977C462.847,152.398,464.882,152.629,466.916,152.685C468.95,152.74,470.985,152.62,473.019,152.667C475.054,152.714,477.088,152.929,479.123,152.79C481.157,152.651,483.191,152.159,485.226,151.746C487.26,151.333,489.295,151,491.329,150.861C493.363,150.722,495.398,150.778,497.432,150.917C499.467,151.056,501.501,151.278,503.536,151.611C505.57,151.944,507.604,152.389,509.639,152.528C511.673,152.667,513.708,152.5,515.742,152.667C517.776,152.833,519.811,153.333,521.845,153.5C523.88,153.667,525.914,153.5,527.949,153.111C529.983,152.722,532.017,152.111,534.052,152.028C536.086,151.944,538.121,152.389,540.155,152.417C542.189,152.444,544.224,152.056,546.258,152.084C548.293,152.113,550.327,152.558,552.362,152.753C554.396,152.947,556.43,152.89,558.465,152.584C560.499,152.278,562.534,151.722,564.568,151.306C566.602,150.889,568.637,150.611,570.671,150.639C572.706,150.667,574.74,151,576.775,150.917C578.809,150.833,580.843,150.333,582.878,150.444C584.912,150.556,586.947,151.278,588.981,151.639L588.981,147.597C586.947,148.111,584.912,147.222,582.878,147.444C580.843,147.667,578.809,149,576.775,149.417C574.74,149.833,572.706,149.333,570.671,148.917C568.637,148.5,566.602,148.167,564.568,148.222C562.534,148.278,560.499,148.722,558.465,148.444C556.43,148.167,554.396,147.167,552.362,146.5C550.327,145.833,548.293,145.5,546.258,145.639C544.224,145.778,542.189,146.389,540.155,146.833C538.121,147.278,536.086,147.556,534.052,147.694C532.017,147.833,529.983,147.833,527.949,148.194C525.914,148.556,523.88,149.278,521.845,149.556C519.811,149.833,517.776,149.667,515.742,148.972C513.708,148.278,511.673,147.056,509.639,146.889C507.604,146.722,505.57,147.611,503.536,147.75C501.501,147.889,499.467,147.278,497.432,147.278C495.398,147.278,493.363,147.889,491.329,148.556C489.295,149.222,487.26,149.944,485.226,150.313C483.191,150.683,481.157,150.698,479.123,150.393C477.088,150.087,475.054,149.46,473.019,148.675C470.985,147.889,468.95,146.944,466.916,147.222C464.882,147.5,462.847,149,460.813,149.333C458.778,149.667,456.744,148.833,454.71,148.964C452.675,149.094,450.641,150.188,448.606,150.66C446.572,151.133,444.537,150.983,442.503,150.864C440.469,150.746,438.434,150.659,436.4,150.27C434.365,149.881,432.331,149.19,430.297,149.19C428.262,149.19,426.228,149.881,424.193,150.27C422.159,150.659,420.124,150.746,418.09,150.762C416.056,150.778,414.021,150.722,411.987,150.631C409.952,150.54,407.918,150.413,405.884,150.357C403.849,150.302,401.815,150.317,399.78,150.409C397.746,150.5,395.711,150.667,393.677,150.889C391.643,151.111,389.608,151.389,387.574,151.278C385.539,151.167,383.505,150.667,381.471,150.555C379.436,150.443,377.402,150.719,375.367,150.775C373.333,150.831,371.298,150.665,369.264,150.499C367.23,150.333,365.195,150.167,363.161,150.167C361.126,150.167,359.092,150.333,357.058,150.389C355.023,150.444,352.989,150.389,350.954,150.544C348.92,150.698,346.885,151.063,344.851,151.23C342.817,151.397,340.782,151.365,338.748,151.349C336.713,151.333,334.679,151.333,332.645,151.139C330.61,150.944,328.576,150.556,326.541,150.405C324.507,150.254,322.472,150.341,320.438,150.425C318.404,150.508,316.369,150.587,314.335,150.544C312.3,150.5,310.266,150.333,308.232,150.528C306.197,150.722,304.163,151.278,302.128,151.25C300.094,151.222,298.059,150.611,296.025,150.5C293.991,150.389,291.956,150.778,289.922,150.861C287.887,150.944,285.853,150.722,283.819,150.639C281.784,150.556,279.75,150.611,277.715,151.139C275.681,151.667,273.646,152.667,271.612,153C269.578,153.333,267.543,153,265.509,152.77C263.474,152.54,261.44,152.413,259.406,152.274C257.371,152.135,255.337,151.984,253.302,151.627C251.268,151.27,249.234,150.706,247.199,150.623C245.165,150.54,243.13,150.937,241.096,151.357C239.061,151.778,237.027,152.222,234.993,152.278C232.958,152.333,230.924,152,228.889,151.722C226.855,151.444,224.821,151.222,222.786,151.802C220.752,152.381,218.717,153.762,216.683,153.72C214.648,153.679,212.614,152.214,210.58,151.595C208.545,150.976,206.511,151.202,204.476,151.772C202.442,152.341,200.408,153.254,198.373,153.278C196.339,153.302,194.304,152.437,192.27,152.547C190.235,152.657,188.201,153.743,186.167,154.12C184.132,154.497,182.098,154.165,180.063,153.86C178.029,153.556,175.995,153.278,173.96,153.639C171.926,154,169.891,155,167.857,155.444C165.822,155.889,163.788,155.778,161.754,155.777C159.719,155.776,157.685,155.886,155.65,156.331C153.616,156.775,151.582,157.554,149.547,157.721C147.513,157.888,145.478,157.442,143.444,157.648C141.409,157.854,139.375,158.713,137.341,159.158C135.306,159.603,133.272,159.635,131.237,161.012C129.203,162.389,127.169,165.111,125.134,165.472C123.1,165.833,121.065,163.833,119.031,165.331C116.996,166.829,114.962,171.825,112.928,173.972C110.893,176.119,108.859,175.416,106.824,179.446C104.79,183.475,102.756,192.235,100.721,197.809C98.687,203.382,96.652,205.768,94.618,208.1C92.583,210.433,90.549,212.711,88.515,215.185C86.48,217.66,84.446,220.33,82.411,223.387C80.377,226.444,78.343,229.889,76.308,233.528C74.274,237.167,72.239,241,70.205,244.667C68.17,248.333,66.136,251.833,64.102,253.647C62.067,255.46,60.033,255.587,57.998,256.143C55.964,256.698,53.93,257.683,51.895,259.979C49.861,262.276,47.826,265.886,45.792,272.608C43.757,279.331,41.723,289.165,39.689,295.138C37.654,301.111,35.62,303.222,33.585,307.611C31.551,312,29.517,318.667,27.482,324.139C25.448,329.611,23.413,333.889,21.379,338.333C19.344,342.777,17.31,347.387,15.276,353.415C13.241,359.442,11.207,366.888,9.172,377.388C7.138,387.889,5.104,401.444,3.069,412.554Z" fill="#3D494C" opacity="0.3"/></g></g><path class="foreground" aria-hidden="true" d="" display="none"/></g></g><g class="mark-group role-scope layer_1_pathgroup" role="graphics-object" aria-roledescription="group mark container"><g transform="translate(0,0)"><path class="background" aria-hidden="true" d="M0,0h600v400h-600Z"/><g><g class="mark-line role-mark layer_1_marks" clip-path="url(#clip6)" role="graphics-object" aria-roledescription="line mark container"><path aria-label="Number of environment steps: 200.38k; Success rate: 0.101666666667; Network widths: Actor - 1024, Critic - 1024" role="graphics-symbol" aria-roledescription="line mark" d="M3.069,405.056C5.104,389.5,7.138,372.667,9.172,357.333C11.207,342,13.241,328.167,15.276,318.778C17.31,309.389,19.344,304.444,21.379,294.333C23.413,284.222,25.448,268.944,27.482,258.722C29.517,248.5,31.551,243.333,33.585,237.056C35.62,230.778,37.654,223.389,39.689,217.5C41.723,211.611,43.757,207.222,45.792,200.889C47.826,194.556,49.861,186.278,51.895,178C53.93,169.722,55.964,161.444,57.998,158.278C60.033,155.111,62.067,157.056,64.102,156.639C66.136,156.222,68.17,153.444,70.205,150.667C72.239,147.889,74.274,145.111,76.308,141.778C78.343,138.444,80.377,134.556,82.411,132.25C84.446,129.944,86.48,129.222,88.515,129.349C90.549,129.476,92.583,130.452,94.618,130.179C96.652,129.905,98.687,128.381,100.721,127.282C102.756,126.183,104.79,125.508,106.824,124.365C108.859,123.222,110.893,121.611,112.928,121.5C114.962,121.389,116.996,122.778,119.031,123.306C121.065,123.833,123.1,123.5,125.134,123.361C127.169,123.222,129.203,123.278,131.237,122.639C133.272,122,135.306,120.667,137.341,119.278C139.375,117.889,141.409,116.444,143.444,115.472C145.478,114.5,147.513,114,149.547,112.111C151.582,110.222,153.616,106.944,155.65,104.972C157.685,103,159.719,102.333,161.754,100.639C163.788,98.944,165.822,96.222,167.857,93.889C169.891,91.556,171.926,89.611,173.96,88.5C175.995,87.389,178.029,87.111,180.063,87.095C182.098,87.079,184.132,87.325,186.167,88.27C188.201,89.214,190.235,90.857,192.27,89.595C194.304,88.333,196.339,84.167,198.373,81.889C200.408,79.611,202.442,79.222,204.476,78.444C206.511,77.667,208.545,76.5,210.58,75.861C212.614,75.222,214.648,75.111,216.683,75.528C218.717,75.944,220.752,76.889,222.786,76.333C224.821,75.778,226.855,73.722,228.889,72.479C230.924,71.236,232.958,70.806,234.993,69.909C237.027,69.012,239.061,67.649,241.096,67.697C243.13,67.746,245.165,69.206,247.199,69.853C249.234,70.5,251.268,70.333,253.302,69.675C255.337,69.016,257.371,67.865,259.406,67.143C261.44,66.421,263.474,66.127,265.509,65.897C267.543,65.667,269.578,65.5,271.612,65.028C273.646,64.556,275.681,63.778,277.715,64.417C279.75,65.056,281.784,67.111,283.819,67.444C285.853,67.778,287.887,66.389,289.922,66.056C291.956,65.722,293.991,66.444,296.025,66.806C298.059,67.167,300.094,67.167,302.128,66.694C304.163,66.222,306.197,65.278,308.232,65.5C310.266,65.722,312.3,67.111,314.335,67.611C316.369,68.111,318.404,67.722,320.438,67.111C322.472,66.5,324.507,65.667,326.541,65.306C328.576,64.944,330.61,65.056,332.645,64.75C334.679,64.444,336.713,63.722,338.748,63.861C340.782,64,342.817,65,344.851,65C346.885,65,348.92,64,350.954,63.944C352.989,63.889,355.023,64.778,357.058,65.194C359.092,65.611,361.126,65.556,363.161,65.639C365.195,65.722,367.23,65.944,369.264,66.028C371.298,66.111,373.333,66.056,375.367,66.075C377.402,66.095,379.436,66.19,381.471,66.496C383.505,66.802,385.539,67.317,387.574,67.075C389.608,66.833,391.643,65.833,393.677,65.222C395.711,64.611,397.746,64.389,399.78,65.389C401.815,66.389,403.849,68.611,405.884,69.393C407.918,70.175,409.952,69.516,411.987,69.21C414.021,68.905,416.056,68.952,418.09,68.504C420.124,68.056,422.159,67.111,424.193,66.25C426.228,65.389,428.262,64.611,430.297,65.274C432.331,65.937,434.365,68.04,436.4,68.123C438.434,68.206,440.469,66.27,442.503,65.746C444.537,65.222,446.572,66.111,448.606,66.722C450.641,67.333,452.675,67.667,454.71,67.333C456.744,67,458.778,66,460.813,65.194C462.847,64.389,464.882,63.778,466.916,63.556C468.95,63.333,470.985,63.5,473.019,63.5C475.054,63.5,477.088,63.333,479.123,63.333C481.157,63.333,483.191,63.5,485.226,64.5C487.26,65.5,489.295,67.333,491.329,68.167C493.363,69,495.398,68.833,497.432,68.361C499.467,67.889,501.501,67.111,503.536,66.667C505.57,66.222,507.604,66.111,509.639,65.889C511.673,65.667,513.708,65.333,515.742,65.25C517.776,65.167,519.811,65.333,521.845,65.639C523.88,65.944,525.914,66.389,527.949,66.444C529.983,66.5,532.017,66.167,534.052,65.806C536.086,65.444,538.121,65.056,540.155,64.778C542.189,64.5,544.224,64.333,546.258,64.361C548.293,64.389,550.327,64.611,552.362,64.778C554.396,64.944,556.43,65.056,558.465,65.389C560.499,65.722,562.534,66.278,564.568,66.528C566.602,66.778,568.637,66.722,570.671,66.556C572.706,66.389,574.74,66.111,576.775,66.5C578.809,66.889,580.843,67.944,582.878,68.083C584.912,68.222,586.947,67.444,588.981,66.75" stroke="#FF4B33" stroke-width="2"/></g></g><path class="foreground" aria-hidden="true" d="" display="none"/></g><g transform="translate(0,0)"><path class="background" aria-hidden="true" d="M0,0h600v400h-600Z"/><g><g class="mark-line role-mark layer_1_marks" clip-path="url(#clip7)" role="graphics-object" aria-roledescription="line mark container"><path aria-label="Number of environment steps: 200.38k; Success rate: 0.141; Network widths: Critic - 1024" role="graphics-symbol" aria-roledescription="line mark" d="M3.069,378.167C5.104,360,7.138,340.25,9.172,328.083C11.207,315.917,13.241,311.333,15.276,302C17.31,292.667,19.344,278.583,21.379,267.083C23.413,255.583,25.448,246.667,27.482,238.292C29.517,229.917,31.551,222.083,33.585,217.667C35.62,213.25,37.654,212.25,39.689,206.458C41.723,200.667,43.757,190.083,45.792,183.042C47.826,176,49.861,172.5,51.895,167.417C53.93,162.333,55.964,155.667,57.998,151.583C60.033,147.5,62.067,146,64.102,145.667C66.136,145.333,68.17,146.167,70.205,146.458C72.239,146.75,74.274,146.5,76.308,144.708C78.343,142.917,80.377,139.583,82.411,137.083C84.446,134.583,86.48,132.917,88.515,132.125C90.549,131.333,92.583,131.417,94.618,131.208C96.652,131,98.687,130.5,100.721,130.333C102.756,130.167,104.79,130.333,106.824,130.083C108.859,129.833,110.893,129.167,112.928,128.125C114.962,127.083,116.996,125.667,119.031,123.625C121.065,121.583,123.1,118.917,125.134,116C127.169,113.083,129.203,109.917,131.237,106.675C133.272,103.433,135.306,100.117,137.341,99.45C139.375,98.783,141.409,100.767,143.444,99.55C145.478,98.333,147.513,93.917,149.547,91.625C151.582,89.333,153.616,89.167,155.65,87.333C157.685,85.5,159.719,82,161.754,81.167C163.788,80.333,165.822,82.167,167.857,83.583C169.891,85,171.926,86,173.96,85.125C175.995,84.25,178.029,81.5,180.063,80.333C182.098,79.167,184.132,79.583,186.167,79.625C188.201,79.667,190.235,79.333,192.27,79.083C194.304,78.833,196.339,78.667,198.373,78.208C200.408,77.75,202.442,77,204.476,75.875C206.511,74.75,208.545,73.25,210.58,72.917C212.614,72.583,214.648,73.417,216.683,73.292C218.717,73.167,220.752,72.083,222.786,70C224.821,67.917,226.855,64.833,228.889,64.625C230.924,64.417,232.958,67.083,234.993,67.208C237.027,67.333,239.061,64.917,241.096,63.5C243.13,62.083,245.165,61.667,247.199,60.917C249.234,60.167,251.268,59.083,253.302,59.275C255.337,59.467,257.371,60.933,259.406,61.475C261.44,62.017,263.474,61.633,265.509,62.233C267.543,62.833,269.578,64.417,271.612,64.458C273.646,64.5,275.681,63,277.715,62.167C279.75,61.333,281.784,61.167,283.819,61.083C285.853,61,287.887,61,289.922,60.917C291.956,60.833,293.991,60.667,296.025,60.4C298.059,60.133,300.094,59.767,302.128,59.6C304.163,59.433,306.197,59.467,308.232,60.275C310.266,61.083,312.3,62.667,314.335,63C316.369,63.333,318.404,62.417,320.438,62.167C322.472,61.917,324.507,62.333,326.541,61.861C328.576,61.389,330.61,60.028,332.645,60.028C334.679,60.028,336.713,61.389,338.748,62.111C340.782,62.833,342.817,62.917,344.851,61.792C346.885,60.667,348.92,58.333,350.954,58.25C352.989,58.167,355.023,60.333,357.058,60.583C359.092,60.833,361.126,59.167,363.161,59.125C365.195,59.083,367.23,60.667,369.264,61.792C371.298,62.917,373.333,63.583,375.367,62.917C377.402,62.25,379.436,60.25,381.471,59.583C383.505,58.917,385.539,59.583,387.574,60.042C389.608,60.5,391.643,60.75,393.677,60.083C395.711,59.417,397.746,57.833,399.78,56.958C401.815,56.083,403.849,55.917,405.884,56.642C407.918,57.367,409.952,58.983,411.987,59.792C414.021,60.6,416.056,60.6,418.09,60.25C420.124,59.9,422.159,59.2,424.193,59.308C426.228,59.417,428.262,60.333,430.297,60.208C432.331,60.083,434.365,58.917,436.4,58.5C438.434,58.083,440.469,58.417,442.503,58.708C444.537,59,446.572,59.25,448.606,59.25C450.641,59.25,452.675,59,454.71,58.792C456.744,58.583,458.778,58.417,460.813,58.625C462.847,58.833,464.882,59.417,466.916,59.333C468.95,59.25,470.985,58.5,473.019,57.833C475.054,57.167,477.088,56.583,479.123,56.625C481.157,56.667,483.191,57.333,485.226,57.042C487.26,56.75,489.295,55.5,491.329,55.458C493.363,55.417,495.398,56.583,497.432,57.708C499.467,58.833,501.501,59.917,503.536,60.125C505.57,60.333,507.604,59.667,509.639,59.083C511.673,58.5,513.708,58,515.742,58.125C517.776,58.25,519.811,59,521.845,59.292C523.88,59.583,525.914,59.417,527.949,59.458C529.983,59.5,532.017,59.75,534.052,59.583C536.086,59.417,538.121,58.833,540.155,58.25C542.189,57.667,544.224,57.083,546.258,57.375C548.293,57.667,550.327,58.833,552.362,59.25C554.396,59.667,556.43,59.333,558.465,59.083C560.499,58.833,562.534,58.667,564.568,59C566.602,59.333,568.637,60.167,570.671,60.708C572.706,61.25,574.74,61.5,576.775,61.333C578.809,61.167,580.843,60.583,582.878,60.392C584.912,60.2,586.947,60.4,588.981,60.033" stroke="#B22B24" stroke-width="2"/></g></g><path class="foreground" aria-hidden="true" d="" display="none"/></g><g transform="translate(0,0)"><path class="background" aria-hidden="true" d="M0,0h600v400h-600Z"/><g><g class="mark-line role-mark layer_1_marks" clip-path="url(#clip8)" role="graphics-object" aria-roledescription="line mark container"><path aria-label="Number of environment steps: 200.38k; Success rate: 0.0663333333333; Network widths: Actor - 200, Critic - 1024" role="graphics-symbol" aria-roledescription="line mark" d="M3.069,410.639C5.104,396.778,7.138,390.222,9.172,380.889C11.207,371.556,13.241,359.444,15.276,347.452C17.31,335.46,19.344,323.587,21.379,313.282C23.413,302.976,25.448,294.238,27.482,283.341C29.517,272.444,31.551,259.389,33.585,250.083C35.62,240.778,37.654,235.222,39.689,227.111C41.723,219,43.757,208.333,45.792,198.056C47.826,187.778,49.861,177.889,51.895,172.583C53.93,167.278,55.964,166.556,57.998,164.389C60.033,162.222,62.067,158.611,64.102,156.528C66.136,154.444,68.17,153.889,70.205,152.278C72.239,150.667,74.274,148,76.308,146C78.343,144,80.377,142.667,82.411,141.444C84.446,140.222,86.48,139.111,88.515,138.194C90.549,137.278,92.583,136.556,94.618,136.222C96.652,135.889,98.687,135.944,100.721,135.833C102.756,135.722,104.79,135.444,106.824,135C108.859,134.556,110.893,133.944,112.928,132.583C114.962,131.222,116.996,129.111,119.031,127.694C121.065,126.278,123.1,125.556,125.134,124.722C127.169,123.889,129.203,122.944,131.237,121.806C133.272,120.667,135.306,119.333,137.341,118.5C139.375,117.667,141.409,117.333,143.444,117.778C145.478,118.222,147.513,119.444,149.547,118.528C151.582,117.611,153.616,114.556,155.65,112.639C157.685,110.722,159.719,109.944,161.754,109.837C163.788,109.73,165.822,110.294,167.857,110.071C169.891,109.849,171.926,108.841,173.96,107.476C175.995,106.111,178.029,104.389,180.063,103.611C182.098,102.833,184.132,103,186.167,103.917C188.201,104.833,190.235,106.5,192.27,106.25C194.304,106,196.339,103.833,198.373,102.028C200.408,100.222,202.442,98.778,204.476,96.833C206.511,94.889,208.545,92.444,210.58,91.667C212.614,90.889,214.648,91.778,216.683,91.528C218.717,91.278,220.752,89.889,222.786,89.917C224.821,89.944,226.855,91.389,228.889,92.853C230.924,94.317,232.958,95.802,234.993,95.802C237.027,95.802,239.061,94.317,241.096,92.603C243.13,90.889,245.165,88.944,247.199,88C249.234,87.056,251.268,87.111,253.302,86.611C255.337,86.111,257.371,85.056,259.406,84.111C261.44,83.167,263.474,82.333,265.509,82.333C267.543,82.333,269.578,83.167,271.612,82.139C273.646,81.111,275.681,78.222,277.715,77.972C279.75,77.722,281.784,80.111,283.819,80.111C285.853,80.111,287.887,77.722,289.922,76.472C291.956,75.222,293.991,75.111,296.025,74.722C298.059,74.333,300.094,73.667,302.128,72.639C304.163,71.611,306.197,70.222,308.232,69.083C310.266,67.944,312.3,67.056,314.335,67.417C316.369,67.778,318.404,69.389,320.438,70.194C322.472,71,324.507,71,326.541,70.722C328.576,70.444,330.61,69.889,332.645,69.472C334.679,69.056,336.713,68.778,338.748,68.222C340.782,67.667,342.817,66.833,344.851,66.528C346.885,66.222,348.92,66.444,350.954,65.674C352.989,64.903,355.023,63.139,357.058,63.004C359.092,62.869,361.126,64.363,363.161,65.689C365.195,67.016,367.23,68.175,369.264,68.004C371.298,67.833,373.333,66.333,375.367,65.611C377.402,64.889,379.436,64.944,381.471,64.778C383.505,64.611,385.539,64.222,387.574,63.861C389.608,63.5,391.643,63.167,393.677,62.972C395.711,62.778,397.746,62.722,399.78,62.417C401.815,62.111,403.849,61.556,405.884,61.444C407.918,61.333,409.952,61.667,411.987,60.857C414.021,60.048,416.056,58.095,418.09,58.012C420.124,57.929,422.159,59.714,424.193,61.024C426.228,62.333,428.262,63.167,430.297,63.056C432.331,62.944,434.365,61.889,436.4,61.861C438.434,61.833,440.469,62.833,442.503,62.456C444.537,62.079,446.572,60.325,448.606,60.353C450.641,60.381,452.675,62.19,454.71,63.151C456.744,64.111,458.778,64.222,460.813,64.444C462.847,64.667,464.882,65,466.916,65.139C468.95,65.278,470.985,65.222,473.019,65C475.054,64.778,477.088,64.389,479.123,64.194C481.157,64,483.191,64,485.226,63.528C487.26,63.056,489.295,62.111,491.329,62.194C493.363,62.278,495.398,63.389,497.432,63.917C499.467,64.444,501.501,64.389,503.536,64.425C505.57,64.46,507.604,64.587,509.639,64.726C511.673,64.865,513.708,65.016,515.742,65.849C517.776,66.683,519.811,68.198,521.845,68.087C523.88,67.976,525.914,66.238,527.949,65.813C529.983,65.389,532.017,66.278,534.052,66.382C536.086,66.486,538.121,65.806,540.155,65C542.189,64.194,544.224,63.264,546.258,62.743C548.293,62.222,550.327,62.111,552.362,62.778C554.396,63.444,556.43,64.889,558.465,64.833C560.499,64.778,562.534,63.222,564.568,63.111C566.602,63,568.637,64.333,570.671,64.667C572.706,65,574.74,64.333,576.775,63.889C578.809,63.444,580.843,63.222,582.878,63.167C584.912,63.111,586.947,63.222,588.981,63.167" stroke="#7A1F18" stroke-width="2"/></g></g><path class="foreground" aria-hidden="true" d="" display="none"/></g><g transform="translate(0,0)"><path class="background" aria-hidden="true" d="M0,0h600v400h-600Z"/><g><g class="mark-line role-mark layer_1_marks" clip-path="url(#clip9)" role="graphics-object" aria-roledescription="line mark container"><path aria-label="Number of environment steps: 200.38k; Success rate: 0.102; Network widths: Actor - 1024" role="graphics-symbol" aria-roledescription="line mark" d="M3.069,420.25C5.104,410.333,7.138,399.917,9.172,390C11.207,380.083,13.241,370.667,15.276,360.167C17.31,349.667,19.344,338.083,21.379,327.417C23.413,316.75,25.448,307,27.482,299.083C29.517,291.167,31.551,285.083,33.585,279.625C35.62,274.167,37.654,269.333,39.689,263.5C41.723,257.667,43.757,250.833,45.792,245.667C47.826,240.5,49.861,237,51.895,233.958C53.93,230.917,55.964,228.333,57.998,225.958C60.033,223.583,62.067,221.417,64.102,218.667C66.136,215.917,68.17,212.583,70.205,210.083C72.239,207.583,74.274,205.917,76.308,202.942C78.343,199.967,80.377,195.683,82.411,192.433C84.446,189.183,86.48,186.967,88.515,184.525C90.549,182.083,92.583,179.417,94.618,175.917C96.652,172.417,98.687,168.083,100.721,165.292C102.756,162.5,104.79,161.25,106.824,159.5C108.859,157.75,110.893,155.5,112.928,155.167C114.962,154.833,116.996,156.417,119.031,156.342C121.065,156.267,123.1,154.533,125.134,153.7C127.169,152.867,129.203,152.933,131.237,153.217C133.272,153.5,135.306,154,137.341,152.458C139.375,150.917,141.409,147.333,143.444,146.292C145.478,145.25,147.513,146.75,149.547,148.083C151.582,149.417,153.616,150.583,155.65,149.083C157.685,147.583,159.719,143.417,161.754,140.833C163.788,138.25,165.822,137.25,167.857,137.042C169.891,136.833,171.926,137.417,173.96,137.083C175.995,136.75,178.029,135.5,180.063,134.3C182.098,133.1,184.132,131.95,186.167,130.992C188.201,130.033,190.235,129.267,192.27,130.008C194.304,130.75,196.339,133,198.373,133.125C200.408,133.25,202.442,131.25,204.476,130.5C206.511,129.75,208.545,130.25,210.58,129.458C212.614,128.667,214.648,126.583,216.683,125.75C218.717,124.917,220.752,125.333,222.786,125.542C224.821,125.75,226.855,125.75,228.889,125.583C230.924,125.417,232.958,125.083,234.993,124.25C237.027,123.417,239.061,122.083,241.096,122.542C243.13,123,245.165,125.25,247.199,125.583C249.234,125.917,251.268,124.333,253.302,123.917C255.337,123.5,257.371,124.25,259.406,124.292C261.44,124.333,263.474,123.667,265.509,123.167C267.543,122.667,269.578,122.333,271.612,123.667C273.646,125,275.681,128,277.715,127.792C279.75,127.583,281.784,124.167,283.819,123.542C285.853,122.917,287.887,125.083,289.922,125.5C291.956,125.917,293.991,124.583,296.025,123.083C298.059,121.583,300.094,119.917,302.128,119.208C304.163,118.5,306.197,118.75,308.232,118.292C310.266,117.833,312.3,116.667,314.335,116.5C316.369,116.333,318.404,117.167,320.438,118.15C322.472,119.133,324.507,120.267,326.541,119.308C328.576,118.35,330.61,115.3,332.645,114.025C334.679,112.75,336.713,113.25,338.748,114.75C340.782,116.25,342.817,118.75,344.851,118.667C346.885,118.583,348.92,115.917,350.954,114.125C352.989,112.333,355.023,111.417,357.058,110.417C359.092,109.417,361.126,108.333,363.161,108C365.195,107.667,367.23,108.083,369.264,108.458C371.298,108.833,373.333,109.167,375.367,109.792C377.402,110.417,379.436,111.333,381.471,111.417C383.505,111.5,385.539,110.75,387.574,110.375C389.608,110,391.643,110,393.677,109.833C395.711,109.667,397.746,109.333,399.78,108.667C401.815,108,403.849,107,405.884,106.708C407.918,106.417,409.952,106.833,411.987,106.208C414.021,105.583,416.056,103.917,418.09,104.042C420.124,104.167,422.159,106.083,424.193,103.542C426.228,101,428.262,94,430.297,92.792C432.331,91.583,434.365,96.167,436.4,96.625C438.434,97.083,440.469,93.417,442.503,90.75C444.537,88.083,446.572,86.417,448.606,86.417C450.641,86.417,452.675,88.083,454.71,88.042C456.744,88,458.778,86.25,460.813,84.292C462.847,82.333,464.882,80.167,466.916,79.833C468.95,79.5,470.985,81,473.019,81.333C475.054,81.667,477.088,80.833,479.123,79.333C481.157,77.833,483.191,75.667,485.226,75.917C487.26,76.167,489.295,78.833,491.329,79.958C493.363,81.083,495.398,80.667,497.432,79.617C499.467,78.567,501.501,76.883,503.536,76.175C505.57,75.467,507.604,75.733,509.639,75.492C511.673,75.25,513.708,74.5,515.742,75.125C517.776,75.75,519.811,77.75,521.845,79C523.88,80.25,525.914,80.75,527.949,80.492C529.983,80.233,532.017,79.217,534.052,79.258C536.086,79.3,538.121,80.4,540.155,81.7C542.189,83,544.224,84.5,546.258,84.583C548.293,84.667,550.327,83.333,552.362,83.5C554.396,83.667,556.43,85.333,558.465,84.958C560.499,84.583,562.534,82.167,564.568,80.917C566.602,79.667,568.637,79.583,570.671,79.708C572.706,79.833,574.74,80.167,576.775,80.25C578.809,80.333,580.843,80.167,582.878,79.417C584.912,78.667,586.947,77.333,588.981,78.708" stroke="#9DB4BB" stroke-width="2"/></g></g><path class="foreground" aria-hidden="true" d="" display="none"/></g><g transform="translate(0,0)"><path class="background" aria-hidden="true" d="M0,0h600v400h-600Z"/><g><g class="mark-line role-mark layer_1_marks" clip-path="url(#clip10)" role="graphics-object" aria-roledescription="line mark container"><path aria-label="Number of environment steps: 200.38k; Success rate: 0.0903333333333; Network widths: Actor - 1024, Critic - 200" role="graphics-symbol" aria-roledescription="line mark" d="M3.069,419.194C5.104,407.222,7.138,395.111,9.172,385.097C11.207,375.083,13.241,367.167,15.276,362C17.31,356.833,19.344,354.417,21.379,350.236C23.413,346.056,25.448,340.111,27.482,334.444C29.517,328.778,31.551,323.389,33.585,318.833C35.62,314.278,37.654,310.556,39.689,303.861C41.723,297.167,43.757,287.5,45.792,281.167C47.826,274.833,49.861,271.833,51.895,269.099C53.93,266.365,55.964,263.897,57.998,262.758C60.033,261.619,62.067,261.81,64.102,259.683C66.136,257.556,68.17,253.111,70.205,249.333C72.239,245.556,74.274,242.444,76.308,240.194C78.343,237.944,80.377,236.556,82.411,234.429C84.446,232.302,86.48,229.437,88.515,226.937C90.549,224.437,92.583,222.302,94.618,221.123C96.652,219.944,98.687,219.722,100.721,216.004C102.756,212.286,104.79,205.071,106.824,201.127C108.859,197.183,110.893,196.508,112.928,193.393C114.962,190.278,116.996,184.722,119.031,181.194C121.065,177.667,123.1,176.167,125.134,174.306C127.169,172.444,129.203,170.222,131.237,169.063C133.272,167.905,135.306,167.81,137.341,167.06C139.375,166.31,141.409,164.905,143.444,164.119C145.478,163.333,147.513,163.167,149.547,162.806C151.582,162.444,153.616,161.889,155.65,161.5C157.685,161.111,159.719,160.889,161.754,161.167C163.788,161.444,165.822,162.222,167.857,162.583C169.891,162.944,171.926,162.889,173.96,161.611C175.995,160.333,178.029,157.833,180.063,157C182.098,156.167,184.132,157,186.167,156.683C188.201,156.365,190.235,154.897,192.27,154.48C194.304,154.063,196.339,154.698,198.373,154.817C200.408,154.937,202.442,154.54,204.476,154.005C206.511,153.47,208.545,152.798,210.58,153.274C212.614,153.75,214.648,155.375,216.683,155.473C218.717,155.571,220.752,154.143,222.786,153.365C224.821,152.587,226.855,152.46,228.889,152.73C230.924,153,232.958,153.667,234.993,153.833C237.027,154,239.061,153.667,241.096,153.111C243.13,152.556,245.165,151.778,247.199,151.778C249.234,151.778,251.268,152.556,253.302,152.865C255.337,153.175,257.371,153.016,259.406,153.016C261.44,153.016,263.474,153.175,265.509,153.893C267.543,154.611,269.578,155.889,271.612,155.778C273.646,155.667,275.681,154.167,277.715,153.222C279.75,152.278,281.784,151.889,283.819,151.889C285.853,151.889,287.887,152.278,289.922,152.29C291.956,152.302,293.991,151.937,296.025,151.909C298.059,151.881,300.094,152.19,302.128,152.04C304.163,151.889,306.197,151.278,308.232,151.222C310.266,151.167,312.3,151.667,314.335,151.817C316.369,151.968,318.404,151.77,320.438,151.659C322.472,151.548,324.507,151.524,326.541,151.706C328.576,151.889,330.61,152.278,332.645,152.5C334.679,152.722,336.713,152.778,338.748,152.667C340.782,152.556,342.817,152.278,344.851,152C346.885,151.722,348.92,151.444,350.954,151.382C352.989,151.319,355.023,151.472,357.058,151.516C359.092,151.56,361.126,151.494,363.161,151.445C365.195,151.397,367.23,151.365,369.264,151.599C371.298,151.833,373.333,152.333,375.367,152.25C377.402,152.167,379.436,151.5,381.471,151.639C383.505,151.778,385.539,152.722,387.574,153.111C389.608,153.5,391.643,153.333,393.677,152.972C395.711,152.611,397.746,152.056,399.78,151.671C401.815,151.286,403.849,151.071,405.884,151.044C407.918,151.016,409.952,151.175,411.987,151.504C414.021,151.833,416.056,152.333,418.09,152.54C420.124,152.746,422.159,152.659,424.193,152.131C426.228,151.603,428.262,150.635,430.297,150.516C432.331,150.397,434.365,151.127,436.4,151.571C438.434,152.016,440.469,152.175,442.503,152.341C444.537,152.508,446.572,152.683,448.606,152.155C450.641,151.627,452.675,150.397,454.71,150.143C456.744,149.889,458.778,150.611,460.813,150.774C462.847,150.937,464.882,150.54,466.916,150.429C468.95,150.317,470.985,150.492,473.019,150.778C475.054,151.063,477.088,151.46,479.123,151.544C481.157,151.627,483.191,151.397,485.226,151.032C487.26,150.667,489.295,150.167,491.329,149.833C493.363,149.5,495.398,149.333,497.432,149.389C499.467,149.444,501.501,149.722,503.536,149.75C505.57,149.778,507.604,149.556,509.639,149.694C511.673,149.833,513.708,150.333,515.742,150.722C517.776,151.111,519.811,151.389,521.845,151.333C523.88,151.278,525.914,150.889,527.949,150.611C529.983,150.333,532.017,150.167,534.052,150.111C536.086,150.056,538.121,150.111,540.155,149.972C542.189,149.833,544.224,149.5,546.258,149.472C548.293,149.444,550.327,149.722,552.362,150.028C554.396,150.333,556.43,150.667,558.465,150.583C560.499,150.5,562.534,150,564.568,149.778C566.602,149.556,568.637,149.611,570.671,149.833C572.706,150.056,574.74,150.444,576.775,150.167C578.809,149.889,580.843,148.944,582.878,148.877C584.912,148.81,586.947,149.619,588.981,149.619" stroke="#3D494C" stroke-width="2"/></g></g><path class="foreground" aria-hidden="true" d="" display="none"/></g></g><g class="mark-group role-legend" role="graphics-symbol" aria-roledescription="legend" aria-label="Symbol legend titled 'Network widths' for fill color and stroke color with 5 values: Actor - 1024, Critic - 1024, Critic - 1024, Actor - 200, Critic - 1024, Actor - 1024, Actor - 1024, Critic - 200"><g transform="translate(390,269)"><path class="background" aria-hidden="true" d="M0,0h192v113h-192Z" pointer-events="none"/><g><g class="mark-group role-legend-entry"><g transform="translate(0,25)"><path class="background" aria-hidden="true" d="M0,0h0v0h0Z" pointer-events="none"/><g><g class="mark-group role-scope" role="graphics-object" aria-roledescription="group mark container"><g transform="translate(0,0)"><path class="background" aria-hidden="true" d="M0,0h191.5234375v16h-191.5234375Z" pointer-events="none" opacity="1"/><g><g class="mark-symbol role-legend-symbol" pointer-events="none"><path transform="translate(8,8)" d="M3.536,0A3.536,3.536,0,1,1,-3.536,0A3.536,3.536,0,1,1,3.536,0" fill="#FF4B33" stroke="#FF4B33" stroke-width="1.5" opacity="1"/></g><g class="mark-text role-legend-label" pointer-events="none"><text text-anchor="start" transform="translate(20,13)" font-family="Times New Roman" font-size="16px" fill="#000" opacity="1">Actor - 1024, Critic - 1024</text></g></g><path class="foreground" aria-hidden="true" d="" pointer-events="none" display="none"/></g><g transform="translate(0,18)"><path class="background" aria-hidden="true" d="M0,0h191.5234375v16h-191.5234375Z" pointer-events="none" opacity="1"/><g><g class="mark-symbol role-legend-symbol" pointer-events="none"><path transform="translate(8,8)" d="M3.536,0A3.536,3.536,0,1,1,-3.536,0A3.536,3.536,0,1,1,3.536,0" fill="#B22B24" stroke="#B22B24" stroke-width="1.5" opacity="1"/></g><g class="mark-text role-legend-label" pointer-events="none"><text text-anchor="start" transform="translate(20,13)" font-family="Times New Roman" font-size="16px" fill="#000" opacity="1">Critic - 1024</text></g></g><path class="foreground" aria-hidden="true" d="" pointer-events="none" display="none"/></g><g transform="translate(0,36)"><path class="background" aria-hidden="true" d="M0,0h191.5234375v16h-191.5234375Z" pointer-events="none" opacity="1"/><g><g class="mark-symbol role-legend-symbol" pointer-events="none"><path transform="translate(8,8)" d="M3.536,0A3.536,3.536,0,1,1,-3.536,0A3.536,3.536,0,1,1,3.536,0" fill="#7A1F18" stroke="#7A1F18" stroke-width="1.5" opacity="1"/></g><g class="mark-text role-legend-label" pointer-events="none"><text text-anchor="start" transform="translate(20,13)" font-family="Times New Roman" font-size="16px" fill="#000" opacity="1">Actor - 200, Critic - 1024</text></g></g><path class="foreground" aria-hidden="true" d="" pointer-events="none" display="none"/></g><g transform="translate(0,54)"><path class="background" aria-hidden="true" d="M0,0h191.5234375v16h-191.5234375Z" pointer-events="none" opacity="1"/><g><g class="mark-symbol role-legend-symbol" pointer-events="none"><path transform="translate(8,8)" d="M3.536,0A3.536,3.536,0,1,1,-3.536,0A3.536,3.536,0,1,1,3.536,0" fill="#9DB4BB" stroke="#9DB4BB" stroke-width="1.5" opacity="1"/></g><g class="mark-text role-legend-label" pointer-events="none"><text text-anchor="start" transform="translate(20,13)" font-family="Times New Roman" font-size="16px" fill="#000" opacity="1">Actor - 1024</text></g></g><path class="foreground" aria-hidden="true" d="" pointer-events="none" display="none"/></g><g transform="translate(0,72)"><path class="background" aria-hidden="true" d="M0,0h191.5234375v16h-191.5234375Z" pointer-events="none" opacity="1"/><g><g class="mark-symbol role-legend-symbol" pointer-events="none"><path transform="translate(8,8)" d="M3.536,0A3.536,3.536,0,1,1,-3.536,0A3.536,3.536,0,1,1,3.536,0" fill="#3D494C" stroke="#3D494C" stroke-width="1.5" opacity="1"/></g><g class="mark-text role-legend-label" pointer-events="none"><text text-anchor="start" transform="translate(20,13)" font-family="Times New Roman" font-size="16px" fill="#000" opacity="1">Actor - 1024, Critic - 200</text></g></g><path class="foreground" aria-hidden="true" d="" pointer-events="none" display="none"/></g></g></g><path class="foreground" aria-hidden="true" d="" pointer-events="none" display="none"/></g></g><g class="mark-text role-legend-title" pointer-events="none"><text text-anchor="start" transform="translate(0,16)" font-family="Times New Roman" font-size="20px" font-weight="bold" fill="#000" opacity="1">Network widths</text></g></g><path class="foreground" aria-hidden="true" d="" pointer-events="none" display="none"/></g></g></g><path class="foreground" aria-hidden="true" d="" display="none"/></g></g></g><defs><clipPath id="clip1"><rect x="0" y="0" width="600" height="400"/></clipPath><clipPath id="clip2"><rect x="0" y="0" width="600" height="400"/></clipPath><clipPath id="clip3"><rect x="0" y="0" width="600" height="400"/></clipPath><clipPath id="clip4"><rect x="0" y="0" width="600" height="400"/></clipPath><clipPath id="clip5"><rect x="0" y="0" width="600" height="400"/></clipPath><clipPath id="clip6"><rect x="0" y="0" width="600" height="400"/></clipPath><clipPath id="clip7"><rect x="0" y="0" width="600" height="400"/></clipPath><clipPath id="clip8"><rect x="0" y="0" width="600" height="400"/></clipPath><clipPath id="clip9"><rect x="0" y="0" width="600" height="400"/></clipPath><clipPath id="clip10"><rect x="0" y="0" width="600" height="400"/></clipPath></defs></svg>