<svg xmlns="http://www.w3.org/2000/svg" xmlns:xlink="http://www.w3.org/1999/xlink" version="1.1" class="marks" width="662" height="465" viewBox="0 0 662 465"><rect width="662" height="465" fill="white"/><g fill="none" stroke-miterlimit="10" transform="translate(56,13)"><g class="mark-group role-frame root" role="graphics-object" aria-roledescription="group mark container"><g transform="translate(0,0)"><path class="background" aria-hidden="true" d="M0.5,0.5h600v400h-600Z" stroke="#ddd"/><g><g class="mark-group role-axis" aria-hidden="true"><g transform="translate(0.5,400.5)"><path class="background" aria-hidden="true" d="M0,0h0v0h0Z" pointer-events="none"/><g><g class="mark-rule role-axis-grid" pointer-events="none"><line transform="translate(21,-400)" x2="0" y2="400" stroke="#ddd" stroke-width="1" opacity="1"/><line transform="translate(52,-400)" x2="0" y2="400" stroke="#ddd" stroke-width="1" opacity="1"/><line transform="translate(82,-400)" x2="0" y2="400" stroke="#ddd" stroke-width="1" opacity="1"/><line transform="translate(113,-400)" x2="0" y2="400" stroke="#ddd" stroke-width="1" opacity="1"/><line transform="translate(143,-400)" x2="0" y2="400" stroke="#ddd" stroke-width="1" opacity="1"/><line transform="translate(174,-400)" x2="0" y2="400" stroke="#ddd" stroke-width="1" opacity="1"/><line transform="translate(204,-400)" x2="0" y2="400" stroke="#ddd" stroke-width="1" opacity="1"/><line transform="translate(235,-400)" x2="0" y2="400" stroke="#ddd" stroke-width="1" opacity="1"/><line transform="translate(265,-400)" x2="0" y2="400" stroke="#ddd" stroke-width="1" opacity="1"/><line transform="translate(295,-400)" x2="0" y2="400" stroke="#ddd" stroke-width="1" opacity="1"/><line transform="translate(326,-400)" x2="0" y2="400" stroke="#ddd" stroke-width="1" opacity="1"/><line transform="translate(356,-400)" x2="0" y2="400" stroke="#ddd" stroke-width="1" opacity="1"/><line transform="translate(387,-400)" x2="0" y2="400" stroke="#ddd" stroke-width="1" opacity="1"/><line transform="translate(417,-400)" x2="0" y2="400" stroke="#ddd" stroke-width="1" opacity="1"/><line transform="translate(448,-400)" x2="0" y2="400" stroke="#ddd" stroke-width="1" opacity="1"/><line transform="translate(478,-400)" x2="0" y2="400" stroke="#ddd" stroke-width="1" opacity="1"/><line transform="translate(509,-400)" x2="0" y2="400" stroke="#ddd" stroke-width="1" opacity="1"/><line transform="translate(539,-400)" x2="0" y2="400" stroke="#ddd" stroke-width="1" opacity="1"/><line transform="translate(570,-400)" x2="0" y2="400" stroke="#ddd" stroke-width="1" opacity="1"/><line transform="translate(600,-400)" x2="0" y2="400" stroke="#ddd" stroke-width="1" opacity="1"/></g></g><path class="foreground" aria-hidden="true" d="" pointer-events="none" display="none"/></g></g><g class="mark-group role-axis" aria-hidden="true"><g transform="translate(0.5,0.5)"><path class="background" aria-hidden="true" d="M0,0h0v0h0Z" pointer-events="none"/><g><g class="mark-rule role-axis-grid" pointer-events="none"><line transform="translate(0,400)" x2="600" y2="0" stroke="#ddd" stroke-width="1" opacity="1"/><line transform="translate(0,350)" x2="600" y2="0" stroke="#ddd" stroke-width="1" opacity="1"/><line transform="translate(0,300)" x2="600" y2="0" stroke="#ddd" stroke-width="1" opacity="1"/><line transform="translate(0,250)" x2="600" y2="0" stroke="#ddd" stroke-width="1" opacity="1"/><line transform="translate(0,200)" x2="600" y2="0" stroke="#ddd" stroke-width="1" opacity="1"/><line transform="translate(0,150)" x2="600" y2="0" stroke="#ddd" stroke-width="1" opacity="1"/><line transform="translate(0,100)" x2="600" y2="0" stroke="#ddd" stroke-width="1" opacity="1"/><line transform="translate(0,50)" x2="600" y2="0" stroke="#ddd" stroke-width="1" opacity="1"/><line transform="translate(0,0)" x2="600" y2="0" stroke="#ddd" stroke-width="1" opacity="1"/></g></g><path class="foreground" aria-hidden="true" d="" pointer-events="none" display="none"/></g></g><g class="mark-group role-axis" role="graphics-symbol" aria-roledescription="axis" aria-label="X-axis titled 'Number of environment steps' for a linear scale with values from 0M to 20M"><g transform="translate(0.5,400.5)"><path class="background" aria-hidden="true" d="M0,0h0v0h0Z" pointer-events="none"/><g><g class="mark-rule role-axis-tick" pointer-events="none"><line transform="translate(21,0)" x2="0" y2="5" stroke="#888" stroke-width="1" opacity="1"/><line transform="translate(52,0)" x2="0" y2="5" stroke="#888" stroke-width="1" opacity="1"/><line transform="translate(82,0)" x2="0" y2="5" stroke="#888" stroke-width="1" opacity="1"/><line transform="translate(113,0)" x2="0" y2="5" stroke="#888" stroke-width="1" opacity="1"/><line transform="translate(143,0)" x2="0" y2="5" stroke="#888" stroke-width="1" opacity="1"/><line transform="translate(174,0)" x2="0" y2="5" stroke="#888" stroke-width="1" opacity="1"/><line transform="translate(204,0)" x2="0" y2="5" stroke="#888" stroke-width="1" opacity="1"/><line transform="translate(235,0)" x2="0" y2="5" stroke="#888" stroke-width="1" opacity="1"/><line transform="translate(265,0)" x2="0" y2="5" stroke="#888" stroke-width="1" opacity="1"/><line transform="translate(295,0)" x2="0" y2="5" stroke="#888" stroke-width="1" opacity="1"/><line transform="translate(326,0)" x2="0" y2="5" stroke="#888" stroke-width="1" opacity="1"/><line transform="translate(356,0)" x2="0" y2="5" stroke="#888" stroke-width="1" opacity="1"/><line transform="translate(387,0)" x2="0" y2="5" stroke="#888" stroke-width="1" opacity="1"/><line transform="translate(417,0)" x2="0" y2="5" stroke="#888" stroke-width="1" opacity="1"/><line transform="translate(448,0)" x2="0" y2="5" stroke="#888" stroke-width="1" opacity="1"/><line transform="translate(478,0)" x2="0" y2="5" stroke="#888" stroke-width="1" opacity="1"/><line transform="translate(509,0)" x2="0" y2="5" stroke="#888" stroke-width="1" opacity="1"/><line transform="translate(539,0)" x2="0" y2="5" stroke="#888" stroke-width="1" opacity="1"/><line transform="translate(570,0)" x2="0" y2="5" stroke="#888" stroke-width="1" opacity="1"/><line transform="translate(600,0)" x2="0" y2="5" stroke="#888" stroke-width="1" opacity="1"/></g><g class="mark-text role-axis-label" pointer-events="none"><text text-anchor="middle" transform="translate(21.31979695431472,20)" font-family="Times New Roman" font-size="16px" fill="#000" opacity="1">1M</text><text text-anchor="middle" transform="translate(51.77664974619289,20)" font-family="Times New Roman" font-size="16px" fill="#000" opacity="0">2M</text><text text-anchor="middle" transform="translate(82.23350253807106,20)" font-family="Times New Roman" font-size="16px" fill="#000" opacity="1">3M</text><text text-anchor="middle" transform="translate(112.69035532994924,20)" font-family="Times New Roman" font-size="16px" fill="#000" opacity="0">4M</text><text text-anchor="middle" transform="translate(143.14720812182742,20)" font-family="Times New Roman" font-size="16px" fill="#000" opacity="1">5M</text><text text-anchor="middle" transform="translate(173.60406091370558,20)" font-family="Times New Roman" font-size="16px" fill="#000" opacity="0">6M</text><text text-anchor="middle" transform="translate(204.06091370558377,20)" font-family="Times New Roman" font-size="16px" fill="#000" opacity="1">7M</text><text text-anchor="middle" transform="translate(234.51776649746193,20)" font-family="Times New Roman" font-size="16px" fill="#000" opacity="0">8M</text><text text-anchor="middle" transform="translate(264.97461928934007,20)" font-family="Times New Roman" font-size="16px" fill="#000" opacity="1">9M</text><text text-anchor="middle" transform="translate(295.43147208121826,20)" font-family="Times New Roman" font-size="16px" fill="#000" opacity="0">10M</text><text text-anchor="middle" transform="translate(325.88832487309645,20)" font-family="Times New Roman" font-size="16px" fill="#000" opacity="1">11M</text><text text-anchor="middle" transform="translate(356.34517766497464,20)" font-family="Times New Roman" font-size="16px" fill="#000" opacity="0">12M</text><text text-anchor="middle" transform="translate(386.80203045685283,20)" font-family="Times New Roman" font-size="16px" fill="#000" opacity="1">13M</text><text text-anchor="middle" transform="translate(417.25888324873097,20)" font-family="Times New Roman" font-size="16px" fill="#000" opacity="0">14M</text><text text-anchor="middle" transform="translate(447.71573604060916,20)" font-family="Times New Roman" font-size="16px" fill="#000" opacity="1">15M</text><text text-anchor="middle" transform="translate(478.1725888324873,20)" font-family="Times New Roman" font-size="16px" fill="#000" opacity="0">16M</text><text text-anchor="middle" transform="translate(508.6294416243655,20)" font-family="Times New Roman" font-size="16px" fill="#000" opacity="1">17M</text><text text-anchor="middle" transform="translate(539.0862944162436,20)" font-family="Times New Roman" font-size="16px" fill="#000" opacity="0">18M</text><text text-anchor="middle" transform="translate(569.5431472081218,20)" font-family="Times New Roman" font-size="16px" fill="#000" opacity="1">19M</text><text text-anchor="end" transform="translate(600,20)" font-family="Times New Roman" font-size="16px" fill="#000" opacity="0">20M</text></g><g class="mark-rule role-axis-domain" pointer-events="none"><line transform="translate(0,0)" x2="600" y2="0" stroke="#888" stroke-width="1" opacity="1"/></g><g class="mark-text role-axis-title" pointer-events="none"><text text-anchor="middle" transform="translate(300,43)" font-family="Times New Roman" font-size="20px" font-weight="bold" fill="#000" opacity="1">Number of environment steps</text></g></g><path class="foreground" aria-hidden="true" d="" pointer-events="none" display="none"/></g></g><g class="mark-group role-axis" role="graphics-symbol" aria-roledescription="axis" aria-label="Y-axis titled 'Success rate' for a linear scale with values from 0.2 to 1.0"><g transform="translate(0.5,0.5)"><path class="background" aria-hidden="true" d="M0,0h0v0h0Z" pointer-events="none"/><g><g class="mark-rule role-axis-tick" pointer-events="none"><line transform="translate(0,400)" x2="-5" y2="0" stroke="#888" stroke-width="1" opacity="1"/><line transform="translate(0,350)" x2="-5" y2="0" stroke="#888" stroke-width="1" opacity="1"/><line transform="translate(0,300)" x2="-5" y2="0" stroke="#888" stroke-width="1" opacity="1"/><line transform="translate(0,250)" x2="-5" y2="0" stroke="#888" stroke-width="1" opacity="1"/><line transform="translate(0,200)" x2="-5" y2="0" stroke="#888" stroke-width="1" opacity="1"/><line transform="translate(0,150)" x2="-5" y2="0" stroke="#888" stroke-width="1" opacity="1"/><line transform="translate(0,100)" x2="-5" y2="0" stroke="#888" stroke-width="1" opacity="1"/><line transform="translate(0,50)" x2="-5" y2="0" stroke="#888" stroke-width="1" opacity="1"/><line transform="translate(0,0)" x2="-5" y2="0" stroke="#888" stroke-width="1" opacity="1"/></g><g class="mark-text role-axis-label" pointer-events="none"><text text-anchor="end" transform="translate(-7,405)" font-family="Times New Roman" font-size="16px" fill="#000" opacity="1">0.2</text><text text-anchor="end" transform="translate(-7,355)" font-family="Times New Roman" font-size="16px" fill="#000" opacity="1">0.3</text><text text-anchor="end" transform="translate(-7,305)" font-family="Times New Roman" font-size="16px" fill="#000" opacity="1">0.4</text><text text-anchor="end" transform="translate(-7,255)" font-family="Times New Roman" font-size="16px" fill="#000" opacity="1">0.5</text><text text-anchor="end" transform="translate(-7,205)" font-family="Times New Roman" font-size="16px" fill="#000" opacity="1">0.6</text><text text-anchor="end" transform="translate(-7,155.00000000000006)" font-family="Times New Roman" font-size="16px" fill="#000" opacity="1">0.7</text><text text-anchor="end" transform="translate(-7,104.99999999999996)" font-family="Times New Roman" font-size="16px" fill="#000" opacity="1">0.8</text><text text-anchor="end" transform="translate(-7,55.00000000000004)" font-family="Times New Roman" font-size="16px" fill="#000" opacity="1">0.9</text><text text-anchor="end" transform="translate(-7,5)" font-family="Times New Roman" font-size="16px" fill="#000" opacity="1">1.0</text></g><g class="mark-rule role-axis-domain" pointer-events="none"><line transform="translate(0,400)" x2="0" y2="-400" stroke="#888" stroke-width="1" opacity="1"/></g><g class="mark-text role-axis-title" pointer-events="none"><text text-anchor="middle" transform="translate(-31,200) rotate(-90) translate(0,-4)" font-family="Times New Roman" font-size="20px" font-weight="bold" fill="#000" opacity="1">Success rate</text></g></g><path class="foreground" aria-hidden="true" d="" pointer-events="none" display="none"/></g></g><g class="mark-group role-scope layer_0_layer_0_pathgroup" role="graphics-object" aria-roledescription="group mark container"><g transform="translate(0,0)"><path class="background" aria-hidden="true" d="M0,0h600v400h-600Z"/><g><g class="mark-area role-mark layer_0_layer_0_marks" clip-path="url(#clip1)" role="graphics-object" aria-roledescription="area mark container"><path aria-label="Number of environment steps: 200.38k; Success rate: 0.0814958333333; upper_Success rate: 0.114175; Algorithm: MTMHSAC; Ci1 of Success rate: 0.114175; Ci0 of Success rate: 0.0814958333333; Mean of Success rate: 0.0975" role="graphics-symbol" aria-roledescription="errorband" d="M3.069,416.25C5.104,402.75,7.138,390.5,9.172,378.375C11.207,366.25,13.241,354.25,15.276,342.098C17.31,329.945,19.344,317.64,21.379,307.266C23.413,296.891,25.448,288.447,27.482,278.682C29.517,268.918,31.551,257.834,33.585,250.5C35.62,243.167,37.654,239.583,39.689,231.889C41.723,224.195,43.757,212.39,45.792,205.043C47.826,197.697,49.861,194.808,51.895,189.946C53.93,185.085,55.964,178.251,57.998,174.125C60.033,170,62.067,168.583,64.102,166.07C66.136,163.556,68.17,159.946,70.205,156.38C72.239,152.813,74.274,149.291,76.308,147.805C78.343,146.318,80.377,146.868,82.411,145.948C84.446,145.028,86.48,142.639,88.515,140.775C90.549,138.91,92.583,137.571,94.618,137.58C96.652,137.59,98.687,138.949,100.721,138.716C102.756,138.483,104.79,136.658,106.824,135.671C108.859,134.684,110.893,134.535,112.928,134.397C114.962,134.258,116.996,134.129,119.031,133.939C121.065,133.75,123.1,133.5,125.134,132.986C127.169,132.473,129.203,131.696,131.237,131.043C133.272,130.39,135.306,129.862,137.341,129.653C139.375,129.444,141.409,129.556,143.444,129.179C145.478,128.803,147.513,127.94,149.547,127.301C151.582,126.662,153.616,126.248,155.65,125.444C157.685,124.64,159.719,123.446,161.754,122.821C163.788,122.196,165.822,122.14,167.857,122.001C169.891,121.862,171.926,121.64,173.96,121.029C175.995,120.418,178.029,119.417,180.063,118.681C182.098,117.944,184.132,117.472,186.167,118.172C188.201,118.872,190.235,120.744,192.27,120.539C194.304,120.334,196.339,118.053,198.373,116.784C200.408,115.515,202.442,115.258,204.476,114.866C206.511,114.474,208.545,113.947,210.58,113.474C212.614,113.001,214.648,112.584,216.683,112.091C218.717,111.598,220.752,111.03,222.786,111.541C224.821,112.052,226.855,113.642,228.889,112.783C230.924,111.924,232.958,108.616,234.993,106.522C237.027,104.427,239.061,103.547,241.096,102.842C243.13,102.137,245.165,101.608,247.199,100.456C249.234,99.303,251.268,97.528,253.302,97.432C255.337,97.335,257.371,98.919,259.406,98.086C261.44,97.253,263.474,94.005,265.509,91.327C267.543,88.648,269.578,86.54,271.612,84.845C273.646,83.149,275.681,81.866,277.715,80.572C279.75,79.278,281.784,77.972,283.819,77.278C285.853,76.583,287.887,76.5,289.922,76.222C291.956,75.944,293.991,75.472,296.025,75.736C298.059,76,300.094,77,302.128,76.958C304.163,76.917,306.197,75.833,308.232,74.848C310.266,73.862,312.3,72.974,314.335,72.977C316.369,72.98,318.404,73.875,320.438,74.349C322.472,74.823,324.507,74.877,326.541,74.61C328.576,74.342,330.61,73.755,332.645,73.891C334.679,74.028,336.713,74.889,338.748,74.903C340.782,74.917,342.817,74.083,344.851,74.236C346.885,74.389,348.92,75.528,350.954,75.764C352.989,76,355.023,75.333,357.058,74.158C359.092,72.983,361.126,71.299,363.161,70.869C365.195,70.438,367.23,71.261,369.264,71.825C371.298,72.39,373.333,72.696,375.367,73.557C377.402,74.418,379.436,75.834,381.471,76.348C383.505,76.861,385.539,76.472,387.574,75.431C389.608,74.389,391.643,72.694,393.677,71.875C395.711,71.056,397.746,71.111,399.78,71.722C401.815,72.333,403.849,73.5,405.884,73.694C407.918,73.889,409.952,73.111,411.987,72.583C414.021,72.056,416.056,71.778,418.09,71.889C420.124,72,422.159,72.5,424.193,72.681C426.228,72.862,428.262,72.724,430.297,72.404C432.331,72.085,434.365,71.584,436.4,71.57C438.434,71.556,440.469,72.028,442.503,72.542C444.537,73.056,446.572,73.611,448.606,74.042C450.641,74.473,452.675,74.779,454.71,75.515C456.744,76.251,458.778,77.417,460.813,76.986C462.847,76.556,464.882,74.528,466.916,73.431C468.95,72.333,470.985,72.167,473.019,72.889C475.054,73.611,477.088,75.222,479.123,75.044C481.157,74.865,483.191,72.897,485.226,72.606C487.26,72.314,489.295,73.7,491.329,74.392C493.363,75.083,495.398,75.081,497.432,74.956C499.467,74.83,501.501,74.582,503.536,74.043C505.57,73.504,507.604,72.675,509.639,72.889C511.673,73.103,513.708,74.36,515.742,74.63C517.776,74.899,519.811,74.181,521.845,74.176C523.88,74.17,525.914,74.877,527.949,74.744C529.983,74.611,532.017,73.639,534.052,73.264C536.086,72.889,538.121,73.111,540.155,73.792C542.189,74.472,544.224,75.611,546.258,76.004C548.293,76.397,550.327,76.045,552.362,76.045C554.396,76.045,556.43,76.397,558.465,76.077C560.499,75.756,562.534,74.763,564.568,73.984C566.602,73.205,568.637,72.641,570.671,72.443C572.706,72.246,574.74,72.415,576.775,73.152C578.809,73.889,580.843,75.194,582.878,75.361C584.912,75.528,586.947,74.556,588.981,73.806L588.981,69.511C586.947,70.026,584.912,69.636,582.878,69.219C580.843,68.802,578.809,68.358,576.775,68.164C574.74,67.969,572.706,68.023,570.671,67.934C568.637,67.846,566.602,67.615,564.568,68.241C562.534,68.868,560.499,70.35,558.465,71.056C556.43,71.761,554.396,71.688,552.362,71.563C550.327,71.438,548.293,71.261,546.258,70.672C544.224,70.083,542.189,69.083,540.155,68.611C538.121,68.139,536.086,68.194,534.052,68.889C532.017,69.583,529.983,70.917,527.949,70.875C525.914,70.833,523.88,69.417,521.845,69.196C519.811,68.974,517.776,69.949,515.742,69.667C513.708,69.385,511.673,67.846,509.639,67.456C507.604,67.066,505.57,67.825,503.536,68.478C501.501,69.132,499.467,69.68,497.432,69.986C495.398,70.291,493.363,70.354,491.329,69.578C489.295,68.801,487.26,67.185,485.226,67.477C483.191,67.769,481.157,69.968,479.123,70.484C477.088,71,475.054,69.833,473.019,69.056C470.985,68.278,468.95,67.889,466.916,68.666C464.882,69.444,462.847,71.388,460.813,72.082C458.778,72.776,456.744,72.222,454.71,71.527C452.675,70.833,450.641,70,448.606,69.375C446.572,68.749,444.537,68.332,442.503,68.082C440.469,67.832,438.434,67.749,436.4,68C434.365,68.25,432.331,68.833,430.297,68.841C428.262,68.849,426.228,68.281,424.193,67.933C422.159,67.586,420.124,67.46,418.09,67.369C416.056,67.278,414.021,67.222,411.987,67.652C409.952,68.083,407.918,68.999,405.884,68.79C403.849,68.581,401.815,67.248,399.78,66.817C397.746,66.387,395.711,66.859,393.677,67.693C391.643,68.526,389.608,69.722,387.574,70.597C385.539,71.472,383.505,72.028,381.471,71.805C379.436,71.583,377.402,70.582,375.367,69.693C373.333,68.803,371.298,68.026,369.264,67.48C367.23,66.935,365.195,66.621,363.161,66.635C361.126,66.649,359.092,66.99,357.058,67.883C355.023,68.776,352.989,70.222,350.954,70.5C348.92,70.778,346.885,69.889,344.851,69.861C342.817,69.833,340.782,70.667,338.748,70.5C336.713,70.333,334.679,69.167,332.645,68.809C330.61,68.452,328.576,68.904,326.541,69.468C324.507,70.032,322.472,70.708,320.438,70.357C318.404,70.006,316.369,68.628,314.335,68.564C312.3,68.5,310.266,69.75,308.232,70.875C306.197,72,304.163,73,302.128,72.32C300.094,71.64,298.059,69.281,296.025,68.614C293.991,67.947,291.956,68.972,289.922,69.485C287.887,69.999,285.853,69.999,283.819,70.11C281.784,70.222,279.75,70.443,277.715,70.634C275.681,70.824,273.646,70.983,271.612,71.595C269.578,72.206,267.543,73.268,265.509,74.827C263.474,76.385,261.44,78.44,259.406,79.134C257.371,79.829,255.337,79.165,253.302,79.236C251.268,79.308,249.234,80.115,247.199,80.823C245.165,81.531,243.13,82.138,241.096,82.766C239.061,83.394,237.027,84.042,234.993,85.559C232.958,87.076,230.924,89.461,228.889,90.319C226.855,91.178,224.821,90.509,222.786,91.09C220.752,91.671,218.717,93.501,216.683,94.124C214.648,94.747,212.614,94.163,210.58,94.441C208.545,94.719,206.511,95.86,204.476,96.75C202.442,97.64,200.408,98.281,198.373,99.396C196.339,100.512,194.304,102.102,192.27,102.434C190.235,102.766,188.201,101.84,186.167,102.238C184.132,102.636,182.098,104.358,180.063,105.664C178.029,106.969,175.995,107.86,173.96,109.291C171.926,110.722,169.891,112.694,167.857,113.389C165.822,114.083,163.788,113.5,161.754,113.986C159.719,114.472,157.685,116.026,155.65,117.245C153.616,118.464,151.582,119.348,149.547,119.959C147.513,120.571,145.478,120.91,143.444,121.372C141.409,121.833,139.375,122.417,137.341,123.014C135.306,123.611,133.272,124.222,131.237,125.236C129.203,126.249,127.169,127.665,125.134,128.082C123.1,128.499,121.065,127.916,119.031,127.877C116.996,127.838,114.962,128.342,112.928,128.717C110.893,129.092,108.859,129.338,106.824,130.607C104.79,131.876,102.756,134.169,100.721,134.495C98.687,134.821,96.652,133.179,94.618,133.033C92.583,132.887,90.549,134.235,88.515,135.437C86.48,136.638,84.446,137.693,82.411,138.365C80.377,139.037,78.343,139.326,76.308,140.66C74.274,141.994,72.239,144.372,70.205,146.394C68.17,148.416,66.136,150.082,64.102,151.415C62.067,152.749,60.033,153.749,57.998,156.291C55.964,158.833,53.93,162.915,51.895,167.637C49.861,172.359,47.826,177.72,45.792,185.179C43.757,192.638,41.723,202.194,39.689,209.5C37.654,216.806,35.62,221.861,33.585,229.277C31.551,236.694,29.517,246.471,27.482,255.97C25.448,265.469,23.413,274.691,21.379,285.622C19.344,296.553,17.31,309.193,15.276,321.93C13.241,334.667,11.207,347.5,9.172,360.666C7.138,373.833,5.104,387.332,3.069,401.095Z" fill="#FF4B33" opacity="0.3"/></g></g><path class="foreground" aria-hidden="true" d="" display="none"/></g><g transform="translate(0,0)"><path class="background" aria-hidden="true" d="M0,0h600v400h-600Z"/><g><g class="mark-area role-mark layer_0_layer_0_marks" clip-path="url(#clip2)" role="graphics-object" aria-roledescription="area mark container"><path aria-label="Number of environment steps: 200.38k; Success rate: 0.136; upper_Success rate: 0.154; Algorithm: MTSAC; Ci1 of Success rate: 0.154; Ci0 of Success rate: 0.136; Mean of Success rate: 0.146666666667" role="graphics-symbol" aria-roledescription="errorband" d="M3.069,391C5.104,382,7.138,380,9.172,377.833C11.207,375.667,13.241,373.333,15.276,363.667C17.31,354,19.344,337,21.379,324C23.413,311,25.448,302,27.482,293.667C29.517,285.333,31.551,277.667,33.585,271.667C35.62,265.667,37.654,261.333,39.689,249C41.723,236.667,43.757,216.333,45.792,207.833C47.826,199.333,49.861,202.667,51.895,199.833C53.93,197,55.964,188,57.998,188.167C60.033,188.333,62.067,197.667,64.102,196.167C66.136,194.667,68.17,182.333,70.205,172C72.239,161.667,74.274,153.333,76.308,149C78.343,144.667,80.377,144.333,82.411,143.167C84.446,142,86.48,140,88.515,140.833C90.549,141.667,92.583,145.333,94.618,148C96.652,150.667,98.687,152.333,100.721,150.5C102.756,148.667,104.79,143.333,106.824,142.167C108.859,141,110.893,144,112.928,146.833C114.962,149.667,116.996,152.333,119.031,151.5C121.065,150.667,123.1,146.333,125.134,144.667C127.169,143,129.203,144,131.237,142.333C133.272,140.667,135.306,136.333,137.341,136.167C139.375,136,141.409,140,143.444,141.333C145.478,142.667,147.513,141.333,149.547,137.333C151.582,133.333,153.616,126.667,155.65,124.5C157.685,122.333,159.719,124.667,161.754,124.333C163.788,124,165.822,121,167.857,117.167C169.891,113.333,171.926,108.667,173.96,105.833C175.995,103,178.029,102,180.063,102.167C182.098,102.333,184.132,103.667,186.167,104C188.201,104.333,190.235,103.667,192.27,103.833C194.304,104,196.339,105,198.373,104.667C200.408,104.333,202.442,102.667,204.476,102C206.511,101.333,208.545,101.667,210.58,101.333C212.614,101,214.648,100,216.683,99.5C218.717,99,220.752,99,222.786,99.667C224.821,100.333,226.855,101.667,228.889,101.5C230.924,101.333,232.958,99.667,234.993,97.833C237.027,96,239.061,94,241.096,94.167C243.13,94.333,245.165,96.667,247.199,97.5C249.234,98.333,251.268,97.667,253.302,97C255.337,96.333,257.371,95.667,259.406,95.5C261.44,95.333,263.474,95.667,265.509,96.056C267.543,96.444,269.578,96.889,271.612,97.056C273.646,97.222,275.681,97.111,277.715,97.389C279.75,97.667,281.784,98.333,283.819,98.333C285.853,98.333,287.887,97.667,289.922,96.5C291.956,95.333,293.991,93.667,296.025,93.333C298.059,93,300.094,94,302.128,94C304.163,94,306.197,93,308.232,92.667C310.266,92.333,312.3,92.667,314.335,91.167C316.369,89.667,318.404,86.333,320.438,84C322.472,81.667,324.507,80.333,326.541,79.833C328.576,79.333,330.61,79.667,332.645,81C334.679,82.333,336.713,84.667,338.748,83.5C340.782,82.333,342.817,77.667,344.851,78C346.885,78.333,348.92,83.667,350.954,85.333C352.989,87,355.023,85,357.058,83.667C359.092,82.333,361.126,81.667,363.161,81.333C365.195,81,367.23,81,369.264,80C371.298,79,373.333,77,375.367,78C377.402,79,379.436,83,381.471,86.833C383.505,90.667,385.539,94.333,387.574,96C389.608,97.667,391.643,97.333,393.677,96.167C395.711,95,397.746,93,399.78,90C401.815,87,403.849,83,405.884,80.333C407.918,77.667,409.952,76.333,411.987,78.5C414.021,80.667,416.056,86.333,418.09,87.833C420.124,89.333,422.159,86.667,424.193,85.833C426.228,85,428.262,86,430.297,85C432.331,84,434.365,81,436.4,78.5C438.434,76,440.469,74,442.503,74.167C444.537,74.333,446.572,76.667,448.606,75.833C450.641,75,452.675,71,454.71,70C456.744,69,458.778,71,460.813,72.167C462.847,73.333,464.882,73.667,466.916,72.667C468.95,71.667,470.985,69.333,473.019,71.167C475.054,73,477.088,79,479.123,80.833C481.157,82.667,483.191,80.333,485.226,78.5C487.26,76.667,489.295,75.333,491.329,74.5C493.363,73.667,495.398,73.333,497.432,73.333C499.467,73.333,501.501,73.667,503.536,73.833C505.57,74,507.604,74,509.639,74.5C511.673,75,513.708,76,515.742,75.833C517.776,75.667,519.811,74.333,521.845,73.833C523.88,73.333,525.914,73.667,527.949,74.333C529.983,75,532.017,76,534.052,76.667C536.086,77.333,538.121,77.667,540.155,77.333C542.189,77,544.224,76,546.258,75.333C548.293,74.667,550.327,74.333,552.362,74.833C554.396,75.333,556.43,76.667,558.465,76.167C560.499,75.667,562.534,73.333,564.568,73.5C566.602,73.667,568.637,76.333,570.671,77.667C572.706,79,574.74,79,576.775,79C578.809,79,580.843,79,582.878,79.167C584.912,79.333,586.947,79.667,588.981,78.167L588.981,67.667C586.947,67.667,584.912,68.333,582.878,68C580.843,67.667,578.809,66.333,576.775,65.833C574.74,65.333,572.706,65.667,570.671,65.833C568.637,66,566.602,66,564.568,65.667C562.534,65.333,560.499,64.667,558.465,65.667C556.43,66.667,554.396,69.333,552.362,70C550.327,70.667,548.293,69.333,546.258,68.5C544.224,67.667,542.189,67.333,540.155,67.667C538.121,68,536.086,69,534.052,69.167C532.017,69.333,529.983,68.667,527.949,67.5C525.914,66.333,523.88,64.667,521.845,64.5C519.811,64.333,517.776,65.667,515.742,65.333C513.708,65,511.673,63,509.639,62.167C507.604,61.333,505.57,61.667,503.536,62.167C501.501,62.667,499.467,63.333,497.432,64.667C495.398,66,493.363,68,491.329,68.167C489.295,68.333,487.26,66.667,485.226,64.833C483.191,63,481.157,61,479.123,61.167C477.088,61.333,475.054,63.667,473.019,64.667C470.985,65.667,468.95,65.333,466.916,65C464.882,64.667,462.847,64.333,460.813,64.167C458.778,64,456.744,64,454.71,65.333C452.675,66.667,450.641,69.333,448.606,69.833C446.572,70.333,444.537,68.667,442.503,67.833C440.469,67,438.434,67,436.4,67.167C434.365,67.333,432.331,67.667,430.297,67.611C428.262,67.556,426.228,67.111,424.193,67.611C422.159,68.111,420.124,69.556,418.09,69.611C416.056,69.667,414.021,68.333,411.987,67.833C409.952,67.333,407.918,67.667,405.884,67.333C403.849,67,401.815,66,399.78,65.333C397.746,64.667,395.711,64.333,393.677,66.333C391.643,68.333,389.608,72.667,387.574,74.5C385.539,76.333,383.505,75.667,381.471,73.833C379.436,72,377.402,69,375.367,68C373.333,67,371.298,68,369.264,68.667C367.23,69.333,365.195,69.667,363.161,71.333C361.126,73,359.092,76,357.058,76.5C355.023,77,352.989,75,350.954,73.333C348.92,71.667,346.885,70.333,344.851,69.5C342.817,68.667,340.782,68.333,338.748,68.333C336.713,68.333,334.679,68.667,332.645,69C330.61,69.333,328.576,69.667,326.541,68.833C324.507,68,322.472,66,320.438,65.667C318.404,65.333,316.369,66.667,314.335,66.833C312.3,67,310.266,66,308.232,68.333C306.197,70.667,304.163,76.333,302.128,77.833C300.094,79.333,298.059,76.667,296.025,77.333C293.991,78,291.956,82,289.922,81.667C287.887,81.333,285.853,76.667,283.819,74.5C281.784,72.333,279.75,72.667,277.715,74.333C275.681,76,273.646,79,271.612,80C269.578,81,267.543,80,265.509,79.167C263.474,78.333,261.44,77.667,259.406,75.333C257.371,73,255.337,69,253.302,69C251.268,69,249.234,73,247.199,73.667C245.165,74.333,243.13,71.667,241.096,70.333C239.061,69,237.027,69,234.993,69.167C232.958,69.333,230.924,69.667,228.889,71.5C226.855,73.333,224.821,76.667,222.786,78C220.752,79.333,218.717,78.667,216.683,79C214.648,79.333,212.614,80.667,210.58,80.5C208.545,80.333,206.511,78.667,204.476,77.333C202.442,76,200.408,75,198.373,76C196.339,77,194.304,80,192.27,79.667C190.235,79.333,188.201,75.667,186.167,74.833C184.132,74,182.098,76,180.063,79C178.029,82,175.995,86,173.96,86.5C171.926,87,169.891,84,167.857,84.167C165.822,84.333,163.788,87.667,161.754,89.5C159.719,91.333,157.685,91.667,155.65,93.667C153.616,95.667,151.582,99.333,149.547,102.333C147.513,105.333,145.478,107.667,143.444,111.667C141.409,115.667,139.375,121.333,137.341,124.333C135.306,127.333,133.272,127.667,131.237,128C129.203,128.333,127.169,128.667,125.134,127.333C123.1,126,121.065,123,119.031,122.833C116.996,122.667,114.962,125.333,112.928,127C110.893,128.667,108.859,129.333,106.824,131.333C104.79,133.333,102.756,136.667,100.721,138.167C98.687,139.667,96.652,139.333,94.618,138.833C92.583,138.333,90.549,137.667,88.515,136.833C86.48,136,84.446,135,82.411,136C80.377,137,78.343,140,76.308,142C74.274,144,72.239,145,70.205,145.167C68.17,145.333,66.136,144.667,64.102,145.5C62.067,146.333,60.033,148.667,57.998,149.5C55.964,150.333,53.93,149.667,51.895,151.5C49.861,153.333,47.826,157.667,45.792,161.5C43.757,165.333,41.723,168.667,39.689,180C37.654,191.333,35.62,210.667,33.585,228.5C31.551,246.333,29.517,262.667,27.482,271.5C25.448,280.333,23.413,281.667,21.379,288.667C19.344,295.667,17.31,308.333,15.276,318.333C13.241,328.333,11.207,335.667,9.172,342.833C7.138,350,5.104,357,3.069,370.333Z" fill="#4D130F" opacity="0.3"/></g></g><path class="foreground" aria-hidden="true" d="" display="none"/></g><g transform="translate(0,0)"><path class="background" aria-hidden="true" d="M0,0h600v400h-600Z"/><g><g class="mark-area role-mark layer_0_layer_0_marks" clip-path="url(#clip3)" role="graphics-object" aria-roledescription="area mark container"><path aria-label="Number of environment steps: 200.38k; Success rate: 0.064325; upper_Success rate: 0.124; Algorithm: SAC; Ci1 of Success rate: 0.124; Ci0 of Success rate: 0.064325; Mean of Success rate: 0.0953333333333" role="graphics-symbol" aria-roledescription="errorband" d="M3.069,417.973C5.104,407.111,7.138,404.889,9.172,398.556C11.207,392.222,13.241,381.778,15.276,370.779C17.31,359.781,19.344,348.228,21.379,333.924C23.413,319.619,25.448,302.564,27.482,291.702C29.517,280.84,31.551,276.172,33.585,270.921C35.62,265.669,37.654,259.835,39.689,249.084C41.723,238.333,43.757,222.667,45.792,213.5C47.826,204.333,49.861,201.667,51.895,197.5C53.93,193.333,55.964,187.667,57.998,182.501C60.033,177.336,62.067,172.672,64.102,169.367C66.136,166.063,68.17,164.117,70.205,161.615C72.239,159.114,74.274,156.057,76.308,154.584C78.343,153.111,80.377,153.222,82.411,152.556C84.446,151.89,86.48,150.447,88.515,150.107C90.549,149.766,92.583,150.528,94.618,148.916C96.652,147.304,98.687,143.319,100.721,141.632C102.756,139.944,104.79,140.556,106.824,141.028C108.859,141.501,110.893,141.836,112.928,141.614C114.962,141.392,116.996,140.613,119.031,139.14C121.065,137.667,123.1,135.5,125.134,135.933C127.169,136.365,129.203,139.397,131.237,139.648C133.272,139.898,135.306,137.368,137.341,135.186C139.375,133.004,141.409,131.171,143.444,131.421C145.478,131.671,147.513,134.004,149.547,133.71C151.582,133.415,153.616,130.493,155.65,129.159C157.685,127.825,159.719,128.079,161.754,126.93C163.788,125.781,165.822,123.228,167.857,122.553C169.891,121.879,171.926,123.082,173.96,121.442C175.995,119.802,178.029,115.317,180.063,114.771C182.098,114.224,184.132,117.614,186.167,118.336C188.201,119.058,190.235,117.113,192.27,116.501C194.304,115.889,196.339,116.611,198.373,116.639C200.408,116.667,202.442,116,204.476,115.5C206.511,115,208.545,114.667,210.58,113.556C212.614,112.444,214.648,110.556,216.683,108.972C218.717,107.389,220.752,106.111,222.786,104.639C224.821,103.167,226.855,101.5,228.889,100.39C230.924,99.279,232.958,98.725,234.993,98.031C237.027,97.336,239.061,96.501,241.096,95.901C243.13,95.302,245.165,94.937,247.199,94.381C249.234,93.825,251.268,93.079,253.302,91.762C255.337,90.444,257.371,88.556,259.406,88.306C261.44,88.056,263.474,89.444,265.509,88.694C267.543,87.944,269.578,85.056,271.612,83.274C273.646,81.492,275.681,80.817,277.715,79.54C279.75,78.262,281.784,76.381,283.819,76.607C285.853,76.833,287.887,79.167,289.922,80.583C291.956,82,293.991,82.5,296.025,82.028C298.059,81.557,300.094,80.114,302.128,82.662C304.163,85.209,306.197,91.747,308.232,92.441C310.266,93.135,312.3,87.984,314.335,86.325C316.369,84.667,318.404,86.5,320.438,86.056C322.472,85.613,324.507,82.892,326.541,80.753C328.576,78.614,330.61,77.057,332.645,77.667C334.679,78.278,336.713,81.056,338.748,80.639C340.782,80.222,342.817,76.611,344.851,74.567C346.885,72.524,348.92,72.048,350.954,72.929C352.989,73.81,355.023,76.048,357.058,76.647C359.092,77.246,361.126,76.206,363.161,76.659C365.195,77.111,367.23,79.056,369.264,79.501C371.298,79.946,373.333,78.892,375.367,78.535C377.402,78.177,379.436,78.517,381.471,78.989C383.505,79.46,385.539,80.063,387.574,80.893C389.608,81.722,391.643,82.778,393.677,83.667C395.711,84.556,397.746,85.278,399.78,83.611C401.815,81.944,403.849,77.889,405.884,75.889C407.918,73.889,409.952,73.944,411.987,73.444C414.021,72.944,416.056,71.889,418.09,72C420.124,72.111,422.159,73.389,424.193,73.5C426.228,73.611,428.262,72.556,430.297,72.056C432.331,71.556,434.365,71.611,436.4,70.5C438.434,69.389,440.469,67.111,442.503,67.278C444.537,67.444,446.572,70.056,448.606,70.667C450.641,71.278,452.675,69.889,454.71,71.016C456.744,72.143,458.778,75.786,460.813,76.425C462.847,77.065,464.882,74.701,466.916,73.741C468.95,72.781,470.985,73.224,473.019,73.286C475.054,73.349,477.088,73.032,479.123,73.365C481.157,73.698,483.191,74.683,485.226,74.147C487.26,73.611,489.295,71.556,491.329,70.306C493.363,69.056,495.398,68.611,497.432,69.79C499.467,70.969,501.501,73.772,503.536,74.106C505.57,74.439,507.604,72.303,509.639,71.485C511.673,70.667,513.708,71.167,515.742,70.917C517.776,70.667,519.811,69.667,521.845,69.778C523.88,69.889,525.914,71.111,527.949,72.238C529.983,73.365,532.017,74.397,534.052,74.397C536.086,74.397,538.121,73.365,540.155,73.321C542.189,73.278,544.224,74.222,546.258,74.095C548.293,73.968,550.327,72.77,552.362,71.687C554.396,70.603,556.43,69.635,558.465,69.945C560.499,70.255,562.534,71.844,564.568,72.844C566.602,73.845,568.637,74.258,570.671,73.991C572.706,73.725,574.74,72.779,576.775,72.917C578.809,73.056,580.843,74.278,582.878,75.444C584.912,76.611,586.947,77.722,588.981,77.14L588.981,70.508C586.947,70.667,584.912,68.667,582.878,67.889C580.843,67.111,578.809,67.556,576.775,67.5C574.74,67.444,572.706,66.889,570.671,66.746C568.637,66.603,566.602,66.873,564.568,66.762C562.534,66.651,560.499,66.159,558.465,66.325C556.43,66.492,554.396,67.317,552.362,67.206C550.327,67.095,548.293,66.048,546.258,65.302C544.224,64.556,542.189,64.111,540.155,64.635C538.121,65.159,536.086,66.651,534.052,66.929C532.017,67.206,529.983,66.27,527.949,65.829C525.914,65.389,523.88,65.444,521.845,65.833C519.811,66.222,517.776,66.944,515.742,66.806C513.708,66.667,511.673,65.667,509.639,65.889C507.604,66.111,505.57,67.556,503.536,67.083C501.501,66.611,499.467,64.222,497.432,62.972C495.398,61.722,493.363,61.611,491.329,62.222C489.295,62.833,487.26,64.167,485.226,64.845C483.191,65.524,481.157,65.548,479.123,66.048C477.088,66.548,475.054,67.524,473.019,68.179C470.985,68.833,468.95,69.167,466.916,69.369C464.882,69.571,462.847,69.643,460.813,68.865C458.778,68.087,456.744,66.46,454.71,65.369C452.675,64.278,450.641,63.722,448.606,63.278C446.572,62.833,444.537,62.5,442.503,62.667C440.469,62.833,438.434,63.5,436.4,64.306C434.365,65.111,432.331,66.056,430.297,66.417C428.262,66.778,426.228,66.556,424.193,66.139C422.159,65.722,420.124,65.111,418.09,65.194C416.056,65.278,414.021,66.056,411.987,66.472C409.952,66.889,407.918,66.944,405.884,68.138C403.849,69.332,401.815,71.664,399.78,72.469C397.746,73.275,395.711,72.554,393.677,72.583C391.643,72.611,389.608,73.389,387.574,72.654C385.539,71.919,383.505,69.672,381.471,68.256C379.436,66.839,377.402,66.253,375.367,67.46C373.333,68.667,371.298,71.667,369.264,71.889C367.23,72.111,365.195,69.556,363.161,69.683C361.126,69.81,359.092,72.619,357.058,72.857C355.023,73.095,352.989,70.762,350.954,69.329C348.92,67.895,346.885,67.362,344.851,68.541C342.817,69.719,340.782,72.61,338.748,72.666C336.713,72.722,334.679,69.944,332.645,68.75C330.61,67.556,328.576,67.944,326.541,69.944C324.507,71.944,322.472,75.556,320.438,76.333C318.404,77.111,316.369,75.056,314.335,73.694C312.3,72.332,310.266,71.664,308.232,70.998C306.197,70.331,304.163,69.665,302.128,69.861C300.094,70.056,298.059,71.111,296.025,71.528C293.991,71.944,291.956,71.722,289.922,71.417C287.887,71.111,285.853,70.722,283.819,70.614C281.784,70.507,279.75,70.68,277.715,71.208C275.681,71.736,273.646,72.618,271.612,73.087C269.578,73.556,267.543,73.611,265.509,73.472C263.474,73.333,261.44,73,259.406,73.944C257.371,74.888,255.337,77.108,253.302,78.044C251.268,78.98,249.234,78.631,247.199,79.549C245.165,80.466,243.13,82.65,241.096,84.075C239.061,85.5,237.027,86.167,234.993,86.389C232.958,86.611,230.924,86.389,228.889,85.722C226.855,85.056,224.821,83.944,222.786,83.833C220.752,83.721,218.717,84.608,216.683,85.025C214.648,85.442,212.614,85.388,210.58,87.303C208.545,89.219,206.511,93.106,204.476,94.633C202.442,96.161,200.408,95.331,198.373,94.776C196.339,94.222,194.304,93.944,192.27,93.694C190.235,93.443,188.201,93.219,186.167,93.274C184.132,93.328,182.098,93.66,180.063,94.969C178.029,96.278,175.995,98.564,173.96,99.149C171.926,99.733,169.891,98.617,167.857,98.281C165.822,97.944,163.788,98.389,161.754,100.21C159.719,102.032,157.685,105.23,155.65,107.925C153.616,110.619,151.582,112.81,149.547,114.182C147.513,115.554,145.478,116.108,143.444,117.803C141.409,119.497,139.375,122.332,137.341,125.079C135.306,127.825,133.272,130.484,131.237,130.79C129.203,131.095,127.169,129.048,125.134,128.107C123.1,127.167,121.065,127.333,119.031,128.444C116.996,129.556,114.962,131.611,112.928,132.639C110.893,133.667,108.859,133.667,106.824,133.888C104.79,134.11,102.756,134.553,100.721,136.132C98.687,137.712,96.652,140.427,94.618,141.845C92.583,143.262,90.549,143.381,88.515,144.079C86.48,144.778,84.446,146.056,82.411,146.222C80.377,146.389,78.343,145.444,76.308,145.611C74.274,145.778,72.239,147.056,70.205,148.194C68.17,149.333,66.136,150.333,64.102,151.917C62.067,153.5,60.033,155.667,57.998,158.555C55.964,161.443,53.93,165.053,51.895,170.025C49.861,174.997,47.826,181.332,45.792,189.222C43.757,197.111,41.723,206.556,39.689,213.861C37.654,221.167,35.62,226.333,33.585,233.083C31.551,239.833,29.517,248.167,27.482,258.277C25.448,268.388,23.413,280.275,21.379,293.692C19.344,307.108,17.31,322.054,15.276,335.86C13.241,349.667,11.207,362.333,9.172,370.055C7.138,377.776,5.104,380.553,3.069,391.053Z" fill="#3D494C" opacity="0.3"/></g></g><path class="foreground" aria-hidden="true" d="" display="none"/></g></g><g class="mark-group role-scope layer_1_pathgroup" role="graphics-object" aria-roledescription="group mark container"><g transform="translate(0,0)"><path class="background" aria-hidden="true" d="M0,0h600v400h-600Z"/><g><g class="mark-line role-mark layer_1_marks" clip-path="url(#clip4)" role="graphics-object" aria-roledescription="line mark container"><path aria-label="Number of environment steps: 200.38k; Success rate: 0.0975; Algorithm: MTMHSAC" role="graphics-symbol" aria-roledescription="line mark" d="M3.069,408.847C5.104,395.222,7.138,382.361,9.172,369.806C11.207,357.25,13.241,345,15.276,332.458C17.31,319.917,19.344,307.083,21.379,296.25C23.413,285.417,25.448,276.583,27.482,266.972C29.517,257.361,31.551,246.972,33.585,239.611C35.62,232.25,37.654,227.917,39.689,220.542C41.723,213.167,43.757,202.75,45.792,195.375C47.826,188,49.861,183.667,51.895,178.694C53.93,173.722,55.964,168.111,57.998,164.736C60.033,161.361,62.067,160.222,64.102,158.333C66.136,156.444,68.17,153.806,70.205,151.048C72.239,148.291,74.274,145.415,76.308,144.04C78.343,142.665,80.377,142.791,82.411,142.02C84.446,141.25,86.48,139.583,88.515,138.059C90.549,136.534,92.583,135.152,94.618,135.217C96.652,135.282,98.687,136.795,100.721,136.528C102.756,136.261,104.79,134.214,106.824,133.111C108.859,132.009,110.893,131.85,112.928,131.559C114.962,131.267,116.996,130.842,119.031,130.754C121.065,130.667,123.1,130.917,125.134,130.5C127.169,130.083,129.203,129,131.237,128.153C133.272,127.306,135.306,126.694,137.341,126.306C139.375,125.917,141.409,125.75,143.444,125.351C145.478,124.953,147.513,124.323,149.547,123.656C151.582,122.989,153.616,122.286,155.65,121.296C157.685,120.306,159.719,119.028,161.754,118.5C163.788,117.972,165.822,118.194,167.857,117.833C169.891,117.472,171.926,116.528,173.96,115.528C175.995,114.528,178.029,113.472,180.063,112.5C182.098,111.528,184.132,110.639,186.167,110.903C188.201,111.167,190.235,112.583,192.27,112.228C194.304,111.872,196.339,109.744,198.373,108.535C200.408,107.327,202.442,107.038,204.476,106.366C206.511,105.694,208.545,104.639,210.58,104.194C212.614,103.75,214.648,103.917,216.683,103.371C218.717,102.825,220.752,101.566,222.786,101.463C224.821,101.359,226.855,102.41,228.889,101.513C230.924,100.615,232.958,97.769,234.993,95.998C237.027,94.226,239.061,93.53,241.096,92.812C243.13,92.094,245.165,91.355,247.199,90.257C249.234,89.16,251.268,87.705,253.302,87.491C255.337,87.278,257.371,88.306,259.406,87.514C261.44,86.722,263.474,84.111,265.509,82.056C267.543,80,269.578,78.5,271.612,77.403C273.646,76.306,275.681,75.611,277.715,75.014C279.75,74.417,281.784,73.917,283.819,73.639C285.853,73.361,287.887,73.306,289.922,72.864C291.956,72.423,293.991,71.596,296.025,72.054C298.059,72.513,300.094,74.256,302.128,74.587C304.163,74.917,306.197,73.833,308.232,72.778C310.266,71.722,312.3,70.694,314.335,70.749C316.369,70.803,318.404,71.94,320.438,72.365C322.472,72.789,324.507,72.502,326.541,72.086C328.576,71.671,330.61,71.127,332.645,71.341C334.679,71.556,336.713,72.528,338.748,72.583C340.782,72.639,342.817,71.778,344.851,71.833C346.885,71.889,348.92,72.861,350.954,72.875C352.989,72.889,355.023,71.944,357.058,70.959C359.092,69.974,361.126,68.949,363.161,68.713C365.195,68.476,367.23,69.03,369.264,69.584C371.298,70.139,373.333,70.694,375.367,71.569C377.402,72.444,379.436,73.639,381.471,74C383.505,74.361,385.539,73.889,387.574,72.944C389.608,72,391.643,70.583,393.677,69.75C395.711,68.917,397.746,68.667,399.78,69.194C401.815,69.722,403.849,71.028,405.884,71.264C407.918,71.5,409.952,70.667,411.987,70.181C414.021,69.694,416.056,69.556,418.09,69.619C420.124,69.683,422.159,69.948,424.193,70.198C426.228,70.448,428.262,70.683,430.297,70.536C432.331,70.389,434.365,69.861,436.4,69.778C438.434,69.694,440.469,70.056,442.503,70.403C444.537,70.75,446.572,71.083,448.606,71.583C450.641,72.083,452.675,72.75,454.71,73.5C456.744,74.25,458.778,75.083,460.813,74.5C462.847,73.917,464.882,71.917,466.916,70.986C468.95,70.056,470.985,70.194,473.019,70.958C475.054,71.722,477.088,73.111,479.123,72.758C481.157,72.405,483.191,70.31,485.226,70.018C487.26,69.726,489.295,71.238,491.329,71.984C493.363,72.731,495.398,72.712,497.432,72.489C499.467,72.267,501.501,71.842,503.536,71.239C505.57,70.637,507.604,69.857,509.639,70.146C511.673,70.436,513.708,71.795,515.742,72.038C517.776,72.282,519.811,71.41,521.845,71.537C523.88,71.665,525.914,72.791,527.949,72.798C529.983,72.806,532.017,71.694,534.052,71.153C536.086,70.611,538.121,70.639,540.155,71.181C542.189,71.722,544.224,72.778,546.258,73.282C548.293,73.786,550.327,73.739,552.362,73.823C554.396,73.906,556.43,74.12,558.465,73.594C560.499,73.068,562.534,71.803,564.568,71.094C566.602,70.385,568.637,70.231,570.671,70.155C572.706,70.079,574.74,70.081,576.775,70.541C578.809,71,580.843,71.917,582.878,72.25C584.912,72.583,586.947,72.333,588.981,71.72" stroke="#FF4B33" stroke-width="2"/></g></g><path class="foreground" aria-hidden="true" d="" display="none"/></g><g transform="translate(0,0)"><path class="background" aria-hidden="true" d="M0,0h600v400h-600Z"/><g><g class="mark-line role-mark layer_1_marks" clip-path="url(#clip5)" role="graphics-object" aria-roledescription="line mark container"><path aria-label="Number of environment steps: 200.38k; Success rate: 0.146666666667; Algorithm: MTSAC" role="graphics-symbol" aria-roledescription="line mark" d="M3.069,379.333C5.104,368.667,7.138,365.667,9.172,360.111C11.207,354.556,13.241,346.444,15.276,336.056C17.31,325.667,19.344,313,21.379,304.056C23.413,295.111,25.448,289.889,27.482,281.056C29.517,272.222,31.551,259.778,33.585,247.889C35.62,236,37.654,224.667,39.689,212.444C41.723,200.222,43.757,187.111,45.792,179.833C47.826,172.556,49.861,171.111,51.895,168.889C53.93,166.667,55.964,163.667,57.998,163.389C60.033,163.111,62.067,165.556,64.102,164.833C66.136,164.111,68.17,160.222,70.205,156.222C72.239,152.222,74.274,148.111,76.308,145.444C78.343,142.778,80.377,141.556,82.411,140.5C84.446,139.444,86.48,138.556,88.515,139C90.549,139.444,92.583,141.222,94.618,142.611C96.652,144,98.687,145,100.721,143.444C102.756,141.889,104.79,137.778,106.824,136.278C108.859,134.778,110.893,135.889,112.928,136.167C114.962,136.444,116.996,135.889,119.031,135.389C121.065,134.889,123.1,134.444,125.134,134.333C127.169,134.222,129.203,134.444,131.237,133.778C133.272,133.111,135.306,131.556,137.341,129.667C139.375,127.778,141.409,125.556,143.444,124.167C145.478,122.778,147.513,122.222,149.547,119.444C151.582,116.667,153.616,111.667,155.65,108.722C157.685,105.778,159.719,104.889,161.754,102.722C163.788,100.556,165.822,97.111,167.857,95.667C169.891,94.222,171.926,94.778,173.96,94.222C175.995,93.667,178.029,92,180.063,90.833C182.098,89.667,184.132,89,186.167,89.278C188.201,89.556,190.235,90.778,192.27,90.333C194.304,89.889,196.339,87.778,198.373,87.278C200.408,86.778,202.442,87.889,204.476,89.333C206.511,90.778,208.545,92.556,210.58,92.5C212.614,92.444,214.648,90.556,216.683,89.222C218.717,87.889,220.752,87.111,222.786,86.778C224.821,86.444,226.855,86.556,228.889,86.056C230.924,85.556,232.958,84.444,234.993,83.5C237.027,82.556,239.061,81.778,241.096,82.611C243.13,83.444,245.165,85.889,247.199,85.333C249.234,84.778,251.268,81.222,253.302,80.5C255.337,79.778,257.371,81.889,259.406,83.5C261.44,85.111,263.474,86.222,265.509,87.278C267.543,88.333,269.578,89.333,271.612,88.389C273.646,87.444,275.681,84.556,277.715,83.278C279.75,82,281.784,82.333,283.819,83.944C285.853,85.556,287.887,88.444,289.922,88C291.956,87.556,293.991,83.778,296.025,83.278C298.059,82.778,300.094,85.556,302.128,85.278C304.163,85,306.197,81.667,308.232,80.333C310.266,79,312.3,79.667,314.335,78.944C316.369,78.222,318.404,76.111,320.438,74.972C322.472,73.833,324.507,73.667,326.541,73.5C328.576,73.333,330.61,73.167,332.645,73.917C334.679,74.667,336.713,76.333,338.748,76.056C340.782,75.778,342.817,73.556,344.851,73.778C346.885,74,348.92,76.667,350.954,78.389C352.989,80.111,355.023,80.889,357.058,80.222C359.092,79.556,361.126,77.444,363.161,76.222C365.195,75,367.23,74.667,369.264,73.667C371.298,72.667,373.333,71,375.367,71.778C377.402,72.556,379.436,75.778,381.471,78.389C383.505,81,385.539,83,387.574,82.722C389.608,82.444,391.643,79.889,393.677,78.556C395.711,77.222,397.746,77.111,399.78,76.667C401.815,76.222,403.849,75.444,405.884,74.444C407.918,73.444,409.952,72.222,411.987,73.278C414.021,74.333,416.056,77.667,418.09,78.056C420.124,78.444,422.159,75.889,424.193,75.111C426.228,74.333,428.262,75.333,430.297,75.111C432.331,74.889,434.365,73.444,436.4,72.167C438.434,70.889,440.469,69.778,442.503,70.556C444.537,71.333,446.572,74,448.606,73.389C450.641,72.778,452.675,68.889,454.71,67.5C456.744,66.111,458.778,67.222,460.813,67.944C462.847,68.667,464.882,69,466.916,68.667C468.95,68.333,470.985,67.333,473.019,67.611C475.054,67.889,477.088,69.444,479.123,70.111C481.157,70.778,483.191,70.556,485.226,70.611C487.26,70.667,489.295,71,491.329,70.556C493.363,70.111,495.398,68.889,497.432,68.444C499.467,68,501.501,68.333,503.536,68.306C505.57,68.278,507.604,67.889,509.639,68.333C511.673,68.778,513.708,70.056,515.742,69.972C517.776,69.889,519.811,68.444,521.845,68.222C523.88,68,525.914,69,527.949,69.944C529.983,70.889,532.017,71.778,534.052,72.389C536.086,73,538.121,73.333,540.155,73.056C542.189,72.778,544.224,71.889,546.258,71.722C548.293,71.556,550.327,72.111,552.362,71.889C554.396,71.667,556.43,70.667,558.465,69.833C560.499,69,562.534,68.333,564.568,68.667C566.602,69,568.637,70.333,570.671,71.389C572.706,72.444,574.74,73.222,576.775,73.389C578.809,73.556,580.843,73.111,582.878,73.056C584.912,73,586.947,73.333,588.981,72.833" stroke="#4D130F" stroke-width="2"/></g></g><path class="foreground" aria-hidden="true" d="" display="none"/></g><g transform="translate(0,0)"><path class="background" aria-hidden="true" d="M0,0h600v400h-600Z"/><g><g class="mark-line role-mark layer_1_marks" clip-path="url(#clip6)" role="graphics-object" aria-roledescription="line mark container"><path aria-label="Number of environment steps: 200.38k; Success rate: 0.0953333333333; Algorithm: SAC" role="graphics-symbol" aria-roledescription="line mark" d="M3.069,403.444C5.104,392.778,7.138,390.556,9.172,384C11.207,377.444,13.241,366.556,15.276,354.083C17.31,341.611,19.344,327.556,21.379,313.417C23.413,299.278,25.448,285.056,27.482,274.944C29.517,264.833,31.551,258.833,33.585,252.75C35.62,246.667,37.654,240.5,39.689,231.25C41.723,222,43.757,209.667,45.792,201.25C47.826,192.833,49.861,188.333,51.895,183.694C53.93,179.056,55.964,174.278,57.998,170.222C60.033,166.167,62.067,162.833,64.102,160.333C66.136,157.833,68.17,156.167,70.205,154.528C72.239,152.889,74.274,151.278,76.308,150.583C78.343,149.889,80.377,150.111,82.411,149.556C84.446,149,86.48,147.667,88.515,147.087C90.549,146.508,92.583,146.683,94.618,145.155C96.652,143.627,98.687,140.397,100.721,138.81C102.756,137.222,104.79,137.278,106.824,137.444C108.859,137.611,110.893,137.889,112.928,137.306C114.962,136.722,116.996,135.278,119.031,133.972C121.065,132.667,123.1,131.5,125.134,132.266C127.169,133.032,129.203,135.73,131.237,135.702C133.272,135.675,135.306,132.921,137.341,130.294C139.375,127.667,141.409,125.167,143.444,124.444C145.478,123.722,147.513,124.778,149.547,124.095C151.582,123.413,153.616,120.992,155.65,118.964C157.685,116.937,159.719,115.302,161.754,113.651C163.788,112,165.822,110.333,167.857,110.127C169.891,109.921,171.926,111.175,173.96,110.091C175.995,109.008,178.029,105.587,180.063,104.794C182.098,104,184.132,105.833,186.167,106.222C188.201,106.611,190.235,105.556,192.27,105.139C194.304,104.722,196.339,104.944,198.373,105.194C200.408,105.444,202.442,105.722,204.476,104.833C206.511,103.944,208.545,101.889,210.58,100.167C212.614,98.444,214.648,97.056,216.683,95.944C218.717,94.833,220.752,94,222.786,93.417C224.821,92.833,226.855,92.5,228.889,92.333C230.924,92.167,232.958,92.167,234.993,91.833C237.027,91.5,239.061,90.833,241.096,89.829C243.13,88.825,245.165,87.484,247.199,86.762C249.234,86.04,251.268,85.937,253.302,84.802C255.337,83.667,257.371,81.5,259.406,80.5C261.44,79.5,263.474,79.667,265.509,79.417C267.543,79.167,269.578,78.5,271.612,77.718C273.646,76.937,275.681,76.04,277.715,75.151C279.75,74.262,281.784,73.381,283.819,73.746C285.853,74.111,287.887,75.722,289.922,76.444C291.956,77.167,293.991,77,296.025,76.361C298.059,75.722,300.094,74.611,302.128,75.687C304.163,76.762,306.197,80.024,308.232,80.718C310.266,81.413,312.3,79.54,314.335,79.603C316.369,79.667,318.404,81.667,320.438,81.111C322.472,80.556,324.507,77.444,326.541,75.389C328.576,73.333,330.61,72.333,332.645,73.194C334.679,74.056,336.713,76.778,338.748,76.639C340.782,76.5,342.817,73.5,344.851,71.94C346.885,70.381,348.92,70.262,350.954,71.321C352.989,72.381,355.023,74.619,357.058,74.79C359.092,74.96,361.126,73.063,363.161,73.171C365.195,73.278,367.23,75.389,369.264,75.528C371.298,75.667,373.333,73.833,375.367,73.06C377.402,72.286,379.436,72.571,381.471,73.46C383.505,74.349,385.539,75.841,387.574,76.56C389.608,77.278,391.643,77.222,393.677,77.667C395.711,78.111,397.746,79.056,399.78,77.944C401.815,76.833,403.849,73.667,405.884,72.028C407.918,70.389,409.952,70.278,411.987,69.806C414.021,69.333,416.056,68.5,418.09,68.528C420.124,68.556,422.159,69.444,424.193,69.722C426.228,70,428.262,69.667,430.297,69.222C432.331,68.778,434.365,68.222,436.4,67.25C438.434,66.278,440.469,64.889,442.503,64.944C444.537,65,446.572,66.5,448.606,67.028C450.641,67.556,452.675,67.111,454.71,68.206C456.744,69.302,458.778,71.937,460.813,72.631C462.847,73.325,464.882,72.079,466.916,71.456C468.95,70.833,470.985,70.833,473.019,70.552C475.054,70.27,477.088,69.706,479.123,69.706C481.157,69.706,483.191,70.27,485.226,69.635C487.26,69,489.295,67.167,491.329,66.111C493.363,65.056,495.398,64.778,497.432,66.032C499.467,67.286,501.501,70.071,503.536,70.544C505.57,71.016,507.604,69.175,509.639,68.643C511.673,68.111,513.708,68.889,515.742,68.861C517.776,68.833,519.811,68,521.845,67.861C523.88,67.722,525.914,68.278,527.949,69.06C529.983,69.841,532.017,70.849,534.052,70.71C536.086,70.571,538.121,69.286,540.155,69.004C542.189,68.722,544.224,69.444,546.258,69.754C548.293,70.063,550.327,69.96,552.362,69.46C554.396,68.96,556.43,68.063,558.465,68.135C560.499,68.206,562.534,69.246,564.568,69.802C566.602,70.357,568.637,70.429,570.671,70.353C572.706,70.278,574.74,70.056,576.775,70.167C578.809,70.278,580.843,70.722,582.878,71.722C584.912,72.722,586.947,74.278,588.981,73.917" stroke="#3D494C" stroke-width="2"/></g></g><path class="foreground" aria-hidden="true" d="" display="none"/></g></g><g class="mark-group role-legend" role="graphics-symbol" aria-roledescription="legend" aria-label="Symbol legend titled 'Algorithm' for fill color and stroke color with 3 values: MTMHSAC, MTSAC, SAC"><g transform="translate(481,305)"><path class="background" aria-hidden="true" d="M0,0h101v77h-101Z" pointer-events="none"/><g><g class="mark-group role-legend-entry"><g transform="translate(0,25)"><path class="background" aria-hidden="true" d="M0,0h0v0h0Z" pointer-events="none"/><g><g class="mark-group role-scope" role="graphics-object" aria-roledescription="group mark container"><g transform="translate(0,0)"><path class="background" aria-hidden="true" d="M0,0h100.90625v16h-100.90625Z" pointer-events="none" opacity="1"/><g><g class="mark-symbol role-legend-symbol" pointer-events="none"><path transform="translate(8,8)" d="M3.536,0A3.536,3.536,0,1,1,-3.536,0A3.536,3.536,0,1,1,3.536,0" fill="#FF4B33" stroke="#FF4B33" stroke-width="1.5" opacity="1"/></g><g class="mark-text role-legend-label" pointer-events="none"><text text-anchor="start" transform="translate(20,13)" font-family="Times New Roman" font-size="16px" fill="#000" opacity="1">MTMHSAC</text></g></g><path class="foreground" aria-hidden="true" d="" pointer-events="none" display="none"/></g><g transform="translate(0,18)"><path class="background" aria-hidden="true" d="M0,0h100.90625v16h-100.90625Z" pointer-events="none" opacity="1"/><g><g class="mark-symbol role-legend-symbol" pointer-events="none"><path transform="translate(8,8)" d="M3.536,0A3.536,3.536,0,1,1,-3.536,0A3.536,3.536,0,1,1,3.536,0" fill="#4D130F" stroke="#4D130F" stroke-width="1.5" opacity="1"/></g><g class="mark-text role-legend-label" pointer-events="none"><text text-anchor="start" transform="translate(20,13)" font-family="Times New Roman" font-size="16px" fill="#000" opacity="1">MTSAC</text></g></g><path class="foreground" aria-hidden="true" d="" pointer-events="none" display="none"/></g><g transform="translate(0,36)"><path class="background" aria-hidden="true" d="M0,0h100.90625v16h-100.90625Z" pointer-events="none" opacity="1"/><g><g class="mark-symbol role-legend-symbol" pointer-events="none"><path transform="translate(8,8)" d="M3.536,0A3.536,3.536,0,1,1,-3.536,0A3.536,3.536,0,1,1,3.536,0" fill="#3D494C" stroke="#3D494C" stroke-width="1.5" opacity="1"/></g><g class="mark-text role-legend-label" pointer-events="none"><text text-anchor="start" transform="translate(20,13)" font-family="Times New Roman" font-size="16px" fill="#000" opacity="1">SAC</text></g></g><path class="foreground" aria-hidden="true" d="" pointer-events="none" display="none"/></g></g></g><path class="foreground" aria-hidden="true" d="" pointer-events="none" display="none"/></g></g><g class="mark-text role-legend-title" pointer-events="none"><text text-anchor="start" transform="translate(0,16)" font-family="Times New Roman" font-size="20px" font-weight="bold" fill="#000" opacity="1">Algorithm</text></g></g><path class="foreground" aria-hidden="true" d="" pointer-events="none" display="none"/></g></g></g><path class="foreground" aria-hidden="true" d="" display="none"/></g></g></g><defs><clipPath id="clip1"><rect x="0" y="0" width="600" height="400"/></clipPath><clipPath id="clip2"><rect x="0" y="0" width="600" height="400"/></clipPath><clipPath id="clip3"><rect x="0" y="0" width="600" height="400"/></clipPath><clipPath id="clip4"><rect x="0" y="0" width="600" height="400"/></clipPath><clipPath id="clip5"><rect x="0" y="0" width="600" height="400"/></clipPath><clipPath id="clip6"><rect x="0" y="0" width="600" height="400"/></clipPath></defs></svg>