<svg xmlns="http://www.w3.org/2000/svg" xmlns:xlink="http://www.w3.org/1999/xlink" version="1.1" class="marks" width="762" height="458" viewBox="0 0 762 458"><rect width="762" height="458" fill="white"/><g fill="none" stroke-miterlimit="10" transform="translate(50,12)"><g class="mark-group role-frame root" role="graphics-object" aria-roledescription="group mark container"><g transform="translate(0,0)"><path class="background" aria-hidden="true" d="M0.5,0.5h600v400h-600Z" stroke="#ddd"/><g><g class="mark-group role-axis" aria-hidden="true"><g transform="translate(0.5,400.5)"><path class="background" aria-hidden="true" d="M0,0h0v0h0Z" pointer-events="none"/><g><g class="mark-rule role-axis-grid" pointer-events="none"><line transform="translate(21,-400)" x2="0" y2="400" stroke="#ddd" stroke-width="1" opacity="1"/><line transform="translate(52,-400)" x2="0" y2="400" stroke="#ddd" stroke-width="1" opacity="1"/><line transform="translate(82,-400)" x2="0" y2="400" stroke="#ddd" stroke-width="1" opacity="1"/><line transform="translate(113,-400)" x2="0" y2="400" stroke="#ddd" stroke-width="1" opacity="1"/><line transform="translate(143,-400)" x2="0" y2="400" stroke="#ddd" stroke-width="1" opacity="1"/><line transform="translate(174,-400)" x2="0" y2="400" stroke="#ddd" stroke-width="1" opacity="1"/><line transform="translate(204,-400)" x2="0" y2="400" stroke="#ddd" stroke-width="1" opacity="1"/><line transform="translate(235,-400)" x2="0" y2="400" stroke="#ddd" stroke-width="1" opacity="1"/><line transform="translate(265,-400)" x2="0" y2="400" stroke="#ddd" stroke-width="1" opacity="1"/><line transform="translate(295,-400)" x2="0" y2="400" stroke="#ddd" stroke-width="1" opacity="1"/><line transform="translate(326,-400)" x2="0" y2="400" stroke="#ddd" stroke-width="1" opacity="1"/><line transform="translate(356,-400)" x2="0" y2="400" stroke="#ddd" stroke-width="1" opacity="1"/><line transform="translate(387,-400)" x2="0" y2="400" stroke="#ddd" stroke-width="1" opacity="1"/><line transform="translate(417,-400)" x2="0" y2="400" stroke="#ddd" stroke-width="1" opacity="1"/><line transform="translate(448,-400)" x2="0" y2="400" stroke="#ddd" stroke-width="1" opacity="1"/><line transform="translate(478,-400)" x2="0" y2="400" stroke="#ddd" stroke-width="1" opacity="1"/><line transform="translate(509,-400)" x2="0" y2="400" stroke="#ddd" stroke-width="1" opacity="1"/><line transform="translate(539,-400)" x2="0" y2="400" stroke="#ddd" stroke-width="1" opacity="1"/><line transform="translate(570,-400)" x2="0" y2="400" stroke="#ddd" stroke-width="1" opacity="1"/><line transform="translate(600,-400)" x2="0" y2="400" stroke="#ddd" stroke-width="1" opacity="1"/></g></g><path class="foreground" aria-hidden="true" d="" pointer-events="none" display="none"/></g></g><g class="mark-group role-axis" aria-hidden="true"><g transform="translate(0.5,0.5)"><path class="background" aria-hidden="true" d="M0,0h0v0h0Z" pointer-events="none"/><g><g class="mark-rule role-axis-grid" pointer-events="none"><line transform="translate(0,400)" x2="600" y2="0" stroke="#ddd" stroke-width="1" opacity="1"/><line transform="translate(0,350)" x2="600" y2="0" stroke="#ddd" stroke-width="1" opacity="1"/><line transform="translate(0,300)" x2="600" y2="0" stroke="#ddd" stroke-width="1" opacity="1"/><line transform="translate(0,250)" x2="600" y2="0" stroke="#ddd" stroke-width="1" opacity="1"/><line transform="translate(0,200)" x2="600" y2="0" stroke="#ddd" stroke-width="1" opacity="1"/><line transform="translate(0,150)" x2="600" y2="0" stroke="#ddd" stroke-width="1" opacity="1"/><line transform="translate(0,100)" x2="600" y2="0" stroke="#ddd" stroke-width="1" opacity="1"/><line transform="translate(0,50)" x2="600" y2="0" stroke="#ddd" stroke-width="1" opacity="1"/><line transform="translate(0,0)" x2="600" y2="0" stroke="#ddd" stroke-width="1" opacity="1"/></g></g><path class="foreground" aria-hidden="true" d="" pointer-events="none" display="none"/></g></g><g class="mark-group role-axis" role="graphics-symbol" aria-roledescription="axis" aria-label="X-axis titled 'Number of environment steps' for a linear scale with values from 0M to 20M"><g transform="translate(0.5,400.5)"><path class="background" aria-hidden="true" d="M0,0h0v0h0Z" pointer-events="none"/><g><g class="mark-rule role-axis-tick" pointer-events="none"><line transform="translate(21,0)" x2="0" y2="5" stroke="#888" stroke-width="1" opacity="1"/><line transform="translate(52,0)" x2="0" y2="5" stroke="#888" stroke-width="1" opacity="1"/><line transform="translate(82,0)" x2="0" y2="5" stroke="#888" stroke-width="1" opacity="1"/><line transform="translate(113,0)" x2="0" y2="5" stroke="#888" stroke-width="1" opacity="1"/><line transform="translate(143,0)" x2="0" y2="5" stroke="#888" stroke-width="1" opacity="1"/><line transform="translate(174,0)" x2="0" y2="5" stroke="#888" stroke-width="1" opacity="1"/><line transform="translate(204,0)" x2="0" y2="5" stroke="#888" stroke-width="1" opacity="1"/><line transform="translate(235,0)" x2="0" y2="5" stroke="#888" stroke-width="1" opacity="1"/><line transform="translate(265,0)" x2="0" y2="5" stroke="#888" stroke-width="1" opacity="1"/><line transform="translate(295,0)" x2="0" y2="5" stroke="#888" stroke-width="1" opacity="1"/><line transform="translate(326,0)" x2="0" y2="5" stroke="#888" stroke-width="1" opacity="1"/><line transform="translate(356,0)" x2="0" y2="5" stroke="#888" stroke-width="1" opacity="1"/><line transform="translate(387,0)" x2="0" y2="5" stroke="#888" stroke-width="1" opacity="1"/><line transform="translate(417,0)" x2="0" y2="5" stroke="#888" stroke-width="1" opacity="1"/><line transform="translate(448,0)" x2="0" y2="5" stroke="#888" stroke-width="1" opacity="1"/><line transform="translate(478,0)" x2="0" y2="5" stroke="#888" stroke-width="1" opacity="1"/><line transform="translate(509,0)" x2="0" y2="5" stroke="#888" stroke-width="1" opacity="1"/><line transform="translate(539,0)" x2="0" y2="5" stroke="#888" stroke-width="1" opacity="1"/><line transform="translate(570,0)" x2="0" y2="5" stroke="#888" stroke-width="1" opacity="1"/><line transform="translate(600,0)" x2="0" y2="5" stroke="#888" stroke-width="1" opacity="1"/></g><g class="mark-text role-axis-label" pointer-events="none"><text text-anchor="middle" transform="translate(21.31979695431472,18)" font-family="Times New Roman" font-size="14px" fill="#000" opacity="1">1M</text><text text-anchor="middle" transform="translate(51.77664974619289,18)" font-family="Times New Roman" font-size="14px" fill="#000" opacity="0">2M</text><text text-anchor="middle" transform="translate(82.23350253807106,18)" font-family="Times New Roman" font-size="14px" fill="#000" opacity="1">3M</text><text text-anchor="middle" transform="translate(112.69035532994924,18)" font-family="Times New Roman" font-size="14px" fill="#000" opacity="0">4M</text><text text-anchor="middle" transform="translate(143.14720812182742,18)" font-family="Times New Roman" font-size="14px" fill="#000" opacity="1">5M</text><text text-anchor="middle" transform="translate(173.60406091370558,18)" font-family="Times New Roman" font-size="14px" fill="#000" opacity="0">6M</text><text text-anchor="middle" transform="translate(204.06091370558377,18)" font-family="Times New Roman" font-size="14px" fill="#000" opacity="1">7M</text><text text-anchor="middle" transform="translate(234.51776649746193,18)" font-family="Times New Roman" font-size="14px" fill="#000" opacity="0">8M</text><text text-anchor="middle" transform="translate(264.97461928934007,18)" font-family="Times New Roman" font-size="14px" fill="#000" opacity="1">9M</text><text text-anchor="middle" transform="translate(295.43147208121826,18)" font-family="Times New Roman" font-size="14px" fill="#000" opacity="0">10M</text><text text-anchor="middle" transform="translate(325.88832487309645,18)" font-family="Times New Roman" font-size="14px" fill="#000" opacity="1">11M</text><text text-anchor="middle" transform="translate(356.34517766497464,18)" font-family="Times New Roman" font-size="14px" fill="#000" opacity="0">12M</text><text text-anchor="middle" transform="translate(386.80203045685283,18)" font-family="Times New Roman" font-size="14px" fill="#000" opacity="1">13M</text><text text-anchor="middle" transform="translate(417.25888324873097,18)" font-family="Times New Roman" font-size="14px" fill="#000" opacity="0">14M</text><text text-anchor="middle" transform="translate(447.71573604060916,18)" font-family="Times New Roman" font-size="14px" fill="#000" opacity="1">15M</text><text text-anchor="middle" transform="translate(478.1725888324873,18)" font-family="Times New Roman" font-size="14px" fill="#000" opacity="0">16M</text><text text-anchor="middle" transform="translate(508.6294416243655,18)" font-family="Times New Roman" font-size="14px" fill="#000" opacity="1">17M</text><text text-anchor="middle" transform="translate(539.0862944162436,18)" font-family="Times New Roman" font-size="14px" fill="#000" opacity="0">18M</text><text text-anchor="middle" transform="translate(569.5431472081218,18)" font-family="Times New Roman" font-size="14px" fill="#000" opacity="1">19M</text><text text-anchor="end" transform="translate(600,18)" font-family="Times New Roman" font-size="14px" fill="#000" opacity="0">20M</text></g><g class="mark-rule role-axis-domain" pointer-events="none"><line transform="translate(0,0)" x2="600" y2="0" stroke="#888" stroke-width="1" opacity="1"/></g><g class="mark-text role-axis-title" pointer-events="none"><text text-anchor="middle" transform="translate(300,38)" font-family="Times New Roman" font-size="16px" font-weight="bold" fill="#000" opacity="1">Number of environment steps</text></g></g><path class="foreground" aria-hidden="true" d="" pointer-events="none" display="none"/></g></g><g class="mark-group role-axis" role="graphics-symbol" aria-roledescription="axis" aria-label="Y-axis titled 'Success rate' for a linear scale with values from 0.2 to 1.0"><g transform="translate(0.5,0.5)"><path class="background" aria-hidden="true" d="M0,0h0v0h0Z" pointer-events="none"/><g><g class="mark-rule role-axis-tick" pointer-events="none"><line transform="translate(0,400)" x2="-5" y2="0" stroke="#888" stroke-width="1" opacity="1"/><line transform="translate(0,350)" x2="-5" y2="0" stroke="#888" stroke-width="1" opacity="1"/><line transform="translate(0,300)" x2="-5" y2="0" stroke="#888" stroke-width="1" opacity="1"/><line transform="translate(0,250)" x2="-5" y2="0" stroke="#888" stroke-width="1" opacity="1"/><line transform="translate(0,200)" x2="-5" y2="0" stroke="#888" stroke-width="1" opacity="1"/><line transform="translate(0,150)" x2="-5" y2="0" stroke="#888" stroke-width="1" opacity="1"/><line transform="translate(0,100)" x2="-5" y2="0" stroke="#888" stroke-width="1" opacity="1"/><line transform="translate(0,50)" x2="-5" y2="0" stroke="#888" stroke-width="1" opacity="1"/><line transform="translate(0,0)" x2="-5" y2="0" stroke="#888" stroke-width="1" opacity="1"/></g><g class="mark-text role-axis-label" pointer-events="none"><text text-anchor="end" transform="translate(-7,404)" font-family="Times New Roman" font-size="14px" fill="#000" opacity="1">0.2</text><text text-anchor="end" transform="translate(-7,354)" font-family="Times New Roman" font-size="14px" fill="#000" opacity="1">0.3</text><text text-anchor="end" transform="translate(-7,304)" font-family="Times New Roman" font-size="14px" fill="#000" opacity="1">0.4</text><text text-anchor="end" transform="translate(-7,254)" font-family="Times New Roman" font-size="14px" fill="#000" opacity="1">0.5</text><text text-anchor="end" transform="translate(-7,204)" font-family="Times New Roman" font-size="14px" fill="#000" opacity="1">0.6</text><text text-anchor="end" transform="translate(-7,154.00000000000006)" font-family="Times New Roman" font-size="14px" fill="#000" opacity="1">0.7</text><text text-anchor="end" transform="translate(-7,103.99999999999996)" font-family="Times New Roman" font-size="14px" fill="#000" opacity="1">0.8</text><text text-anchor="end" transform="translate(-7,54.00000000000004)" font-family="Times New Roman" font-size="14px" fill="#000" opacity="1">0.9</text><text text-anchor="end" transform="translate(-7,4)" font-family="Times New Roman" font-size="14px" fill="#000" opacity="1">1.0</text></g><g class="mark-rule role-axis-domain" pointer-events="none"><line transform="translate(0,400)" x2="0" y2="-400" stroke="#888" stroke-width="1" opacity="1"/></g><g class="mark-text role-axis-title" pointer-events="none"><text text-anchor="middle" transform="translate(-28.5,200) rotate(-90) translate(0,-3)" font-family="Times New Roman" font-size="16px" font-weight="bold" fill="#000" opacity="1">Success rate</text></g></g><path class="foreground" aria-hidden="true" d="" pointer-events="none" display="none"/></g></g><g class="mark-group role-scope layer_0_layer_0_pathgroup" role="graphics-object" aria-roledescription="group mark container"><g transform="translate(0,0)"><path class="background" aria-hidden="true" d="M0,0h600v400h-600Z"/><g><g class="mark-area role-mark layer_0_layer_0_marks" clip-path="url(#clip1)" role="graphics-object" aria-roledescription="area mark container"><path aria-label="Number of environment steps: 200.38k; Success rate: 0.0745431818182; upper_Success rate: 0.112275; Algorithm: MTMHSAC; Ci1 of Success rate: 0.112275; Ci0 of Success rate: 0.0745431818182; Mean of Success rate: 0.0943636363636" role="graphics-symbol" aria-roledescription="errorband" d="M3.069,418.743C5.104,405.789,7.138,395.394,9.172,385.727C11.207,376.061,13.241,367.121,15.276,357.735C17.31,348.35,19.344,338.517,21.379,328.98C23.413,319.442,25.448,310.198,27.482,301.73C29.517,293.261,31.551,285.567,33.585,278.409C35.62,271.25,37.654,264.626,39.689,256.233C41.723,247.84,43.757,237.678,45.792,231.33C47.826,224.981,49.861,222.447,51.895,219.15C53.93,215.853,55.964,211.793,57.998,208.4C60.033,205.006,62.067,202.28,64.102,200.196C66.136,198.112,68.17,196.67,70.205,193.791C72.239,190.913,74.274,186.597,76.308,182.812C78.343,179.028,80.377,175.773,82.411,173.326C84.446,170.878,86.48,169.238,88.515,166.288C90.549,163.338,92.583,159.079,94.618,157.412C96.652,155.745,98.687,156.67,100.721,156.011C102.756,155.352,104.79,153.108,106.824,151.835C108.859,150.562,110.893,150.259,112.928,149.88C114.962,149.502,116.996,149.046,119.031,148.645C121.065,148.244,123.1,147.896,125.134,147.01C127.169,146.125,129.203,144.7,131.237,143.261C133.272,141.821,135.306,140.366,137.341,138.767C139.375,137.169,141.409,135.426,143.444,134.395C145.478,133.365,147.513,133.047,149.547,132.638C151.582,132.23,153.616,131.73,155.65,130.42C157.685,129.109,159.719,126.989,161.754,126.072C163.788,125.155,165.822,125.441,167.857,124.766C169.891,124.092,171.926,122.456,173.96,121.593C175.995,120.73,178.029,120.639,180.063,120.215C182.098,119.79,184.132,119.031,186.167,119.069C188.201,119.106,190.235,119.94,192.27,119.523C194.304,119.107,196.339,117.44,198.373,116.827C200.408,116.213,202.442,116.654,204.476,116.466C206.511,116.277,208.545,115.46,210.58,114.937C212.614,114.414,214.648,114.185,216.683,114.654C218.717,115.123,220.752,116.291,222.786,116.45C224.821,116.609,226.855,115.759,228.889,114.782C230.924,113.805,232.958,112.7,234.993,111.852C237.027,111.004,239.061,110.412,241.096,109.753C243.13,109.094,245.165,108.367,247.199,107.882C249.234,107.398,251.268,107.156,253.302,106.846C255.337,106.536,257.371,106.158,259.406,105.271C261.44,104.385,263.474,102.991,265.509,101.952C267.543,100.913,269.578,100.229,271.612,99.615C273.646,99,275.681,98.455,277.715,97.782C279.75,97.108,281.784,96.306,283.819,95.466C285.853,94.625,287.887,93.745,289.922,93.419C291.956,93.092,293.991,93.319,296.025,93.887C298.059,94.455,300.094,95.365,302.128,95.374C304.163,95.382,306.197,94.489,308.232,93.898C310.266,93.308,312.3,93.019,314.335,92.814C316.369,92.609,318.404,92.488,320.438,92.897C322.472,93.306,324.507,94.244,326.541,94.35C328.576,94.456,330.61,93.729,332.645,93.517C334.679,93.306,336.713,93.609,338.748,93.041C340.782,92.472,342.817,91.031,344.851,90.023C346.885,89.016,348.92,88.44,350.954,87.82C352.989,87.199,355.023,86.533,357.058,86.109C359.092,85.685,361.126,85.503,363.161,85.185C365.195,84.866,367.23,84.41,369.264,84.639C371.298,84.869,373.333,85.783,375.367,86.306C377.402,86.829,379.436,86.961,381.471,87.125C383.505,87.289,385.539,87.486,387.574,87.062C389.608,86.638,391.643,85.593,393.677,85.003C395.711,84.412,397.746,84.275,399.78,84.54C401.815,84.805,403.849,85.47,405.884,85.319C407.918,85.168,409.952,84.2,411.987,83.768C414.021,83.337,416.056,83.442,418.09,83.456C420.124,83.471,422.159,83.395,424.193,83.69C426.228,83.986,428.262,84.652,430.297,84.576C432.331,84.501,434.365,83.683,436.4,83.638C438.434,83.592,440.469,84.319,442.503,84.615C444.537,84.91,446.572,84.775,448.606,85.018C450.641,85.261,452.675,85.882,454.71,86.155C456.744,86.427,458.778,86.35,460.813,86.304C462.847,86.258,464.882,86.243,466.916,85.614C468.95,84.985,470.985,83.743,473.019,83.698C475.054,83.653,477.088,84.806,479.123,84.646C481.157,84.487,483.191,83.016,485.226,82.645C487.26,82.273,489.295,83,491.329,83.774C493.363,84.549,495.398,85.37,497.432,85.522C499.467,85.674,501.501,85.156,503.536,84.707C505.57,84.258,507.604,83.879,509.639,83.486C511.673,83.093,513.708,82.686,515.742,82.422C517.776,82.157,519.811,82.034,521.845,82.313C523.88,82.593,525.914,83.274,527.949,83.539C529.983,83.804,532.017,83.653,534.052,83.411C536.086,83.17,538.121,82.839,540.155,83.362C542.189,83.884,544.224,85.261,546.258,85.888C548.293,86.516,550.327,86.394,552.362,85.894C554.396,85.394,556.43,84.515,558.465,83.758C560.499,83.002,562.534,82.367,564.568,82.003C566.602,81.64,568.637,81.548,570.671,81.381C572.706,81.214,574.74,80.972,576.775,81.555C578.809,82.138,580.843,83.547,582.878,84.024C584.912,84.502,586.947,84.047,588.981,83.464L588.981,69.561C586.947,69.985,584.912,69.879,582.878,69.325C580.843,68.772,578.809,67.771,576.775,67.278C574.74,66.785,572.706,66.8,570.671,67.119C568.637,67.437,566.602,68.059,564.568,68.537C562.534,69.014,560.499,69.347,558.465,69.832C556.43,70.317,554.396,70.954,552.362,71.28C550.327,71.606,548.293,71.62,546.258,71.166C544.224,70.711,542.189,69.787,540.155,69.181C538.121,68.575,536.086,68.287,534.052,68.642C532.017,68.998,529.983,69.997,527.949,70.027C525.914,70.058,523.88,69.12,521.845,68.87C519.811,68.621,517.776,69.06,515.742,69.052C513.708,69.044,511.673,68.59,509.639,68.635C507.604,68.681,505.57,69.226,503.536,69.734C501.501,70.242,499.467,70.712,497.432,70.659C495.398,70.606,493.363,70.03,491.329,69.438C489.295,68.847,487.26,68.241,485.226,68.604C483.191,68.967,481.157,70.301,479.123,70.612C477.088,70.922,475.054,70.211,473.019,69.658C470.985,69.105,468.95,68.712,466.916,69.257C464.882,69.803,462.847,71.287,460.813,71.878C458.778,72.469,456.744,72.166,454.71,71.742C452.675,71.318,450.641,70.773,448.606,70.234C446.572,69.695,444.537,69.162,442.503,68.624C440.469,68.086,438.434,67.543,436.4,67.597C434.365,67.652,432.331,68.303,430.297,68.462C428.262,68.621,426.228,68.288,424.193,68.022C422.159,67.756,420.124,67.558,418.09,67.489C416.056,67.421,414.021,67.483,411.987,67.908C409.952,68.333,407.918,69.121,405.884,69.007C403.849,68.894,401.815,67.878,399.78,67.567C397.746,67.256,395.711,67.65,393.677,68.378C391.643,69.105,389.608,70.166,387.574,70.877C385.539,71.589,383.505,71.952,381.471,71.672C379.436,71.392,377.402,70.469,375.367,69.871C373.333,69.273,371.298,69,369.264,68.682C367.23,68.364,365.195,68,363.161,68.022C361.126,68.044,359.092,68.452,357.058,69.149C355.023,69.846,352.989,70.832,350.954,71.007C348.92,71.181,346.885,70.545,344.851,70.575C342.817,70.605,340.782,71.301,338.748,71.377C336.713,71.452,334.679,70.907,332.645,71.248C330.61,71.589,328.576,72.817,326.541,73.325C324.507,73.833,322.472,73.621,320.438,72.78C318.404,71.939,316.369,70.469,314.335,70.203C312.3,69.937,310.266,70.875,308.232,71.724C306.197,72.572,304.163,73.331,302.128,73.194C300.094,73.056,298.059,72.023,296.025,71.614C293.991,71.205,291.956,71.419,289.922,71.686C287.887,71.952,285.853,72.27,283.819,72.612C281.784,72.953,279.75,73.317,277.715,73.877C275.681,74.438,273.646,75.196,271.612,76.143C269.578,77.09,267.543,78.226,265.509,79.097C263.474,79.967,261.44,80.572,259.406,81.018C257.371,81.465,255.337,81.754,253.302,82.005C251.268,82.255,249.234,82.467,247.199,83.187C245.165,83.907,243.13,85.134,241.096,86.058C239.061,86.982,237.027,87.603,234.993,88.331C232.958,89.058,230.924,89.893,228.889,90.56C226.855,91.227,224.821,91.727,222.786,91.734C220.752,91.742,218.717,91.257,216.683,91.007C214.648,90.756,212.614,90.74,210.58,91.429C208.545,92.119,206.511,93.513,204.476,93.877C202.442,94.241,200.408,93.573,198.373,93.922C196.339,94.27,194.304,95.635,192.27,96.416C190.235,97.196,188.201,97.392,186.167,97.626C184.132,97.861,182.098,98.134,180.063,98.642C178.029,99.15,175.995,99.892,173.96,101.081C171.926,102.271,169.891,103.908,167.857,104.226C165.822,104.544,163.788,103.543,161.754,104.005C159.719,104.467,157.685,106.392,155.65,107.377C153.616,108.363,151.582,108.408,149.547,109.112C147.513,109.816,145.478,111.179,143.444,112.172C141.409,113.164,139.375,113.786,137.341,114.673C135.306,115.559,133.272,116.711,131.237,118.081C129.203,119.452,127.169,121.041,125.134,122.413C123.1,123.784,121.065,124.937,119.031,125.581C116.996,126.226,114.962,126.363,112.928,126.65C110.893,126.938,108.859,127.377,106.824,128.438C104.79,129.498,102.756,131.18,100.721,131.908C98.687,132.635,96.652,132.407,94.618,132.824C92.583,133.241,90.549,134.302,88.515,135.582C86.48,136.862,84.446,138.362,82.411,139.521C80.377,140.68,78.343,141.498,76.308,143.036C74.274,144.574,72.239,146.832,70.205,148.59C68.17,150.347,66.136,151.605,64.102,152.771C62.067,153.937,60.033,155.011,57.998,157.572C55.964,160.133,53.93,164.18,51.895,168.218C49.861,172.256,47.826,176.286,45.792,182.838C43.757,189.391,41.723,198.468,39.689,206.233C37.654,213.999,35.62,220.453,33.585,228.332C31.551,236.211,29.517,245.515,27.482,254.431C25.448,263.348,23.413,271.878,21.379,282.15C19.344,292.423,17.31,304.438,15.276,317.135C13.241,329.832,11.207,343.211,9.172,356.727C7.138,370.242,5.104,383.894,3.069,398.439Z" fill="#FF4B33" opacity="0.3"/></g></g><path class="foreground" aria-hidden="true" d="" display="none"/></g><g transform="translate(0,0)"><path class="background" aria-hidden="true" d="M0,0h600v400h-600Z"/><g><g class="mark-area role-mark layer_0_layer_0_marks" clip-path="url(#clip2)" role="graphics-object" aria-roledescription="area mark container"><path aria-label="Number of environment steps: 200.38k; Success rate: 0.1348; upper_Success rate: 0.182; Algorithm: MTSAC; Ci1 of Success rate: 0.182; Ci0 of Success rate: 0.1348; Mean of Success rate: 0.1548" role="graphics-symbol" aria-roledescription="errorband" d="M3.069,402.533C5.104,394.2,7.138,388.4,9.172,385.8C11.207,383.2,13.241,383.8,15.276,375.406C17.31,367.012,19.344,349.623,21.379,342.559C23.413,335.495,25.448,338.755,27.482,335.516C29.517,332.277,31.551,322.538,33.585,314.569C35.62,306.6,37.654,300.4,39.689,289.6C41.723,278.8,43.757,263.4,45.792,254.167C47.826,244.933,49.861,241.867,51.895,233.567C53.93,225.267,55.964,211.733,57.998,206.233C60.033,200.733,62.067,203.267,64.102,203.736C66.136,204.205,68.17,202.61,70.205,198.41C72.239,194.21,74.274,187.405,76.308,183.969C78.343,180.533,80.377,180.467,82.411,180.1C84.446,179.733,86.48,179.067,88.515,178.733C90.549,178.4,92.583,178.4,94.618,179C96.652,179.6,98.687,180.8,100.721,180.233C102.756,179.667,104.79,177.333,106.824,175.267C108.859,173.2,110.893,171.4,112.928,171.068C114.962,170.737,116.996,171.873,119.031,172.04C121.065,172.207,123.1,171.403,125.134,170.402C127.169,169.4,129.203,168.2,131.237,165.467C133.272,162.733,135.306,158.467,137.341,156.767C139.375,155.067,141.409,155.933,143.444,153.067C145.478,150.2,147.513,143.6,149.547,138.933C151.582,134.267,153.616,131.533,155.65,128.967C157.685,126.4,159.719,124,161.754,121.967C163.788,119.933,165.822,118.267,167.857,117.233C169.891,116.2,171.926,115.8,173.96,114.733C175.995,113.667,178.029,111.933,180.063,111.733C182.098,111.533,184.132,112.867,186.167,112.803C188.201,112.74,190.235,111.28,192.27,110.447C194.304,109.613,196.339,109.407,198.373,108.637C200.408,107.867,202.442,106.533,204.476,105.967C206.511,105.4,208.545,105.6,210.58,106.842C212.614,108.083,214.648,110.367,216.683,110.967C218.717,111.567,220.752,110.483,222.786,110.676C224.821,110.868,226.855,112.337,228.889,111.672C230.924,111.007,232.958,108.208,234.993,106.841C237.027,105.473,239.061,105.537,241.096,106.268C243.13,107,245.165,108.4,247.199,108.567C249.234,108.733,251.268,107.667,253.302,106.6C255.337,105.533,257.371,104.467,259.406,104.433C261.44,104.4,263.474,105.4,265.509,106.733C267.543,108.067,269.578,109.733,271.612,109.069C273.646,108.405,275.681,105.41,277.715,103.813C279.75,102.217,281.784,102.018,283.819,101.983C285.853,101.947,287.887,102.073,289.922,102.637C291.956,103.2,293.991,104.2,296.025,104.167C298.059,104.133,300.094,103.067,302.128,101.534C304.163,100.002,306.197,98.003,308.232,97.137C310.266,96.272,312.3,96.538,314.335,96.943C316.369,97.347,318.404,97.888,320.438,97.921C322.472,97.953,324.507,97.477,326.541,97.938C328.576,98.4,330.61,99.8,332.645,100.6C334.679,101.4,336.713,101.6,338.748,100.633C340.782,99.667,342.817,97.533,344.851,96.233C346.885,94.933,348.92,94.467,350.954,95.367C352.989,96.267,355.023,98.533,357.058,98.804C359.092,99.075,361.126,97.35,363.161,97.85C365.195,98.35,367.23,101.075,369.264,102.038C371.298,103,373.333,102.2,375.367,100.9C377.402,99.6,379.436,97.8,381.471,99.038C383.505,100.277,385.539,104.553,387.574,106.253C389.608,107.953,391.643,107.077,393.677,106.006C395.711,104.935,397.746,103.67,399.78,103.003C401.815,102.337,403.849,102.268,405.884,102.401C407.918,102.533,409.952,102.867,411.987,103.067C414.021,103.267,416.056,103.333,418.09,102.867C420.124,102.4,422.159,101.4,424.193,100.4C426.228,99.4,428.262,98.4,430.297,97.567C432.331,96.733,434.365,96.067,436.4,96.467C438.434,96.867,440.469,98.333,442.503,98.233C444.537,98.133,446.572,96.467,448.606,95.867C450.641,95.267,452.675,95.733,454.71,95.1C456.744,94.467,458.778,92.733,460.813,92.367C462.847,92,464.882,93,466.916,95.633C468.95,98.267,470.985,102.533,473.019,103.267C475.054,104,477.088,101.2,479.123,99.667C481.157,98.133,483.191,97.867,485.226,97.467C487.26,97.067,489.295,96.533,491.329,97.8C493.363,99.067,495.398,102.133,497.432,102.967C499.467,103.8,501.501,102.4,503.536,100.467C505.57,98.533,507.604,96.067,509.639,95.838C511.673,95.608,513.708,97.617,515.742,98.883C517.776,100.15,519.811,100.675,521.845,101.304C523.88,101.933,525.914,102.667,527.949,102.133C529.983,101.6,532.017,99.8,534.052,98.835C536.086,97.87,538.121,97.74,540.155,97.773C542.189,97.807,544.224,98.003,546.258,97.235C548.293,96.467,550.327,94.733,552.362,93.933C554.396,93.133,556.43,93.267,558.465,93.6C560.499,93.933,562.534,94.467,564.568,95.967C566.602,97.467,568.637,99.933,570.671,99.4C572.706,98.867,574.74,95.333,576.775,96.2C578.809,97.067,580.843,102.333,582.878,104.233C584.912,106.133,586.947,104.667,588.981,102.267L588.981,67.2C586.947,66.6,584.912,65.6,582.878,65.533C580.843,65.467,578.809,66.333,576.775,66.233C574.74,66.133,572.706,65.067,570.671,64.6C568.637,64.133,566.602,64.267,564.568,64.233C562.534,64.2,560.499,64,558.465,64.833C556.43,65.667,554.396,67.533,552.362,68.132C550.327,68.732,548.293,68.063,546.258,67.53C544.224,66.997,542.189,66.598,540.155,66.833C538.121,67.067,536.086,67.933,534.052,67.833C532.017,67.733,529.983,66.667,527.949,65.633C525.914,64.6,523.88,63.6,521.845,63.367C519.811,63.133,517.776,63.667,515.742,63.733C513.708,63.8,511.673,63.4,509.639,62.933C507.604,62.467,505.57,61.933,503.536,61.767C501.501,61.6,499.467,61.8,497.432,62.867C495.398,63.933,493.363,65.867,491.329,66.267C489.295,66.667,487.26,65.533,485.226,64C483.191,62.467,481.157,60.533,479.123,60.467C477.088,60.4,475.054,62.2,473.019,62.867C470.985,63.533,468.95,63.067,466.916,62.8C464.882,62.533,462.847,62.467,460.813,62.633C458.778,62.8,456.744,63.2,454.71,64.333C452.675,65.467,450.641,67.333,448.606,67.7C446.572,68.067,444.537,66.933,442.503,66.633C440.469,66.333,438.434,66.867,436.4,66.9C434.365,66.933,432.331,66.467,430.297,65.967C428.262,65.467,426.228,64.933,424.193,65.133C422.159,65.332,420.124,66.263,418.09,65.863C416.056,65.463,414.021,63.732,411.987,63.633C409.952,63.533,407.918,65.067,405.884,65.667C403.849,66.267,401.815,65.933,399.78,65.467C397.746,65,395.711,64.4,393.677,65.2C391.643,66,389.608,68.2,387.574,69.067C385.539,69.933,383.505,69.467,381.471,68.5C379.436,67.533,377.402,66.067,375.367,66.067C373.333,66.067,371.298,67.533,369.264,67.7C367.23,67.867,365.195,66.733,363.161,66.767C361.126,66.8,359.092,68,357.058,68.767C355.023,69.533,352.989,69.867,350.954,68.867C348.92,67.867,346.885,65.533,344.851,65.2C342.817,64.867,340.782,66.533,338.748,67.1C336.713,67.667,334.679,67.133,332.645,67.5C330.61,67.867,328.576,69.133,326.541,68.667C324.507,68.2,322.472,66,320.438,65.8C318.404,65.6,316.369,67.4,314.335,67.767C312.3,68.133,310.266,67.067,308.232,69C306.197,70.933,304.163,75.867,302.128,77C300.094,78.133,298.059,75.467,296.025,74.4C293.991,73.333,291.956,73.867,289.922,73.667C287.887,73.467,285.853,72.533,283.819,72.167C281.784,71.8,279.75,72,277.715,72.333C275.681,72.667,273.646,73.133,271.612,73.133C269.578,73.133,267.543,72.667,265.509,72.2C263.474,71.733,261.44,71.267,259.406,70.2C257.371,69.133,255.337,67.467,253.302,68.333C251.268,69.2,249.234,72.6,247.199,73.029C245.165,73.458,243.13,70.917,241.096,70.017C239.061,69.117,237.027,69.858,234.993,70.294C232.958,70.73,230.924,70.86,228.889,71.76C226.855,72.66,224.821,74.33,222.786,75.132C220.752,75.933,218.717,75.867,216.683,76.358C214.648,76.85,212.614,77.9,210.58,77.633C208.545,77.367,206.511,75.783,204.476,74.625C202.442,73.467,200.408,72.733,198.373,73.133C196.339,73.533,194.304,75.067,192.27,75.467C190.235,75.867,188.201,75.133,186.167,75.633C184.132,76.133,182.098,77.867,180.063,79.633C178.029,81.4,175.995,83.2,173.96,83.467C171.926,83.733,169.891,82.467,167.857,82.433C165.822,82.4,163.788,83.6,161.754,85.667C159.719,87.733,157.685,90.667,155.65,93.467C153.616,96.267,151.582,98.933,149.547,99.6C147.513,100.267,145.478,98.933,143.444,99.067C141.409,99.2,139.375,100.8,137.341,101.233C135.306,101.667,133.272,100.933,131.237,102.565C129.203,104.197,127.169,108.193,125.134,109.718C123.1,111.242,121.065,110.293,119.031,111.595C116.996,112.897,114.962,116.448,112.928,118.758C110.893,121.067,108.859,122.133,106.824,124.933C104.79,127.733,102.756,132.267,100.721,134.833C98.687,137.4,96.652,138,94.618,137.967C92.583,137.933,90.549,137.267,88.515,135.933C86.48,134.6,84.446,132.6,82.411,133.3C80.377,134,78.343,137.4,76.308,139.733C74.274,142.067,72.239,143.333,70.205,143.367C68.17,143.4,66.136,142.2,64.102,142.6C62.067,143,60.033,145,57.998,146.433C55.964,147.867,53.93,148.733,51.895,150.433C49.861,152.133,47.826,154.667,45.792,158.833C43.757,163,41.723,168.8,39.689,178.367C37.654,187.933,35.62,201.267,33.585,209.433C31.551,217.6,29.517,220.6,27.482,225.733C25.448,230.867,23.413,238.133,21.379,247.433C19.344,256.733,17.31,268.067,15.276,281.033C13.241,294,11.207,308.6,9.172,318.464C7.138,328.328,5.104,333.457,3.069,347.757Z" fill="#4D130F" opacity="0.3"/></g></g><path class="foreground" aria-hidden="true" d="" display="none"/></g><g transform="translate(0,0)"><path class="background" aria-hidden="true" d="M0,0h600v400h-600Z"/><g><g class="mark-area role-mark layer_0_layer_0_marks" clip-path="url(#clip3)" role="graphics-object" aria-roledescription="area mark container"><path aria-label="Number of environment steps: 200.38k; Success rate: 0.06899; upper_Success rate: 0.1474; Algorithm: SAC; Ci1 of Success rate: 0.1474; Ci0 of Success rate: 0.06899; Mean of Success rate: 0.1064" role="graphics-symbol" aria-roledescription="errorband" d="M3.069,421.193C5.104,411.343,7.138,408.873,9.172,403.755C11.207,398.638,13.241,390.874,15.276,380.981C17.31,371.088,19.344,359.067,21.379,346.732C23.413,334.397,25.448,321.748,27.482,310.291C29.517,298.833,31.551,288.567,33.585,278.833C35.62,269.1,37.654,259.9,39.689,250.1C41.723,240.301,43.757,229.902,45.792,223.387C47.826,216.873,49.861,214.243,51.895,208.825C53.93,203.408,55.964,195.204,57.998,189.453C60.033,183.701,62.067,180.402,64.102,176.835C66.136,173.269,68.17,169.436,70.205,167.802C72.239,166.168,74.274,166.734,76.308,166.967C78.343,167.2,80.377,167.1,82.411,166.085C84.446,165.069,86.48,163.138,88.515,161.388C90.549,159.638,92.583,158.069,94.618,155.385C96.652,152.7,98.687,148.9,100.721,146.4C102.756,143.9,104.79,142.7,106.824,142.35C108.859,142,110.893,142.5,112.928,142.75C114.962,143,116.996,143,119.031,142.634C121.065,142.268,123.1,141.535,125.134,141.185C127.169,140.835,129.203,140.868,131.237,139.75C133.272,138.633,135.306,136.367,137.341,134.6C139.375,132.833,141.409,131.567,143.444,132.234C145.478,132.902,147.513,135.503,149.547,134.62C151.582,133.737,153.616,129.368,155.65,127.685C157.685,126.001,159.719,127.002,161.754,127.552C163.788,128.102,165.822,128.201,167.857,127.252C169.891,126.303,171.926,124.305,173.96,122.773C175.995,121.241,178.029,120.174,180.063,120.657C182.098,121.14,184.132,123.172,186.167,122.855C188.201,122.538,190.235,119.87,192.27,118.886C194.304,117.902,196.339,118.601,198.373,118.85C200.408,119.1,202.442,118.9,204.476,118.034C206.511,117.168,208.545,115.637,210.58,114.871C212.614,114.105,214.648,114.105,216.683,113.154C218.717,112.203,220.752,110.302,222.786,108.885C224.821,107.468,226.855,106.535,228.889,106.335C230.924,106.135,232.958,106.667,234.993,106.402C237.027,106.136,239.061,105.072,241.096,104.222C243.13,103.373,245.165,102.738,247.199,102.07C249.234,101.402,251.268,100.702,253.302,101.169C255.337,101.635,257.371,103.268,259.406,103.784C261.44,104.3,263.474,103.7,265.509,101.883C267.543,100.067,269.578,97.033,271.612,95.384C273.646,93.734,275.681,93.468,277.715,93.485C279.75,93.503,281.784,93.803,283.819,94.602C285.853,95.402,287.887,96.701,289.922,96.684C291.956,96.667,293.991,95.333,296.025,94.033C298.059,92.733,300.094,91.467,302.128,92.467C304.163,93.467,306.197,96.733,308.232,97.784C310.266,98.834,312.3,97.668,314.335,96.935C316.369,96.202,318.404,95.901,320.438,95.301C322.472,94.701,324.507,93.802,326.541,92.386C328.576,90.971,330.61,89.039,332.645,89.139C334.679,89.238,336.713,91.369,338.748,92.402C340.782,93.434,342.817,93.368,344.851,92.369C346.885,91.369,348.92,89.436,350.954,90.319C352.989,91.203,355.023,94.903,357.058,95.335C359.092,95.768,361.126,92.934,363.161,92.151C365.195,91.367,367.23,92.635,369.264,92.586C371.298,92.537,373.333,91.171,375.367,90.554C377.402,89.937,379.436,90.068,381.471,91.219C383.505,92.369,385.539,94.538,387.574,95.289C389.608,96.039,391.643,95.371,393.677,95.221C395.711,95.071,397.746,95.439,399.78,95.106C401.815,94.773,403.849,93.738,405.884,92.355C407.918,90.972,409.952,89.241,411.987,88.058C414.021,86.874,416.056,86.238,418.09,86.104C420.124,85.969,422.159,86.336,424.193,86.403C426.228,86.469,428.262,86.236,430.297,86.352C432.331,86.468,434.365,86.934,436.4,85.534C438.434,84.133,440.469,80.867,442.503,80.483C444.537,80.1,446.572,82.6,448.606,82.567C450.641,82.533,452.675,79.967,454.71,79.95C456.744,79.933,458.778,82.467,460.813,83.252C462.847,84.037,464.882,83.073,466.916,81.807C468.95,80.541,470.985,78.972,473.019,78.57C475.054,78.169,477.088,78.936,479.123,78.685C481.157,78.435,483.191,77.167,485.226,75.617C487.26,74.067,489.295,72.233,491.329,71.3C493.363,70.367,495.398,70.333,497.432,71.233C499.467,72.133,501.501,73.967,503.536,74.217C505.57,74.467,507.604,73.133,509.639,72.733C511.673,72.333,513.708,72.867,515.742,72.917C517.776,72.968,519.811,72.535,521.845,73.069C523.88,73.603,525.914,75.103,527.949,75.435C529.983,75.768,532.017,74.934,534.052,74.384C536.086,73.834,538.121,73.568,540.155,73.752C542.189,73.935,544.224,74.568,546.258,74.884C548.293,75.201,550.327,75.202,552.362,74.369C554.396,73.536,556.43,71.869,558.465,71.785C560.499,71.702,562.534,73.201,564.568,74.534C566.602,75.868,568.637,77.035,570.671,77.335C572.706,77.635,574.74,77.068,576.775,76.884C578.809,76.7,580.843,76.9,582.878,77.384C584.912,77.868,586.947,78.635,588.981,78.252L588.981,60.03C586.947,60.697,584.912,61.498,582.878,61.565C580.843,61.633,578.809,60.965,576.775,60.048C574.74,59.13,572.706,57.963,570.671,58.696C568.637,59.429,566.602,62.063,564.568,62.598C562.534,63.132,560.499,61.566,558.465,60.616C556.43,59.667,554.396,59.333,552.362,59.116C550.327,58.899,548.293,58.798,546.258,58.932C544.224,59.065,542.189,59.432,540.155,59.1C538.121,58.767,536.086,57.733,534.052,57.616C532.017,57.499,529.983,58.298,527.949,59.082C525.914,59.865,523.88,60.633,521.845,61.266C519.811,61.899,517.776,62.398,515.742,62.715C513.708,63.032,511.673,63.166,509.639,63.516C507.604,63.867,505.57,64.433,503.536,64.067C501.501,63.7,499.467,62.4,497.432,61.316C495.398,60.232,493.363,59.365,491.329,59.448C489.295,59.532,487.26,60.566,485.226,61.1C483.191,61.633,481.157,61.667,479.123,61.267C477.088,60.867,475.054,60.033,473.019,58.95C470.985,57.866,468.95,56.532,466.916,57.148C464.882,57.764,462.847,60.331,460.813,60.665C458.778,60.998,456.744,59.099,454.71,59.166C452.675,59.233,450.641,61.267,448.606,61.8C446.572,62.333,444.537,61.367,442.503,61C440.469,60.633,438.434,60.865,436.4,61.698C434.365,62.532,432.331,63.966,430.297,64.75C428.262,65.533,426.228,65.667,424.193,65.067C422.159,64.467,420.124,63.133,418.09,63.283C416.056,63.433,414.021,65.067,411.987,65.75C409.952,66.433,407.918,66.167,405.884,67.2C403.849,68.232,401.815,70.565,399.78,71.547C397.746,72.53,395.711,72.163,393.677,72.363C391.643,72.563,389.608,73.332,387.574,72.282C385.539,71.233,383.505,68.367,381.471,67.033C379.436,65.7,377.402,65.9,375.367,67.3C373.333,68.7,371.298,71.3,369.264,71.55C367.23,71.8,365.195,69.7,363.161,69.967C361.126,70.233,359.092,72.867,357.058,72.95C355.023,73.033,352.989,70.565,350.954,69.181C348.92,67.797,346.885,67.496,344.851,68.263C342.817,69.03,340.782,70.865,338.748,70.848C336.713,70.832,334.679,68.963,332.645,68.38C330.61,67.796,328.576,68.497,326.541,70.147C324.507,71.798,322.472,74.398,320.438,74.847C318.404,75.297,316.369,73.596,314.335,72.412C312.3,71.228,310.266,70.56,308.232,69.96C306.197,69.361,304.163,68.829,302.128,69.363C300.094,69.898,298.059,71.498,296.025,72.098C293.991,72.698,291.956,72.299,289.922,71.833C287.887,71.367,285.853,70.833,283.819,70.867C281.784,70.9,279.75,71.5,277.715,72.183C275.681,72.867,273.646,73.633,271.612,73.766C269.578,73.899,267.543,73.398,265.509,73.148C263.474,72.898,261.44,72.899,259.406,73.849C257.371,74.799,255.337,76.698,253.302,77.865C251.268,79.031,249.234,79.464,247.199,80.081C245.165,80.697,243.13,81.497,241.096,82.198C239.061,82.898,237.027,83.498,234.993,83.864C232.958,84.231,230.924,84.364,228.889,84.098C226.855,83.832,224.821,83.166,222.786,83.082C220.752,82.998,218.717,83.497,216.683,84.013C214.648,84.529,212.614,85.063,210.58,86.297C208.545,87.531,206.511,89.464,204.476,90.713C202.442,91.962,200.408,92.526,198.373,92.843C196.339,93.159,194.304,93.228,192.27,93.097C190.235,92.965,188.201,92.633,186.167,92.499C184.132,92.366,182.098,92.432,180.063,92.565C178.029,92.698,175.995,92.898,173.96,93.864C171.926,94.831,169.891,96.564,167.857,96.964C165.822,97.363,163.788,96.429,161.754,97.112C159.719,97.795,157.685,100.095,155.65,102.513C153.616,104.93,151.582,107.465,149.547,109.432C147.513,111.4,145.478,112.8,143.444,113.083C141.409,113.365,139.375,112.53,137.341,112.747C135.306,112.963,133.272,114.232,131.237,116.066C129.203,117.9,127.169,120.3,125.134,122.283C123.1,124.266,121.065,125.832,119.031,127.282C116.996,128.732,114.962,130.066,112.928,130.449C110.893,130.833,108.859,130.265,106.824,130.231C104.79,130.197,102.756,130.697,100.721,133.131C98.687,135.565,96.652,139.932,94.618,141.733C92.583,143.533,90.549,142.767,88.515,142.699C86.48,142.632,84.446,143.263,82.411,143.463C80.377,143.663,78.343,143.43,76.308,143.797C74.274,144.164,72.239,145.131,70.205,146.698C68.17,148.265,66.136,150.433,64.102,152.532C62.067,154.631,60.033,156.662,57.998,159.178C55.964,161.695,53.93,164.698,51.895,168.432C49.861,172.167,47.826,176.633,45.792,183.267C43.757,189.9,41.723,198.7,39.689,206.733C37.654,214.766,35.62,222.032,33.585,229.215C31.551,236.398,29.517,243.498,27.482,252.548C25.448,261.598,23.413,272.598,21.379,285.08C19.344,297.563,17.31,311.529,15.276,324.596C13.241,337.663,11.207,349.832,9.172,357.649C7.138,365.466,5.104,368.932,3.069,379.648Z" fill="#3D494C" opacity="0.3"/></g></g><path class="foreground" aria-hidden="true" d="" display="none"/></g></g><g class="mark-group role-scope layer_1_pathgroup" role="graphics-object" aria-roledescription="group mark container"><g transform="translate(0,0)"><path class="background" aria-hidden="true" d="M0,0h600v400h-600Z"/><g><g class="mark-line role-mark layer_1_marks" clip-path="url(#clip4)" role="graphics-object" aria-roledescription="line mark container"><path aria-label="Number of environment steps: 200.38k; Success rate: 0.0943636363636; Algorithm: MTMHSAC" role="graphics-symbol" aria-roledescription="line mark" d="M3.069,408.47C5.104,394.758,7.138,382.652,9.172,371.144C11.207,359.636,13.241,348.727,15.276,337.492C17.31,326.258,19.344,314.697,21.379,304.341C23.413,293.985,25.448,284.833,27.482,275.955C29.517,267.076,31.551,258.47,33.585,250.818C35.62,243.167,37.654,236.47,39.689,228.106C41.723,219.742,43.757,209.712,45.792,203.242C47.826,196.773,49.861,193.864,51.895,189.856C53.93,185.848,55.964,180.742,57.998,177.561C60.033,174.379,62.067,173.121,64.102,171.773C66.136,170.424,68.17,168.985,70.205,166.735C72.239,164.485,74.274,161.424,76.308,158.962C78.343,156.5,80.377,154.636,82.411,153C84.446,151.364,86.48,149.955,88.515,148.083C90.549,146.212,92.583,143.879,94.618,142.909C96.652,141.939,98.687,142.333,100.721,141.667C102.756,141,104.79,139.273,106.824,138.159C108.859,137.045,110.893,136.545,112.928,136.197C114.962,135.848,116.996,135.652,119.031,135.394C121.065,135.136,123.1,134.818,125.134,133.894C127.169,132.97,129.203,131.439,131.237,130.106C133.272,128.773,135.306,127.636,137.341,126.477C139.375,125.318,141.409,124.136,143.444,123.045C145.478,121.955,147.513,120.955,149.547,120.402C151.582,119.848,153.616,119.742,155.65,118.818C157.685,117.894,159.719,116.152,161.754,115.606C163.788,115.061,165.822,115.712,167.857,115.205C169.891,114.697,171.926,113.03,173.96,111.917C175.995,110.803,178.029,110.242,180.063,109.72C182.098,109.197,184.132,108.712,186.167,108.667C188.201,108.621,190.235,109.015,192.27,108.47C194.304,107.924,196.339,106.439,198.373,105.818C200.408,105.197,202.442,105.439,204.476,105.129C206.511,104.818,208.545,103.955,210.58,103.485C212.614,103.015,214.648,102.939,216.683,103.197C218.717,103.455,220.752,104.045,222.786,103.977C224.821,103.909,226.855,103.182,228.889,102.348C230.924,101.515,232.958,100.576,234.993,99.75C237.027,98.924,239.061,98.212,241.096,97.379C243.13,96.545,245.165,95.591,247.199,94.962C249.234,94.333,251.268,94.03,253.302,93.818C255.337,93.606,257.371,93.485,259.406,92.917C261.44,92.348,263.474,91.333,265.509,90.348C267.543,89.364,269.578,88.409,271.612,87.485C273.646,86.561,275.681,85.667,277.715,84.864C279.75,84.061,281.784,83.348,283.819,82.902C285.853,82.455,287.887,82.273,289.922,82.144C291.956,82.015,293.991,81.939,296.025,82.303C298.059,82.667,300.094,83.47,302.128,83.523C304.163,83.576,306.197,82.879,308.232,82.053C310.266,81.227,312.3,80.273,314.335,80.326C316.369,80.379,318.404,81.439,320.438,82.083C322.472,82.727,324.507,82.955,326.541,82.644C328.576,82.333,330.61,81.485,332.645,81.356C334.679,81.227,336.713,81.818,338.748,81.538C340.782,81.258,342.817,80.106,344.851,79.53C346.885,78.955,348.92,78.955,350.954,78.591C352.989,78.227,355.023,77.5,357.058,76.848C359.092,76.197,361.126,75.621,363.161,75.409C365.195,75.197,367.23,75.348,369.264,75.652C371.298,75.955,373.333,76.409,375.367,77.015C377.402,77.621,379.436,78.379,381.471,78.689C383.505,79,385.539,78.864,387.574,78.227C389.608,77.591,391.643,76.455,393.677,75.674C395.711,74.894,397.746,74.47,399.78,74.826C401.815,75.182,403.849,76.318,405.884,76.386C407.918,76.455,409.952,75.455,411.987,74.977C414.021,74.5,416.056,74.545,418.09,74.621C420.124,74.697,422.159,74.803,424.193,74.992C426.228,75.182,428.262,75.455,430.297,75.242C432.331,75.03,434.365,74.333,436.4,74.439C438.434,74.545,440.469,75.455,442.503,75.962C444.537,76.47,446.572,76.576,448.606,76.932C450.641,77.288,452.675,77.894,454.71,78.25C456.744,78.606,458.778,78.712,460.813,78.326C462.847,77.939,464.882,77.061,466.916,76.424C468.95,75.788,470.985,75.394,473.019,75.727C475.054,76.061,477.088,77.121,479.123,76.917C481.157,76.712,483.191,75.242,485.226,74.727C487.26,74.212,489.295,74.652,491.329,75.333C493.363,76.015,495.398,76.939,497.432,77.152C499.467,77.364,501.501,76.864,503.536,76.424C505.57,75.985,507.604,75.606,509.639,75.417C511.673,75.227,513.708,75.227,515.742,75.083C517.776,74.939,519.811,74.652,521.845,74.871C523.88,75.091,525.914,75.818,527.949,75.848C529.983,75.879,532.017,75.212,534.052,74.917C536.086,74.621,538.121,74.697,540.155,75.341C542.189,75.985,544.224,77.197,546.258,77.818C548.293,78.439,550.327,78.47,552.362,78.053C554.396,77.636,556.43,76.773,558.465,76.129C560.499,75.485,562.534,75.061,564.568,74.576C566.602,74.091,568.637,73.545,570.671,73.288C572.706,73.03,574.74,73.061,576.775,73.598C578.809,74.136,580.843,75.182,582.878,75.636C584.912,76.091,586.947,75.955,588.981,75.492" stroke="#FF4B33" stroke-width="2"/></g></g><path class="foreground" aria-hidden="true" d="" display="none"/></g><g transform="translate(0,0)"><path class="background" aria-hidden="true" d="M0,0h600v400h-600Z"/><g><g class="mark-line role-mark layer_1_marks" clip-path="url(#clip5)" role="graphics-object" aria-roledescription="line mark container"><path aria-label="Number of environment steps: 200.38k; Success rate: 0.1548; Algorithm: MTSAC" role="graphics-symbol" aria-roledescription="line mark" d="M3.069,376.6C5.104,365.4,7.138,360.4,9.172,354C11.207,347.6,13.241,339.8,15.276,329.367C17.31,318.933,19.344,305.867,21.379,297.833C23.413,289.8,25.448,286.8,27.482,281.1C29.517,275.4,31.551,267,33.585,257.833C35.62,248.667,37.654,238.733,39.689,227.8C41.723,216.867,43.757,204.933,45.792,198.033C47.826,191.133,49.861,189.267,51.895,185.3C53.93,181.333,55.964,175.267,57.998,172.767C60.033,170.267,62.067,171.333,64.102,171.167C66.136,171,68.17,169.6,70.205,166.7C72.239,163.8,74.274,159.4,76.308,156.5C78.343,153.6,80.377,152.2,82.411,151.533C84.446,150.867,86.48,150.933,88.515,151.4C90.549,151.867,92.583,152.733,94.618,153.5C96.652,154.267,98.687,154.933,100.721,153.333C102.756,151.733,104.79,147.867,106.824,145.633C108.859,143.4,110.893,142.8,112.928,142.2C114.962,141.6,116.996,141,119.031,140.467C121.065,139.933,123.1,139.467,125.134,138.467C127.169,137.467,129.203,135.933,131.237,134.233C133.272,132.533,135.306,130.667,137.341,129.4C139.375,128.133,141.409,127.467,143.444,125.933C145.478,124.4,147.513,122,149.547,119.267C151.582,116.533,153.616,113.467,155.65,110.733C157.685,108,159.719,105.6,161.754,103.533C163.788,101.467,165.822,99.733,167.857,99C169.891,98.267,171.926,98.533,173.96,97.867C175.995,97.2,178.029,95.6,180.063,94.7C182.098,93.8,184.132,93.6,186.167,93.367C188.201,93.133,190.235,92.867,192.27,92.133C194.304,91.4,196.339,90.2,198.373,89.667C200.408,89.133,202.442,89.267,204.476,89.867C206.511,90.467,208.545,91.533,210.58,92.133C212.614,92.733,214.648,92.867,216.683,92.7C218.717,92.533,220.752,92.067,222.786,91.733C224.821,91.4,226.855,91.2,228.889,90.5C230.924,89.8,232.958,88.6,234.993,87.733C237.027,86.867,239.061,86.333,241.096,87.067C243.13,87.8,245.165,89.8,247.199,89.533C249.234,89.267,251.268,86.733,253.302,85.667C255.337,84.6,257.371,85,259.406,85.833C261.44,86.667,263.474,87.933,265.509,88.9C267.543,89.867,269.578,90.533,271.612,90C273.646,89.467,275.681,87.733,277.715,86.967C279.75,86.2,281.784,86.4,283.819,86.967C285.853,87.533,287.887,88.467,289.922,88.6C291.956,88.733,293.991,88.067,296.025,88.3C298.059,88.533,300.094,89.667,302.128,88.567C304.163,87.467,306.197,84.133,308.232,82.8C310.266,81.467,312.3,82.133,314.335,81.9C316.369,81.667,318.404,80.533,320.438,80.233C322.472,79.933,324.507,80.467,326.541,80.667C328.576,80.867,330.61,80.733,332.645,81.033C334.679,81.333,336.713,82.067,338.748,81.4C340.782,80.733,342.817,78.667,344.851,78.5C346.885,78.333,348.92,80.067,350.954,81.267C352.989,82.467,355.023,83.133,357.058,82.633C359.092,82.133,361.126,80.467,363.161,80.267C365.195,80.067,367.23,81.333,369.264,81.267C371.298,81.2,373.333,79.8,375.367,79.633C377.402,79.467,379.436,80.533,381.471,82.1C383.505,83.667,385.539,85.733,387.574,85.9C389.608,86.067,391.643,84.333,393.677,83.367C395.711,82.4,397.746,82.2,399.78,82.033C401.815,81.867,403.849,81.733,405.884,81.233C407.918,80.733,409.952,79.867,411.987,80.367C414.021,80.867,416.056,82.733,418.09,82.9C420.124,83.067,422.159,81.533,424.193,80.833C426.228,80.133,428.262,80.267,430.297,80.1C432.331,79.933,434.365,79.467,436.4,79.067C438.434,78.667,440.469,78.333,442.503,78.667C444.537,79,446.572,80,448.606,79.5C450.641,79,452.675,77,454.71,75.8C456.744,74.6,458.778,74.2,460.813,74.3C462.847,74.4,464.882,75,466.916,75.867C468.95,76.733,470.985,77.867,473.019,78.067C475.054,78.267,477.088,77.533,479.123,77.333C481.157,77.133,483.191,77.467,485.226,77.7C487.26,77.933,489.295,78.067,491.329,78.1C493.363,78.133,495.398,78.067,497.432,77.9C499.467,77.733,501.501,77.467,503.536,77.133C505.57,76.8,507.604,76.4,509.639,76.667C511.673,76.933,513.708,77.867,515.742,78.067C517.776,78.267,519.811,77.733,521.845,77.833C523.88,77.933,525.914,78.667,527.949,79.133C529.983,79.6,532.017,79.8,534.052,79.833C536.086,79.867,538.121,79.733,540.155,79.533C542.189,79.333,544.224,79.067,546.258,78.867C548.293,78.667,550.327,78.533,552.362,78.067C554.396,77.6,556.43,76.8,558.465,76.367C560.499,75.933,562.534,75.867,564.568,76.467C566.602,77.067,568.637,78.333,570.671,78.733C572.706,79.133,574.74,78.667,576.775,78.933C578.809,79.2,580.843,80.2,582.878,80.8C584.912,81.4,586.947,81.6,588.981,80.9" stroke="#4D130F" stroke-width="2"/></g></g><path class="foreground" aria-hidden="true" d="" display="none"/></g><g transform="translate(0,0)"><path class="background" aria-hidden="true" d="M0,0h600v400h-600Z"/><g><g class="mark-line role-mark layer_1_marks" clip-path="url(#clip6)" role="graphics-object" aria-roledescription="line mark container"><path aria-label="Number of environment steps: 200.38k; Success rate: 0.1064; Algorithm: SAC" role="graphics-symbol" aria-roledescription="line mark" d="M3.069,401.1C5.104,390.8,7.138,387.9,9.172,381.717C11.207,375.533,13.241,366.067,15.276,354.217C17.31,342.367,19.344,328.133,21.379,315.117C23.413,302.1,25.448,290.3,27.482,280.417C29.517,270.533,31.551,262.567,33.585,254.383C35.62,246.2,37.654,237.8,39.689,228.683C41.723,219.567,43.757,209.733,45.792,203.1C47.826,196.467,49.861,193.033,51.895,188.417C53.93,183.8,55.964,178,57.998,173.817C60.033,169.633,62.067,167.067,64.102,164.333C66.136,161.6,68.17,158.7,70.205,157.033C72.239,155.367,74.274,154.933,76.308,154.767C78.343,154.6,80.377,154.7,82.411,154.05C84.446,153.4,86.48,152,88.515,151.183C90.549,150.367,92.583,150.133,94.618,148.033C96.652,145.933,98.687,141.967,100.721,139.633C102.756,137.3,104.79,136.6,106.824,136.533C108.859,136.467,110.893,137.033,112.928,136.883C114.962,136.733,116.996,135.867,119.031,134.833C121.065,133.8,123.1,132.6,125.134,131.733C127.169,130.867,129.203,130.333,131.237,129.117C133.272,127.9,135.306,126,137.341,124.717C139.375,123.433,141.409,122.767,143.444,122.733C145.478,122.7,147.513,123.3,149.547,121.967C151.582,120.633,153.616,117.367,155.65,115.367C157.685,113.367,159.719,112.633,161.754,112.4C163.788,112.167,165.822,112.433,167.857,111.8C169.891,111.167,171.926,109.633,173.96,108.333C175.995,107.033,178.029,105.967,180.063,105.95C182.098,105.933,184.132,106.967,186.167,107.017C188.201,107.067,190.235,106.133,192.27,105.85C194.304,105.567,196.339,105.933,198.373,105.95C200.408,105.967,202.442,105.633,204.476,104.683C206.511,103.733,208.545,102.167,210.58,101.1C212.614,100.033,214.648,99.467,216.683,98.5C218.717,97.533,220.752,96.167,222.786,95.5C224.821,94.833,226.855,94.867,228.889,94.833C230.924,94.8,232.958,94.7,234.993,94.267C237.027,93.833,239.061,93.067,241.096,92.317C243.13,91.567,245.165,90.833,247.199,90.1C249.234,89.367,251.268,88.633,253.302,87.95C255.337,87.267,257.371,86.633,259.406,86.383C261.44,86.133,263.474,86.267,265.509,85.817C267.543,85.367,269.578,84.333,271.612,83.483C273.646,82.633,275.681,81.967,277.715,81.383C279.75,80.8,281.784,80.3,283.819,80.7C285.853,81.1,287.887,82.4,289.922,82.767C291.956,83.133,293.991,82.567,296.025,81.65C298.059,80.733,300.094,79.467,302.128,79.867C304.163,80.267,306.197,82.333,308.232,83.067C310.266,83.8,312.3,83.2,314.335,83.4C316.369,83.6,318.404,84.6,320.438,84.067C322.472,83.533,324.507,81.467,326.541,79.783C328.576,78.1,330.61,76.8,332.645,77.2C334.679,77.6,336.713,79.7,338.748,80.017C340.782,80.333,342.817,78.867,344.851,77.85C346.885,76.833,348.92,76.267,350.954,77.4C352.989,78.533,355.023,81.367,357.058,81.567C359.092,81.767,361.126,79.333,363.161,79C365.195,78.667,367.23,80.433,369.264,80.3C371.298,80.167,373.333,78.133,375.367,76.95C377.402,75.767,379.436,75.433,381.471,76.6C383.505,77.767,385.539,80.433,387.574,81.583C389.608,82.733,391.643,82.367,393.677,82.433C395.711,82.5,397.746,83,399.78,82.1C401.815,81.2,403.849,78.9,405.884,77.583C407.918,76.267,409.952,75.933,411.987,75.1C414.021,74.267,416.056,72.933,418.09,72.733C420.124,72.533,422.159,73.467,424.193,73.833C426.228,74.2,428.262,74,430.297,73.783C432.331,73.567,434.365,73.333,436.4,72.233C438.434,71.133,440.469,69.167,442.503,69.133C444.537,69.1,446.572,71,448.606,70.983C450.641,70.967,452.675,69.033,454.71,69.167C456.744,69.3,458.778,71.5,460.813,71.933C462.847,72.367,464.882,71.033,466.916,70.333C468.95,69.633,470.985,69.567,473.019,69.55C475.054,69.533,477.088,69.567,479.123,69.567C481.157,69.567,483.191,69.533,485.226,68.717C487.26,67.9,489.295,66.3,491.329,65.633C493.363,64.967,495.398,65.233,497.432,66.167C499.467,67.1,501.501,68.7,503.536,69.017C505.57,69.333,507.604,68.367,509.639,68.067C511.673,67.767,513.708,68.133,515.742,68.083C517.776,68.033,519.811,67.567,521.845,67.45C523.88,67.333,525.914,67.567,527.949,67.517C529.983,67.467,532.017,67.133,534.052,66.967C536.086,66.8,538.121,66.8,540.155,66.983C542.189,67.167,544.224,67.533,546.258,67.817C548.293,68.1,550.327,68.3,552.362,67.917C554.396,67.533,556.43,66.567,558.465,66.833C560.499,67.1,562.534,68.6,564.568,69.067C566.602,69.533,568.637,68.967,570.671,68.733C572.706,68.5,574.74,68.6,576.775,68.867C578.809,69.133,580.843,69.567,582.878,69.967C584.912,70.367,586.947,70.733,588.981,70.333" stroke="#3D494C" stroke-width="2"/></g></g><path class="foreground" aria-hidden="true" d="" display="none"/></g></g><g class="mark-group role-legend" role="graphics-symbol" aria-roledescription="legend" aria-label="Symbol legend titled 'Algorithm' for fill color and stroke color with 3 values: MTMHSAC, MTSAC, SAC"><g transform="translate(618,0)"><path class="background" aria-hidden="true" d="M0,0h89v67h-89Z" pointer-events="none"/><g><g class="mark-group role-legend-entry"><g transform="translate(0,21)"><path class="background" aria-hidden="true" d="M0,0h0v0h0Z" pointer-events="none"/><g><g class="mark-group role-scope" role="graphics-object" aria-roledescription="group mark container"><g transform="translate(0,0)"><path class="background" aria-hidden="true" d="M0,0h88.79296875v14h-88.79296875Z" pointer-events="none" opacity="1"/><g><g class="mark-symbol role-legend-symbol" pointer-events="none"><path transform="translate(7,7)" d="M5,0A5,5,0,1,1,-5,0A5,5,0,1,1,5,0" fill="#FF4B33" stroke="#FF4B33" stroke-width="1.5" opacity="0.3"/></g><g class="mark-text role-legend-label" pointer-events="none"><text text-anchor="start" transform="translate(18,11)" font-family="Times New Roman" font-size="14px" fill="#000" opacity="1">MTMHSAC</text></g></g><path class="foreground" aria-hidden="true" d="" pointer-events="none" display="none"/></g><g transform="translate(0,16)"><path class="background" aria-hidden="true" d="M0,0h88.79296875v14h-88.79296875Z" pointer-events="none" opacity="1"/><g><g class="mark-symbol role-legend-symbol" pointer-events="none"><path transform="translate(7,7)" d="M5,0A5,5,0,1,1,-5,0A5,5,0,1,1,5,0" fill="#4D130F" stroke="#4D130F" stroke-width="1.5" opacity="0.3"/></g><g class="mark-text role-legend-label" pointer-events="none"><text text-anchor="start" transform="translate(18,11)" font-family="Times New Roman" font-size="14px" fill="#000" opacity="1">MTSAC</text></g></g><path class="foreground" aria-hidden="true" d="" pointer-events="none" display="none"/></g><g transform="translate(0,32)"><path class="background" aria-hidden="true" d="M0,0h88.79296875v14h-88.79296875Z" pointer-events="none" opacity="1"/><g><g class="mark-symbol role-legend-symbol" pointer-events="none"><path transform="translate(7,7)" d="M5,0A5,5,0,1,1,-5,0A5,5,0,1,1,5,0" fill="#3D494C" stroke="#3D494C" stroke-width="1.5" opacity="0.3"/></g><g class="mark-text role-legend-label" pointer-events="none"><text text-anchor="start" transform="translate(18,11)" font-family="Times New Roman" font-size="14px" fill="#000" opacity="1">SAC</text></g></g><path class="foreground" aria-hidden="true" d="" pointer-events="none" display="none"/></g></g></g><path class="foreground" aria-hidden="true" d="" pointer-events="none" display="none"/></g></g><g class="mark-text role-legend-title" pointer-events="none"><text text-anchor="start" transform="translate(0,13)" font-family="Times New Roman" font-size="16px" font-weight="bold" fill="#000" opacity="1">Algorithm</text></g></g><path class="foreground" aria-hidden="true" d="" pointer-events="none" display="none"/></g></g></g><path class="foreground" aria-hidden="true" d="" display="none"/></g></g></g><defs><clipPath id="clip1"><rect x="0" y="0" width="600" height="400"/></clipPath><clipPath id="clip2"><rect x="0" y="0" width="600" height="400"/></clipPath><clipPath id="clip3"><rect x="0" y="0" width="600" height="400"/></clipPath><clipPath id="clip4"><rect x="0" y="0" width="600" height="400"/></clipPath><clipPath id="clip5"><rect x="0" y="0" width="600" height="400"/></clipPath><clipPath id="clip6"><rect x="0" y="0" width="600" height="400"/></clipPath></defs></svg>