<svg xmlns="http://www.w3.org/2000/svg" xmlns:xlink="http://www.w3.org/1999/xlink" version="1.1" class="marks" width="762" height="458" viewBox="0 0 762 458"><rect width="762" height="458" fill="white"/><g fill="none" stroke-miterlimit="10" transform="translate(50,12)"><g class="mark-group role-frame root" role="graphics-object" aria-roledescription="group mark container"><g transform="translate(0,0)"><path class="background" aria-hidden="true" d="M0.5,0.5h600v400h-600Z" stroke="#ddd"/><g><g class="mark-group role-axis" aria-hidden="true"><g transform="translate(0.5,400.5)"><path class="background" aria-hidden="true" d="M0,0h0v0h0Z" pointer-events="none"/><g><g class="mark-rule role-axis-grid" pointer-events="none"><line transform="translate(21,-400)" x2="0" y2="400" stroke="#ddd" stroke-width="1" opacity="1"/><line transform="translate(52,-400)" x2="0" y2="400" stroke="#ddd" stroke-width="1" opacity="1"/><line transform="translate(82,-400)" x2="0" y2="400" stroke="#ddd" stroke-width="1" opacity="1"/><line transform="translate(113,-400)" x2="0" y2="400" stroke="#ddd" stroke-width="1" opacity="1"/><line transform="translate(143,-400)" x2="0" y2="400" stroke="#ddd" stroke-width="1" opacity="1"/><line transform="translate(174,-400)" x2="0" y2="400" stroke="#ddd" stroke-width="1" opacity="1"/><line transform="translate(204,-400)" x2="0" y2="400" stroke="#ddd" stroke-width="1" opacity="1"/><line transform="translate(235,-400)" x2="0" y2="400" stroke="#ddd" stroke-width="1" opacity="1"/><line transform="translate(265,-400)" x2="0" y2="400" stroke="#ddd" stroke-width="1" opacity="1"/><line transform="translate(295,-400)" x2="0" y2="400" stroke="#ddd" stroke-width="1" opacity="1"/><line transform="translate(326,-400)" x2="0" y2="400" stroke="#ddd" stroke-width="1" opacity="1"/><line transform="translate(356,-400)" x2="0" y2="400" stroke="#ddd" stroke-width="1" opacity="1"/><line transform="translate(387,-400)" x2="0" y2="400" stroke="#ddd" stroke-width="1" opacity="1"/><line transform="translate(417,-400)" x2="0" y2="400" stroke="#ddd" stroke-width="1" opacity="1"/><line transform="translate(448,-400)" x2="0" y2="400" stroke="#ddd" stroke-width="1" opacity="1"/><line transform="translate(478,-400)" x2="0" y2="400" stroke="#ddd" stroke-width="1" opacity="1"/><line transform="translate(509,-400)" x2="0" y2="400" stroke="#ddd" stroke-width="1" opacity="1"/><line transform="translate(539,-400)" x2="0" y2="400" stroke="#ddd" stroke-width="1" opacity="1"/><line transform="translate(570,-400)" x2="0" y2="400" stroke="#ddd" stroke-width="1" opacity="1"/><line transform="translate(600,-400)" x2="0" y2="400" stroke="#ddd" stroke-width="1" opacity="1"/></g></g><path class="foreground" aria-hidden="true" d="" pointer-events="none" display="none"/></g></g><g class="mark-group role-axis" aria-hidden="true"><g transform="translate(0.5,0.5)"><path class="background" aria-hidden="true" d="M0,0h0v0h0Z" pointer-events="none"/><g><g class="mark-rule role-axis-grid" pointer-events="none"><line transform="translate(0,400)" x2="600" y2="0" stroke="#ddd" stroke-width="1" opacity="1"/><line transform="translate(0,350)" x2="600" y2="0" stroke="#ddd" stroke-width="1" opacity="1"/><line transform="translate(0,300)" x2="600" y2="0" stroke="#ddd" stroke-width="1" opacity="1"/><line transform="translate(0,250)" x2="600" y2="0" stroke="#ddd" stroke-width="1" opacity="1"/><line transform="translate(0,200)" x2="600" y2="0" stroke="#ddd" stroke-width="1" opacity="1"/><line transform="translate(0,150)" x2="600" y2="0" stroke="#ddd" stroke-width="1" opacity="1"/><line transform="translate(0,100)" x2="600" y2="0" stroke="#ddd" stroke-width="1" opacity="1"/><line transform="translate(0,50)" x2="600" y2="0" stroke="#ddd" stroke-width="1" opacity="1"/><line transform="translate(0,0)" x2="600" y2="0" stroke="#ddd" stroke-width="1" opacity="1"/></g></g><path class="foreground" aria-hidden="true" d="" pointer-events="none" display="none"/></g></g><g class="mark-group role-axis" role="graphics-symbol" aria-roledescription="axis" aria-label="X-axis titled 'Timestep' for a linear scale with values from 0M to 20M"><g transform="translate(0.5,400.5)"><path class="background" aria-hidden="true" d="M0,0h0v0h0Z" pointer-events="none"/><g><g class="mark-rule role-axis-tick" pointer-events="none"><line transform="translate(21,0)" x2="0" y2="5" stroke="#888" stroke-width="1" opacity="1"/><line transform="translate(52,0)" x2="0" y2="5" stroke="#888" stroke-width="1" opacity="1"/><line transform="translate(82,0)" x2="0" y2="5" stroke="#888" stroke-width="1" opacity="1"/><line transform="translate(113,0)" x2="0" y2="5" stroke="#888" stroke-width="1" opacity="1"/><line transform="translate(143,0)" x2="0" y2="5" stroke="#888" stroke-width="1" opacity="1"/><line transform="translate(174,0)" x2="0" y2="5" stroke="#888" stroke-width="1" opacity="1"/><line transform="translate(204,0)" x2="0" y2="5" stroke="#888" stroke-width="1" opacity="1"/><line transform="translate(235,0)" x2="0" y2="5" stroke="#888" stroke-width="1" opacity="1"/><line transform="translate(265,0)" x2="0" y2="5" stroke="#888" stroke-width="1" opacity="1"/><line transform="translate(295,0)" x2="0" y2="5" stroke="#888" stroke-width="1" opacity="1"/><line transform="translate(326,0)" x2="0" y2="5" stroke="#888" stroke-width="1" opacity="1"/><line transform="translate(356,0)" x2="0" y2="5" stroke="#888" stroke-width="1" opacity="1"/><line transform="translate(387,0)" x2="0" y2="5" stroke="#888" stroke-width="1" opacity="1"/><line transform="translate(417,0)" x2="0" y2="5" stroke="#888" stroke-width="1" opacity="1"/><line transform="translate(448,0)" x2="0" y2="5" stroke="#888" stroke-width="1" opacity="1"/><line transform="translate(478,0)" x2="0" y2="5" stroke="#888" stroke-width="1" opacity="1"/><line transform="translate(509,0)" x2="0" y2="5" stroke="#888" stroke-width="1" opacity="1"/><line transform="translate(539,0)" x2="0" y2="5" stroke="#888" stroke-width="1" opacity="1"/><line transform="translate(570,0)" x2="0" y2="5" stroke="#888" stroke-width="1" opacity="1"/><line transform="translate(600,0)" x2="0" y2="5" stroke="#888" stroke-width="1" opacity="1"/></g><g class="mark-text role-axis-label" pointer-events="none"><text text-anchor="middle" transform="translate(21.31979695431472,18)" font-family="Times New Roman" font-size="14px" fill="#000" opacity="1">1M</text><text text-anchor="middle" transform="translate(51.77664974619289,18)" font-family="Times New Roman" font-size="14px" fill="#000" opacity="0">2M</text><text text-anchor="middle" transform="translate(82.23350253807106,18)" font-family="Times New Roman" font-size="14px" fill="#000" opacity="1">3M</text><text text-anchor="middle" transform="translate(112.69035532994924,18)" font-family="Times New Roman" font-size="14px" fill="#000" opacity="0">4M</text><text text-anchor="middle" transform="translate(143.14720812182742,18)" font-family="Times New Roman" font-size="14px" fill="#000" opacity="1">5M</text><text text-anchor="middle" transform="translate(173.60406091370558,18)" font-family="Times New Roman" font-size="14px" fill="#000" opacity="0">6M</text><text text-anchor="middle" transform="translate(204.06091370558377,18)" font-family="Times New Roman" font-size="14px" fill="#000" opacity="1">7M</text><text text-anchor="middle" transform="translate(234.51776649746193,18)" font-family="Times New Roman" font-size="14px" fill="#000" opacity="0">8M</text><text text-anchor="middle" transform="translate(264.97461928934007,18)" font-family="Times New Roman" font-size="14px" fill="#000" opacity="1">9M</text><text text-anchor="middle" transform="translate(295.43147208121826,18)" font-family="Times New Roman" font-size="14px" fill="#000" opacity="0">10M</text><text text-anchor="middle" transform="translate(325.88832487309645,18)" font-family="Times New Roman" font-size="14px" fill="#000" opacity="1">11M</text><text text-anchor="middle" transform="translate(356.34517766497464,18)" font-family="Times New Roman" font-size="14px" fill="#000" opacity="0">12M</text><text text-anchor="middle" transform="translate(386.80203045685283,18)" font-family="Times New Roman" font-size="14px" fill="#000" opacity="1">13M</text><text text-anchor="middle" transform="translate(417.25888324873097,18)" font-family="Times New Roman" font-size="14px" fill="#000" opacity="0">14M</text><text text-anchor="middle" transform="translate(447.71573604060916,18)" font-family="Times New Roman" font-size="14px" fill="#000" opacity="1">15M</text><text text-anchor="middle" transform="translate(478.1725888324873,18)" font-family="Times New Roman" font-size="14px" fill="#000" opacity="0">16M</text><text text-anchor="middle" transform="translate(508.6294416243655,18)" font-family="Times New Roman" font-size="14px" fill="#000" opacity="1">17M</text><text text-anchor="middle" transform="translate(539.0862944162436,18)" font-family="Times New Roman" font-size="14px" fill="#000" opacity="0">18M</text><text text-anchor="middle" transform="translate(569.5431472081218,18)" font-family="Times New Roman" font-size="14px" fill="#000" opacity="1">19M</text><text text-anchor="end" transform="translate(600,18)" font-family="Times New Roman" font-size="14px" fill="#000" opacity="0">20M</text></g><g class="mark-rule role-axis-domain" pointer-events="none"><line transform="translate(0,0)" x2="600" y2="0" stroke="#888" stroke-width="1" opacity="1"/></g><g class="mark-text role-axis-title" pointer-events="none"><text text-anchor="middle" transform="translate(300,38)" font-family="Times New Roman" font-size="16px" font-weight="bold" fill="#000" opacity="1">Timestep</text></g></g><path class="foreground" aria-hidden="true" d="" pointer-events="none" display="none"/></g></g><g class="mark-group role-axis" role="graphics-symbol" aria-roledescription="axis" aria-label="Y-axis titled 'Success rate' for a linear scale with values from 0.2 to 1.0"><g transform="translate(0.5,0.5)"><path class="background" aria-hidden="true" d="M0,0h0v0h0Z" pointer-events="none"/><g><g class="mark-rule role-axis-tick" pointer-events="none"><line transform="translate(0,400)" x2="-5" y2="0" stroke="#888" stroke-width="1" opacity="1"/><line transform="translate(0,350)" x2="-5" y2="0" stroke="#888" stroke-width="1" opacity="1"/><line transform="translate(0,300)" x2="-5" y2="0" stroke="#888" stroke-width="1" opacity="1"/><line transform="translate(0,250)" x2="-5" y2="0" stroke="#888" stroke-width="1" opacity="1"/><line transform="translate(0,200)" x2="-5" y2="0" stroke="#888" stroke-width="1" opacity="1"/><line transform="translate(0,150)" x2="-5" y2="0" stroke="#888" stroke-width="1" opacity="1"/><line transform="translate(0,100)" x2="-5" y2="0" stroke="#888" stroke-width="1" opacity="1"/><line transform="translate(0,50)" x2="-5" y2="0" stroke="#888" stroke-width="1" opacity="1"/><line transform="translate(0,0)" x2="-5" y2="0" stroke="#888" stroke-width="1" opacity="1"/></g><g class="mark-text role-axis-label" pointer-events="none"><text text-anchor="end" transform="translate(-7,404)" font-family="Times New Roman" font-size="14px" fill="#000" opacity="1">0.2</text><text text-anchor="end" transform="translate(-7,354)" font-family="Times New Roman" font-size="14px" fill="#000" opacity="1">0.3</text><text text-anchor="end" transform="translate(-7,304)" font-family="Times New Roman" font-size="14px" fill="#000" opacity="1">0.4</text><text text-anchor="end" transform="translate(-7,254)" font-family="Times New Roman" font-size="14px" fill="#000" opacity="1">0.5</text><text text-anchor="end" transform="translate(-7,204)" font-family="Times New Roman" font-size="14px" fill="#000" opacity="1">0.6</text><text text-anchor="end" transform="translate(-7,154.00000000000006)" font-family="Times New Roman" font-size="14px" fill="#000" opacity="1">0.7</text><text text-anchor="end" transform="translate(-7,103.99999999999996)" font-family="Times New Roman" font-size="14px" fill="#000" opacity="1">0.8</text><text text-anchor="end" transform="translate(-7,54.00000000000004)" font-family="Times New Roman" font-size="14px" fill="#000" opacity="1">0.9</text><text text-anchor="end" transform="translate(-7,4)" font-family="Times New Roman" font-size="14px" fill="#000" opacity="1">1.0</text></g><g class="mark-rule role-axis-domain" pointer-events="none"><line transform="translate(0,400)" x2="0" y2="-400" stroke="#888" stroke-width="1" opacity="1"/></g><g class="mark-text role-axis-title" pointer-events="none"><text text-anchor="middle" transform="translate(-28.5,200) rotate(-90) translate(0,-3)" font-family="Times New Roman" font-size="16px" font-weight="bold" fill="#000" opacity="1">Success rate</text></g></g><path class="foreground" aria-hidden="true" d="" pointer-events="none" display="none"/></g></g><g class="mark-group role-scope layer_0_layer_0_pathgroup" role="graphics-object" aria-roledescription="group mark container"><g transform="translate(0,0)"><path class="background" aria-hidden="true" d="M0,0h600v400h-600Z"/><g><g class="mark-area role-mark layer_0_layer_0_marks" clip-path="url(#clip1)" role="graphics-object" aria-roledescription="area mark container"><path aria-label="Timestep: 200.38k; Success rate: 0.0742454545455; upper_Success rate: 0.113; Algorithm: MTMHSAC; Ci1 of Success rate: 0.113; Ci0 of Success rate: 0.0742454545455; Mean of Success rate: 0.0943636363636" role="graphics-symbol" aria-roledescription="errorband" d="M3.069,418.511C5.104,405.548,7.138,395.322,9.172,385.935C11.207,376.548,13.241,368.002,15.276,358.48C17.31,348.959,19.344,338.464,21.379,329.177C23.413,319.89,25.448,311.812,27.482,304.061C29.517,296.309,31.551,288.884,33.585,281.566C35.62,274.248,37.654,267.038,39.689,258.463C41.723,249.888,43.757,239.948,45.792,233.334C47.826,226.72,49.861,223.433,51.895,218.683C53.93,213.933,55.964,207.72,57.998,204.583C60.033,201.445,62.067,201.384,64.102,200.322C66.136,199.261,68.17,197.198,70.205,193.661C72.239,190.123,74.274,185.111,76.308,181.468C78.343,177.825,80.377,175.552,82.411,173.463C84.446,171.373,86.48,169.469,88.515,166.339C90.549,163.209,92.583,158.855,94.618,157.126C96.652,155.396,98.687,156.291,100.721,155.814C102.756,155.337,104.79,153.489,106.824,152.201C108.859,150.914,110.893,150.186,112.928,149.709C114.962,149.232,116.996,149.005,119.031,149.255C121.065,149.505,123.1,150.233,125.134,149.49C127.169,148.748,129.203,146.535,131.237,144.565C133.272,142.594,135.306,140.865,137.341,139.229C139.375,137.592,141.409,136.048,143.444,134.919C145.478,133.791,147.513,133.078,149.547,132.752C151.582,132.425,153.616,132.486,155.65,131.357C157.685,130.228,159.719,127.909,161.754,126.909C163.788,125.909,165.822,126.228,167.857,125.569C169.891,124.911,171.926,123.275,173.96,122.191C175.995,121.108,178.029,120.577,180.063,120.1C182.098,119.623,184.132,119.199,186.167,119.32C188.201,119.442,190.235,120.108,192.27,119.48C194.304,118.851,196.339,116.927,198.373,116.23C200.408,115.533,202.442,116.063,204.476,116.078C206.511,116.092,208.545,115.592,210.58,115.258C212.614,114.925,214.648,114.758,216.683,115.107C218.717,115.456,220.752,116.319,222.786,116.312C224.821,116.304,226.855,115.425,228.889,114.563C230.924,113.701,232.958,112.855,234.993,112C237.027,111.144,239.061,110.28,241.096,109.575C243.13,108.87,245.165,108.325,247.199,107.915C249.234,107.505,251.268,107.231,253.302,106.935C255.337,106.638,257.371,106.32,259.406,105.524C261.44,104.728,263.474,103.455,265.509,102.387C267.543,101.319,269.578,100.456,271.612,99.646C273.646,98.836,275.681,98.08,277.715,97.352C279.75,96.625,281.784,95.928,283.819,95.299C285.853,94.669,287.887,94.108,289.922,93.782C291.956,93.456,293.991,93.365,296.025,93.783C298.059,94.201,300.094,95.128,302.128,95.273C304.163,95.417,306.197,94.778,308.232,93.974C310.266,93.169,312.3,92.198,314.335,92.152C316.369,92.106,318.404,92.986,320.438,93.638C322.472,94.29,324.507,94.715,326.541,94.556C328.576,94.397,330.61,93.653,332.645,93.737C334.679,93.82,336.713,94.731,338.748,94.345C340.782,93.958,342.817,92.276,344.851,91.086C346.885,89.896,348.92,89.199,350.954,88.601C352.989,88.003,355.023,87.503,357.058,86.814C359.092,86.124,361.126,85.245,363.161,84.73C365.195,84.214,367.23,84.062,369.264,84.335C371.298,84.607,373.333,85.304,375.367,85.91C377.402,86.516,379.436,87.031,381.471,87.319C383.505,87.607,385.539,87.668,387.574,87.1C389.608,86.532,391.643,85.336,393.677,84.503C395.711,83.67,397.746,83.2,399.78,83.693C401.815,84.185,403.849,85.64,405.884,85.7C407.918,85.761,409.952,84.427,411.987,83.866C414.021,83.306,416.056,83.519,418.09,83.587C420.124,83.655,422.159,83.578,424.193,83.828C426.228,84.077,428.262,84.653,430.297,84.403C432.331,84.153,434.365,83.077,436.4,83.138C438.434,83.198,440.469,84.394,442.503,84.842C444.537,85.291,446.572,84.99,448.606,85.104C450.641,85.219,452.675,85.747,454.71,85.981C456.744,86.215,458.778,86.153,460.813,86.191C462.847,86.228,464.882,86.364,466.916,85.698C468.95,85.032,470.985,83.564,473.019,83.595C475.054,83.625,477.088,85.155,479.123,84.95C481.157,84.745,483.191,82.804,485.226,82.145C487.26,81.485,489.295,82.107,491.329,82.91C493.363,83.713,495.398,84.697,497.432,85.076C499.467,85.455,501.501,85.229,503.536,84.995C505.57,84.761,507.604,84.52,509.639,84.118C511.673,83.716,513.708,83.153,515.742,82.812C517.776,82.471,519.811,82.351,521.845,82.601C523.88,82.852,525.914,83.472,527.949,83.457C529.983,83.441,532.017,82.789,534.052,82.425C536.086,82.061,538.121,81.985,540.155,82.788C542.189,83.591,544.224,85.273,546.258,86.19C548.293,87.107,550.327,87.258,552.362,86.75C554.396,86.243,556.43,85.077,558.465,84.16C560.499,83.244,562.534,82.577,564.568,82.259C566.602,81.94,568.637,81.97,570.671,81.879C572.706,81.788,574.74,81.577,576.775,81.986C578.809,82.395,580.843,83.425,582.878,83.796C584.912,84.167,586.947,83.88,588.981,83.433L588.981,69.386C586.947,69.788,584.912,69.666,582.878,69.181C580.843,68.696,578.809,67.848,576.775,67.386C574.74,66.924,572.706,66.848,570.671,67.159C568.637,67.47,566.602,68.167,564.568,68.659C562.534,69.152,560.499,69.439,558.465,69.901C556.43,70.363,554.396,70.999,552.362,71.378C550.327,71.757,548.293,71.878,546.258,71.356C544.224,70.833,542.189,69.666,540.155,69.007C538.121,68.347,536.086,68.196,534.052,68.529C532.017,68.863,529.983,69.681,527.949,69.689C525.914,69.697,523.88,68.894,521.845,68.674C519.811,68.454,517.776,68.817,515.742,68.787C513.708,68.756,511.673,68.331,509.639,68.391C507.604,68.452,505.57,68.998,503.536,69.506C501.501,70.014,499.467,70.483,497.432,70.369C495.398,70.256,493.363,69.559,491.329,68.953C489.295,68.347,487.26,67.831,485.226,68.301C483.191,68.771,481.157,70.226,479.123,70.605C477.088,70.984,475.054,70.288,473.019,69.78C470.985,69.272,468.95,68.954,466.916,69.506C464.882,70.059,462.847,71.483,460.813,72.051C458.778,72.619,456.744,72.331,454.71,71.892C452.675,71.453,450.641,70.863,448.606,70.303C446.572,69.742,444.537,69.212,442.503,68.598C440.469,67.984,438.434,67.287,436.4,67.34C434.365,67.393,432.331,68.197,430.297,68.447C428.262,68.697,426.228,68.394,424.193,68.151C422.159,67.909,420.124,67.727,418.09,67.56C416.056,67.393,414.021,67.241,411.987,67.612C409.952,67.984,407.918,68.878,405.884,68.817C403.849,68.756,401.815,67.74,399.78,67.414C397.746,67.088,395.711,67.453,393.677,68.142C391.643,68.832,389.608,69.847,387.574,70.642C385.539,71.438,383.505,72.014,381.471,71.803C379.436,71.591,377.402,70.591,375.367,69.894C373.333,69.196,371.298,68.802,369.264,68.506C367.23,68.21,365.195,68.014,363.161,68.165C361.126,68.317,359.092,68.817,357.058,69.483C355.023,70.15,352.989,70.982,350.954,71.111C348.92,71.24,346.885,70.666,344.851,70.696C342.817,70.727,340.782,71.364,338.748,71.416C336.713,71.468,334.679,70.936,332.645,71.269C330.61,71.602,328.576,72.8,326.541,73.331C324.507,73.862,322.472,73.725,320.438,72.937C318.404,72.149,316.369,70.71,314.335,70.408C312.3,70.105,310.266,70.939,308.232,71.697C306.197,72.454,304.163,73.136,302.128,73.09C300.094,73.044,298.059,72.27,296.025,71.997C293.991,71.723,291.956,71.95,289.922,72.003C287.887,72.056,285.853,71.936,283.819,72.155C281.784,72.375,279.75,72.934,277.715,73.768C275.681,74.601,273.646,75.709,271.612,76.65C269.578,77.59,267.543,78.363,265.509,79.075C263.474,79.787,261.44,80.438,259.406,80.831C257.371,81.225,255.337,81.361,253.302,81.597C251.268,81.832,249.234,82.166,247.199,82.969C245.165,83.773,243.13,85.045,241.096,85.817C239.061,86.589,237.027,86.861,234.993,87.588C232.958,88.315,230.924,89.498,228.889,90.491C226.855,91.484,224.821,92.287,222.786,92.522C220.752,92.756,218.717,92.423,216.683,92.149C214.648,91.874,212.614,91.659,210.58,91.894C208.545,92.129,206.511,92.814,204.476,93.27C202.442,93.726,200.408,93.952,198.373,94.815C196.339,95.678,194.304,97.178,192.27,97.701C190.235,98.223,188.201,97.769,186.167,97.845C184.132,97.921,182.098,98.528,180.063,99.112C178.029,99.695,175.995,100.255,173.96,101.437C171.926,102.619,169.891,104.423,167.857,104.727C165.822,105.03,163.788,103.833,161.754,104.264C159.719,104.695,157.685,106.756,155.65,107.733C153.616,108.71,151.582,108.604,149.547,109.218C147.513,109.831,145.478,111.165,143.444,112.234C141.409,113.302,139.375,114.105,137.341,115.022C135.306,115.939,133.272,116.969,131.237,118.173C129.203,119.378,127.169,120.755,125.134,122.179C123.1,123.603,121.065,125.074,119.031,125.794C116.996,126.514,114.962,126.484,112.928,126.764C110.893,127.045,108.859,127.636,106.824,128.742C104.79,129.848,102.756,131.47,100.721,132.114C98.687,132.758,96.652,132.424,94.618,133.013C92.583,133.602,90.549,135.114,88.515,136.447C86.48,137.78,84.446,138.935,82.411,139.747C80.377,140.559,78.343,141.029,76.308,142.521C74.274,144.014,72.239,146.528,70.205,148.483C68.17,150.437,66.136,151.83,64.102,153.081C62.067,154.331,60.033,155.438,57.998,158.211C55.964,160.984,53.93,165.423,51.895,168.892C49.861,172.36,47.826,174.858,45.792,181.062C43.757,187.266,41.723,197.176,39.689,205.602C37.654,214.027,35.62,220.967,33.585,228.991C31.551,237.014,29.517,246.12,27.482,254.915C25.448,263.711,23.413,272.195,21.379,282.347C19.344,292.498,17.31,304.317,15.276,317.036C13.241,329.755,11.207,343.374,9.172,356.934C7.138,370.495,5.104,383.996,3.069,398.414Z" fill="#FF4B33" opacity="0.3"/></g></g><path class="foreground" aria-hidden="true" d="" display="none"/></g><g transform="translate(0,0)"><path class="background" aria-hidden="true" d="M0,0h600v400h-600Z"/><g><g class="mark-area role-mark layer_0_layer_0_marks" clip-path="url(#clip2)" role="graphics-object" aria-roledescription="area mark container"><path aria-label="Timestep: 200.38k; Success rate: 0.1348; upper_Success rate: 0.182; Algorithm: MTSAC; Ci1 of Success rate: 0.182; Ci0 of Success rate: 0.1348; Mean of Success rate: 0.1548" role="graphics-symbol" aria-roledescription="errorband" d="M3.069,402.533C5.104,394.2,7.138,388.4,9.172,384.574C11.207,380.748,13.241,378.897,15.276,370.73C17.31,362.563,19.344,348.082,21.379,342.441C23.413,336.8,25.448,340,27.482,336.533C29.517,333.067,31.551,322.933,33.585,314.767C35.62,306.6,37.654,300.4,39.689,288.6C41.723,276.8,43.757,259.4,45.792,249.633C47.826,239.867,49.861,237.733,51.895,229.933C53.93,222.133,55.964,208.667,57.998,203.7C60.033,198.733,62.067,202.267,64.102,203.333C66.136,204.4,68.17,203,70.205,198.8C72.239,194.6,74.274,187.6,76.308,184.034C78.343,180.468,80.377,180.337,82.411,180.003C84.446,179.67,86.48,179.135,88.515,178.634C90.549,178.133,92.583,177.667,94.618,178.233C96.652,178.8,98.687,180.4,100.721,179.933C102.756,179.467,104.79,176.933,106.824,174.333C108.859,171.733,110.893,169.067,112.928,168.467C114.962,167.867,116.996,169.333,119.031,169.967C121.065,170.6,123.1,170.4,125.134,169.767C127.169,169.133,129.203,168.067,131.237,165.433C133.272,162.8,135.306,158.6,137.341,156.905C139.375,155.21,141.409,156.02,143.444,153.12C145.478,150.22,147.513,143.61,149.547,139.472C151.582,135.333,153.616,133.667,155.65,131.1C157.685,128.533,159.719,125.067,161.754,122.5C163.788,119.933,165.822,118.267,167.857,117.134C169.891,116.002,171.926,115.403,173.96,114.337C175.995,113.27,178.029,111.735,180.063,111.668C182.098,111.602,184.132,113.003,186.167,112.837C188.201,112.67,190.235,110.935,192.27,110.07C194.304,109.205,196.339,109.21,198.373,108.543C200.408,107.877,202.442,106.538,204.476,105.969C206.511,105.4,208.545,105.6,210.58,106.833C212.614,108.067,214.648,110.333,216.683,111.233C218.717,112.133,220.752,111.667,222.786,111.867C224.821,112.067,226.855,112.933,228.889,112.067C230.924,111.2,232.958,108.6,234.993,107.502C237.027,106.405,239.061,106.81,241.096,107.612C243.13,108.413,245.165,109.612,247.199,109.543C249.234,109.473,251.268,108.137,253.302,106.902C255.337,105.667,257.371,104.533,259.406,104.467C261.44,104.4,263.474,105.4,265.509,106.17C267.543,106.94,269.578,107.48,271.612,106.813C273.646,106.147,275.681,104.273,277.715,103.37C279.75,102.467,281.784,102.533,283.819,102.5C285.853,102.467,287.887,102.333,289.922,102.767C291.956,103.2,293.991,104.2,296.025,104.333C298.059,104.467,300.094,103.733,302.128,102.201C304.163,100.668,306.197,98.337,308.232,97.304C310.266,96.272,312.3,96.538,314.335,96.943C316.369,97.347,318.404,97.888,320.438,97.988C322.472,98.087,324.507,97.743,326.541,98.205C328.576,98.667,330.61,99.933,332.645,100.4C334.679,100.867,336.713,100.533,338.748,99.567C340.782,98.6,342.817,97,344.851,96.2C346.885,95.4,348.92,95.4,350.954,96.3C352.989,97.2,355.023,99,357.058,98.833C359.092,98.667,361.126,96.533,363.161,96.902C365.195,97.27,367.23,100.14,369.264,101.173C371.298,102.207,373.333,101.403,375.367,100.268C377.402,99.133,379.436,97.667,381.471,99.233C383.505,100.8,385.539,105.4,387.574,106.833C389.608,108.267,391.643,106.533,393.677,105.37C395.711,104.207,397.746,103.613,399.78,103.247C401.815,102.88,403.849,102.74,405.884,102.77C407.918,102.8,409.952,103,411.987,103.033C414.021,103.067,416.056,102.933,418.09,102.433C420.124,101.933,422.159,101.067,424.193,100.133C426.228,99.2,428.262,98.2,430.297,97.633C432.331,97.067,434.365,96.933,436.4,97.2C438.434,97.467,440.469,98.133,442.503,98.033C444.537,97.933,446.572,97.067,448.606,96.633C450.641,96.2,452.675,96.2,454.71,95.133C456.744,94.067,458.778,91.933,460.813,91.567C462.847,91.2,464.882,92.6,466.916,95.433C468.95,98.267,470.985,102.533,473.019,103.234C475.054,103.935,477.088,101.07,479.123,99.537C481.157,98.003,483.191,97.802,485.226,97.301C487.26,96.8,489.295,96,491.329,97.2C493.363,98.4,495.398,101.6,497.432,102.433C499.467,103.267,501.501,101.733,503.536,99.867C505.57,98,507.604,95.8,509.639,95.7C511.673,95.6,513.708,97.6,515.742,98.933C517.776,100.267,519.811,100.933,521.845,101.367C523.88,101.8,525.914,102,527.949,101.4C529.983,100.8,532.017,99.4,534.052,98.633C536.086,97.867,538.121,97.733,540.155,97.667C542.189,97.6,544.224,97.6,546.258,96.733C548.293,95.867,550.327,94.133,552.362,93.5C554.396,92.867,556.43,93.333,558.465,93.9C560.499,94.467,562.534,95.133,564.568,96.5C566.602,97.867,568.637,99.933,570.671,99.267C572.706,98.6,574.74,95.2,576.775,95.833C578.809,96.467,580.843,101.133,582.878,103.067C584.912,105,586.947,104.2,588.981,102.1L588.981,67.467C586.947,66.867,584.912,65.733,582.878,65.6C580.843,65.467,578.809,66.333,576.775,66.3C574.74,66.267,572.706,65.333,570.671,64.867C568.637,64.4,566.602,64.4,564.568,64.266C562.534,64.132,560.499,63.863,558.465,64.697C556.43,65.53,554.396,67.465,552.362,68.066C550.327,68.667,548.293,67.933,546.258,67.4C544.224,66.867,542.189,66.533,540.155,66.633C538.121,66.733,536.086,67.267,534.052,67.167C532.017,67.067,529.983,66.333,527.949,65.467C525.914,64.6,523.88,63.6,521.845,63.433C519.811,63.267,517.776,63.933,515.742,64C513.708,64.067,511.673,63.533,509.639,63C507.604,62.467,505.57,61.933,503.536,61.767C501.501,61.6,499.467,61.8,497.432,62.867C495.398,63.933,493.363,65.867,491.329,66.267C489.295,66.667,487.26,65.533,485.226,64.133C483.191,62.733,481.157,61.067,479.123,60.967C477.088,60.867,475.054,62.333,473.019,62.767C470.985,63.2,468.95,62.6,466.916,62.367C464.882,62.133,462.847,62.267,460.813,62.533C458.778,62.8,456.744,63.2,454.71,64.333C452.675,65.467,450.641,67.333,448.606,67.7C446.572,68.067,444.537,66.933,442.503,66.633C440.469,66.333,438.434,66.867,436.4,66.898C434.365,66.93,432.331,66.46,430.297,66.06C428.262,65.66,426.228,65.33,424.193,65.832C422.159,66.333,420.124,67.667,418.09,67.4C416.056,67.133,414.021,65.267,411.987,64.867C409.952,64.467,407.918,65.533,405.884,65.667C403.849,65.8,401.815,65,399.78,64.533C397.746,64.067,395.711,63.933,393.677,64.967C391.643,66,389.608,68.2,387.574,69.133C385.539,70.067,383.505,69.733,381.471,68.767C379.436,67.8,377.402,66.2,375.367,66.133C373.333,66.067,371.298,67.533,369.264,67.667C367.23,67.8,365.195,66.6,363.161,66.633C361.126,66.667,359.092,67.933,357.058,68.933C355.023,69.933,352.989,70.667,350.954,69.667C348.92,68.667,346.885,65.933,344.851,65.4C342.817,64.867,340.782,66.533,338.748,67.133C336.713,67.733,334.679,67.267,332.645,67.633C330.61,68,328.576,69.2,326.541,68.567C324.507,67.933,322.472,65.467,320.438,65.364C318.404,65.262,316.369,67.523,314.335,68.023C312.3,68.523,310.266,67.262,308.232,69.098C306.197,70.933,304.163,75.867,302.128,77C300.094,78.133,298.059,75.467,296.025,74.4C293.991,73.333,291.956,73.867,289.922,73.766C287.887,73.665,285.853,72.93,283.819,72.563C281.784,72.197,279.75,72.198,277.715,72.433C275.681,72.667,273.646,73.133,271.612,73.1C269.578,73.067,267.543,72.533,265.509,72C263.474,71.467,261.44,70.933,259.406,69.9C257.371,68.867,255.337,67.333,253.302,68.266C251.268,69.198,249.234,72.597,247.199,73.03C245.165,73.463,243.13,70.932,241.096,70.133C239.061,69.333,237.027,70.267,234.993,70.633C232.958,71,230.924,70.8,228.889,71.6C226.855,72.4,224.821,74.2,222.786,75.067C220.752,75.933,218.717,75.867,216.683,76.031C214.648,76.195,212.614,76.59,210.58,76.29C208.545,75.99,206.511,74.995,204.476,74.064C202.442,73.133,200.408,72.267,198.373,72.931C196.339,73.595,194.304,75.79,192.27,76.29C190.235,76.79,188.201,75.595,186.167,75.864C184.132,76.133,182.098,77.867,180.063,79.633C178.029,81.4,175.995,83.2,173.96,83.467C171.926,83.733,169.891,82.467,167.857,82.433C165.822,82.4,163.788,83.6,161.754,85.667C159.719,87.733,157.685,90.667,155.65,93.633C153.616,96.6,151.582,99.6,149.547,100.265C147.513,100.93,145.478,99.26,143.444,99.093C141.409,98.927,139.375,100.263,137.341,100.532C135.306,100.8,133.272,100,131.237,101.767C129.203,103.533,127.169,107.867,125.134,110C123.1,112.133,121.065,112.067,119.031,113.6C116.996,115.133,114.962,118.267,112.928,120.333C110.893,122.4,108.859,123.4,106.824,126.1C104.79,128.8,102.756,133.2,100.721,135.567C98.687,137.933,96.652,138.267,94.618,138.1C92.583,137.933,90.549,137.267,88.515,136.2C86.48,135.133,84.446,133.667,82.411,134.432C80.377,135.198,78.343,138.197,76.308,140.263C74.274,142.33,72.239,143.465,70.205,143.432C68.17,143.4,66.136,142.2,64.102,142.6C62.067,143,60.033,145,57.998,146.433C55.964,147.867,53.93,148.733,51.895,150.433C49.861,152.133,47.826,154.667,45.792,158.5C43.757,162.333,41.723,167.467,39.689,176.62C37.654,185.773,35.62,198.947,33.585,207.444C31.551,215.942,29.517,219.763,27.482,225.81C25.448,231.857,23.413,240.128,21.379,249.431C19.344,258.733,17.31,269.067,15.276,281.567C13.241,294.067,11.207,308.733,9.172,318.5C7.138,328.267,5.104,333.133,3.069,347.4Z" fill="#4D130F" opacity="0.3"/></g></g><path class="foreground" aria-hidden="true" d="" display="none"/></g><g transform="translate(0,0)"><path class="background" aria-hidden="true" d="M0,0h600v400h-600Z"/><g><g class="mark-area role-mark layer_0_layer_0_marks" clip-path="url(#clip3)" role="graphics-object" aria-roledescription="area mark container"><path aria-label="Timestep: 200.38k; Success rate: 0.06859; upper_Success rate: 0.15042; Algorithm: SAC; Ci1 of Success rate: 0.15042; Ci0 of Success rate: 0.06859; Mean of Success rate: 0.1064" role="graphics-symbol" aria-roledescription="errorband" d="M3.069,421.303C5.104,411.503,7.138,409.204,9.172,404.788C11.207,400.372,13.241,393.838,15.276,383.438C17.31,373.037,19.344,358.77,21.379,345.888C23.413,333.005,25.448,321.508,27.482,310.958C29.517,300.408,31.551,290.805,33.585,280.687C35.62,270.569,37.654,259.936,39.689,249.87C41.723,239.803,43.757,230.304,45.792,224.305C47.826,218.307,49.861,215.808,51.895,210.191C53.93,204.573,55.964,195.837,57.998,189.919C60.033,184.002,62.067,180.903,64.102,177.337C66.136,173.77,68.17,169.735,70.205,167.951C72.239,166.167,74.274,166.635,76.308,166.787C78.343,166.938,80.377,166.774,82.411,165.674C84.446,164.574,86.48,162.538,88.515,160.82C90.549,159.103,92.583,157.703,94.618,155.102C96.652,152.502,98.687,148.701,100.721,146.217C102.756,143.733,104.79,142.567,106.824,142.2C108.859,141.834,110.893,142.268,112.928,142.569C114.962,142.87,116.996,143.038,119.031,142.621C121.065,142.204,123.1,141.203,125.134,140.886C127.169,140.569,129.203,140.936,131.237,139.869C133.272,138.803,135.306,136.303,137.341,134.469C139.375,132.635,141.409,131.467,143.444,132.035C145.478,132.602,147.513,134.903,149.547,134.02C151.582,133.138,153.616,129.07,155.65,127.569C157.685,126.068,159.719,127.134,161.754,127.6C163.788,128.067,165.822,127.933,167.857,126.85C169.891,125.768,171.926,123.735,173.96,122.155C175.995,120.574,178.029,119.446,180.063,119.979C182.098,120.512,184.132,122.707,186.167,122.59C188.201,122.472,190.235,120.041,192.27,119.224C194.304,118.408,196.339,119.205,198.373,119.42C200.408,119.635,202.442,119.268,204.476,118.434C206.511,117.601,208.545,116.302,210.58,115.471C212.614,114.641,214.648,114.279,216.683,113.13C218.717,111.98,220.752,110.042,222.786,108.74C224.821,107.438,226.855,106.77,228.889,106.603C230.924,106.435,232.958,106.767,234.993,106.334C237.027,105.901,239.061,104.702,241.096,103.719C243.13,102.736,245.165,101.969,247.199,101.186C249.234,100.403,251.268,99.603,253.302,100.336C255.337,101.07,257.371,103.338,259.406,103.938C261.44,104.538,263.474,103.47,265.509,101.404C267.543,99.338,269.578,96.273,271.612,94.757C273.646,93.241,275.681,93.274,277.715,93.341C279.75,93.407,281.784,93.508,283.819,94.341C285.853,95.175,287.887,96.743,289.922,96.909C291.956,97.075,293.991,95.84,296.025,94.572C298.059,93.304,300.094,92.003,302.128,92.902C304.163,93.802,306.197,96.901,308.232,98.034C310.266,99.168,312.3,98.335,314.335,97.818C316.369,97.302,318.404,97.101,320.438,96.367C322.472,95.634,324.507,94.368,326.541,92.802C328.576,91.235,330.61,89.367,332.645,89.417C334.679,89.467,336.713,91.435,338.748,92.454C340.782,93.472,342.817,93.542,344.851,92.526C346.885,91.509,348.92,89.406,350.954,90.221C352.989,91.036,355.023,94.769,357.058,95.387C359.092,96.004,361.126,93.506,363.161,92.872C365.195,92.238,367.23,93.469,369.264,93.119C371.298,92.769,373.333,90.838,375.367,89.788C377.402,88.738,379.436,88.569,381.471,89.985C383.505,91.4,385.539,94.4,387.574,95.4C389.608,96.401,391.643,95.402,393.677,95.302C395.711,95.203,397.746,96.003,399.78,95.769C401.815,95.535,403.849,94.268,405.884,92.836C407.918,91.405,409.952,89.81,411.987,88.677C414.021,87.545,416.056,86.875,418.09,86.522C420.124,86.17,422.159,86.135,424.193,86.135C426.228,86.135,428.262,86.17,430.297,86.754C432.331,87.337,434.365,88.47,436.4,87.036C438.434,85.602,440.469,81.601,442.503,81.001C444.537,80.401,446.572,83.202,448.606,83.052C450.641,82.903,452.675,79.803,454.71,79.555C456.744,79.307,458.778,81.911,460.813,82.927C462.847,83.943,464.882,83.372,466.916,82.269C468.95,81.167,470.985,79.533,473.019,79.184C475.054,78.834,477.088,79.768,479.123,79.485C481.157,79.203,483.191,77.703,485.226,76.019C487.26,74.335,489.295,72.468,491.329,71.567C493.363,70.667,495.398,70.733,497.432,71.517C499.467,72.3,501.501,73.8,503.536,73.967C505.57,74.133,507.604,72.967,509.639,72.667C511.673,72.367,513.708,72.935,515.742,73.052C517.776,73.169,519.811,72.836,521.845,73.252C523.88,73.668,525.914,74.834,527.949,75.134C529.983,75.433,532.017,74.867,534.052,74.45C536.086,74.033,538.121,73.767,540.155,73.934C542.189,74.101,544.224,74.702,546.258,74.952C548.293,75.202,550.327,75.101,552.362,74.2C554.396,73.3,556.43,71.6,558.465,71.533C560.499,71.467,562.534,73.033,564.568,74.35C566.602,75.668,568.637,76.735,570.671,77.035C572.706,77.336,574.74,76.869,576.775,76.735C578.809,76.602,580.843,76.801,582.878,77.3C584.912,77.8,586.947,78.6,588.981,78.2L588.981,60.116C586.947,60.766,584.912,61.632,582.878,61.698C580.843,61.764,578.809,61.031,576.775,60.081C574.74,59.131,572.706,57.964,570.671,58.747C568.637,59.531,566.602,62.264,564.568,62.731C562.534,63.198,560.499,61.399,558.465,60.433C556.43,59.467,554.396,59.333,552.362,59.217C550.327,59.1,548.293,59,546.258,58.933C544.224,58.867,542.189,58.833,540.155,58.417C538.121,58,536.086,57.2,534.052,57.13C532.017,57.061,529.983,57.722,527.949,58.605C525.914,59.487,523.88,60.592,521.845,61.362C519.811,62.131,517.776,62.564,515.742,62.815C513.708,63.065,511.673,63.133,509.639,63.415C507.604,63.698,505.57,64.197,503.536,63.83C501.501,63.462,499.467,62.23,497.432,61.197C495.398,60.164,493.363,59.331,491.329,59.314C489.295,59.297,487.26,60.097,485.226,60.697C483.191,61.297,481.157,61.697,479.123,61.448C477.088,61.198,475.054,60.299,473.019,59.216C470.985,58.133,468.95,56.867,466.916,57.633C464.882,58.4,462.847,61.2,460.813,61.466C458.778,61.732,456.744,59.463,454.71,59.363C452.675,59.262,450.641,61.33,448.606,61.83C446.572,62.331,444.537,61.264,442.503,60.931C440.469,60.597,438.434,60.997,436.4,61.915C434.365,62.832,432.331,64.266,430.297,65C428.262,65.733,426.228,65.767,424.193,65.1C422.159,64.432,420.124,63.065,418.09,63.197C416.056,63.33,414.021,64.962,411.987,65.696C409.952,66.429,407.918,66.263,405.884,67.314C403.849,68.364,401.815,70.631,399.78,71.531C397.746,72.432,395.711,71.966,393.677,72.133C391.643,72.3,389.608,73.1,387.574,72.066C385.539,71.032,383.505,68.165,381.471,66.848C379.436,65.531,377.402,65.764,375.367,67.281C373.333,68.798,371.298,71.599,369.264,71.866C367.23,72.133,365.195,69.867,363.161,70.017C361.126,70.167,359.092,72.733,357.058,72.85C355.023,72.967,352.989,70.633,350.954,69.233C348.92,67.833,346.885,67.367,344.851,68.016C342.817,68.665,340.782,70.43,338.748,70.413C336.713,70.396,334.679,68.597,332.645,67.913C330.61,67.23,328.576,67.663,326.541,69.313C324.507,70.963,322.472,73.832,320.438,74.466C318.404,75.1,316.369,73.5,314.335,72.567C312.3,71.633,310.266,71.367,308.232,70.766C306.197,70.166,304.163,69.232,302.128,69.631C300.094,70.031,298.059,71.764,296.025,72.314C293.991,72.863,291.956,72.229,289.922,71.613C287.887,70.997,285.853,70.398,283.819,70.532C281.784,70.666,279.75,71.532,277.715,72.315C275.681,73.098,273.646,73.799,271.612,73.832C269.578,73.865,267.543,73.23,265.509,72.913C263.474,72.597,261.44,72.598,259.406,73.565C257.371,74.532,255.337,76.463,253.302,77.645C251.268,78.826,249.234,79.257,247.199,79.774C245.165,80.291,243.13,80.894,241.096,81.578C239.061,82.261,237.027,83.024,234.993,83.474C232.958,83.924,230.924,84.061,228.889,83.795C226.855,83.53,224.821,82.863,222.786,82.813C220.752,82.763,218.717,83.33,216.683,84.047C214.648,84.763,212.614,85.629,210.58,86.829C208.545,88.029,206.511,89.563,204.476,90.547C202.442,91.531,200.408,91.964,198.373,92.131C196.339,92.297,194.304,92.197,192.27,92.197C190.235,92.197,188.201,92.297,186.167,92.414C184.132,92.531,182.098,92.664,180.063,92.997C178.029,93.331,175.995,93.864,173.96,94.714C171.926,95.563,169.891,96.729,167.857,96.945C165.822,97.162,163.788,96.428,161.754,97.246C159.719,98.063,157.685,100.432,155.65,102.648C153.616,104.865,151.582,106.93,149.547,108.763C147.513,110.595,145.478,112.195,143.444,112.662C141.409,113.129,139.375,112.463,137.341,112.93C135.306,113.397,133.272,114.996,131.237,116.696C129.203,118.397,127.169,120.198,125.134,121.983C123.1,123.767,121.065,125.533,119.031,127.183C116.996,128.832,114.962,130.365,112.928,130.782C110.893,131.198,108.859,130.499,106.824,130.383C104.79,130.266,102.756,130.732,100.721,133.082C98.687,135.432,96.652,139.666,94.618,141.483C92.583,143.3,90.549,142.7,88.515,142.783C86.48,142.867,84.446,143.633,82.411,143.933C80.377,144.233,78.343,144.067,76.308,144.5C74.274,144.932,72.239,145.965,70.205,147.498C68.17,149.032,66.136,151.066,64.102,152.882C62.067,154.698,60.033,156.297,57.998,158.813C55.964,161.328,53.93,164.762,51.895,168.595C49.861,172.429,47.826,176.663,45.792,183.446C43.757,190.229,41.723,199.561,39.689,207.526C37.654,215.492,35.62,222.091,33.585,229.375C31.551,236.659,29.517,244.628,27.482,253.362C25.448,262.095,23.413,271.593,21.379,283.891C19.344,296.19,17.31,311.29,15.276,324.725C13.241,338.159,11.207,349.928,9.172,357.594C7.138,365.259,5.104,368.821,3.069,379.336Z" fill="#3D494C" opacity="0.3"/></g></g><path class="foreground" aria-hidden="true" d="" display="none"/></g></g><g class="mark-group role-scope layer_1_pathgroup" role="graphics-object" aria-roledescription="group mark container"><g transform="translate(0,0)"><path class="background" aria-hidden="true" d="M0,0h600v400h-600Z"/><g><g class="mark-line role-mark layer_1_marks" clip-path="url(#clip4)" role="graphics-object" aria-roledescription="line mark container"><path aria-label="Timestep: 200.38k; Success rate: 0.0943636363636; Algorithm: MTMHSAC" role="graphics-symbol" aria-roledescription="line mark" d="M3.069,408.47C5.104,394.758,7.138,382.652,9.172,371.144C11.207,359.636,13.241,348.727,15.276,337.492C17.31,326.258,19.344,314.697,21.379,304.341C23.413,293.985,25.448,284.833,27.482,275.955C29.517,267.076,31.551,258.47,33.585,250.818C35.62,243.167,37.654,236.47,39.689,228.106C41.723,219.742,43.757,209.712,45.792,203.242C47.826,196.773,49.861,193.864,51.895,189.856C53.93,185.848,55.964,180.742,57.998,177.561C60.033,174.379,62.067,173.121,64.102,171.773C66.136,170.424,68.17,168.985,70.205,166.735C72.239,164.485,74.274,161.424,76.308,158.962C78.343,156.5,80.377,154.636,82.411,153C84.446,151.364,86.48,149.955,88.515,148.083C90.549,146.212,92.583,143.879,94.618,142.909C96.652,141.939,98.687,142.333,100.721,141.667C102.756,141,104.79,139.273,106.824,138.159C108.859,137.045,110.893,136.545,112.928,136.197C114.962,135.848,116.996,135.652,119.031,135.394C121.065,135.136,123.1,134.818,125.134,133.894C127.169,132.97,129.203,131.439,131.237,130.106C133.272,128.773,135.306,127.636,137.341,126.477C139.375,125.318,141.409,124.136,143.444,123.045C145.478,121.955,147.513,120.955,149.547,120.402C151.582,119.848,153.616,119.742,155.65,118.818C157.685,117.894,159.719,116.152,161.754,115.606C163.788,115.061,165.822,115.712,167.857,115.205C169.891,114.697,171.926,113.03,173.96,111.917C175.995,110.803,178.029,110.242,180.063,109.72C182.098,109.197,184.132,108.712,186.167,108.667C188.201,108.621,190.235,109.015,192.27,108.47C194.304,107.924,196.339,106.439,198.373,105.818C200.408,105.197,202.442,105.439,204.476,105.129C206.511,104.818,208.545,103.955,210.58,103.485C212.614,103.015,214.648,102.939,216.683,103.197C218.717,103.455,220.752,104.045,222.786,103.977C224.821,103.909,226.855,103.182,228.889,102.348C230.924,101.515,232.958,100.576,234.993,99.75C237.027,98.924,239.061,98.212,241.096,97.379C243.13,96.545,245.165,95.591,247.199,94.962C249.234,94.333,251.268,94.03,253.302,93.818C255.337,93.606,257.371,93.485,259.406,92.917C261.44,92.348,263.474,91.333,265.509,90.348C267.543,89.364,269.578,88.409,271.612,87.485C273.646,86.561,275.681,85.667,277.715,84.864C279.75,84.061,281.784,83.348,283.819,82.902C285.853,82.455,287.887,82.273,289.922,82.144C291.956,82.015,293.991,81.939,296.025,82.303C298.059,82.667,300.094,83.47,302.128,83.523C304.163,83.576,306.197,82.879,308.232,82.053C310.266,81.227,312.3,80.273,314.335,80.326C316.369,80.379,318.404,81.439,320.438,82.083C322.472,82.727,324.507,82.955,326.541,82.644C328.576,82.333,330.61,81.485,332.645,81.356C334.679,81.227,336.713,81.818,338.748,81.538C340.782,81.258,342.817,80.106,344.851,79.53C346.885,78.955,348.92,78.955,350.954,78.591C352.989,78.227,355.023,77.5,357.058,76.848C359.092,76.197,361.126,75.621,363.161,75.409C365.195,75.197,367.23,75.348,369.264,75.652C371.298,75.955,373.333,76.409,375.367,77.015C377.402,77.621,379.436,78.379,381.471,78.689C383.505,79,385.539,78.864,387.574,78.227C389.608,77.591,391.643,76.455,393.677,75.674C395.711,74.894,397.746,74.47,399.78,74.826C401.815,75.182,403.849,76.318,405.884,76.386C407.918,76.455,409.952,75.455,411.987,74.977C414.021,74.5,416.056,74.545,418.09,74.621C420.124,74.697,422.159,74.803,424.193,74.992C426.228,75.182,428.262,75.455,430.297,75.242C432.331,75.03,434.365,74.333,436.4,74.439C438.434,74.545,440.469,75.455,442.503,75.962C444.537,76.47,446.572,76.576,448.606,76.932C450.641,77.288,452.675,77.894,454.71,78.25C456.744,78.606,458.778,78.712,460.813,78.326C462.847,77.939,464.882,77.061,466.916,76.424C468.95,75.788,470.985,75.394,473.019,75.727C475.054,76.061,477.088,77.121,479.123,76.917C481.157,76.712,483.191,75.242,485.226,74.727C487.26,74.212,489.295,74.652,491.329,75.333C493.363,76.015,495.398,76.939,497.432,77.152C499.467,77.364,501.501,76.864,503.536,76.424C505.57,75.985,507.604,75.606,509.639,75.417C511.673,75.227,513.708,75.227,515.742,75.083C517.776,74.939,519.811,74.652,521.845,74.871C523.88,75.091,525.914,75.818,527.949,75.848C529.983,75.879,532.017,75.212,534.052,74.917C536.086,74.621,538.121,74.697,540.155,75.341C542.189,75.985,544.224,77.197,546.258,77.818C548.293,78.439,550.327,78.47,552.362,78.053C554.396,77.636,556.43,76.773,558.465,76.129C560.499,75.485,562.534,75.061,564.568,74.576C566.602,74.091,568.637,73.545,570.671,73.288C572.706,73.03,574.74,73.061,576.775,73.598C578.809,74.136,580.843,75.182,582.878,75.636C584.912,76.091,586.947,75.955,588.981,75.492" stroke="#FF4B33" stroke-width="2"/></g></g><path class="foreground" aria-hidden="true" d="" display="none"/></g><g transform="translate(0,0)"><path class="background" aria-hidden="true" d="M0,0h600v400h-600Z"/><g><g class="mark-line role-mark layer_1_marks" clip-path="url(#clip5)" role="graphics-object" aria-roledescription="line mark container"><path aria-label="Timestep: 200.38k; Success rate: 0.1548; Algorithm: MTSAC" role="graphics-symbol" aria-roledescription="line mark" d="M3.069,376.6C5.104,365.4,7.138,360.4,9.172,354C11.207,347.6,13.241,339.8,15.276,329.367C17.31,318.933,19.344,305.867,21.379,297.833C23.413,289.8,25.448,286.8,27.482,281.1C29.517,275.4,31.551,267,33.585,257.833C35.62,248.667,37.654,238.733,39.689,227.8C41.723,216.867,43.757,204.933,45.792,198.033C47.826,191.133,49.861,189.267,51.895,185.3C53.93,181.333,55.964,175.267,57.998,172.767C60.033,170.267,62.067,171.333,64.102,171.167C66.136,171,68.17,169.6,70.205,166.7C72.239,163.8,74.274,159.4,76.308,156.5C78.343,153.6,80.377,152.2,82.411,151.533C84.446,150.867,86.48,150.933,88.515,151.4C90.549,151.867,92.583,152.733,94.618,153.5C96.652,154.267,98.687,154.933,100.721,153.333C102.756,151.733,104.79,147.867,106.824,145.633C108.859,143.4,110.893,142.8,112.928,142.2C114.962,141.6,116.996,141,119.031,140.467C121.065,139.933,123.1,139.467,125.134,138.467C127.169,137.467,129.203,135.933,131.237,134.233C133.272,132.533,135.306,130.667,137.341,129.4C139.375,128.133,141.409,127.467,143.444,125.933C145.478,124.4,147.513,122,149.547,119.267C151.582,116.533,153.616,113.467,155.65,110.733C157.685,108,159.719,105.6,161.754,103.533C163.788,101.467,165.822,99.733,167.857,99C169.891,98.267,171.926,98.533,173.96,97.867C175.995,97.2,178.029,95.6,180.063,94.7C182.098,93.8,184.132,93.6,186.167,93.367C188.201,93.133,190.235,92.867,192.27,92.133C194.304,91.4,196.339,90.2,198.373,89.667C200.408,89.133,202.442,89.267,204.476,89.867C206.511,90.467,208.545,91.533,210.58,92.133C212.614,92.733,214.648,92.867,216.683,92.7C218.717,92.533,220.752,92.067,222.786,91.733C224.821,91.4,226.855,91.2,228.889,90.5C230.924,89.8,232.958,88.6,234.993,87.733C237.027,86.867,239.061,86.333,241.096,87.067C243.13,87.8,245.165,89.8,247.199,89.533C249.234,89.267,251.268,86.733,253.302,85.667C255.337,84.6,257.371,85,259.406,85.833C261.44,86.667,263.474,87.933,265.509,88.9C267.543,89.867,269.578,90.533,271.612,90C273.646,89.467,275.681,87.733,277.715,86.967C279.75,86.2,281.784,86.4,283.819,86.967C285.853,87.533,287.887,88.467,289.922,88.6C291.956,88.733,293.991,88.067,296.025,88.3C298.059,88.533,300.094,89.667,302.128,88.567C304.163,87.467,306.197,84.133,308.232,82.8C310.266,81.467,312.3,82.133,314.335,81.9C316.369,81.667,318.404,80.533,320.438,80.233C322.472,79.933,324.507,80.467,326.541,80.667C328.576,80.867,330.61,80.733,332.645,81.033C334.679,81.333,336.713,82.067,338.748,81.4C340.782,80.733,342.817,78.667,344.851,78.5C346.885,78.333,348.92,80.067,350.954,81.267C352.989,82.467,355.023,83.133,357.058,82.633C359.092,82.133,361.126,80.467,363.161,80.267C365.195,80.067,367.23,81.333,369.264,81.267C371.298,81.2,373.333,79.8,375.367,79.633C377.402,79.467,379.436,80.533,381.471,82.1C383.505,83.667,385.539,85.733,387.574,85.9C389.608,86.067,391.643,84.333,393.677,83.367C395.711,82.4,397.746,82.2,399.78,82.033C401.815,81.867,403.849,81.733,405.884,81.233C407.918,80.733,409.952,79.867,411.987,80.367C414.021,80.867,416.056,82.733,418.09,82.9C420.124,83.067,422.159,81.533,424.193,80.833C426.228,80.133,428.262,80.267,430.297,80.1C432.331,79.933,434.365,79.467,436.4,79.067C438.434,78.667,440.469,78.333,442.503,78.667C444.537,79,446.572,80,448.606,79.5C450.641,79,452.675,77,454.71,75.8C456.744,74.6,458.778,74.2,460.813,74.3C462.847,74.4,464.882,75,466.916,75.867C468.95,76.733,470.985,77.867,473.019,78.067C475.054,78.267,477.088,77.533,479.123,77.333C481.157,77.133,483.191,77.467,485.226,77.7C487.26,77.933,489.295,78.067,491.329,78.1C493.363,78.133,495.398,78.067,497.432,77.9C499.467,77.733,501.501,77.467,503.536,77.133C505.57,76.8,507.604,76.4,509.639,76.667C511.673,76.933,513.708,77.867,515.742,78.067C517.776,78.267,519.811,77.733,521.845,77.833C523.88,77.933,525.914,78.667,527.949,79.133C529.983,79.6,532.017,79.8,534.052,79.833C536.086,79.867,538.121,79.733,540.155,79.533C542.189,79.333,544.224,79.067,546.258,78.867C548.293,78.667,550.327,78.533,552.362,78.067C554.396,77.6,556.43,76.8,558.465,76.367C560.499,75.933,562.534,75.867,564.568,76.467C566.602,77.067,568.637,78.333,570.671,78.733C572.706,79.133,574.74,78.667,576.775,78.933C578.809,79.2,580.843,80.2,582.878,80.8C584.912,81.4,586.947,81.6,588.981,80.9" stroke="#4D130F" stroke-width="2"/></g></g><path class="foreground" aria-hidden="true" d="" display="none"/></g><g transform="translate(0,0)"><path class="background" aria-hidden="true" d="M0,0h600v400h-600Z"/><g><g class="mark-line role-mark layer_1_marks" clip-path="url(#clip6)" role="graphics-object" aria-roledescription="line mark container"><path aria-label="Timestep: 200.38k; Success rate: 0.1064; Algorithm: SAC" role="graphics-symbol" aria-roledescription="line mark" d="M3.069,401.1C5.104,390.8,7.138,387.9,9.172,381.717C11.207,375.533,13.241,366.067,15.276,354.217C17.31,342.367,19.344,328.133,21.379,315.117C23.413,302.1,25.448,290.3,27.482,280.417C29.517,270.533,31.551,262.567,33.585,254.383C35.62,246.2,37.654,237.8,39.689,228.683C41.723,219.567,43.757,209.733,45.792,203.1C47.826,196.467,49.861,193.033,51.895,188.417C53.93,183.8,55.964,178,57.998,173.817C60.033,169.633,62.067,167.067,64.102,164.333C66.136,161.6,68.17,158.7,70.205,157.033C72.239,155.367,74.274,154.933,76.308,154.767C78.343,154.6,80.377,154.7,82.411,154.05C84.446,153.4,86.48,152,88.515,151.183C90.549,150.367,92.583,150.133,94.618,148.033C96.652,145.933,98.687,141.967,100.721,139.633C102.756,137.3,104.79,136.6,106.824,136.533C108.859,136.467,110.893,137.033,112.928,136.883C114.962,136.733,116.996,135.867,119.031,134.833C121.065,133.8,123.1,132.6,125.134,131.733C127.169,130.867,129.203,130.333,131.237,129.117C133.272,127.9,135.306,126,137.341,124.717C139.375,123.433,141.409,122.767,143.444,122.733C145.478,122.7,147.513,123.3,149.547,121.967C151.582,120.633,153.616,117.367,155.65,115.367C157.685,113.367,159.719,112.633,161.754,112.4C163.788,112.167,165.822,112.433,167.857,111.8C169.891,111.167,171.926,109.633,173.96,108.333C175.995,107.033,178.029,105.967,180.063,105.95C182.098,105.933,184.132,106.967,186.167,107.017C188.201,107.067,190.235,106.133,192.27,105.85C194.304,105.567,196.339,105.933,198.373,105.95C200.408,105.967,202.442,105.633,204.476,104.683C206.511,103.733,208.545,102.167,210.58,101.1C212.614,100.033,214.648,99.467,216.683,98.5C218.717,97.533,220.752,96.167,222.786,95.5C224.821,94.833,226.855,94.867,228.889,94.833C230.924,94.8,232.958,94.7,234.993,94.267C237.027,93.833,239.061,93.067,241.096,92.317C243.13,91.567,245.165,90.833,247.199,90.1C249.234,89.367,251.268,88.633,253.302,87.95C255.337,87.267,257.371,86.633,259.406,86.383C261.44,86.133,263.474,86.267,265.509,85.817C267.543,85.367,269.578,84.333,271.612,83.483C273.646,82.633,275.681,81.967,277.715,81.383C279.75,80.8,281.784,80.3,283.819,80.7C285.853,81.1,287.887,82.4,289.922,82.767C291.956,83.133,293.991,82.567,296.025,81.65C298.059,80.733,300.094,79.467,302.128,79.867C304.163,80.267,306.197,82.333,308.232,83.067C310.266,83.8,312.3,83.2,314.335,83.4C316.369,83.6,318.404,84.6,320.438,84.067C322.472,83.533,324.507,81.467,326.541,79.783C328.576,78.1,330.61,76.8,332.645,77.2C334.679,77.6,336.713,79.7,338.748,80.017C340.782,80.333,342.817,78.867,344.851,77.85C346.885,76.833,348.92,76.267,350.954,77.4C352.989,78.533,355.023,81.367,357.058,81.567C359.092,81.767,361.126,79.333,363.161,79C365.195,78.667,367.23,80.433,369.264,80.3C371.298,80.167,373.333,78.133,375.367,76.95C377.402,75.767,379.436,75.433,381.471,76.6C383.505,77.767,385.539,80.433,387.574,81.583C389.608,82.733,391.643,82.367,393.677,82.433C395.711,82.5,397.746,83,399.78,82.1C401.815,81.2,403.849,78.9,405.884,77.583C407.918,76.267,409.952,75.933,411.987,75.1C414.021,74.267,416.056,72.933,418.09,72.733C420.124,72.533,422.159,73.467,424.193,73.833C426.228,74.2,428.262,74,430.297,73.783C432.331,73.567,434.365,73.333,436.4,72.233C438.434,71.133,440.469,69.167,442.503,69.133C444.537,69.1,446.572,71,448.606,70.983C450.641,70.967,452.675,69.033,454.71,69.167C456.744,69.3,458.778,71.5,460.813,71.933C462.847,72.367,464.882,71.033,466.916,70.333C468.95,69.633,470.985,69.567,473.019,69.55C475.054,69.533,477.088,69.567,479.123,69.567C481.157,69.567,483.191,69.533,485.226,68.717C487.26,67.9,489.295,66.3,491.329,65.633C493.363,64.967,495.398,65.233,497.432,66.167C499.467,67.1,501.501,68.7,503.536,69.017C505.57,69.333,507.604,68.367,509.639,68.067C511.673,67.767,513.708,68.133,515.742,68.083C517.776,68.033,519.811,67.567,521.845,67.45C523.88,67.333,525.914,67.567,527.949,67.517C529.983,67.467,532.017,67.133,534.052,66.967C536.086,66.8,538.121,66.8,540.155,66.983C542.189,67.167,544.224,67.533,546.258,67.817C548.293,68.1,550.327,68.3,552.362,67.917C554.396,67.533,556.43,66.567,558.465,66.833C560.499,67.1,562.534,68.6,564.568,69.067C566.602,69.533,568.637,68.967,570.671,68.733C572.706,68.5,574.74,68.6,576.775,68.867C578.809,69.133,580.843,69.567,582.878,69.967C584.912,70.367,586.947,70.733,588.981,70.333" stroke="#3D494C" stroke-width="2"/></g></g><path class="foreground" aria-hidden="true" d="" display="none"/></g></g><g class="mark-group role-legend" role="graphics-symbol" aria-roledescription="legend" aria-label="Symbol legend titled 'Algorithm' for fill color and stroke color with 3 values: MTMHSAC, MTSAC, SAC"><g transform="translate(618,0)"><path class="background" aria-hidden="true" d="M0,0h89v67h-89Z" pointer-events="none"/><g><g class="mark-group role-legend-entry"><g transform="translate(0,21)"><path class="background" aria-hidden="true" d="M0,0h0v0h0Z" pointer-events="none"/><g><g class="mark-group role-scope" role="graphics-object" aria-roledescription="group mark container"><g transform="translate(0,0)"><path class="background" aria-hidden="true" d="M0,0h88.79296875v14h-88.79296875Z" pointer-events="none" opacity="1"/><g><g class="mark-symbol role-legend-symbol" pointer-events="none"><path transform="translate(7,7)" d="M5,0A5,5,0,1,1,-5,0A5,5,0,1,1,5,0" fill="#FF4B33" stroke="#FF4B33" stroke-width="1.5" opacity="0.3"/></g><g class="mark-text role-legend-label" pointer-events="none"><text text-anchor="start" transform="translate(18,11)" font-family="Times New Roman" font-size="14px" fill="#000" opacity="1">MTMHSAC</text></g></g><path class="foreground" aria-hidden="true" d="" pointer-events="none" display="none"/></g><g transform="translate(0,16)"><path class="background" aria-hidden="true" d="M0,0h88.79296875v14h-88.79296875Z" pointer-events="none" opacity="1"/><g><g class="mark-symbol role-legend-symbol" pointer-events="none"><path transform="translate(7,7)" d="M5,0A5,5,0,1,1,-5,0A5,5,0,1,1,5,0" fill="#4D130F" stroke="#4D130F" stroke-width="1.5" opacity="0.3"/></g><g class="mark-text role-legend-label" pointer-events="none"><text text-anchor="start" transform="translate(18,11)" font-family="Times New Roman" font-size="14px" fill="#000" opacity="1">MTSAC</text></g></g><path class="foreground" aria-hidden="true" d="" pointer-events="none" display="none"/></g><g transform="translate(0,32)"><path class="background" aria-hidden="true" d="M0,0h88.79296875v14h-88.79296875Z" pointer-events="none" opacity="1"/><g><g class="mark-symbol role-legend-symbol" pointer-events="none"><path transform="translate(7,7)" d="M5,0A5,5,0,1,1,-5,0A5,5,0,1,1,5,0" fill="#3D494C" stroke="#3D494C" stroke-width="1.5" opacity="0.3"/></g><g class="mark-text role-legend-label" pointer-events="none"><text text-anchor="start" transform="translate(18,11)" font-family="Times New Roman" font-size="14px" fill="#000" opacity="1">SAC</text></g></g><path class="foreground" aria-hidden="true" d="" pointer-events="none" display="none"/></g></g></g><path class="foreground" aria-hidden="true" d="" pointer-events="none" display="none"/></g></g><g class="mark-text role-legend-title" pointer-events="none"><text text-anchor="start" transform="translate(0,13)" font-family="Times New Roman" font-size="16px" font-weight="bold" fill="#000" opacity="1">Algorithm</text></g></g><path class="foreground" aria-hidden="true" d="" pointer-events="none" display="none"/></g></g></g><path class="foreground" aria-hidden="true" d="" display="none"/></g></g></g><defs><clipPath id="clip1"><rect x="0" y="0" width="600" height="400"/></clipPath><clipPath id="clip2"><rect x="0" y="0" width="600" height="400"/></clipPath><clipPath id="clip3"><rect x="0" y="0" width="600" height="400"/></clipPath><clipPath id="clip4"><rect x="0" y="0" width="600" height="400"/></clipPath><clipPath id="clip5"><rect x="0" y="0" width="600" height="400"/></clipPath><clipPath id="clip6"><rect x="0" y="0" width="600" height="400"/></clipPath></defs></svg>