<svg xmlns="http://www.w3.org/2000/svg" xmlns:xlink="http://www.w3.org/1999/xlink" version="1.1" class="marks" width="656" height="458" viewBox="0 0 656 458"><rect width="656" height="458" fill="white"/><g fill="none" stroke-miterlimit="10" transform="translate(50,12)"><g class="mark-group role-frame root" role="graphics-object" aria-roledescription="group mark container"><g transform="translate(0,0)"><path class="background" aria-hidden="true" d="M0.5,0.5h600v400h-600Z" stroke="#ddd"/><g><g class="mark-group role-axis" aria-hidden="true"><g transform="translate(0.5,400.5)"><path class="background" aria-hidden="true" d="M0,0h0v0h0Z" pointer-events="none"/><g><g class="mark-rule role-axis-grid" pointer-events="none"><line transform="translate(21,-400)" x2="0" y2="400" stroke="#ddd" stroke-width="1" opacity="1"/><line transform="translate(52,-400)" x2="0" y2="400" stroke="#ddd" stroke-width="1" opacity="1"/><line transform="translate(82,-400)" x2="0" y2="400" stroke="#ddd" stroke-width="1" opacity="1"/><line transform="translate(113,-400)" x2="0" y2="400" stroke="#ddd" stroke-width="1" opacity="1"/><line transform="translate(143,-400)" x2="0" y2="400" stroke="#ddd" stroke-width="1" opacity="1"/><line transform="translate(174,-400)" x2="0" y2="400" stroke="#ddd" stroke-width="1" opacity="1"/><line transform="translate(204,-400)" x2="0" y2="400" stroke="#ddd" stroke-width="1" opacity="1"/><line transform="translate(235,-400)" x2="0" y2="400" stroke="#ddd" stroke-width="1" opacity="1"/><line transform="translate(265,-400)" x2="0" y2="400" stroke="#ddd" stroke-width="1" opacity="1"/><line transform="translate(295,-400)" x2="0" y2="400" stroke="#ddd" stroke-width="1" opacity="1"/><line transform="translate(326,-400)" x2="0" y2="400" stroke="#ddd" stroke-width="1" opacity="1"/><line transform="translate(356,-400)" x2="0" y2="400" stroke="#ddd" stroke-width="1" opacity="1"/><line transform="translate(387,-400)" x2="0" y2="400" stroke="#ddd" stroke-width="1" opacity="1"/><line transform="translate(417,-400)" x2="0" y2="400" stroke="#ddd" stroke-width="1" opacity="1"/><line transform="translate(448,-400)" x2="0" y2="400" stroke="#ddd" stroke-width="1" opacity="1"/><line transform="translate(478,-400)" x2="0" y2="400" stroke="#ddd" stroke-width="1" opacity="1"/><line transform="translate(509,-400)" x2="0" y2="400" stroke="#ddd" stroke-width="1" opacity="1"/><line transform="translate(539,-400)" x2="0" y2="400" stroke="#ddd" stroke-width="1" opacity="1"/><line transform="translate(570,-400)" x2="0" y2="400" stroke="#ddd" stroke-width="1" opacity="1"/><line transform="translate(600,-400)" x2="0" y2="400" stroke="#ddd" stroke-width="1" opacity="1"/></g></g><path class="foreground" aria-hidden="true" d="" pointer-events="none" display="none"/></g></g><g class="mark-group role-axis" aria-hidden="true"><g transform="translate(0.5,0.5)"><path class="background" aria-hidden="true" d="M0,0h0v0h0Z" pointer-events="none"/><g><g class="mark-rule role-axis-grid" pointer-events="none"><line transform="translate(0,400)" x2="600" y2="0" stroke="#ddd" stroke-width="1" opacity="1"/><line transform="translate(0,350)" x2="600" y2="0" stroke="#ddd" stroke-width="1" opacity="1"/><line transform="translate(0,300)" x2="600" y2="0" stroke="#ddd" stroke-width="1" opacity="1"/><line transform="translate(0,250)" x2="600" y2="0" stroke="#ddd" stroke-width="1" opacity="1"/><line transform="translate(0,200)" x2="600" y2="0" stroke="#ddd" stroke-width="1" opacity="1"/><line transform="translate(0,150)" x2="600" y2="0" stroke="#ddd" stroke-width="1" opacity="1"/><line transform="translate(0,100)" x2="600" y2="0" stroke="#ddd" stroke-width="1" opacity="1"/><line transform="translate(0,50)" x2="600" y2="0" stroke="#ddd" stroke-width="1" opacity="1"/><line transform="translate(0,0)" x2="600" y2="0" stroke="#ddd" stroke-width="1" opacity="1"/></g></g><path class="foreground" aria-hidden="true" d="" pointer-events="none" display="none"/></g></g><g class="mark-group role-axis" role="graphics-symbol" aria-roledescription="axis" aria-label="X-axis titled 'Number of environment steps' for a linear scale with values from 0M to 20M"><g transform="translate(0.5,400.5)"><path class="background" aria-hidden="true" d="M0,0h0v0h0Z" pointer-events="none"/><g><g class="mark-rule role-axis-tick" pointer-events="none"><line transform="translate(21,0)" x2="0" y2="5" stroke="#888" stroke-width="1" opacity="1"/><line transform="translate(52,0)" x2="0" y2="5" stroke="#888" stroke-width="1" opacity="1"/><line transform="translate(82,0)" x2="0" y2="5" stroke="#888" stroke-width="1" opacity="1"/><line transform="translate(113,0)" x2="0" y2="5" stroke="#888" stroke-width="1" opacity="1"/><line transform="translate(143,0)" x2="0" y2="5" stroke="#888" stroke-width="1" opacity="1"/><line transform="translate(174,0)" x2="0" y2="5" stroke="#888" stroke-width="1" opacity="1"/><line transform="translate(204,0)" x2="0" y2="5" stroke="#888" stroke-width="1" opacity="1"/><line transform="translate(235,0)" x2="0" y2="5" stroke="#888" stroke-width="1" opacity="1"/><line transform="translate(265,0)" x2="0" y2="5" stroke="#888" stroke-width="1" opacity="1"/><line transform="translate(295,0)" x2="0" y2="5" stroke="#888" stroke-width="1" opacity="1"/><line transform="translate(326,0)" x2="0" y2="5" stroke="#888" stroke-width="1" opacity="1"/><line transform="translate(356,0)" x2="0" y2="5" stroke="#888" stroke-width="1" opacity="1"/><line transform="translate(387,0)" x2="0" y2="5" stroke="#888" stroke-width="1" opacity="1"/><line transform="translate(417,0)" x2="0" y2="5" stroke="#888" stroke-width="1" opacity="1"/><line transform="translate(448,0)" x2="0" y2="5" stroke="#888" stroke-width="1" opacity="1"/><line transform="translate(478,0)" x2="0" y2="5" stroke="#888" stroke-width="1" opacity="1"/><line transform="translate(509,0)" x2="0" y2="5" stroke="#888" stroke-width="1" opacity="1"/><line transform="translate(539,0)" x2="0" y2="5" stroke="#888" stroke-width="1" opacity="1"/><line transform="translate(570,0)" x2="0" y2="5" stroke="#888" stroke-width="1" opacity="1"/><line transform="translate(600,0)" x2="0" y2="5" stroke="#888" stroke-width="1" opacity="1"/></g><g class="mark-text role-axis-label" pointer-events="none"><text text-anchor="middle" transform="translate(21.31979695431472,18)" font-family="Times New Roman" font-size="14px" fill="#000" opacity="1">1M</text><text text-anchor="middle" transform="translate(51.77664974619289,18)" font-family="Times New Roman" font-size="14px" fill="#000" opacity="0">2M</text><text text-anchor="middle" transform="translate(82.23350253807106,18)" font-family="Times New Roman" font-size="14px" fill="#000" opacity="1">3M</text><text text-anchor="middle" transform="translate(112.69035532994924,18)" font-family="Times New Roman" font-size="14px" fill="#000" opacity="0">4M</text><text text-anchor="middle" transform="translate(143.14720812182742,18)" font-family="Times New Roman" font-size="14px" fill="#000" opacity="1">5M</text><text text-anchor="middle" transform="translate(173.60406091370558,18)" font-family="Times New Roman" font-size="14px" fill="#000" opacity="0">6M</text><text text-anchor="middle" transform="translate(204.06091370558377,18)" font-family="Times New Roman" font-size="14px" fill="#000" opacity="1">7M</text><text text-anchor="middle" transform="translate(234.51776649746193,18)" font-family="Times New Roman" font-size="14px" fill="#000" opacity="0">8M</text><text text-anchor="middle" transform="translate(264.97461928934007,18)" font-family="Times New Roman" font-size="14px" fill="#000" opacity="1">9M</text><text text-anchor="middle" transform="translate(295.43147208121826,18)" font-family="Times New Roman" font-size="14px" fill="#000" opacity="0">10M</text><text text-anchor="middle" transform="translate(325.88832487309645,18)" font-family="Times New Roman" font-size="14px" fill="#000" opacity="1">11M</text><text text-anchor="middle" transform="translate(356.34517766497464,18)" font-family="Times New Roman" font-size="14px" fill="#000" opacity="0">12M</text><text text-anchor="middle" transform="translate(386.80203045685283,18)" font-family="Times New Roman" font-size="14px" fill="#000" opacity="1">13M</text><text text-anchor="middle" transform="translate(417.25888324873097,18)" font-family="Times New Roman" font-size="14px" fill="#000" opacity="0">14M</text><text text-anchor="middle" transform="translate(447.71573604060916,18)" font-family="Times New Roman" font-size="14px" fill="#000" opacity="1">15M</text><text text-anchor="middle" transform="translate(478.1725888324873,18)" font-family="Times New Roman" font-size="14px" fill="#000" opacity="0">16M</text><text text-anchor="middle" transform="translate(508.6294416243655,18)" font-family="Times New Roman" font-size="14px" fill="#000" opacity="1">17M</text><text text-anchor="middle" transform="translate(539.0862944162436,18)" font-family="Times New Roman" font-size="14px" fill="#000" opacity="0">18M</text><text text-anchor="middle" transform="translate(569.5431472081218,18)" font-family="Times New Roman" font-size="14px" fill="#000" opacity="1">19M</text><text text-anchor="end" transform="translate(600,18)" font-family="Times New Roman" font-size="14px" fill="#000" opacity="0">20M</text></g><g class="mark-rule role-axis-domain" pointer-events="none"><line transform="translate(0,0)" x2="600" y2="0" stroke="#888" stroke-width="1" opacity="1"/></g><g class="mark-text role-axis-title" pointer-events="none"><text text-anchor="middle" transform="translate(300,38)" font-family="Times New Roman" font-size="16px" font-weight="bold" fill="#000" opacity="1">Number of environment steps</text></g></g><path class="foreground" aria-hidden="true" d="" pointer-events="none" display="none"/></g></g><g class="mark-group role-axis" role="graphics-symbol" aria-roledescription="axis" aria-label="Y-axis titled 'Success rate' for a linear scale with values from 0.2 to 1.0"><g transform="translate(0.5,0.5)"><path class="background" aria-hidden="true" d="M0,0h0v0h0Z" pointer-events="none"/><g><g class="mark-rule role-axis-tick" pointer-events="none"><line transform="translate(0,400)" x2="-5" y2="0" stroke="#888" stroke-width="1" opacity="1"/><line transform="translate(0,350)" x2="-5" y2="0" stroke="#888" stroke-width="1" opacity="1"/><line transform="translate(0,300)" x2="-5" y2="0" stroke="#888" stroke-width="1" opacity="1"/><line transform="translate(0,250)" x2="-5" y2="0" stroke="#888" stroke-width="1" opacity="1"/><line transform="translate(0,200)" x2="-5" y2="0" stroke="#888" stroke-width="1" opacity="1"/><line transform="translate(0,150)" x2="-5" y2="0" stroke="#888" stroke-width="1" opacity="1"/><line transform="translate(0,100)" x2="-5" y2="0" stroke="#888" stroke-width="1" opacity="1"/><line transform="translate(0,50)" x2="-5" y2="0" stroke="#888" stroke-width="1" opacity="1"/><line transform="translate(0,0)" x2="-5" y2="0" stroke="#888" stroke-width="1" opacity="1"/></g><g class="mark-text role-axis-label" pointer-events="none"><text text-anchor="end" transform="translate(-7,404)" font-family="Times New Roman" font-size="14px" fill="#000" opacity="1">0.2</text><text text-anchor="end" transform="translate(-7,354)" font-family="Times New Roman" font-size="14px" fill="#000" opacity="1">0.3</text><text text-anchor="end" transform="translate(-7,304)" font-family="Times New Roman" font-size="14px" fill="#000" opacity="1">0.4</text><text text-anchor="end" transform="translate(-7,254)" font-family="Times New Roman" font-size="14px" fill="#000" opacity="1">0.5</text><text text-anchor="end" transform="translate(-7,204)" font-family="Times New Roman" font-size="14px" fill="#000" opacity="1">0.6</text><text text-anchor="end" transform="translate(-7,154.00000000000006)" font-family="Times New Roman" font-size="14px" fill="#000" opacity="1">0.7</text><text text-anchor="end" transform="translate(-7,103.99999999999996)" font-family="Times New Roman" font-size="14px" fill="#000" opacity="1">0.8</text><text text-anchor="end" transform="translate(-7,54.00000000000004)" font-family="Times New Roman" font-size="14px" fill="#000" opacity="1">0.9</text><text text-anchor="end" transform="translate(-7,4)" font-family="Times New Roman" font-size="14px" fill="#000" opacity="1">1.0</text></g><g class="mark-rule role-axis-domain" pointer-events="none"><line transform="translate(0,400)" x2="0" y2="-400" stroke="#888" stroke-width="1" opacity="1"/></g><g class="mark-text role-axis-title" pointer-events="none"><text text-anchor="middle" transform="translate(-28.5,200) rotate(-90) translate(0,-3)" font-family="Times New Roman" font-size="16px" font-weight="bold" fill="#000" opacity="1">Success rate</text></g></g><path class="foreground" aria-hidden="true" d="" pointer-events="none" display="none"/></g></g><g class="mark-group role-scope layer_0_layer_0_pathgroup" role="graphics-object" aria-roledescription="group mark container"><g transform="translate(0,0)"><path class="background" aria-hidden="true" d="M0,0h600v400h-600Z"/><g><g class="mark-area role-mark layer_0_layer_0_marks" clip-path="url(#clip1)" role="graphics-object" aria-roledescription="area mark container"><path aria-label="Number of environment steps: 200.38k; Success rate: 0.0819958333333; upper_Success rate: 0.113170833333; Algorithm: MTMHSAC; Ci1 of Success rate: 0.113170833333; Ci0 of Success rate: 0.0819958333333; Mean of Success rate: 0.0975" role="graphics-symbol" aria-roledescription="errorband" d="M3.069,415.877C5.104,402.363,7.138,390.141,9.172,378.252C11.207,366.362,13.241,354.806,15.276,342.543C17.31,330.279,19.344,317.308,21.379,306.782C23.413,296.255,25.448,288.172,27.482,278.602C29.517,269.033,31.551,257.976,33.585,250.49C35.62,243.004,37.654,239.09,39.689,231.381C41.723,223.673,43.757,212.171,45.792,205.045C47.826,197.919,49.861,195.169,51.895,190.349C53.93,185.53,55.964,178.641,57.998,174.474C60.033,170.308,62.067,168.863,64.102,166.349C66.136,163.835,68.17,160.252,70.205,156.657C72.239,153.062,74.274,149.455,76.308,147.858C78.343,146.261,80.377,146.673,82.411,145.754C84.446,144.835,86.48,142.585,88.515,140.776C90.549,138.967,92.583,137.599,94.618,137.582C96.652,137.564,98.687,138.897,100.721,138.693C102.756,138.488,104.79,136.745,106.824,135.771C108.859,134.796,110.893,134.59,112.928,134.41C114.962,134.229,116.996,134.073,119.031,133.884C121.065,133.694,123.1,133.472,125.134,132.945C127.169,132.417,129.203,131.585,131.237,130.863C133.272,130.14,135.306,129.528,137.341,129.32C139.375,129.111,141.409,129.306,143.444,128.986C145.478,128.667,147.513,127.835,149.547,127.224C151.582,126.613,153.616,126.224,155.65,125.418C157.685,124.612,159.719,123.39,161.754,122.861C163.788,122.333,165.822,122.5,167.857,122.333C169.891,122.167,171.926,121.667,173.96,120.917C175.995,120.167,178.029,119.168,180.063,118.571C182.098,117.974,184.132,117.778,186.167,118.532C188.201,119.286,190.235,120.989,192.27,120.765C194.304,120.542,196.339,118.391,198.373,117.207C200.408,116.022,202.442,115.804,204.476,115.139C206.511,114.474,208.545,113.362,210.58,112.903C212.614,112.445,214.648,112.64,216.683,112.355C218.717,112.07,220.752,111.304,222.786,111.705C224.821,112.106,226.855,113.673,228.889,112.853C230.924,112.033,232.958,108.825,234.993,106.827C237.027,104.829,239.061,104.04,241.096,103.182C243.13,102.324,245.165,101.396,247.199,100.146C249.234,98.896,251.268,97.324,253.302,97.135C255.337,96.947,257.371,98.141,259.406,97.322C261.44,96.502,263.474,93.669,265.509,91.161C267.543,88.653,269.578,86.47,271.612,84.775C273.646,83.081,275.681,81.874,277.715,80.659C279.75,79.444,281.784,78.222,283.819,77.486C285.853,76.75,287.887,76.5,289.922,76.179C291.956,75.859,293.991,75.468,296.025,75.774C298.059,76.079,300.094,77.081,302.128,77.068C304.163,77.056,306.197,76.028,308.232,75.07C310.266,74.112,312.3,73.224,314.335,73.185C316.369,73.147,318.404,73.958,320.438,74.402C322.472,74.846,324.507,74.923,326.541,74.642C328.576,74.361,330.61,73.722,332.645,73.861C334.679,74,336.713,74.917,338.748,74.917C340.782,74.917,342.817,74,344.851,74.111C346.885,74.222,348.92,75.361,350.954,75.597C352.989,75.833,355.023,75.167,357.058,74.006C359.092,72.846,361.126,71.192,363.161,70.804C365.195,70.415,367.23,71.292,369.264,71.897C371.298,72.501,373.333,72.834,375.367,73.695C377.402,74.556,379.436,75.944,381.471,76.389C383.505,76.833,385.539,76.333,387.574,75.278C389.608,74.223,391.643,72.613,393.677,71.89C395.711,71.168,397.746,71.334,399.78,71.959C401.815,72.583,403.849,73.667,405.884,73.861C407.918,74.056,409.952,73.361,411.987,72.806C414.021,72.251,416.056,71.835,418.09,71.867C420.124,71.899,422.159,72.379,424.193,72.573C426.228,72.767,428.262,72.675,430.297,72.421C432.331,72.167,434.365,71.75,436.4,71.75C438.434,71.75,440.469,72.167,442.503,72.597C444.537,73.028,446.572,73.472,448.606,73.889C450.641,74.306,452.675,74.694,454.71,75.444C456.744,76.194,458.778,77.306,460.813,76.861C462.847,76.417,464.882,74.417,466.916,73.361C468.95,72.306,470.985,72.194,473.019,72.917C475.054,73.64,477.088,75.196,479.123,74.98C481.157,74.763,483.191,72.775,485.226,72.496C487.26,72.218,489.295,73.651,491.329,74.366C493.363,75.081,495.398,75.079,497.432,74.968C499.467,74.858,501.501,74.638,503.536,74.074C505.57,73.51,507.604,72.601,509.639,72.801C511.673,73,513.708,74.308,515.742,74.564C517.776,74.821,519.811,74.026,521.845,74.02C523.88,74.015,525.914,74.799,527.949,74.733C529.983,74.667,532.017,73.75,534.052,73.403C536.086,73.056,538.121,73.279,540.155,73.932C542.189,74.585,544.224,75.667,546.258,76.045C548.293,76.423,550.327,76.096,552.362,76.069C554.396,76.041,556.43,76.313,558.465,76.006C560.499,75.698,562.534,74.811,564.568,74.085C566.602,73.359,568.637,72.795,570.671,72.544C572.706,72.293,574.74,72.356,576.775,73.082C578.809,73.807,580.843,75.195,582.878,75.403C584.912,75.611,586.947,74.639,588.981,73.875L588.981,69.432C586.947,69.999,584.912,69.583,582.878,69.139C580.843,68.694,578.809,68.222,576.775,68.027C574.74,67.833,572.706,67.915,570.671,67.893C568.637,67.871,566.602,67.743,564.568,68.41C562.534,69.076,560.499,70.537,558.465,71.191C556.43,71.845,554.396,71.692,552.362,71.553C550.327,71.415,548.293,71.291,546.258,70.701C544.224,70.111,542.189,69.056,540.155,68.583C538.121,68.111,536.086,68.222,534.052,68.931C532.017,69.639,529.983,70.944,527.949,70.889C525.914,70.833,523.88,69.417,521.845,69.221C519.811,69.025,517.776,70.05,515.742,69.781C513.708,69.512,511.673,67.948,509.639,67.505C507.604,67.061,505.57,67.738,503.536,68.289C501.501,68.84,499.467,69.266,497.432,69.586C495.398,69.906,493.363,70.12,491.329,69.409C489.295,68.698,487.26,67.063,485.226,67.383C483.191,67.702,481.157,69.976,479.123,70.488C477.088,71,475.054,69.75,473.019,69C470.985,68.25,468.95,68,466.916,68.847C464.882,69.694,462.847,71.639,460.813,72.319C458.778,72.999,456.744,72.415,454.71,71.693C452.675,70.97,450.641,70.109,448.606,69.498C446.572,68.887,444.537,68.527,442.503,68.25C440.469,67.972,438.434,67.778,436.4,67.986C434.365,68.194,432.331,68.806,430.297,68.815C428.262,68.825,426.228,68.234,424.193,67.873C422.159,67.511,420.124,67.38,418.09,67.286C416.056,67.193,414.021,67.138,411.987,67.569C409.952,67.999,407.918,68.915,405.884,68.693C403.849,68.471,401.815,67.11,399.78,66.694C397.746,66.278,395.711,66.806,393.677,67.694C391.643,68.583,389.608,69.833,387.574,70.694C385.539,71.556,383.505,72.028,381.471,71.75C379.436,71.472,377.402,70.444,375.367,69.597C373.333,68.75,371.298,68.083,369.264,67.552C367.23,67.021,365.195,66.625,363.161,66.653C361.126,66.68,359.092,67.132,357.058,68.038C355.023,68.944,352.989,70.306,350.954,70.514C348.92,70.722,346.885,69.778,344.851,69.736C342.817,69.694,340.782,70.556,338.748,70.43C336.713,70.305,334.679,69.193,332.645,68.897C330.61,68.602,328.576,69.122,326.541,69.66C324.507,70.198,322.472,70.753,320.438,70.368C318.404,69.983,316.369,68.658,314.335,68.579C312.3,68.499,310.266,69.665,308.232,70.804C306.197,71.943,304.163,73.055,302.128,72.468C300.094,71.88,298.059,69.594,296.025,68.913C293.991,68.233,291.956,69.158,289.922,69.593C287.887,70.028,285.853,69.972,283.819,70.014C281.784,70.056,279.75,70.194,277.715,70.422C275.681,70.65,273.646,70.966,271.612,71.646C269.578,72.327,267.543,73.372,265.509,74.769C263.474,76.166,261.44,77.915,259.406,78.596C257.371,79.276,255.337,78.888,253.302,79.097C251.268,79.306,249.234,80.112,247.199,80.889C245.165,81.666,243.13,82.415,241.096,83.032C239.061,83.648,237.027,84.131,234.993,85.563C232.958,86.996,230.924,89.378,228.889,90.108C226.855,90.838,224.821,89.916,222.786,90.484C220.752,91.051,218.717,93.108,216.683,93.705C214.648,94.303,212.614,93.441,210.58,93.885C208.545,94.33,206.511,96.081,204.476,97.074C202.442,98.067,200.408,98.303,198.373,99.356C196.339,100.41,194.304,102.281,192.27,102.774C190.235,103.268,188.201,102.384,186.167,102.636C184.132,102.889,182.098,104.278,180.063,105.416C178.029,106.555,175.995,107.443,173.96,108.97C171.926,110.498,169.891,112.665,167.857,113.373C165.822,114.082,163.788,113.333,161.754,113.777C159.719,114.222,157.685,115.861,155.65,117.123C153.616,118.384,151.582,119.268,149.547,119.906C147.513,120.545,145.478,120.938,143.444,121.385C141.409,121.831,139.375,122.331,137.341,122.957C135.306,123.582,133.272,124.333,131.237,125.375C129.203,126.417,127.169,127.75,125.134,128.083C123.1,128.417,121.065,127.75,119.031,127.697C116.996,127.645,114.962,128.206,112.928,128.581C110.893,128.956,108.859,129.145,106.824,130.414C104.79,131.683,102.756,134.033,100.721,134.413C98.687,134.793,96.652,133.203,94.618,133.07C92.583,132.937,90.549,134.26,88.515,135.477C86.48,136.694,84.446,137.804,82.411,138.476C80.377,139.148,78.343,139.381,76.308,140.686C74.274,141.992,72.239,144.37,70.205,146.406C68.17,148.443,66.136,150.138,64.102,151.264C62.067,152.389,60.033,152.944,57.998,155.457C55.964,157.969,53.93,162.439,51.895,167.411C49.861,172.383,47.826,177.857,45.792,185.414C43.757,192.971,41.723,202.61,39.689,209.722C37.654,216.833,35.62,221.417,33.585,228.639C31.551,235.86,29.517,245.721,27.482,255.207C25.448,264.692,23.413,273.803,21.379,284.929C19.344,296.054,17.31,309.194,15.276,322.138C13.241,335.082,11.207,347.831,9.172,360.843C7.138,373.856,5.104,387.133,3.069,400.939Z" fill="#FF4B33" opacity="0.3"/></g></g><path class="foreground" aria-hidden="true" d="" display="none"/></g><g transform="translate(0,0)"><path class="background" aria-hidden="true" d="M0,0h600v400h-600Z"/><g><g class="mark-area role-mark layer_0_layer_0_marks" clip-path="url(#clip2)" role="graphics-object" aria-roledescription="area mark container"><path aria-label="Number of environment steps: 200.38k; Success rate: 0.136; upper_Success rate: 0.154; Algorithm: MTSAC; Ci1 of Success rate: 0.154; Ci0 of Success rate: 0.136; Mean of Success rate: 0.146666666667" role="graphics-symbol" aria-roledescription="errorband" d="M3.069,391C5.104,382,7.138,380,9.172,377.833C11.207,375.667,13.241,373.333,15.276,363.667C17.31,354,19.344,337,21.379,324C23.413,311,25.448,302,27.482,293.667C29.517,285.333,31.551,277.667,33.585,271.667C35.62,265.667,37.654,261.333,39.689,249C41.723,236.667,43.757,216.333,45.792,207.833C47.826,199.333,49.861,202.667,51.895,199.833C53.93,197,55.964,188,57.998,188.167C60.033,188.333,62.067,197.667,64.102,196.167C66.136,194.667,68.17,182.333,70.205,172C72.239,161.667,74.274,153.333,76.308,149C78.343,144.667,80.377,144.333,82.411,143.167C84.446,142,86.48,140,88.515,140.833C90.549,141.667,92.583,145.333,94.618,148C96.652,150.667,98.687,152.333,100.721,150.5C102.756,148.667,104.79,143.333,106.824,142.167C108.859,141,110.893,144,112.928,146.833C114.962,149.667,116.996,152.333,119.031,151.5C121.065,150.667,123.1,146.333,125.134,144.667C127.169,143,129.203,144,131.237,142.333C133.272,140.667,135.306,136.333,137.341,136.167C139.375,136,141.409,140,143.444,141.333C145.478,142.667,147.513,141.333,149.547,137.333C151.582,133.333,153.616,126.667,155.65,124.5C157.685,122.333,159.719,124.667,161.754,124.333C163.788,124,165.822,121,167.857,117.167C169.891,113.333,171.926,108.667,173.96,105.833C175.995,103,178.029,102,180.063,102.167C182.098,102.333,184.132,103.667,186.167,104C188.201,104.333,190.235,103.667,192.27,103.833C194.304,104,196.339,105,198.373,104.667C200.408,104.333,202.442,102.667,204.476,102C206.511,101.333,208.545,101.667,210.58,101.333C212.614,101,214.648,100,216.683,99.5C218.717,99,220.752,99,222.786,99.667C224.821,100.333,226.855,101.667,228.889,101.5C230.924,101.333,232.958,99.667,234.993,97.833C237.027,96,239.061,94,241.096,94.167C243.13,94.333,245.165,96.667,247.199,97.5C249.234,98.333,251.268,97.667,253.302,97C255.337,96.333,257.371,95.667,259.406,95.5C261.44,95.333,263.474,95.667,265.509,97C267.543,98.333,269.578,100.667,271.612,100.833C273.646,101,275.681,99,277.715,98.333C279.75,97.667,281.784,98.333,283.819,98.333C285.853,98.333,287.887,97.667,289.922,96.5C291.956,95.333,293.991,93.667,296.025,93.333C298.059,93,300.094,94,302.128,94C304.163,94,306.197,93,308.232,92.667C310.266,92.333,312.3,92.667,314.335,91.167C316.369,89.667,318.404,86.333,320.438,84C322.472,81.667,324.507,80.333,326.541,79.833C328.576,79.333,330.61,79.667,332.645,81C334.679,82.333,336.713,84.667,338.748,83.5C340.782,82.333,342.817,77.667,344.851,78C346.885,78.333,348.92,83.667,350.954,85.333C352.989,87,355.023,85,357.058,83.667C359.092,82.333,361.126,81.667,363.161,81.333C365.195,81,367.23,81,369.264,80C371.298,79,373.333,77,375.367,78C377.402,79,379.436,83,381.471,86.833C383.505,90.667,385.539,94.333,387.574,96C389.608,97.667,391.643,97.333,393.677,96.167C395.711,95,397.746,93,399.78,90C401.815,87,403.849,83,405.884,80.333C407.918,77.667,409.952,76.333,411.987,78.5C414.021,80.667,416.056,86.333,418.09,87.833C420.124,89.333,422.159,86.667,424.193,85.833C426.228,85,428.262,86,430.297,85C432.331,84,434.365,81,436.4,78.5C438.434,76,440.469,74,442.503,74.167C444.537,74.333,446.572,76.667,448.606,75.833C450.641,75,452.675,71,454.71,70C456.744,69,458.778,71,460.813,72.167C462.847,73.333,464.882,73.667,466.916,72.667C468.95,71.667,470.985,69.333,473.019,71.167C475.054,73,477.088,79,479.123,80.833C481.157,82.667,483.191,80.333,485.226,78.5C487.26,76.667,489.295,75.333,491.329,74.5C493.363,73.667,495.398,73.333,497.432,73.333C499.467,73.333,501.501,73.667,503.536,73.833C505.57,74,507.604,74,509.639,74.5C511.673,75,513.708,76,515.742,75.833C517.776,75.667,519.811,74.333,521.845,73.833C523.88,73.333,525.914,73.667,527.949,74.333C529.983,75,532.017,76,534.052,76.667C536.086,77.333,538.121,77.667,540.155,77.333C542.189,77,544.224,76,546.258,75.333C548.293,74.667,550.327,74.333,552.362,74.833C554.396,75.333,556.43,76.667,558.465,76.167C560.499,75.667,562.534,73.333,564.568,73.5C566.602,73.667,568.637,76.333,570.671,77.667C572.706,79,574.74,79,576.775,79C578.809,79,580.843,79,582.878,79.167C584.912,79.333,586.947,79.667,588.981,78.167L588.981,67.667C586.947,67.667,584.912,68.333,582.878,68C580.843,67.667,578.809,66.333,576.775,65.833C574.74,65.333,572.706,65.667,570.671,65.833C568.637,66,566.602,66,564.568,65.667C562.534,65.333,560.499,64.667,558.465,65.667C556.43,66.667,554.396,69.333,552.362,70C550.327,70.667,548.293,69.333,546.258,68.5C544.224,67.667,542.189,67.333,540.155,67.667C538.121,68,536.086,69,534.052,69.167C532.017,69.333,529.983,68.667,527.949,67.608C525.914,66.55,523.88,65.1,521.845,64.433C519.811,63.767,517.776,63.883,515.742,63.442C513.708,63,511.673,62,509.639,61.667C507.604,61.333,505.57,61.667,503.536,62.167C501.501,62.667,499.467,63.333,497.432,64.667C495.398,66,493.363,68,491.329,68.167C489.295,68.333,487.26,66.667,485.226,64.833C483.191,63,481.157,61,479.123,61.167C477.088,61.333,475.054,63.667,473.019,64.667C470.985,65.667,468.95,65.333,466.916,65C464.882,64.667,462.847,64.333,460.813,64.167C458.778,64,456.744,64,454.71,65.333C452.675,66.667,450.641,69.333,448.606,69.833C446.572,70.333,444.537,68.667,442.503,67.833C440.469,67,438.434,67,436.4,67.167C434.365,67.333,432.331,67.667,430.297,67.167C428.262,66.667,426.228,65.333,424.193,65.833C422.159,66.333,420.124,68.667,418.09,69.389C416.056,70.111,414.021,69.222,411.987,68.722C409.952,68.222,407.918,68.111,405.884,67.556C403.849,67,401.815,66,399.78,65.333C397.746,64.667,395.711,64.333,393.677,66.333C391.643,68.333,389.608,72.667,387.574,74.5C385.539,76.333,383.505,75.667,381.471,73.833C379.436,72,377.402,69,375.367,68C373.333,67,371.298,68,369.264,68.667C367.23,69.333,365.195,69.667,363.161,71.333C361.126,73,359.092,76,357.058,76.5C355.023,77,352.989,75,350.954,73.333C348.92,71.667,346.885,70.333,344.851,69.5C342.817,68.667,340.782,68.333,338.748,68.333C336.713,68.333,334.679,68.667,332.645,69C330.61,69.333,328.576,69.667,326.541,68.833C324.507,68,322.472,66,320.438,65.667C318.404,65.333,316.369,66.667,314.335,66.833C312.3,67,310.266,66,308.232,68.333C306.197,70.667,304.163,76.333,302.128,77.833C300.094,79.333,298.059,76.667,296.025,77.333C293.991,78,291.956,82,289.922,81.667C287.887,81.333,285.853,76.667,283.819,74.5C281.784,72.333,279.75,72.667,277.715,74.333C275.681,76,273.646,79,271.612,80C269.578,81,267.543,80,265.509,79.167C263.474,78.333,261.44,77.667,259.406,75.333C257.371,73,255.337,69,253.302,69C251.268,69,249.234,73,247.199,73.667C245.165,74.333,243.13,71.667,241.096,70.333C239.061,69,237.027,69,234.993,69.167C232.958,69.333,230.924,69.667,228.889,71.5C226.855,73.333,224.821,76.667,222.786,78C220.752,79.333,218.717,78.667,216.683,79C214.648,79.333,212.614,80.667,210.58,80.5C208.545,80.333,206.511,78.667,204.476,77.333C202.442,76,200.408,75,198.373,76C196.339,77,194.304,80,192.27,79.667C190.235,79.333,188.201,75.667,186.167,74.833C184.132,74,182.098,76,180.063,79C178.029,82,175.995,86,173.96,86.5C171.926,87,169.891,84,167.857,84.167C165.822,84.333,163.788,87.667,161.754,89.5C159.719,91.333,157.685,91.667,155.65,93.667C153.616,95.667,151.582,99.333,149.547,102.333C147.513,105.333,145.478,107.667,143.444,111.667C141.409,115.667,139.375,121.333,137.341,124.333C135.306,127.333,133.272,127.667,131.237,128C129.203,128.333,127.169,128.667,125.134,127.333C123.1,126,121.065,123,119.031,122.833C116.996,122.667,114.962,125.333,112.928,127C110.893,128.667,108.859,129.333,106.824,131.333C104.79,133.333,102.756,136.667,100.721,138.167C98.687,139.667,96.652,139.333,94.618,138.833C92.583,138.333,90.549,137.667,88.515,136.833C86.48,136,84.446,135,82.411,136C80.377,137,78.343,140,76.308,142C74.274,144,72.239,145,70.205,145.167C68.17,145.333,66.136,144.667,64.102,145.5C62.067,146.333,60.033,148.667,57.998,149.5C55.964,150.333,53.93,149.667,51.895,151.5C49.861,153.333,47.826,157.667,45.792,161.5C43.757,165.333,41.723,168.667,39.689,180C37.654,191.333,35.62,210.667,33.585,228.5C31.551,246.333,29.517,262.667,27.482,271.5C25.448,280.333,23.413,281.667,21.379,288.667C19.344,295.667,17.31,308.333,15.276,318.333C13.241,328.333,11.207,335.667,9.172,342.833C7.138,350,5.104,357,3.069,370.333Z" fill="#4D130F" opacity="0.3"/></g></g><path class="foreground" aria-hidden="true" d="" display="none"/></g><g transform="translate(0,0)"><path class="background" aria-hidden="true" d="M0,0h600v400h-600Z"/><g><g class="mark-area role-mark layer_0_layer_0_marks" clip-path="url(#clip3)" role="graphics-object" aria-roledescription="area mark container"><path aria-label="Number of environment steps: 200.38k; Success rate: 0.0686666666667; upper_Success rate: 0.12335; Algorithm: SAC; Ci1 of Success rate: 0.12335; Ci0 of Success rate: 0.0686666666667; Mean of Success rate: 0.0953333333333" role="graphics-symbol" aria-roledescription="errorband" d="M3.069,416.392C5.104,405.781,7.138,403.89,9.172,397.64C11.207,391.389,13.241,380.778,15.276,369.64C17.31,358.503,19.344,346.839,21.379,332.672C23.413,318.506,25.448,301.836,27.482,290.974C29.517,280.111,31.551,275.056,33.585,269.667C35.62,264.279,37.654,258.558,39.689,247.919C41.723,237.281,43.757,221.724,45.792,212.945C47.826,204.167,49.861,202.167,51.895,198.501C53.93,194.835,55.964,189.503,57.998,184.197C60.033,178.892,62.067,173.613,64.102,169.946C66.136,166.279,68.17,164.225,70.205,161.669C72.239,159.114,74.274,156.057,76.308,154.584C78.343,153.111,80.377,153.222,82.411,152.583C84.446,151.944,86.48,150.556,88.515,150.238C90.549,149.921,92.583,150.675,94.618,149.063C96.652,147.452,98.687,143.476,100.721,141.766C102.756,140.056,104.79,140.611,106.824,141.083C108.859,141.556,110.893,141.944,112.928,141.722C114.962,141.5,116.996,140.667,119.031,139.167C121.065,137.667,123.1,135.5,125.134,135.981C127.169,136.462,129.203,139.59,131.237,139.84C133.272,140.09,135.306,137.462,137.341,135.231C139.375,133,141.409,131.167,143.444,131.389C145.478,131.611,147.513,133.889,149.547,133.69C151.582,133.492,153.616,130.817,155.65,129.512C157.685,128.206,159.719,128.27,161.754,127.218C163.788,126.167,165.822,124,167.857,123.278C169.891,122.556,171.926,123.278,173.96,121.529C175.995,119.781,178.029,115.561,180.063,115.228C182.098,114.896,184.132,118.45,186.167,119.143C188.201,119.836,190.235,117.668,192.27,116.806C194.304,115.944,196.339,116.389,198.373,116.278C200.408,116.167,202.442,115.5,204.476,114.944C206.511,114.389,208.545,113.944,210.58,112.612C212.614,111.279,214.648,109.058,216.683,107.503C218.717,105.947,220.752,105.057,222.786,103.835C224.821,102.613,226.855,101.058,228.889,100.003C230.924,98.947,232.958,98.39,234.993,97.751C237.027,97.111,239.061,96.389,241.096,95.822C243.13,95.255,245.165,94.844,247.199,94.371C249.234,93.899,251.268,93.366,253.302,92.044C255.337,90.722,257.371,88.611,259.406,88.278C261.44,87.946,263.474,89.392,265.509,88.669C267.543,87.947,269.578,85.057,271.612,83.227C273.646,81.397,275.681,80.627,277.715,79.321C279.75,78.016,281.784,76.175,283.819,76.504C285.853,76.833,287.887,79.333,289.922,80.778C291.956,82.222,293.991,82.611,296.025,82.083C298.059,81.556,300.094,80.111,302.128,82.444C304.163,84.778,306.197,90.889,308.232,91.501C310.266,92.113,312.3,87.225,314.335,85.753C316.369,84.281,318.404,86.224,320.438,86.056C322.472,85.889,324.507,83.611,326.541,81.528C328.576,79.444,330.61,77.556,332.645,78.083C334.679,78.611,336.713,81.556,338.748,81.111C340.782,80.667,342.817,76.833,344.851,74.702C346.885,72.571,348.92,72.143,350.954,73.024C352.989,73.905,355.023,76.095,357.058,76.643C359.092,77.19,361.126,76.095,363.161,76.492C365.195,76.889,367.23,78.778,369.264,79.361C371.298,79.944,373.333,79.222,375.367,78.873C377.402,78.524,379.436,78.548,381.471,78.937C383.505,79.325,385.539,80.079,387.574,81.095C389.608,82.111,391.643,83.389,393.677,84.25C395.711,85.111,397.746,85.556,399.78,83.834C401.815,82.113,403.849,78.225,405.884,76.226C407.918,74.226,409.952,74.115,411.987,73.531C414.021,72.947,416.056,71.89,418.09,72.056C420.124,72.222,422.159,73.611,424.193,73.75C426.228,73.889,428.262,72.778,430.297,72.222C432.331,71.667,434.365,71.667,436.4,70.501C438.434,69.335,440.469,67.003,442.503,67.253C444.537,67.503,446.572,70.335,448.606,71.001C450.641,71.667,452.675,70.167,454.71,71.163C456.744,72.159,458.778,75.651,460.813,76.262C462.847,76.873,464.882,74.603,466.916,73.69C468.95,72.778,470.985,73.222,473.019,73.286C475.054,73.349,477.088,73.032,479.123,73.532C481.157,74.032,483.191,75.349,485.226,74.786C487.26,74.222,489.295,71.778,491.329,70.334C493.363,68.89,495.398,68.447,497.432,69.677C499.467,70.908,501.501,73.811,503.536,74.171C505.57,74.532,507.604,72.349,509.639,71.452C511.673,70.556,513.708,70.944,515.742,70.722C517.776,70.5,519.811,69.667,521.845,69.889C523.88,70.111,525.914,71.389,527.949,72.417C529.983,73.446,532.017,74.225,534.052,74.252C536.086,74.28,538.121,73.557,540.155,73.639C542.189,73.722,544.224,74.611,546.258,74.401C548.293,74.19,550.327,72.881,552.362,71.714C554.396,70.548,556.43,69.524,558.465,69.81C560.499,70.095,562.534,71.69,564.568,72.746C566.602,73.802,568.637,74.317,570.671,74.048C572.706,73.778,574.74,72.722,576.775,72.833C578.809,72.944,580.843,74.222,582.878,75.417C584.912,76.611,586.947,77.722,588.981,77.115L588.981,70.417C586.947,70.551,584.912,68.607,582.878,67.858C580.843,67.108,578.809,67.554,576.775,67.527C574.74,67.5,572.706,67,570.671,66.881C568.637,66.762,566.602,67.024,564.568,66.885C562.534,66.746,560.499,66.206,558.465,66.349C556.43,66.492,554.396,67.317,552.362,67.095C550.327,66.872,548.293,65.6,546.258,64.854C544.224,64.108,542.189,63.888,540.155,64.571C538.121,65.254,536.086,66.841,534.052,67.119C532.017,67.397,529.983,66.365,527.949,65.905C525.914,65.444,523.88,65.556,521.845,65.944C519.811,66.333,517.776,67,515.742,66.778C513.708,66.556,511.673,65.444,509.639,65.548C507.604,65.651,505.57,66.968,503.536,66.579C501.501,66.19,499.467,64.095,497.432,62.937C495.398,61.778,493.363,61.556,491.329,62.139C489.295,62.722,487.26,64.111,485.226,64.841C483.191,65.571,481.157,65.643,479.123,66.115C477.088,66.587,475.054,67.46,473.019,68.091C470.985,68.722,468.95,69.111,466.916,69.413C464.882,69.714,462.847,69.929,460.813,69.151C458.778,68.373,456.744,66.603,454.71,65.468C452.675,64.333,450.641,63.833,448.606,63.416C446.572,62.999,444.537,62.664,442.503,62.831C440.469,62.997,438.434,63.665,436.4,64.444C434.365,65.222,432.331,66.111,430.297,66.443C428.262,66.775,426.228,66.55,424.193,66.106C422.159,65.661,420.124,64.997,418.09,65.082C416.056,65.167,414.021,66,411.987,66.444C409.952,66.887,407.918,66.942,405.884,68.164C403.849,69.386,401.815,71.776,399.78,72.583C397.746,73.389,395.711,72.611,393.677,72.583C391.643,72.556,389.608,73.278,387.574,72.495C385.539,71.713,383.505,69.426,381.471,68.121C379.436,66.815,377.402,66.491,375.367,67.773C373.333,69.056,371.298,71.944,369.264,72.167C367.23,72.389,365.195,69.944,363.161,70.044C361.126,70.143,359.092,72.786,357.058,72.964C355.023,73.143,352.989,70.857,350.954,69.452C348.92,68.048,346.885,67.524,344.851,68.706C342.817,69.887,340.782,72.775,338.748,72.83C336.713,72.885,334.679,70.107,332.645,68.913C330.61,67.719,328.576,68.11,326.541,70.11C324.507,72.111,322.472,75.722,320.438,76.444C318.404,77.165,316.369,74.997,314.335,73.584C312.3,72.171,310.266,71.512,308.232,70.874C306.197,70.236,304.163,69.618,302.128,69.837C300.094,70.056,298.059,71.111,296.025,71.556C293.991,72,291.956,71.833,289.922,71.583C287.887,71.333,285.853,71,283.819,70.841C281.784,70.683,279.75,70.698,277.715,71.143C275.681,71.587,273.646,72.46,271.612,72.98C269.578,73.5,267.543,73.667,265.509,73.527C263.474,73.388,261.44,72.942,259.406,73.831C257.371,74.719,255.337,76.943,253.302,77.694C251.268,78.444,249.234,77.722,247.199,78.722C245.165,79.722,243.13,82.444,241.096,84.083C239.061,85.722,237.027,86.278,234.993,86.444C232.958,86.611,230.924,86.389,228.889,85.86C226.855,85.332,224.821,84.497,222.786,84.164C220.752,83.831,218.717,83.999,216.683,84.27C214.648,84.542,212.614,84.917,210.58,87C208.545,89.083,206.511,92.875,204.476,94.41C202.442,95.944,200.408,95.222,198.373,94.778C196.339,94.333,194.304,94.167,192.27,94C190.235,93.833,188.201,93.667,186.167,93.722C184.132,93.778,182.098,94.056,180.063,95.21C178.029,96.364,175.995,98.394,173.96,98.894C171.926,99.394,169.891,98.364,167.857,98.126C165.822,97.888,163.788,98.442,161.754,100.172C159.719,101.902,157.685,104.808,155.65,107.309C153.616,109.81,151.582,111.905,149.547,113.452C147.513,115,145.478,116,143.444,117.861C141.409,119.722,139.375,122.444,137.341,125.182C135.306,127.919,133.272,130.672,131.237,130.978C129.203,131.283,127.169,129.142,125.134,128.154C123.1,127.167,121.065,127.333,119.031,128.472C116.996,129.611,114.962,131.722,112.928,132.722C110.893,133.722,108.859,133.611,106.824,133.75C104.79,133.889,102.756,134.278,100.721,135.861C98.687,137.444,96.652,140.222,94.618,141.694C92.583,143.167,90.549,143.333,88.515,144.056C86.48,144.778,84.446,146.056,82.411,146.306C80.377,146.556,78.343,145.778,76.308,145.889C74.274,146,72.239,147,70.205,148.027C68.17,149.054,66.136,150.108,64.102,151.692C62.067,153.275,60.033,155.388,57.998,157.998C55.964,160.608,53.93,163.717,51.895,168.854C49.861,173.992,47.826,181.158,45.792,189.048C43.757,196.938,41.723,205.55,39.689,212.913C37.654,220.275,35.62,226.388,33.585,233.333C31.551,240.278,29.517,248.056,27.482,257.861C25.448,267.667,23.413,279.5,21.379,293.139C19.344,306.778,17.31,322.222,15.276,336.167C13.241,350.111,11.207,362.556,9.172,370.194C7.138,377.833,5.104,380.667,3.069,391.221Z" fill="#3D494C" opacity="0.3"/></g></g><path class="foreground" aria-hidden="true" d="" display="none"/></g></g><g class="mark-group role-scope layer_1_pathgroup" role="graphics-object" aria-roledescription="group mark container"><g transform="translate(0,0)"><path class="background" aria-hidden="true" d="M0,0h600v400h-600Z"/><g><g class="mark-line role-mark layer_1_marks" clip-path="url(#clip4)" role="graphics-object" aria-roledescription="line mark container"><path aria-label="Number of environment steps: 200.38k; Success rate: 0.0975; Algorithm: MTMHSAC" role="graphics-symbol" aria-roledescription="line mark" d="M3.069,408.847C5.104,395.222,7.138,382.361,9.172,369.806C11.207,357.25,13.241,345,15.276,332.458C17.31,319.917,19.344,307.083,21.379,296.25C23.413,285.417,25.448,276.583,27.482,266.972C29.517,257.361,31.551,246.972,33.585,239.611C35.62,232.25,37.654,227.917,39.689,220.542C41.723,213.167,43.757,202.75,45.792,195.375C47.826,188,49.861,183.667,51.895,178.694C53.93,173.722,55.964,168.111,57.998,164.736C60.033,161.361,62.067,160.222,64.102,158.333C66.136,156.444,68.17,153.806,70.205,151.048C72.239,148.291,74.274,145.415,76.308,144.04C78.343,142.665,80.377,142.791,82.411,142.02C84.446,141.25,86.48,139.583,88.515,138.059C90.549,136.534,92.583,135.152,94.618,135.217C96.652,135.282,98.687,136.795,100.721,136.528C102.756,136.261,104.79,134.214,106.824,133.111C108.859,132.009,110.893,131.85,112.928,131.559C114.962,131.267,116.996,130.842,119.031,130.754C121.065,130.667,123.1,130.917,125.134,130.5C127.169,130.083,129.203,129,131.237,128.153C133.272,127.306,135.306,126.694,137.341,126.306C139.375,125.917,141.409,125.75,143.444,125.351C145.478,124.953,147.513,124.323,149.547,123.656C151.582,122.989,153.616,122.286,155.65,121.296C157.685,120.306,159.719,119.028,161.754,118.5C163.788,117.972,165.822,118.194,167.857,117.833C169.891,117.472,171.926,116.528,173.96,115.528C175.995,114.528,178.029,113.472,180.063,112.5C182.098,111.528,184.132,110.639,186.167,110.903C188.201,111.167,190.235,112.583,192.27,112.228C194.304,111.872,196.339,109.744,198.373,108.535C200.408,107.327,202.442,107.038,204.476,106.366C206.511,105.694,208.545,104.639,210.58,104.194C212.614,103.75,214.648,103.917,216.683,103.371C218.717,102.825,220.752,101.566,222.786,101.463C224.821,101.359,226.855,102.41,228.889,101.513C230.924,100.615,232.958,97.769,234.993,95.998C237.027,94.226,239.061,93.53,241.096,92.812C243.13,92.094,245.165,91.355,247.199,90.257C249.234,89.16,251.268,87.705,253.302,87.491C255.337,87.278,257.371,88.306,259.406,87.514C261.44,86.722,263.474,84.111,265.509,82.056C267.543,80,269.578,78.5,271.612,77.403C273.646,76.306,275.681,75.611,277.715,75.014C279.75,74.417,281.784,73.917,283.819,73.639C285.853,73.361,287.887,73.306,289.922,72.864C291.956,72.423,293.991,71.596,296.025,72.054C298.059,72.513,300.094,74.256,302.128,74.587C304.163,74.917,306.197,73.833,308.232,72.778C310.266,71.722,312.3,70.694,314.335,70.749C316.369,70.803,318.404,71.94,320.438,72.365C322.472,72.789,324.507,72.502,326.541,72.086C328.576,71.671,330.61,71.127,332.645,71.341C334.679,71.556,336.713,72.528,338.748,72.583C340.782,72.639,342.817,71.778,344.851,71.833C346.885,71.889,348.92,72.861,350.954,72.875C352.989,72.889,355.023,71.944,357.058,70.959C359.092,69.974,361.126,68.949,363.161,68.713C365.195,68.476,367.23,69.03,369.264,69.584C371.298,70.139,373.333,70.694,375.367,71.569C377.402,72.444,379.436,73.639,381.471,74C383.505,74.361,385.539,73.889,387.574,72.944C389.608,72,391.643,70.583,393.677,69.75C395.711,68.917,397.746,68.667,399.78,69.194C401.815,69.722,403.849,71.028,405.884,71.264C407.918,71.5,409.952,70.667,411.987,70.181C414.021,69.694,416.056,69.556,418.09,69.619C420.124,69.683,422.159,69.948,424.193,70.198C426.228,70.448,428.262,70.683,430.297,70.536C432.331,70.389,434.365,69.861,436.4,69.778C438.434,69.694,440.469,70.056,442.503,70.403C444.537,70.75,446.572,71.083,448.606,71.583C450.641,72.083,452.675,72.75,454.71,73.5C456.744,74.25,458.778,75.083,460.813,74.5C462.847,73.917,464.882,71.917,466.916,70.986C468.95,70.056,470.985,70.194,473.019,70.958C475.054,71.722,477.088,73.111,479.123,72.758C481.157,72.405,483.191,70.31,485.226,70.018C487.26,69.726,489.295,71.238,491.329,71.984C493.363,72.731,495.398,72.712,497.432,72.489C499.467,72.267,501.501,71.842,503.536,71.239C505.57,70.637,507.604,69.857,509.639,70.146C511.673,70.436,513.708,71.795,515.742,72.038C517.776,72.282,519.811,71.41,521.845,71.537C523.88,71.665,525.914,72.791,527.949,72.798C529.983,72.806,532.017,71.694,534.052,71.153C536.086,70.611,538.121,70.639,540.155,71.181C542.189,71.722,544.224,72.778,546.258,73.282C548.293,73.786,550.327,73.739,552.362,73.823C554.396,73.906,556.43,74.12,558.465,73.594C560.499,73.068,562.534,71.803,564.568,71.094C566.602,70.385,568.637,70.231,570.671,70.155C572.706,70.079,574.74,70.081,576.775,70.541C578.809,71,580.843,71.917,582.878,72.25C584.912,72.583,586.947,72.333,588.981,71.72" stroke="#FF4B33" stroke-width="2"/></g></g><path class="foreground" aria-hidden="true" d="" display="none"/></g><g transform="translate(0,0)"><path class="background" aria-hidden="true" d="M0,0h600v400h-600Z"/><g><g class="mark-line role-mark layer_1_marks" clip-path="url(#clip5)" role="graphics-object" aria-roledescription="line mark container"><path aria-label="Number of environment steps: 200.38k; Success rate: 0.146666666667; Algorithm: MTSAC" role="graphics-symbol" aria-roledescription="line mark" d="M3.069,379.333C5.104,368.667,7.138,365.667,9.172,360.111C11.207,354.556,13.241,346.444,15.276,336.056C17.31,325.667,19.344,313,21.379,304.056C23.413,295.111,25.448,289.889,27.482,281.056C29.517,272.222,31.551,259.778,33.585,247.889C35.62,236,37.654,224.667,39.689,212.444C41.723,200.222,43.757,187.111,45.792,179.833C47.826,172.556,49.861,171.111,51.895,168.889C53.93,166.667,55.964,163.667,57.998,163.389C60.033,163.111,62.067,165.556,64.102,164.833C66.136,164.111,68.17,160.222,70.205,156.222C72.239,152.222,74.274,148.111,76.308,145.444C78.343,142.778,80.377,141.556,82.411,140.5C84.446,139.444,86.48,138.556,88.515,139C90.549,139.444,92.583,141.222,94.618,142.611C96.652,144,98.687,145,100.721,143.444C102.756,141.889,104.79,137.778,106.824,136.278C108.859,134.778,110.893,135.889,112.928,136.167C114.962,136.444,116.996,135.889,119.031,135.389C121.065,134.889,123.1,134.444,125.134,134.333C127.169,134.222,129.203,134.444,131.237,133.778C133.272,133.111,135.306,131.556,137.341,129.667C139.375,127.778,141.409,125.556,143.444,124.167C145.478,122.778,147.513,122.222,149.547,119.444C151.582,116.667,153.616,111.667,155.65,108.722C157.685,105.778,159.719,104.889,161.754,102.722C163.788,100.556,165.822,97.111,167.857,95.667C169.891,94.222,171.926,94.778,173.96,94.222C175.995,93.667,178.029,92,180.063,90.833C182.098,89.667,184.132,89,186.167,89.278C188.201,89.556,190.235,90.778,192.27,90.333C194.304,89.889,196.339,87.778,198.373,87.278C200.408,86.778,202.442,87.889,204.476,89.333C206.511,90.778,208.545,92.556,210.58,92.5C212.614,92.444,214.648,90.556,216.683,89.222C218.717,87.889,220.752,87.111,222.786,86.778C224.821,86.444,226.855,86.556,228.889,86.056C230.924,85.556,232.958,84.444,234.993,83.5C237.027,82.556,239.061,81.778,241.096,82.611C243.13,83.444,245.165,85.889,247.199,85.333C249.234,84.778,251.268,81.222,253.302,80.5C255.337,79.778,257.371,81.889,259.406,83.5C261.44,85.111,263.474,86.222,265.509,87.278C267.543,88.333,269.578,89.333,271.612,88.389C273.646,87.444,275.681,84.556,277.715,83.278C279.75,82,281.784,82.333,283.819,83.944C285.853,85.556,287.887,88.444,289.922,88C291.956,87.556,293.991,83.778,296.025,83.278C298.059,82.778,300.094,85.556,302.128,85.278C304.163,85,306.197,81.667,308.232,80.333C310.266,79,312.3,79.667,314.335,78.944C316.369,78.222,318.404,76.111,320.438,74.972C322.472,73.833,324.507,73.667,326.541,73.5C328.576,73.333,330.61,73.167,332.645,73.917C334.679,74.667,336.713,76.333,338.748,76.056C340.782,75.778,342.817,73.556,344.851,73.778C346.885,74,348.92,76.667,350.954,78.389C352.989,80.111,355.023,80.889,357.058,80.222C359.092,79.556,361.126,77.444,363.161,76.222C365.195,75,367.23,74.667,369.264,73.667C371.298,72.667,373.333,71,375.367,71.778C377.402,72.556,379.436,75.778,381.471,78.389C383.505,81,385.539,83,387.574,82.722C389.608,82.444,391.643,79.889,393.677,78.556C395.711,77.222,397.746,77.111,399.78,76.667C401.815,76.222,403.849,75.444,405.884,74.444C407.918,73.444,409.952,72.222,411.987,73.278C414.021,74.333,416.056,77.667,418.09,78.056C420.124,78.444,422.159,75.889,424.193,75.111C426.228,74.333,428.262,75.333,430.297,75.111C432.331,74.889,434.365,73.444,436.4,72.167C438.434,70.889,440.469,69.778,442.503,70.556C444.537,71.333,446.572,74,448.606,73.389C450.641,72.778,452.675,68.889,454.71,67.5C456.744,66.111,458.778,67.222,460.813,67.944C462.847,68.667,464.882,69,466.916,68.667C468.95,68.333,470.985,67.333,473.019,67.611C475.054,67.889,477.088,69.444,479.123,70.111C481.157,70.778,483.191,70.556,485.226,70.611C487.26,70.667,489.295,71,491.329,70.556C493.363,70.111,495.398,68.889,497.432,68.444C499.467,68,501.501,68.333,503.536,68.306C505.57,68.278,507.604,67.889,509.639,68.333C511.673,68.778,513.708,70.056,515.742,69.972C517.776,69.889,519.811,68.444,521.845,68.222C523.88,68,525.914,69,527.949,69.944C529.983,70.889,532.017,71.778,534.052,72.389C536.086,73,538.121,73.333,540.155,73.056C542.189,72.778,544.224,71.889,546.258,71.722C548.293,71.556,550.327,72.111,552.362,71.889C554.396,71.667,556.43,70.667,558.465,69.833C560.499,69,562.534,68.333,564.568,68.667C566.602,69,568.637,70.333,570.671,71.389C572.706,72.444,574.74,73.222,576.775,73.389C578.809,73.556,580.843,73.111,582.878,73.056C584.912,73,586.947,73.333,588.981,72.833" stroke="#4D130F" stroke-width="2"/></g></g><path class="foreground" aria-hidden="true" d="" display="none"/></g><g transform="translate(0,0)"><path class="background" aria-hidden="true" d="M0,0h600v400h-600Z"/><g><g class="mark-line role-mark layer_1_marks" clip-path="url(#clip6)" role="graphics-object" aria-roledescription="line mark container"><path aria-label="Number of environment steps: 200.38k; Success rate: 0.0953333333333; Algorithm: SAC" role="graphics-symbol" aria-roledescription="line mark" d="M3.069,403.444C5.104,392.778,7.138,390.556,9.172,384C11.207,377.444,13.241,366.556,15.276,354.083C17.31,341.611,19.344,327.556,21.379,313.417C23.413,299.278,25.448,285.056,27.482,274.944C29.517,264.833,31.551,258.833,33.585,252.75C35.62,246.667,37.654,240.5,39.689,231.25C41.723,222,43.757,209.667,45.792,201.25C47.826,192.833,49.861,188.333,51.895,183.694C53.93,179.056,55.964,174.278,57.998,170.222C60.033,166.167,62.067,162.833,64.102,160.333C66.136,157.833,68.17,156.167,70.205,154.528C72.239,152.889,74.274,151.278,76.308,150.583C78.343,149.889,80.377,150.111,82.411,149.556C84.446,149,86.48,147.667,88.515,147.087C90.549,146.508,92.583,146.683,94.618,145.155C96.652,143.627,98.687,140.397,100.721,138.81C102.756,137.222,104.79,137.278,106.824,137.444C108.859,137.611,110.893,137.889,112.928,137.306C114.962,136.722,116.996,135.278,119.031,133.972C121.065,132.667,123.1,131.5,125.134,132.266C127.169,133.032,129.203,135.73,131.237,135.702C133.272,135.675,135.306,132.921,137.341,130.294C139.375,127.667,141.409,125.167,143.444,124.444C145.478,123.722,147.513,124.778,149.547,124.095C151.582,123.413,153.616,120.992,155.65,118.964C157.685,116.937,159.719,115.302,161.754,113.651C163.788,112,165.822,110.333,167.857,110.127C169.891,109.921,171.926,111.175,173.96,110.091C175.995,109.008,178.029,105.587,180.063,104.794C182.098,104,184.132,105.833,186.167,106.222C188.201,106.611,190.235,105.556,192.27,105.139C194.304,104.722,196.339,104.944,198.373,105.194C200.408,105.444,202.442,105.722,204.476,104.833C206.511,103.944,208.545,101.889,210.58,100.167C212.614,98.444,214.648,97.056,216.683,95.944C218.717,94.833,220.752,94,222.786,93.417C224.821,92.833,226.855,92.5,228.889,92.333C230.924,92.167,232.958,92.167,234.993,91.833C237.027,91.5,239.061,90.833,241.096,89.829C243.13,88.825,245.165,87.484,247.199,86.762C249.234,86.04,251.268,85.937,253.302,84.802C255.337,83.667,257.371,81.5,259.406,80.5C261.44,79.5,263.474,79.667,265.509,79.417C267.543,79.167,269.578,78.5,271.612,77.718C273.646,76.937,275.681,76.04,277.715,75.151C279.75,74.262,281.784,73.381,283.819,73.746C285.853,74.111,287.887,75.722,289.922,76.444C291.956,77.167,293.991,77,296.025,76.361C298.059,75.722,300.094,74.611,302.128,75.687C304.163,76.762,306.197,80.024,308.232,80.718C310.266,81.413,312.3,79.54,314.335,79.603C316.369,79.667,318.404,81.667,320.438,81.111C322.472,80.556,324.507,77.444,326.541,75.389C328.576,73.333,330.61,72.333,332.645,73.194C334.679,74.056,336.713,76.778,338.748,76.639C340.782,76.5,342.817,73.5,344.851,71.94C346.885,70.381,348.92,70.262,350.954,71.321C352.989,72.381,355.023,74.619,357.058,74.79C359.092,74.96,361.126,73.063,363.161,73.171C365.195,73.278,367.23,75.389,369.264,75.528C371.298,75.667,373.333,73.833,375.367,73.06C377.402,72.286,379.436,72.571,381.471,73.46C383.505,74.349,385.539,75.841,387.574,76.56C389.608,77.278,391.643,77.222,393.677,77.667C395.711,78.111,397.746,79.056,399.78,77.944C401.815,76.833,403.849,73.667,405.884,72.028C407.918,70.389,409.952,70.278,411.987,69.806C414.021,69.333,416.056,68.5,418.09,68.528C420.124,68.556,422.159,69.444,424.193,69.722C426.228,70,428.262,69.667,430.297,69.222C432.331,68.778,434.365,68.222,436.4,67.25C438.434,66.278,440.469,64.889,442.503,64.944C444.537,65,446.572,66.5,448.606,67.028C450.641,67.556,452.675,67.111,454.71,68.206C456.744,69.302,458.778,71.937,460.813,72.631C462.847,73.325,464.882,72.079,466.916,71.456C468.95,70.833,470.985,70.833,473.019,70.552C475.054,70.27,477.088,69.706,479.123,69.706C481.157,69.706,483.191,70.27,485.226,69.635C487.26,69,489.295,67.167,491.329,66.111C493.363,65.056,495.398,64.778,497.432,66.032C499.467,67.286,501.501,70.071,503.536,70.544C505.57,71.016,507.604,69.175,509.639,68.643C511.673,68.111,513.708,68.889,515.742,68.861C517.776,68.833,519.811,68,521.845,67.861C523.88,67.722,525.914,68.278,527.949,69.06C529.983,69.841,532.017,70.849,534.052,70.71C536.086,70.571,538.121,69.286,540.155,69.004C542.189,68.722,544.224,69.444,546.258,69.754C548.293,70.063,550.327,69.96,552.362,69.46C554.396,68.96,556.43,68.063,558.465,68.135C560.499,68.206,562.534,69.246,564.568,69.802C566.602,70.357,568.637,70.429,570.671,70.353C572.706,70.278,574.74,70.056,576.775,70.167C578.809,70.278,580.843,70.722,582.878,71.722C584.912,72.722,586.947,74.278,588.981,73.917" stroke="#3D494C" stroke-width="2"/></g></g><path class="foreground" aria-hidden="true" d="" display="none"/></g></g><g class="mark-group role-legend" role="graphics-symbol" aria-roledescription="legend" aria-label="Symbol legend titled 'Algorithm' for fill color and stroke color with 3 values: MTMHSAC, MTSAC, SAC"><g transform="translate(493,315)"><path class="background" aria-hidden="true" d="M0,0h89v67h-89Z" pointer-events="none"/><g><g class="mark-group role-legend-entry"><g transform="translate(0,21)"><path class="background" aria-hidden="true" d="M0,0h0v0h0Z" pointer-events="none"/><g><g class="mark-group role-scope" role="graphics-object" aria-roledescription="group mark container"><g transform="translate(0,0)"><path class="background" aria-hidden="true" d="M0,0h88.79296875v14h-88.79296875Z" pointer-events="none" opacity="1"/><g><g class="mark-symbol role-legend-symbol" pointer-events="none"><path transform="translate(7,7)" d="M3.536,0A3.536,3.536,0,1,1,-3.536,0A3.536,3.536,0,1,1,3.536,0" fill="#FF4B33" stroke="#FF4B33" stroke-width="1.5" opacity="1"/></g><g class="mark-text role-legend-label" pointer-events="none"><text text-anchor="start" transform="translate(18,11)" font-family="Times New Roman" font-size="14px" fill="#000" opacity="1">MTMHSAC</text></g></g><path class="foreground" aria-hidden="true" d="" pointer-events="none" display="none"/></g><g transform="translate(0,16)"><path class="background" aria-hidden="true" d="M0,0h88.79296875v14h-88.79296875Z" pointer-events="none" opacity="1"/><g><g class="mark-symbol role-legend-symbol" pointer-events="none"><path transform="translate(7,7)" d="M3.536,0A3.536,3.536,0,1,1,-3.536,0A3.536,3.536,0,1,1,3.536,0" fill="#4D130F" stroke="#4D130F" stroke-width="1.5" opacity="1"/></g><g class="mark-text role-legend-label" pointer-events="none"><text text-anchor="start" transform="translate(18,11)" font-family="Times New Roman" font-size="14px" fill="#000" opacity="1">MTSAC</text></g></g><path class="foreground" aria-hidden="true" d="" pointer-events="none" display="none"/></g><g transform="translate(0,32)"><path class="background" aria-hidden="true" d="M0,0h88.79296875v14h-88.79296875Z" pointer-events="none" opacity="1"/><g><g class="mark-symbol role-legend-symbol" pointer-events="none"><path transform="translate(7,7)" d="M3.536,0A3.536,3.536,0,1,1,-3.536,0A3.536,3.536,0,1,1,3.536,0" fill="#3D494C" stroke="#3D494C" stroke-width="1.5" opacity="1"/></g><g class="mark-text role-legend-label" pointer-events="none"><text text-anchor="start" transform="translate(18,11)" font-family="Times New Roman" font-size="14px" fill="#000" opacity="1">SAC</text></g></g><path class="foreground" aria-hidden="true" d="" pointer-events="none" display="none"/></g></g></g><path class="foreground" aria-hidden="true" d="" pointer-events="none" display="none"/></g></g><g class="mark-text role-legend-title" pointer-events="none"><text text-anchor="start" transform="translate(0,13)" font-family="Times New Roman" font-size="16px" font-weight="bold" fill="#000" opacity="1">Algorithm</text></g></g><path class="foreground" aria-hidden="true" d="" pointer-events="none" display="none"/></g></g></g><path class="foreground" aria-hidden="true" d="" display="none"/></g></g></g><defs><clipPath id="clip1"><rect x="0" y="0" width="600" height="400"/></clipPath><clipPath id="clip2"><rect x="0" y="0" width="600" height="400"/></clipPath><clipPath id="clip3"><rect x="0" y="0" width="600" height="400"/></clipPath><clipPath id="clip4"><rect x="0" y="0" width="600" height="400"/></clipPath><clipPath id="clip5"><rect x="0" y="0" width="600" height="400"/></clipPath><clipPath id="clip6"><rect x="0" y="0" width="600" height="400"/></clipPath></defs></svg>