<svg width="865" height="205" viewBox="0 0 865 205" fill="none" xmlns="http://www.w3.org/2000/svg">
<g clip-path="url(#clip0_15_136)">
<rect width="865" height="205" fill="white"/>
<rect x="183" y="179" width="8" height="24" fill="#546569"/>
<text fill="#546569" xml:space="preserve" style="white-space: pre" font-family="Times New Roman" font-size="14" letter-spacing="0em"><tspan x="195" y="195.724">Observation</tspan></text>
<rect x="276" y="179" width="8" height="24" fill="#9DB4BB"/>
<text fill="#6E848A" xml:space="preserve" style="white-space: pre" font-family="Times New Roman" font-size="14" letter-spacing="0em"><tspan x="288" y="195.724">1-hot task ID</tspan></text>
<rect x="374" y="177" width="8" height="28" fill="#E0392D"/>
<text fill="#E0392D" xml:space="preserve" style="white-space: pre" font-family="Times New Roman" font-size="14" letter-spacing="0em"><tspan x="386" y="195.724">Dense layer</tspan></text>
<circle cx="469" cy="191" r="4" fill="#FF5F33"/>
<text fill="#FF5F33" xml:space="preserve" style="white-space: pre" font-family="Times New Roman" font-size="14" letter-spacing="0em"><tspan x="477" y="195.724">Non-linearity</tspan></text>
<rect x="565" y="187" width="8" height="8" fill="#2CDBA1"/>
<text fill="#2CDBA1" xml:space="preserve" style="white-space: pre" font-family="Times New Roman" font-size="14" letter-spacing="0em"><tspan x="577" y="195.724">Weight</tspan></text>
<rect x="631" y="183" width="8" height="16" fill="#3D494C"/>
<text fill="#3D494C" xml:space="preserve" style="white-space: pre" font-family="Times New Roman" font-size="14" letter-spacing="0em"><tspan x="643" y="195.724">Output</tspan></text>
<text fill="black" xml:space="preserve" style="white-space: pre" font-family="Times New Roman" font-size="6" letter-spacing="0em"><tspan x="98" y="121.857">N</tspan></text>
<line x1="116" y1="100.833" x2="121" y2="100.833" stroke="#6E848A"/>
<line x1="104" y1="100.833" x2="109" y2="100.833" stroke="#6E848A"/>
<line x1="112" y1="90.333" x2="112" y2="97.333" stroke="#6E848A"/>
<line x1="105" y1="63.833" x2="96" y2="63.833" stroke="#6E848A"/>
<line x1="105" y1="84.333" x2="97" y2="84.333" stroke="#6E848A"/>
<line x1="105" y1="104.333" x2="97" y2="104.333" stroke="#6E848A"/>
<line x1="105" y1="136.833" x2="96" y2="136.833" stroke="#6E848A"/>
<line x1="95" y1="63.833" x2="87" y2="63.833" stroke="#6E848A"/>
<line x1="96" y1="84.333" x2="88" y2="84.333" stroke="#6E848A"/>
<line x1="96" y1="104.333" x2="88" y2="104.333" stroke="#6E848A"/>
<line x1="96" y1="136.833" x2="87" y2="136.833" stroke="#6E848A"/>
<line x1="20" y1="100.833" x2="87" y2="100.833" stroke="#6E848A"/>
<line x1="5" y1="86.833" x2="13" y2="86.833" stroke="#6E848A"/>
<line x1="5" y1="114.833" x2="13" y2="114.833" stroke="#6E848A"/>
<line x1="13" y1="100.833" x2="21" y2="100.833" stroke="#6E848A"/>
<rect y="74.5918" width="8" height="24" fill="#9DB4BB"/>
<rect y="102.592" width="8" height="24" fill="#546569"/>
<line x1="12.5" y1="86.5918" x2="12.5" y2="114.592" stroke="#6E848A"/>
<rect x="16" y="68.5918" width="8" height="64" fill="#E0392D"/>
<circle cx="32" cy="100.592" r="4" fill="#FF5F33"/>
<rect x="40" y="68.5918" width="8" height="64" fill="#E0392D"/>
<circle cx="56" cy="100.592" r="4" fill="#FF5F33"/>
<rect x="64" y="68.5918" width="8" height="64" fill="#E0392D"/>
<circle cx="80" cy="100.592" r="4" fill="#FF5F33"/>
<line x1="87.5" y1="137.092" x2="87.5" y2="64.0918" stroke="#6E848A"/>
<rect x="92" y="56.333" width="8" height="16" fill="#3D494C"/>
<rect x="92" y="76.333" width="8" height="16" fill="#3D494C"/>
<rect x="92" y="96.333" width="8" height="16" fill="#3D494C"/>
<path d="M96.7588 117.092C96.7588 117.306 96.6836 117.486 96.5332 117.632C96.3874 117.778 96.2096 117.851 96 117.851C95.7904 117.851 95.6104 117.775 95.46 117.625C95.3141 117.479 95.2412 117.301 95.2412 117.092C95.2412 116.882 95.3141 116.702 95.46 116.552C95.6104 116.406 95.7904 116.333 96 116.333C96.2142 116.333 96.3942 116.406 96.54 116.552C96.6859 116.702 96.7588 116.882 96.7588 117.092Z" fill="black"/>
<path d="M96.7588 120.592C96.7588 120.806 96.6836 120.986 96.5332 121.132C96.3874 121.278 96.2096 121.351 96 121.351C95.7904 121.351 95.6104 121.275 95.46 121.125C95.3141 120.979 95.2412 120.801 95.2412 120.592C95.2412 120.382 95.3141 120.202 95.46 120.052C95.6104 119.906 95.7904 119.833 96 119.833C96.2142 119.833 96.3942 119.906 96.54 120.052C96.6859 120.202 96.7588 120.382 96.7588 120.592Z" fill="black"/>
<path d="M96.7588 124.092C96.7588 124.306 96.6836 124.486 96.5332 124.632C96.3874 124.778 96.2096 124.851 96 124.851C95.7904 124.851 95.6104 124.775 95.46 124.625C95.3141 124.479 95.2412 124.301 95.2412 124.092C95.2412 123.882 95.3141 123.702 95.46 123.552C95.6104 123.406 95.7904 123.333 96 123.333C96.2142 123.333 96.3942 123.406 96.54 123.552C96.6859 123.702 96.7588 123.882 96.7588 124.092Z" fill="black"/>
<rect x="92" y="128.851" width="8" height="16" fill="#3D494C"/>
<line x1="104.5" y1="64.0918" x2="104.5" y2="137.092" stroke="#6E848A"/>
<circle cx="112" cy="100.592" r="3.5" stroke="#6E848A"/>
<line x1="109.496" y1="97.9525" x2="114.639" y2="103.095" stroke="#6E848A"/>
<line x1="109.361" y1="103.095" x2="114.504" y2="97.9525" stroke="#6E848A"/>
<rect x="120" y="92.5918" width="8" height="16" fill="#3D494C"/>
<rect x="108" y="68.333" width="8" height="24" fill="#9DB4BB"/>
<text fill="black" xml:space="preserve" style="white-space: pre" font-family="Times New Roman" font-size="16" letter-spacing="0em"><tspan x="0" y="37.5479">a)</tspan></text>
<line x1="214" y1="98.2412" x2="222" y2="98.2412" stroke="#6E848A"/>
<line x1="214" y1="122.241" x2="222" y2="122.241" stroke="#6E848A"/>
<line x1="214" y1="159.241" x2="222" y2="159.241" stroke="#6E848A"/>
<line x1="226" y1="98.2412" x2="234" y2="98.2412" stroke="#6E848A"/>
<line x1="226" y1="122.241" x2="234" y2="122.241" stroke="#6E848A"/>
<line x1="226" y1="159.241" x2="234" y2="159.241" stroke="#6E848A"/>
<line x1="299" y1="98.2412" x2="307" y2="98.2412" stroke="#6E848A"/>
<line x1="299" y1="122.241" x2="307" y2="122.241" stroke="#6E848A"/>
<line x1="299" y1="159.241" x2="307" y2="159.241" stroke="#6E848A"/>
<line x1="311" y1="98.2412" x2="319" y2="98.2412" stroke="#6E848A"/>
<line x1="311" y1="122.241" x2="319" y2="122.241" stroke="#6E848A"/>
<line x1="311" y1="159.241" x2="319" y2="159.241" stroke="#6E848A"/>
<line x1="159" y1="128.741" x2="214" y2="128.741" stroke="#6E848A"/>
<line x1="200.5" y1="128.241" x2="200.5" y2="87.2412" stroke="#6E848A"/>
<line x1="200.5" y1="81.2412" x2="200.5" y2="57.2412" stroke="#6E848A"/>
<line x1="234" y1="103.016" x2="283" y2="103.016" stroke="#6E848A"/>
<line x1="234" y1="154.016" x2="283" y2="154.016" stroke="#6E848A"/>
<line x1="319" y1="102.741" x2="368" y2="102.741" stroke="#6E848A"/>
<line x1="319" y1="153.741" x2="368" y2="153.741" stroke="#6E848A"/>
<line x1="368" y1="128.741" x2="401" y2="128.741" stroke="#6E848A"/>
<text fill="#6E848A" xml:space="preserve" style="white-space: pre" font-family="Times New Roman" font-size="5" letter-spacing="0em"><tspan x="241.924" y="159.928">each next input is&#10;</tspan><tspan x="227.613" y="165.928">a weighted sum over all outputs</tspan></text>
<text fill="#6E848A" xml:space="preserve" style="white-space: pre" font-family="Times New Roman" font-size="5" letter-spacing="0em"><tspan x="327.924" y="159.928">each next input is&#10;</tspan><tspan x="313.613" y="165.928">a weighted sum over all outputs</tspan></text>
<line x1="284" y1="128.241" x2="299" y2="128.241" stroke="#6E848A"/>
<line x1="200.854" y1="105.495" x2="198.854" y2="107.495" stroke="#6E848A"/>
<line x1="200.154" y1="105.488" x2="202.154" y2="107.488" stroke="#6E848A"/>
<rect x="154" y="116.5" width="8" height="24" fill="#546569"/>
<rect x="166" y="114.5" width="8" height="28" fill="#E0392D"/>
<circle cx="182" cy="128.5" r="4" fill="#FF5F33"/>
<rect x="190" y="114.5" width="8" height="28" fill="#E0392D"/>
<circle cx="206" cy="128.5" r="4" fill="#FF5F33"/>
<line x1="214.5" y1="98" x2="214.5" y2="159" stroke="#6E848A"/>
<rect x="218" y="88.2412" width="8" height="20" fill="#E0392D"/>
<rect x="218" y="112.241" width="8" height="20" fill="#E0392D"/>
<path d="M223.018 137C223.018 137.214 222.942 137.394 222.792 137.54C222.646 137.686 222.468 137.759 222.259 137.759C222.049 137.759 221.869 137.684 221.719 137.533C221.573 137.387 221.5 137.21 221.5 137C221.5 136.79 221.573 136.61 221.719 136.46C221.869 136.314 222.049 136.241 222.259 136.241C222.473 136.241 222.653 136.314 222.799 136.46C222.945 136.61 223.018 136.79 223.018 137Z" fill="black"/>
<path d="M223.018 140.5C223.018 140.714 222.942 140.894 222.792 141.04C222.646 141.186 222.468 141.259 222.259 141.259C222.049 141.259 221.869 141.184 221.719 141.033C221.573 140.887 221.5 140.71 221.5 140.5C221.5 140.29 221.573 140.11 221.719 139.96C221.869 139.814 222.049 139.741 222.259 139.741C222.473 139.741 222.653 139.814 222.799 139.96C222.945 140.11 223.018 140.29 223.018 140.5Z" fill="black"/>
<path d="M223.018 144C223.018 144.214 222.942 144.394 222.792 144.54C222.646 144.686 222.468 144.759 222.259 144.759C222.049 144.759 221.869 144.684 221.719 144.533C221.573 144.387 221.5 144.21 221.5 144C221.5 143.79 221.573 143.61 221.719 143.46C221.869 143.314 222.049 143.241 222.259 143.241C222.473 143.241 222.653 143.314 222.799 143.46C222.945 143.61 223.018 143.79 223.018 144Z" fill="black"/>
<text fill="black" xml:space="preserve" style="white-space: pre" font-family="Times New Roman" font-size="6" letter-spacing="0em"><tspan x="225.018" y="141.766">K</tspan></text>
<rect x="218" y="148.759" width="8" height="20" fill="#E0392D"/>
<line x1="233.518" y1="159" x2="233.518" y2="98" stroke="#6E848A"/>
<rect x="238.018" y="107" width="8" height="8" fill="#2CDBA1"/>
<rect x="250.018" y="107" width="8" height="8" fill="#1A8059"/>
<rect x="238.018" y="119" width="8" height="8" fill="#24B27E"/>
<rect x="238.018" y="142" width="8" height="8" fill="#2CDBA1"/>
<rect x="271.018" y="107" width="8" height="8" fill="#4DFFD2"/>
<rect x="271.018" y="119" width="8" height="8" fill="#24B27E"/>
<rect x="271.018" y="142" width="8" height="8" fill="#2CDBA1"/>
<rect x="250.018" y="119" width="8" height="8" fill="#4DFFD2"/>
<text fill="black" xml:space="preserve" style="white-space: pre" font-family="Times New Roman" font-size="6" letter-spacing="0em"><tspan x="262.018" y="117.524">K</tspan></text>
<text fill="black" xml:space="preserve" style="white-space: pre" font-family="Times New Roman" font-size="6" letter-spacing="0em"><tspan x="245.018" y="136.524">K</tspan></text>
<path d="M242.535 131.759C242.535 131.973 242.46 132.153 242.31 132.299C242.164 132.445 241.986 132.518 241.776 132.518C241.567 132.518 241.387 132.442 241.236 132.292C241.09 132.146 241.018 131.968 241.018 131.759C241.018 131.549 241.09 131.369 241.236 131.219C241.387 131.073 241.567 131 241.776 131C241.991 131 242.171 131.073 242.316 131.219C242.462 131.369 242.535 131.549 242.535 131.759Z" fill="black"/>
<path d="M242.535 135.259C242.535 135.473 242.46 135.653 242.31 135.799C242.164 135.945 241.986 136.018 241.776 136.018C241.567 136.018 241.387 135.942 241.236 135.792C241.09 135.646 241.018 135.468 241.018 135.259C241.018 135.049 241.09 134.869 241.236 134.719C241.387 134.573 241.567 134.5 241.776 134.5C241.991 134.5 242.171 134.573 242.316 134.719C242.462 134.869 242.535 135.049 242.535 135.259Z" fill="black"/>
<path d="M242.535 138.759C242.535 138.973 242.46 139.153 242.31 139.299C242.164 139.445 241.986 139.518 241.776 139.518C241.567 139.518 241.387 139.442 241.236 139.292C241.09 139.146 241.018 138.968 241.018 138.759C241.018 138.549 241.09 138.369 241.236 138.219C241.387 138.073 241.567 138 241.776 138C241.991 138 242.171 138.073 242.316 138.219C242.462 138.369 242.535 138.549 242.535 138.759Z" fill="black"/>
<path d="M260.776 110C260.991 110 261.171 110.075 261.316 110.226C261.462 110.371 261.535 110.549 261.535 110.759C261.535 110.968 261.46 111.148 261.31 111.299C261.164 111.445 260.986 111.518 260.776 111.518C260.567 111.518 260.387 111.445 260.236 111.299C260.09 111.148 260.018 110.968 260.018 110.759C260.018 110.545 260.09 110.365 260.236 110.219C260.387 110.073 260.567 110 260.776 110Z" fill="black"/>
<path d="M264.276 110C264.491 110 264.671 110.075 264.816 110.226C264.962 110.371 265.035 110.549 265.035 110.759C265.035 110.968 264.96 111.148 264.81 111.299C264.664 111.445 264.486 111.518 264.276 111.518C264.067 111.518 263.887 111.445 263.736 111.299C263.59 111.148 263.518 110.968 263.518 110.759C263.518 110.545 263.59 110.365 263.736 110.219C263.887 110.073 264.067 110 264.276 110Z" fill="black"/>
<path d="M267.776 110C267.991 110 268.171 110.075 268.316 110.226C268.462 110.371 268.535 110.549 268.535 110.759C268.535 110.968 268.46 111.148 268.31 111.299C268.164 111.445 267.986 111.518 267.776 111.518C267.567 111.518 267.387 111.445 267.236 111.299C267.09 111.148 267.018 110.968 267.018 110.759C267.018 110.545 267.09 110.365 267.236 110.219C267.387 110.073 267.567 110 267.776 110Z" fill="black"/>
<path d="M261.627 131.537C261.779 131.688 261.853 131.868 261.85 132.078C261.85 132.284 261.775 132.461 261.627 132.61C261.479 132.758 261.299 132.832 261.086 132.832C260.88 132.832 260.702 132.758 260.554 132.61C260.406 132.461 260.33 132.283 260.327 132.073C260.33 131.864 260.406 131.685 260.554 131.537C260.706 131.385 260.884 131.309 261.091 131.309C261.3 131.313 261.479 131.388 261.627 131.537Z" fill="black"/>
<path d="M264.102 134.011C264.254 134.163 264.328 134.343 264.324 134.553C264.324 134.759 264.25 134.936 264.102 135.085C263.954 135.233 263.773 135.307 263.561 135.307C263.354 135.307 263.177 135.233 263.029 135.085C262.881 134.936 262.805 134.757 262.802 134.548C262.805 134.339 262.881 134.16 263.029 134.011C263.18 133.86 263.359 133.784 263.566 133.784C263.775 133.787 263.954 133.863 264.102 134.011Z" fill="black"/>
<path d="M266.577 136.486C266.728 136.638 266.803 136.818 266.799 137.028C266.799 137.234 266.725 137.411 266.577 137.559C266.429 137.708 266.248 137.782 266.036 137.782C265.829 137.782 265.652 137.708 265.504 137.559C265.356 137.411 265.28 137.232 265.277 137.023C265.28 136.813 265.356 136.635 265.504 136.486C265.655 136.335 265.834 136.259 266.04 136.259C266.25 136.262 266.429 136.338 266.577 136.486Z" fill="black"/>
<line x1="283.518" y1="102.5" x2="283.518" y2="154.5" stroke="#6E848A"/>
<circle cx="291.018" cy="128.5" r="4" fill="#FF5F33"/>
<line x1="299.518" y1="98" x2="299.518" y2="159" stroke="#6E848A"/>
<rect x="303.018" y="88.2412" width="8" height="20" fill="#E0392D"/>
<rect x="303.018" y="112.241" width="8" height="20" fill="#E0392D"/>
<path d="M308.035 137C308.035 137.214 307.96 137.394 307.81 137.54C307.664 137.686 307.486 137.759 307.276 137.759C307.067 137.759 306.887 137.684 306.736 137.533C306.59 137.387 306.518 137.21 306.518 137C306.518 136.79 306.59 136.61 306.736 136.46C306.887 136.314 307.067 136.241 307.276 136.241C307.491 136.241 307.671 136.314 307.816 136.46C307.962 136.61 308.035 136.79 308.035 137Z" fill="black"/>
<path d="M308.035 140.5C308.035 140.714 307.96 140.894 307.81 141.04C307.664 141.186 307.486 141.259 307.276 141.259C307.067 141.259 306.887 141.184 306.736 141.033C306.59 140.887 306.518 140.71 306.518 140.5C306.518 140.29 306.59 140.11 306.736 139.96C306.887 139.814 307.067 139.741 307.276 139.741C307.491 139.741 307.671 139.814 307.816 139.96C307.962 140.11 308.035 140.29 308.035 140.5Z" fill="black"/>
<path d="M308.035 144C308.035 144.214 307.96 144.394 307.81 144.54C307.664 144.686 307.486 144.759 307.276 144.759C307.067 144.759 306.887 144.684 306.736 144.533C306.59 144.387 306.518 144.21 306.518 144C306.518 143.79 306.59 143.61 306.736 143.46C306.887 143.314 307.067 143.241 307.276 143.241C307.491 143.241 307.671 143.314 307.816 143.46C307.962 143.61 308.035 143.79 308.035 144Z" fill="black"/>
<text fill="black" xml:space="preserve" style="white-space: pre" font-family="Times New Roman" font-size="6" letter-spacing="0em"><tspan x="310.035" y="141.766">K</tspan></text>
<rect x="303.018" y="148.759" width="8" height="20" fill="#E0392D"/>
<line x1="318.535" y1="159" x2="318.535" y2="98" stroke="#6E848A"/>
<rect x="323.035" y="107" width="8" height="8" fill="#1A8059"/>
<rect x="335.035" y="107" width="8" height="8" fill="#24B27E"/>
<rect x="323.035" y="119" width="8" height="8" fill="#4DFFD2"/>
<rect x="323.035" y="142" width="8" height="8" fill="#24B27E"/>
<rect x="356.035" y="107" width="8" height="8" fill="#2CDBA1"/>
<rect x="356.035" y="119" width="8" height="8" fill="#4DFFD2"/>
<rect x="356.035" y="142" width="8" height="8" fill="#2CDBA1"/>
<rect x="335.035" y="119" width="8" height="8" fill="#2CDBA1"/>
<text fill="black" xml:space="preserve" style="white-space: pre" font-family="Times New Roman" font-size="6" letter-spacing="0em"><tspan x="347.035" y="117.524">K</tspan></text>
<text fill="black" xml:space="preserve" style="white-space: pre" font-family="Times New Roman" font-size="6" letter-spacing="0em"><tspan x="330.035" y="136.524">K</tspan></text>
<path d="M327.553 131.759C327.553 131.973 327.478 132.153 327.327 132.299C327.181 132.445 327.004 132.518 326.794 132.518C326.584 132.518 326.404 132.442 326.254 132.292C326.108 132.146 326.035 131.968 326.035 131.759C326.035 131.549 326.108 131.369 326.254 131.219C326.404 131.073 326.584 131 326.794 131C327.008 131 327.188 131.073 327.334 131.219C327.48 131.369 327.553 131.549 327.553 131.759Z" fill="black"/>
<path d="M327.553 135.259C327.553 135.473 327.478 135.653 327.327 135.799C327.181 135.945 327.004 136.018 326.794 136.018C326.584 136.018 326.404 135.942 326.254 135.792C326.108 135.646 326.035 135.468 326.035 135.259C326.035 135.049 326.108 134.869 326.254 134.719C326.404 134.573 326.584 134.5 326.794 134.5C327.008 134.5 327.188 134.573 327.334 134.719C327.48 134.869 327.553 135.049 327.553 135.259Z" fill="black"/>
<path d="M327.553 138.759C327.553 138.973 327.478 139.153 327.327 139.299C327.181 139.445 327.004 139.518 326.794 139.518C326.584 139.518 326.404 139.442 326.254 139.292C326.108 139.146 326.035 138.968 326.035 138.759C326.035 138.549 326.108 138.369 326.254 138.219C326.404 138.073 326.584 138 326.794 138C327.008 138 327.188 138.073 327.334 138.219C327.48 138.369 327.553 138.549 327.553 138.759Z" fill="black"/>
<path d="M345.794 110C346.008 110 346.188 110.075 346.334 110.226C346.48 110.371 346.553 110.549 346.553 110.759C346.553 110.968 346.478 111.148 346.327 111.299C346.181 111.445 346.004 111.518 345.794 111.518C345.584 111.518 345.404 111.445 345.254 111.299C345.108 111.148 345.035 110.968 345.035 110.759C345.035 110.545 345.108 110.365 345.254 110.219C345.404 110.073 345.584 110 345.794 110Z" fill="black"/>
<path d="M349.294 110C349.508 110 349.688 110.075 349.834 110.226C349.98 110.371 350.053 110.549 350.053 110.759C350.053 110.968 349.978 111.148 349.827 111.299C349.681 111.445 349.504 111.518 349.294 111.518C349.084 111.518 348.904 111.445 348.754 111.299C348.608 111.148 348.535 110.968 348.535 110.759C348.535 110.545 348.608 110.365 348.754 110.219C348.904 110.073 349.084 110 349.294 110Z" fill="black"/>
<path d="M352.794 110C353.008 110 353.188 110.075 353.334 110.226C353.48 110.371 353.553 110.549 353.553 110.759C353.553 110.968 353.478 111.148 353.327 111.299C353.181 111.445 353.004 111.518 352.794 111.518C352.584 111.518 352.404 111.445 352.254 111.299C352.108 111.148 352.035 110.968 352.035 110.759C352.035 110.545 352.108 110.365 352.254 110.219C352.404 110.073 352.584 110 352.794 110Z" fill="black"/>
<path d="M346.645 131.537C346.796 131.688 346.87 131.868 346.867 132.078C346.867 132.284 346.793 132.461 346.645 132.61C346.497 132.758 346.316 132.832 346.103 132.832C345.897 132.832 345.72 132.758 345.572 132.61C345.423 132.461 345.348 132.283 345.345 132.073C345.348 131.864 345.423 131.685 345.572 131.537C345.723 131.385 345.902 131.309 346.108 131.309C346.318 131.313 346.497 131.388 346.645 131.537Z" fill="black"/>
<path d="M349.12 134.011C349.271 134.163 349.345 134.343 349.342 134.553C349.342 134.759 349.268 134.936 349.12 135.085C348.971 135.233 348.791 135.307 348.578 135.307C348.372 135.307 348.195 135.233 348.047 135.085C347.898 134.936 347.823 134.757 347.819 134.548C347.823 134.339 347.898 134.16 348.047 134.011C348.198 133.86 348.377 133.784 348.583 133.784C348.793 133.787 348.971 133.863 349.12 134.011Z" fill="black"/>
<path d="M351.595 136.486C351.746 136.638 351.82 136.818 351.817 137.028C351.817 137.234 351.743 137.411 351.595 137.559C351.446 137.708 351.266 137.782 351.053 137.782C350.847 137.782 350.67 137.708 350.521 137.559C350.373 137.411 350.297 137.232 350.294 137.023C350.297 136.813 350.373 136.635 350.521 136.486C350.673 136.335 350.852 136.259 351.058 136.259C351.267 136.262 351.446 136.338 351.595 136.486Z" fill="black"/>
<line x1="367.535" y1="154" x2="367.535" y2="103" stroke="#6E848A"/>
<circle cx="376.035" cy="128.5" r="3.5" stroke="#6E848A"/>
<line x1="376.035" y1="132.167" x2="376.035" y2="124.833" stroke="#6E848A"/>
<line x1="372.535" y1="128.5" x2="379.868" y2="128.5" stroke="#6E848A"/>
<circle cx="388.035" cy="128.5" r="4" fill="#FF5F33"/>
<rect x="396.035" y="120.5" width="8" height="16" fill="#3D494C"/>
<circle cx="200.5" cy="84.2412" r="3.5" stroke="#6E848A"/>
<line x1="197.996" y1="81.602" x2="203.139" y2="86.7448" stroke="#6E848A"/>
<line x1="197.861" y1="86.7448" x2="203.004" y2="81.6019" stroke="#6E848A"/>
<line x1="177" y1="57.7412" x2="295" y2="57.7412" stroke="#6E848A"/>
<line x1="349" y1="57.7412" x2="387" y2="57.7412" stroke="#6E848A"/>
<line x1="333.5" y1="57.7412" x2="341.5" y2="57.7412" stroke="#6E848A"/>
<line x1="318.5" y1="57.7412" x2="326.5" y2="57.7412" stroke="#6E848A"/>
<line x1="308.38" y1="39.7412" x2="319.38" y2="39.7412" stroke="#6E848A"/>
<line x1="308.38" y1="51.7412" x2="319.38" y2="51.7412" stroke="#6E848A"/>
<line x1="308.38" y1="76.7412" x2="319.38" y2="76.7412" stroke="#6E848A"/>
<line x1="294" y1="39.7412" x2="305" y2="39.7412" stroke="#6E848A"/>
<line x1="294" y1="51.7412" x2="305" y2="51.7412" stroke="#6E848A"/>
<line x1="294" y1="76.7412" x2="305" y2="76.7412" stroke="#6E848A"/>
<line x1="386.375" y1="39.7412" x2="397.375" y2="39.7412" stroke="#6E848A"/>
<line x1="386.375" y1="51.7412" x2="397.375" y2="51.7412" stroke="#6E848A"/>
<line x1="386.375" y1="76.7412" x2="397.375" y2="76.7412" stroke="#6E848A"/>
<line x1="345.5" y1="54.7412" x2="345.5" y2="31.7412" stroke="#6E848A"/>
<line x1="260" y1="32.2412" x2="346" y2="32.2412" stroke="#6E848A"/>
<line x1="260.5" y1="57.7412" x2="260.5" y2="32.7412" stroke="#6E848A"/>
<line x1="291" y1="72.7412" x2="295" y2="72.7412" stroke="#6E848A"/>
<line x1="292" y1="84.7412" x2="259" y2="84.7412" stroke="#6E848A"/>
<line x1="259.5" y1="85.2412" x2="259.5" y2="103.241" stroke="#6E848A"/>
<line x1="291.5" y1="85.2412" x2="291.5" y2="73.2412" stroke="#6E848A"/>
<line x1="383" y1="72.7412" x2="387" y2="72.7412" stroke="#6E848A"/>
<line x1="384" y1="84.7412" x2="344" y2="84.7412" stroke="#6E848A"/>
<line x1="344.5" y1="85.2412" x2="344.5" y2="102.241" stroke="#6E848A"/>
<line x1="383.5" y1="85.2412" x2="383.5" y2="73.2412" stroke="#6E848A"/>
<line x1="275.154" y1="84.3877" x2="277.154" y2="86.3877" stroke="#6E848A"/>
<line x1="275.146" y1="85.0877" x2="277.146" y2="83.0877" stroke="#6E848A"/>
<line x1="365.154" y1="84.3877" x2="367.154" y2="86.3877" stroke="#6E848A"/>
<line x1="365.146" y1="85.0877" x2="367.146" y2="83.0877" stroke="#6E848A"/>
<rect x="174" y="46" width="8" height="24" fill="#9DB4BB"/>
<rect x="189" y="44" width="8" height="28" fill="#E0392D"/>
<circle cx="208" cy="58" r="4" fill="#FF5F33"/>
<rect x="219" y="44" width="8" height="28" fill="#E0392D"/>
<circle cx="238" cy="58" r="4" fill="#FF5F33"/>
<rect x="249" y="44" width="8" height="28" fill="#E0392D"/>
<circle cx="268" cy="58" r="4" fill="#FF5F33"/>
<rect x="279" y="44" width="8" height="28" fill="#E0392D"/>
<line x1="294.5" y1="39.5" x2="294.5" y2="76.5" stroke="#6E848A"/>
<rect x="301" y="35.7412" width="8" height="8" fill="#2CDBA1"/>
<rect x="301" y="47.7412" width="8" height="8" fill="#4DFFD2"/>
<path d="M305.759 60.5C305.759 60.7142 305.684 60.8942 305.533 61.04C305.387 61.1859 305.21 61.2588 305 61.2588C304.79 61.2588 304.61 61.1836 304.46 61.0332C304.314 60.8874 304.241 60.7096 304.241 60.5C304.241 60.2904 304.314 60.1104 304.46 59.96C304.61 59.8141 304.79 59.7412 305 59.7412C305.214 59.7412 305.394 59.8141 305.54 59.96C305.686 60.1104 305.759 60.2904 305.759 60.5Z" fill="black"/>
<path d="M305.759 64C305.759 64.2142 305.684 64.3942 305.533 64.54C305.387 64.6859 305.21 64.7588 305 64.7588C304.79 64.7588 304.61 64.6836 304.46 64.5332C304.314 64.3874 304.241 64.2096 304.241 64C304.241 63.7904 304.314 63.6104 304.46 63.46C304.61 63.3141 304.79 63.2412 305 63.2412C305.214 63.2412 305.394 63.3141 305.54 63.46C305.686 63.6104 305.759 63.7904 305.759 64Z" fill="black"/>
<path d="M305.759 67.5C305.759 67.7142 305.684 67.8942 305.533 68.04C305.387 68.1859 305.21 68.2588 305 68.2588C304.79 68.2588 304.61 68.1836 304.46 68.0332C304.314 67.8874 304.241 67.7096 304.241 67.5C304.241 67.2904 304.314 67.1104 304.46 66.96C304.61 66.8141 304.79 66.7412 305 66.7412C305.214 66.7412 305.394 66.8141 305.54 66.96C305.686 67.1104 305.759 67.2904 305.759 67.5Z" fill="black"/>
<rect x="301" y="72.2588" width="8" height="8" fill="#24B27E"/>
<text fill="black" xml:space="preserve" style="white-space: pre" font-family="Times New Roman" font-size="6" letter-spacing="0em"><tspan x="307" y="65.2656">K</tspan></text>
<path d="M312.375 62.3589L312.236 62.7412H311.064V62.687C311.409 62.3726 311.652 62.1157 311.792 61.9165C311.933 61.7173 312.003 61.5352 312.003 61.3701C312.003 61.2441 311.965 61.1406 311.888 61.0596C311.811 60.9785 311.718 60.938 311.611 60.938C311.513 60.938 311.425 60.9668 311.347 61.0244C311.27 61.0811 311.213 61.1646 311.176 61.2749H311.122C311.146 61.0942 311.208 60.9556 311.309 60.8589C311.411 60.7622 311.537 60.7139 311.688 60.7139C311.85 60.7139 311.984 60.7656 312.091 60.8691C312.2 60.9727 312.254 61.0947 312.254 61.2354C312.254 61.3359 312.23 61.4365 312.184 61.5371C312.111 61.6953 311.994 61.8628 311.832 62.0396C311.589 62.3052 311.437 62.4653 311.376 62.52H311.895C312 62.52 312.074 62.5161 312.116 62.5083C312.159 62.5005 312.198 62.4849 312.232 62.4614C312.266 62.437 312.296 62.4028 312.321 62.3589H312.375Z" fill="black"/>
<line x1="318.875" y1="76.5" x2="318.875" y2="39.5" stroke="#6E848A"/>
<rect x="326.375" y="44" width="8" height="28" fill="#E0392D"/>
<circle cx="345.375" cy="58" r="3.5" stroke="#6E848A"/>
<line x1="342.872" y1="55.3607" x2="348.015" y2="60.5036" stroke="#6E848A"/>
<line x1="342.736" y1="60.5036" x2="347.879" y2="55.3607" stroke="#6E848A"/>
<circle cx="360.375" cy="58" r="4" fill="#FF5F33"/>
<rect x="371.375" y="44" width="8" height="28" fill="#E0392D"/>
<line x1="386.875" y1="39.5" x2="386.875" y2="76.5" stroke="#6E848A"/>
<rect x="393.375" y="35.7412" width="8" height="8" fill="#1A8059"/>
<rect x="393.375" y="47.7412" width="8" height="8" fill="#2CDBA1"/>
<path d="M398.134 60.5C398.134 60.7142 398.059 60.8942 397.909 61.04C397.763 61.1859 397.585 61.2588 397.375 61.2588C397.166 61.2588 396.986 61.1836 396.835 61.0332C396.69 60.8874 396.617 60.7096 396.617 60.5C396.617 60.2904 396.69 60.1104 396.835 59.96C396.986 59.8141 397.166 59.7412 397.375 59.7412C397.59 59.7412 397.77 59.8141 397.916 59.96C398.061 60.1104 398.134 60.2904 398.134 60.5Z" fill="black"/>
<path d="M398.134 64C398.134 64.2142 398.059 64.3942 397.909 64.54C397.763 64.6859 397.585 64.7588 397.375 64.7588C397.166 64.7588 396.986 64.6836 396.835 64.5332C396.69 64.3874 396.617 64.2096 396.617 64C396.617 63.7904 396.69 63.6104 396.835 63.46C396.986 63.3141 397.166 63.2412 397.375 63.2412C397.59 63.2412 397.77 63.3141 397.916 63.46C398.061 63.6104 398.134 63.7904 398.134 64Z" fill="black"/>
<path d="M398.134 67.5C398.134 67.7142 398.059 67.8942 397.909 68.04C397.763 68.1859 397.585 68.2588 397.375 68.2588C397.166 68.2588 396.986 68.1836 396.835 68.0332C396.69 67.8874 396.617 67.7096 396.617 67.5C396.617 67.2904 396.69 67.1104 396.835 66.96C396.986 66.8141 397.166 66.7412 397.375 66.7412C397.59 66.7412 397.77 66.8141 397.916 66.96C398.061 67.1104 398.134 67.2904 398.134 67.5Z" fill="black"/>
<rect x="393.375" y="72.2588" width="8" height="8" fill="#4DFFD2"/>
<text fill="black" xml:space="preserve" style="white-space: pre" font-family="Times New Roman" font-size="6" letter-spacing="0em"><tspan x="399.375" y="65.2656">K</tspan></text>
<path d="M404.751 62.3589L404.612 62.7412H403.44V62.687C403.785 62.3726 404.027 62.1157 404.168 61.9165C404.309 61.7173 404.379 61.5352 404.379 61.3701C404.379 61.2441 404.34 61.1406 404.263 61.0596C404.186 60.9785 404.094 60.938 403.986 60.938C403.889 60.938 403.801 60.9668 403.723 61.0244C403.646 61.0811 403.588 61.1646 403.551 61.2749H403.497C403.521 61.0942 403.584 60.9556 403.685 60.8589C403.786 60.7622 403.913 60.7139 404.064 60.7139C404.225 60.7139 404.359 60.7656 404.467 60.8691C404.575 60.9727 404.629 61.0947 404.629 61.2354C404.629 61.3359 404.606 61.4365 404.559 61.5371C404.487 61.6953 404.37 61.8628 404.208 62.0396C403.964 62.3052 403.812 62.4653 403.752 62.52H404.271C404.376 62.52 404.45 62.5161 404.492 62.5083C404.535 62.5005 404.573 62.4849 404.607 62.4614C404.642 62.437 404.671 62.4028 404.697 62.3589H404.751Z" fill="black"/>
<text fill="black" xml:space="preserve" style="white-space: pre" font-family="Times New Roman" font-size="16" letter-spacing="0em"><tspan x="152" y="37.6396">b)</tspan></text>
<line x1="635.751" y1="110.501" x2="641.751" y2="110.501" stroke="#6E848A"/>
<line x1="646.751" y1="110.501" x2="652.751" y2="110.501" stroke="#6E848A"/>
<line x1="616.751" y1="141.241" x2="607.751" y2="141.241" stroke="#6E848A"/>
<line x1="616.751" y1="105.241" x2="607.751" y2="105.241" stroke="#6E848A"/>
<line x1="616.751" y1="80.2412" x2="607.751" y2="80.2412" stroke="#6E848A"/>
<line x1="636.751" y1="86.2412" x2="631.751" y2="86.2412" stroke="#6E848A"/>
<line x1="636.751" y1="110.241" x2="631.751" y2="110.241" stroke="#6E848A"/>
<line x1="636.751" y1="146.741" x2="631.751" y2="146.741" stroke="#6E848A"/>
<line x1="602.751" y1="110.501" x2="608.751" y2="110.501" stroke="#6E848A"/>
<line x1="579.751" y1="110.501" x2="585.751" y2="110.501" stroke="#6E848A"/>
<line x1="590.751" y1="110.501" x2="596.751" y2="110.501" stroke="#6E848A"/>
<line x1="560.751" y1="141.241" x2="551.751" y2="141.241" stroke="#6E848A"/>
<line x1="560.751" y1="105.241" x2="551.751" y2="105.241" stroke="#6E848A"/>
<line x1="560.751" y1="80.2412" x2="551.751" y2="80.2412" stroke="#6E848A"/>
<line x1="580.751" y1="86.2412" x2="575.751" y2="86.2412" stroke="#6E848A"/>
<line x1="580.751" y1="110.241" x2="575.751" y2="110.241" stroke="#6E848A"/>
<line x1="580.751" y1="146.741" x2="575.751" y2="146.741" stroke="#6E848A"/>
<line x1="545.751" y1="110.501" x2="551.751" y2="110.501" stroke="#6E848A"/>
<line x1="523.751" y1="110.501" x2="529.751" y2="110.501" stroke="#6E848A"/>
<line x1="534.751" y1="110.501" x2="540.751" y2="110.501" stroke="#6E848A"/>
<line x1="504.751" y1="141.241" x2="495.751" y2="141.241" stroke="#6E848A"/>
<line x1="504.751" y1="105.241" x2="495.751" y2="105.241" stroke="#6E848A"/>
<line x1="504.751" y1="80.2412" x2="495.751" y2="80.2412" stroke="#6E848A"/>
<line x1="524.751" y1="86.2412" x2="519.751" y2="86.2412" stroke="#6E848A"/>
<line x1="524.751" y1="110.241" x2="519.751" y2="110.241" stroke="#6E848A"/>
<line x1="524.751" y1="146.741" x2="519.751" y2="146.741" stroke="#6E848A"/>
<line x1="489.751" y1="110.501" x2="495.751" y2="110.501" stroke="#6E848A"/>
<line x1="478.751" y1="110.501" x2="484.751" y2="110.501" stroke="#6E848A"/>
<line x1="467.751" y1="110.501" x2="473.751" y2="110.501" stroke="#6E848A"/>
<line x1="448.751" y1="141.241" x2="439.751" y2="141.241" stroke="#6E848A"/>
<line x1="448.751" y1="105.241" x2="439.751" y2="105.241" stroke="#6E848A"/>
<line x1="448.751" y1="80.2412" x2="439.751" y2="80.2412" stroke="#6E848A"/>
<line x1="468.751" y1="86.2412" x2="463.751" y2="86.2412" stroke="#6E848A"/>
<line x1="468.751" y1="110.241" x2="463.751" y2="110.241" stroke="#6E848A"/>
<line x1="468.751" y1="146.741" x2="463.751" y2="146.741" stroke="#6E848A"/>
<line x1="431.751" y1="110.341" x2="440.751" y2="110.341" stroke="#6E848A"/>
<rect x="428.751" y="98.5" width="8" height="24" fill="#546569"/>
<line x1="440.251" y1="141" x2="440.251" y2="80" stroke="#6E848A"/>
<circle cx="460.751" cy="86.2412" r="3.5" stroke="#6E848A"/>
<line x1="458.247" y1="83.602" x2="463.39" y2="88.7448" stroke="#6E848A"/>
<line x1="458.112" y1="88.7448" x2="463.255" y2="83.6019" stroke="#6E848A"/>
<line x1="447.751" y1="86.2412" x2="457.751" y2="86.2412" stroke="#6E848A"/>
<rect x="444.751" y="70.2412" width="8" height="20" fill="#E0392D"/>
<line x1="460.751" y1="83.2412" x2="460.751" y2="77.2412" stroke="#6E848A"/>
<rect x="456.751" y="70.2412" width="8" height="8" fill="#2CDBA1"/>
<circle cx="460.751" cy="110.241" r="3.5" stroke="#6E848A"/>
<line x1="458.247" y1="107.602" x2="463.39" y2="112.745" stroke="#6E848A"/>
<line x1="458.112" y1="112.745" x2="463.255" y2="107.602" stroke="#6E848A"/>
<line x1="447.751" y1="110.241" x2="457.751" y2="110.241" stroke="#6E848A"/>
<rect x="444.751" y="94.2412" width="8" height="20" fill="#E0392D"/>
<line x1="460.751" y1="107.241" x2="460.751" y2="101.241" stroke="#6E848A"/>
<rect x="456.751" y="94.2412" width="8" height="8" fill="#2CDBA1"/>
<path d="M449.769 119C449.769 119.214 449.693 119.394 449.543 119.54C449.397 119.686 449.219 119.759 449.01 119.759C448.8 119.759 448.62 119.684 448.47 119.533C448.324 119.387 448.251 119.21 448.251 119C448.251 118.79 448.324 118.61 448.47 118.46C448.62 118.314 448.8 118.241 449.01 118.241C449.224 118.241 449.404 118.314 449.55 118.46C449.696 118.61 449.769 118.79 449.769 119Z" fill="black"/>
<path d="M449.769 122.5C449.769 122.714 449.693 122.894 449.543 123.04C449.397 123.186 449.219 123.259 449.01 123.259C448.8 123.259 448.62 123.184 448.47 123.033C448.324 122.887 448.251 122.71 448.251 122.5C448.251 122.29 448.324 122.11 448.47 121.96C448.62 121.814 448.8 121.741 449.01 121.741C449.224 121.741 449.404 121.814 449.55 121.96C449.696 122.11 449.769 122.29 449.769 122.5Z" fill="black"/>
<path d="M449.769 126C449.769 126.214 449.693 126.394 449.543 126.54C449.397 126.686 449.219 126.759 449.01 126.759C448.8 126.759 448.62 126.684 448.47 126.533C448.324 126.387 448.251 126.21 448.251 126C448.251 125.79 448.324 125.61 448.47 125.46C448.62 125.314 448.8 125.241 449.01 125.241C449.224 125.241 449.404 125.314 449.55 125.46C449.696 125.61 449.769 125.79 449.769 126Z" fill="black"/>
<text fill="black" xml:space="preserve" style="white-space: pre" font-family="Times New Roman" font-size="6" letter-spacing="0em"><tspan x="451.769" y="123.766">K</tspan></text>
<circle cx="460.751" cy="146.759" r="3.5" stroke="#6E848A"/>
<line x1="458.247" y1="144.12" x2="463.39" y2="149.262" stroke="#6E848A"/>
<line x1="458.112" y1="149.262" x2="463.255" y2="144.12" stroke="#6E848A"/>
<line x1="447.751" y1="146.759" x2="457.751" y2="146.759" stroke="#6E848A"/>
<rect x="444.751" y="130.759" width="8" height="20" fill="#E0392D"/>
<line x1="460.751" y1="143.759" x2="460.751" y2="137.759" stroke="#6E848A"/>
<rect x="456.751" y="130.759" width="8" height="8" fill="#2CDBA1"/>
<line x1="468.251" y1="147" x2="468.251" y2="86" stroke="#6E848A"/>
<circle cx="476.751" cy="110.5" r="3.5" stroke="#6E848A"/>
<line x1="476.751" y1="114.167" x2="476.751" y2="106.833" stroke="#6E848A"/>
<line x1="473.251" y1="110.5" x2="480.584" y2="110.5" stroke="#6E848A"/>
<circle cx="488.751" cy="110.5" r="4" fill="#FF5F33"/>
<line x1="496.251" y1="141" x2="496.251" y2="80" stroke="#6E848A"/>
<circle cx="516.751" cy="86.2412" r="3.5" stroke="#6E848A"/>
<line x1="514.247" y1="83.602" x2="519.39" y2="88.7448" stroke="#6E848A"/>
<line x1="514.112" y1="88.7448" x2="519.255" y2="83.6019" stroke="#6E848A"/>
<line x1="503.751" y1="86.2412" x2="513.751" y2="86.2412" stroke="#6E848A"/>
<rect x="500.751" y="70.2412" width="8" height="20" fill="#E0392D"/>
<line x1="516.751" y1="83.2412" x2="516.751" y2="77.2412" stroke="#6E848A"/>
<rect x="512.751" y="70.2412" width="8" height="8" fill="#2CDBA1"/>
<circle cx="516.751" cy="110.241" r="3.5" stroke="#6E848A"/>
<line x1="514.247" y1="107.602" x2="519.39" y2="112.745" stroke="#6E848A"/>
<line x1="514.112" y1="112.745" x2="519.255" y2="107.602" stroke="#6E848A"/>
<line x1="503.751" y1="110.241" x2="513.751" y2="110.241" stroke="#6E848A"/>
<rect x="500.751" y="94.2412" width="8" height="20" fill="#E0392D"/>
<line x1="516.751" y1="107.241" x2="516.751" y2="101.241" stroke="#6E848A"/>
<rect x="512.751" y="94.2412" width="8" height="8" fill="#2CDBA1"/>
<path d="M505.769 119C505.769 119.214 505.693 119.394 505.543 119.54C505.397 119.686 505.219 119.759 505.01 119.759C504.8 119.759 504.62 119.684 504.47 119.533C504.324 119.387 504.251 119.21 504.251 119C504.251 118.79 504.324 118.61 504.47 118.46C504.62 118.314 504.8 118.241 505.01 118.241C505.224 118.241 505.404 118.314 505.55 118.46C505.696 118.61 505.769 118.79 505.769 119Z" fill="black"/>
<path d="M505.769 122.5C505.769 122.714 505.693 122.894 505.543 123.04C505.397 123.186 505.219 123.259 505.01 123.259C504.8 123.259 504.62 123.184 504.47 123.033C504.324 122.887 504.251 122.71 504.251 122.5C504.251 122.29 504.324 122.11 504.47 121.96C504.62 121.814 504.8 121.741 505.01 121.741C505.224 121.741 505.404 121.814 505.55 121.96C505.696 122.11 505.769 122.29 505.769 122.5Z" fill="black"/>
<path d="M505.769 126C505.769 126.214 505.693 126.394 505.543 126.54C505.397 126.686 505.219 126.759 505.01 126.759C504.8 126.759 504.62 126.684 504.47 126.533C504.324 126.387 504.251 126.21 504.251 126C504.251 125.79 504.324 125.61 504.47 125.46C504.62 125.314 504.8 125.241 505.01 125.241C505.224 125.241 505.404 125.314 505.55 125.46C505.696 125.61 505.769 125.79 505.769 126Z" fill="black"/>
<text fill="black" xml:space="preserve" style="white-space: pre" font-family="Times New Roman" font-size="6" letter-spacing="0em"><tspan x="507.769" y="123.766">K</tspan></text>
<circle cx="516.751" cy="146.759" r="3.5" stroke="#6E848A"/>
<line x1="514.247" y1="144.12" x2="519.39" y2="149.262" stroke="#6E848A"/>
<line x1="514.112" y1="149.262" x2="519.255" y2="144.12" stroke="#6E848A"/>
<line x1="503.751" y1="146.759" x2="513.751" y2="146.759" stroke="#6E848A"/>
<rect x="500.751" y="130.759" width="8" height="20" fill="#E0392D"/>
<line x1="516.751" y1="143.759" x2="516.751" y2="137.759" stroke="#6E848A"/>
<rect x="512.751" y="130.759" width="8" height="8" fill="#2CDBA1"/>
<line x1="524.251" y1="147" x2="524.251" y2="86" stroke="#6E848A"/>
<circle cx="532.751" cy="110.5" r="3.5" stroke="#6E848A"/>
<line x1="532.751" y1="114.167" x2="532.751" y2="106.833" stroke="#6E848A"/>
<line x1="529.251" y1="110.5" x2="536.584" y2="110.5" stroke="#6E848A"/>
<circle cx="544.751" cy="110.5" r="4" fill="#FF5F33"/>
<line x1="552.251" y1="141" x2="552.251" y2="80" stroke="#6E848A"/>
<circle cx="572.751" cy="86.2412" r="3.5" stroke="#6E848A"/>
<line x1="570.247" y1="83.602" x2="575.39" y2="88.7448" stroke="#6E848A"/>
<line x1="570.112" y1="88.7448" x2="575.255" y2="83.6019" stroke="#6E848A"/>
<line x1="559.751" y1="86.2412" x2="569.751" y2="86.2412" stroke="#6E848A"/>
<rect x="556.751" y="70.2412" width="8" height="20" fill="#E0392D"/>
<line x1="572.751" y1="83.2412" x2="572.751" y2="77.2412" stroke="#6E848A"/>
<rect x="568.751" y="70.2412" width="8" height="8" fill="#2CDBA1"/>
<circle cx="572.751" cy="110.241" r="3.5" stroke="#6E848A"/>
<line x1="570.247" y1="107.602" x2="575.39" y2="112.745" stroke="#6E848A"/>
<line x1="570.112" y1="112.745" x2="575.255" y2="107.602" stroke="#6E848A"/>
<line x1="559.751" y1="110.241" x2="569.751" y2="110.241" stroke="#6E848A"/>
<rect x="556.751" y="94.2412" width="8" height="20" fill="#E0392D"/>
<line x1="572.751" y1="107.241" x2="572.751" y2="101.241" stroke="#6E848A"/>
<rect x="568.751" y="94.2412" width="8" height="8" fill="#2CDBA1"/>
<path d="M561.769 119C561.769 119.214 561.693 119.394 561.543 119.54C561.397 119.686 561.219 119.759 561.01 119.759C560.8 119.759 560.62 119.684 560.47 119.533C560.324 119.387 560.251 119.21 560.251 119C560.251 118.79 560.324 118.61 560.47 118.46C560.62 118.314 560.8 118.241 561.01 118.241C561.224 118.241 561.404 118.314 561.55 118.46C561.696 118.61 561.769 118.79 561.769 119Z" fill="black"/>
<path d="M561.769 122.5C561.769 122.714 561.693 122.894 561.543 123.04C561.397 123.186 561.219 123.259 561.01 123.259C560.8 123.259 560.62 123.184 560.47 123.033C560.324 122.887 560.251 122.71 560.251 122.5C560.251 122.29 560.324 122.11 560.47 121.96C560.62 121.814 560.8 121.741 561.01 121.741C561.224 121.741 561.404 121.814 561.55 121.96C561.696 122.11 561.769 122.29 561.769 122.5Z" fill="black"/>
<path d="M561.769 126C561.769 126.214 561.693 126.394 561.543 126.54C561.397 126.686 561.219 126.759 561.01 126.759C560.8 126.759 560.62 126.684 560.47 126.533C560.324 126.387 560.251 126.21 560.251 126C560.251 125.79 560.324 125.61 560.47 125.46C560.62 125.314 560.8 125.241 561.01 125.241C561.224 125.241 561.404 125.314 561.55 125.46C561.696 125.61 561.769 125.79 561.769 126Z" fill="black"/>
<text fill="black" xml:space="preserve" style="white-space: pre" font-family="Times New Roman" font-size="6" letter-spacing="0em"><tspan x="563.769" y="123.766">K</tspan></text>
<circle cx="572.751" cy="146.759" r="3.5" stroke="#6E848A"/>
<line x1="570.247" y1="144.12" x2="575.39" y2="149.262" stroke="#6E848A"/>
<line x1="570.112" y1="149.262" x2="575.255" y2="144.12" stroke="#6E848A"/>
<line x1="559.751" y1="146.759" x2="569.751" y2="146.759" stroke="#6E848A"/>
<rect x="556.751" y="130.759" width="8" height="20" fill="#E0392D"/>
<line x1="572.751" y1="143.759" x2="572.751" y2="137.759" stroke="#6E848A"/>
<rect x="568.751" y="130.759" width="8" height="8" fill="#2CDBA1"/>
<line x1="580.251" y1="147" x2="580.251" y2="86" stroke="#6E848A"/>
<circle cx="588.751" cy="110.5" r="3.5" stroke="#6E848A"/>
<line x1="588.751" y1="114.167" x2="588.751" y2="106.833" stroke="#6E848A"/>
<line x1="585.251" y1="110.5" x2="592.584" y2="110.5" stroke="#6E848A"/>
<circle cx="600.751" cy="110.5" r="4" fill="#FF5F33"/>
<line x1="608.251" y1="141" x2="608.251" y2="80" stroke="#6E848A"/>
<circle cx="628.751" cy="86.2412" r="3.5" stroke="#6E848A"/>
<line x1="626.247" y1="83.602" x2="631.39" y2="88.7448" stroke="#6E848A"/>
<line x1="626.112" y1="88.7448" x2="631.255" y2="83.6019" stroke="#6E848A"/>
<line x1="615.751" y1="86.2412" x2="625.751" y2="86.2412" stroke="#6E848A"/>
<line x1="628.751" y1="83.2412" x2="628.751" y2="77.2412" stroke="#6E848A"/>
<rect x="624.751" y="70.2412" width="8" height="8" fill="#2CDBA1"/>
<rect x="612.751" y="74.2412" width="8" height="16" fill="#3D494C"/>
<circle cx="628.751" cy="110.241" r="3.5" stroke="#6E848A"/>
<line x1="626.247" y1="107.602" x2="631.39" y2="112.745" stroke="#6E848A"/>
<line x1="626.112" y1="112.745" x2="631.255" y2="107.602" stroke="#6E848A"/>
<line x1="615.751" y1="110.241" x2="625.751" y2="110.241" stroke="#6E848A"/>
<line x1="628.751" y1="107.241" x2="628.751" y2="101.241" stroke="#6E848A"/>
<rect x="624.751" y="94.2412" width="8" height="8" fill="#2CDBA1"/>
<rect x="612.751" y="98.2412" width="8" height="16" fill="#3D494C"/>
<path d="M617.769 119C617.769 119.214 617.693 119.394 617.543 119.54C617.397 119.686 617.219 119.759 617.01 119.759C616.8 119.759 616.62 119.684 616.47 119.533C616.324 119.387 616.251 119.21 616.251 119C616.251 118.79 616.324 118.61 616.47 118.46C616.62 118.314 616.8 118.241 617.01 118.241C617.224 118.241 617.404 118.314 617.55 118.46C617.696 118.61 617.769 118.79 617.769 119Z" fill="black"/>
<path d="M617.769 122.5C617.769 122.714 617.693 122.894 617.543 123.04C617.397 123.186 617.219 123.259 617.01 123.259C616.8 123.259 616.62 123.184 616.47 123.033C616.324 122.887 616.251 122.71 616.251 122.5C616.251 122.29 616.324 122.11 616.47 121.96C616.62 121.814 616.8 121.741 617.01 121.741C617.224 121.741 617.404 121.814 617.55 121.96C617.696 122.11 617.769 122.29 617.769 122.5Z" fill="black"/>
<path d="M617.769 126C617.769 126.214 617.693 126.394 617.543 126.54C617.397 126.686 617.219 126.759 617.01 126.759C616.8 126.759 616.62 126.684 616.47 126.533C616.324 126.387 616.251 126.21 616.251 126C616.251 125.79 616.324 125.61 616.47 125.46C616.62 125.314 616.8 125.241 617.01 125.241C617.224 125.241 617.404 125.314 617.55 125.46C617.696 125.61 617.769 125.79 617.769 126Z" fill="black"/>
<text fill="black" xml:space="preserve" style="white-space: pre" font-family="Times New Roman" font-size="6" letter-spacing="0em"><tspan x="619.769" y="123.766">K</tspan></text>
<circle cx="628.751" cy="146.759" r="3.5" stroke="#6E848A"/>
<line x1="626.247" y1="144.12" x2="631.39" y2="149.262" stroke="#6E848A"/>
<line x1="626.112" y1="149.262" x2="631.255" y2="144.12" stroke="#6E848A"/>
<line x1="615.751" y1="146.759" x2="625.751" y2="146.759" stroke="#6E848A"/>
<line x1="628.751" y1="143.759" x2="628.751" y2="137.759" stroke="#6E848A"/>
<rect x="624.751" y="130.759" width="8" height="8" fill="#2CDBA1"/>
<rect x="612.751" y="134.759" width="8" height="16" fill="#3D494C"/>
<line x1="636.251" y1="147" x2="636.251" y2="86" stroke="#6E848A"/>
<circle cx="644.751" cy="110.5" r="3.5" stroke="#6E848A"/>
<line x1="644.751" y1="114.167" x2="644.751" y2="106.833" stroke="#6E848A"/>
<line x1="641.251" y1="110.5" x2="648.584" y2="110.5" stroke="#6E848A"/>
<rect x="652.751" y="102.5" width="8" height="16" fill="#3D494C"/>
<line x1="480.751" y1="21.2412" x2="488.751" y2="21.2412" stroke="#6E848A"/>
<line x1="480.751" y1="33.2412" x2="488.751" y2="33.2412" stroke="#6E848A"/>
<line x1="480.751" y1="58.2412" x2="488.751" y2="58.2412" stroke="#6E848A"/>
<line x1="460.751" y1="39.7412" x2="480.751" y2="39.7412" stroke="#6E848A"/>
<text fill="black" xml:space="preserve" style="white-space: pre" font-family="Times New Roman" font-size="6" letter-spacing="0em"><tspan x="490.751" y="46.7656">K</tspan></text>
<rect x="456.751" y="27.5" width="8" height="24" fill="#9DB4BB"/>
<rect x="468.751" y="25.5" width="8" height="28" fill="#E0392D"/>
<line x1="481.251" y1="21" x2="481.251" y2="58" stroke="#6E848A"/>
<rect x="484.751" y="17.2412" width="8" height="8" fill="#2CDBA1"/>
<rect x="484.751" y="29.2412" width="8" height="8" fill="#2CDBA1"/>
<path d="M489.51 42C489.51 42.2142 489.435 42.3942 489.284 42.54C489.138 42.6859 488.961 42.7588 488.751 42.7588C488.541 42.7588 488.361 42.6836 488.211 42.5332C488.065 42.3874 487.992 42.2096 487.992 42C487.992 41.7904 488.065 41.6104 488.211 41.46C488.361 41.3141 488.541 41.2412 488.751 41.2412C488.965 41.2412 489.145 41.3141 489.291 41.46C489.437 41.6104 489.51 41.7904 489.51 42Z" fill="black"/>
<path d="M489.51 45.5C489.51 45.7142 489.435 45.8942 489.284 46.04C489.138 46.1859 488.961 46.2588 488.751 46.2588C488.541 46.2588 488.361 46.1836 488.211 46.0332C488.065 45.8874 487.992 45.7096 487.992 45.5C487.992 45.2904 488.065 45.1104 488.211 44.96C488.361 44.8141 488.541 44.7412 488.751 44.7412C488.965 44.7412 489.145 44.8141 489.291 44.96C489.437 45.1104 489.51 45.2904 489.51 45.5Z" fill="black"/>
<path d="M489.51 49C489.51 49.2142 489.435 49.3942 489.284 49.54C489.138 49.6859 488.961 49.7588 488.751 49.7588C488.541 49.7588 488.361 49.6836 488.211 49.5332C488.065 49.3874 487.992 49.2096 487.992 49C487.992 48.7904 488.065 48.6104 488.211 48.46C488.361 48.3141 488.541 48.2412 488.751 48.2412C488.965 48.2412 489.145 48.3141 489.291 48.46C489.437 48.6104 489.51 48.7904 489.51 49Z" fill="black"/>
<rect x="484.751" y="53.7588" width="8" height="8" fill="#2CDBA1"/>
<text fill="black" xml:space="preserve" style="white-space: pre" font-family="Times New Roman" font-size="16" letter-spacing="0em"><tspan x="429" y="37.6396">c)</tspan></text>
<text fill="black" xml:space="preserve" style="white-space: pre" font-family="Times New Roman" font-size="16" letter-spacing="0em"><tspan x="684.751" y="37.6396">d)</tspan></text>
<line x1="736.751" y1="9" x2="744.751" y2="9" stroke="#6E848A"/>
<line x1="736.751" y1="21" x2="744.751" y2="21" stroke="#6E848A"/>
<line x1="736.751" y1="46" x2="744.751" y2="46" stroke="#6E848A"/>
<line x1="716.751" y1="27.5" x2="736.751" y2="27.5" stroke="#6E848A"/>
<text fill="black" xml:space="preserve" style="white-space: pre" font-family="Times New Roman" font-size="6" letter-spacing="0em"><tspan x="746.751" y="34.5244">K</tspan></text>
<rect x="712.751" y="15.2588" width="8" height="24" fill="#9DB4BB"/>
<rect x="724.751" y="13.2588" width="8" height="28" fill="#E0392D"/>
<line x1="737.251" y1="8.75879" x2="737.251" y2="45.7588" stroke="#6E848A"/>
<rect x="740.751" y="5" width="8" height="8" fill="#2CDBA1"/>
<rect x="740.751" y="17" width="8" height="8" fill="#2CDBA1"/>
<path d="M745.51 29.7588C745.51 29.973 745.435 30.153 745.284 30.2988C745.138 30.4447 744.961 30.5176 744.751 30.5176C744.541 30.5176 744.361 30.4424 744.211 30.292C744.065 30.1462 743.992 29.9684 743.992 29.7588C743.992 29.5492 744.065 29.3691 744.211 29.2187C744.361 29.0729 744.541 29 744.751 29C744.965 29 745.145 29.0729 745.291 29.2187C745.437 29.3691 745.51 29.5492 745.51 29.7588Z" fill="black"/>
<path d="M745.51 33.2588C745.51 33.473 745.435 33.653 745.284 33.7988C745.138 33.9447 744.961 34.0176 744.751 34.0176C744.541 34.0176 744.361 33.9424 744.211 33.792C744.065 33.6462 743.992 33.4684 743.992 33.2588C743.992 33.0492 744.065 32.8691 744.211 32.7187C744.361 32.5729 744.541 32.5 744.751 32.5C744.965 32.5 745.145 32.5729 745.291 32.7187C745.437 32.8691 745.51 33.0492 745.51 33.2588Z" fill="black"/>
<path d="M745.51 36.7588C745.51 36.973 745.435 37.153 745.284 37.2988C745.138 37.4447 744.961 37.5176 744.751 37.5176C744.541 37.5176 744.361 37.4424 744.211 37.292C744.065 37.1462 743.992 36.9684 743.992 36.7588C743.992 36.5492 744.065 36.3691 744.211 36.2187C744.361 36.0729 744.541 36 744.751 36C744.965 36 745.145 36.0729 745.291 36.2187C745.437 36.3691 745.51 36.5492 745.51 36.7588Z" fill="black"/>
<rect x="740.751" y="41.5176" width="8" height="8" fill="#2CDBA1"/>
<line x1="841.751" y1="74.5" x2="832.751" y2="74.5" stroke="#6E848A"/>
<line x1="841.751" y1="95" x2="833.751" y2="95" stroke="#6E848A"/>
<line x1="841.751" y1="115" x2="833.751" y2="115" stroke="#6E848A"/>
<line x1="841.751" y1="147.5" x2="832.751" y2="147.5" stroke="#6E848A"/>
<line x1="831.751" y1="74.5" x2="823.751" y2="74.5" stroke="#6E848A"/>
<line x1="832.751" y1="95" x2="824.751" y2="95" stroke="#6E848A"/>
<line x1="832.751" y1="115" x2="824.751" y2="115" stroke="#6E848A"/>
<line x1="832.751" y1="147.5" x2="823.751" y2="147.5" stroke="#6E848A"/>
<text fill="black" xml:space="preserve" style="white-space: pre" font-family="Times New Roman" font-size="6" letter-spacing="0em"><tspan x="834.751" y="131.524">N</tspan></text>
<line x1="688.751" y1="111" x2="696.751" y2="111" stroke="#6E848A"/>
<line x1="791.751" y1="72.5" x2="796.751" y2="72.5" stroke="#6E848A"/>
<line x1="791.751" y1="104.25" x2="796.751" y2="104.25" stroke="#6E848A"/>
<line x1="791.751" y1="148.75" x2="796.751" y2="148.75" stroke="#6E848A"/>
<line x1="776.751" y1="72.5" x2="785.751" y2="72.5" stroke="#6E848A"/>
<line x1="776.751" y1="104.25" x2="785.751" y2="104.25" stroke="#6E848A"/>
<line x1="776.751" y1="148.75" x2="785.751" y2="148.75" stroke="#6E848A"/>
<line x1="765.751" y1="72.5" x2="774.751" y2="72.5" stroke="#6E848A"/>
<line x1="765.751" y1="104.25" x2="774.751" y2="104.25" stroke="#6E848A"/>
<line x1="765.751" y1="148.75" x2="774.751" y2="148.75" stroke="#6E848A"/>
<line x1="695.751" y1="72.5" x2="704.751" y2="72.5" stroke="#6E848A"/>
<line x1="695.751" y1="104.25" x2="704.751" y2="104.25" stroke="#6E848A"/>
<line x1="695.751" y1="148.75" x2="704.751" y2="148.75" stroke="#6E848A"/>
<text fill="black" xml:space="preserve" style="white-space: pre" font-family="Times New Roman" font-size="6" letter-spacing="0em"><tspan x="790.751" y="127.524">K</tspan></text>
<line x1="795.751" y1="110.5" x2="824.751" y2="110.5" stroke="#6E848A"/>
<line x1="840.751" y1="110.5" x2="845.751" y2="110.5" stroke="#6E848A"/>
<line x1="851.751" y1="110.5" x2="860.751" y2="110.5" stroke="#6E848A"/>
<rect x="684.751" y="98.5" width="8" height="24" fill="#546569"/>
<line x1="696.251" y1="149" x2="696.251" y2="72" stroke="#6E848A"/>
<line x1="704.751" y1="72.2412" x2="764.751" y2="72.2412" stroke="#6E848A"/>
<rect x="700.751" y="58.2412" width="8" height="28" fill="#E0392D"/>
<circle cx="716.751" cy="72.2412" r="4" fill="#FF5F33"/>
<rect x="724.751" y="58.2412" width="8" height="28" fill="#E0392D"/>
<circle cx="740.751" cy="72.2412" r="4" fill="#FF5F33"/>
<rect x="748.751" y="58.2412" width="8" height="28" fill="#E0392D"/>
<circle cx="764.751" cy="72.2412" r="4" fill="#FF5F33"/>
<line x1="704.751" y1="104.241" x2="764.751" y2="104.241" stroke="#6E848A"/>
<rect x="700.751" y="90.2412" width="8" height="28" fill="#E0392D"/>
<circle cx="716.751" cy="104.241" r="4" fill="#FF5F33"/>
<rect x="724.751" y="90.2412" width="8" height="28" fill="#E0392D"/>
<circle cx="740.751" cy="104.241" r="4" fill="#FF5F33"/>
<rect x="748.751" y="90.2412" width="8" height="28" fill="#E0392D"/>
<circle cx="764.751" cy="104.241" r="4" fill="#FF5F33"/>
<path d="M705.769 123C705.769 123.214 705.693 123.394 705.543 123.54C705.397 123.686 705.219 123.759 705.01 123.759C704.8 123.759 704.62 123.684 704.47 123.533C704.324 123.387 704.251 123.21 704.251 123C704.251 122.79 704.324 122.61 704.47 122.46C704.62 122.314 704.8 122.241 705.01 122.241C705.224 122.241 705.404 122.314 705.55 122.46C705.696 122.61 705.769 122.79 705.769 123Z" fill="black"/>
<path d="M705.769 126.5C705.769 126.714 705.693 126.894 705.543 127.04C705.397 127.186 705.219 127.259 705.01 127.259C704.8 127.259 704.62 127.184 704.47 127.033C704.324 126.887 704.251 126.71 704.251 126.5C704.251 126.29 704.324 126.11 704.47 125.96C704.62 125.814 704.8 125.741 705.01 125.741C705.224 125.741 705.404 125.814 705.55 125.96C705.696 126.11 705.769 126.29 705.769 126.5Z" fill="black"/>
<path d="M705.769 130C705.769 130.214 705.693 130.394 705.543 130.54C705.397 130.686 705.219 130.759 705.01 130.759C704.8 130.759 704.62 130.684 704.47 130.533C704.324 130.387 704.251 130.21 704.251 130C704.251 129.79 704.324 129.61 704.47 129.46C704.62 129.314 704.8 129.241 705.01 129.241C705.224 129.241 705.404 129.314 705.55 129.46C705.696 129.61 705.769 129.79 705.769 130Z" fill="black"/>
<text fill="black" xml:space="preserve" style="white-space: pre" font-family="Times New Roman" font-size="6" letter-spacing="0em"><tspan x="707.769" y="127.766">K</tspan></text>
<line x1="704.751" y1="148.759" x2="764.751" y2="148.759" stroke="#6E848A"/>
<rect x="700.751" y="134.759" width="8" height="28" fill="#E0392D"/>
<circle cx="716.751" cy="148.759" r="4" fill="#FF5F33"/>
<rect x="724.751" y="134.759" width="8" height="28" fill="#E0392D"/>
<circle cx="740.751" cy="148.759" r="4" fill="#FF5F33"/>
<rect x="748.751" y="134.759" width="8" height="28" fill="#E0392D"/>
<circle cx="764.751" cy="148.759" r="4" fill="#FF5F33"/>
<rect x="772.751" y="58" width="8" height="105" fill="#FF8F70"/>
<line x1="788.751" y1="146" x2="788.751" y2="139" stroke="#6E848A"/>
<circle cx="788.751" cy="149" r="3.5" stroke="#6E848A"/>
<line x1="786.247" y1="146.361" x2="791.39" y2="151.504" stroke="#6E848A"/>
<line x1="786.112" y1="151.504" x2="791.255" y2="146.361" stroke="#6E848A"/>
<rect x="784.751" y="135" width="8" height="8" fill="#2CDBA1"/>
<line x1="788.751" y1="101" x2="788.751" y2="94" stroke="#6E848A"/>
<circle cx="788.751" cy="104" r="3.5" stroke="#6E848A"/>
<line x1="786.247" y1="101.361" x2="791.39" y2="106.504" stroke="#6E848A"/>
<line x1="786.112" y1="106.504" x2="791.255" y2="101.361" stroke="#6E848A"/>
<rect x="784.751" y="90" width="8" height="8" fill="#2CDBA1"/>
<line x1="788.751" y1="69" x2="788.751" y2="62" stroke="#6E848A"/>
<rect x="784.751" y="58" width="8" height="8" fill="#2CDBA1"/>
<circle cx="788.751" cy="72" r="3.5" stroke="#6E848A"/>
<line x1="786.247" y1="69.3607" x2="791.39" y2="74.5036" stroke="#6E848A"/>
<line x1="786.112" y1="74.5036" x2="791.255" y2="69.3607" stroke="#6E848A"/>
<path d="M789.269 122.759C789.269 122.973 789.193 123.153 789.043 123.299C788.897 123.445 788.719 123.518 788.51 123.518C788.3 123.518 788.12 123.442 787.97 123.292C787.824 123.146 787.751 122.968 787.751 122.759C787.751 122.549 787.824 122.369 787.97 122.219C788.12 122.073 788.3 122 788.51 122C788.724 122 788.904 122.073 789.05 122.219C789.196 122.369 789.269 122.549 789.269 122.759Z" fill="black"/>
<path d="M789.269 126.259C789.269 126.473 789.193 126.653 789.043 126.799C788.897 126.945 788.719 127.018 788.51 127.018C788.3 127.018 788.12 126.942 787.97 126.792C787.824 126.646 787.751 126.468 787.751 126.259C787.751 126.049 787.824 125.869 787.97 125.719C788.12 125.573 788.3 125.5 788.51 125.5C788.724 125.5 788.904 125.573 789.05 125.719C789.196 125.869 789.269 126.049 789.269 126.259Z" fill="black"/>
<path d="M789.269 129.759C789.269 129.973 789.193 130.153 789.043 130.299C788.897 130.445 788.719 130.518 788.51 130.518C788.3 130.518 788.12 130.442 787.97 130.292C787.824 130.146 787.751 129.968 787.751 129.759C787.751 129.549 787.824 129.369 787.97 129.219C788.12 129.073 788.3 129 788.51 129C788.724 129 788.904 129.073 789.05 129.219C789.196 129.369 789.269 129.549 789.269 129.759Z" fill="black"/>
<line x1="796.251" y1="149" x2="796.251" y2="72" stroke="#6E848A"/>
<circle cx="804.751" cy="110.5" r="3.5" stroke="#6E848A"/>
<line x1="804.751" y1="114.167" x2="804.751" y2="106.833" stroke="#6E848A"/>
<line x1="801.251" y1="110.5" x2="808.584" y2="110.5" stroke="#6E848A"/>
<circle cx="816.751" cy="110.5" r="4" fill="#FF5F33"/>
<line x1="824.251" y1="147" x2="824.251" y2="74" stroke="#6E848A"/>
<rect x="828.751" y="66.2412" width="8" height="16" fill="#3D494C"/>
<rect x="828.751" y="86.2412" width="8" height="16" fill="#3D494C"/>
<rect x="828.751" y="106.241" width="8" height="16" fill="#3D494C"/>
<path d="M833.51 127C833.51 127.214 833.435 127.394 833.284 127.54C833.138 127.686 832.961 127.759 832.751 127.759C832.541 127.759 832.361 127.684 832.211 127.533C832.065 127.387 831.992 127.21 831.992 127C831.992 126.79 832.065 126.61 832.211 126.46C832.361 126.314 832.541 126.241 832.751 126.241C832.965 126.241 833.145 126.314 833.291 126.46C833.437 126.61 833.51 126.79 833.51 127Z" fill="black"/>
<path d="M833.51 130.5C833.51 130.714 833.435 130.894 833.284 131.04C833.138 131.186 832.961 131.259 832.751 131.259C832.541 131.259 832.361 131.184 832.211 131.033C832.065 130.887 831.992 130.71 831.992 130.5C831.992 130.29 832.065 130.11 832.211 129.96C832.361 129.814 832.541 129.741 832.751 129.741C832.965 129.741 833.145 129.814 833.291 129.96C833.437 130.11 833.51 130.29 833.51 130.5Z" fill="black"/>
<path d="M833.51 134C833.51 134.214 833.435 134.394 833.284 134.54C833.138 134.686 832.961 134.759 832.751 134.759C832.541 134.759 832.361 134.684 832.211 134.533C832.065 134.387 831.992 134.21 831.992 134C831.992 133.79 832.065 133.61 832.211 133.46C832.361 133.314 832.541 133.241 832.751 133.241C832.965 133.241 833.145 133.314 833.291 133.46C833.437 133.61 833.51 133.79 833.51 134Z" fill="black"/>
<rect x="828.751" y="138.759" width="8" height="16" fill="#3D494C"/>
<line x1="841.251" y1="74" x2="841.251" y2="147" stroke="#6E848A"/>
<circle cx="848.751" cy="110.5" r="3.5" stroke="#6E848A"/>
<line x1="846.247" y1="107.861" x2="851.39" y2="113.004" stroke="#6E848A"/>
<line x1="846.112" y1="113.004" x2="851.255" y2="107.861" stroke="#6E848A"/>
<rect x="856.751" y="102.5" width="8" height="16" fill="#3D494C"/>
<text fill="#FF8F70" xml:space="preserve" style="white-space: pre" font-family="Times New Roman" font-size="6" letter-spacing="0em"><tspan x="782.751" y="161.524">Orthogonalization</tspan></text>
<rect x="844.751" y="78.2412" width="8" height="24" fill="#9DB4BB"/>
<line x1="848.751" y1="107.241" x2="848.751" y2="101.241" stroke="#6E848A"/>
</g>
<defs>
<clipPath id="clip0_15_136">
<rect width="865" height="205" fill="white"/>
</clipPath>
</defs>
</svg>
