<svg width="879" height="210" viewBox="0 0 879 210" fill="none" xmlns="http://www.w3.org/2000/svg">
<g clip-path="url(#clip0_15_136)">
<rect width="879" height="210" fill="white"/>
<rect x="190" y="177.5" width="8" height="24" fill="#546569"/>
<text fill="#546569" xml:space="preserve" style="white-space: pre" font-family="Times New Roman" font-size="14" letter-spacing="0em"><tspan x="202" y="194.224">Observation</tspan></text>
<rect x="283" y="177.5" width="8" height="24" fill="#C2D2D6"/>
<text fill="#9DB4BB" xml:space="preserve" style="white-space: pre" font-family="Times New Roman" font-size="14" letter-spacing="0em"><tspan x="295" y="194.224">1-hot task ID</tspan></text>
<rect x="381" y="175.5" width="8" height="28" fill="#E0392D"/>
<text fill="#E0392D" xml:space="preserve" style="white-space: pre" font-family="Times New Roman" font-size="14" letter-spacing="0em"><tspan x="393" y="194.224">Dense layer</tspan></text>
<circle cx="476" cy="189.5" r="4" fill="#FF5F33"/>
<text fill="#FF5F33" xml:space="preserve" style="white-space: pre" font-family="Times New Roman" font-size="14" letter-spacing="0em"><tspan x="484" y="194.224">Non-linearity</tspan></text>
<rect x="572" y="185.5" width="8" height="8" fill="#2CDBA1"/>
<text fill="#2CDBA1" xml:space="preserve" style="white-space: pre" font-family="Times New Roman" font-size="14" letter-spacing="0em"><tspan x="584" y="194.224">Weight</tspan></text>
<rect x="638" y="181.5" width="8" height="16" fill="#3D494C"/>
<text fill="#3D494C" xml:space="preserve" style="white-space: pre" font-family="Times New Roman" font-size="14" letter-spacing="0em"><tspan x="650" y="194.224">Output</tspan></text>
<text fill="black" xml:space="preserve" style="white-space: pre" font-family="Times New Roman" font-size="6" letter-spacing="0em"><tspan x="106" y="121.857">N</tspan></text>
<line x1="124" y1="100.833" x2="129" y2="100.833" stroke="#C2D2D6"/>
<line x1="112" y1="100.833" x2="117" y2="100.833" stroke="#C2D2D6"/>
<line x1="120" y1="90.333" x2="120" y2="97.333" stroke="#C2D2D6"/>
<line x1="113" y1="63.833" x2="104" y2="63.833" stroke="#C2D2D6"/>
<line x1="113" y1="84.333" x2="105" y2="84.333" stroke="#C2D2D6"/>
<line x1="113" y1="104.333" x2="105" y2="104.333" stroke="#C2D2D6"/>
<line x1="113" y1="136.833" x2="104" y2="136.833" stroke="#C2D2D6"/>
<line x1="103" y1="63.833" x2="95" y2="63.833" stroke="#C2D2D6"/>
<line x1="104" y1="84.333" x2="96" y2="84.333" stroke="#C2D2D6"/>
<line x1="104" y1="104.333" x2="96" y2="104.333" stroke="#C2D2D6"/>
<line x1="104" y1="136.833" x2="95" y2="136.833" stroke="#C2D2D6"/>
<line x1="28" y1="100.833" x2="95" y2="100.833" stroke="#C2D2D6"/>
<line x1="13" y1="86.833" x2="21" y2="86.833" stroke="#C2D2D6"/>
<line x1="13" y1="114.833" x2="21" y2="114.833" stroke="#C2D2D6"/>
<line x1="21" y1="100.833" x2="29" y2="100.833" stroke="#C2D2D6"/>
<rect x="8" y="74.5918" width="8" height="24" fill="#C2D2D6"/>
<rect x="8" y="102.592" width="8" height="24" fill="#546569"/>
<line x1="20.5" y1="86.5918" x2="20.5" y2="114.592" stroke="#C2D2D6"/>
<rect x="24" y="68.5918" width="8" height="64" fill="#E0392D"/>
<circle cx="40" cy="100.592" r="4" fill="#FF5F33"/>
<rect x="48" y="68.5918" width="8" height="64" fill="#E0392D"/>
<circle cx="64" cy="100.592" r="4" fill="#FF5F33"/>
<rect x="72" y="68.5918" width="8" height="64" fill="#E0392D"/>
<circle cx="88" cy="100.592" r="4" fill="#FF5F33"/>
<line x1="95.5" y1="137.092" x2="95.5" y2="64.0918" stroke="#C2D2D6"/>
<rect x="100" y="56.333" width="8" height="16" fill="#3D494C"/>
<rect x="100" y="76.333" width="8" height="16" fill="#3D494C"/>
<rect x="100" y="96.333" width="8" height="16" fill="#3D494C"/>
<path d="M104.759 117.092C104.759 117.306 104.684 117.486 104.533 117.632C104.387 117.778 104.21 117.851 104 117.851C103.79 117.851 103.61 117.775 103.46 117.625C103.314 117.479 103.241 117.301 103.241 117.092C103.241 116.882 103.314 116.702 103.46 116.552C103.61 116.406 103.79 116.333 104 116.333C104.214 116.333 104.394 116.406 104.54 116.552C104.686 116.702 104.759 116.882 104.759 117.092Z" fill="black"/>
<path d="M104.759 120.592C104.759 120.806 104.684 120.986 104.533 121.132C104.387 121.278 104.21 121.351 104 121.351C103.79 121.351 103.61 121.275 103.46 121.125C103.314 120.979 103.241 120.801 103.241 120.592C103.241 120.382 103.314 120.202 103.46 120.052C103.61 119.906 103.79 119.833 104 119.833C104.214 119.833 104.394 119.906 104.54 120.052C104.686 120.202 104.759 120.382 104.759 120.592Z" fill="black"/>
<path d="M104.759 124.092C104.759 124.306 104.684 124.486 104.533 124.632C104.387 124.778 104.21 124.851 104 124.851C103.79 124.851 103.61 124.775 103.46 124.625C103.314 124.479 103.241 124.301 103.241 124.092C103.241 123.882 103.314 123.702 103.46 123.552C103.61 123.406 103.79 123.333 104 123.333C104.214 123.333 104.394 123.406 104.54 123.552C104.686 123.702 104.759 123.882 104.759 124.092Z" fill="black"/>
<rect x="100" y="128.851" width="8" height="16" fill="#3D494C"/>
<line x1="112.5" y1="64.0918" x2="112.5" y2="137.092" stroke="#C2D2D6"/>
<circle cx="120" cy="100.592" r="3.5" stroke="#C2D2D6"/>
<line x1="117.496" y1="97.9525" x2="122.639" y2="103.095" stroke="#C2D2D6"/>
<line x1="117.361" y1="103.095" x2="122.504" y2="97.9525" stroke="#C2D2D6"/>
<rect x="128" y="92.5918" width="8" height="16" fill="#3D494C"/>
<rect x="116" y="68.333" width="8" height="24" fill="#C2D2D6"/>
<text fill="black" xml:space="preserve" style="white-space: pre" font-family="Times New Roman" font-size="16" letter-spacing="0em"><tspan x="8" y="37.5479">a)</tspan></text>
<line x1="222" y1="98.2412" x2="230" y2="98.2412" stroke="#C2D2D6"/>
<line x1="222" y1="122.241" x2="230" y2="122.241" stroke="#C2D2D6"/>
<line x1="222" y1="159.241" x2="230" y2="159.241" stroke="#C2D2D6"/>
<line x1="234" y1="98.2412" x2="242" y2="98.2412" stroke="#C2D2D6"/>
<line x1="234" y1="122.241" x2="242" y2="122.241" stroke="#C2D2D6"/>
<line x1="234" y1="159.241" x2="242" y2="159.241" stroke="#C2D2D6"/>
<line x1="307" y1="98.2412" x2="315" y2="98.2412" stroke="#C2D2D6"/>
<line x1="307" y1="122.241" x2="315" y2="122.241" stroke="#C2D2D6"/>
<line x1="307" y1="159.241" x2="315" y2="159.241" stroke="#C2D2D6"/>
<line x1="319" y1="98.2412" x2="327" y2="98.2412" stroke="#C2D2D6"/>
<line x1="319" y1="122.241" x2="327" y2="122.241" stroke="#C2D2D6"/>
<line x1="319" y1="159.241" x2="327" y2="159.241" stroke="#C2D2D6"/>
<line x1="167" y1="128.741" x2="222" y2="128.741" stroke="#C2D2D6"/>
<line x1="208.5" y1="128.241" x2="208.5" y2="87.2412" stroke="#C2D2D6"/>
<line x1="208.5" y1="81.2412" x2="208.5" y2="57.2412" stroke="#C2D2D6"/>
<line x1="242" y1="103.016" x2="291" y2="103.016" stroke="#C2D2D6"/>
<line x1="242" y1="154.016" x2="291" y2="154.016" stroke="#C2D2D6"/>
<line x1="327" y1="102.741" x2="376" y2="102.741" stroke="#C2D2D6"/>
<line x1="327" y1="153.741" x2="376" y2="153.741" stroke="#C2D2D6"/>
<line x1="376" y1="128.741" x2="409" y2="128.741" stroke="#C2D2D6"/>
<text fill="#9DB4BB" xml:space="preserve" style="white-space: pre" font-family="Times New Roman" font-size="5" letter-spacing="0em"><tspan x="249.924" y="159.928">each next input is&#10;</tspan><tspan x="235.613" y="165.928">a weighted sum over all outputs</tspan></text>
<text fill="#9DB4BB" xml:space="preserve" style="white-space: pre" font-family="Times New Roman" font-size="5" letter-spacing="0em"><tspan x="335.924" y="159.928">each next input is&#10;</tspan><tspan x="321.613" y="165.928">a weighted sum over all outputs</tspan></text>
<line x1="292" y1="128.241" x2="307" y2="128.241" stroke="#C2D2D6"/>
<line x1="208.854" y1="105.495" x2="206.854" y2="107.495" stroke="#C2D2D6"/>
<line x1="208.154" y1="105.488" x2="210.154" y2="107.488" stroke="#C2D2D6"/>
<rect x="162" y="116.5" width="8" height="24" fill="#546569"/>
<rect x="174" y="114.5" width="8" height="28" fill="#E0392D"/>
<circle cx="190" cy="128.5" r="4" fill="#FF5F33"/>
<rect x="198" y="114.5" width="8" height="28" fill="#E0392D"/>
<circle cx="214" cy="128.5" r="4" fill="#FF5F33"/>
<line x1="222.5" y1="98" x2="222.5" y2="159" stroke="#C2D2D6"/>
<rect x="226" y="88.2412" width="8" height="20" fill="#E0392D"/>
<rect x="226" y="112.241" width="8" height="20" fill="#E0392D"/>
<path d="M231.018 137C231.018 137.214 230.942 137.394 230.792 137.54C230.646 137.686 230.468 137.759 230.259 137.759C230.049 137.759 229.869 137.684 229.719 137.533C229.573 137.387 229.5 137.21 229.5 137C229.5 136.79 229.573 136.61 229.719 136.46C229.869 136.314 230.049 136.241 230.259 136.241C230.473 136.241 230.653 136.314 230.799 136.46C230.945 136.61 231.018 136.79 231.018 137Z" fill="black"/>
<path d="M231.018 140.5C231.018 140.714 230.942 140.894 230.792 141.04C230.646 141.186 230.468 141.259 230.259 141.259C230.049 141.259 229.869 141.184 229.719 141.033C229.573 140.887 229.5 140.71 229.5 140.5C229.5 140.29 229.573 140.11 229.719 139.96C229.869 139.814 230.049 139.741 230.259 139.741C230.473 139.741 230.653 139.814 230.799 139.96C230.945 140.11 231.018 140.29 231.018 140.5Z" fill="black"/>
<path d="M231.018 144C231.018 144.214 230.942 144.394 230.792 144.54C230.646 144.686 230.468 144.759 230.259 144.759C230.049 144.759 229.869 144.684 229.719 144.533C229.573 144.387 229.5 144.21 229.5 144C229.5 143.79 229.573 143.61 229.719 143.46C229.869 143.314 230.049 143.241 230.259 143.241C230.473 143.241 230.653 143.314 230.799 143.46C230.945 143.61 231.018 143.79 231.018 144Z" fill="black"/>
<text fill="black" xml:space="preserve" style="white-space: pre" font-family="Times New Roman" font-size="6" letter-spacing="0em"><tspan x="233.018" y="141.766">K</tspan></text>
<rect x="226" y="148.759" width="8" height="20" fill="#E0392D"/>
<line x1="241.518" y1="159" x2="241.518" y2="98" stroke="#C2D2D6"/>
<rect x="246.018" y="107" width="8" height="8" fill="#2CDBA1"/>
<rect x="258.018" y="107" width="8" height="8" fill="#1A8059"/>
<rect x="246.018" y="119" width="8" height="8" fill="#24B27E"/>
<rect x="246.018" y="142" width="8" height="8" fill="#2CDBA1"/>
<rect x="279.018" y="107" width="8" height="8" fill="#4DFFD2"/>
<rect x="279.018" y="119" width="8" height="8" fill="#24B27E"/>
<rect x="279.018" y="142" width="8" height="8" fill="#2CDBA1"/>
<rect x="258.018" y="119" width="8" height="8" fill="#4DFFD2"/>
<text fill="black" xml:space="preserve" style="white-space: pre" font-family="Times New Roman" font-size="6" letter-spacing="0em"><tspan x="270.018" y="117.524">K</tspan></text>
<text fill="black" xml:space="preserve" style="white-space: pre" font-family="Times New Roman" font-size="6" letter-spacing="0em"><tspan x="253.018" y="136.524">K</tspan></text>
<path d="M250.535 131.759C250.535 131.973 250.46 132.153 250.31 132.299C250.164 132.445 249.986 132.518 249.776 132.518C249.567 132.518 249.387 132.442 249.236 132.292C249.09 132.146 249.018 131.968 249.018 131.759C249.018 131.549 249.09 131.369 249.236 131.219C249.387 131.073 249.567 131 249.776 131C249.991 131 250.171 131.073 250.316 131.219C250.462 131.369 250.535 131.549 250.535 131.759Z" fill="black"/>
<path d="M250.535 135.259C250.535 135.473 250.46 135.653 250.31 135.799C250.164 135.945 249.986 136.018 249.776 136.018C249.567 136.018 249.387 135.942 249.236 135.792C249.09 135.646 249.018 135.468 249.018 135.259C249.018 135.049 249.09 134.869 249.236 134.719C249.387 134.573 249.567 134.5 249.776 134.5C249.991 134.5 250.171 134.573 250.316 134.719C250.462 134.869 250.535 135.049 250.535 135.259Z" fill="black"/>
<path d="M250.535 138.759C250.535 138.973 250.46 139.153 250.31 139.299C250.164 139.445 249.986 139.518 249.776 139.518C249.567 139.518 249.387 139.442 249.236 139.292C249.09 139.146 249.018 138.968 249.018 138.759C249.018 138.549 249.09 138.369 249.236 138.219C249.387 138.073 249.567 138 249.776 138C249.991 138 250.171 138.073 250.316 138.219C250.462 138.369 250.535 138.549 250.535 138.759Z" fill="black"/>
<path d="M268.776 110C268.991 110 269.171 110.075 269.316 110.226C269.462 110.371 269.535 110.549 269.535 110.759C269.535 110.968 269.46 111.148 269.31 111.299C269.164 111.445 268.986 111.518 268.776 111.518C268.567 111.518 268.387 111.445 268.236 111.299C268.09 111.148 268.018 110.968 268.018 110.759C268.018 110.545 268.09 110.365 268.236 110.219C268.387 110.073 268.567 110 268.776 110Z" fill="black"/>
<path d="M272.276 110C272.491 110 272.671 110.075 272.816 110.226C272.962 110.371 273.035 110.549 273.035 110.759C273.035 110.968 272.96 111.148 272.81 111.299C272.664 111.445 272.486 111.518 272.276 111.518C272.067 111.518 271.887 111.445 271.736 111.299C271.59 111.148 271.518 110.968 271.518 110.759C271.518 110.545 271.59 110.365 271.736 110.219C271.887 110.073 272.067 110 272.276 110Z" fill="black"/>
<path d="M275.776 110C275.991 110 276.171 110.075 276.316 110.226C276.462 110.371 276.535 110.549 276.535 110.759C276.535 110.968 276.46 111.148 276.31 111.299C276.164 111.445 275.986 111.518 275.776 111.518C275.567 111.518 275.387 111.445 275.236 111.299C275.09 111.148 275.018 110.968 275.018 110.759C275.018 110.545 275.09 110.365 275.236 110.219C275.387 110.073 275.567 110 275.776 110Z" fill="black"/>
<path d="M269.627 131.537C269.779 131.688 269.853 131.868 269.85 132.078C269.85 132.284 269.775 132.461 269.627 132.61C269.479 132.758 269.299 132.832 269.086 132.832C268.88 132.832 268.702 132.758 268.554 132.61C268.406 132.461 268.33 132.283 268.327 132.073C268.33 131.864 268.406 131.685 268.554 131.537C268.706 131.385 268.884 131.309 269.091 131.309C269.3 131.313 269.479 131.388 269.627 131.537Z" fill="black"/>
<path d="M272.102 134.011C272.254 134.163 272.328 134.343 272.324 134.553C272.324 134.759 272.25 134.936 272.102 135.085C271.954 135.233 271.773 135.307 271.561 135.307C271.354 135.307 271.177 135.233 271.029 135.085C270.881 134.936 270.805 134.757 270.802 134.548C270.805 134.339 270.881 134.16 271.029 134.011C271.18 133.86 271.359 133.784 271.566 133.784C271.775 133.787 271.954 133.863 272.102 134.011Z" fill="black"/>
<path d="M274.577 136.486C274.728 136.638 274.803 136.818 274.799 137.028C274.799 137.234 274.725 137.411 274.577 137.559C274.429 137.708 274.248 137.782 274.036 137.782C273.829 137.782 273.652 137.708 273.504 137.559C273.356 137.411 273.28 137.232 273.277 137.023C273.28 136.813 273.356 136.635 273.504 136.486C273.655 136.335 273.834 136.259 274.04 136.259C274.25 136.262 274.429 136.338 274.577 136.486Z" fill="black"/>
<line x1="291.518" y1="102.5" x2="291.518" y2="154.5" stroke="#C2D2D6"/>
<circle cx="299.018" cy="128.5" r="4" fill="#FF5F33"/>
<line x1="307.518" y1="98" x2="307.518" y2="159" stroke="#C2D2D6"/>
<rect x="311.018" y="88.2412" width="8" height="20" fill="#E0392D"/>
<rect x="311.018" y="112.241" width="8" height="20" fill="#E0392D"/>
<path d="M316.035 137C316.035 137.214 315.96 137.394 315.81 137.54C315.664 137.686 315.486 137.759 315.276 137.759C315.067 137.759 314.887 137.684 314.736 137.533C314.59 137.387 314.518 137.21 314.518 137C314.518 136.79 314.59 136.61 314.736 136.46C314.887 136.314 315.067 136.241 315.276 136.241C315.491 136.241 315.671 136.314 315.816 136.46C315.962 136.61 316.035 136.79 316.035 137Z" fill="black"/>
<path d="M316.035 140.5C316.035 140.714 315.96 140.894 315.81 141.04C315.664 141.186 315.486 141.259 315.276 141.259C315.067 141.259 314.887 141.184 314.736 141.033C314.59 140.887 314.518 140.71 314.518 140.5C314.518 140.29 314.59 140.11 314.736 139.96C314.887 139.814 315.067 139.741 315.276 139.741C315.491 139.741 315.671 139.814 315.816 139.96C315.962 140.11 316.035 140.29 316.035 140.5Z" fill="black"/>
<path d="M316.035 144C316.035 144.214 315.96 144.394 315.81 144.54C315.664 144.686 315.486 144.759 315.276 144.759C315.067 144.759 314.887 144.684 314.736 144.533C314.59 144.387 314.518 144.21 314.518 144C314.518 143.79 314.59 143.61 314.736 143.46C314.887 143.314 315.067 143.241 315.276 143.241C315.491 143.241 315.671 143.314 315.816 143.46C315.962 143.61 316.035 143.79 316.035 144Z" fill="black"/>
<text fill="black" xml:space="preserve" style="white-space: pre" font-family="Times New Roman" font-size="6" letter-spacing="0em"><tspan x="318.035" y="141.766">K</tspan></text>
<rect x="311.018" y="148.759" width="8" height="20" fill="#E0392D"/>
<line x1="326.535" y1="159" x2="326.535" y2="98" stroke="#C2D2D6"/>
<rect x="331.035" y="107" width="8" height="8" fill="#1A8059"/>
<rect x="343.035" y="107" width="8" height="8" fill="#24B27E"/>
<rect x="331.035" y="119" width="8" height="8" fill="#4DFFD2"/>
<rect x="331.035" y="142" width="8" height="8" fill="#24B27E"/>
<rect x="364.035" y="107" width="8" height="8" fill="#2CDBA1"/>
<rect x="364.035" y="119" width="8" height="8" fill="#4DFFD2"/>
<rect x="364.035" y="142" width="8" height="8" fill="#2CDBA1"/>
<rect x="343.035" y="119" width="8" height="8" fill="#2CDBA1"/>
<text fill="black" xml:space="preserve" style="white-space: pre" font-family="Times New Roman" font-size="6" letter-spacing="0em"><tspan x="355.035" y="117.524">K</tspan></text>
<text fill="black" xml:space="preserve" style="white-space: pre" font-family="Times New Roman" font-size="6" letter-spacing="0em"><tspan x="338.035" y="136.524">K</tspan></text>
<path d="M335.553 131.759C335.553 131.973 335.478 132.153 335.327 132.299C335.181 132.445 335.004 132.518 334.794 132.518C334.584 132.518 334.404 132.442 334.254 132.292C334.108 132.146 334.035 131.968 334.035 131.759C334.035 131.549 334.108 131.369 334.254 131.219C334.404 131.073 334.584 131 334.794 131C335.008 131 335.188 131.073 335.334 131.219C335.48 131.369 335.553 131.549 335.553 131.759Z" fill="black"/>
<path d="M335.553 135.259C335.553 135.473 335.478 135.653 335.327 135.799C335.181 135.945 335.004 136.018 334.794 136.018C334.584 136.018 334.404 135.942 334.254 135.792C334.108 135.646 334.035 135.468 334.035 135.259C334.035 135.049 334.108 134.869 334.254 134.719C334.404 134.573 334.584 134.5 334.794 134.5C335.008 134.5 335.188 134.573 335.334 134.719C335.48 134.869 335.553 135.049 335.553 135.259Z" fill="black"/>
<path d="M335.553 138.759C335.553 138.973 335.478 139.153 335.327 139.299C335.181 139.445 335.004 139.518 334.794 139.518C334.584 139.518 334.404 139.442 334.254 139.292C334.108 139.146 334.035 138.968 334.035 138.759C334.035 138.549 334.108 138.369 334.254 138.219C334.404 138.073 334.584 138 334.794 138C335.008 138 335.188 138.073 335.334 138.219C335.48 138.369 335.553 138.549 335.553 138.759Z" fill="black"/>
<path d="M353.794 110C354.008 110 354.188 110.075 354.334 110.226C354.48 110.371 354.553 110.549 354.553 110.759C354.553 110.968 354.478 111.148 354.327 111.299C354.181 111.445 354.004 111.518 353.794 111.518C353.584 111.518 353.404 111.445 353.254 111.299C353.108 111.148 353.035 110.968 353.035 110.759C353.035 110.545 353.108 110.365 353.254 110.219C353.404 110.073 353.584 110 353.794 110Z" fill="black"/>
<path d="M357.294 110C357.508 110 357.688 110.075 357.834 110.226C357.98 110.371 358.053 110.549 358.053 110.759C358.053 110.968 357.978 111.148 357.827 111.299C357.681 111.445 357.504 111.518 357.294 111.518C357.084 111.518 356.904 111.445 356.754 111.299C356.608 111.148 356.535 110.968 356.535 110.759C356.535 110.545 356.608 110.365 356.754 110.219C356.904 110.073 357.084 110 357.294 110Z" fill="black"/>
<path d="M360.794 110C361.008 110 361.188 110.075 361.334 110.226C361.48 110.371 361.553 110.549 361.553 110.759C361.553 110.968 361.478 111.148 361.327 111.299C361.181 111.445 361.004 111.518 360.794 111.518C360.584 111.518 360.404 111.445 360.254 111.299C360.108 111.148 360.035 110.968 360.035 110.759C360.035 110.545 360.108 110.365 360.254 110.219C360.404 110.073 360.584 110 360.794 110Z" fill="black"/>
<path d="M354.645 131.537C354.796 131.688 354.87 131.868 354.867 132.078C354.867 132.284 354.793 132.461 354.645 132.61C354.497 132.758 354.316 132.832 354.103 132.832C353.897 132.832 353.72 132.758 353.572 132.61C353.423 132.461 353.348 132.283 353.345 132.073C353.348 131.864 353.423 131.685 353.572 131.537C353.723 131.385 353.902 131.309 354.108 131.309C354.318 131.313 354.497 131.388 354.645 131.537Z" fill="black"/>
<path d="M357.12 134.011C357.271 134.163 357.345 134.343 357.342 134.553C357.342 134.759 357.268 134.936 357.12 135.085C356.971 135.233 356.791 135.307 356.578 135.307C356.372 135.307 356.195 135.233 356.047 135.085C355.898 134.936 355.823 134.757 355.819 134.548C355.823 134.339 355.898 134.16 356.047 134.011C356.198 133.86 356.377 133.784 356.583 133.784C356.793 133.787 356.971 133.863 357.12 134.011Z" fill="black"/>
<path d="M359.595 136.486C359.746 136.638 359.82 136.818 359.817 137.028C359.817 137.234 359.743 137.411 359.595 137.559C359.446 137.708 359.266 137.782 359.053 137.782C358.847 137.782 358.67 137.708 358.521 137.559C358.373 137.411 358.297 137.232 358.294 137.023C358.297 136.813 358.373 136.635 358.521 136.486C358.673 136.335 358.852 136.259 359.058 136.259C359.267 136.262 359.446 136.338 359.595 136.486Z" fill="black"/>
<line x1="375.535" y1="154" x2="375.535" y2="103" stroke="#C2D2D6"/>
<circle cx="384.035" cy="128.5" r="3.5" stroke="#C2D2D6"/>
<line x1="384.035" y1="132.167" x2="384.035" y2="124.833" stroke="#C2D2D6"/>
<line x1="380.535" y1="128.5" x2="387.868" y2="128.5" stroke="#C2D2D6"/>
<circle cx="396.035" cy="128.5" r="4" fill="#FF5F33"/>
<rect x="404.035" y="120.5" width="8" height="16" fill="#3D494C"/>
<circle cx="208.5" cy="84.2412" r="3.5" stroke="#C2D2D6"/>
<line x1="205.996" y1="81.602" x2="211.139" y2="86.7448" stroke="#C2D2D6"/>
<line x1="205.861" y1="86.7448" x2="211.004" y2="81.6019" stroke="#C2D2D6"/>
<line x1="185" y1="57.7412" x2="303" y2="57.7412" stroke="#C2D2D6"/>
<line x1="357" y1="57.7412" x2="395" y2="57.7412" stroke="#C2D2D6"/>
<line x1="341.5" y1="57.7412" x2="349.5" y2="57.7412" stroke="#C2D2D6"/>
<line x1="326.5" y1="57.7412" x2="334.5" y2="57.7412" stroke="#C2D2D6"/>
<line x1="316.38" y1="39.7412" x2="327.38" y2="39.7412" stroke="#C2D2D6"/>
<line x1="316.38" y1="51.7412" x2="327.38" y2="51.7412" stroke="#C2D2D6"/>
<line x1="316.38" y1="76.7412" x2="327.38" y2="76.7412" stroke="#C2D2D6"/>
<line x1="302" y1="39.7412" x2="313" y2="39.7412" stroke="#C2D2D6"/>
<line x1="302" y1="51.7412" x2="313" y2="51.7412" stroke="#C2D2D6"/>
<line x1="302" y1="76.7412" x2="313" y2="76.7412" stroke="#C2D2D6"/>
<line x1="394.375" y1="39.7412" x2="405.375" y2="39.7412" stroke="#C2D2D6"/>
<line x1="394.375" y1="51.7412" x2="405.375" y2="51.7412" stroke="#C2D2D6"/>
<line x1="394.375" y1="76.7412" x2="405.375" y2="76.7412" stroke="#C2D2D6"/>
<line x1="353.5" y1="54.7412" x2="353.5" y2="31.7412" stroke="#C2D2D6"/>
<line x1="268" y1="32.2412" x2="354" y2="32.2412" stroke="#C2D2D6"/>
<line x1="268.5" y1="57.7412" x2="268.5" y2="32.7412" stroke="#C2D2D6"/>
<line x1="299" y1="72.7412" x2="303" y2="72.7412" stroke="#C2D2D6"/>
<line x1="300" y1="84.7412" x2="267" y2="84.7412" stroke="#C2D2D6"/>
<line x1="267.5" y1="85.2412" x2="267.5" y2="103.241" stroke="#C2D2D6"/>
<line x1="299.5" y1="85.2412" x2="299.5" y2="73.2412" stroke="#C2D2D6"/>
<line x1="391" y1="72.7412" x2="395" y2="72.7412" stroke="#C2D2D6"/>
<line x1="392" y1="84.7412" x2="352" y2="84.7412" stroke="#C2D2D6"/>
<line x1="352.5" y1="85.2412" x2="352.5" y2="102.241" stroke="#C2D2D6"/>
<line x1="391.5" y1="85.2412" x2="391.5" y2="73.2412" stroke="#C2D2D6"/>
<line x1="283.154" y1="84.3877" x2="285.154" y2="86.3877" stroke="#C2D2D6"/>
<line x1="283.146" y1="85.0877" x2="285.146" y2="83.0877" stroke="#C2D2D6"/>
<line x1="373.154" y1="84.3877" x2="375.154" y2="86.3877" stroke="#C2D2D6"/>
<line x1="373.146" y1="85.0877" x2="375.146" y2="83.0877" stroke="#C2D2D6"/>
<rect x="182" y="46" width="8" height="24" fill="#C2D2D6"/>
<rect x="197" y="44" width="8" height="28" fill="#E0392D"/>
<circle cx="216" cy="58" r="4" fill="#FF5F33"/>
<rect x="227" y="44" width="8" height="28" fill="#E0392D"/>
<circle cx="246" cy="58" r="4" fill="#FF5F33"/>
<rect x="257" y="44" width="8" height="28" fill="#E0392D"/>
<circle cx="276" cy="58" r="4" fill="#FF5F33"/>
<rect x="287" y="44" width="8" height="28" fill="#E0392D"/>
<line x1="302.5" y1="39.5" x2="302.5" y2="76.5" stroke="#C2D2D6"/>
<rect x="309" y="35.7412" width="8" height="8" fill="#2CDBA1"/>
<rect x="309" y="47.7412" width="8" height="8" fill="#4DFFD2"/>
<path d="M313.759 60.5C313.759 60.7142 313.684 60.8942 313.533 61.04C313.387 61.1859 313.21 61.2588 313 61.2588C312.79 61.2588 312.61 61.1836 312.46 61.0332C312.314 60.8874 312.241 60.7096 312.241 60.5C312.241 60.2904 312.314 60.1104 312.46 59.96C312.61 59.8141 312.79 59.7412 313 59.7412C313.214 59.7412 313.394 59.8141 313.54 59.96C313.686 60.1104 313.759 60.2904 313.759 60.5Z" fill="black"/>
<path d="M313.759 64C313.759 64.2142 313.684 64.3942 313.533 64.54C313.387 64.6859 313.21 64.7588 313 64.7588C312.79 64.7588 312.61 64.6836 312.46 64.5332C312.314 64.3874 312.241 64.2096 312.241 64C312.241 63.7904 312.314 63.6104 312.46 63.46C312.61 63.3141 312.79 63.2412 313 63.2412C313.214 63.2412 313.394 63.3141 313.54 63.46C313.686 63.6104 313.759 63.7904 313.759 64Z" fill="black"/>
<path d="M313.759 67.5C313.759 67.7142 313.684 67.8942 313.533 68.04C313.387 68.1859 313.21 68.2588 313 68.2588C312.79 68.2588 312.61 68.1836 312.46 68.0332C312.314 67.8874 312.241 67.7096 312.241 67.5C312.241 67.2904 312.314 67.1104 312.46 66.96C312.61 66.8141 312.79 66.7412 313 66.7412C313.214 66.7412 313.394 66.8141 313.54 66.96C313.686 67.1104 313.759 67.2904 313.759 67.5Z" fill="black"/>
<rect x="309" y="72.2588" width="8" height="8" fill="#24B27E"/>
<text fill="black" xml:space="preserve" style="white-space: pre" font-family="Times New Roman" font-size="6" letter-spacing="0em"><tspan x="315" y="65.2656">K</tspan></text>
<path d="M320.375 62.3589L320.236 62.7412H319.064V62.687C319.409 62.3726 319.652 62.1157 319.792 61.9165C319.933 61.7173 320.003 61.5352 320.003 61.3701C320.003 61.2441 319.965 61.1406 319.888 61.0596C319.811 60.9785 319.718 60.938 319.611 60.938C319.513 60.938 319.425 60.9668 319.347 61.0244C319.27 61.0811 319.213 61.1646 319.176 61.2749H319.122C319.146 61.0942 319.208 60.9556 319.309 60.8589C319.411 60.7622 319.537 60.7139 319.688 60.7139C319.85 60.7139 319.984 60.7656 320.091 60.8691C320.2 60.9727 320.254 61.0947 320.254 61.2354C320.254 61.3359 320.23 61.4365 320.184 61.5371C320.111 61.6953 319.994 61.8628 319.832 62.0396C319.589 62.3052 319.437 62.4653 319.376 62.52H319.895C320 62.52 320.074 62.5161 320.116 62.5083C320.159 62.5005 320.198 62.4849 320.232 62.4614C320.266 62.437 320.296 62.4028 320.321 62.3589H320.375Z" fill="black"/>
<line x1="326.875" y1="76.5" x2="326.875" y2="39.5" stroke="#C2D2D6"/>
<rect x="334.375" y="44" width="8" height="28" fill="#E0392D"/>
<circle cx="353.375" cy="58" r="3.5" stroke="#C2D2D6"/>
<line x1="350.872" y1="55.3607" x2="356.015" y2="60.5036" stroke="#C2D2D6"/>
<line x1="350.736" y1="60.5036" x2="355.879" y2="55.3607" stroke="#C2D2D6"/>
<circle cx="368.375" cy="58" r="4" fill="#FF5F33"/>
<rect x="379.375" y="44" width="8" height="28" fill="#E0392D"/>
<line x1="394.875" y1="39.5" x2="394.875" y2="76.5" stroke="#C2D2D6"/>
<rect x="401.375" y="35.7412" width="8" height="8" fill="#1A8059"/>
<rect x="401.375" y="47.7412" width="8" height="8" fill="#2CDBA1"/>
<path d="M406.134 60.5C406.134 60.7142 406.059 60.8942 405.909 61.04C405.763 61.1859 405.585 61.2588 405.375 61.2588C405.166 61.2588 404.986 61.1836 404.835 61.0332C404.69 60.8874 404.617 60.7096 404.617 60.5C404.617 60.2904 404.69 60.1104 404.835 59.96C404.986 59.8141 405.166 59.7412 405.375 59.7412C405.59 59.7412 405.77 59.8141 405.916 59.96C406.061 60.1104 406.134 60.2904 406.134 60.5Z" fill="black"/>
<path d="M406.134 64C406.134 64.2142 406.059 64.3942 405.909 64.54C405.763 64.6859 405.585 64.7588 405.375 64.7588C405.166 64.7588 404.986 64.6836 404.835 64.5332C404.69 64.3874 404.617 64.2096 404.617 64C404.617 63.7904 404.69 63.6104 404.835 63.46C404.986 63.3141 405.166 63.2412 405.375 63.2412C405.59 63.2412 405.77 63.3141 405.916 63.46C406.061 63.6104 406.134 63.7904 406.134 64Z" fill="black"/>
<path d="M406.134 67.5C406.134 67.7142 406.059 67.8942 405.909 68.04C405.763 68.1859 405.585 68.2588 405.375 68.2588C405.166 68.2588 404.986 68.1836 404.835 68.0332C404.69 67.8874 404.617 67.7096 404.617 67.5C404.617 67.2904 404.69 67.1104 404.835 66.96C404.986 66.8141 405.166 66.7412 405.375 66.7412C405.59 66.7412 405.77 66.8141 405.916 66.96C406.061 67.1104 406.134 67.2904 406.134 67.5Z" fill="black"/>
<rect x="401.375" y="72.2588" width="8" height="8" fill="#4DFFD2"/>
<text fill="black" xml:space="preserve" style="white-space: pre" font-family="Times New Roman" font-size="6" letter-spacing="0em"><tspan x="407.375" y="65.2656">K</tspan></text>
<path d="M412.751 62.3589L412.612 62.7412H411.44V62.687C411.785 62.3726 412.027 62.1157 412.168 61.9165C412.309 61.7173 412.379 61.5352 412.379 61.3701C412.379 61.2441 412.34 61.1406 412.263 61.0596C412.186 60.9785 412.094 60.938 411.986 60.938C411.889 60.938 411.801 60.9668 411.723 61.0244C411.646 61.0811 411.588 61.1646 411.551 61.2749H411.497C411.521 61.0942 411.584 60.9556 411.685 60.8589C411.786 60.7622 411.913 60.7139 412.064 60.7139C412.225 60.7139 412.359 60.7656 412.467 60.8691C412.575 60.9727 412.629 61.0947 412.629 61.2354C412.629 61.3359 412.606 61.4365 412.559 61.5371C412.487 61.6953 412.37 61.8628 412.208 62.0396C411.964 62.3052 411.812 62.4653 411.752 62.52H412.271C412.376 62.52 412.45 62.5161 412.492 62.5083C412.535 62.5005 412.573 62.4849 412.607 62.4614C412.642 62.437 412.671 62.4028 412.697 62.3589H412.751Z" fill="black"/>
<text fill="black" xml:space="preserve" style="white-space: pre" font-family="Times New Roman" font-size="16" letter-spacing="0em"><tspan x="160" y="37.6396">b)</tspan></text>
<line x1="643.751" y1="110.501" x2="649.751" y2="110.501" stroke="#C2D2D6"/>
<line x1="654.751" y1="110.501" x2="660.751" y2="110.501" stroke="#C2D2D6"/>
<line x1="624.751" y1="141.241" x2="615.751" y2="141.241" stroke="#C2D2D6"/>
<line x1="624.751" y1="105.241" x2="615.751" y2="105.241" stroke="#C2D2D6"/>
<line x1="624.751" y1="80.2412" x2="615.751" y2="80.2412" stroke="#C2D2D6"/>
<line x1="644.751" y1="86.2412" x2="639.751" y2="86.2412" stroke="#C2D2D6"/>
<line x1="644.751" y1="110.241" x2="639.751" y2="110.241" stroke="#C2D2D6"/>
<line x1="644.751" y1="146.741" x2="639.751" y2="146.741" stroke="#C2D2D6"/>
<line x1="610.751" y1="110.501" x2="616.751" y2="110.501" stroke="#C2D2D6"/>
<line x1="587.751" y1="110.501" x2="593.751" y2="110.501" stroke="#C2D2D6"/>
<line x1="598.751" y1="110.501" x2="604.751" y2="110.501" stroke="#C2D2D6"/>
<line x1="568.751" y1="141.241" x2="559.751" y2="141.241" stroke="#C2D2D6"/>
<line x1="568.751" y1="105.241" x2="559.751" y2="105.241" stroke="#C2D2D6"/>
<line x1="568.751" y1="80.2412" x2="559.751" y2="80.2412" stroke="#C2D2D6"/>
<line x1="588.751" y1="86.2412" x2="583.751" y2="86.2412" stroke="#C2D2D6"/>
<line x1="588.751" y1="110.241" x2="583.751" y2="110.241" stroke="#C2D2D6"/>
<line x1="588.751" y1="146.741" x2="583.751" y2="146.741" stroke="#C2D2D6"/>
<line x1="553.751" y1="110.501" x2="559.751" y2="110.501" stroke="#C2D2D6"/>
<line x1="531.751" y1="110.501" x2="537.751" y2="110.501" stroke="#C2D2D6"/>
<line x1="542.751" y1="110.501" x2="548.751" y2="110.501" stroke="#C2D2D6"/>
<line x1="512.751" y1="141.241" x2="503.751" y2="141.241" stroke="#C2D2D6"/>
<line x1="512.751" y1="105.241" x2="503.751" y2="105.241" stroke="#C2D2D6"/>
<line x1="512.751" y1="80.2412" x2="503.751" y2="80.2412" stroke="#C2D2D6"/>
<line x1="532.751" y1="86.2412" x2="527.751" y2="86.2412" stroke="#C2D2D6"/>
<line x1="532.751" y1="110.241" x2="527.751" y2="110.241" stroke="#C2D2D6"/>
<line x1="532.751" y1="146.741" x2="527.751" y2="146.741" stroke="#C2D2D6"/>
<line x1="497.751" y1="110.501" x2="503.751" y2="110.501" stroke="#C2D2D6"/>
<line x1="486.751" y1="110.501" x2="492.751" y2="110.501" stroke="#C2D2D6"/>
<line x1="475.751" y1="110.501" x2="481.751" y2="110.501" stroke="#C2D2D6"/>
<line x1="456.751" y1="141.241" x2="447.751" y2="141.241" stroke="#C2D2D6"/>
<line x1="456.751" y1="105.241" x2="447.751" y2="105.241" stroke="#C2D2D6"/>
<line x1="456.751" y1="80.2412" x2="447.751" y2="80.2412" stroke="#C2D2D6"/>
<line x1="476.751" y1="86.2412" x2="471.751" y2="86.2412" stroke="#C2D2D6"/>
<line x1="476.751" y1="110.241" x2="471.751" y2="110.241" stroke="#C2D2D6"/>
<line x1="476.751" y1="146.741" x2="471.751" y2="146.741" stroke="#C2D2D6"/>
<line x1="439.751" y1="110.341" x2="448.751" y2="110.341" stroke="#C2D2D6"/>
<rect x="436.751" y="98.5" width="8" height="24" fill="#546569"/>
<line x1="448.251" y1="141" x2="448.251" y2="80" stroke="#C2D2D6"/>
<circle cx="468.751" cy="86.2412" r="3.5" stroke="#C2D2D6"/>
<line x1="466.247" y1="83.602" x2="471.39" y2="88.7448" stroke="#C2D2D6"/>
<line x1="466.112" y1="88.7448" x2="471.255" y2="83.6019" stroke="#C2D2D6"/>
<line x1="455.751" y1="86.2412" x2="465.751" y2="86.2412" stroke="#C2D2D6"/>
<rect x="452.751" y="70.2412" width="8" height="20" fill="#E0392D"/>
<line x1="468.751" y1="83.2412" x2="468.751" y2="77.2412" stroke="#C2D2D6"/>
<rect x="464.751" y="70.2412" width="8" height="8" fill="#2CDBA1"/>
<circle cx="468.751" cy="110.241" r="3.5" stroke="#C2D2D6"/>
<line x1="466.247" y1="107.602" x2="471.39" y2="112.745" stroke="#C2D2D6"/>
<line x1="466.112" y1="112.745" x2="471.255" y2="107.602" stroke="#C2D2D6"/>
<line x1="455.751" y1="110.241" x2="465.751" y2="110.241" stroke="#C2D2D6"/>
<rect x="452.751" y="94.2412" width="8" height="20" fill="#E0392D"/>
<line x1="468.751" y1="107.241" x2="468.751" y2="101.241" stroke="#C2D2D6"/>
<rect x="464.751" y="94.2412" width="8" height="8" fill="#2CDBA1"/>
<path d="M457.769 119C457.769 119.214 457.693 119.394 457.543 119.54C457.397 119.686 457.219 119.759 457.01 119.759C456.8 119.759 456.62 119.684 456.47 119.533C456.324 119.387 456.251 119.21 456.251 119C456.251 118.79 456.324 118.61 456.47 118.46C456.62 118.314 456.8 118.241 457.01 118.241C457.224 118.241 457.404 118.314 457.55 118.46C457.696 118.61 457.769 118.79 457.769 119Z" fill="black"/>
<path d="M457.769 122.5C457.769 122.714 457.693 122.894 457.543 123.04C457.397 123.186 457.219 123.259 457.01 123.259C456.8 123.259 456.62 123.184 456.47 123.033C456.324 122.887 456.251 122.71 456.251 122.5C456.251 122.29 456.324 122.11 456.47 121.96C456.62 121.814 456.8 121.741 457.01 121.741C457.224 121.741 457.404 121.814 457.55 121.96C457.696 122.11 457.769 122.29 457.769 122.5Z" fill="black"/>
<path d="M457.769 126C457.769 126.214 457.693 126.394 457.543 126.54C457.397 126.686 457.219 126.759 457.01 126.759C456.8 126.759 456.62 126.684 456.47 126.533C456.324 126.387 456.251 126.21 456.251 126C456.251 125.79 456.324 125.61 456.47 125.46C456.62 125.314 456.8 125.241 457.01 125.241C457.224 125.241 457.404 125.314 457.55 125.46C457.696 125.61 457.769 125.79 457.769 126Z" fill="black"/>
<text fill="black" xml:space="preserve" style="white-space: pre" font-family="Times New Roman" font-size="6" letter-spacing="0em"><tspan x="459.769" y="123.766">K</tspan></text>
<circle cx="468.751" cy="146.759" r="3.5" stroke="#C2D2D6"/>
<line x1="466.247" y1="144.12" x2="471.39" y2="149.262" stroke="#C2D2D6"/>
<line x1="466.112" y1="149.262" x2="471.255" y2="144.12" stroke="#C2D2D6"/>
<line x1="455.751" y1="146.759" x2="465.751" y2="146.759" stroke="#C2D2D6"/>
<rect x="452.751" y="130.759" width="8" height="20" fill="#E0392D"/>
<line x1="468.751" y1="143.759" x2="468.751" y2="137.759" stroke="#C2D2D6"/>
<rect x="464.751" y="130.759" width="8" height="8" fill="#2CDBA1"/>
<line x1="476.251" y1="147" x2="476.251" y2="86" stroke="#C2D2D6"/>
<circle cx="484.751" cy="110.5" r="3.5" stroke="#C2D2D6"/>
<line x1="484.751" y1="114.167" x2="484.751" y2="106.833" stroke="#C2D2D6"/>
<line x1="481.251" y1="110.5" x2="488.584" y2="110.5" stroke="#C2D2D6"/>
<circle cx="496.751" cy="110.5" r="4" fill="#FF5F33"/>
<line x1="504.251" y1="141" x2="504.251" y2="80" stroke="#C2D2D6"/>
<circle cx="524.751" cy="86.2412" r="3.5" stroke="#C2D2D6"/>
<line x1="522.247" y1="83.602" x2="527.39" y2="88.7448" stroke="#C2D2D6"/>
<line x1="522.112" y1="88.7448" x2="527.255" y2="83.6019" stroke="#C2D2D6"/>
<line x1="511.751" y1="86.2412" x2="521.751" y2="86.2412" stroke="#C2D2D6"/>
<rect x="508.751" y="70.2412" width="8" height="20" fill="#E0392D"/>
<line x1="524.751" y1="83.2412" x2="524.751" y2="77.2412" stroke="#C2D2D6"/>
<rect x="520.751" y="70.2412" width="8" height="8" fill="#2CDBA1"/>
<circle cx="524.751" cy="110.241" r="3.5" stroke="#C2D2D6"/>
<line x1="522.247" y1="107.602" x2="527.39" y2="112.745" stroke="#C2D2D6"/>
<line x1="522.112" y1="112.745" x2="527.255" y2="107.602" stroke="#C2D2D6"/>
<line x1="511.751" y1="110.241" x2="521.751" y2="110.241" stroke="#C2D2D6"/>
<rect x="508.751" y="94.2412" width="8" height="20" fill="#E0392D"/>
<line x1="524.751" y1="107.241" x2="524.751" y2="101.241" stroke="#C2D2D6"/>
<rect x="520.751" y="94.2412" width="8" height="8" fill="#2CDBA1"/>
<path d="M513.769 119C513.769 119.214 513.693 119.394 513.543 119.54C513.397 119.686 513.219 119.759 513.01 119.759C512.8 119.759 512.62 119.684 512.47 119.533C512.324 119.387 512.251 119.21 512.251 119C512.251 118.79 512.324 118.61 512.47 118.46C512.62 118.314 512.8 118.241 513.01 118.241C513.224 118.241 513.404 118.314 513.55 118.46C513.696 118.61 513.769 118.79 513.769 119Z" fill="black"/>
<path d="M513.769 122.5C513.769 122.714 513.693 122.894 513.543 123.04C513.397 123.186 513.219 123.259 513.01 123.259C512.8 123.259 512.62 123.184 512.47 123.033C512.324 122.887 512.251 122.71 512.251 122.5C512.251 122.29 512.324 122.11 512.47 121.96C512.62 121.814 512.8 121.741 513.01 121.741C513.224 121.741 513.404 121.814 513.55 121.96C513.696 122.11 513.769 122.29 513.769 122.5Z" fill="black"/>
<path d="M513.769 126C513.769 126.214 513.693 126.394 513.543 126.54C513.397 126.686 513.219 126.759 513.01 126.759C512.8 126.759 512.62 126.684 512.47 126.533C512.324 126.387 512.251 126.21 512.251 126C512.251 125.79 512.324 125.61 512.47 125.46C512.62 125.314 512.8 125.241 513.01 125.241C513.224 125.241 513.404 125.314 513.55 125.46C513.696 125.61 513.769 125.79 513.769 126Z" fill="black"/>
<text fill="black" xml:space="preserve" style="white-space: pre" font-family="Times New Roman" font-size="6" letter-spacing="0em"><tspan x="515.769" y="123.766">K</tspan></text>
<circle cx="524.751" cy="146.759" r="3.5" stroke="#C2D2D6"/>
<line x1="522.247" y1="144.12" x2="527.39" y2="149.262" stroke="#C2D2D6"/>
<line x1="522.112" y1="149.262" x2="527.255" y2="144.12" stroke="#C2D2D6"/>
<line x1="511.751" y1="146.759" x2="521.751" y2="146.759" stroke="#C2D2D6"/>
<rect x="508.751" y="130.759" width="8" height="20" fill="#E0392D"/>
<line x1="524.751" y1="143.759" x2="524.751" y2="137.759" stroke="#C2D2D6"/>
<rect x="520.751" y="130.759" width="8" height="8" fill="#2CDBA1"/>
<line x1="532.251" y1="147" x2="532.251" y2="86" stroke="#C2D2D6"/>
<circle cx="540.751" cy="110.5" r="3.5" stroke="#C2D2D6"/>
<line x1="540.751" y1="114.167" x2="540.751" y2="106.833" stroke="#C2D2D6"/>
<line x1="537.251" y1="110.5" x2="544.584" y2="110.5" stroke="#C2D2D6"/>
<circle cx="552.751" cy="110.5" r="4" fill="#FF5F33"/>
<line x1="560.251" y1="141" x2="560.251" y2="80" stroke="#C2D2D6"/>
<circle cx="580.751" cy="86.2412" r="3.5" stroke="#C2D2D6"/>
<line x1="578.247" y1="83.602" x2="583.39" y2="88.7448" stroke="#C2D2D6"/>
<line x1="578.112" y1="88.7448" x2="583.255" y2="83.6019" stroke="#C2D2D6"/>
<line x1="567.751" y1="86.2412" x2="577.751" y2="86.2412" stroke="#C2D2D6"/>
<rect x="564.751" y="70.2412" width="8" height="20" fill="#E0392D"/>
<line x1="580.751" y1="83.2412" x2="580.751" y2="77.2412" stroke="#C2D2D6"/>
<rect x="576.751" y="70.2412" width="8" height="8" fill="#2CDBA1"/>
<circle cx="580.751" cy="110.241" r="3.5" stroke="#C2D2D6"/>
<line x1="578.247" y1="107.602" x2="583.39" y2="112.745" stroke="#C2D2D6"/>
<line x1="578.112" y1="112.745" x2="583.255" y2="107.602" stroke="#C2D2D6"/>
<line x1="567.751" y1="110.241" x2="577.751" y2="110.241" stroke="#C2D2D6"/>
<rect x="564.751" y="94.2412" width="8" height="20" fill="#E0392D"/>
<line x1="580.751" y1="107.241" x2="580.751" y2="101.241" stroke="#C2D2D6"/>
<rect x="576.751" y="94.2412" width="8" height="8" fill="#2CDBA1"/>
<path d="M569.769 119C569.769 119.214 569.693 119.394 569.543 119.54C569.397 119.686 569.219 119.759 569.01 119.759C568.8 119.759 568.62 119.684 568.47 119.533C568.324 119.387 568.251 119.21 568.251 119C568.251 118.79 568.324 118.61 568.47 118.46C568.62 118.314 568.8 118.241 569.01 118.241C569.224 118.241 569.404 118.314 569.55 118.46C569.696 118.61 569.769 118.79 569.769 119Z" fill="black"/>
<path d="M569.769 122.5C569.769 122.714 569.693 122.894 569.543 123.04C569.397 123.186 569.219 123.259 569.01 123.259C568.8 123.259 568.62 123.184 568.47 123.033C568.324 122.887 568.251 122.71 568.251 122.5C568.251 122.29 568.324 122.11 568.47 121.96C568.62 121.814 568.8 121.741 569.01 121.741C569.224 121.741 569.404 121.814 569.55 121.96C569.696 122.11 569.769 122.29 569.769 122.5Z" fill="black"/>
<path d="M569.769 126C569.769 126.214 569.693 126.394 569.543 126.54C569.397 126.686 569.219 126.759 569.01 126.759C568.8 126.759 568.62 126.684 568.47 126.533C568.324 126.387 568.251 126.21 568.251 126C568.251 125.79 568.324 125.61 568.47 125.46C568.62 125.314 568.8 125.241 569.01 125.241C569.224 125.241 569.404 125.314 569.55 125.46C569.696 125.61 569.769 125.79 569.769 126Z" fill="black"/>
<text fill="black" xml:space="preserve" style="white-space: pre" font-family="Times New Roman" font-size="6" letter-spacing="0em"><tspan x="571.769" y="123.766">K</tspan></text>
<circle cx="580.751" cy="146.759" r="3.5" stroke="#C2D2D6"/>
<line x1="578.247" y1="144.12" x2="583.39" y2="149.262" stroke="#C2D2D6"/>
<line x1="578.112" y1="149.262" x2="583.255" y2="144.12" stroke="#C2D2D6"/>
<line x1="567.751" y1="146.759" x2="577.751" y2="146.759" stroke="#C2D2D6"/>
<rect x="564.751" y="130.759" width="8" height="20" fill="#E0392D"/>
<line x1="580.751" y1="143.759" x2="580.751" y2="137.759" stroke="#C2D2D6"/>
<rect x="576.751" y="130.759" width="8" height="8" fill="#2CDBA1"/>
<line x1="588.251" y1="147" x2="588.251" y2="86" stroke="#C2D2D6"/>
<circle cx="596.751" cy="110.5" r="3.5" stroke="#C2D2D6"/>
<line x1="596.751" y1="114.167" x2="596.751" y2="106.833" stroke="#C2D2D6"/>
<line x1="593.251" y1="110.5" x2="600.584" y2="110.5" stroke="#C2D2D6"/>
<circle cx="608.751" cy="110.5" r="4" fill="#FF5F33"/>
<line x1="616.251" y1="141" x2="616.251" y2="80" stroke="#C2D2D6"/>
<circle cx="636.751" cy="86.2412" r="3.5" stroke="#C2D2D6"/>
<line x1="634.247" y1="83.602" x2="639.39" y2="88.7448" stroke="#C2D2D6"/>
<line x1="634.112" y1="88.7448" x2="639.255" y2="83.6019" stroke="#C2D2D6"/>
<line x1="623.751" y1="86.2412" x2="633.751" y2="86.2412" stroke="#C2D2D6"/>
<line x1="636.751" y1="83.2412" x2="636.751" y2="77.2412" stroke="#C2D2D6"/>
<rect x="632.751" y="70.2412" width="8" height="8" fill="#2CDBA1"/>
<rect x="620.751" y="74.2412" width="8" height="16" fill="#3D494C"/>
<circle cx="636.751" cy="110.241" r="3.5" stroke="#C2D2D6"/>
<line x1="634.247" y1="107.602" x2="639.39" y2="112.745" stroke="#C2D2D6"/>
<line x1="634.112" y1="112.745" x2="639.255" y2="107.602" stroke="#C2D2D6"/>
<line x1="623.751" y1="110.241" x2="633.751" y2="110.241" stroke="#C2D2D6"/>
<line x1="636.751" y1="107.241" x2="636.751" y2="101.241" stroke="#C2D2D6"/>
<rect x="632.751" y="94.2412" width="8" height="8" fill="#2CDBA1"/>
<rect x="620.751" y="98.2412" width="8" height="16" fill="#3D494C"/>
<path d="M625.769 119C625.769 119.214 625.693 119.394 625.543 119.54C625.397 119.686 625.219 119.759 625.01 119.759C624.8 119.759 624.62 119.684 624.47 119.533C624.324 119.387 624.251 119.21 624.251 119C624.251 118.79 624.324 118.61 624.47 118.46C624.62 118.314 624.8 118.241 625.01 118.241C625.224 118.241 625.404 118.314 625.55 118.46C625.696 118.61 625.769 118.79 625.769 119Z" fill="black"/>
<path d="M625.769 122.5C625.769 122.714 625.693 122.894 625.543 123.04C625.397 123.186 625.219 123.259 625.01 123.259C624.8 123.259 624.62 123.184 624.47 123.033C624.324 122.887 624.251 122.71 624.251 122.5C624.251 122.29 624.324 122.11 624.47 121.96C624.62 121.814 624.8 121.741 625.01 121.741C625.224 121.741 625.404 121.814 625.55 121.96C625.696 122.11 625.769 122.29 625.769 122.5Z" fill="black"/>
<path d="M625.769 126C625.769 126.214 625.693 126.394 625.543 126.54C625.397 126.686 625.219 126.759 625.01 126.759C624.8 126.759 624.62 126.684 624.47 126.533C624.324 126.387 624.251 126.21 624.251 126C624.251 125.79 624.324 125.61 624.47 125.46C624.62 125.314 624.8 125.241 625.01 125.241C625.224 125.241 625.404 125.314 625.55 125.46C625.696 125.61 625.769 125.79 625.769 126Z" fill="black"/>
<text fill="black" xml:space="preserve" style="white-space: pre" font-family="Times New Roman" font-size="6" letter-spacing="0em"><tspan x="627.769" y="123.766">K</tspan></text>
<circle cx="636.751" cy="146.759" r="3.5" stroke="#C2D2D6"/>
<line x1="634.247" y1="144.12" x2="639.39" y2="149.262" stroke="#C2D2D6"/>
<line x1="634.112" y1="149.262" x2="639.255" y2="144.12" stroke="#C2D2D6"/>
<line x1="623.751" y1="146.759" x2="633.751" y2="146.759" stroke="#C2D2D6"/>
<line x1="636.751" y1="143.759" x2="636.751" y2="137.759" stroke="#C2D2D6"/>
<rect x="632.751" y="130.759" width="8" height="8" fill="#2CDBA1"/>
<rect x="620.751" y="134.759" width="8" height="16" fill="#3D494C"/>
<line x1="644.251" y1="147" x2="644.251" y2="86" stroke="#C2D2D6"/>
<circle cx="652.751" cy="110.5" r="3.5" stroke="#C2D2D6"/>
<line x1="652.751" y1="114.167" x2="652.751" y2="106.833" stroke="#C2D2D6"/>
<line x1="649.251" y1="110.5" x2="656.584" y2="110.5" stroke="#C2D2D6"/>
<rect x="660.751" y="102.5" width="8" height="16" fill="#3D494C"/>
<line x1="488.751" y1="21.2412" x2="496.751" y2="21.2412" stroke="#C2D2D6"/>
<line x1="488.751" y1="33.2412" x2="496.751" y2="33.2412" stroke="#C2D2D6"/>
<line x1="488.751" y1="58.2412" x2="496.751" y2="58.2412" stroke="#C2D2D6"/>
<line x1="468.751" y1="39.7412" x2="488.751" y2="39.7412" stroke="#C2D2D6"/>
<text fill="black" xml:space="preserve" style="white-space: pre" font-family="Times New Roman" font-size="6" letter-spacing="0em"><tspan x="498.751" y="46.7656">K</tspan></text>
<rect x="464.751" y="27.5" width="8" height="24" fill="#C2D2D6"/>
<rect x="476.751" y="25.5" width="8" height="28" fill="#E0392D"/>
<line x1="489.251" y1="21" x2="489.251" y2="58" stroke="#C2D2D6"/>
<rect x="492.751" y="17.2412" width="8" height="8" fill="#2CDBA1"/>
<rect x="492.751" y="29.2412" width="8" height="8" fill="#2CDBA1"/>
<path d="M497.51 42C497.51 42.2142 497.435 42.3942 497.284 42.54C497.138 42.6859 496.961 42.7588 496.751 42.7588C496.541 42.7588 496.361 42.6836 496.211 42.5332C496.065 42.3874 495.992 42.2096 495.992 42C495.992 41.7904 496.065 41.6104 496.211 41.46C496.361 41.3141 496.541 41.2412 496.751 41.2412C496.965 41.2412 497.145 41.3141 497.291 41.46C497.437 41.6104 497.51 41.7904 497.51 42Z" fill="black"/>
<path d="M497.51 45.5C497.51 45.7142 497.435 45.8942 497.284 46.04C497.138 46.1859 496.961 46.2588 496.751 46.2588C496.541 46.2588 496.361 46.1836 496.211 46.0332C496.065 45.8874 495.992 45.7096 495.992 45.5C495.992 45.2904 496.065 45.1104 496.211 44.96C496.361 44.8141 496.541 44.7412 496.751 44.7412C496.965 44.7412 497.145 44.8141 497.291 44.96C497.437 45.1104 497.51 45.2904 497.51 45.5Z" fill="black"/>
<path d="M497.51 49C497.51 49.2142 497.435 49.3942 497.284 49.54C497.138 49.6859 496.961 49.7588 496.751 49.7588C496.541 49.7588 496.361 49.6836 496.211 49.5332C496.065 49.3874 495.992 49.2096 495.992 49C495.992 48.7904 496.065 48.6104 496.211 48.46C496.361 48.3141 496.541 48.2412 496.751 48.2412C496.965 48.2412 497.145 48.3141 497.291 48.46C497.437 48.6104 497.51 48.7904 497.51 49Z" fill="black"/>
<rect x="492.751" y="53.7588" width="8" height="8" fill="#2CDBA1"/>
<text fill="black" xml:space="preserve" style="white-space: pre" font-family="Times New Roman" font-size="16" letter-spacing="0em"><tspan x="437" y="37.6396">c)</tspan></text>
<text fill="black" xml:space="preserve" style="white-space: pre" font-family="Times New Roman" font-size="16" letter-spacing="0em"><tspan x="692.751" y="37.6396">d)</tspan></text>
<line x1="744.751" y1="9" x2="752.751" y2="9" stroke="#C2D2D6"/>
<line x1="744.751" y1="21" x2="752.751" y2="21" stroke="#C2D2D6"/>
<line x1="744.751" y1="46" x2="752.751" y2="46" stroke="#C2D2D6"/>
<line x1="724.751" y1="27.5" x2="744.751" y2="27.5" stroke="#C2D2D6"/>
<text fill="black" xml:space="preserve" style="white-space: pre" font-family="Times New Roman" font-size="6" letter-spacing="0em"><tspan x="754.751" y="34.5244">K</tspan></text>
<rect x="720.751" y="15.2588" width="8" height="24" fill="#C2D2D6"/>
<rect x="732.751" y="13.2588" width="8" height="28" fill="#E0392D"/>
<line x1="745.251" y1="8.75879" x2="745.251" y2="45.7588" stroke="#C2D2D6"/>
<rect x="748.751" y="5" width="8" height="8" fill="#2CDBA1"/>
<rect x="748.751" y="17" width="8" height="8" fill="#2CDBA1"/>
<path d="M753.51 29.7588C753.51 29.973 753.435 30.153 753.284 30.2988C753.138 30.4447 752.961 30.5176 752.751 30.5176C752.541 30.5176 752.361 30.4424 752.211 30.292C752.065 30.1462 751.992 29.9684 751.992 29.7588C751.992 29.5492 752.065 29.3691 752.211 29.2187C752.361 29.0729 752.541 29 752.751 29C752.965 29 753.145 29.0729 753.291 29.2187C753.437 29.3691 753.51 29.5492 753.51 29.7588Z" fill="black"/>
<path d="M753.51 33.2588C753.51 33.473 753.435 33.653 753.284 33.7988C753.138 33.9447 752.961 34.0176 752.751 34.0176C752.541 34.0176 752.361 33.9424 752.211 33.792C752.065 33.6462 751.992 33.4684 751.992 33.2588C751.992 33.0492 752.065 32.8691 752.211 32.7187C752.361 32.5729 752.541 32.5 752.751 32.5C752.965 32.5 753.145 32.5729 753.291 32.7187C753.437 32.8691 753.51 33.0492 753.51 33.2588Z" fill="black"/>
<path d="M753.51 36.7588C753.51 36.973 753.435 37.153 753.284 37.2988C753.138 37.4447 752.961 37.5176 752.751 37.5176C752.541 37.5176 752.361 37.4424 752.211 37.292C752.065 37.1462 751.992 36.9684 751.992 36.7588C751.992 36.5492 752.065 36.3691 752.211 36.2187C752.361 36.0729 752.541 36 752.751 36C752.965 36 753.145 36.0729 753.291 36.2187C753.437 36.3691 753.51 36.5492 753.51 36.7588Z" fill="black"/>
<rect x="748.751" y="41.5176" width="8" height="8" fill="#2CDBA1"/>
<line x1="849.751" y1="74.5" x2="840.751" y2="74.5" stroke="#C2D2D6"/>
<line x1="849.751" y1="95" x2="841.751" y2="95" stroke="#C2D2D6"/>
<line x1="849.751" y1="115" x2="841.751" y2="115" stroke="#C2D2D6"/>
<line x1="849.751" y1="147.5" x2="840.751" y2="147.5" stroke="#C2D2D6"/>
<line x1="839.751" y1="74.5" x2="831.751" y2="74.5" stroke="#C2D2D6"/>
<line x1="840.751" y1="95" x2="832.751" y2="95" stroke="#C2D2D6"/>
<line x1="840.751" y1="115" x2="832.751" y2="115" stroke="#C2D2D6"/>
<line x1="840.751" y1="147.5" x2="831.751" y2="147.5" stroke="#C2D2D6"/>
<text fill="black" xml:space="preserve" style="white-space: pre" font-family="Times New Roman" font-size="6" letter-spacing="0em"><tspan x="842.751" y="131.524">N</tspan></text>
<line x1="696.751" y1="111" x2="704.751" y2="111" stroke="#C2D2D6"/>
<line x1="799.751" y1="72.5" x2="804.751" y2="72.5" stroke="#C2D2D6"/>
<line x1="799.751" y1="104.25" x2="804.751" y2="104.25" stroke="#C2D2D6"/>
<line x1="799.751" y1="148.75" x2="804.751" y2="148.75" stroke="#C2D2D6"/>
<line x1="784.751" y1="72.5" x2="793.751" y2="72.5" stroke="#C2D2D6"/>
<line x1="784.751" y1="104.25" x2="793.751" y2="104.25" stroke="#C2D2D6"/>
<line x1="784.751" y1="148.75" x2="793.751" y2="148.75" stroke="#C2D2D6"/>
<line x1="773.751" y1="72.5" x2="782.751" y2="72.5" stroke="#C2D2D6"/>
<line x1="773.751" y1="104.25" x2="782.751" y2="104.25" stroke="#C2D2D6"/>
<line x1="773.751" y1="148.75" x2="782.751" y2="148.75" stroke="#C2D2D6"/>
<line x1="703.751" y1="72.5" x2="712.751" y2="72.5" stroke="#C2D2D6"/>
<line x1="703.751" y1="104.25" x2="712.751" y2="104.25" stroke="#C2D2D6"/>
<line x1="703.751" y1="148.75" x2="712.751" y2="148.75" stroke="#C2D2D6"/>
<text fill="black" xml:space="preserve" style="white-space: pre" font-family="Times New Roman" font-size="6" letter-spacing="0em"><tspan x="798.751" y="127.524">K</tspan></text>
<line x1="803.751" y1="110.5" x2="832.751" y2="110.5" stroke="#C2D2D6"/>
<line x1="848.751" y1="110.5" x2="853.751" y2="110.5" stroke="#C2D2D6"/>
<line x1="859.751" y1="110.5" x2="868.751" y2="110.5" stroke="#C2D2D6"/>
<rect x="692.751" y="98.5" width="8" height="24" fill="#546569"/>
<line x1="704.251" y1="149" x2="704.251" y2="72" stroke="#C2D2D6"/>
<line x1="712.751" y1="72.2412" x2="772.751" y2="72.2412" stroke="#C2D2D6"/>
<rect x="708.751" y="58.2412" width="8" height="28" fill="#E0392D"/>
<circle cx="724.751" cy="72.2412" r="4" fill="#FF5F33"/>
<rect x="732.751" y="58.2412" width="8" height="28" fill="#E0392D"/>
<circle cx="748.751" cy="72.2412" r="4" fill="#FF5F33"/>
<rect x="756.751" y="58.2412" width="8" height="28" fill="#E0392D"/>
<circle cx="772.751" cy="72.2412" r="4" fill="#FF5F33"/>
<line x1="712.751" y1="104.241" x2="772.751" y2="104.241" stroke="#C2D2D6"/>
<rect x="708.751" y="90.2412" width="8" height="28" fill="#E0392D"/>
<circle cx="724.751" cy="104.241" r="4" fill="#FF5F33"/>
<rect x="732.751" y="90.2412" width="8" height="28" fill="#E0392D"/>
<circle cx="748.751" cy="104.241" r="4" fill="#FF5F33"/>
<rect x="756.751" y="90.2412" width="8" height="28" fill="#E0392D"/>
<circle cx="772.751" cy="104.241" r="4" fill="#FF5F33"/>
<path d="M713.769 123C713.769 123.214 713.693 123.394 713.543 123.54C713.397 123.686 713.219 123.759 713.01 123.759C712.8 123.759 712.62 123.684 712.47 123.533C712.324 123.387 712.251 123.21 712.251 123C712.251 122.79 712.324 122.61 712.47 122.46C712.62 122.314 712.8 122.241 713.01 122.241C713.224 122.241 713.404 122.314 713.55 122.46C713.696 122.61 713.769 122.79 713.769 123Z" fill="black"/>
<path d="M713.769 126.5C713.769 126.714 713.693 126.894 713.543 127.04C713.397 127.186 713.219 127.259 713.01 127.259C712.8 127.259 712.62 127.184 712.47 127.033C712.324 126.887 712.251 126.71 712.251 126.5C712.251 126.29 712.324 126.11 712.47 125.96C712.62 125.814 712.8 125.741 713.01 125.741C713.224 125.741 713.404 125.814 713.55 125.96C713.696 126.11 713.769 126.29 713.769 126.5Z" fill="black"/>
<path d="M713.769 130C713.769 130.214 713.693 130.394 713.543 130.54C713.397 130.686 713.219 130.759 713.01 130.759C712.8 130.759 712.62 130.684 712.47 130.533C712.324 130.387 712.251 130.21 712.251 130C712.251 129.79 712.324 129.61 712.47 129.46C712.62 129.314 712.8 129.241 713.01 129.241C713.224 129.241 713.404 129.314 713.55 129.46C713.696 129.61 713.769 129.79 713.769 130Z" fill="black"/>
<text fill="black" xml:space="preserve" style="white-space: pre" font-family="Times New Roman" font-size="6" letter-spacing="0em"><tspan x="715.769" y="127.766">K</tspan></text>
<line x1="712.751" y1="148.759" x2="772.751" y2="148.759" stroke="#C2D2D6"/>
<rect x="708.751" y="134.759" width="8" height="28" fill="#E0392D"/>
<circle cx="724.751" cy="148.759" r="4" fill="#FF5F33"/>
<rect x="732.751" y="134.759" width="8" height="28" fill="#E0392D"/>
<circle cx="748.751" cy="148.759" r="4" fill="#FF5F33"/>
<rect x="756.751" y="134.759" width="8" height="28" fill="#E0392D"/>
<circle cx="772.751" cy="148.759" r="4" fill="#FF5F33"/>
<rect x="780.751" y="58" width="8" height="105" fill="#FF8F70"/>
<line x1="796.751" y1="146" x2="796.751" y2="139" stroke="#C2D2D6"/>
<circle cx="796.751" cy="149" r="3.5" stroke="#C2D2D6"/>
<line x1="794.247" y1="146.361" x2="799.39" y2="151.504" stroke="#C2D2D6"/>
<line x1="794.112" y1="151.504" x2="799.255" y2="146.361" stroke="#C2D2D6"/>
<rect x="792.751" y="135" width="8" height="8" fill="#2CDBA1"/>
<line x1="796.751" y1="101" x2="796.751" y2="94" stroke="#C2D2D6"/>
<circle cx="796.751" cy="104" r="3.5" stroke="#C2D2D6"/>
<line x1="794.247" y1="101.361" x2="799.39" y2="106.504" stroke="#C2D2D6"/>
<line x1="794.112" y1="106.504" x2="799.255" y2="101.361" stroke="#C2D2D6"/>
<rect x="792.751" y="90" width="8" height="8" fill="#2CDBA1"/>
<line x1="796.751" y1="69" x2="796.751" y2="62" stroke="#C2D2D6"/>
<rect x="792.751" y="58" width="8" height="8" fill="#2CDBA1"/>
<circle cx="796.751" cy="72" r="3.5" stroke="#C2D2D6"/>
<line x1="794.247" y1="69.3607" x2="799.39" y2="74.5036" stroke="#C2D2D6"/>
<line x1="794.112" y1="74.5036" x2="799.255" y2="69.3607" stroke="#C2D2D6"/>
<path d="M797.269 122.759C797.269 122.973 797.193 123.153 797.043 123.299C796.897 123.445 796.719 123.518 796.51 123.518C796.3 123.518 796.12 123.442 795.97 123.292C795.824 123.146 795.751 122.968 795.751 122.759C795.751 122.549 795.824 122.369 795.97 122.219C796.12 122.073 796.3 122 796.51 122C796.724 122 796.904 122.073 797.05 122.219C797.196 122.369 797.269 122.549 797.269 122.759Z" fill="black"/>
<path d="M797.269 126.259C797.269 126.473 797.193 126.653 797.043 126.799C796.897 126.945 796.719 127.018 796.51 127.018C796.3 127.018 796.12 126.942 795.97 126.792C795.824 126.646 795.751 126.468 795.751 126.259C795.751 126.049 795.824 125.869 795.97 125.719C796.12 125.573 796.3 125.5 796.51 125.5C796.724 125.5 796.904 125.573 797.05 125.719C797.196 125.869 797.269 126.049 797.269 126.259Z" fill="black"/>
<path d="M797.269 129.759C797.269 129.973 797.193 130.153 797.043 130.299C796.897 130.445 796.719 130.518 796.51 130.518C796.3 130.518 796.12 130.442 795.97 130.292C795.824 130.146 795.751 129.968 795.751 129.759C795.751 129.549 795.824 129.369 795.97 129.219C796.12 129.073 796.3 129 796.51 129C796.724 129 796.904 129.073 797.05 129.219C797.196 129.369 797.269 129.549 797.269 129.759Z" fill="black"/>
<line x1="804.251" y1="149" x2="804.251" y2="72" stroke="#C2D2D6"/>
<circle cx="812.751" cy="110.5" r="3.5" stroke="#C2D2D6"/>
<line x1="812.751" y1="114.167" x2="812.751" y2="106.833" stroke="#C2D2D6"/>
<line x1="809.251" y1="110.5" x2="816.584" y2="110.5" stroke="#C2D2D6"/>
<circle cx="824.751" cy="110.5" r="4" fill="#FF5F33"/>
<line x1="832.251" y1="147" x2="832.251" y2="74" stroke="#C2D2D6"/>
<rect x="836.751" y="66.2412" width="8" height="16" fill="#3D494C"/>
<rect x="836.751" y="86.2412" width="8" height="16" fill="#3D494C"/>
<rect x="836.751" y="106.241" width="8" height="16" fill="#3D494C"/>
<path d="M841.51 127C841.51 127.214 841.435 127.394 841.284 127.54C841.138 127.686 840.961 127.759 840.751 127.759C840.541 127.759 840.361 127.684 840.211 127.533C840.065 127.387 839.992 127.21 839.992 127C839.992 126.79 840.065 126.61 840.211 126.46C840.361 126.314 840.541 126.241 840.751 126.241C840.965 126.241 841.145 126.314 841.291 126.46C841.437 126.61 841.51 126.79 841.51 127Z" fill="black"/>
<path d="M841.51 130.5C841.51 130.714 841.435 130.894 841.284 131.04C841.138 131.186 840.961 131.259 840.751 131.259C840.541 131.259 840.361 131.184 840.211 131.033C840.065 130.887 839.992 130.71 839.992 130.5C839.992 130.29 840.065 130.11 840.211 129.96C840.361 129.814 840.541 129.741 840.751 129.741C840.965 129.741 841.145 129.814 841.291 129.96C841.437 130.11 841.51 130.29 841.51 130.5Z" fill="black"/>
<path d="M841.51 134C841.51 134.214 841.435 134.394 841.284 134.54C841.138 134.686 840.961 134.759 840.751 134.759C840.541 134.759 840.361 134.684 840.211 134.533C840.065 134.387 839.992 134.21 839.992 134C839.992 133.79 840.065 133.61 840.211 133.46C840.361 133.314 840.541 133.241 840.751 133.241C840.965 133.241 841.145 133.314 841.291 133.46C841.437 133.61 841.51 133.79 841.51 134Z" fill="black"/>
<rect x="836.751" y="138.759" width="8" height="16" fill="#3D494C"/>
<line x1="849.251" y1="74" x2="849.251" y2="147" stroke="#C2D2D6"/>
<circle cx="856.751" cy="110.5" r="3.5" stroke="#C2D2D6"/>
<line x1="854.247" y1="107.861" x2="859.39" y2="113.004" stroke="#C2D2D6"/>
<line x1="854.112" y1="113.004" x2="859.255" y2="107.861" stroke="#C2D2D6"/>
<rect x="864.751" y="102.5" width="8" height="16" fill="#3D494C"/>
<text fill="#FF8F70" xml:space="preserve" style="white-space: pre" font-family="Times New Roman" font-size="6" letter-spacing="0em"><tspan x="790.751" y="161.524">Orthogonalization</tspan></text>
<rect x="852.751" y="78.2412" width="8" height="24" fill="#C2D2D6"/>
<line x1="856.751" y1="107.241" x2="856.751" y2="101.241" stroke="#C2D2D6"/>
</g>
<defs>
<clipPath id="clip0_15_136">
<rect width="879" height="210" fill="white"/>
</clipPath>
</defs>
</svg>
